<svg xmlns="http://www.w3.org/2000/svg" width="30.898" height="30.89" viewBox="0 0 30.898 30.89"><path d="M-393.386,369.825V368.01c.607,0,1.2-.017,1.785.007a.5.5,0,0,0,.539-.339q3.122-6.335,6.267-12.658a.384.384,0,0,0-.042-.5,1.765,1.765,0,0,1,.183-2.446,1.806,1.806,0,0,1,2.464.024,1.769,1.769,0,0,1,.134,2.451.321.321,0,0,0-.048.418q3.183,6.406,6.351,12.818a.344.344,0,0,0,.364.229c.622-.013,1.245-.005,1.918-.005v1.815h-3.319a1.606,1.606,0,0,0-.073-.223q-2.748-5.559-5.5-11.116c-.034-.068-.075-.132-.148-.258v9.788h1.8v1.81h-5.431V368h1.786V358.21c-.084.16-.131.245-.174.332q-.9,1.822-1.8,3.646-1.894,3.819-3.79,7.638Z" transform="translate(398.877 -338.935)" fill="#fff"/><path d="M-150.155,206.744l-1.744.455-.474-1.733-1.748.456-2.34-8.731,1.743-.477-.46-1.742,1.742-.469c.231.856.458,1.7.683,2.538q1.246,4.654,2.493,9.308a2.747,2.747,0,0,0,.105.275Z" transform="translate(181.053 -194.502)" fill="#fff"/><path d="M-356.581,242.348l-6.248,1.658a3.658,3.658,0,0,0-2.158-2.431,3.467,3.467,0,0,0-2.419-.094c-1.827.577-2.7,2.143-2.424,4.4l-2.6.683-2.342-8.74,15.852-4.215Z" transform="translate(381.766 -230.456)" fill="#fff"/><path d="M-457.4,312.061l-1.743.472-2.342-8.738,1.744-.471.942,3.494,1.742-.469-.46-1.743,1.742-.473,1.406,5.244-1.743.466-.475-1.74-1.743.463Z" transform="translate(461.489 -294.55)" fill="#fff"/></svg>