<svg xmlns="http://www.w3.org/2000/svg" width="29.998" height="29.999" viewBox="0 0 29.998 29.999"><g transform="translate(-118.673 -242.358)"><g transform="translate(118.673 242.358)"><path d="M140.1,243.9c-.4.4-.77.78-1.163,1.135a1.838,1.838,0,0,0-.736,1.794,11.469,11.469,0,0,0-10.044.514,11.108,11.108,0,0,0-4.867,5.157,11.49,11.49,0,0,0,16.059,14.911,11.25,11.25,0,0,0,5.208-6.307,11.428,11.428,0,0,0-.283-8.165c.121-.007.21-.019.3-.016a1.583,1.583,0,0,0,1.229-.509c.458-.468.924-.928,1.392-1.4A14.974,14.974,0,1,1,140.1,243.9Z" transform="translate(-118.673 -242.429)" fill="#fff"/><path d="M217.618,330.652a7.99,7.99,0,1,1-3.636-3.633c-.049.056-.092.113-.143.164-.794.8-1.585,1.595-2.39,2.379a.558.558,0,0,1-.4.145,4.493,4.493,0,1,0,3.9,4.257,1.26,1.26,0,0,1,.449-1.118c.683-.64,1.331-1.318,1.994-1.98C217.464,330.794,217.54,330.726,217.618,330.652Z" transform="translate(-195.475 -319.17)" fill="#fff"/><path d="M291.254,245.16a1.926,1.926,0,0,1,1.6-.857,1.508,1.508,0,0,1,1,.454,1.533,1.533,0,0,1,.434,1.344,2.195,2.195,0,0,1-.837,1.256h1.971a.883.883,0,0,1,.34.01c.159.072.362.166.421.3s-.022.345-.069.514c-.02.071-.108.123-.166.182-1.067,1.067-2.138,2.131-3.2,3.2a.884.884,0,0,1-.689.289c-.916-.013-1.832,0-2.748-.011a.748.748,0,0,0-.6.244q-3.116,3.132-6.244,6.253a1.591,1.591,0,0,1-1.548.523,1.549,1.549,0,0,1-.886-2.481,3.65,3.65,0,0,1,.3-.319q3.1-3.1,6.207-6.2a.653.653,0,0,0,.217-.515c-.012-.947-.019-1.895.006-2.841a.972.972,0,0,1,.244-.6c1.082-1.111,2.186-2.2,3.281-3.3.178-.179.365-.322.632-.218a.555.555,0,0,1,.332.609C291.25,243.687,291.254,244.373,291.254,245.16Z" transform="translate(-266.259 -242.358)" fill="#fff"/></g></g></svg>