<svg xmlns="http://www.w3.org/2000/svg" width="459.162" height="444.037" viewBox="0 0 459.162 444.037"><g transform="translate(-17.491 -37.913)"><path d="M464.3,70.107c.975,7.061-4.29,12.01-15.262,13.523l-22.061,3.042L421.344,45.82l20.893-2.882c10.738-1.481,16.6,2.172,17.464,8.475a9.738,9.738,0,0,1-4.261,9.627C460.274,62.038,463.618,65.146,464.3,70.107Zm-30.368-17.52,1.087,7.879,7.938-1.1c3.852-.531,5.651-2.147,5.289-4.773-.354-2.567-2.524-3.637-6.376-3.1Zm18.519,17.846c-.387-2.8-2.672-3.855-6.641-3.308l-9.688,1.336,1.142,8.287,9.689-1.336C450.922,74.865,452.838,73.234,452.452,70.433Z" fill="#e0e0e0"/><rect width="44.386" height="7.034" transform="translate(38.05 305.551)" fill="#ebebeb"/><rect width="44.386" height="7.034" transform="translate(38.05 331.148)" fill="#ebebeb"/><rect width="22.193" height="7.034" transform="translate(38.05 318.798)" fill="#ebebeb"/><path d="M199.952,365.152H165.885V337.171h17.647v5.9H171.787V359.25H194.05v-5.882h5.9Z" fill="#ebebeb"/><path d="M219.6,365.152H205.076v-5.9H213.7V343.073H191.434v7.535h-5.9V337.171H219.6Z" fill="#ebebeb"/><path d="M468.87,128.038h5.891l-8.248,41.24h-5.891Z" fill="#ebebeb"/><path d="M25.011,79.462h91.895V212.7H25.637Z" fill="#e0e0e0"/><rect width="91.059" height="131.986" transform="translate(109.176 212.074) rotate(180)" fill="#fff"/><path d="M109.8,79.462V212.7H17.491V79.462ZM108.55,211.448V80.714H18.743V211.448Z" fill="#e0e0e0"/><rect width="68.432" height="103.396" transform="translate(29.431 94.383)" fill="#fff"/><path d="M29.431,94.383s.011.178.017.51c0,.35.01.837.018,1.47.008,1.311.02,3.212.036,5.679.019,4.966.046,12.187.081,21.307.036,18.234.087,44.043.147,74.43l-.3-.3,68.423-.027h.008l-.325.326c.025-39,.048-74.964.066-103.4l.259.26-49.79-.136L34.3,94.44l-3.618-.029c-.82-.009-1.255-.028-1.255-.028s.4-.018,1.2-.028l3.57-.029,13.71-.066,49.951-.137h.26v.26c.019,28.432.042,64.392.067,103.4v.326h-.335l-68.423-.027h-.3v-.3c.06-30.468.111-56.344.147-74.626.034-9.091.061-16.289.08-21.24.016-2.44.028-4.322.036-5.618.008-.619.014-1.1.018-1.437C29.419,94.538,29.431,94.383,29.431,94.383Z" fill="#e0e0e0"/><path d="M17.862,212.074a11.164,11.164,0,0,1,1.469-2.269c.976-1.35,2.358-3.189,3.947-5.174s3.092-3.732,4.218-4.962a10.7,10.7,0,0,1,1.935-1.89c.138.123-2.479,3.3-5.644,7.26S18.01,212.19,17.862,212.074Z" fill="#e0e0e0"/><path d="M18.117,80.088c.142-.111,2.789,3,5.912,6.945s5.543,7.239,5.4,7.35-2.788-3-5.913-6.945S17.976,80.2,18.117,80.088Z" fill="#e0e0e0"/><path d="M109.189,80.193,97.262,94.909" fill="#fff"/><path d="M97.262,94.909c-.14-.114,2.417-3.5,5.71-7.563s6.077-7.266,6.217-7.153-2.416,3.5-5.71,7.563S97.4,95.022,97.262,94.909Z" fill="#e0e0e0"/><path d="M109.176,212.074c-.141.112-2.761-2.965-5.851-6.872s-5.481-7.165-5.339-7.277,2.76,2.965,5.851,6.873S109.317,211.962,109.176,212.074Z" fill="#e0e0e0"/><path d="M68.059,147.59H56.017l-1.433,3.319a7.372,7.372,0,0,0-.7,2.74,2.278,2.278,0,0,0,1.157,2.112,9.736,9.736,0,0,0,3.344.6v.93H47.042v-.93a5.065,5.065,0,0,0,3.016-1.521,20.223,20.223,0,0,0,2.917-5.141l12.192-27.2h.478l12.294,27.956q1.759,3.972,2.891,5a3.943,3.943,0,0,0,2.414.9v.93H66.752v-.93h.679a5.164,5.164,0,0,0,2.79-.553,1.345,1.345,0,0,0,.553-1.157,3.073,3.073,0,0,0-.151-.93q-.051-.227-.754-1.885Zm-.855-1.86-5.078-11.741L56.9,145.73Z" fill="#e0e0e0"/><path d="M215.411,469.377c-1.623-1.391-5.244-5.8-2.451-10.931,1.023-1.881,3.2-2.811,5.165-3.639a20.985,20.985,0,0,0,5.664-2.934c3.071-2.613,3.918-6.953,5.956-10.438,2.34-4,6.708-7,11.323-6.789,5.284.241,9.691,4.557,11.689,9.478s2.068,10.385,2.109,15.7c.023,2.939-.108,6.251-2.265,8.236-1.989,1.83-4.984,1.852-7.68,1.769l-28.878-.887" fill="#f5f5f5"/><path d="M270.645,389.966H194.7l13.68,81.574a9.107,9.107,0,0,0,6.484,7.262c.088.028.178.048.266.073.226.058.444.135.676.175a9.573,9.573,0,0,0,1.545.177l.012.079.371-.059h33.85a9.578,9.578,0,0,0,1.86-.185,9.147,9.147,0,0,0,7.683-7.973l6.6-56.206.3-2.235h-.035l2.612-22.259ZM256.317,442h-7.793l.786-23.674h9.03Zm2.78-23.674h7.461L263.78,442h-6.706ZM236.83,468.245l-.473-20.567H247.58l-.683,20.567ZM224.7,447.678h10.9l.474,20.567h-9.781Zm.842,20.567H216.4c-.869-5.553-2-12.77-3.223-20.567h10.768ZM224.255,442l-1.839-23.674h12.51L235.472,442Zm11.971,0-.546-23.674h12.875L247.769,442Zm-.676-29.352-.505-21.924h14.427l-.728,21.924Zm-.754,0H221.974l-1.7-21.924h14.021Zm-13.577,0H207.653c-.48-3.027-.936-5.894-1.347-8.473-1.415-8.864-1.947-12.2-2.242-13.451h15.451Zm.441,5.678L223.5,442H212.281c-.377-2.4-.759-4.832-1.142-7.263-.879-5.589-1.76-11.176-2.587-16.411ZM211.518,442H204.19l-3.971-23.674h7.569C208.945,425.642,210.228,433.785,211.518,442Zm.892,5.678c1.117,7.117,2.216,14.134,3.223,20.567h-7.042l-3.449-20.567Zm35.242,20.567.683-20.567h7.5l-1.757,20.567Zm1.846-55.6.729-21.924H260.7l-1.873,21.924Zm-46.153-21.924c.3,1.585,1.688,10.212,3.544,21.924h-7.622l-3.678-21.924ZM260.7,468.245h-5.869l1.757-20.567h6.525Zm6.523-55.6h-7.642l1.873-21.924H269.8Z" fill="#e0e0e0"/><path d="M476.653,481.652c0,.144-102.38.26-228.642.26-126.306,0-228.664-.116-228.664-.26s102.358-.261,228.664-.261C374.273,481.391,476.653,481.508,476.653,481.652Z" fill="#263238"/><rect width="328.614" height="253.449" transform="translate(71.888 38.173)" fill="#fff"/><rect width="282.279" height="8.496" transform="translate(91.196 198.496)" fill="#ebebeb"/><rect width="282.279" height="8.496" transform="translate(91.059 187.23)" fill="#ebebeb"/><rect width="282.279" height="8.496" transform="translate(91.059 175.809)" fill="#ebebeb"/><rect width="282.279" height="8.495" transform="translate(91.059 164.388)" fill="#ebebeb"/><rect width="282.279" height="8.495" transform="translate(91.196 210.174)" fill="#ebebeb"/><rect width="282.279" height="8.496" transform="translate(91.196 221.179)" fill="#ebebeb"/><rect width="282.279" height="8.496" transform="translate(91.196 232.635)" fill="#ebebeb"/><rect width="282.279" height="8.495" transform="translate(91.196 243.532)" fill="#ebebeb"/><rect width="282.279" height="8.495" transform="translate(91.196 254.001)" fill="#ebebeb"/><rect width="282.279" height="8.496" transform="translate(91.196 265.903)" fill="#ebebeb"/><rect width="328.936" height="18.864" transform="translate(71.888 37.918)" fill="#489ddc"/><path d="M94.885,76.3H92.85v-.737h4.909V76.3H95.724v5.2h-.839Z" fill="#263238"/><path d="M97.677,79.249a2.336,2.336,0,1,1,2.34,2.3A2.236,2.236,0,0,1,97.677,79.249Zm3.849,0a1.515,1.515,0,1,0-1.509,1.585A1.474,1.474,0,0,0,101.526,79.249Z" fill="#263238"/><path d="M105.366,77.536a.566.566,0,0,1,.577-.576.557.557,0,0,1,.56.576.566.566,0,0,1-.56.586A.575.575,0,0,1,105.366,77.536Zm0,3.425a.567.567,0,0,1,.577-.577.558.558,0,0,1,.56.577.565.565,0,0,1-.56.585A.574.574,0,0,1,105.366,80.961Z" fill="#263238"/><path d="M91.2,111.113l.31-.655a3.027,3.027,0,0,0,1.939.68c1.014,0,1.451-.4,1.451-.906,0-1.435-3.557-.529-3.557-2.71,0-.906.7-1.678,2.248-1.678a3.462,3.462,0,0,1,1.888.52l-.277.671a3.045,3.045,0,0,0-1.611-.478c-1,0-1.426.42-1.426.931,0,1.435,3.557.537,3.557,2.694,0,.9-.722,1.669-2.273,1.669A3.489,3.489,0,0,1,91.2,111.113Z" fill="#263238"/><path d="M100.97,107.337v4.447h-.764v-.671a1.806,1.806,0,0,1-1.509.721,1.747,1.747,0,0,1-1.913-1.938v-2.559h.805V109.8c0,.872.436,1.309,1.2,1.309a1.309,1.309,0,0,0,1.376-1.477v-2.3Z" fill="#263238"/><path d="M107.105,109.56a2.165,2.165,0,0,1-2.248,2.274,1.878,1.878,0,0,1-1.586-.755v.7H102.5v-6.225h.805v2.45a1.894,1.894,0,0,1,1.553-.713A2.157,2.157,0,0,1,107.105,109.56Zm-.814,0a1.5,1.5,0,1,0-1.5,1.57A1.465,1.465,0,0,0,106.291,109.56Z" fill="#263238"/><path d="M106.679,113.193l.261-.621a1.019,1.019,0,0,0,.654.21c.427,0,.662-.269.662-.78v-4.665h.806v4.648a1.326,1.326,0,0,1-1.418,1.476A1.578,1.578,0,0,1,106.679,113.193Zm1.435-7.232a.53.53,0,0,1,.545-.528.525.525,0,1,1-.545.528Z" fill="#263238"/><path d="M114.6,109.829h-3.608a1.507,1.507,0,0,0,1.611,1.3,1.664,1.664,0,0,0,1.284-.537l.444.52a2.424,2.424,0,0,1-4.144-1.553,2.177,2.177,0,0,1,2.232-2.264,2.144,2.144,0,0,1,2.2,2.29C114.613,109.653,114.6,109.753,114.6,109.829Zm-3.608-.579h2.853a1.436,1.436,0,0,0-2.853,0Z" fill="#263238"/><path d="M115.312,109.56a2.221,2.221,0,0,1,2.349-2.264,1.98,1.98,0,0,1,1.812.948l-.613.394a1.383,1.383,0,0,0-1.207-.638,1.565,1.565,0,0,0,0,3.13,1.386,1.386,0,0,0,1.207-.638l.613.386a1.99,1.99,0,0,1-1.812.956A2.228,2.228,0,0,1,115.312,109.56Z" fill="#263238"/><path d="M123.067,111.524a1.526,1.526,0,0,1-.974.31,1.269,1.269,0,0,1-1.409-1.393V108h-.755v-.663h.755v-.973h.805v.973h1.276V108h-1.276v2.408a.655.655,0,0,0,.7.746,1.015,1.015,0,0,0,.629-.209Z" fill="#263238"/><path d="M125.817,107.887a.561.561,0,0,1,.571-.571.552.552,0,0,1,.554.571.56.56,0,0,1-.554.579A.569.569,0,0,1,125.817,107.887Zm0,3.389a.561.561,0,0,1,.571-.571.552.552,0,0,1,.554.571.56.56,0,0,1-.554.579A.569.569,0,0,1,125.817,111.276Z" fill="#263238"/><path d="M83.457,47.35a2.042,2.042,0,1,1-2.042-2.043A2.042,2.042,0,0,1,83.457,47.35Z" fill="#fff"/><path d="M90.726,47.35a2.042,2.042,0,1,1-2.042-2.043A2.042,2.042,0,0,1,90.726,47.35Z" fill="#fff"/><path d="M98,47.35a2.042,2.042,0,1,1-2.043-2.043A2.043,2.043,0,0,1,98,47.35Z" fill="#fff"/><path d="M148.661,147.249a1.931,1.931,0,0,1-.014-.238l-.016-.672q-.012-.921-.036-2.578c-.019-2.26-.047-5.514-.083-9.615l.149.149-58.96.111h0c.52-.52.145-.142.261-.258v1.673q0,.837,0,1.669v3.3q0,3.282,0,6.453l-.256-.256,41.981.115,12.431.074,3.363.034.879.017a2.148,2.148,0,0,1,.31.017,1.646,1.646,0,0,1-.276.016l-.848.017-3.307.034-12.372.074-42.161.115h-.256v-.257q0-3.167,0-6.453,0-1.641,0-3.3v-3.342c.116-.117-.26.258.26-.263h0l58.96.111h.151v.15c-.036,4.139-.064,7.422-.083,9.7q-.024,1.635-.036,2.545l-.016.646A1.01,1.01,0,0,1,148.661,147.249Z" fill="#263238"/><path d="M185.056,147.249a1.522,1.522,0,0,1-.018-.249c-.006-.188-.012-.416-.02-.693q-.017-.966-.045-2.624c-.024-2.3-.058-5.541-.1-9.537l.182.182-32.271.078c-.234.233.314-.318.258-.259v3.4q0,1.688,0,3.333c0,2.191,0,4.32-.008,6.363l-.249-.249,23.071.118,6.736.069,1.817.032a5.384,5.384,0,0,1,.649.031,4.065,4.065,0,0,1-.588.03l-1.766.032-6.679.069-23.24.118h-.249v-.251c0-2.043-.006-4.172-.009-6.363q0-1.644,0-3.333v-3.4c-.057.055.495-.5.263-.262l32.271.077h.185l0,.183c-.041,4.042-.075,7.325-.1,9.647q-.028,1.632-.045,2.583A7.335,7.335,0,0,1,185.056,147.249Z" fill="#263238"/><path d="M95.751,139.005H93.63v-.769h5.118v.769H96.626v5.417h-.875Z" fill="#263238"/><path d="M99.321,138.29a.559.559,0,0,1,.574-.557.552.552,0,1,1-.574.557Zm.151,1.449h.848v4.683h-.848Z" fill="#263238"/><path d="M104.57,144.149a1.6,1.6,0,0,1-1.025.327,1.337,1.337,0,0,1-1.485-1.468v-2.571h-.795v-.7h.795v-1.025h.848v1.025h1.344v.7h-1.344v2.536a.691.691,0,0,0,.734.787,1.073,1.073,0,0,0,.663-.221Z" fill="#263238"/><path d="M105.594,137.865h.848v6.557h-.848Z" fill="#263238"/><path d="M112.274,142.364h-3.8a1.587,1.587,0,0,0,1.7,1.369,1.746,1.746,0,0,0,1.352-.565l.469.548a2.553,2.553,0,0,1-4.366-1.635,2.294,2.294,0,0,1,2.35-2.386,2.258,2.258,0,0,1,2.316,2.412C112.292,142.178,112.283,142.284,112.274,142.364Zm-3.8-.61h3a1.512,1.512,0,0,0-3,0Z" fill="#263238"/><path d="M139.269,140.135h5.616l-2.808,2.808Z" fill="#263238"/><path d="M174.905,140.135h5.616l-2.808,2.808Z" fill="#263238"/><path d="M389.815,280.179c0-1.534-.074-58.4-.193-152.239l.193.193L83.943,128.2h-.022l.26-.26c0,53.663-.01,105.168-.014,152.238l-.246-.245,305.894.246-305.894.245h-.245v-.246c-.005-47.07-.01-98.575-.015-152.238v-.261h.282l305.872.067h.194v.194C389.89,221.779,389.817,278.647,389.815,280.179Z" fill="#e0e0e0"/><path d="M389.815,122.126s-.012-.591-.019-1.727-.014-2.823-.024-5.029c-.013-4.412-.033-10.909-.058-19.279l.1.1-306.342.159h-.016l.26-.26v26.035l-.26-.259,217.462.11,65.1.077,17.634.036,4.585.018c1.034.006,1.572.018,1.572.018s-.514.012-1.536.018l-4.551.018-17.575.036-65.044.078-217.652.11H83.2v-.26c0-8.28,0-17.116,0-26.035v-.26h.276l306.342.159h.1v.1c-.025,8.395-.045,14.912-.058,19.337-.011,2.2-.018,3.872-.024,5.007S389.815,122.126,389.815,122.126Z" fill="#e0e0e0"/><path d="M389.815,90.591S389.8,90,389.8,88.864s-.014-2.824-.024-5.03c-.013-4.412-.033-10.909-.058-19.279l.1.1-306.342.16h-.016l.26-.261V90.59l-.26-.259,217.462.11,65.1.077,17.634.037,4.585.018c1.034.006,1.572.018,1.572.018s-.514.012-1.536.018l-4.551.017-17.575.037-65.044.077-217.652.11H83.2v-.26c0-8.28,0-17.116,0-26.035v-.26h.276l306.342.159h.1v.1c-.025,8.4-.045,14.912-.058,19.338-.011,2.2-.018,3.871-.024,5.007S389.815,90.591,389.815,90.591Z" fill="#e0e0e0"/><path d="M310.182,135.313a1.874,1.874,0,0,0-1.935,1.725h0v6.777h.012a2.734,2.734,0,0,0,5.388,0h.013v-5.462h-.527v5.235a2.187,2.187,0,0,1-4.359,0V137.1a1.416,1.416,0,0,1,2.822,0v5.5h.005a.817.817,0,0,1-1.564-.011v-4.238h-.528v4.05h0v.2h.021a1.321,1.321,0,0,0,2.581,0h.011v-.109a.878.878,0,0,0,.01-.09h-.01v-5.365h0A1.873,1.873,0,0,0,310.182,135.313Z" fill="#263238"/><rect width="7.71" height="1.222" transform="translate(231.097 138.303)" fill="#263238"/><rect width="7.71" height="1.222" transform="translate(231.097 142.75)" fill="#263238"/><rect width="3.855" height="1.222" transform="translate(231.097 140.604)" fill="#263238"/><rect width="7.71" height="1.222" transform="translate(260.047 138.303)" fill="#263238"/><rect width="7.71" height="1.222" transform="translate(260.047 142.75)" fill="#263238"/><rect width="3.855" height="1.222" transform="translate(263.902 140.604)" fill="#263238"/><rect width="7.71" height="1.222" transform="translate(245.773 138.303)" fill="#263238"/><rect width="7.71" height="1.222" transform="translate(245.773 142.75)" fill="#263238"/><rect width="7.71" height="1.222" transform="translate(245.774 140.605)" fill="#263238"/><path d="M287.068,143.566h-6.3v-5.178h3.266v1.092h-2.174v2.994h4.12v-1.089h1.092Z" fill="#263238"/><path d="M290.7,143.566h-2.688v-1.092h1.6V139.48h-4.12v1.395H284.4v-2.487h6.3Z" fill="#263238"/><path d="M293.257,140.566h3.365l-1.682,1.564Z" fill="#263238"/><path d="M217.324,141.1v-2.9h.956v2.869c0,1.059.478,1.515,1.309,1.515s1.3-.456,1.3-1.515v-2.869h.941v2.9a2.255,2.255,0,1,1-4.508,0Z" fill="#263238"/><path d="M208.668,137.615h.858l-1.2,6.013h-.859Z" fill="#263238"/><path d="M200.578,141.979c0,1.039-.859,1.649-2.474,1.649h-3.247v-6.013h3.075c1.581,0,2.354.644,2.354,1.572a1.421,1.421,0,0,1-.807,1.306A1.518,1.518,0,0,1,200.578,141.979Zm-4.037-3.136V140h1.168c.567,0,.859-.2.859-.584s-.292-.576-.859-.576Zm2.319,2.947c0-.413-.309-.61-.894-.61h-1.425v1.22h1.425C198.551,142.4,198.86,142.2,198.86,141.79Z" fill="#263238"/><path d="M226.432,147.609a46.016,46.016,0,0,1-.261-6.912,46,46,0,0,1,.261-6.912,46.1,46.1,0,0,1,.26,6.912A46.106,46.106,0,0,1,226.432,147.609Z" fill="#e0e0e0"/><path d="M272.259,147.609A46.014,46.014,0,0,1,272,140.7a46,46,0,0,1,.261-6.912,46.252,46.252,0,0,1,.26,6.912A46.263,46.263,0,0,1,272.259,147.609Z" fill="#e0e0e0"/><path d="M299.98,147.889a46.1,46.1,0,0,1-.26-6.912,46.091,46.091,0,0,1,.26-6.912,46.011,46.011,0,0,1,.261,6.912A46.022,46.022,0,0,1,299.98,147.889Z" fill="#e0e0e0"/><path d="M321.015,147.478a46.014,46.014,0,0,1-.261-6.912,46,46,0,0,1,.261-6.912,46.1,46.1,0,0,1,.26,6.912A46.11,46.11,0,0,1,321.015,147.478Z" fill="#e0e0e0"/><path d="M222.88,144.108a18.558,18.558,0,0,1-6.2,0,18.629,18.629,0,0,1,6.2,0Z" fill="#263238"/><path d="M162.261,137.615v6.013h-.85v-5.266h-1.357v-.747Z" fill="#263238"/><path d="M167.8,142.881v.747h-4.321v-.584l2.448-2.362c.636-.619.756-1,.756-1.375,0-.618-.438-1-1.28-1a1.887,1.887,0,0,0-1.537.654l-.585-.507a2.773,2.773,0,0,1,2.2-.911c1.254,0,2.062.644,2.062,1.675a2.436,2.436,0,0,1-.988,1.89l-1.839,1.77Z" fill="#263238"/><path d="M389.815,154.111c0,.144-68.6.26-153.2.26-84.627,0-153.209-.116-153.209-.26s68.582-.261,153.209-.261C321.219,153.85,389.815,153.967,389.815,154.111Z" fill="#e0e0e0"/><path d="M370.92,169.278c0,.144-62.293.261-139.117.261-76.851,0-139.131-.117-139.131-.261s62.28-.26,139.131-.26C308.627,169.018,370.92,169.134,370.92,169.278Z" fill="#263238"/><path d="M370.92,180.553c0,.144-62.293.26-139.117.26-76.851,0-139.131-.116-139.131-.26s62.28-.26,139.131-.26C308.627,180.293,370.92,180.409,370.92,180.553Z" fill="#263238"/><path d="M370.92,191.828c0,.144-62.293.26-139.117.26-76.851,0-139.131-.116-139.131-.26s62.28-.261,139.131-.261C308.627,191.567,370.92,191.684,370.92,191.828Z" fill="#263238"/><path d="M370.92,203.1c0,.144-62.293.26-139.117.26-76.851,0-139.131-.116-139.131-.26s62.28-.261,139.131-.261C308.627,202.842,370.92,202.959,370.92,203.1Z" fill="#263238"/><path d="M370.92,214.378c0,.143-62.293.26-139.117.26-76.851,0-139.131-.117-139.131-.26s62.28-.261,139.131-.261C308.627,214.117,370.92,214.234,370.92,214.378Z" fill="#263238"/><path d="M370.92,225.652c0,.144-62.293.261-139.117.261-76.851,0-139.131-.117-139.131-.261s62.28-.26,139.131-.26C308.627,225.392,370.92,225.509,370.92,225.652Z" fill="#263238"/><path d="M370.92,236.927c0,.144-62.293.261-139.117.261-76.851,0-139.131-.117-139.131-.261s62.28-.26,139.131-.26C308.627,236.667,370.92,236.784,370.92,236.927Z" fill="#263238"/><path d="M371.121,247.8c0,.144-62.293.261-139.117.261-76.851,0-139.13-.117-139.13-.261s62.279-.26,139.13-.26C308.828,247.539,371.121,247.656,371.121,247.8Z" fill="#263238"/><path d="M371.322,258.672c0,.143-62.292.26-139.117.26-76.851,0-139.13-.117-139.13-.26s62.279-.261,139.13-.261C309.03,258.411,371.322,258.528,371.322,258.672Z" fill="#263238"/><path d="M93.276,269.544c0-.144,62.293-.261,139.117-.261,76.851,0,139.131.117,139.131.261s-62.28.26-139.131.26C155.569,269.8,93.276,269.688,93.276,269.544Z" fill="#263238"/><path d="M400.5,291.622c0-1.785-.085-100.356-.215-253.449l.215.215-328.586.045h-.027l.26-.26c-.01,91.3-.019,177.679-.026,253.449l-.234-.234,328.613.234-328.613.234h-.235v-.234c-.008-75.77-.017-162.151-.026-253.449v-.26h.288l328.586.045h.215v.215C400.587,191.266,400.5,289.839,400.5,291.622Z" fill="#263238"/><path d="M272.041,116.87v21.8a7.28,7.28,0,0,0,7.28,7.279h26.641a2.532,2.532,0,0,1,1.991.968l6.538,14.254,7.884-14.025a2.532,2.532,0,0,1,1.887-.844h27.963a7.279,7.279,0,0,0,7.279-7.279V116.735a7.278,7.278,0,0,0-7.293-7.279l-72.9.134A7.28,7.28,0,0,0,272.041,116.87Z" fill="#489ddc"/><path d="M290.34,135.7h-4.56v-4.3l10.5-11.467.211-.057a3.45,3.45,0,0,1,3.4.485c1.326,1.215.969,3.45.924,3.7l-.039.214Zm-3.052-1.508h2.386l9.682-10.6a2.751,2.751,0,0,0-.487-2.122,1.947,1.947,0,0,0-1.779-.192l-9.8,10.706Z" fill="#fff"/><path d="M320.04,132.8v1.484h-8.667V122.346H319.8v1.483h-6.722V127.5h5.989v1.451h-5.989V132.8Z" fill="#fff"/><path d="M330.984,121.629v12.658h-1.571v-1.433a3.818,3.818,0,0,1-3.224,1.535,4.615,4.615,0,0,1,0-9.229,3.851,3.851,0,0,1,3.157,1.45v-4.981Zm-1.622,8.138a3.048,3.048,0,1,0-3.036,3.19A2.975,2.975,0,0,0,329.362,129.767Z" fill="#fff"/><path d="M333.8,122.448a1.079,1.079,0,0,1,1.109-1.075,1.06,1.06,0,0,1,1.108,1.04,1.109,1.109,0,0,1-2.217.035Zm.29,2.8h1.638v9.042H334.1Z" fill="#fff"/><path d="M343.942,133.758a3.086,3.086,0,0,1-1.979.631,2.58,2.58,0,0,1-2.866-2.832v-4.964h-1.535v-1.348H339.1v-1.978h1.637v1.978h2.593v1.348h-2.593v4.9a1.333,1.333,0,0,0,1.417,1.519,2.067,2.067,0,0,0,1.28-.427Z" fill="#fff"/><path d="M114.315,453.7c-2.614-.13-3.384-3.822-2.41-6.252s2.9-4.592,2.927-7.21c.023-2.271-1.42-4.336-1.558-6.6-.249-4.092,3.7-7.427,3.872-11.522.131-3.192-2.084-6.233-1.547-9.382.575-3.38,4.1-5.6,4.91-8.931.86-3.547-1.6-7.3-.658-10.826s5.08-6.092,4.49-9.681a33.8,33.8,0,0,0-1.231-3.384c-.742-2.677.719-5.47,2.49-7.61s3.941-4.039,5.035-6.592c1.681-3.924.513-8.7,2.5-12.478,1.653-3.146,5.331-5.263,5.795-8.786,1.866,3.171.041,7.208.466,10.863.277,2.383,1.511,4.532,2.27,6.808a17.73,17.73,0,0,1-1.392,14.186c-1.6,2.81-4.065,5.462-3.94,8.694.152,3.912,4.067,6.749,4.758,10.6.989,5.514-4.884,10.472-4.071,16.015.209,1.43.863,2.775.986,4.215.418,4.9-5.141,8.361-5.986,13.205-.622,3.565,1.439,7.249.587,10.766-.657,2.711-3,5.14-2.423,7.87a19.1,19.1,0,0,0,1.5,3.293,6.282,6.282,0,0,1-.981,6.5,5.462,5.462,0,0,1-6.317,1.3" fill="#489ddc"/><g opacity="0.5"><path d="M131.68,450.964a19.1,19.1,0,0,1-1.5-3.293c-.575-2.73,1.766-5.159,2.423-7.87.852-3.517-1.209-7.2-.587-10.766.846-4.844,6.4-8.306,5.986-13.205-.123-1.44-.776-2.785-.986-4.215-.813-5.543,5.06-10.5,4.071-16.015-.691-3.854-4.606-6.691-4.758-10.6-.125-3.232,2.34-5.884,3.94-8.694a17.73,17.73,0,0,0,1.392-14.186c-.759-2.276-1.993-4.425-2.27-6.808-.425-3.655,1.4-7.692-.466-10.863-.464,3.523-4.142,5.641-5.795,8.786-1.986,3.779-.818,8.554-2.5,12.478-1.094,2.553-3.264,4.453-5.035,6.592s-3.232,4.933-2.49,7.61a33.8,33.8,0,0,1,1.231,3.384c.59,3.589-3.55,6.167-4.49,9.681s1.518,7.279.658,10.826c-.809,3.332-4.335,5.551-4.91,8.931-.537,3.149,1.678,6.19,1.547,9.382-.168,4.1-4.121,7.43-3.872,11.522.138,2.267,1.581,4.332,1.558,6.6-.027,2.618-1.953,4.78-2.927,7.21s-.2,6.122,2.41,6.252l10.067,5.055a5.462,5.462,0,0,0,6.317-1.3A6.282,6.282,0,0,0,131.68,450.964Z" fill="#fff"/></g><path d="M128.267,448.57a7.189,7.189,0,0,1-1.009-3.871c.269-1.5,2.8-2.813,3.429-5.352.817-3.294-.656-9.121-.028-12.444.852-4.515,5.524-7.486,5.332-11.97-.056-1.318.13-4.842,0-6.145-.5-5.051,3.937-8.442,3.291-13.455-.452-3.5-4.085-7.61-4.088-11.2,0-2.968,2.124-5.57,3.538-8.262a18.527,18.527,0,0,0,1.6-13.152c-.557-2.047-1.512-3.946-1.666-6.122-.237-3.338,1.4-7.173-.045-9.972-.495,3.274-3.609,5.462-5.078,8.466-1.764,3.608-.947,7.929-2.463,11.652-.987,2.421-2.845,4.311-4.379,6.4s-2.833,4.752-2.3,7.169a30.674,30.674,0,0,1,.914,3.037c.375,3.266-3.136,5.909-4.025,9.2s1.029,6.6.2,9.927c-.775,3.12-3.829,7.359-4.413,10.509-.543,2.934,2.116,4.844,1.907,7.791-.268,3.782-4.059,8.359-3.981,12.11.043,2.079,1.782,2.745,1.691,4.839-.1,2.412-2.123,7.206-3.006,9.506a6.511,6.511,0,0,0,.626,6.474l11.241,5.577C130.574,456.889,130.352,452.01,128.267,448.57Z" fill="#489ddc"/><path d="M135.823,363.713a1.039,1.039,0,0,1,.019.25c0,.19,0,.43.007.73-.005.642-.006,1.591-.115,2.81a14.04,14.04,0,0,1-1.014,4.34c-.661,1.649-2.059,3.127-3.384,4.824a8.941,8.941,0,0,0-1.6,2.934,9.948,9.948,0,0,0-.408,3.6c.121,2.538.9,5.181,1.273,8.063a12.284,12.284,0,0,1-.144,4.471,8.525,8.525,0,0,1-.881,2.169,19.779,19.779,0,0,0-1.185,1.973,7.348,7.348,0,0,0-.067,4.562c.162.79.34,1.594.435,2.427a9.572,9.572,0,0,1-.064,2.529,19.916,19.916,0,0,1-1.548,4.722,38.375,38.375,0,0,0-1.737,4.422,11.431,11.431,0,0,0-.39,4.49,20.2,20.2,0,0,1,.158,4.458,13.513,13.513,0,0,1-1.419,4.013,15.762,15.762,0,0,0-1.416,3.648c-.475,2.482.229,4.864.178,7.067a18.976,18.976,0,0,1-1.292,5.758,20.169,20.169,0,0,0-1.1,4.269,6.153,6.153,0,0,0,.283,2.738c.229.591.4.885.38.9a4.812,4.812,0,0,1-.465-.865,5.994,5.994,0,0,1-.373-2.785,19.669,19.669,0,0,1,1.033-4.333,19,19,0,0,0,1.213-5.681,33.61,33.61,0,0,0-.273-3.391,12.7,12.7,0,0,1,.047-3.748c.486-2.6,2.394-4.836,2.79-7.642a20.047,20.047,0,0,0-.175-4.366,11.851,11.851,0,0,1,.394-4.649c.862-3.062,2.727-5.85,3.265-9.092a9.18,9.18,0,0,0,.061-2.409c-.09-.8-.264-1.591-.426-2.387a7.746,7.746,0,0,1,.1-4.833,19.634,19.634,0,0,1,1.214-2.018,8.059,8.059,0,0,0,.837-2.048,11.918,11.918,0,0,0,.15-4.317c-.35-2.833-1.125-5.5-1.235-8.1a10.278,10.278,0,0,1,.451-3.722,9.219,9.219,0,0,1,1.68-3.021c1.364-1.712,2.743-3.138,3.406-4.732a14.161,14.161,0,0,0,1.07-4.256c.136-1.207.165-2.154.2-2.794.015-.3.028-.54.037-.729A1.043,1.043,0,0,1,135.823,363.713Z" fill="#263238"/><path d="M98.258,454.987c-3.658.535-5.735-4.369-5.051-8s2.759-7.156,2.079-10.79c-.59-3.154-3.154-5.619-3.966-8.723-1.466-5.6,3.1-11.3,2.208-17.023-.692-4.458-4.594-8.064-4.713-12.574-.128-4.84,4.149-8.881,4.356-13.718.221-5.151-4.216-9.676-3.876-14.82.339-5.125,5.369-9.831,3.569-14.642-.6-1.591-1.871-2.833-2.633-4.352-1.76-3.505-.5-7.775,1.366-11.224s4.354-6.676,5.17-10.513c1.254-5.9-1.672-12.193.044-17.972,1.429-4.81,5.945-8.752,5.622-13.76,3.454,3.882,2.032,9.976,3.622,14.923,1.036,3.225,3.335,5.865,5.009,8.81a25.046,25.046,0,0,1,1.958,20.035c-1.447,4.333-4.137,8.682-3.078,13.125,1.282,5.379,7.483,8.237,9.5,13.387,2.881,7.368-3.9,15.846-1.254,23.3.683,1.923,1.957,3.609,2.521,5.57,1.921,6.673-4.832,12.992-4.676,19.934.115,5.11,3.979,9.649,3.762,14.755-.167,3.936-2.746,7.942-1.2,11.567.669,1.571,2.018,2.738,2.975,4.153a8.874,8.874,0,0,1,.419,9.269,7.712,7.712,0,0,1-8.4,3.528" fill="#489ddc"/><g opacity="0.5"><path d="M121.567,446.435c-.957-1.415-2.306-2.582-2.975-4.153-1.545-3.624,1.034-7.631,1.2-11.567.217-5.106-3.647-9.645-3.762-14.755-.155-6.942,6.6-13.261,4.676-19.934-.564-1.961-1.838-3.647-2.521-5.57-2.644-7.457,4.135-15.935,1.255-23.3-2.014-5.15-8.215-8.008-9.5-13.387-1.059-4.443,1.631-8.792,3.078-13.125a25.046,25.046,0,0,0-1.958-20.035c-1.674-2.945-3.973-5.585-5.009-8.81-1.59-4.947-.168-11.041-3.622-14.923.323,5.008-4.193,8.95-5.622,13.76-1.716,5.78,1.21,12.075-.044,17.972-.816,3.837-3.3,7.063-5.17,10.513s-3.126,7.719-1.366,11.224c.762,1.519,2.037,2.761,2.633,4.352,1.8,4.811-3.23,9.517-3.569,14.642-.34,5.144,4.1,9.669,3.876,14.82-.207,4.837-4.484,8.878-4.356,13.718.119,4.51,4.021,8.116,4.713,12.574.889,5.72-3.674,11.423-2.208,17.023.812,3.1,3.376,5.569,3.966,8.723.68,3.634-1.4,7.157-2.079,10.79s1.393,8.538,5.051,8l15.331,4.245a7.713,7.713,0,0,0,8.4-3.529A8.873,8.873,0,0,0,121.567,446.435Z" fill="#fff"/></g><path d="M116.182,444.053c-1.006-1.1-2.431-3.551-2.458-5.086-.038-2.148,3.109-4.665,3.285-8.355.229-4.787-3.408-12.457-3.448-17.233-.056-6.489,5.6-11.885,4.109-18.045-.439-1.81-1.146-6.743-1.682-8.513-2.075-6.861,3.142-12.774.874-19.543-1.585-4.73-7.744-9.424-8.732-14.4-.816-4.111,1.418-8.3,2.639-12.414a26.173,26.173,0,0,0-1.386-18.661c-1.333-2.682-3.176-5.052-3.986-8.025-1.243-4.559-.023-10.322-2.793-13.8.211,4.671-3.5,8.556-4.717,13.12-1.456,5.482.86,11.245-.221,16.817-.7,3.626-2.76,6.753-4.315,10.062s-2.624,7.36-1.227,10.563c.6,1.387,1.629,2.494,2.1,3.957,1.416,4.422-2.726,9.045-3.054,13.855-.33,4.828,3.234,8.868,3,13.7-.218,4.535-3.29,11.245-3.235,15.768.051,4.215,4.258,6.132,4.775,10.273.665,5.313-3.334,12.691-2.2,17.867.629,2.869,3.221,3.316,3.669,6.241.516,3.37-.969,10.565-1.562,13.995s-.031,5.872,2.641,8.8l17.1,4.646C121.656,454.946,120.012,448.248,116.182,444.053Z" fill="#489ddc"/><path d="M103.408,324.418a43.144,43.144,0,0,1,.879,5.278,19.85,19.85,0,0,1-.231,6.276,15.775,15.775,0,0,1-1.343,3.7c-.612,1.252-1.356,2.519-2.032,3.892a12.636,12.636,0,0,0-1.428,4.525,14.107,14.107,0,0,0,.416,5.123c.863,3.5,2.67,6.947,3.966,10.83a17.266,17.266,0,0,1,1.017,6.2,11.935,11.935,0,0,1-.622,3.22,27.937,27.937,0,0,0-1.1,3.068c-.518,2.121.284,4.323,1.16,6.4.44,1.051.907,2.114,1.264,3.235a13.51,13.51,0,0,1,.6,3.5,28.04,28.04,0,0,1-.849,6.943,53.97,53.97,0,0,0-1.2,6.614,16.546,16.546,0,0,0,.029,3.242,17.882,17.882,0,0,0,.666,3.117,28.462,28.462,0,0,1,1.439,6.115,18.99,18.99,0,0,1-.86,5.922,22.345,22.345,0,0,0-.961,5.463,17.6,17.6,0,0,0,.913,5.082,47.352,47.352,0,0,1,1.283,4.672,17.038,17.038,0,0,1,.212,4.41c-.09,1.391-.259,2.691-.413,3.9a28.422,28.422,0,0,0-.336,6.226,8.642,8.642,0,0,0,1.163,3.721c.484.756.812,1.11.787,1.129a7.431,7.431,0,0,1-.864-1.081,8.475,8.475,0,0,1-1.26-3.751,27.822,27.822,0,0,1,.26-6.275c.142-1.214.3-2.511.376-3.888a16.723,16.723,0,0,0-.239-4.334,47.566,47.566,0,0,0-1.3-4.632,17.866,17.866,0,0,1-.954-5.183,22.613,22.613,0,0,1,.951-5.561,18.645,18.645,0,0,0,.829-5.8,28.3,28.3,0,0,0-1.437-6.02,18.292,18.292,0,0,1-.687-3.187,16.984,16.984,0,0,1-.036-3.33,54.084,54.084,0,0,1,1.2-6.672,27.7,27.7,0,0,0,.837-6.83,13.033,13.033,0,0,0-.579-3.38c-.347-1.089-.806-2.14-1.248-3.2a19.771,19.771,0,0,1-1.122-3.249,7.5,7.5,0,0,1-.055-3.419,27.678,27.678,0,0,1,1.126-3.117,11.545,11.545,0,0,0,.6-3.093,16.9,16.9,0,0,0-.982-6.053c-1.267-3.838-3.071-7.312-3.934-10.869a14.431,14.431,0,0,1-.4-5.253,12.965,12.965,0,0,1,1.488-4.626c.693-1.383,1.445-2.642,2.061-3.877a15.629,15.629,0,0,0,1.354-3.629,20.026,20.026,0,0,0,.3-6.2c-.149-1.71-.374-3.029-.507-3.925-.067-.431-.119-.768-.158-1.019A2.166,2.166,0,0,1,103.408,324.418Z" fill="#263238"/><path d="M95.968,457.395c-2.086,1.028-4.277-1.506-4.57-3.813s.269-4.816-.841-6.86c-.963-1.773-2.974-2.753-4.06-4.453-1.96-3.069-.331-7.364-1.968-10.616-1.277-2.534-4.309-3.938-5.252-6.614-1.012-2.872.767-6.117-.044-9.053-.864-3.125-4.394-4.975-5.184-8.12s1.313-6.922-.7-9.453a29.987,29.987,0,0,0-2.416-2.1c-1.731-1.758-1.8-4.557-1.352-6.982s1.315-4.837,1.062-7.291c-.39-3.772-3.358-6.974-3.447-10.765-.075-3.155,1.866-6.387.705-9.322,2.817,1.656,3.144,5.578,5.052,8.231,1.243,1.73,3.129,2.866,4.7,4.3A15.755,15.755,0,0,1,82.7,386.106c-.029,2.873-.8,6,.695,8.45,1.807,2.972,6.07,3.484,8.271,6.177,3.148,3.853.729,10.237,3.753,14.189.78,1.019,1.869,1.782,2.585,2.846,2.44,3.623-.38,8.71,1.055,12.835,1.056,3.036,4.246,5.006,5.1,8.1.661,2.389-.108,5.285,1.517,7.155a16.888,16.888,0,0,0,2.583,1.911,5.577,5.577,0,0,1,2.042,5.466,4.85,4.85,0,0,1-4.343,3.735" fill="#489ddc"/><g opacity="0.5"><path d="M108.265,447.772a16.888,16.888,0,0,1-2.583-1.911c-1.625-1.87-.856-4.766-1.517-7.155-.857-3.1-4.047-5.067-5.1-8.1-1.435-4.125,1.385-9.212-1.055-12.835-.716-1.064-1.805-1.827-2.585-2.846-3.024-3.952-.6-10.336-3.753-14.189-2.2-2.693-6.464-3.2-8.271-6.177-1.493-2.454-.724-5.577-.695-8.45a15.751,15.751,0,0,0-5.044-11.612c-1.572-1.439-3.458-2.575-4.7-4.3-1.908-2.653-2.235-6.575-5.052-8.231,1.161,2.935-.78,6.167-.705,9.322.089,3.791,3.058,6.993,3.447,10.765.253,2.454-.611,4.865-1.062,7.291s-.379,5.224,1.352,6.982a30.177,30.177,0,0,1,2.417,2.1c2.007,2.531-.094,6.32.694,9.453s4.32,4.995,5.184,8.12c.811,2.936-.968,6.181.044,9.053.943,2.676,3.975,4.08,5.252,6.614,1.637,3.252.008,7.547,1.968,10.616,1.086,1.7,3.1,2.68,4.06,4.453,1.11,2.044.548,4.554.841,6.86s2.484,4.841,4.57,3.813l10-.422a4.85,4.85,0,0,0,4.343-3.735A5.577,5.577,0,0,0,108.265,447.772Z" fill="#fff"/></g><path d="M104.582,447.387a6.37,6.37,0,0,1-2.454-2.569c-.438-1.278.959-3.392.351-5.635-.788-2.909-4.447-6.8-5.395-9.647-1.287-3.873,1.057-8.2-1.028-11.6-.613-1-1.989-3.813-2.652-4.769-2.568-3.706-.589-8.253-3.255-11.865-1.863-2.525-6.456-4.144-8.009-6.932-1.283-2.3-.755-5.24-.82-7.94a16.458,16.458,0,0,0-4.437-10.9c-1.315-1.348-2.877-2.41-3.936-4.033-1.625-2.488-2.009-6.173-4.34-7.721,1.029,2.755-.444,5.8-.287,8.764.188,3.562,2.688,6.564,3.118,10.108.28,2.306-.346,4.575-.637,6.856s-.148,4.912,1.307,6.559a26.9,26.9,0,0,1,2.02,1.962c1.7,2.373.117,5.941.85,8.883s3.649,4.682,4.444,7.617c.745,2.757.2,7.366,1.111,10.063.845,2.513,3.733,2.847,4.844,5.225,1.424,3.052.457,8.241,2.137,11.119.931,1.6,2.569,1.362,3.4,3.025.961,1.918,1.463,6.511,1.771,8.678a5.783,5.783,0,0,0,3.281,4.755l11.133-.524C109.964,452.849,107.685,449.157,104.582,447.387Z" fill="#489ddc"/><path d="M73.813,378.255a.851.851,0,0,1,.125.184l.323.563c.275.5.685,1.236,1.128,2.229a12.47,12.47,0,0,1,1.092,3.809,19.978,19.978,0,0,1-.541,5.21,7.925,7.925,0,0,0,.025,2.963,8.8,8.8,0,0,0,1.235,2.962c1.189,1.915,2.937,3.627,4.47,5.706a10.934,10.934,0,0,1,1.823,3.541,7.581,7.581,0,0,1,.254,2.071,17.43,17.43,0,0,0-.068,2.04,6.508,6.508,0,0,0,1.912,3.556c.466.543.952,1.091,1.387,1.7a8.557,8.557,0,0,1,1.045,2,17.7,17.7,0,0,1,.838,4.339,33.822,33.822,0,0,0,.56,4.18,10.113,10.113,0,0,0,1.632,3.645,17.99,17.99,0,0,1,2.048,3.4,12.012,12.012,0,0,1,.632,3.735,14,14,0,0,0,.473,3.438c.7,2.125,2.272,3.671,3.185,5.406a16.839,16.839,0,0,1,1.481,5.034,18.019,18.019,0,0,0,.986,3.787,5.451,5.451,0,0,0,1.4,2c.43.362.692.516.678.537a4.1,4.1,0,0,1-.737-.467,5.322,5.322,0,0,1-1.5-2,17.474,17.474,0,0,1-1.074-3.81,16.88,16.88,0,0,0-1.512-4.928c-.9-1.679-2.5-3.205-3.262-5.446s-.233-4.795-1.135-7.135A17.8,17.8,0,0,0,90.7,429.19,10.545,10.545,0,0,1,88.99,425.4c-.654-2.754-.41-5.724-1.39-8.464a8.126,8.126,0,0,0-.989-1.891c-.415-.581-.891-1.119-1.361-1.667a6.9,6.9,0,0,1-2.011-3.811,17.38,17.38,0,0,1,.071-2.093,7.136,7.136,0,0,0-.233-1.944,10.573,10.573,0,0,0-1.743-3.408c-1.493-2.047-3.244-3.781-4.452-5.754a9.124,9.124,0,0,1-1.259-3.091,8.2,8.2,0,0,1,0-3.077,20.193,20.193,0,0,0,.605-5.14,12.616,12.616,0,0,0-1-3.762c-.415-1-.8-1.744-1.047-2.257-.115-.236-.209-.428-.284-.583A.812.812,0,0,1,73.813,378.255Z" fill="#263238"/><rect width="66.724" height="11.826" transform="translate(74.735 436.832)" fill="#455a64"/><path d="M79.718,446.312l8.114,35.34H127.6l8.877-35.34Z" fill="#455a64"/><path d="M141.422,448.673c0,.129-15.05.234-33.612.234s-33.615-.105-33.615-.234,15.047-.235,33.615-.235S141.422,448.543,141.422,448.673Z" fill="#263238"/><path d="M443.868,378.467s-22.574,10.3-44.533,10.3c-20.337,0-43.084-10.238-43.084-10.238Z" fill="#e0e0e0"/><rect width="8.709" height="91.221" transform="translate(405.745 470.669) rotate(180)" fill="#e0e0e0"/><rect width="77.296" height="5.348" transform="translate(439.642 472.24) rotate(180)" fill="#e0e0e0"/><path d="M430.58,474.544a5.9,5.9,0,1,0,5.9-5.9A5.9,5.9,0,0,0,430.58,474.544Z" fill="#263238"/><path d="M396.234,474.544a5.9,5.9,0,1,0,5.9-5.9A5.9,5.9,0,0,0,396.234,474.544Z" fill="#263238"/><path d="M356.448,474.544a5.9,5.9,0,1,0,5.9-5.9A5.9,5.9,0,0,0,356.448,474.544Z" fill="#263238"/><rect width="11.846" height="4.902" transform="translate(411.18 417.182) rotate(180)" fill="#e0e0e0"/><rect width="4.314" height="11.765" transform="translate(413.337 420.614) rotate(180)" fill="#e0e0e0"/><path d="M352.365,378.467h98.646a6.547,6.547,0,0,0,6.547-6.547h0a6.547,6.547,0,0,0-6.547-6.547H352.365a6.547,6.547,0,0,0-6.547,6.547h0A6.547,6.547,0,0,0,352.365,378.467Z" fill="#455a64"/><path d="M443.237,206.066s7.94-3.1,7.615-9.867-9.45-13.467-8.908-23.633c.508-9.532-13.153-37.862-32.663-27.985a26.86,26.86,0,0,0-9.8.538c-6.288,1.8-8.25,7.818-11.974,13.786-5.737,9.2-9.64,16.44-6.873,22.852s3.934,8.292,1.783,13.764c-2.806,7.142-5.669,5.07-4.732,11.3l17.019.277,1.608-4.158.185,4.5,10.005-.135Z" fill="#263238"/><path d="M394.715,154.585c.207,2.626-1.516,4.981-3.254,6.961s-3.672,4.043-4.037,6.652c-.646,4.624,3.9,8.89,2.989,13.469-.487,2.454-2.485,4.434-2.83,6.912-.334,2.4.962,4.735,2.562,6.55s3.547,3.326,4.964,5.287c0,0,2.955,4.793,11.96,1.669" fill="#263238"/><path d="M402.445,151.235l22.435,4.753a4.191,4.191,0,0,1,3.911,4.1l-.27,48.552a15.078,15.078,0,0,1-3.162,9.156l-2.14,2.759c-4.878,6.292-14.759,5.658-18.486-1.377a5.348,5.348,0,0,1-.516-1.271,10,10,0,0,1-.212-1.1l-.427-4.733c-.219-4.323-.249-8.716-.25-8.675,0,0-9.181-1.161-11.533-12.99-1.17-5.883-1.25-15.6-1.058-23.552C390.91,159.7,395.3,150.759,402.445,151.235Z" fill="#ffbe9d"/><path d="M394.15,175.973a1.528,1.528,0,0,0,1.532,1.483,1.461,1.461,0,0,0,1.52-1.437,1.529,1.529,0,0,0-1.53-1.484A1.462,1.462,0,0,0,394.15,175.973Z" fill="#263238"/><path d="M393.039,171.829c.2.191,1.32-.709,2.963-.769,1.64-.083,2.878.715,3.048.507.085-.092-.122-.444-.662-.806a4.194,4.194,0,0,0-2.45-.652,4.03,4.03,0,0,0-2.349.86C393.1,171.376,392.942,171.743,393.039,171.829Z" fill="#263238"/><path d="M408.873,175.6a1.527,1.527,0,0,0,1.532,1.483,1.46,1.46,0,0,0,1.52-1.437,1.529,1.529,0,0,0-1.53-1.484A1.462,1.462,0,0,0,408.873,175.6Z" fill="#263238"/><path d="M408.637,171.428c.2.192,1.322-.709,2.964-.768,1.639-.083,2.878.715,3.048.507.084-.092-.121-.444-.662-.806a4.2,4.2,0,0,0-2.451-.653,4.029,4.029,0,0,0-2.348.861C408.7,170.976,408.541,171.343,408.637,171.428Z" fill="#263238"/><path d="M403.708,183.922a10.823,10.823,0,0,0-2.686-.378c-.421-.027-.822-.1-.9-.379a2.135,2.135,0,0,1,.231-1.254l1.117-3.242c1.546-4.614,2.648-8.4,2.461-8.462s-1.591,3.63-3.137,8.244q-.555,1.705-1.063,3.259a2.429,2.429,0,0,0-.154,1.655,1.054,1.054,0,0,0,.714.587,2.9,2.9,0,0,0,.716.071A10.732,10.732,0,0,0,403.708,183.922Z" fill="#263238"/><path d="M403.328,203.4a30.309,30.309,0,0,0,15.776-4.871s-3.688,8.395-15.644,7.743Z" fill="#eb996e"/><path d="M404.557,187.853a2.963,2.963,0,0,1,2.61-1.2,2.7,2.7,0,0,1,1.9.929,1.71,1.71,0,0,1,.206,1.952,1.985,1.985,0,0,1-2.132.628A6.219,6.219,0,0,1,405,188.989a1.8,1.8,0,0,1-.488-.468.548.548,0,0,1-.021-.611" fill="#eb996e"/><path d="M408.587,184.87c-.268,0-.2,1.778-1.68,3.1s-3.382,1.2-3.386,1.452c-.021.113.437.33,1.24.32a4.432,4.432,0,0,0,2.83-1.111,3.863,3.863,0,0,0,1.294-2.6C408.924,185.289,408.708,184.855,408.587,184.87Z" fill="#263238"/><path d="M408.729,166.553c.179.44,1.811.165,3.747.322,1.94.119,3.516.622,3.756.212.106-.2-.181-.606-.826-1.014a6.539,6.539,0,0,0-5.716-.407C408.994,165.979,408.651,166.343,408.729,166.553Z" fill="#263238"/><path d="M393.236,164.627c.3.362,1.42-.07,2.78-.141,1.358-.118,2.523.153,2.773-.247.109-.194-.087-.56-.6-.894a4.029,4.029,0,0,0-4.474.312C393.245,164.059,393.1,164.45,393.236,164.627Z" fill="#263238"/><path d="M434.8,155.969c-1.664-4.888-8.358-10.247-14.665-12.664a11.965,11.965,0,0,0-10.853,1.276l-8.01,5.3a11.1,11.1,0,0,0,7.7,8.336c2.045.578,4.495.7,5.738,2.423,1.27,1.76.6,4.373,1.786,6.191,1.642,2.519,5.991,2.311,7.24,5.047.546,1.2.3,2.641.869,3.826.756,1.579,4.83,3.519,6.488,2.957s1.606-3.4,2.122-4.9a7.876,7.876,0,0,0,.136-5.287C432.551,165.116,435.909,159.229,434.8,155.969Z" fill="#263238"/><path d="M426.192,180.161c-.032-.886.911-3.016,1.781-3.186,2.324-.456,6.545-.431,6.814,5.5.369,8.113-7.853,6.81-7.878,6.577C426.89,188.875,426.3,183.222,426.192,180.161Z" fill="#ffbe9d"/><path d="M429.248,185.87c.035-.027.146.093.39.191a1.411,1.411,0,0,0,1.057-.026c.843-.353,1.5-1.747,1.476-3.211a4.66,4.66,0,0,0-.488-2.006,1.63,1.63,0,0,0-1.112-1.036.722.722,0,0,0-.817.424c-.1.233-.039.392-.082.408-.021.021-.18-.128-.13-.466a.91.91,0,0,1,.3-.523,1.067,1.067,0,0,1,.772-.242,1.986,1.986,0,0,1,1.533,1.191,4.8,4.8,0,0,1,.593,2.239c.022,1.637-.745,3.205-1.9,3.6a1.512,1.512,0,0,1-1.3-.156C429.272,186.066,429.221,185.886,429.248,185.87Z" fill="#eb996e"/><path d="M373.669,241.393l-14.347,37.429-27,1.715-4.177,11.736,35.645,6.909s10.72,3.116,16.831-10.488l10.448-37.231Z" fill="#ffbe9d"/><path d="M306.688,286.386a1.784,1.784,0,0,0,1.719,1,2.054,2.054,0,0,0,.447-.091c1.021-.327.925-2.407.925-2.407l4.893-.8s6.363,4.1,8.626,6.822,8.038.517,8.038.517l2-10.429-9.006-8.144s.553.486-.068-1.038-3.451-.947-3.451-.947c-.44-.753-2.289-1.023-2.289-1.023l-7.9.91a5.415,5.415,0,0,0-3.958,2.487l-3.34,5.288s-1.764,3.807-1.481,4.692a1.581,1.581,0,0,0,1.841,1.038s.388,2.5,1.046,2.59a5.391,5.391,0,0,0,1.955-.469Z" fill="#ffbe9d"/><path d="M321.57,289.23a2.789,2.789,0,0,1-.469-.358l-1.323-1.062a55.073,55.073,0,0,0-5.191-3.576l.112.022-4.887.832.167-.207a5.388,5.388,0,0,1-.091,1.2,2.216,2.216,0,0,1-.555,1.176,1.209,1.209,0,0,1-.649.3,1.723,1.723,0,0,1-.688.04,2,2,0,0,1-1.216-.673,2.154,2.154,0,0,1-.213-.289l-.045-.079-.022-.039-.01-.02,0,0,.287.1-.005,0-.01.005-.155.063c-.207.082-.417.156-.632.224a5.6,5.6,0,0,1-.67.167,2.471,2.471,0,0,1-.363.039.826.826,0,0,1-.453-.087,1.453,1.453,0,0,1-.479-.647,5.217,5.217,0,0,1-.243-.673,11.679,11.679,0,0,1-.315-1.384l.286.2a1.858,1.858,0,0,1-1.822-.622,1.505,1.505,0,0,1-.336-.984,4.365,4.365,0,0,1,.173-.947,26.267,26.267,0,0,1,1.348-3.517l.007-.014.009-.015,1.781-2.821q.568-.9,1.13-1.788a9.626,9.626,0,0,1,1.239-1.731,5.265,5.265,0,0,1,1.773-1.178,6.856,6.856,0,0,1,2.014-.419l7.447-.837.031,0,.027.005a6.965,6.965,0,0,1,1.306.344,2.219,2.219,0,0,1,1.134.793l-.274-.085a2.726,2.726,0,0,1,2.537.142,3.186,3.186,0,0,1,1.255,2l-.059-.1,6.206,5.582,1.672,1.54a4.437,4.437,0,0,1,.56.565,4.278,4.278,0,0,1-.631-.484l-1.738-1.466L324.209,273l-.043-.037-.017-.067a2.83,2.83,0,0,0-1.107-1.737,2.328,2.328,0,0,0-2.138-.092l-.173.072-.1-.158a1.877,1.877,0,0,0-.92-.6,6.575,6.575,0,0,0-1.217-.31h.058l-7.442.878a6.409,6.409,0,0,0-1.885.392,4.784,4.784,0,0,0-1.6,1.07,9.237,9.237,0,0,0-1.17,1.648l-1.129,1.789-1.783,2.819.015-.028a26.252,26.252,0,0,0-1.328,3.437,3.986,3.986,0,0,0-.159.835,1.021,1.021,0,0,0,.233.67,1.378,1.378,0,0,0,1.338.449l.246-.04.04.238a11.286,11.286,0,0,0,.293,1.324,2.4,2.4,0,0,0,.511,1.057.476.476,0,0,0,.2.022,1.96,1.96,0,0,0,.3-.032,4.837,4.837,0,0,0,.613-.149c.2-.061.4-.131.6-.207l.146-.059.008,0,0,0,.291.106v0l.009.016.017.031.034.062a1.716,1.716,0,0,0,.166.229,1.567,1.567,0,0,0,.943.535,1.308,1.308,0,0,0,.538-.031.805.805,0,0,0,.447-.187,3.066,3.066,0,0,0,.535-2.043v-.181l.167-.026,4.9-.765.063-.01.05.031a47.03,47.03,0,0,1,5.134,3.721c.567.479.992.863,1.271,1.133A2.891,2.891,0,0,1,321.57,289.23Z" fill="#eb996e"/><path d="M319.473,273.656a9.561,9.561,0,0,1-2.535.756,25.33,25.33,0,0,1-6.516.473l.261-.177c-.133.389-.275.8-.442,1.207a19.474,19.474,0,0,1-4.01,6.211,16.43,16.43,0,0,1-1.665,1.506c-.423.319-.671.475-.692.448-.055-.066.852-.8,2.086-2.2a21.729,21.729,0,0,0,3.8-6.156c.162-.4.3-.8.434-1.175l.066-.189.2.012a30.423,30.423,0,0,0,6.424-.3C318.487,273.826,319.453,273.583,319.473,273.656Z" fill="#eb996e"/><path d="M311.976,278.259a12.594,12.594,0,0,1-5.433,7.8c-.1-.122,1.561-1.5,3.053-3.664C311.107,280.243,311.826,278.206,311.976,278.259Z" fill="#eb996e"/><path d="M332.894,288.256c.006.014-.08.063-.251.145a5.607,5.607,0,0,1-.781.3,8.44,8.44,0,0,1-3.11.358,8.581,8.581,0,0,1-4.477-1.621,8.97,8.97,0,0,1-3.382-4.969l.289.185a20.07,20.07,0,0,1-7.824-.045,6.441,6.441,0,0,1-2.014-.662,1.589,1.589,0,0,1-.761-.863,1.461,1.461,0,0,1,1.015-1.83l.912-.227c2.4-.582,4.586-1,6.429-1.287s3.344-.459,4.383-.551a8.846,8.846,0,0,1,1.62-.076,10.641,10.641,0,0,1-1.6.277c-1.029.154-2.517.379-4.345.713s-3.995.786-6.375,1.389l-.9.234a.966.966,0,0,0-.58.46.953.953,0,0,0-.083.744,1.093,1.093,0,0,0,.544.58,6.047,6.047,0,0,0,1.854.591,20.092,20.092,0,0,0,7.628.062l.232-.043.057.228a8.637,8.637,0,0,0,3.153,4.746,8.451,8.451,0,0,0,4.248,1.651,9.143,9.143,0,0,0,3.038-.207C332.514,288.37,332.88,288.221,332.894,288.256Z" fill="#eb996e"/><path d="M323.621,422.122a1.986,1.986,0,0,1,.027-.894,5.91,5.91,0,0,1,.9-2.274,3.17,3.17,0,0,1,.539-.656,1.018,1.018,0,0,1,1.011-.228.72.72,0,0,1,.447.449.973.973,0,0,1-.02.607,6.178,6.178,0,0,1-.471.912c-.351.591-.64,1.179-1.088,1.843a1.293,1.293,0,0,1-1.2.541,2.568,2.568,0,0,1-1.16-.514,10.018,10.018,0,0,1-1.7-1.57,10.392,10.392,0,0,1-.671-.875,2.891,2.891,0,0,1-.505-1,.952.952,0,0,1,.512-1.1,1.138,1.138,0,0,1,1.08.245,6.6,6.6,0,0,1,1.138,1.289,8.653,8.653,0,0,1,1.116,2.165,2.246,2.246,0,0,1,.194.871,17.041,17.041,0,0,0-1.614-2.811,6.773,6.773,0,0,0-1.093-1.155.721.721,0,0,0-.642-.17.483.483,0,0,0-.209.563,2.522,2.522,0,0,0,.442.811,10.232,10.232,0,0,0,.647.823,9.963,9.963,0,0,0,1.621,1.48,2.1,2.1,0,0,0,.909.419.753.753,0,0,0,.728-.336c.373-.542.73-1.211,1.074-1.767a6.234,6.234,0,0,0,.451-.815c.091-.255.041-.42-.137-.492-.409-.168-.807.294-1.084.686A8.534,8.534,0,0,0,323.621,422.122Z" fill="#263238"/><path d="M346.8,422.915l11.508,24.941,18.57-8.579-11.9-30.868Z" fill="#ffbe9d"/><path d="M356.131,446.192l6.724,12.821s-17.211,17.8-15.6,21.774l40.46-19.4L376.6,435.67Z" fill="#455a64"/><path d="M374.525,451.262a1.83,1.83,0,0,1,2.046,1.337,1.76,1.76,0,0,1-1.308,2.04,1.933,1.933,0,0,1-2.16-1.428,1.827,1.827,0,0,1,1.6-1.971" fill="#e0e0e0"/><g opacity="0.6"><path d="M387.72,461.388l-1.684-3.225-38.162,19.8s-1.426,1.648-.614,2.819Z" fill="#fff"/></g><path d="M362.1,459.121c.1.2,1.132-.189,2.409-.02,1.281.136,2.193.751,2.337.586.164-.126-.7-1.165-2.247-1.343S361.97,458.961,362.1,459.121Z" fill="#263238"/><path d="M358.7,462.911c.047.213,1.063.139,2.135.653,1.087.482,1.689,1.3,1.882,1.2.2-.058-.218-1.281-1.562-1.894S358.612,462.721,358.7,462.911Z" fill="#263238"/><path d="M358.723,469.146c.2-.044,0-1.163-1.024-2s-2.157-.826-2.162-.621c-.033.216.845.509,1.677,1.21C358.062,468.415,358.517,469.22,358.723,469.146Z" fill="#263238"/><path d="M360.17,454.183c.169.14.945-.567,2.1-1.027,1.144-.483,2.193-.525,2.214-.744.046-.2-1.153-.522-2.5.039S360,454.074,360.17,454.183Z" fill="#263238"/><path d="M352.34,442.863l-30.334-75.916s.682-12.953,3.068-17.043,74.648-27.951,74.648-27.951,18.406-4.431,30.677,0,25.126,8.889,23.748,17.469c-2.012,12.536-12.874,25.6-12.874,25.6l-53.14,1.58-28.964,10.567,19.505,55.9Z" fill="#263238"/><path d="M325.36,390.987l-.684,27.459,20.45.5,2.946-32.952Z" fill="#ffbe9d"/><path d="M323.459,415.993l.373,14.473s-23.3,8.369-23.605,12.652l44.867.455,1.38-27.983Z" fill="#455a64"/><path d="M337.725,428.662a1.832,1.832,0,0,1,1.246,2.1,1.763,1.763,0,0,1-2.075,1.253,1.933,1.933,0,0,1-1.307-2.235,1.827,1.827,0,0,1,2.3-1.064" fill="#e0e0e0"/><g opacity="0.6"><path d="M345.094,443.573l-.087-3.637-42.985.924s-2.006.849-1.8,2.258Z" fill="#fff"/></g><path d="M323.107,430.23c.005.219,1.1.329,2.17,1.045,1.09.687,1.636,1.642,1.838,1.557.2-.041-.111-1.353-1.423-2.2S323.061,430.028,323.107,430.23Z" fill="#263238"/><path d="M318.381,432.129c-.052.211.893.593,1.628,1.528.762.912.939,1.916,1.158,1.909.205.036.37-1.245-.566-2.39S318.388,431.92,318.381,432.129Z" fill="#263238"/><path d="M315.651,437.734c.2.048.515-1.043-.036-2.249s-1.57-1.693-1.664-1.512c-.126.179.533.83.969,1.827C315.38,436.785,315.434,437.71,315.651,437.734Z" fill="#263238"/><path d="M323.555,424.946c.09.2,1.1-.091,2.336,0,1.24.072,2.2.5,2.315.31.128-.157-.8-.977-2.263-1.071S323.45,424.773,323.555,424.946Z" fill="#263238"/><path d="M337.3,314.751s-12.252-.979-13.615,12.314-2.7,75.331-2.7,75.331l28.633,2.386,4.431-63.4,45.675-19.429S345.482,313.047,337.3,314.751Z" fill="#263238"/><path d="M387.8,296.812s-7.436,20.848-6.019,23.172,20.538,11.885,20.538,11.885l47.847,18.376a40.1,40.1,0,0,0,4.914-19.825c0-12.007-16.643-33.608-16.643-33.608Z" fill="#263238"/><path d="M401.986,320.89a1.083,1.083,0,0,1-.225.121l-.679.314-2.65,1.179-9.946,4.333-34.338,14.781.155-.218c-.435,6.263-.9,13.027-1.389,20.024-1.164,16.358-2.237,31.44-3.086,43.373l-.015.216-.215-.018-20.859-1.831-5.744-.537-1.5-.156a2.993,2.993,0,0,1-.511-.075,3.255,3.255,0,0,1,.517.011l1.506.1,5.753.421,20.874,1.647-.23.2c.82-11.934,1.855-27.019,2.978-43.38.493-7,.969-13.761,1.41-20.022l.011-.157.144-.061,34.413-14.608,10-4.2,2.683-1.1.7-.274A1.113,1.113,0,0,1,401.986,320.89Z" fill="#455a64"/><path d="M440.039,322.976a7.141,7.141,0,0,1-1.343-.367l-3.6-1.162a78.727,78.727,0,0,0-12.057-3.047,35.38,35.38,0,0,0-12.343.159,49.625,49.625,0,0,0-4.946,1.433,5.961,5.961,0,0,1,1.245-.63,22.155,22.155,0,0,1,3.62-1.172,33.2,33.2,0,0,1,12.5-.318,67.112,67.112,0,0,1,12.1,3.217c1.508.535,2.719,1,3.551,1.324A6.915,6.915,0,0,1,440.039,322.976Z" fill="#455a64"/><path d="M433.275,311.986a35.2,35.2,0,0,0-4.183-.024c-1.288.09-2.822.288-4.529.485s-3.576.433-5.513.8a25.641,25.641,0,0,0-9.375,3.478,28.95,28.95,0,0,0-3.252,2.62,3.647,3.647,0,0,1,.7-.9,14.244,14.244,0,0,1,2.345-2.033,24.007,24.007,0,0,1,9.487-3.689c1.962-.372,3.848-.588,5.559-.764s3.254-.33,4.563-.373a17.2,17.2,0,0,1,3.1.138A3.535,3.535,0,0,1,433.275,311.986Z" fill="#455a64"/><path d="M370.086,237.536s8.559-14.27,10.934-17.157a19.037,19.037,0,0,1,7.011-5.14,14.485,14.485,0,0,1,3.331-.986l12.309-2.725s.022,8.4,8.824,8.921,16.215-11.742,16.215-11.742,14.221,2.2,17.623,3.949,8.75,3.973,11.693,18.708l2.065,14.414-24.52,2.266-2.347,36.436-12.16,8.469s-33.713,8.764-35.867,9.344-2.868-54.249-2.868-54.249S373.67,242.445,370.086,237.536Z" fill="#489ddc"/><path d="M386.224,231.409a5.239,5.239,0,0,0-.473,1.051c-.28.686-.638,1.7-1.035,2.964a57.956,57.956,0,0,0-2.507,20.479c.08,1.324.183,2.392.29,3.126a5.109,5.109,0,0,0,.206,1.134,5.283,5.283,0,0,0-.016-1.152c-.048-.737-.1-1.8-.133-3.123a68.174,68.174,0,0,1,2.493-20.366c.353-1.271.658-2.295.882-3A5.185,5.185,0,0,0,386.224,231.409Z" fill="#263238"/><path d="M436.462,230.544a4.583,4.583,0,0,1,.022,1.114q-.05,1.239-.122,3.022c-.125,2.674-.288,6.135-.467,9.963-.185,3.892-.387,7.416-.581,9.964-.1,1.274-.186,2.3-.263,3.015a4.583,4.583,0,0,1-.171,1.1,4.608,4.608,0,0,1-.032-1.113q.041-1.24.1-3.023c.115-2.675.264-6.138.428-9.968.185-3.892.408-7.416.621-9.962.106-1.273.2-2.3.287-3.013A4.661,4.661,0,0,1,436.462,230.544Z" fill="#263238"/><path d="M387.27,291.092l46.167-10.049,2.134-33,20.53-1.9s-1.444,22.513-1.549,29.265c-.3,19.463-6.837,22.807-10.173,25.437s-59.182,1.444-59.182,1.444Z" fill="#ffbe9d"/><path d="M361.064,297.074a1.782,1.782,0,0,0,1.719,1,2.038,2.038,0,0,0,.447-.09c1.021-.328.925-2.407.925-2.407l4.894-.8s6.362,4.1,8.626,6.822,8.038.517,8.038.517l2-10.428-9-8.144s.553.485-.068-1.038-3.451-.948-3.451-.948c-.441-.753-2.289-1.023-2.289-1.023l-7.9.91a5.414,5.414,0,0,0-3.958,2.488l-3.341,5.287s-1.764,3.807-1.48,4.692a1.58,1.58,0,0,0,1.84,1.039s.389,2.5,1.046,2.59a5.406,5.406,0,0,0,1.955-.469Z" fill="#ffbe9d"/><path d="M377.876,289.584c-.008.082-1.059-.015-2.746.058a23.965,23.965,0,0,0-6.446,1.207,22.878,22.878,0,0,0-3.324,1.421c-.954.537-1.95.979-2.256,1.674a.963.963,0,0,0,.086.942,1.348,1.348,0,0,0,.6.5,2.079,2.079,0,0,0,.692.1c.02.012-.245.218-.757.084a1.48,1.48,0,0,1-.762-.527,1.261,1.261,0,0,1-.186-1.236,2.516,2.516,0,0,1,.983-1.11c.43-.282.88-.57,1.383-.84a20.449,20.449,0,0,1,3.383-1.49,20.664,20.664,0,0,1,6.6-1.086A9.064,9.064,0,0,1,377.876,289.584Z" fill="#eb996e"/><path d="M378.429,294.621c-.009.149-3.223.015-7.173.246s-7.129.715-7.155.567a7.9,7.9,0,0,1,2.056-.5,46.091,46.091,0,0,1,10.172-.578A7.874,7.874,0,0,1,378.429,294.621Z" fill="#eb996e"/><path d="M361.11,296.873a3.6,3.6,0,0,1-.1-.841,18.236,18.236,0,0,1,0-2.313,9.829,9.829,0,0,1,.22-1.6,4.9,4.9,0,0,1,.776-1.722,10.8,10.8,0,0,1,2.96-3.031,14.862,14.862,0,0,1,3.778-1.909,13.627,13.627,0,0,1,3.412-.52c.977-.034,1.764-.013,2.307.008a2.772,2.772,0,0,1,.844.085,25.735,25.735,0,0,1-3.129.263,14.782,14.782,0,0,0-3.3.607,15.506,15.506,0,0,0-3.631,1.881,10.808,10.808,0,0,0-2.863,2.879,6,6,0,0,0-1.025,3.092C361.171,295.662,361.219,296.876,361.11,296.873Z" fill="#eb996e"/><path d="M372.52,282.544c0,.075-1.182.106-3.07.324-1.817.278-4.725.411-6.382,2.916a26.864,26.864,0,0,0-3.987,6.2,16.042,16.042,0,0,0-.748,2.957,2.183,2.183,0,0,1-.046-.838,7.973,7.973,0,0,1,.46-2.243,23.457,23.457,0,0,1,3.928-6.387,8.581,8.581,0,0,1,1.535-1.552,5.575,5.575,0,0,1,1.859-.873,16.873,16.873,0,0,1,3.348-.532A12,12,0,0,1,372.52,282.544Z" fill="#eb996e"/><path d="M375.947,299.918a2.766,2.766,0,0,1-.47-.358l-1.322-1.062a54.737,54.737,0,0,0-5.192-3.576l.112.021-4.887.832.167-.206a5.381,5.381,0,0,1-.091,1.2,2.216,2.216,0,0,1-.555,1.176,1.209,1.209,0,0,1-.648.3,1.705,1.705,0,0,1-.688.041,2,2,0,0,1-1.217-.674,2.09,2.09,0,0,1-.213-.289l-.044-.078-.022-.04-.011-.02v0c-.064-.024.546.2.286.105l-.005,0-.01,0-.155.063c-.206.082-.416.157-.632.224a5.361,5.361,0,0,1-.669.167,2.487,2.487,0,0,1-.364.04.839.839,0,0,1-.453-.088,1.449,1.449,0,0,1-.479-.647,5.26,5.26,0,0,1-.243-.672,11.744,11.744,0,0,1-.314-1.385l.286.2a1.856,1.856,0,0,1-1.823-.621,1.511,1.511,0,0,1-.336-.985,4.415,4.415,0,0,1,.173-.946,26.335,26.335,0,0,1,1.349-3.518l.006-.013.009-.016,1.781-2.821,1.13-1.787a9.685,9.685,0,0,1,1.239-1.732,5.275,5.275,0,0,1,1.773-1.178,6.858,6.858,0,0,1,2.015-.418l7.446-.837.032,0,.026.005a6.924,6.924,0,0,1,1.306.343,2.219,2.219,0,0,1,1.134.794l-.274-.086a2.731,2.731,0,0,1,2.538.142,3.2,3.2,0,0,1,1.255,2l-.06-.1,6.207,5.581,1.671,1.54a4.435,4.435,0,0,1,.56.565,4.418,4.418,0,0,1-.631-.484l-1.738-1.465-6.316-5.457-.043-.037-.017-.066a2.818,2.818,0,0,0-1.106-1.737,2.33,2.33,0,0,0-2.139-.093l-.173.073-.1-.158a1.871,1.871,0,0,0-.921-.6,6.479,6.479,0,0,0-1.217-.31h.058l-7.441.878a6.385,6.385,0,0,0-1.886.392A4.776,4.776,0,0,0,362,283.1a9.331,9.331,0,0,0-1.17,1.649l-1.129,1.788c-.61.966-1.214,1.921-1.783,2.82l.016-.028a26.055,26.055,0,0,0-1.328,3.437,3.993,3.993,0,0,0-.16.834,1.026,1.026,0,0,0,.233.67,1.379,1.379,0,0,0,1.338.449l.246-.04.04.238a11.452,11.452,0,0,0,.293,1.324,2.387,2.387,0,0,0,.512,1.057.458.458,0,0,0,.2.022,1.986,1.986,0,0,0,.3-.031,5.014,5.014,0,0,0,.613-.149c.2-.062.4-.132.6-.208l.145-.058.009,0,0,0c-.258-.1.353.127.29.1v0l.009.016.017.031.035.062a1.629,1.629,0,0,0,.166.229,1.557,1.557,0,0,0,.943.535,1.3,1.3,0,0,0,.537-.031.792.792,0,0,0,.447-.187,3.065,3.065,0,0,0,.536-2.043v-.181l.167-.026,4.9-.765.062-.01.05.032a47.091,47.091,0,0,1,5.135,3.72c.566.479.991.864,1.27,1.133A2.853,2.853,0,0,1,375.947,299.918Z" fill="#eb996e"/><path d="M419.684,314.148h-7.768v1.716l17,165.825h9.066Z" fill="#455a64"/><path d="M419.684,314.148s.02.3.076.875.146,1.428.258,2.532c.235,2.233.579,5.5,1.022,9.714.9,8.435,2.209,20.634,3.826,35.749,3.273,30.207,7.808,72.059,12.862,118.7l.258-.291H428.92l.259.235c-8-78.055-14.851-144.086-17.183-165.806v.008c0-.8-.006-1.267-.007-1.715l-.073.073,5.86-.041,1.43-.018c.316,0,.477-.014.477-.014s-.144-.01-.453-.015l-1.414-.017-5.9-.042h-.073v.074l-.007,1.715v.009c2.125,21.741,8.821,87.788,16.824,165.843l.024.235h9.592l-.032-.291L425.156,362.8c-1.681-15.084-3.038-27.257-3.977-35.675-.473-4.184-.841-7.431-1.092-9.648q-.191-1.632-.292-2.5C419.727,314.424,419.684,314.148,419.684,314.148Z" fill="#263238"/><path d="M282.448,314.147h-7.768v1.758l16.184,165.746h7.977Z" fill="#263238"/><path d="M452.134,315.862l-276.856.3-.1-7.306H452.134Z" fill="#455a64"/><path d="M214.224,314.147h7.768v1.758L205.808,481.652h-7.977Z" fill="#455a64"/><path d="M213.875,316.317s-.018.3-.068.86-.129,1.4-.228,2.495c-.208,2.2-.512,5.418-.9,9.57-.8,8.312-1.951,20.337-3.381,35.236-2.89,29.774-6.9,71.026-11.356,116.978l-.216-.237H205.7l-.215.2c7.561-76.745,13.965-141.752,16.093-163.345v.007c0-.815.005-1.3.006-1.758l.061.061-5.862-.035-1.43-.015c-.315,0-.475-.012-.475-.012s.146-.008.455-.012l1.416-.014,5.9-.035h.062v.062c0,.46,0,.943.006,1.758v.006L205.914,481.456l-.019.2h-8.413l.024-.237c4.535-46.005,8.606-87.3,11.544-117.112,1.483-14.873,2.68-26.878,3.508-35.175.417-4.13.742-7.334.963-9.518.112-1.076.2-1.9.257-2.464S213.875,316.317,213.875,316.317Z" fill="#263238"/><path d="M326.413,314.784h-7.768v1.752l16.184,165.117h7.977Z" fill="#455a64"/><path d="M326.762,316.946s.019.295.068.856.129,1.4.228,2.485c.208,2.187.512,5.4.9,9.535.8,8.279,1.951,20.259,3.381,35.1,2.89,29.661,6.9,70.757,11.357,116.534l.215-.237h-7.977l.216.2c-7.562-76.453-13.966-141.214-16.094-162.724v.006c0-.811-.005-1.293-.006-1.751l-.061.061,5.862-.035,1.43-.014c.315-.005.475-.012.475-.012s-.145-.008-.455-.012l-1.416-.015-5.9-.034h-.061v.062c0,.458,0,.94-.006,1.751v.007l15.795,162.753.019.2h8.413l-.024-.236c-4.535-45.83-8.606-86.972-11.544-116.667-1.483-14.817-2.68-26.776-3.508-35.042-.417-4.113-.742-7.306-.963-9.481q-.168-1.609-.257-2.454C326.8,317.22,326.762,316.946,326.762,316.946Z" fill="#263238"/><path d="M451.1,315.908c0-.138-55.819-.25-124.659-.25-68.864,0-124.67.112-124.67.25s55.806.25,124.67.25C395.279,316.158,451.1,316.046,451.1,315.908Z" fill="#263238"/><path d="M277.672,257.51l60.81.494c1.973,0,3.858.948,4.153,2.9l6.646,44.321H380.6a1.826,1.826,0,0,1,0,3.652H280.564L273.727,262.1A3.991,3.991,0,0,1,277.672,257.51Z" fill="#e0e0e0"/><path d="M277.672,257.51a3.218,3.218,0,0,0-.958.09,4.021,4.021,0,0,0-3.075,3.481,11.3,11.3,0,0,0,.224,2.5c.255,1.791.548,3.853.877,6.172,1.339,9.292,3.267,22.684,5.639,39.147l.023.161h.162l97.054.058h2.612a2.525,2.525,0,0,0,1.382-.263,2.073,2.073,0,0,0-.009-3.623,2.538,2.538,0,0,0-1.37-.257h-1.287l-10.165,0-19.5.007.234.2c-2.392-15.873-4.623-30.68-6.625-43.963a3.444,3.444,0,0,0-1.125-2.316,4.526,4.526,0,0,0-2.325-1.026,20.229,20.229,0,0,0-2.453-.086l-2.387-.016-9.155-.062-16.27-.1-23.163-.119-6.2-.011-1.6.008c-.359,0-.543.016-.543.016s.184.016.543.025l1.6.034,6.2.089,23.162.258,16.27.161,9.155.087,2.388.023a19.9,19.9,0,0,1,2.392.087,4.132,4.132,0,0,1,2.12.936,3.024,3.024,0,0,1,.989,2.076c1.982,13.286,4.192,28.1,6.56,43.972l.03.2h.2l19.5.007h11.452a2.048,2.048,0,0,1,1.133.2,1.582,1.582,0,0,1,.006,2.765,2.037,2.037,0,0,1-1.142.2h-2.612l-97.054.058.186.16c-2.44-16.454-4.425-29.837-5.8-39.124-.348-2.316-.657-4.376-.926-6.165a11.3,11.3,0,0,1-.248-2.464,3.907,3.907,0,0,1,.706-1.891,3.978,3.978,0,0,1,2.247-1.55A7.786,7.786,0,0,1,277.672,257.51Z" fill="#263238"/><path d="M314.464,282.629a3.807,3.807,0,1,1-3.807-3.807A3.807,3.807,0,0,1,314.464,282.629Z" fill="#fff"/><path d="M346.817,308.466c-.086.014-2.022-11.272-4.323-25.2s-4.1-25.244-4.012-25.258,2.021,11.269,4.324,25.207S346.9,308.452,346.817,308.466Z" fill="#263238"/></g></svg>