<svg xmlns="http://www.w3.org/2000/svg" width="463.073" height="461.548" viewBox="0 0 463.073 461.548"><g transform="translate(-18.269 -20.963)"><ellipse cx="231.537" cy="133.678" rx="231.537" ry="133.678" transform="translate(18.269 215.156)" fill="#f0f0f0"/><path d="M323.9,384.073a12.605,12.605,0,0,0-1.849-6.5h0a14.277,14.277,0,0,0-.794-1.216l-.041-.056a13.162,13.162,0,0,0-.869-1.065c-.026-.029-.054-.058-.081-.087a11.24,11.24,0,0,0-.937-.907c-.028-.025-.058-.046-.087-.07a9.15,9.15,0,0,0-1.028-.756c-.2-.126-.4-.238-.6-.337-.091-.046-.181-.079-.271-.12s-.209-.1-.312-.138c-.15-.057-.3-.1-.444-.142-.039-.011-.08-.028-.119-.038a4.506,4.506,0,0,0-.514-.1l-.03-.006a3.242,3.242,0,0,0-1.91.292h0l-.012.005v0c-5.289,2.653-35.772,22.047-49.8,30.79l-6.952,4.22a1.569,1.569,0,0,0-.513.486c-.017.024-.035.049-.052.075a2.053,2.053,0,0,0-.159.3c-.028.066-.05.138-.074.21-.028.089-.059.173-.08.271-.012.058-.019.121-.028.182-.321.173-.71.385-1.149.63l-1.027.555a40.5,40.5,0,0,0-7.93-5.877c-9.615-5.55-22.356-8.608-35.875-8.608s-26.262,3.058-35.876,8.608c-9.961,5.751-15.447,13.518-15.447,21.869s5.486,16.117,15.446,21.868c9.615,5.551,22.356,8.608,35.876,8.608s26.261-3.057,35.876-8.608c9.962-5.751,15.447-13.517,15.447-21.868a20.128,20.128,0,0,0-3.262-10.8l.917-.5a2.054,2.054,0,0,0,1.969.193l.043-.023c4.761-2.622,51.162-22.4,60.648-27.484h0l.006,0h0C323.115,387.322,323.834,385.994,323.9,384.073ZM241.851,440.81c-8.3,4.794-19.487,7.435-31.491,7.435s-23.189-2.641-31.492-7.435c-7.133-4.117-11.06-9.187-11.06-14.272s3.927-10.156,11.06-14.273c8.3-4.794,19.486-7.433,31.492-7.433s23.189,2.639,31.491,7.433c7.133,4.117,11.06,9.187,11.06,14.273S248.984,436.693,241.851,440.81Z" fill="#e0e0e0"/><path d="M330.984,266.6l-47.068-27.232a9.572,9.572,0,0,0-8.66,0L36.169,377.409c-2.392,1.381-2.392,3.619,0,5l47.066,27.232a9.575,9.575,0,0,0,8.66,0l89.6-51.73,13.772,8.006c7.293,4.211,19.118,4.212,26.411,0l41.057-23.531c7.294-4.208,7.295-11.034,0-15.245l-13.762-8,82.01-47.541C333.376,270.222,333.376,267.983,330.984,266.6Z" fill="#e0e0e0"/><ellipse cx="46.151" cy="26.645" rx="46.151" ry="26.645" transform="translate(363.791 342.213)" fill="#e0e0e0"/><path d="M436.157,338.77c.007-6.246-1.241-17.762,4.047-28.561,3.831-7.824,10.687-15.426,17.062-14.67,5.938.7,6.477,9.832.8,16.082s-12.906,14.894-14.481,28.711l-4.089,10.254Z" fill="#489ddc"/><g opacity="0.2"><path d="M436.157,338.77c.007-6.246-1.241-17.762,4.047-28.561,3.831-7.824,10.687-15.426,17.062-14.67,5.938.7,6.477,9.832.8,16.082s-12.906,14.894-14.481,28.711l-4.089,10.254Z"/></g><path d="M438.286,343.159a.434.434,0,0,0,.359-.445c-.719-17.763,5.062-32.509,16.719-42.643a.434.434,0,0,0-.569-.655c-11.863,10.313-17.748,25.3-17.017,43.333a.435.435,0,0,0,.451.417A.519.519,0,0,0,438.286,343.159Z" fill="#fff"/><path d="M435.026,361.105a22.093,22.093,0,0,0,10.986,3.057c6.684.159,9.153-3.359,9.153-3.359s-3.4-5.793-7.348-7.018a36.849,36.849,0,0,1,11.985,3.138s4.005-.476,4.779-6.789c0,0-2.861-3.354-11.072-4.272a26.411,26.411,0,0,1,11.875-1.021c.55.137,1.72-8.049,1.906-11.777s-1.272-3.495-4.21-3.873-12.662.442-14.229,2.24-1.754,7.254-1.754,7.254-2.1-2.791-2.057-5.54a10.23,10.23,0,0,0-6.016.953c-3.038,1.538-4.015,2.769-4.165,5.1s-.348,5.825.589,8.535c0,0-2.77-4.463-2.628-8.347a41.172,41.172,0,0,0-2.825,5.913C428.69,348.7,430.239,356.933,435.026,361.105Z" fill="#489ddc"/><path d="M435.14,361.524a.437.437,0,0,0,.3-.285c3.8-11.666,21.709-27.029,28.55-29.337a.434.434,0,0,0,.273-.55.42.42,0,0,0-.55-.272c-6.974,2.352-25.223,18.006-29.1,29.89a.435.435,0,0,0,.278.548A.446.446,0,0,0,435.14,361.524Z" fill="#fff"/><path d="M221.681,361.948l35.374-20.454c3.646-2.1,5.469-4.864,5.47-7.623s.015-4.921.015-4.921l-33.287-18.893a7.783,7.783,0,0,1-3.521-6.1V260.345l-61.786,35.7,0,43.613a7.782,7.782,0,0,0,3.521,6.1l27.806,16.188C202.564,366.158,214.388,366.158,221.681,361.948Z" fill="#37474f"/><path d="M178.779,347.384v4.9l-11.324-6.526a7.79,7.79,0,0,1-3.517-6.1V296.05l11.772-6.791c.243,2.989.508,6.079.751,9.088l-8.253,4.778V337.2a7.734,7.734,0,0,0,3.517,6.1Z" fill="#263238"/><path d="M168.206,337.206a7.784,7.784,0,0,0,3.521,6.1l23.539,13.723c7.293,4.211,19.118,4.212,26.411,0l35.392-20.452c7.294-4.208,7.3-11.034,0-15.245L233.516,307.6a7.785,7.785,0,0,1-3.522-6.1V267.424l-61.788,35.7Z" fill="#455a64"/><path d="M240.688,311.747v-.005l-7.172-4.141a7.782,7.782,0,0,1-3.522-6.1V267.424l-61.788,35.7v34.08a7.784,7.784,0,0,0,3.521,6.1l7.048,4.069Z" opacity="0.15"/><path d="M262.533,328.954v4.92c0,2.765-1.83,5.509-5.469,7.624l-35.38,20.442a26.489,26.489,0,0,1-12.605,3.131v-4.9a26.477,26.477,0,0,0,12.605-3.131l35.38-20.462C260.7,334.484,262.533,331.719,262.533,328.954Z" fill="#37474f"/><path d="M69,384.257a9.443,9.443,0,0,0,8.531-.158L316.479,246.145a9.727,9.727,0,0,0,4.4-7.623V29.373a9.438,9.438,0,0,0-4.129-7.467,9.437,9.437,0,0,0-8.53.158L69.274,160.018a9.732,9.732,0,0,0-4.4,7.624l0,209.148A9.441,9.441,0,0,0,69,384.257Z" fill="#455a64"/><path d="M77.531,384.094,316.479,246.14a9.73,9.73,0,0,0,4.4-7.624V29.367c0-2.807-1.971-3.945-4.4-2.541L77.534,164.78a9.73,9.73,0,0,0-4.4,7.624l0,209.148C73.129,384.359,75.1,385.5,77.531,384.094Z" fill="#37474f"/><path d="M81.386,353.924l0-178.779a5.836,5.836,0,0,1,2.641-4.574L309.976,40.119c1.459-.841,2.641-.159,2.641,1.525l.008,178.783A5.836,5.836,0,0,1,309.984,225L84.026,355.449C82.568,356.291,81.386,355.608,81.386,353.924Z" fill="#489ddc"/><path d="M81.386,353.924l0-178.779a5.836,5.836,0,0,1,2.641-4.574L309.976,40.119c1.459-.841,2.641-.159,2.641,1.525l.008,178.783A5.836,5.836,0,0,1,309.984,225L84.026,355.449C82.568,356.291,81.386,355.608,81.386,353.924Z" fill="#fff" opacity="0.7"/><path d="M196.553,306.653a2.612,2.612,0,0,1-1.324-.344,3.37,3.37,0,0,1-1.46-3.106,9.551,9.551,0,0,1,4.38-7.587h0a3,3,0,0,1,4.88,2.817,9.547,9.547,0,0,1-4.38,7.587A4.254,4.254,0,0,1,196.553,306.653Zm3.689-10.67a3.266,3.266,0,0,0-1.593.5h0a8.59,8.59,0,0,0-3.88,6.721,2.033,2.033,0,0,0,3.38,1.95,8.584,8.584,0,0,0,3.88-6.72,2.44,2.44,0,0,0-.96-2.241A1.64,1.64,0,0,0,200.242,295.983Z" fill="#27debf"/><path d="M351.868,73.762l-232.71,134.2V379.472a2.97,2.97,0,0,0,4.448,2.579l4.148-2.395L347.53,252.936a9.587,9.587,0,0,0,4.338-7.512Z" fill="#f0f0f0"/><path d="M350.868,75.493V245.424a8.624,8.624,0,0,1-3.838,6.645L127.255,378.79l-4.148,2.395a1.93,1.93,0,0,1-.972.266,2.014,2.014,0,0,1-1.378-.561,1.946,1.946,0,0,1-.6-1.418V208.537L350.868,75.493m1-1.731-232.71,134.2V379.472a2.978,2.978,0,0,0,2.976,2.979,2.936,2.936,0,0,0,1.472-.4l4.148-2.395L347.53,252.936a9.587,9.587,0,0,0,4.338-7.512V73.762Z" fill="#e0e0e0"/><path d="M346.349,70.575,113.624,204.764l5.534,3.195,232.71-134.2Z" fill="#455a64" opacity="0.8"/><path d="M120.717,382.091a3,3,0,0,1-1.558-2.619V207.959l-5.534-3.195-.007,170.565a4.807,4.807,0,0,0,.042.633,4.6,4.6,0,0,0,2.264,3.36l4.57,2.643.224.126Z" fill="#ebebeb"/><path d="M113.624,204.839V193.267a4.818,4.818,0,0,1,2.158-3.761L344.19,57.834a4.757,4.757,0,0,1,4.324-.011l1.189.687a4.784,4.784,0,0,1,2.165,3.75V73.851L119.158,208.032Z" fill="#489ddc"/><path d="M113.624,204.839V193.267a4.818,4.818,0,0,1,2.158-3.761L344.19,57.834a4.757,4.757,0,0,1,4.324-.011l1.189.687a4.784,4.784,0,0,1,2.165,3.75V73.851L119.158,208.032Z" opacity="0.3"/><path d="M119.158,196.462a4.82,4.82,0,0,1,2.158-3.761L349.71,61.021c1.192-.7,2.158-.142,2.158,1.239V73.851L119.158,208.032Z" fill="#489ddc"/><path d="M119.158,196.462a4.82,4.82,0,0,1,2.158-3.761L349.71,61.021c1.192-.7,2.158-.142,2.158,1.239V73.851L119.158,208.032Z" opacity="0.4"/><path d="M119.788,194.323a4.467,4.467,0,0,0-.63,2.14v11.57l-5.53-3.19v-11.58a4.43,4.43,0,0,1,.63-2.13Z" fill="#489ddc"/><path d="M119.788,194.323a4.467,4.467,0,0,0-.63,2.14v11.57l-5.53-3.19v-11.58a4.43,4.43,0,0,1,.63-2.13Z" opacity="0.5"/><path d="M341.713,73.326c0,1.3.909,1.82,2.031,1.173a4.49,4.49,0,0,0,2.031-3.518c0-1.3-.909-1.82-2.031-1.173A4.49,4.49,0,0,0,341.713,73.326Z" fill="#fafafa"/><path d="M333.589,78.016c0,1.3.909,1.821,2.031,1.173a4.487,4.487,0,0,0,2.031-3.518c0-1.295-.909-1.82-2.031-1.172A4.486,4.486,0,0,0,333.589,78.016Z" fill="#fafafa"/><path d="M325.465,82.707c0,1.295.909,1.82,2.031,1.173a4.49,4.49,0,0,0,2.031-3.518c0-1.3-.909-1.82-2.031-1.173A4.49,4.49,0,0,0,325.465,82.707Z" fill="#fafafa"/><path d="M119.158,208.036V379.472a2.97,2.97,0,0,0,4.448,2.579l4.148-2.395,50.855-29.323V173.752l-59.452,34.281Z" fill="#fafafa"/><path d="M182.672,176.648V343.159L346.99,248.29V81.78Z" transform="translate(1 13)" fill="#fafafa"/><path d="M165,193.872l-37.926,21.915a2.809,2.809,0,0,0-1.271,2.2v3.948c0,.81.569,1.139,1.271.734L165,200.755a2.811,2.811,0,0,0,1.271-2.2v-3.947C166.271,193.795,165.7,193.467,165,193.872Z" fill="#489ddc"/><path d="M165,193.872l-37.926,21.915a2.809,2.809,0,0,0-1.271,2.2v3.948c0,.81.569,1.139,1.271.734L165,200.755a2.811,2.811,0,0,0,1.271-2.2v-3.947C166.271,193.795,165.7,193.467,165,193.872Z" fill="#fafafa" opacity="0.8"/><path d="M173.445,195.439l-1.118-1.076a4.981,4.981,0,0,0,.355-1.786,2.111,2.111,0,0,0-.835-1.919,1.322,1.322,0,0,0-1.361.059,4.467,4.467,0,0,0-1.756,3.633,2.116,2.116,0,0,0,.835,1.919,1.192,1.192,0,0,0,.6.161,1.515,1.515,0,0,0,.761-.222,3.018,3.018,0,0,0,.992-1.018l.917.883a.438.438,0,0,0,.3.123.446.446,0,0,0,.318-.135A.44.44,0,0,0,173.445,195.439Zm-2.959.007a.473.473,0,0,1-.48.06c-.183-.1-.4-.471-.4-1.156a3.644,3.644,0,0,1,1.316-2.871.652.652,0,0,1,.318-.1.325.325,0,0,1,.163.043c.182.1.4.471.4,1.157A3.64,3.64,0,0,1,170.486,195.446Z" fill="#455a64"/><path d="M126.727,234.257l-.851.491c-.05.029-.09,0-.09-.068v-2.3a.218.218,0,0,1,.09-.174l.851-.491c.05-.029.091,0,.091.069v2.3A.217.217,0,0,1,126.727,234.257Z" fill="#455a64"/><path d="M128,233.521l-.851.491c-.05.029-.091,0-.091-.068v-2.3a.219.219,0,0,1,.091-.174l.851-.491c.05-.029.091,0,.091.069v2.3A.218.218,0,0,1,128,233.521Z" fill="#455a64"/><path d="M129.277,232.785l-.851.491c-.05.029-.09,0-.09-.068v-2.3a.218.218,0,0,1,.09-.173l.851-.491c.05-.029.091,0,.091.069v2.3A.218.218,0,0,1,129.277,232.785Z" fill="#455a64"/><path d="M126.727,237.227l-.851.491c-.05.029-.09,0-.09-.068v-2.3a.218.218,0,0,1,.09-.174l.851-.491c.05-.029.091,0,.091.069v2.3A.217.217,0,0,1,126.727,237.227Z" fill="#455a64"/><path d="M128,236.491l-.851.491c-.05.029-.091,0-.091-.069v-2.3a.218.218,0,0,1,.091-.173l.851-.491c.05-.029.091,0,.091.069v2.3A.218.218,0,0,1,128,236.491Z" fill="#455a64"/><path d="M129.277,235.755l-.851.491c-.05.029-.09,0-.09-.069v-2.3a.218.218,0,0,1,.09-.173l.851-.491c.05-.029.091,0,.091.069v2.3A.218.218,0,0,1,129.277,235.755Z" fill="#455a64"/><path d="M126.862,245.073l-1.046-.638c-.04-.024-.04-.117,0-.188l1.046-1.847c.051-.089.124-.076.124.023v2.485C126.986,245.006,126.913,245.1,126.862,245.073Z" fill="#455a64"/><path d="M126.422,243.663l1.379-.8v.656l-1.379.8c-.117.067-.213-.025-.213-.205A.566.566,0,0,1,126.422,243.663Z" fill="#455a64"/><path d="M128.058,242.719l.47-.271v.655l-.47.271Z" fill="#455a64"/><path d="M129.8,242.043v2.411a.558.558,0,0,1-.213.45c-.117.068-.213-.021-.213-.205v-2.083l-.583.337V242.3l.8-.459C129.7,241.77,129.8,241.863,129.8,242.043Z" fill="#455a64"/><path d="M127.269,250.476a4.562,4.562,0,0,0-1.451,3.9c.172,1.256.917,1.208,1,1.79.009.063.05.086.1.06l.932-.529a.236.236,0,0,0,.1-.17c.1-.768,1.049-1.7,1.056-3.565C129,250.527,128.215,249.826,127.269,250.476Z" fill="#455a64"/><path d="M127.827,257.2l-.9.52c-.062.035-.112,0-.112-.085v-.828a.267.267,0,0,1,.112-.214l.9-.519c.062-.036.111,0,.111.084v.829A.266.266,0,0,1,127.827,257.2Z" fill="#455a64"/><path d="M127.487,231.025a5.461,5.461,0,0,0-1.632,3.451,3.622,3.622,0,0,0,.238,1.887l-.3,1.573c-.025.13.046.2.121.117l.906-.988a1.408,1.408,0,0,0,1.319-.388,5.458,5.458,0,0,0,1.633-3.456C129.984,231.019,128.836,229.915,127.487,231.025Zm.326,5.155c-.835.482-1.513-.171-1.513-1.456a4,4,0,0,1,1.513-3.2c.834-.481,1.512.172,1.512,1.456A4,4,0,0,1,127.813,236.18Z" fill="#455a64"/><path d="M127.487,261.373a5.461,5.461,0,0,0-1.632,3.451,3.622,3.622,0,0,0,.238,1.887l-.3,1.573c-.025.13.046.2.121.117l.906-.988a1.408,1.408,0,0,0,1.319-.388,5.458,5.458,0,0,0,1.633-3.456C129.984,261.367,128.836,260.263,127.487,261.373Zm.326,5.155c-.835.482-1.513-.171-1.513-1.456a4,4,0,0,1,1.513-3.2c.834-.481,1.512.172,1.512,1.456A4,4,0,0,1,127.813,266.528Z" fill="#455a64"/><path d="M128.766,272.493a2.106,2.106,0,0,1-.8,1.69c-.441.254-.8-.09-.8-.769a2.108,2.108,0,0,1,.8-1.69C128.409,271.47,128.766,271.814,128.766,272.493Z" fill="#455a64"/><path d="M130.137,272.735a1.4,1.4,0,0,1-.531,1.125c-.294.17-.532-.059-.532-.511a1.4,1.4,0,0,1,.532-1.126C129.9,272.053,130.137,272.282,130.137,272.735Z" fill="#455a64"/><path d="M128.91,277.336l-1.885,1.089v-2.386a1.633,1.633,0,0,1,.683-1.3l.52-.3c.377-.217.682.014.682.516Z" fill="#455a64"/><path d="M129.69,274.136l-.519.3v2.751l.979-.565v-2.137C130.15,274.145,129.944,273.989,129.69,274.136Z" fill="#455a64"/><path d="M125.8,275.24c0,.452.238.681.532.512a1.406,1.406,0,0,0,.531-1.126c0-.452-.238-.681-.531-.512A1.4,1.4,0,0,0,125.8,275.24Z" fill="#455a64"/><path d="M126.246,276.124l.519-.3v2.751l-.979.565V277A1.1,1.1,0,0,1,126.246,276.124Z" fill="#455a64"/><path d="M135.01,228.861l22.207-12.821c.6-.345,1.083-.1,1.083.547a2.321,2.321,0,0,1-1.083,1.8L135.01,231.207c-.6.345-1.082.1-1.082-.548A2.323,2.323,0,0,1,135.01,228.861Z" fill="#e0e0e0"/><path d="M135.01,239.314l22.207-12.821c.6-.345,1.083-.1,1.083.547a2.321,2.321,0,0,1-1.083,1.8L135.01,241.659c-.6.346-1.082.1-1.082-.547A2.323,2.323,0,0,1,135.01,239.314Z" fill="#e0e0e0"/><path d="M135.01,249.767l22.207-12.822c.6-.345,1.083-.1,1.083.548a2.321,2.321,0,0,1-1.083,1.8L135.01,252.112c-.6.345-1.082.1-1.082-.547A2.323,2.323,0,0,1,135.01,249.767Z" fill="#e0e0e0"/><path d="M135.01,260.22,157.217,247.4c.6-.345,1.083-.1,1.083.548a2.321,2.321,0,0,1-1.083,1.8L135.01,262.565c-.6.345-1.082.1-1.082-.548A2.323,2.323,0,0,1,135.01,260.22Z" fill="#e0e0e0"/><path d="M135.01,270.673l22.207-12.822c.6-.345,1.083-.1,1.083.548a2.323,2.323,0,0,1-1.083,1.8L135.01,273.018c-.6.345-1.082.1-1.082-.548A2.323,2.323,0,0,1,135.01,270.673Z" fill="#e0e0e0"/><path d="M139.073,279.208l22.207-12.822c.6-.345,1.082-.1,1.082.548a2.322,2.322,0,0,1-1.082,1.8l-22.207,12.821c-.6.345-1.083.1-1.083-.548A2.321,2.321,0,0,1,139.073,279.208Z" fill="#455a64"/><path d="M139.073,286.269l22.207-12.822c.6-.345,1.082-.1,1.082.548a2.32,2.32,0,0,1-1.082,1.8l-22.207,12.821c-.6.345-1.083.1-1.083-.548A2.321,2.321,0,0,1,139.073,286.269Z" fill="#e0e0e0"/><path d="M139.073,293.33l22.207-12.822c.6-.345,1.082-.1,1.082.548a2.32,2.32,0,0,1-1.082,1.8l-22.207,12.821c-.6.345-1.083.1-1.083-.547A2.321,2.321,0,0,1,139.073,293.33Z" fill="#e0e0e0"/><path d="M143.4,297.818,165.6,285c.6-.345,1.082-.1,1.082.548a2.32,2.32,0,0,1-1.082,1.8L143.4,300.163c-.6.346-1.083.1-1.083-.547A2.321,2.321,0,0,1,143.4,297.818Z" fill="#e0e0e0"/><path d="M138.2,303.893l1.8-3.182c.069-.121.069-.281,0-.323l-1.8-1.1c-.087-.053-.214.116-.214.285v4.282C137.99,304.024,138.117,304.047,138.2,303.893Z" fill="#455a64"/><path d="M143.4,304.855,165.6,292.033c.6-.345,1.082-.1,1.082.548a2.322,2.322,0,0,1-1.082,1.8L143.4,307.2c-.6.345-1.083.1-1.083-.548A2.321,2.321,0,0,1,143.4,304.855Z" fill="#e0e0e0"/><path d="M138.2,310.93l1.8-3.182c.069-.122.069-.281,0-.323l-1.8-1.1c-.087-.053-.214.115-.214.285v4.281C137.99,311.061,138.117,311.083,138.2,310.93Z" fill="#455a64"/><path d="M143.4,311.891,165.6,299.07c.6-.345,1.082-.1,1.082.548a2.32,2.32,0,0,1-1.082,1.8L143.4,314.237c-.6.345-1.083.1-1.083-.548A2.321,2.321,0,0,1,143.4,311.891Z" fill="#e0e0e0"/><path d="M138.2,317.966l1.8-3.182c.069-.121.069-.281,0-.323l-1.8-1.1c-.087-.054-.214.115-.214.284v4.282C137.99,318.1,138.117,318.12,138.2,317.966Z" fill="#455a64"/><path d="M143.4,318.928,165.6,306.106c.6-.345,1.082-.1,1.082.548a2.322,2.322,0,0,1-1.082,1.8L143.4,321.273c-.6.345-1.083.1-1.083-.548A2.321,2.321,0,0,1,143.4,318.928Z" fill="#e0e0e0"/><path d="M138.2,325l1.8-3.182c.069-.122.069-.282,0-.323l-1.8-1.1c-.087-.053-.214.116-.214.285v4.281C137.99,325.134,138.117,325.157,138.2,325Z" fill="#455a64"/><path d="M143.4,325.964,165.6,313.143c.6-.345,1.082-.1,1.082.547a2.32,2.32,0,0,1-1.082,1.8L143.4,328.31c-.6.345-1.083.1-1.083-.548A2.321,2.321,0,0,1,143.4,325.964Z" fill="#e0e0e0"/><path d="M138.2,332.039l1.8-3.182c.069-.121.069-.281,0-.323l-1.8-1.1c-.087-.054-.214.115-.214.284V332C137.99,332.17,138.117,332.193,138.2,332.039Z" fill="#455a64"/><path d="M143.4,333,165.6,320.179c.6-.345,1.082-.1,1.082.548a2.32,2.32,0,0,1-1.082,1.8L143.4,335.346c-.6.345-1.083.1-1.083-.548A2.321,2.321,0,0,1,143.4,333Z" fill="#e0e0e0"/><path d="M138.2,339.076l1.8-3.182c.069-.122.069-.281,0-.324l-1.8-1.1c-.087-.053-.214.115-.214.285v4.281C137.99,339.207,138.117,339.23,138.2,339.076Z" fill="#455a64"/><path d="M143.4,340.037,165.6,327.216c.6-.345,1.082-.1,1.082.547a2.32,2.32,0,0,1-1.082,1.8L143.4,342.382c-.6.346-1.083.1-1.083-.547A2.321,2.321,0,0,1,143.4,340.037Z" fill="#e0e0e0"/><path d="M138.2,346.112l1.8-3.182c.069-.121.069-.281,0-.323l-1.8-1.1c-.087-.053-.214.116-.214.285v4.282C137.99,346.243,138.117,346.266,138.2,346.112Z" fill="#455a64"/><path d="M143.4,347.074,165.6,334.252c.6-.345,1.082-.1,1.082.548a2.322,2.322,0,0,1-1.082,1.8L143.4,349.419c-.6.345-1.083.1-1.083-.548A2.321,2.321,0,0,1,143.4,347.074Z" fill="#e0e0e0"/><path d="M138.2,353.149l1.8-3.182c.069-.122.069-.282,0-.323l-1.8-1.1c-.087-.053-.214.115-.214.285v4.281C137.99,353.28,138.117,353.3,138.2,353.149Z" fill="#455a64"/><path d="M187.817,199.484l72.989-42.141a2.393,2.393,0,0,0,1.083-1.875V136.861c0-.69-.485-.97-1.083-.625l-72.989,42.133a2.392,2.392,0,0,0-1.083,1.875v18.615C186.734,199.549,187.219,199.829,187.817,199.484Z" fill="#f0f0f0"/><path d="M194.181,186.352a.214.214,0,0,1,.007-.045l.48-2-.662.382a.033.033,0,0,1-.043,0,.075.075,0,0,1-.017-.055v-.361a.186.186,0,0,1,.017-.076.121.121,0,0,1,.043-.052l1.06-.612a.033.033,0,0,1,.043,0,.074.074,0,0,1,.018.055v.318a.89.89,0,0,1-.037.194l-.48,2a.592.592,0,0,1-.024.071.1.1,0,0,1-.04.048l-.312.18a.028.028,0,0,1-.037,0A.064.064,0,0,1,194.181,186.352Z" fill="#455a64"/><path d="M195.952,182.986a.539.539,0,0,1,.286-.09.28.28,0,0,1,.2.087.5.5,0,0,1,.118.227,1.467,1.467,0,0,1,.045.327c0,.1.005.2.005.3s0,.209-.005.3a2.264,2.264,0,0,1-.045.38,1.659,1.659,0,0,1-.118.363,1.378,1.378,0,0,1-.2.316,1.051,1.051,0,0,1-.286.24.547.547,0,0,1-.287.091.29.29,0,0,1-.2-.087.511.511,0,0,1-.117-.228,1.581,1.581,0,0,1-.046-.327c0-.092,0-.191,0-.3s0-.21,0-.31a2.5,2.5,0,0,1,.046-.38,1.711,1.711,0,0,1,.117-.363,1.46,1.46,0,0,1,.2-.317A1.059,1.059,0,0,1,195.952,182.986Zm.237,1.379c.006-.2.006-.388,0-.573a1.4,1.4,0,0,0-.016-.148.268.268,0,0,0-.04-.1.1.1,0,0,0-.071-.043.183.183,0,0,0-.11.034.382.382,0,0,0-.112.094.5.5,0,0,0-.071.125.914.914,0,0,0-.04.148,1.1,1.1,0,0,0-.014.166q-.012.29,0,.573a.81.81,0,0,0,.013.149.241.241,0,0,0,.04.1.1.1,0,0,0,.072.043.2.2,0,0,0,.112-.034.376.376,0,0,0,.11-.1.469.469,0,0,0,.072-.125.6.6,0,0,0,.04-.148A1.231,1.231,0,0,0,196.189,184.365Z" fill="#455a64"/><path d="M197.487,182.6c0,.09,0,.176,0,.26a1.238,1.238,0,0,1-.025.2.925.925,0,0,1-.065.192.76.76,0,0,1-.107.166.615.615,0,0,1-.152.125.312.312,0,0,1-.15.049.146.146,0,0,1-.107-.043.267.267,0,0,1-.064-.117.707.707,0,0,1-.027-.174c0-.043,0-.085,0-.125s0-.085,0-.134a1.15,1.15,0,0,1,.027-.205.953.953,0,0,1,.064-.191.7.7,0,0,1,.107-.166.561.561,0,0,1,.15-.124.31.31,0,0,1,.152-.05.146.146,0,0,1,.105.043.277.277,0,0,1,.066.116A.77.77,0,0,1,197.487,182.6Zm.555-.722a.3.3,0,0,1,.032-.067.136.136,0,0,1,.047-.045l.182-.1c.017-.009.03-.01.039,0a.047.047,0,0,1,.015.041l0,.019a.13.13,0,0,1-.006.025l-1.1,2.853a.379.379,0,0,1-.033.067.125.125,0,0,1-.047.044l-.182.1c-.017.01-.029.011-.039,0a.047.047,0,0,1-.015-.041l0-.018a.086.086,0,0,1,.007-.025Zm-.994,1.219a.273.273,0,0,0,.023.119c.013.023.035.025.067.006a.143.143,0,0,0,.068-.084.6.6,0,0,0,.024-.146,2.13,2.13,0,0,0,0-.226.334.334,0,0,0-.024-.12c-.013-.022-.034-.024-.068-.005a.154.154,0,0,0-.067.083.509.509,0,0,0-.023.147A1.7,1.7,0,0,0,197.048,183.1Zm1.469.1c0,.088,0,.175,0,.26a1.25,1.25,0,0,1-.026.2.861.861,0,0,1-.065.191.7.7,0,0,1-.107.166.577.577,0,0,1-.15.124.316.316,0,0,1-.152.051.143.143,0,0,1-.106-.044.27.27,0,0,1-.065-.116.77.77,0,0,1-.026-.174c0-.044-.005-.086-.005-.125s0-.085.005-.135a1.237,1.237,0,0,1,.026-.2.944.944,0,0,1,.065-.192.664.664,0,0,1,.106-.165.558.558,0,0,1,.152-.125.3.3,0,0,1,.15-.049.138.138,0,0,1,.106.042.269.269,0,0,1,.065.117A.766.766,0,0,1,198.517,183.2Zm-.44.5a.291.291,0,0,0,.024.12c.012.023.034.024.068.005a.15.15,0,0,0,.067-.083.58.58,0,0,0,.023-.147,2.13,2.13,0,0,0,0-.226.307.307,0,0,0-.023-.119c-.013-.022-.035-.025-.067-.006a.145.145,0,0,0-.068.084.533.533,0,0,0-.024.146A2.13,2.13,0,0,0,198.077,183.7Z" fill="#455a64"/><path d="M194.17,180.618l-.733-1.129a14.717,14.717,0,0,0-1.732,4.667l1.185-.092A10.844,10.844,0,0,1,194.17,180.618Z" fill="#455a64"/><path d="M196.238,178.385V176.47a8.306,8.306,0,0,0-2.8,3.019l.733,1.129A6.15,6.15,0,0,1,196.238,178.385Z" fill="#455a64"/><path d="M192.716,185.839a9.591,9.591,0,0,1,.174-1.775l-1.185.092a13.1,13.1,0,0,0-.233,2.4,9.194,9.194,0,0,0,.233,2.133l1.185-1.276A6.723,6.723,0,0,1,192.716,185.839Z" fill="#455a64"/><path d="M200.77,178.922a3.937,3.937,0,0,0-1.732-2.667,2.778,2.778,0,0,0-2.8.215v1.915a2.047,2.047,0,0,1,2.068-.154,2.9,2.9,0,0,1,1.281,1.967,6.779,6.779,0,0,1,.173,1.575,9.675,9.675,0,0,1-.173,1.775,10.869,10.869,0,0,1-1.281,3.446,6.142,6.142,0,0,1-2.068,2.233,2.045,2.045,0,0,1-2.067.154,2.9,2.9,0,0,1-1.28-1.967l-1.185,1.276a3.936,3.936,0,0,0,1.732,2.668,2.778,2.778,0,0,0,2.8-.215,8.314,8.314,0,0,0,2.8-3.019,14.727,14.727,0,0,0,1.732-4.667,13.115,13.115,0,0,0,.233-2.4A9.2,9.2,0,0,0,200.77,178.922Z" fill="#489ddc"/><path d="M208.127,173.678l22.207-12.822c.6-.345,1.083-.1,1.083.548a2.321,2.321,0,0,1-1.083,1.8l-22.207,12.821c-.6.345-1.083.1-1.083-.547A2.321,2.321,0,0,1,208.127,173.678Z" fill="#455a64"/><path d="M208.127,178.4l38.455-22.2c.6-.345,1.083-.1,1.083.548a2.321,2.321,0,0,1-1.083,1.8l-38.455,22.2c-.6.345-1.083.1-1.083-.548A2.321,2.321,0,0,1,208.127,178.4Z" fill="#e0e0e0"/><path d="M267.019,153.748l72.99-42.141a2.4,2.4,0,0,0,1.082-1.875V91.125c0-.69-.485-.97-1.082-.625l-72.99,42.133a2.392,2.392,0,0,0-1.083,1.875v18.615C265.936,153.813,266.421,154.093,267.019,153.748Z" fill="#f0f0f0"/><path d="M273.742,138.91a1.343,1.343,0,0,1,.055-.388,1.552,1.552,0,0,1,.145-.352,1.448,1.448,0,0,1,.209-.288,1.05,1.05,0,0,1,.241-.2.569.569,0,0,1,.242-.081.313.313,0,0,1,.208.047.384.384,0,0,1,.146.184.837.837,0,0,1,.055.325,1.185,1.185,0,0,1-.015.191c-.01.062-.023.121-.038.179s-.032.115-.052.171-.038.109-.058.161L274.46,140a.457.457,0,0,0-.025.057.107.107,0,0,1-.045.051l-.353.2a.023.023,0,0,1-.032,0,.074.074,0,0,1-.012-.046.081.081,0,0,1,0-.029.086.086,0,0,1,.007-.021l.285-.78a.474.474,0,0,1-.208.03.313.313,0,0,1-.175-.074.428.428,0,0,1-.119-.182A.844.844,0,0,1,273.742,138.91Zm.889-.514a.287.287,0,0,0-.019-.113.124.124,0,0,0-.13-.082.2.2,0,0,0-.09.03.4.4,0,0,0-.09.074.582.582,0,0,0-.076.106.548.548,0,0,0-.053.126.459.459,0,0,0-.021.136.265.265,0,0,0,.021.113.135.135,0,0,0,.053.065.115.115,0,0,0,.076.017.2.2,0,0,0,.09-.029.361.361,0,0,0,.09-.074.583.583,0,0,0,.13-.232A.5.5,0,0,0,274.631,138.4Z" fill="#455a64"/><path d="M275.878,136.826a.537.537,0,0,1,.286-.089.278.278,0,0,1,.2.087.5.5,0,0,1,.118.227,1.594,1.594,0,0,1,.045.327c0,.1.005.2.005.3s0,.208-.005.3a2.464,2.464,0,0,1-.045.379,1.648,1.648,0,0,1-.118.364,1.413,1.413,0,0,1-.2.316,1.069,1.069,0,0,1-.286.24.548.548,0,0,1-.288.091.288.288,0,0,1-.2-.087.518.518,0,0,1-.118-.228,1.584,1.584,0,0,1-.045-.327c0-.092-.005-.191-.005-.3s0-.21.005-.31a2.492,2.492,0,0,1,.045-.38,1.677,1.677,0,0,1,.118-.363,1.455,1.455,0,0,1,.2-.317A1.1,1.1,0,0,1,275.878,136.826Zm.236,1.38c.007-.2.007-.388,0-.573a1.019,1.019,0,0,0-.016-.148.253.253,0,0,0-.039-.1.1.1,0,0,0-.071-.043.188.188,0,0,0-.11.033.385.385,0,0,0-.112.1.469.469,0,0,0-.071.125.8.8,0,0,0-.04.148,1.231,1.231,0,0,0-.015.166q-.012.29,0,.573a.9.9,0,0,0,.014.149.229.229,0,0,0,.04.1.1.1,0,0,0,.072.043.2.2,0,0,0,.112-.035.359.359,0,0,0,.11-.094.469.469,0,0,0,.072-.125.644.644,0,0,0,.04-.148A1.1,1.1,0,0,0,276.114,138.206Z" fill="#455a64"/><path d="M277.413,136.442c0,.09,0,.175,0,.26a1.136,1.136,0,0,1-.026.2.893.893,0,0,1-.064.191.747.747,0,0,1-.108.167.569.569,0,0,1-.151.124.307.307,0,0,1-.15.05.146.146,0,0,1-.107-.043.268.268,0,0,1-.064-.117.7.7,0,0,1-.028-.174c0-.043,0-.085,0-.125s0-.085,0-.134a1.172,1.172,0,0,1,.028-.206.9.9,0,0,1,.064-.19.7.7,0,0,1,.107-.166.546.546,0,0,1,.15-.124.31.31,0,0,1,.151-.05.144.144,0,0,1,.106.043.26.26,0,0,1,.065.116A.713.713,0,0,1,277.413,136.442Zm.554-.722a.348.348,0,0,1,.033-.067.127.127,0,0,1,.047-.045l.182-.1a.036.036,0,0,1,.039,0,.048.048,0,0,1,.015.041l0,.019a.086.086,0,0,1-.007.025l-1.1,2.853a.322.322,0,0,1-.032.067.137.137,0,0,1-.048.044l-.181.1c-.017.009-.03.011-.039,0a.048.048,0,0,1-.015-.042l0-.018a.09.09,0,0,1,.007-.024Zm-.994,1.219a.286.286,0,0,0,.024.119c.012.023.035.025.067.006a.142.142,0,0,0,.067-.084.561.561,0,0,0,.025-.146,2.13,2.13,0,0,0,0-.226.309.309,0,0,0-.025-.12c-.012-.022-.034-.024-.067-.005a.146.146,0,0,0-.067.083.542.542,0,0,0-.024.147A1.7,1.7,0,0,0,276.973,136.939Zm1.47.105c0,.088,0,.175,0,.26a1.516,1.516,0,0,1-.026.2.913.913,0,0,1-.065.191.737.737,0,0,1-.107.166.566.566,0,0,1-.151.124.3.3,0,0,1-.151.05.142.142,0,0,1-.107-.043.275.275,0,0,1-.064-.116.716.716,0,0,1-.026-.174c0-.044-.005-.086-.005-.125s0-.085.005-.135a1.147,1.147,0,0,1,.026-.205.953.953,0,0,1,.064-.191.7.7,0,0,1,.107-.165.57.57,0,0,1,.151-.125.3.3,0,0,1,.151-.049.14.14,0,0,1,.106.042.28.28,0,0,1,.065.117A.816.816,0,0,1,278.443,137.044Zm-.44.5a.276.276,0,0,0,.024.12c.012.022.034.024.067,0a.151.151,0,0,0,.068-.083.542.542,0,0,0,.022-.147,1.7,1.7,0,0,0,0-.226.292.292,0,0,0-.022-.119c-.013-.022-.035-.025-.068-.006a.147.147,0,0,0-.067.084.492.492,0,0,0-.024.146A2.13,2.13,0,0,0,278,137.54Z" fill="#455a64"/><path d="M276.1,132.263v-1.915a8.306,8.306,0,0,0-2.8,3.019l.733,1.13A6.146,6.146,0,0,1,276.1,132.263Z" fill="#455a64"/><path d="M280.631,132.8a3.937,3.937,0,0,0-1.732-2.668,2.776,2.776,0,0,0-2.8.215v1.915a2.049,2.049,0,0,1,2.067-.154,2.9,2.9,0,0,1,1.281,1.968,6.772,6.772,0,0,1,.173,1.575,9.672,9.672,0,0,1-.173,1.774,10.844,10.844,0,0,1-1.279,3.442,6.179,6.179,0,0,1-2.069,2.238,2.051,2.051,0,0,1-2.068.154,2.9,2.9,0,0,1-1.28-1.968,6.717,6.717,0,0,1-.174-1.575,9.581,9.581,0,0,1,.174-1.774,10.844,10.844,0,0,1,1.28-3.446l-.733-1.13a14.717,14.717,0,0,0-1.732,4.667,13.1,13.1,0,0,0-.233,2.4,9.206,9.206,0,0,0,.233,2.133,3.936,3.936,0,0,0,1.732,2.667,2.778,2.778,0,0,0,2.8-.215A8.312,8.312,0,0,0,278.9,142v0a14.718,14.718,0,0,0,1.732-4.667,13.107,13.107,0,0,0,.233-2.4A9.193,9.193,0,0,0,280.631,132.8Z" fill="#489ddc"/><path d="M287.969,127.556l22.207-12.821c.6-.345,1.083-.1,1.083.548a2.321,2.321,0,0,1-1.083,1.8L287.969,129.9c-.6.345-1.082.1-1.082-.548A2.32,2.32,0,0,1,287.969,127.556Z" fill="#455a64"/><path d="M287.969,132.283l38.456-22.2c.6-.345,1.082-.1,1.082.548a2.323,2.323,0,0,1-1.082,1.8l-38.456,22.2c-.6.345-1.082.1-1.082-.548A2.323,2.323,0,0,1,287.969,132.283Z" fill="#e0e0e0"/><path d="M195.253,204.586l15.576-9.02c.6-.345,1.082-.1,1.082.548a2.322,2.322,0,0,1-1.082,1.8l-15.577,9.02c-.6.345-1.082.1-1.082-.548A2.321,2.321,0,0,1,195.253,204.586Z" fill="#455a64"/><path d="M340.55,126.524h0m-.458.265V245.755a1.423,1.423,0,0,1-.582,1.009L187.735,334.388V215.422a1.417,1.417,0,0,1,.583-1.009l1.9-1.1a3.4,3.4,0,0,0,1.582-2.741V203.7a1.421,1.421,0,0,1,.583-1.009l21.789-12.576v6.4a1.634,1.634,0,0,0,1.6,1.773,1.959,1.959,0,0,0,.983-.282l123.341-71.207M214.627,189.845h0M340.493,125.53a.986.986,0,0,0-.484.148L216.251,197.13a.986.986,0,0,1-.483.148c-.355,0-.6-.283-.6-.773v-6.881c0-.489-.243-.773-.6-.773a.986.986,0,0,0-.483.148L191.879,201.82A2.4,2.4,0,0,0,190.8,203.7v6.881a2.391,2.391,0,0,1-1.082,1.875l-1.9,1.1a2.392,2.392,0,0,0-1.083,1.875V334.873c0,.49.244.773.6.773a.97.97,0,0,0,.483-.148L340.01,247.63a2.392,2.392,0,0,0,1.082-1.875V126.3c0-.489-.244-.773-.6-.773Z" fill="#e0e0e0"/><path d="M196.521,220.615a1.047,1.047,0,0,1-.531-.139,1.25,1.25,0,0,1-.567-1.134v-4.535a2.907,2.907,0,0,1,1.333-2.308l12.069-6.959a1.151,1.151,0,0,1,1.833,1.058v4.536a2.9,2.9,0,0,1-1.333,2.307l-12.069,6.96A1.487,1.487,0,0,1,196.521,220.615Zm.735-7.25a1.9,1.9,0,0,0-.833,1.442v4.535c0,.172.047.256.068.268s.117.01.265-.075l12.069-6.96a1.9,1.9,0,0,0,.833-1.441V206.6c0-.171-.046-.255-.067-.267s-.117-.01-.266.075Z" fill="#e0e0e0"/><path d="M197.973,215.233l7.866-4.565c.4-.23.721-.066.721.365a1.547,1.547,0,0,1-.721,1.2l-7.867,4.565c-.4.23-.721.067-.721-.365A1.545,1.545,0,0,1,197.973,215.233Z" fill="#e0e0e0"/><path d="M207.668,209.921l.652.925c.025.036.074.007.1-.057l.652-1.678c.031-.081,0-.156-.049-.126l-1.3.753A.158.158,0,0,0,207.668,209.921Z" fill="#455a64"/><path d="M194.859,264.561c.576-.333,1.044-.063,1.044.6a2.31,2.31,0,0,1-1.044,1.808c-.577.333-1.044.063-1.044-.6A2.306,2.306,0,0,1,194.859,264.561Z" fill="#489ddc"/><path d="M202.983,255.18c.576-.333,1.044-.063,1.044.6a2.309,2.309,0,0,1-1.044,1.808c-.577.333-1.044.063-1.044-.6A2.307,2.307,0,0,1,202.983,255.18Z" fill="#489ddc"/><path d="M211.107,250.49c.576-.333,1.043-.063,1.043.6a2.306,2.306,0,0,1-1.043,1.808c-.577.333-1.044.063-1.044-.6A2.306,2.306,0,0,1,211.107,250.49Z" fill="#489ddc"/><path d="M219.231,247.859c.576-.333,1.044-.063,1.044.6a2.309,2.309,0,0,1-1.044,1.808c-.577.333-1.044.063-1.044-.6A2.307,2.307,0,0,1,219.231,247.859Z" fill="#489ddc"/><path d="M227.364,239.413c.577-.333,1.044-.063,1.044.6a2.3,2.3,0,0,1-1.044,1.808c-.576.333-1.044.063-1.044-.6A2.309,2.309,0,0,1,227.364,239.413Z" fill="#489ddc"/><path d="M235.479,236.418c.577-.332,1.044-.063,1.044.6a2.306,2.306,0,0,1-1.044,1.808c-.576.333-1.044.063-1.044-.6A2.31,2.31,0,0,1,235.479,236.418Z" fill="#489ddc"/><path d="M243.6,227.037c.576-.333,1.044-.063,1.044.6a2.307,2.307,0,0,1-1.044,1.808c-.577.332-1.044.063-1.044-.6A2.306,2.306,0,0,1,243.6,227.037Z" fill="#489ddc"/><path d="M251.727,224.692c.577-.332,1.044-.063,1.044.6a2.306,2.306,0,0,1-1.044,1.808c-.576.333-1.044.063-1.044-.6A2.31,2.31,0,0,1,251.727,224.692Z" fill="#489ddc"/><path d="M259.851,198.9c.577-.333,1.044-.063,1.044.6a2.307,2.307,0,0,1-1.044,1.808c-.576.332-1.044.063-1.044-.6A2.308,2.308,0,0,1,259.851,198.9Z" fill="#489ddc"/><path d="M267.975,212.966c.577-.333,1.044-.063,1.044.6a2.306,2.306,0,0,1-1.044,1.808c-.576.333-1.043.063-1.043-.6A2.307,2.307,0,0,1,267.975,212.966Z" fill="#489ddc"/><path d="M276.1,212.966c.577-.333,1.044-.063,1.044.6a2.306,2.306,0,0,1-1.044,1.808c-.576.333-1.043.063-1.043-.6A2.307,2.307,0,0,1,276.1,212.966Z" fill="#489ddc"/><path d="M284.223,212.966c.577-.332,1.044-.063,1.044.6a2.306,2.306,0,0,1-1.044,1.808c-.576.333-1.043.063-1.043-.6A2.309,2.309,0,0,1,284.223,212.966Z" fill="#489ddc"/><path d="M292.347,198.9c.577-.333,1.044-.063,1.044.6a2.307,2.307,0,0,1-1.044,1.808c-.576.333-1.044.063-1.044-.6A2.309,2.309,0,0,1,292.347,198.9Z" fill="#489ddc"/><path d="M300.471,196.2c.577-.332,1.044-.063,1.044.6a2.306,2.306,0,0,1-1.044,1.808c-.576.333-1.044.063-1.044-.6A2.31,2.31,0,0,1,300.471,196.2Z" fill="#489ddc"/><path d="M308.624,184.824c.576-.333,1.044-.063,1.044.6a2.308,2.308,0,0,1-1.044,1.808c-.577.333-1.044.063-1.044-.6A2.3,2.3,0,0,1,308.624,184.824Z" fill="#489ddc"/><ellipse cx="1.476" cy="0.852" rx="1.476" ry="0.852" transform="translate(315.244 186.881) rotate(-60.003)" fill="#489ddc"/><ellipse cx="1.476" cy="0.852" rx="1.476" ry="0.852" transform="translate(323.368 186.881) rotate(-60.003)" fill="#489ddc"/><path d="M332.968,180.133c.576-.332,1.044-.063,1.044.6a2.309,2.309,0,0,1-1.044,1.808c-.577.333-1.044.063-1.044-.6A2.307,2.307,0,0,1,332.968,180.133Z" fill="#489ddc"/><path d="M194.837,266.029a.251.251,0,0,1-.188-.415l8.2-9.426a.235.235,0,0,1,.064-.053l8.065-4.656,8.112-2.633,8.08-8.4a.263.263,0,0,1,.094-.061l8.065-2.971,8.083-9.334a.25.25,0,0,1,.12-.076l7.994-2.308,8.084-25.668a.249.249,0,0,1,.211-.174.257.257,0,0,1,.244.124l8.051,13.946,8-.012,7.96.012,8.051-13.947a.258.258,0,0,1,.138-.112l8.047-2.67,8.077-11.31a.25.25,0,0,1,.2-.1h16.181l8.067-4.657a.25.25,0,1,1,.25.433l-8.125,4.691a.249.249,0,0,1-.125.033H308.724l-8.05,11.271a.248.248,0,0,1-.124.092l-8.034,2.666L284.44,214.3a.252.252,0,0,1-.217.125h0l-8.1-.012-8.145.012h0a.252.252,0,0,1-.217-.125l-7.838-13.579-7.954,25.255a.252.252,0,0,1-.168.165l-8.052,2.324-8.077,9.326a.269.269,0,0,1-.1.071l-8.07,2.974-8.084,8.405a.252.252,0,0,1-.1.064l-8.124,2.631-7.981,4.614-8.176,9.4A.254.254,0,0,1,194.837,266.029Z" fill="#489ddc"/><path d="M194.859,270.957a.5.5,0,0,1-.251-.933l138.11-79.737a.5.5,0,0,1,.5.866L195.108,270.89A.5.5,0,0,1,194.859,270.957Z" fill="#e0e0e0"/><path d="M194.859,259.871c.576-.333,1.044-.064,1.044.6a2.309,2.309,0,0,1-1.044,1.808c-.577.333-1.044.063-1.044-.6A2.3,2.3,0,0,1,194.859,259.871Z" fill="#27debf"/><path d="M202.982,245.8c.577-.333,1.044-.063,1.044.6a2.308,2.308,0,0,1-1.043,1.808c-.577.333-1.044.063-1.044-.6A2.308,2.308,0,0,1,202.982,245.8Z" fill="#27debf"/><ellipse cx="1.476" cy="0.852" rx="1.476" ry="0.852" transform="translate(209.631 246.101) rotate(-60.003)" fill="#27debf"/><path d="M219.23,227.037c.577-.333,1.044-.063,1.044.6a2.309,2.309,0,0,1-1.043,1.808c-.577.332-1.044.063-1.044-.6A2.307,2.307,0,0,1,219.23,227.037Z" fill="#489ddc"/><path d="M227.364,231.728c.577-.333,1.044-.063,1.044.6a2.306,2.306,0,0,1-1.044,1.808c-.576.333-1.044.063-1.044-.6A2.309,2.309,0,0,1,227.364,231.728Z" fill="#27debf"/><path d="M235.48,229.383c.577-.333,1.044-.063,1.044.6a2.307,2.307,0,0,1-1.044,1.808c-.576.332-1.043.063-1.043-.6A2.308,2.308,0,0,1,235.48,229.383Z" fill="#27debf"/><path d="M243.6,222.347c.576-.333,1.044-.063,1.044.6a2.307,2.307,0,0,1-1.044,1.808c-.577.333-1.044.063-1.044-.6A2.306,2.306,0,0,1,243.6,222.347Z" fill="#27debf"/><path d="M251.727,212.966c.576-.333,1.044-.063,1.044.6a2.309,2.309,0,0,1-1.044,1.808c-.577.333-1.044.063-1.044-.6A2.306,2.306,0,0,1,251.727,212.966Z" fill="#27debf"/><path d="M259.851,210.621c.577-.333,1.044-.063,1.044.6a2.306,2.306,0,0,1-1.044,1.808c-.576.333-1.044.063-1.044-.6A2.308,2.308,0,0,1,259.851,210.621Z" fill="#27debf"/><path d="M267.975,203.585c.576-.332,1.044-.063,1.044.6A2.309,2.309,0,0,1,267.975,206c-.577.333-1.044.063-1.044-.6A2.307,2.307,0,0,1,267.975,203.585Z" fill="#27debf"/><path d="M276.1,203.586c.576-.333,1.044-.063,1.044.6A2.309,2.309,0,0,1,276.1,206c-.577.333-1.044.063-1.044-.6A2.3,2.3,0,0,1,276.1,203.586Z" fill="#27debf"/><path d="M284.223,184.824c.577-.333,1.044-.063,1.044.6a2.3,2.3,0,0,1-1.044,1.808c-.576.333-1.043.063-1.043-.6A2.307,2.307,0,0,1,284.223,184.824Z" fill="#27debf"/><path d="M292.347,194.138c.577-.333,1.044-.063,1.044.6a2.307,2.307,0,0,1-1.044,1.808c-.576.332-1.043.063-1.043-.6A2.307,2.307,0,0,1,292.347,194.138Z" fill="#27debf"/><path d="M300.471,184.824c.577-.333,1.044-.063,1.044.6a2.308,2.308,0,0,1-1.044,1.809c-.576.332-1.044.062-1.044-.6A2.308,2.308,0,0,1,300.471,184.824Z" fill="#27debf"/><path d="M308.6,180.133c.577-.332,1.044-.063,1.044.6a2.306,2.306,0,0,1-1.044,1.808c-.576.333-1.044.063-1.044-.6A2.31,2.31,0,0,1,308.6,180.133Z" fill="#27debf"/><path d="M316.719,180.133c.577-.333,1.044-.063,1.044.6a2.307,2.307,0,0,1-1.044,1.808c-.576.333-1.044.063-1.044-.6A2.309,2.309,0,0,1,316.719,180.133Z" fill="#27debf"/><path d="M324.844,175.443c.576-.333,1.044-.063,1.044.6a2.307,2.307,0,0,1-1.044,1.808c-.577.333-1.044.063-1.044-.6A2.306,2.306,0,0,1,324.844,175.443Z" fill="#27debf"/><path d="M332.968,175.443c.576-.333,1.044-.063,1.044.6a2.307,2.307,0,0,1-1.044,1.808c-.577.333-1.044.063-1.044-.6A2.306,2.306,0,0,1,332.968,175.443Z" fill="#27debf"/><path d="M194.859,261.326a.235.235,0,0,1-.125-.034.249.249,0,0,1-.091-.341l8.182-14.1a.245.245,0,0,1,.164-.119l7.945-1.7,8.071-16.9a.25.25,0,0,1,.35-.109l8.042,4.643,7.96-2.306,8.071-6.993,8.11-9.362a.244.244,0,0,1,.119-.077l8.072-2.33,8.082-7a.249.249,0,0,1,.164-.061h7.96l8.059-18.611a.249.249,0,0,1,.191-.148.254.254,0,0,1,.228.083l7.934,9.163,7.935-9.163a.228.228,0,0,1,.064-.052l8.153-4.707a.25.25,0,0,1,.125-.034h8.056l8.038-4.64a.25.25,0,0,1,.125-.034h8.125a.25.25,0,0,1,0,.5h-8.057l-8.038,4.64a.25.25,0,0,1-.125.034h-8.057l-8.059,4.652-8.1,9.349a.259.259,0,0,1-.379,0l-7.863-9.08-7.966,18.4a.25.25,0,0,1-.23.151h-8.031l-8.053,6.974a.255.255,0,0,1-.094.052l-8.054,2.324-8.086,9.331-8.138,7.055a.237.237,0,0,1-.1.051l-8.115,2.351a.253.253,0,0,1-.194-.024l-7.9-4.561-8.007,16.763a.253.253,0,0,1-.174.136l-7.958,1.7L195.075,261.2A.249.249,0,0,1,194.859,261.326Z" fill="#489ddc"/><path d="M194.859,259.871c.576-.333,1.044-.064,1.044.6a2.309,2.309,0,0,1-1.044,1.808c-.577.333-1.044.063-1.044-.6A2.3,2.3,0,0,1,194.859,259.871Z" fill="#326d98"/><path d="M202.982,245.8c.577-.333,1.044-.063,1.044.6a2.308,2.308,0,0,1-1.043,1.808c-.577.333-1.044.063-1.044-.6A2.308,2.308,0,0,1,202.982,245.8Z" fill="#326d98"/><ellipse cx="1.476" cy="0.852" rx="1.476" ry="0.852" transform="translate(209.631 246.101) rotate(-60.003)" fill="#326d98"/><path d="M219.23,227.037c.577-.333,1.044-.063,1.044.6a2.309,2.309,0,0,1-1.043,1.808c-.577.332-1.044.063-1.044-.6A2.307,2.307,0,0,1,219.23,227.037Z" fill="#326d98"/><path d="M227.364,231.728c.577-.333,1.044-.063,1.044.6a2.306,2.306,0,0,1-1.044,1.808c-.576.333-1.044.063-1.044-.6A2.309,2.309,0,0,1,227.364,231.728Z" fill="#326d98"/><path d="M235.48,229.383c.577-.333,1.044-.063,1.044.6a2.307,2.307,0,0,1-1.044,1.808c-.576.332-1.043.063-1.043-.6A2.308,2.308,0,0,1,235.48,229.383Z" fill="#326d98"/><path d="M243.6,222.347c.576-.333,1.044-.063,1.044.6a2.307,2.307,0,0,1-1.044,1.808c-.577.333-1.044.063-1.044-.6A2.306,2.306,0,0,1,243.6,222.347Z" fill="#326d98"/><path d="M251.727,212.966c.576-.333,1.044-.063,1.044.6a2.309,2.309,0,0,1-1.044,1.808c-.577.333-1.044.063-1.044-.6A2.306,2.306,0,0,1,251.727,212.966Z" fill="#326d98"/><path d="M259.851,210.621c.577-.333,1.044-.063,1.044.6a2.306,2.306,0,0,1-1.044,1.808c-.576.333-1.044.063-1.044-.6A2.308,2.308,0,0,1,259.851,210.621Z" fill="#326d98"/><path d="M267.975,203.585c.576-.332,1.044-.063,1.044.6A2.309,2.309,0,0,1,267.975,206c-.577.333-1.044.063-1.044-.6A2.307,2.307,0,0,1,267.975,203.585Z" fill="#326d98"/><path d="M276.1,203.586c.576-.333,1.044-.063,1.044.6A2.309,2.309,0,0,1,276.1,206c-.577.333-1.044.063-1.044-.6A2.3,2.3,0,0,1,276.1,203.586Z" fill="#326d98"/><path d="M284.223,184.824c.577-.333,1.044-.063,1.044.6a2.3,2.3,0,0,1-1.044,1.808c-.576.333-1.043.063-1.043-.6A2.307,2.307,0,0,1,284.223,184.824Z" fill="#326d98"/><path d="M292.347,194.138c.577-.333,1.044-.063,1.044.6a2.307,2.307,0,0,1-1.044,1.808c-.576.332-1.043.063-1.043-.6A2.307,2.307,0,0,1,292.347,194.138Z" fill="#326d98"/><path d="M300.471,184.824c.577-.333,1.044-.063,1.044.6a2.308,2.308,0,0,1-1.044,1.809c-.576.332-1.044.062-1.044-.6A2.308,2.308,0,0,1,300.471,184.824Z" fill="#326d98"/><path d="M308.6,180.133c.577-.332,1.044-.063,1.044.6a2.306,2.306,0,0,1-1.044,1.808c-.576.333-1.044.063-1.044-.6A2.31,2.31,0,0,1,308.6,180.133Z" fill="#326d98"/><path d="M316.719,180.133c.577-.333,1.044-.063,1.044.6a2.307,2.307,0,0,1-1.044,1.808c-.576.333-1.044.063-1.044-.6A2.309,2.309,0,0,1,316.719,180.133Z" fill="#326d98"/><path d="M324.844,175.443c.576-.333,1.044-.063,1.044.6a2.307,2.307,0,0,1-1.044,1.808c-.577.333-1.044.063-1.044-.6A2.306,2.306,0,0,1,324.844,175.443Z" fill="#326d98"/><path d="M332.968,175.443c.576-.333,1.044-.063,1.044.6a2.307,2.307,0,0,1-1.044,1.808c-.577.333-1.044.063-1.044-.6A2.306,2.306,0,0,1,332.968,175.443Z" fill="#326d98"/><path d="M194.859,261.326a.235.235,0,0,1-.125-.034.249.249,0,0,1-.091-.341l8.182-14.1a.245.245,0,0,1,.164-.119l7.945-1.7,8.071-16.9a.25.25,0,0,1,.35-.109l8.042,4.643,7.96-2.306,8.071-6.993,8.11-9.362a.244.244,0,0,1,.119-.077l8.072-2.33,8.082-7a.249.249,0,0,1,.164-.061h7.96l8.059-18.611a.249.249,0,0,1,.191-.148.254.254,0,0,1,.228.083l7.934,9.163,7.935-9.163a.228.228,0,0,1,.064-.052l8.153-4.707a.25.25,0,0,1,.125-.034h8.056l8.038-4.64a.25.25,0,0,1,.125-.034h8.125a.25.25,0,0,1,0,.5h-8.057l-8.038,4.64a.25.25,0,0,1-.125.034h-8.057l-8.059,4.652-8.1,9.349a.259.259,0,0,1-.379,0l-7.863-9.08-7.966,18.4a.25.25,0,0,1-.23.151h-8.031l-8.053,6.974a.255.255,0,0,1-.094.052l-8.054,2.324-8.086,9.331-8.138,7.055a.237.237,0,0,1-.1.051l-8.115,2.351a.253.253,0,0,1-.194-.024l-7.9-4.561-8.007,16.763a.253.253,0,0,1-.174.136l-7.958,1.7L195.075,261.2A.249.249,0,0,1,194.859,261.326Z" fill="#326d98"/><path d="M199.114,225.066l7.866-4.565c.4-.23.722-.066.722.365a1.545,1.545,0,0,1-.722,1.2l-7.866,4.565c-.4.23-.721.067-.721-.365A1.549,1.549,0,0,1,199.114,225.066Z" fill="#e0e0e0"/><path d="M194.859,227.038c.576-.333,1.043-.063,1.043.6a2.306,2.306,0,0,1-1.043,1.808c-.577.333-1.044.063-1.044-.6A2.306,2.306,0,0,1,194.859,227.038Z" fill="#489ddc"/><path d="M194.859,227.038c.576-.333,1.043-.063,1.043.6a2.306,2.306,0,0,1-1.043,1.808c-.577.333-1.044.063-1.044-.6A2.306,2.306,0,0,1,194.859,227.038Z" opacity="0.3"/><path d="M199.114,229.744l7.866-4.565c.4-.23.722-.066.722.365a1.545,1.545,0,0,1-.722,1.2l-7.866,4.565c-.4.23-.721.066-.721-.365A1.547,1.547,0,0,1,199.114,229.744Z" fill="#e0e0e0"/><path d="M194.859,231.728c.576-.333,1.043-.063,1.043.6a2.309,2.309,0,0,1-1.043,1.808c-.577.332-1.044.063-1.044-.6A2.306,2.306,0,0,1,194.859,231.728Z" fill="#489ddc"/><path d="M194.859,294.227a.25.25,0,0,1-.18-.424l4.123-4.239,4.047-.513,4.086-5.28,4.091.561L215,280.743l4.057-2.432,4.137-5.734,4.108,1.288,3.948-3.527a.25.25,0,0,1,.334.373l-4.161,3.717-4.034-1.265-4.031,5.551-4.062,2.43-4.109,3.716-4.034-.554-4.037,5.216-4.078.516-4,4.113A.255.255,0,0,1,194.859,294.227Z" fill="#489ddc"/><path d="M196.465,280.509a1.177,1.177,0,0,1,.1-.091.908.908,0,0,1,.11-.077,1.186,1.186,0,0,1,.615-.186.746.746,0,0,1,.488.185,1.181,1.181,0,0,1,.32.515,2.48,2.48,0,0,1,.116.8,3.886,3.886,0,0,1-.116.935,4.359,4.359,0,0,1-.32.886,3.674,3.674,0,0,1-.488.749,2.359,2.359,0,0,1-.615.524,1.186,1.186,0,0,1-.616.186.747.747,0,0,1-.487-.186,1.178,1.178,0,0,1-.321-.514,2.445,2.445,0,0,1-.116-.8,3.49,3.49,0,0,1,.038-.516,4.68,4.68,0,0,1,.1-.488c.042-.159.088-.315.14-.466s.1-.3.154-.436l1.082-3.079c.019-.041.042-.091.065-.152a.282.282,0,0,1,.118-.137l.34-.2a.06.06,0,0,1,.086.01.186.186,0,0,1,.034.123.3.3,0,0,1-.01.078.354.354,0,0,1-.021.058Zm-.761,2.6a1.558,1.558,0,0,0,.068.482.79.79,0,0,0,.193.328.467.467,0,0,0,.306.13.746.746,0,0,0,.408-.121,1.5,1.5,0,0,0,.407-.349,2.279,2.279,0,0,0,.306-.484,2.836,2.836,0,0,0,.194-.551,2.419,2.419,0,0,0,.067-.56,1.57,1.57,0,0,0-.067-.483.8.8,0,0,0-.194-.328.458.458,0,0,0-.306-.129.743.743,0,0,0-.407.12,1.524,1.524,0,0,0-.408.35,2.311,2.311,0,0,0-.306.483,2.856,2.856,0,0,0-.193.551A2.45,2.45,0,0,0,195.7,283.109Z" fill="#455a64"/><path d="M199.229,281.642a1.208,1.208,0,0,0,.083.244.332.332,0,0,0,.16.168.48.48,0,0,0,.283.025,1.465,1.465,0,0,0,.455-.189,1.689,1.689,0,0,0,.35-.272,1.762,1.762,0,0,0,.292-.382,2.11,2.11,0,0,0,.2-.477,2,2,0,0,0,.075-.56,1.194,1.194,0,0,0-.071-.458.393.393,0,0,0-.194-.217.455.455,0,0,0-.288-.013,1.5,1.5,0,0,0-.362.154l-.494.285a.085.085,0,0,1-.113-.007.2.2,0,0,1-.048-.147v-.328a.48.48,0,0,1,.033-.171c.022-.058.043-.111.063-.16l1.069-2.394-1.711.989a.086.086,0,0,1-.113-.008.2.2,0,0,1-.048-.147v-.328a.471.471,0,0,1,.048-.2.3.3,0,0,1,.113-.139l2.342-1.352a.087.087,0,0,1,.114.008.2.2,0,0,1,.046.146v.329a.589.589,0,0,1-.029.178,1.522,1.522,0,0,1-.078.2l-1.052,2.356a1.255,1.255,0,0,1,.544-.172.613.613,0,0,1,.422.131.919.919,0,0,1,.273.427,2.226,2.226,0,0,1,.1.717,3.456,3.456,0,0,1-.119.907,3.761,3.761,0,0,1-.318.806,3.358,3.358,0,0,1-.469.66,2.47,2.47,0,0,1-.574.469,1.766,1.766,0,0,1-.687.254.71.71,0,0,1-.475-.1.75.75,0,0,1-.28-.36,1.565,1.565,0,0,1-.1-.533.368.368,0,0,1,.04-.165.232.232,0,0,1,.092-.112l.273-.159c.044-.025.079-.025.1,0A.183.183,0,0,1,199.229,281.642Z" fill="#455a64"/><path d="M202.765,279.6a1.318,1.318,0,0,0,.083.246.346.346,0,0,0,.161.168.466.466,0,0,0,.283.023,1.394,1.394,0,0,0,.455-.189,1.675,1.675,0,0,0,.35-.27,1.782,1.782,0,0,0,.291-.383,2.143,2.143,0,0,0,.2-.476,2.006,2.006,0,0,0,.075-.56,1.181,1.181,0,0,0-.072-.459.388.388,0,0,0-.193-.217.448.448,0,0,0-.288-.012,1.371,1.371,0,0,0-.362.154l-.494.285a.087.087,0,0,1-.113-.008.194.194,0,0,1-.048-.146v-.33a.463.463,0,0,1,.034-.17c.021-.058.042-.111.062-.16l1.069-2.393-1.711.989a.09.09,0,0,1-.114-.008.2.2,0,0,1-.047-.147v-.33a.483.483,0,0,1,.047-.2.321.321,0,0,1,.114-.139l2.341-1.351a.086.086,0,0,1,.114.008.2.2,0,0,1,.047.146V274a.606.606,0,0,1-.029.177,1.545,1.545,0,0,1-.078.2l-1.052,2.356a1.241,1.241,0,0,1,.543-.173.611.611,0,0,1,.423.132.9.9,0,0,1,.273.427,2.222,2.222,0,0,1,.1.717,3.473,3.473,0,0,1-.119.907,3.762,3.762,0,0,1-.318.8,3.219,3.219,0,0,1-.47.659,2.4,2.4,0,0,1-.573.469,1.718,1.718,0,0,1-.687.254.711.711,0,0,1-.476-.1.763.763,0,0,1-.28-.36,1.552,1.552,0,0,1-.1-.533.366.366,0,0,1,.039-.165.249.249,0,0,1,.091-.113l.274-.158c.044-.025.079-.024.1,0A.192.192,0,0,1,202.765,279.6Z" fill="#455a64"/><path d="M195.594,297.456l35.1-20.342c.4-.23.721-.067.721.365a1.549,1.549,0,0,1-.721,1.2l-35.1,20.342c-.4.229-.721.066-.721-.365A1.545,1.545,0,0,1,195.594,297.456Z" fill="#e0e0e0"/><path d="M195.594,273.991l7.866-4.565c.4-.23.721-.067.721.365a1.549,1.549,0,0,1-.721,1.2l-7.867,4.565c-.4.23-.721.066-.721-.365A1.545,1.545,0,0,1,195.594,273.991Z" fill="#e0e0e0"/><path d="M194.859,322.345a.249.249,0,0,1-.174-.07.252.252,0,0,1-.006-.354l4.123-4.239,4.074-.516,4.1-3.586,3.954-1.078,4.123-8.208,4.135,2.025,3.987-3.514.068-.014,3.959-.751,4-6.911a.25.25,0,1,1,.433.25l-4.111,7.11-4.116.781-4.136,3.644-3.99-1.954-4,7.966-4.114,1.121-4.077,3.6-4.051.514-4,4.112A.251.251,0,0,1,194.859,322.345Z" fill="#489ddc"/><g opacity="0.3"><path d="M194.859,322.345a.249.249,0,0,1-.174-.07.252.252,0,0,1-.006-.354l4.123-4.239,4.074-.516,4.1-3.586,3.954-1.078,4.123-8.208,4.135,2.025,3.987-3.514.068-.014,3.959-.751,4-6.911a.25.25,0,1,1,.433.25l-4.111,7.11-4.116.781-4.136,3.644-3.99-1.954-4,7.966-4.114,1.121-4.077,3.6-4.051.514-4,4.112A.251.251,0,0,1,194.859,322.345Z"/></g><path d="M196.934,312.384a.461.461,0,0,1-.047.2.3.3,0,0,1-.113.139l-.244.14a.086.086,0,0,1-.113-.007.2.2,0,0,1-.047-.147v-5.043l-.963,1.682a.228.228,0,0,1-.119.124.093.093,0,0,1-.108-.03l-.141-.2a.235.235,0,0,1-.033-.165.482.482,0,0,1,.062-.2l1.272-2.236a.411.411,0,0,1,.1-.119.925.925,0,0,1,.1-.064l.244-.14a.086.086,0,0,1,.113.007.2.2,0,0,1,.047.147Z" fill="#455a64"/><path d="M199.532,307.764a3.758,3.758,0,0,0,.267-.658,2.58,2.58,0,0,0,.089-.719,1.088,1.088,0,0,0-.184-.7c-.122-.145-.317-.141-.582.013a1.3,1.3,0,0,0-.354.294,1.836,1.836,0,0,0-.244.393,2.6,2.6,0,0,0-.154.456c-.037.158-.069.319-.093.479a.557.557,0,0,1-.062.191.272.272,0,0,1-.091.107l-.275.159a.072.072,0,0,1-.092-.006.168.168,0,0,1-.038-.12,3.431,3.431,0,0,1,.1-.745,4.12,4.12,0,0,1,.273-.789,3.7,3.7,0,0,1,.437-.719,2.062,2.062,0,0,1,.592-.525,1.09,1.09,0,0,1,.576-.177.6.6,0,0,1,.416.181,1.077,1.077,0,0,1,.253.476,2.655,2.655,0,0,1,.087.711,4.681,4.681,0,0,1-.031.547,3.334,3.334,0,0,1-.1.509,4.675,4.675,0,0,1-.176.519q-.106.263-.262.562l-1.325,2.669,1.818-1.049a.087.087,0,0,1,.114.007.2.2,0,0,1,.048.147v.329a.474.474,0,0,1-.048.2.31.31,0,0,1-.114.139l-2.561,1.478a.083.083,0,0,1-.112-.007.192.192,0,0,1-.049-.147v-.328a.581.581,0,0,1,.031-.192,1.8,1.8,0,0,1,.1-.233Z" fill="#455a64"/><path d="M204.234,304.445q.006.408.006.77c0,.241,0,.5-.006.777a6.182,6.182,0,0,1-.1,1.049,4.507,4.507,0,0,1-.275.959,3.276,3.276,0,0,1-.467.8,2.34,2.34,0,0,1-.675.582,1.154,1.154,0,0,1-.674.2.655.655,0,0,1-.466-.261,1.561,1.561,0,0,1-.277-.641,4.477,4.477,0,0,1-.1-.936c0-.273-.006-.529-.006-.77s0-.5.006-.777a6.3,6.3,0,0,1,.1-1.05,4.535,4.535,0,0,1,.277-.96,3.355,3.355,0,0,1,.466-.8,2.339,2.339,0,0,1,.674-.588,1.125,1.125,0,0,1,.675-.191.678.678,0,0,1,.467.265,1.56,1.56,0,0,1,.275.641A4.4,4.4,0,0,1,204.234,304.445Zm-2.473,2.975a1.874,1.874,0,0,0,.253,1.135c.16.182.4.183.7,0a1.683,1.683,0,0,0,.705-.818,3.7,3.7,0,0,0,.252-1.426c0-.278.006-.536.006-.778s0-.5-.006-.769a1.891,1.891,0,0,0-.252-1.141c-.161-.184-.4-.187-.705-.01a1.693,1.693,0,0,0-.7.824,3.745,3.745,0,0,0-.253,1.432c0,.276-.005.535-.005.777S201.757,307.147,201.761,307.42Z" fill="#455a64"/><path d="M195.594,325.573l35.1-20.341c.4-.23.721-.067.721.365a1.549,1.549,0,0,1-.721,1.2l-35.1,20.341c-.4.23-.721.067-.721-.365A1.547,1.547,0,0,1,195.594,325.573Z" fill="#e0e0e0"/><path d="M195.594,302.109l7.866-4.565c.4-.23.721-.067.721.365a1.549,1.549,0,0,1-.721,1.2l-7.867,4.565c-.4.229-.721.066-.721-.366A1.545,1.545,0,0,1,195.594,302.109Z" fill="#e0e0e0"/><path d="M243.6,266.027a.25.25,0,0,1-.156-.446l4.062-3.241,4.091-4.674,4.153-.6,3.962-.895,4.1-4.844,4.037.714,4.048-6.411,4.114.066,3.98-3.557a.25.25,0,0,1,.334.373L276.2,246.2l-4.029-.066-4.077,6.458-4.086-.722-4.023,4.752-4.145.935-3.989.579-4,4.565-4.1,3.272A.248.248,0,0,1,243.6,266.027Z" fill="#27debf"/><path d="M245.21,252.309a1.023,1.023,0,0,1,.1-.091.808.808,0,0,1,.11-.077,1.176,1.176,0,0,1,.615-.186.746.746,0,0,1,.488.185,1.183,1.183,0,0,1,.32.514,2.488,2.488,0,0,1,.116.8,3.894,3.894,0,0,1-.116.936,4.38,4.38,0,0,1-.32.886,3.674,3.674,0,0,1-.488.749,2.378,2.378,0,0,1-.615.524,1.2,1.2,0,0,1-.616.186.749.749,0,0,1-.487-.186,1.176,1.176,0,0,1-.321-.515,2.461,2.461,0,0,1-.116-.8,3.36,3.36,0,0,1,.039-.516,4.44,4.44,0,0,1,.1-.488c.042-.159.088-.315.14-.466s.1-.3.154-.437l1.082-3.078c.02-.041.042-.092.066-.152a.268.268,0,0,1,.118-.137l.34-.195a.058.058,0,0,1,.085.01.186.186,0,0,1,.034.123.3.3,0,0,1-.01.078.341.341,0,0,1-.021.057Zm-.762,2.6a1.559,1.559,0,0,0,.068.483.8.8,0,0,0,.194.328.464.464,0,0,0,.3.13.746.746,0,0,0,.408-.121,1.5,1.5,0,0,0,.407-.349,2.3,2.3,0,0,0,.306-.484,2.861,2.861,0,0,0,.194-.551,2.428,2.428,0,0,0,.067-.561,1.568,1.568,0,0,0-.067-.482.791.791,0,0,0-.194-.328.459.459,0,0,0-.306-.129.743.743,0,0,0-.407.12,1.524,1.524,0,0,0-.408.35,2.283,2.283,0,0,0-.3.483,2.858,2.858,0,0,0-.194.551A2.447,2.447,0,0,0,244.448,254.908Z" fill="#455a64"/><path d="M249.328,250.838a3.815,3.815,0,0,0,.268-.658,2.612,2.612,0,0,0,.089-.719,1.1,1.1,0,0,0-.184-.705c-.123-.144-.318-.141-.583.013a1.323,1.323,0,0,0-.354.295,1.728,1.728,0,0,0-.243.392,2.523,2.523,0,0,0-.155.456c-.038.158-.069.319-.092.479a.572.572,0,0,1-.062.191.286.286,0,0,1-.093.108l-.273.158a.073.073,0,0,1-.093-.006.164.164,0,0,1-.038-.12,3.494,3.494,0,0,1,.1-.745,4.157,4.157,0,0,1,.273-.788,3.663,3.663,0,0,1,.438-.72,2.042,2.042,0,0,1,.591-.524,1.093,1.093,0,0,1,.577-.178.6.6,0,0,1,.416.182,1.087,1.087,0,0,1,.253.475,2.658,2.658,0,0,1,.086.711,4.686,4.686,0,0,1-.03.547,3.5,3.5,0,0,1-.1.51,4.281,4.281,0,0,1-.176.518c-.071.175-.158.363-.261.562l-1.325,2.67,1.817-1.05a.087.087,0,0,1,.115.008.2.2,0,0,1,.046.146v.329a.468.468,0,0,1-.046.2.3.3,0,0,1-.115.139l-2.561,1.479a.086.086,0,0,1-.113-.008.194.194,0,0,1-.047-.147v-.328a.571.571,0,0,1,.03-.191,1.745,1.745,0,0,1,.1-.234Z" fill="#455a64"/><path d="M253.371,245.465a.088.088,0,0,1,.113.008.2.2,0,0,1,.047.146v.33a1.057,1.057,0,0,1-.018.184c-.011.068-.027.141-.047.22l-1.32,6.007a1.556,1.556,0,0,1-.061.186.265.265,0,0,1-.112.132l-.273.158a.075.075,0,0,1-.1-.006.177.177,0,0,1-.042-.131c0-.011,0-.027,0-.042a.638.638,0,0,1,.016-.079l1.325-6.018-1.949,1.126a.088.088,0,0,1-.114-.008.2.2,0,0,1-.047-.146V247.2a.471.471,0,0,1,.047-.2.306.306,0,0,1,.114-.138Z" fill="#455a64"/><path d="M244.338,269.255l35.1-20.342c.4-.23.722-.066.722.365a1.545,1.545,0,0,1-.722,1.2l-35.1,20.342c-.4.23-.721.067-.721-.365A1.549,1.549,0,0,1,244.338,269.255Z" fill="#e0e0e0"/><path d="M244.338,245.79l7.866-4.564c.4-.23.722-.067.722.365a1.544,1.544,0,0,1-.722,1.2l-7.866,4.565c-.4.23-.721.067-.721-.365A1.549,1.549,0,0,1,244.338,245.79Z" fill="#e0e0e0"/><path d="M243.6,294.145a.25.25,0,0,1-.214-.38l4.153-6.81,4.174.773,3.93-1.074,4.065-4.959,4.038-1.018,4.105-7.315,4.2,1.218,3.945-.748,4-3.561a.247.247,0,0,1,.352.02.25.25,0,0,1-.02.353l-4.105,3.653-.067.014-4.131.783-3.929-1.141-4.017,7.156-4.087,1.032-4.061,4.952-.076.021-4.117,1.125-.057-.009-3.891-.72-3.973,6.515A.253.253,0,0,1,243.6,294.145Z" fill="#27debf"/><g opacity="0.3"><path d="M243.6,294.145a.25.25,0,0,1-.214-.38l4.153-6.81,4.174.773,3.93-1.074,4.065-4.959,4.038-1.018,4.105-7.315,4.2,1.218,3.945-.748,4-3.561a.247.247,0,0,1,.352.02.25.25,0,0,1-.02.353l-4.105,3.653-.067.014-4.131.783-3.929-1.141-4.017,7.156-4.087,1.032-4.061,4.952-.076.021-4.117,1.125-.057-.009-3.891-.72-3.973,6.515A.253.253,0,0,1,243.6,294.145Z"/></g><path d="M245.482,282.348a.753.753,0,0,1-.083.061l-.077.05a1.208,1.208,0,0,1-.553.177.712.712,0,0,1-.475-.142,1.057,1.057,0,0,1-.336-.483,2.365,2.365,0,0,1-.128-.851,3.72,3.72,0,0,1,.119-.928,4.252,4.252,0,0,1,.324-.869,3.645,3.645,0,0,1,.476-.728,2.159,2.159,0,0,1,.573-.5,1.214,1.214,0,0,1,.621-.194.693.693,0,0,1,.47.182,1.135,1.135,0,0,1,.3.511,2.906,2.906,0,0,1,.056,1.289c-.031.174-.071.348-.118.522s-.1.344-.155.509-.108.32-.155.456l-1.082,3.077c-.02.043-.041.093-.065.153a.26.26,0,0,1-.119.136l-.339.2a.061.061,0,0,1-.086-.01.2.2,0,0,1-.032-.123.3.3,0,0,1,.008-.078.262.262,0,0,1,.021-.058Zm.768-2.585a1.589,1.589,0,0,0-.069-.491.722.722,0,0,0-.19-.316.44.44,0,0,0-.295-.109.764.764,0,0,0-.374.116,1.432,1.432,0,0,0-.377.319,2.07,2.07,0,0,0-.292.448,2.531,2.531,0,0,0-.19.533,2.488,2.488,0,0,0-.068.571,1.573,1.573,0,0,0,.068.495.7.7,0,0,0,.19.313.435.435,0,0,0,.292.11.736.736,0,0,0,.377-.117,1.429,1.429,0,0,0,.374-.317,2.082,2.082,0,0,0,.295-.45,2.6,2.6,0,0,0,.19-.53A2.459,2.459,0,0,0,246.25,279.763Z" fill="#455a64"/><path d="M247.794,281.662a1.25,1.25,0,0,0,.084.246.334.334,0,0,0,.16.167.471.471,0,0,0,.283.025,1.442,1.442,0,0,0,.455-.19,1.765,1.765,0,0,0,.642-.653,2.176,2.176,0,0,0,.2-.477,1.959,1.959,0,0,0,.075-.56,1.2,1.2,0,0,0-.071-.458.4.4,0,0,0-.194-.218.445.445,0,0,0-.289-.011,1.414,1.414,0,0,0-.361.154l-.494.285a.087.087,0,0,1-.113-.008.194.194,0,0,1-.048-.146v-.329a.48.48,0,0,1,.033-.171c.022-.059.042-.112.062-.16l1.071-2.393-1.712.988a.085.085,0,0,1-.113-.008.194.194,0,0,1-.048-.146v-.329a.459.459,0,0,1,.048-.2.3.3,0,0,1,.113-.139l2.342-1.353a.088.088,0,0,1,.113.008.2.2,0,0,1,.047.147v.33a.628.628,0,0,1-.029.177,1.609,1.609,0,0,1-.079.2l-1.051,2.355a1.245,1.245,0,0,1,.544-.172.609.609,0,0,1,.421.131.922.922,0,0,1,.275.428,2.281,2.281,0,0,1,.1.717,3.466,3.466,0,0,1-.12.906,3.707,3.707,0,0,1-.318.807,3.308,3.308,0,0,1-.469.659,2.445,2.445,0,0,1-.573.469,1.748,1.748,0,0,1-.688.254.715.715,0,0,1-.475-.1.746.746,0,0,1-.279-.359,1.534,1.534,0,0,1-.1-.534.4.4,0,0,1,.038-.166.253.253,0,0,1,.093-.112l.273-.157c.044-.026.078-.026.1,0A.179.179,0,0,1,247.794,281.662Z" fill="#455a64"/><path d="M244.338,297.373l35.1-20.342c.4-.23.722-.066.722.365a1.545,1.545,0,0,1-.722,1.2l-35.1,20.342c-.4.23-.721.067-.721-.365A1.547,1.547,0,0,1,244.338,297.373Z" fill="#e0e0e0"/><path d="M244.338,273.908l7.866-4.564c.4-.23.722-.067.722.364a1.545,1.545,0,0,1-.722,1.2l-7.866,4.565c-.4.23-.721.067-.721-.365A1.549,1.549,0,0,1,244.338,273.908Z" fill="#e0e0e0"/><path d="M296.41,220.38a4.585,4.585,0,0,1,4.63-.345l-4.63,12.485Z" fill="#489ddc"/><path d="M291.78,225.382a13.753,13.753,0,0,1,4.63-5v12.14Z" fill="#489ddc"/><path d="M288.913,233.1a24.3,24.3,0,0,1,2.867-7.716l4.63,7.138Z" fill="#489ddc"/><path d="M291.78,225.382a24.3,24.3,0,0,0-2.867,7.716l7.5-.578V220.38A13.753,13.753,0,0,0,291.78,225.382Z" opacity="0.3"/><path d="M301.04,220.035a6.5,6.5,0,0,1,2.867,4.406l-7.5,8.079Z" fill="#489ddc"/><path d="M288.913,240.6a15.1,15.1,0,0,1-.388-3.527,21.538,21.538,0,0,1,.388-3.974l7.5-.578Z" fill="#489ddc"/><path d="M303.907,231.942a24.323,24.323,0,0,1-2.867,7.716l-4.63-7.138Z" fill="#489ddc"/><path d="M296.41,244.66a4.588,4.588,0,0,1-4.63.345l4.63-12.485Z" fill="#489ddc"/><path d="M288.913,240.6l7.5-8.079-4.63,12.485A6.494,6.494,0,0,1,288.913,240.6Z" fill="#489ddc"/><path d="M303.907,224.441a15.15,15.15,0,0,1,.388,3.527,21.634,21.634,0,0,1-.388,3.974l-7.5.578Z" fill="#489ddc"/><path d="M301.04,239.658a13.778,13.778,0,0,1-4.63,5V232.52Z" fill="#489ddc"/><path d="M292.477,250.851l7.866-4.565c.4-.23.721-.066.721.365a1.547,1.547,0,0,1-.721,1.2l-7.866,4.565c-.4.23-.722.066-.722-.365A1.545,1.545,0,0,1,292.477,250.851Z" fill="#455a64"/><path d="M290.742,256.557l11.336-6.576c.4-.23.721-.067.721.365a1.549,1.549,0,0,1-.721,1.2l-11.336,6.576c-.4.23-.721.067-.721-.365A1.549,1.549,0,0,1,290.742,256.557Z" fill="#e0e0e0"/><path d="M290.742,261.259l11.336-6.577c.4-.23.721-.067.721.365a1.547,1.547,0,0,1-.721,1.2l-11.336,6.577c-.4.229-.721.066-.721-.365A1.547,1.547,0,0,1,290.742,261.259Z" fill="#e0e0e0"/><path d="M290.742,265.96l11.336-6.577c.4-.23.721-.066.721.365a1.547,1.547,0,0,1-.721,1.2l-11.336,6.577c-.4.23-.721.066-.721-.365A1.547,1.547,0,0,1,290.742,265.96Z" fill="#e0e0e0"/><path d="M324.844,203.9a4.585,4.585,0,0,1,4.63-.345l-4.63,12.484Z" fill="#489ddc"/><path d="M320.214,208.9a13.767,13.767,0,0,1,4.63-5v12.139Z" fill="#489ddc"/><path d="M317.347,216.62a24.308,24.308,0,0,1,2.867-7.716l4.63,7.138Z" fill="#489ddc"/><path d="M329.474,203.558a6.492,6.492,0,0,1,2.867,4.4l-7.5,8.079Z" fill="#489ddc"/><path d="M317.347,224.121a15.141,15.141,0,0,1-.388-3.526,21.636,21.636,0,0,1,.388-3.975l7.5-.578Z" fill="#489ddc"/><path d="M332.341,215.464a24.3,24.3,0,0,1-2.867,7.717l-4.63-7.139Z" fill="#489ddc"/><path d="M324.844,228.182a4.585,4.585,0,0,1-4.63.345l4.63-12.485Z" fill="#489ddc"/><path d="M317.347,224.121l7.5-8.079-4.63,12.485A6.492,6.492,0,0,1,317.347,224.121Z" fill="#489ddc"/><path d="M320.214,208.9a24.308,24.308,0,0,0-2.867,7.716,21.636,21.636,0,0,0-.388,3.975,15.141,15.141,0,0,0,.388,3.526,6.492,6.492,0,0,0,2.867,4.406l4.63-12.485V203.9A13.767,13.767,0,0,0,320.214,208.9Z" opacity="0.3"/><path d="M332.341,207.963a15.1,15.1,0,0,1,.388,3.527,21.53,21.53,0,0,1-.388,3.974l-7.5.578Z" fill="#489ddc"/><path d="M329.474,223.181a13.766,13.766,0,0,1-4.63,5v-12.14Z" fill="#489ddc"/><path d="M320.911,234.434l7.866-4.564c.4-.23.721-.067.721.365a1.549,1.549,0,0,1-.721,1.2L320.911,236c-.4.23-.721.067-.721-.365A1.549,1.549,0,0,1,320.911,234.434Z" fill="#455a64"/><path d="M319.176,240.141l11.336-6.577c.4-.23.721-.066.721.365a1.547,1.547,0,0,1-.721,1.2L319.176,241.7c-.4.23-.721.066-.721-.365A1.547,1.547,0,0,1,319.176,240.141Z" fill="#e0e0e0"/><path d="M319.176,244.842l11.336-6.576c.4-.231.721-.067.721.365a1.547,1.547,0,0,1-.721,1.2L319.176,246.4c-.4.23-.721.067-.721-.365A1.547,1.547,0,0,1,319.176,244.842Z" fill="#e0e0e0"/><path d="M319.176,249.543l11.336-6.576c.4-.23.721-.067.721.365a1.549,1.549,0,0,1-.721,1.2l-11.336,6.576c-.4.23-.721.067-.721-.365A1.549,1.549,0,0,1,319.176,249.543Z" fill="#e0e0e0"/><path d="M324.692,366.677a13.349,13.349,0,0,0-5.686-10.658c-1.614-1.006-3.1-1.153-4.211-.583l0,0c-6.69,3.358-53.706,33.507-56.713,34.991l-.038.02a2.144,2.144,0,0,0-.954,1.938,6.726,6.726,0,0,0,2.865,5.371,2.134,2.134,0,0,0,2.147.281l.043-.022c4.761-2.622,51.162-22.4,60.649-27.484h0l.006,0h0C323.909,369.926,324.628,368.6,324.692,366.677Z" fill="#489ddc"/><path d="M322.843,360.176a12.045,12.045,0,0,0-3.837-4.157c-1.609-1-3.092-1.151-4.2-.588-.223.123-.292.163-.136.073-6.108,3.124-41.1,25.447-52.873,32.7l-.078.048-.476.293-.145.089-.268.164-.316.193-.023.014c-1.246.759-2.086,1.256-2.411,1.416l-.038.02a1.525,1.525,0,0,0-.277.213,2.36,2.36,0,0,0-.677,1.725,4.818,4.818,0,0,0,.033.674c.01.086.027.173.041.26.022.137.049.275.082.413.026.11.054.219.086.328.038.13.082.258.129.387.034.1.065.192.1.287.006.016.014.03.021.046Z" opacity="0.1"/><path d="M259.941,397.753a6.7,6.7,0,0,1-2.854-5.349c.065-1.933,1.447-2.671,3.088-1.649a6.7,6.7,0,0,1,2.854,5.348C262.964,398.035,261.581,398.774,259.941,397.753Z" fill="#489ddc"/><path d="M245.891,399.046a5.149,5.149,0,0,0,2.192,4.11,1.639,1.639,0,0,0,1.634.22v0l.006,0h0l11.372-6.055.008,0h0a1.64,1.64,0,0,0,.727-1.48,5.149,5.149,0,0,0-2.193-4.11,1.637,1.637,0,0,0-1.64-.218h0l-11.371,6.053h0A1.631,1.631,0,0,0,245.891,399.046Z" fill="#37474f"/><path d="M246.63,397.56a1.631,1.631,0,0,0-.739,1.486,4.417,4.417,0,0,0,.343,1.754l14.666-7.824a4.424,4.424,0,0,0-1.26-1.252,1.637,1.637,0,0,0-1.64-.218l-11.371,6.053Z" fill="#263238"/><path d="M260.479,409.142c0-7.288-4.815-14.576-14.446-20.136-19.262-11.121-50.491-11.121-69.753,0-9.63,5.56-14.446,12.848-14.446,20.135h0v13.425c0,7.287,4.816,14.575,14.447,20.135,19.262,11.121,50.491,11.121,69.752,0,9.631-5.56,14.446-12.848,14.446-20.135V409.141Zm-81.814-16.005c8.6-4.967,20.141-7.7,32.492-7.7s23.89,2.735,32.491,7.7c7.778,4.49,12.061,10.174,12.061,16.005s-4.284,11.514-12.061,16c-8.6,4.967-20.141,7.7-32.491,7.7s-23.889-2.735-32.492-7.7c-7.777-4.49-12.06-10.174-12.06-16S170.887,397.627,178.665,393.137Z" fill="#489ddc"/><path d="M176.277,429.278c19.262,11.12,50.491,11.12,69.753,0s19.262-29.151,0-40.272-50.491-11.121-69.753,0S157.016,418.157,176.277,429.278ZM166.6,409.142c0-5.831,4.283-11.515,12.061-16.005,8.6-4.967,20.141-7.7,32.492-7.7s23.889,2.735,32.491,7.7c7.778,4.49,12.061,10.174,12.061,16.005s-4.284,11.514-12.061,16c-8.6,4.967-20.142,7.7-32.491,7.7s-23.89-2.735-32.492-7.7C170.885,420.656,166.6,414.972,166.6,409.142Z" fill="#fff" opacity="0.3"/><path d="M166.6,409.141a13.232,13.232,0,0,0,1.927,6.716c1.955-3.387,5.4-6.564,10.141-9.292,8.6-4.97,20.138-7.708,32.492-7.708s23.888,2.738,32.484,7.708c4.741,2.728,8.185,5.9,10.15,9.292a13.317,13.317,0,0,0,1.917-6.716c0-5.829-4.283-11.515-12.067-16.008-8.6-4.961-20.139-7.7-32.484-7.7s-23.9,2.738-32.492,7.7C170.881,397.626,166.6,403.312,166.6,409.141Z" fill="#489ddc"/><path d="M166.6,409.141a13.232,13.232,0,0,0,1.927,6.716c1.955-3.387,5.4-6.564,10.141-9.292,8.6-4.97,20.138-7.708,32.492-7.708s23.888,2.738,32.484,7.708c4.741,2.728,8.185,5.9,10.15,9.292a13.317,13.317,0,0,0,1.917-6.716c0-5.829-4.283-11.515-12.067-16.008-8.6-4.961-20.139-7.7-32.484-7.7s-23.9,2.738-32.492,7.7C170.881,397.626,166.6,403.312,166.6,409.141Z" opacity="0.1"/><path d="M178.662,399.215c8.6-4.967,20.141-7.7,32.492-7.7s23.889,2.735,32.491,7.7c6.418,3.705,10.448,8.223,11.664,12.966-1.216,4.742-5.247,9.26-11.664,12.965-8.6,4.967-20.142,7.7-32.491,7.7s-23.89-2.735-32.492-7.7c-6.417-3.7-10.448-8.223-11.664-12.965C168.214,407.438,172.244,402.92,178.662,399.215Z" fill="#fff" opacity="0.4"/><path d="M199.533,436.825v13.413a64.572,64.572,0,0,1-23.249-7.536c-9.635-5.562-14.453-12.85-14.453-20.139V409.141a16.911,16.911,0,0,1,.592-4.4h.009c-2.337,8.671,2.28,17.849,13.852,24.536A64.755,64.755,0,0,0,199.533,436.825Z" opacity="0.1"/><path d="M434.614,354.86c.584.237.708,1.361.746,3.593.03,1.689.325,4.642-1.664,5.186s-4.878.177-6.109-1.441c-1.536-2.021-2.565-3.792-4.766-6.265-1.91-2.145-3.983-4.153-4.706-7.117-.654-2.679-.034-3.82,1.8-4.554,2.522-1.008,6.368,2.559,8.313,3.15C429.9,347.922,434.031,354.624,434.614,354.86Z" fill="#263238"/><path d="M434.661,352.8l-.062,2.738a6.7,6.7,0,0,1-6.922.031c-.114-.267-.63-3.932-.63-3.932Z" fill="#ffa8a7"/><path d="M412.089,370.138a46.189,46.189,0,0,1,1.108,4.49c.3,1.662.719,4.44.111,5.672s-2.886,1.984-6.391,1.878c-2.269-.068-5.842,1.394-8.294,2.691-2.534,1.339-7.749,1.778-10.388,1.408-3.11-.436-6.3-2.318-6.775-3.62s.225-2.629,7.644-5.6c.068-.027,10.292-3.1,13.936-6.943Z" fill="#263238"/><path d="M412.156,367.178s-.056,2.032-.072,3.193-1.427,2.86-4.973,2.654c-2.491-.146-4.216-.855-4.071-2.906l.067-2.959Z" fill="#ffa8a7"/><path d="M437.259,316.507a74.363,74.363,0,0,0-2.911-14.331s1.254-12.279,1.986-23.932c.79-12.586,1.523-19.067-.952-37.245,0,0-38.59-3.466-39.643,11.08s.442,51.67.778,58.078,1.315,12.091,2.4,22.49c1.074,10.263,4.187,34.513,4.187,34.513a9.6,9.6,0,0,0,9.049.018s3.516-29.054,3.382-36.443A63.1,63.1,0,0,0,413.1,314.56s1.041-11.99,1.957-22.42,1.75-15.43,2.01-19.97l.884-.414s.486,18.039.823,24.448,1.216,12.565,2.8,24.49c1.373,10.345,5.664,32.264,5.664,32.264,4.587,2.615,7.422-.162,7.422-.162S438.311,325.48,437.259,316.507Z" fill="#37474f"/><path d="M417.069,272.17s9.97-4.637,15.005-8.909c0,0-4.728,6.354-10.808,9.081,0,0-2.644,22.336-2.623,21.893l-.739-22.079Z" fill="#263238"/><path d="M410.157,189.148l1.5,13.324,12.583-.635-1.4-15.55Z" fill="#ffa8a7"/><path d="M428.988,194.249c4.684-.216,7.063.487,9.167,4.528s2.928,16.114,3.66,22.339.915,10.617-1.647,11.257-12.536.915-12.536.915Z" fill="#37474f"/><path d="M436.895,201.154c-.679-3.729-5.582-7.647-10.171-6.9q-1.6.259-3.115.527c-.551,2.241-6.694,3.643-12.561,2.262-1.769.464-7.592,1.554-9.064,2.043-4.218,1.4-5.959,5.551-6.615,19.306,0,0,.338,31.147.173,37.351,10.413,4.394,21.343,4.512,27.412,3.328,12.635-2.463,14.269-7.645,14.269-7.645l-1.881-14.249S438.43,209.589,436.895,201.154Z" fill="#455a64"/><path d="M410.653,193.542l.094.838a18.675,18.675,0,0,0,7.726,0c4.088-.909,4.914-2.064,4.914-2.064l-.086-.951s1.018-.377,1.553,1.189a17.024,17.024,0,0,1,.591,1.91s.471,2.863-4.335,4.321a14.855,14.855,0,0,1-11.968-1.307l-1.885.4s1.63-3.757,2.123-4.519a1.251,1.251,0,0,1,1.178-.653Z" fill="#37474f"/><path d="M372.241,179.255l-24.95,13.021,12.4,33.9,23.284-13.044Z" fill="#455a64"/><path d="M371.1,182.574,350.164,193.5l10.972,29.143L380.67,211.7Z" fill="#f5f5f5"/><path d="M366.679,185.718l-.4-1.037c-.224-.573-1.966-.231-3.891.763l-3.686,1.9c-1.926.994-3.3,2.263-3.081,2.836l.4,1.037Z" opacity="0.15"/><path d="M366.274,181.57c-.138-.358-.9-.3-1.693.13l-1.443.78s-.89-2.24-4.209-.69-2.562,4.145-2.562,4.145l-1.532.845c-.846.466-1.448,1.139-1.346,1.5l.187.659,12.853-6.706S366.413,181.928,366.274,181.57Z" fill="#489ddc"/><path d="M364.887,183.075c-1.2.588-1.666.871-1.322,1.754.393,1.008.759,1.732.759,1.732l-5.685,2.974s-.474-1.282-.681-1.777-.623-.731-1.528-.258l-.337-.356,8.967-4.57Z" fill="#489ddc"/><path d="M364.887,183.075c-1.2.588-1.666.871-1.322,1.754.393,1.008.759,1.732.759,1.732l-5.685,2.974s-.474-1.282-.681-1.777-.623-.731-1.528-.258l-.337-.356,8.967-4.57Z" opacity="0.3"/><path d="M366.923,185.772l-.4-1.037c-.224-.572-1.966-.231-3.891.763l-3.686,1.9c-1.926.994-3.305,2.263-3.081,2.836l.405,1.037Z" fill="#489ddc"/><path d="M401.984,199.085c-5.76.5-8.214,1.551-12.538,9.348-4.693,8.463-13.714,23.778-14.858,25.712-1.592,2.69-1.892,6.782-.519,9.253,1.283,2.308,5.354,3.364,9.969-1.85,5.488-6.2,15.7-21.339,15.7-21.339S408.41,208.766,401.984,199.085Z" fill="#ffa8a7"/><path d="M376.456,245.173c-4.415-.536-14.727-14.527-17.66-19.1a32.6,32.6,0,0,0-8.934-9.427c-4.674-3.453-3.994-8.758-1.955-13.62.707-1.684,3.1-.588,3.1-.588l.844,2.307,1.461,3.995c.99.919,1.554,1.218,1.62.945.124-.516-.727-2.665-.707-4.9.025-2.694,1.912-.924,2.475.021a33.364,33.364,0,0,1,1.992,4.451c.941,2.412.552,4.853,1.7,6.5s16.532,16.385,16.532,16.385Z" fill="#ffa8a7"/><path d="M403.094,198.785c-3.49-.087-7.684.47-10.932,4.69s-16.248,27.168-16.248,27.168l-7.3-6.539a12.715,12.715,0,0,0-5.61,7.929A79.1,79.1,0,0,0,369.614,241c3.083,3.384,6.524,5.73,9.343,4.691s5.7-3.274,11.772-11.727,12.7-18.431,12.7-18.431S407.611,205.785,403.094,198.785Z" fill="#37474f"/><path d="M401.293,172.837s-3.141,4.766-2.784,5.235,2.67.89,2.67.89Z" fill="#f28f8f"/><path d="M402.763,175.9a3.743,3.743,0,1,1,3.743-3.743A3.747,3.747,0,0,1,402.763,175.9Zm0-6.654a2.911,2.911,0,1,0,2.911,2.911A2.914,2.914,0,0,0,402.763,169.245Z" fill="#263238"/><path d="M410.016,159.65c-6.357,1.341-8.193,4.135-8.792,14.234-.625,10.552.452,13.869,1.838,15.29.936.959,6.136,1.132,8.76.409,3.283-.9,10.7-3.535,14.179-8.843,4.087-6.245,5.162-14.708.785-18.18C420.627,157.673,412.6,159.1,410.016,159.65Z" fill="#ffa8a7"/><path d="M410.24,189.88l-.295-1.944a12.58,12.58,0,0,1-6.518,1.477C404.64,190.012,407.8,190.182,410.24,189.88Z" fill="#f28f8f"/><path d="M399.37,171.374l11.3,1.463-.456.794-10.847-1.408Z" fill="#263238"/><path d="M400.14,163.726a3.545,3.545,0,0,0,1.435-.087,2.265,2.265,0,0,0,.775,2.65,3.2,3.2,0,0,0,2.851.378,2.753,2.753,0,0,0-.312,1.965,3.187,3.187,0,0,0,3.293,2.376c.067,1.477.085,2.922,1.663,3.6,0,0,1.005-3.9,4.292-3.41,3.309.494,3.756,4.711,1.671,7.274-2.073,2.546-4.005,1.593-4.029,1.58.192.1.258,1.34.326,1.576a11.415,11.415,0,0,0,.845,2.132,10.188,10.188,0,0,0,2.975,3.488,7.325,7.325,0,0,0,5.965,1.66,6.422,6.422,0,0,0,4.346-3.5,3.744,3.744,0,0,1,.709-1.263,4.14,4.14,0,0,1,1.62-.7,4.761,4.761,0,0,0,2.69-6.716,4.363,4.363,0,0,0,1.671-7.621,5.235,5.235,0,0,0,2.251-5.68,5.319,5.319,0,0,0-3.758-3.6c-1.284-.371-.79-.573-1.187-1.83a4.608,4.608,0,0,0-5.855-3.021,4.442,4.442,0,0,0-3.175-3.415,4.392,4.392,0,0,0-2.244-.087c-.527.137-1.612.627-1.81,1.131-.668-.657-.885-1.525-1.7-2.124a4.819,4.819,0,0,0-7.1,1.518,5.92,5.92,0,0,0-4.44-1.867,4.854,4.854,0,0,0-4.047,2.472,4.122,4.122,0,0,0,.545,4.622,4.728,4.728,0,0,0-2.455,2.125,2.976,2.976,0,0,0,.346,3.318,2.571,2.571,0,0,0,1.241.924A3.755,3.755,0,0,0,400.14,163.726Z" fill="#263238"/><path d="M409.777,176.828l.117-4.415a2.208,2.208,0,1,0-.117,4.415Z" fill="#263238"/></g></svg>