<svg xmlns="http://www.w3.org/2000/svg" width="474.355" height="449.324" viewBox="0 0 474.355 449.324"><g transform="translate(-38.19 -54.981)"><g transform="translate(44.728 54.981)"><g transform="translate(24.626)"><g transform="translate(344.704 51.271)"><g transform="translate(4.001 4.002)"><path d="M431,161.557h-1.7v-1.134h.567v-.567H431Z" transform="translate(-365.644 -96.199)" fill="#ebebeb"/><path d="M434.057,161.49h-2.3v-1.134h2.3Zm-4.589,0h-2.294v-1.134h2.294Zm-4.589,0h-2.294v-1.134h2.294Zm-4.589,0h-2.3v-1.134h2.3Zm-4.589,0h-2.3v-1.134h2.3Zm-4.589,0h-2.294v-1.134h2.294Zm-4.589,0h-2.294v-1.134h2.294Zm-4.589,0h-2.294v-1.134h2.294Zm-4.589,0h-2.3v-1.134h2.3Zm-4.589,0h-2.294v-1.134h2.294Zm-4.589,0h-2.294v-1.134h2.294Zm-4.589,0h-2.294v-1.134h2.294Zm-4.589,0H376.69v-1.134h2.294Z" transform="translate(-372.694 -96.132)" fill="#ebebeb"/><path d="M374.868,161.557h-1.7v-1.7H374.3v.567h.567Z" transform="translate(-373.167 -96.199)" fill="#ebebeb"/><path d="M374.3,164.612h-1.134v-2.294H374.3Zm0-4.589h-1.134v-2.294H374.3Zm0-4.589h-1.134v-2.294H374.3Zm0-4.589h-1.134v-2.294H374.3Zm0-4.589h-1.134V143.96H374.3Zm0-4.589h-1.134v-2.294H374.3Zm0-4.589h-1.134v-2.294H374.3Zm0-4.588h-1.134v-2.3H374.3Zm0-4.59h-1.134V125.6H374.3Zm0-4.589h-1.134v-2.294H374.3Zm0-4.588h-1.134v-2.3H374.3Zm0-4.589h-1.134v-2.3H374.3Zm0-4.589h-1.134v-2.3H374.3Z" transform="translate(-373.167 -103.25)" fill="#ebebeb"/><path d="M374.3,105.423h-1.134v-1.7h1.7v1.134H374.3Z" transform="translate(-373.167 -103.722)" fill="#ebebeb"/><path d="M434.057,104.856h-2.3v-1.134h2.3Zm-4.589,0h-2.294v-1.134h2.294Zm-4.589,0h-2.294v-1.134h2.294Zm-4.589,0h-2.294v-1.134h2.294Zm-4.589,0h-2.3v-1.134h2.3Zm-4.589,0h-2.294v-1.134h2.294Zm-4.589,0h-2.294v-1.134h2.294Zm-4.589,0h-2.294v-1.134h2.294Zm-4.589,0h-2.294v-1.134h2.294Zm-4.588,0h-2.3v-1.134h2.3Zm-4.591,0h-2.294v-1.134h2.294Zm-4.589,0h-2.294v-1.134h2.294Zm-4.589,0H376.69v-1.134h2.294Z" transform="translate(-372.694 -103.722)" fill="#ebebeb"/><path d="M431,105.423h-1.134v-.567H429.3v-1.134H431Z" transform="translate(-365.644 -103.722)" fill="#ebebeb"/><path d="M430.934,164.612H429.8v-2.294h1.134Zm0-4.589H429.8v-2.294h1.134Zm0-4.589H429.8v-2.294h1.134Zm0-4.588H429.8v-2.3h1.134Zm0-4.589H429.8v-2.3h1.134Zm0-4.591H429.8v-2.294h1.134Zm0-4.589H429.8v-2.294h1.134Zm0-4.588H429.8v-2.3h1.134Zm0-4.589H429.8v-2.3h1.134Zm0-4.589H429.8v-2.3h1.134Zm0-4.589H429.8v-2.3h1.134Zm0-4.589H429.8v-2.3h1.134Zm0-4.589H429.8v-2.3h1.134Z" transform="translate(-365.577 -103.25)" fill="#ebebeb"/></g><g transform="translate(0 64.224)"><rect width="8.003" height="8.003" transform="translate(0.567 0.567)" fill="#fff"/><path d="M378.775,165.964h-9.137v-9.137h9.137Zm-8-1.134h6.869v-6.869h-6.869Z" transform="translate(-369.638 -156.827)" fill="#ebebeb"/></g><g transform="translate(0 32.112)"><rect width="8.003" height="8.003" transform="translate(0.567 0.567)" fill="#fff"/><path d="M378.775,137.648h-9.137V128.51h9.137Zm-8-1.134h6.869v-6.87h-6.869Z" transform="translate(-369.638 -128.51)" fill="#ebebeb"/></g><g transform="translate(0)"><rect width="8.003" height="8.003" transform="translate(0.567 0.567)" fill="#fff"/><path d="M378.775,109.33h-9.137v-9.137h9.137Zm-8-1.134h6.869v-6.869h-6.869Z" transform="translate(-369.638 -100.193)" fill="#ebebeb"/></g><g transform="translate(64.224 64.224)"><rect width="8.003" height="8.003" transform="translate(0.567 0.567)" fill="#fff"/><path d="M435.409,165.964h-9.137v-9.137h9.137Zm-8-1.134h6.869v-6.869h-6.869Z" transform="translate(-426.272 -156.827)" fill="#ebebeb"/></g><g transform="translate(64.224 32.112)"><rect width="8.003" height="8.003" transform="translate(0.567 0.567)" fill="#fff"/><path d="M435.409,137.648h-9.137V128.51h9.137Zm-8-1.134h6.869v-6.87h-6.869Z" transform="translate(-426.272 -128.51)" fill="#ebebeb"/></g><g transform="translate(64.224)"><rect width="8.003" height="8.003" transform="translate(0.567 0.567)" fill="#fff"/><path d="M435.409,109.33h-9.137v-9.137h9.137Zm-8-1.134h6.869v-6.869h-6.869Z" transform="translate(-426.272 -100.193)" fill="#ebebeb"/></g><g transform="translate(32.112)"><rect width="8.003" height="8.003" transform="translate(0.567 0.567)" fill="#fff"/><path d="M407.092,109.33h-9.137v-9.137h9.137Zm-8-1.134h6.869v-6.869h-6.869Z" transform="translate(-397.955 -100.193)" fill="#ebebeb"/></g><g transform="translate(32.112 64.224)"><rect width="8.003" height="8.003" transform="translate(0.567 0.567)" fill="#fff"/><path d="M407.092,165.964h-9.137v-9.137h9.137Zm-8-1.134h6.869v-6.869h-6.869Z" transform="translate(-397.955 -156.827)" fill="#ebebeb"/></g><g transform="translate(14.611 13.834)"><path d="M405.369,142.876H392.554l-4.984,13.98h4.855v1.229h-9.9v-1.229h3.041l16.5-44.464h5.307l16.309,44.464h2.977v1.229H405.5v-1.229h4.594Zm-12.234-1.423h11.716l-5.632-16.958Z" transform="translate(-382.522 -112.392)" fill="#dbdbdb"/></g></g><g transform="translate(29.048 5.647)"><path d="M119.263,81.124s-.222,12.616-8.3,26.923H99.585c-8.078-14.307-8.3-26.923-8.3-26.923,11.685-6.535,11.99-21.163,11.99-21.163h1.179V83.123a3.566,3.566,0,1,0,1.638,0V59.961h1.179S107.578,74.589,119.263,81.124Z" transform="translate(-91.286 -59.961)" fill="#ebebeb"/><rect width="16.813" height="7.076" transform="translate(5.582 46.7)" fill="#c7c7c7"/></g><path d="M147.269,97.958h-1.134a37.9,37.9,0,0,0-75.8,0H69.2a39.035,39.035,0,0,1,78.07,0Z" transform="translate(-65.198 -54.453)" fill="#ebebeb"/><rect width="77.814" height="1.134" transform="translate(3.69 4.002)" fill="#ebebeb"/><g transform="translate(0 38.938)"><rect width="8.003" height="8.003" transform="translate(0.566 0.567)" fill="#fff"/><path d="M74.809,98.454H65.671V89.317h9.138Zm-8-1.134h6.87V90.451h-6.87Z" transform="translate(-65.671 -89.317)" fill="#ebebeb"/></g><rect width="8.003" height="8.003" transform="translate(0.566 0.567)" fill="#fff"/><path d="M74.809,64.119H65.671V54.981h9.138Zm-8-1.134h6.87v-6.87h-6.87Z" transform="translate(-65.671 -54.981)" fill="#ebebeb"/><g transform="translate(76.936 38.938)"><rect width="8.003" height="8.003" transform="translate(0.566 0.567)" fill="#fff"/><path d="M142.652,98.454h-9.137V89.317h9.137Zm-8-1.134h6.869V90.451h-6.869Z" transform="translate(-133.515 -89.317)" fill="#ebebeb"/></g><g transform="translate(76.936)"><rect width="8.003" height="8.003" transform="translate(0.566 0.567)" fill="#fff"/><path d="M142.652,64.119h-9.137V54.981h9.137Zm-8-1.134h6.869v-6.87h-6.869Z" transform="translate(-133.515 -54.981)" fill="#ebebeb"/></g></g><g transform="translate(0 22.221)"><rect width="30.029" height="12.689" transform="translate(450.566 292.933) rotate(180)" fill="none" stroke="#ebebeb" stroke-miterlimit="10" stroke-width="1"/><rect width="30.029" height="12.689" transform="translate(467.317 308.934) rotate(180)" fill="none" stroke="#ebebeb" stroke-miterlimit="10" stroke-width="1"/><rect width="30.029" height="12.689" transform="translate(433.814 308.934) rotate(180)" fill="none" stroke="#ebebeb" stroke-miterlimit="10" stroke-width="1"/><rect width="30.029" height="12.689" transform="translate(46.781 308.934) rotate(180)" fill="none" stroke="#ebebeb" stroke-miterlimit="10" stroke-width="1"/><rect width="30.029" height="12.689" transform="translate(46.781 12.689) rotate(180)" fill="none" stroke="#ebebeb" stroke-miterlimit="10" stroke-width="1"/><rect width="30.029" height="12.689" transform="translate(30.029 28.69) rotate(180)" fill="none" stroke="#ebebeb" stroke-miterlimit="10" stroke-width="1"/><rect width="30.029" height="12.689" transform="translate(467.317 12.703) rotate(180)" fill="none" stroke="#ebebeb" stroke-miterlimit="10" stroke-width="1"/><rect width="30.029" height="12.689" transform="translate(139.882 224.107)" fill="none" stroke="#ebebeb" stroke-miterlimit="10" stroke-width="1"/><rect width="30.029" height="12.689" transform="translate(123.13 208.106)" fill="none" stroke="#ebebeb" stroke-miterlimit="10" stroke-width="1"/></g></g><g transform="translate(45.176 432.889)"><line x2="466.422" fill="none" stroke="#263238" stroke-linecap="round" stroke-linejoin="round" stroke-width="1"/></g><g transform="translate(38.19 288.877)"><g transform="translate(51.896 17.159)"><path d="M114.264,289.4c-3.573-3.5-8.191-7.731-13.654-6.221-5.139,1.42-7.107,7.03-8.027,11.7-1.186,6.024-2.109,12.107-3.065,18.17q-1.449,9.187-2.756,18.395-.745,5.195-1.473,10.391-.362,2.6-.722,5.2c-.236,1.7-.519,3.4-.614,5.112-.029.545.828.625.947.1.662-2.889.936-5.895,1.361-8.827q.64-4.424,1.285-8.849,1.284-8.788,2.625-17.568,1.323-8.786,2.731-17.56c.793-4.96,1.167-11.124,5.565-14.4a8.5,8.5,0,0,1,8.224-.771c2.894,1.1,5.206,3.176,7.47,5.226A.075.075,0,0,0,114.264,289.4Z" transform="translate(-83.953 -275.496)" fill="#263238"/><g transform="translate(13.458)"><path d="M107.784,286.7s-7.3-2.63-10.908,2.7.7,18.888,33.959,26.537a93.908,93.908,0,0,0-8-30.062C115.7,270.327,103,276.215,107.784,286.7Z" transform="translate(-95.821 -276.367)" fill="#489ddc"/><g transform="translate(7.949 7.931)"><path d="M127.957,312.56a25.951,25.951,0,0,0-1.673-2.7q-.833-1.286-1.686-2.559c-.428-.638-.864-1.271-1.3-1.9.032-.154.041-.315.061-.476.039-.288.076-.576.115-.863.081-.624.172-1.245.264-1.868s.2-1.238.313-1.855a9.889,9.889,0,0,1,.435-1.96c.042-.1-.133-.145-.145-.031a7.214,7.214,0,0,1-.3,1.1c-.078.279-.151.56-.223.84q-.242.946-.457,1.9c-.132.585-.243,1.174-.342,1.766-.048.284-.09.568-.128.853-.593-.846-1.2-1.683-1.821-2.505-1.766-2.326-3.633-4.564-5.566-6.749.008-.022.028-.034.029-.06.172-3.494.088-6.953.864-10.39.02-.094-.12-.145-.142-.051a35.707,35.707,0,0,0-1.243,9.941q-1.039-1.162-2.1-2.305-2.429-2.611-4.955-5.134c-.068-.068-.176.032-.11.1,2.8,3.017,5.464,6.159,8.056,9.358a57.236,57.236,0,0,0-6.079.225c-2.254.167-4.5.455-6.734.764-.1.014-.067.162.028.147a63.3,63.3,0,0,1,6.725-.6c2.169-.09,4.327.008,6.495,0q2.1,2.606,4.152,5.25c-.1,0-.2,0-.31-.006-.509-.01-1.019-.018-1.529-.009-1.01.017-2.023.088-3.029.173a46.131,46.131,0,0,0-6.141.919.075.075,0,0,0,.028.147c2.043-.23,4.092-.422,6.146-.494.981-.034,1.961-.034,2.942-.034.51,0,1.019,0,1.53,0a1.926,1.926,0,0,0,.839-.077c.895,1.161,1.791,2.322,2.676,3.489q1.058,1.393,2.085,2.811c.7.966,1.33,2.021,2.108,2.925C127.893,312.713,127.993,312.635,127.957,312.56Z" transform="translate(-102.804 -283.141)" fill="#263238"/><path d="M110.025,292.159a22.185,22.185,0,0,0-3.557-.174c-1.186,0-2.374.035-3.56.076a.075.075,0,1,0,.009.149c1.2-.086,2.405-.107,3.611-.088,1.163.017,2.33.128,3.493.1A.03.03,0,0,0,110.025,292.159Z" transform="translate(-102.831 -282.205)" fill="#263238"/><path d="M118.444,294.914c.136-1.135.278-2.277.521-3.4a.074.074,0,1,0-.145-.031c-.171,1.118-.388,2.228-.553,3.348q-.124.839-.228,1.682a7.779,7.779,0,0,0-.136,1.585.1.1,0,0,0,.2.015,9.828,9.828,0,0,0,.172-1.583Q118.346,295.723,118.444,294.914Z" transform="translate(-100.812 -282.28)" fill="#263238"/><path d="M116.59,283.41c-.291,1.106-.579,2.224-.784,3.35-.1.57-.191,1.144-.268,1.719a6.908,6.908,0,0,0-.112,1.679.046.046,0,0,0,.087.007,9.522,9.522,0,0,0,.262-1.6q.111-.828.254-1.653c.2-1.159.407-2.308.7-3.449C116.755,283.368,116.615,283.317,116.59,283.41Z" transform="translate(-101.146 -283.361)" fill="#263238"/></g></g></g><g transform="translate(12.972 48.764)"><path d="M80.2,347.655q-.276-3.14-.608-6.276-.657-6.216-1.5-12.406c-.553-4.115-1.083-8.241-1.744-12.342a30.792,30.792,0,0,0-1.269-5.6,5.315,5.315,0,0,0-3.1-3.5c-3.912-1.352-6.552,2.706-8.132,5.576-.048.086.077.151.132.073.946-1.359,3.561-5.177,6.529-5,2,.12,3.595,1.534,4.553,6.514,2.389,12.408,4.542,37.589,4.794,39.236.134.873.751.836.755-.1C80.617,351.767,80.377,349.705,80.2,347.655Z" transform="translate(-47.726 -303.831)" fill="#263238"/><path d="M66.8,311.964s3.419-12.075-4.14-6.038c-12.585,10.051-13.032,31.915-13.032,31.915S72,324.848,74.782,316.277C78.925,303.511,66.8,311.964,66.8,311.964Z" transform="translate(-49.629 -304.236)" fill="#489ddc"/><g transform="translate(1.421 6.209)"><path d="M70.867,317.159c-1.755.355-3.535.589-5.308.844q-1.257.18-2.518.354c-.567.077-1.141.132-1.711.2,1.667-2.3,3.346-4.583,4.944-6.924.062-.091-.077-.184-.15-.11a51.863,51.863,0,0,0-3.738,4.314c-.328-.934-.663-1.868-.992-2.8-.38-1.082-.789-2.157-1.064-3.272-.024-.094-.17-.05-.144.043.305,1.107.522,2.236.818,3.346.286,1.072.611,2.131.991,3.172-.82,1.065-1.6,2.155-2.369,3.255-.386-1.091-.863-2.147-1.2-3.255a.075.075,0,0,0-.144.043c.4,1.226.617,2.5.993,3.733-.514.75-1.027,1.5-1.517,2.258-.9,1.4-1.754,2.817-2.588,4.248a.333.333,0,0,0-.2.338c-1.413,2.445-2.758,4.926-4.084,7.429a.075.075,0,0,0,.13.073c1.328-2.472,2.806-4.879,4.342-7.243l.016,0a3.357,3.357,0,0,1,.731-.142c.259-.053.516-.111.773-.168.578-.126,1.151-.276,1.726-.418,1.134-.281,2.257-.549,3.409-.747.1-.017.052-.162-.043-.144-1.354.257-2.713.412-4.081.57-.646.075-1.291.158-1.932.26l-.093.014q1.206-1.834,2.446-3.634c.813-1.179,1.648-2.344,2.487-3.505.776-.109,1.545-.313,2.315-.46q1.3-.248,2.6-.5c1.733-.342,3.456-.73,5.2-1.019C71,317.286,70.963,317.139,70.867,317.159Z" transform="translate(-50.882 -309.712)" fill="#263238"/><path d="M56.764,317.687c-.1-.319-.2-.641-.3-.961a19.116,19.116,0,0,1-.514-2.025c-.019-.094-.163-.051-.144.044.146.682.306,1.361.463,2.04a13.215,13.215,0,0,0,.582,2.008.136.136,0,0,0,.26-.078C57.012,318.369,56.876,318.03,56.764,317.687Z" transform="translate(-50.222 -309.05)" fill="#263238"/><path d="M71.256,313.813c-1.021.153-2.05.225-3.077.314s-2.05.234-3.074.388c-.057.008-.058.094,0,.09,1.031-.07,2.053-.15,3.078-.285s2.045-.286,3.075-.357C71.357,313.957,71.349,313.8,71.256,313.813Z" transform="translate(-48.981 -309.162)" fill="#263238"/></g></g><g transform="translate(0 5.801)"><path d="M97.429,337.134c-.4-8.892-.962-17.767-1.855-26.623-.445-4.41-.942-8.817-1.564-13.206a94.38,94.38,0,0,0-2.547-12.783,24.562,24.562,0,0,0-4.255-9.012,9.661,9.661,0,0,0-8.6-3.752c-3.892.481-7.024,2.933-9.734,5.6-3.04,2.988-5.824,6.25-8.641,9.446q-1.068,1.213-2.119,2.442c-.062.073.045.177.109.1,2.753-3.163,5.613-6.236,8.607-9.174,2.766-2.716,5.615-5.684,9.446-6.805a9.734,9.734,0,0,1,5.489-.129,8.709,8.709,0,0,1,3.75,2.375,19.654,19.654,0,0,1,4.229,8.223c2.391,8.172,3.247,16.742,4.135,25.181.9,8.574,1.512,17.172,1.943,25.783.433,8.656.771,17.322,1.6,25.952.1,1.066.242,2.127.376,3.189.092.714,1.2.716,1.141-.028C98.239,354.992,97.828,346.069,97.429,337.134Z" transform="translate(-35.522 -265.635)" fill="#263238"/><path d="M71.056,279.033s5.077-9.4-.922-12.411-26.078,19.4-31.944,52.172c0,0,32.43-14.348,43.441-28.645S80.159,272.7,71.056,279.033Z" transform="translate(-38.19 -266.351)" fill="#489ddc"/><g transform="translate(5.072 10.893)"><path d="M75.224,285.388c-3.645.008-7.279-.277-10.925-.251.683-.784,1.363-1.568,2.054-2.346a34.149,34.149,0,0,0,2.849-3.31c.051-.075-.058-.182-.132-.125a26.565,26.565,0,0,0-2.758,2.766q-1.369,1.454-2.725,2.921c-1.394,1.507-2.758,3.04-4.12,4.575,0-.15-.007-.3-.006-.442,0-.637,0-1.276,0-1.914.008-1.236.026-2.472.039-3.708.024-2.505.018-5.025.192-7.525.007-.1-.143-.092-.15,0-.175,2.514-.434,5.017-.558,7.534-.061,1.236-.091,2.472-.105,3.711-.008.637-.018,1.277-.014,1.914,0,.348-.01.716.016,1.074-.212.24-.432.474-.644.714-2.909,3.325-5.673,6.762-8.367,10.261,0-.193-.029-.391-.048-.581-.037-.386-.084-.771-.127-1.157-.094-.837-.209-1.669-.333-2.5q-.177-1.172-.373-2.342c-.147-.875-.362-1.763-.429-2.649a.074.074,0,1,0-.146.024,23.345,23.345,0,0,1,.305,2.668q.112,1.2.222,2.406c.071.8.144,1.6.227,2.408.04.386.074.771.116,1.157.02.193.044.386.07.577a1.113,1.113,0,0,0,.156.459c-.463.6-.928,1.2-1.386,1.811-1.839,2.434-3.644,4.894-5.45,7.353-.056.076.05.18.109.1,1.71-2.229,3.469-4.419,5.252-6.589,1.335.057,2.7-.042,4.029-.064,1.407-.024,2.813-.031,4.22-.035a.075.075,0,0,0,0-.15c-1.406.024-2.812.045-4.219.051-1.281,0-2.59-.058-3.873.011q2.351-2.859,4.741-5.688c.578-.689,1.161-1.376,1.742-2.065a7.962,7.962,0,0,0,1.627.054q.959,0,1.918,0c1.2,0,2.4-.032,3.594-.05,2.476-.039,4.952-.12,7.427-.127a.075.075,0,0,0,0-.15c-2.478-.031-4.957-.137-7.435-.2-1.2-.031-2.4-.07-3.6-.086-.64-.009-1.279-.015-1.918-.022-.364,0-.739-.029-1.108-.016q2.04-2.422,4.085-4.842a.183.183,0,0,0,.076-.089c1.329-1.567,2.658-3.136,4-4.69.184-.213.371-.422.556-.635,3.779.118,7.551-.13,11.329-.057C75.324,285.539,75.321,285.386,75.224,285.388Z" transform="translate(-42.662 -275.957)" fill="#263238"/><path d="M69.844,289.955l-.883.008c-.086,0-.083.134,0,.135l.883.007C69.944,290.106,69.94,289.954,69.844,289.955Z" transform="translate(-39.146 -274.081)" fill="#263238"/><path d="M68.819,289.984q-1.752-.024-3.5-.074-.874-.024-1.751-.056a6.526,6.526,0,0,0-1.63.019c-.057.014-.046.094,0,.109a6.276,6.276,0,0,0,1.632.116q.876.015,1.751.025,1.75.017,3.5.011A.075.075,0,0,0,68.819,289.984Z" transform="translate(-40.084 -274.1)" fill="#263238"/><path d="M59.861,299.691a48.615,48.615,0,0,0-7.172-.646c-.035,0-.032.049,0,.052,2.383.227,4.77.356,7.134.741C59.92,299.854,59.957,299.705,59.861,299.691Z" transform="translate(-41.322 -272.863)" fill="#263238"/><path d="M50.521,290.976c-.024-.209-.048-.417-.075-.625-.061-.469-.135-.938-.209-1.405q-.211-1.335-.465-2.664c-.016-.083-.158-.061-.147.024q.168,1.373.3,2.752c.042.451.076.9.117,1.355a3.776,3.776,0,0,0,.183,1.285c.068.139.278.083.314-.049A1.75,1.75,0,0,0,50.521,290.976Z" transform="translate(-41.729 -274.58)" fill="#263238"/></g></g><g transform="translate(48.74)"><path d="M94.017,267.464c-1.161-2.16-2.638-5.015-5.535-4.833-2.393.15-3.47,2.59-3.982,4.609-1.58,6.24-1.691,12.825-2,19.219-.651,13.516-1.235,27.049-1.321,40.583q-.034,5.627.025,11.254c.035,3.826.025,7.674.268,11.493a.282.282,0,0,0,.564-.014c.02-3.273-.1-6.548-.109-9.821q-.019-4.792.063-9.581.156-9.7.518-19.4c.237-6.426.521-12.85.793-19.274q.2-4.816.416-9.631c.141-3.111.276-6.223.631-9.318.2-1.733.456-3.467.818-5.173a7.2,7.2,0,0,1,1.5-3.467,3.27,3.27,0,0,1,4.229-.306,8.961,8.961,0,0,1,3,3.74C93.933,267.63,94.063,267.55,94.017,267.464Z" transform="translate(-81.17 -261.05)" fill="#263238"/><g transform="translate(5.903)"><path d="M92.535,266.619s-2.381-8.412,2.885-4.206c8.766,7,9.077,22.231,9.077,22.231s-15.583-9.052-17.521-15.021C84.09,260.73,92.535,266.619,92.535,266.619Z" transform="translate(-86.375 -261.235)" fill="#489ddc"/><g transform="translate(3.798 4.532)"><path d="M100.77,277.683c-.144-.233-.3-.458-.443-.689a4.32,4.32,0,0,0,0-.717c0-.362,0-.725,0-1.086q.026-1.065.078-2.131c0-.1-.145-.092-.15,0q-.054,1.046-.084,2.091c-.01.349-.026.7-.037,1.047,0,.136-.022.293-.029.449-.612-.95-1.239-1.89-1.889-2.815-.189-.268-.387-.528-.578-.794a16.343,16.343,0,0,1-.046-2.748c.011-.978.025-1.954.059-2.931,0-.1-.147-.093-.15,0-.028,1.017-.079,2.032-.13,3.048a19.629,19.629,0,0,0-.06,2.176c-1.506-2.046-3.1-4.019-4.718-5.981-.054-.066-.169.026-.116.093,1,1.267,1.96,2.566,2.9,3.881-1.834-.427-3.7-.674-5.561-.942-.1-.015-.133.13-.036.145,1.972.3,3.909.793,5.855,1.222.016,0,.025-.007.039-.007q1.121,1.577,2.218,3.167c.3.431.59.869.885,1.3l-.084-.01c-.2-.028-.4-.059-.607-.083-.431-.052-.863-.086-1.3-.12-.9-.07-1.8-.118-2.7-.167-.1,0-.093.149,0,.151.887.02,1.767.087,2.648.183.465.05.929.113,1.394.168l.609.073.178.025q.748,1.106,1.5,2.208c.88,1.3,1.665,2.7,2.6,3.952a.071.071,0,0,0,.121-.075A40.46,40.46,0,0,0,100.77,277.683Z" transform="translate(-89.724 -265.05)" fill="#263238"/><path d="M96.064,268.364c0-.328.007-.655.007-.982a14.868,14.868,0,0,1,.083-2.061c.015-.109-.149-.125-.149-.017,0,.682-.075,1.362-.107,2.042-.017.34-.017.682-.018,1.022,0,.158,0,.314,0,.472a1.438,1.438,0,0,0,.036.489.068.068,0,0,0,.13,0,1.43,1.43,0,0,0,.02-.451C96.065,268.7,96.064,268.534,96.064,268.364Z" transform="translate(-88.9 -265.231)" fill="#263238"/><path d="M94.789,271.11c-.579-.1-1.173-.129-1.758-.178-.643-.054-1.285-.111-1.924-.194a.075.075,0,1,0-.017.147c1.23.081,2.455.3,3.687.342A.06.06,0,0,0,94.789,271.11Z" transform="translate(-89.551 -264.494)" fill="#263238"/></g></g><path d="M98.663,271.125c.045.064.015.247.015.323v.272c0,.2,0,.391,0,.587s0,.392,0,.589a1.218,1.218,0,0,0,.028.514.034.034,0,0,0,.058,0,.506.506,0,0,0,.029-.244c0-.091,0-.181,0-.271l0-.589c0-.2,0-.392,0-.589v-.271c0-.083-.032-.256.017-.324C98.888,270.985,98.562,270.983,98.663,271.125Z" transform="translate(-78.828 -259.924)" fill="#263238"/></g><g transform="translate(35.167 38.406)"><path d="M95.984,307.2c-3.278-2.46-6.222-6-10.63-6.169-3.638-.143-6.187,2.6-7.646,5.646a31.846,31.846,0,0,0-1.784,5.025q-.987,3.453-1.856,6.938c-1.142,4.57-2.124,9.183-2.918,13.826-.443,2.588-.856,5.186-1.184,7.792a65.9,65.9,0,0,0-.765,7.977.415.415,0,0,0,.814.09c.443-2.18.629-4.429.95-6.631s.659-4.428,1.033-6.635q1.124-6.62,2.611-13.178c.94-4.122,1.863-8.309,3.193-12.326.954-2.878,2.483-6.237,5.592-7.272,4.73-1.574,9.025,2.429,12.486,5.027C95.957,307.368,96.061,307.26,95.984,307.2Z" transform="translate(-69.201 -294.308)" fill="#263238"/><g transform="translate(12.049)"><path d="M91.167,305.643s-3.02-8.626,1.349-10.317c6.548-2.536,23.687,16.769,20.333,46.346,0,0-13.243-7.3-23.022-15.5s-12.28-18.926-7.973-21.7S91.167,305.643,91.167,305.643Z" transform="translate(-79.826 -295.102)" fill="#489ddc"/><g transform="translate(5.776 8.987)"><path d="M109.838,334.269a22.689,22.689,0,0,0-1.592-2.982c-.559-1.012-1.126-2.022-1.71-3.02-1.139-1.946-2.269-3.9-3.434-5.828-.189-.313-.386-.621-.575-.934.026-.115.046-.231.073-.346l.194-.856c.146-.641.257-1.289.379-1.936.237-1.267.457-2.549.8-3.791.025-.092-.128-.121-.149-.026-.27,1.264-.669,2.51-1.043,3.748-.184.609-.38,1.217-.541,1.833-.056.211-.111.423-.166.634-1.408-2.308-2.841-4.605-4.384-6.825a3.1,3.1,0,0,0,.153-.948c.045-.433.1-.865.15-1.3.116-.973.227-1.946.37-2.916a56.815,56.815,0,0,1,1.038-5.667c.024-.094-.124-.119-.147-.026-.472,1.862-.985,3.725-1.338,5.613-.174.927-.338,1.856-.462,2.79-.062.467-.112.937-.16,1.405-.015.138-.036.281-.054.424-.475-.67-.949-1.342-1.447-1.995-1.513-1.99-3.08-3.933-4.662-5.869-.06-.074-.184.011-.122.087a104.286,104.286,0,0,1,7.447,10.875c.433.694.857,1.395,1.287,2.091-.144-.019-.287-.036-.425-.053-.553-.07-1.115-.105-1.67-.158q-1.67-.155-3.344-.289c-2.231-.178-4.467-.315-6.693-.553-.1-.01-.122.137-.026.147,2.256.259,4.5.62,6.746.94q1.657.236,3.317.447a13.174,13.174,0,0,0,2.554.262q1.313,2.135,2.63,4.27a4.922,4.922,0,0,0-.592-.023c-.372-.006-.744,0-1.115,0q-1.038,0-2.073,0c-1.437,0-2.874.029-4.31.027-.1,0-.082.149.015.15,1.456.018,2.908.092,4.361.168q1.034.053,2.067.125c.345.024.688.052,1.033.074a2.132,2.132,0,0,0,.909-.035c.744,1.212,1.495,2.419,2.237,3.632q1.027,1.679,2.087,3.339a26.712,26.712,0,0,0,2.245,3.371C109.752,334.412,109.874,334.363,109.838,334.269Z" transform="translate(-84.571 -303.027)" fill="#263238"/><path d="M101.806,309.5a20.9,20.9,0,0,1-.592,2.812q-.366,1.437-.834,2.846a.094.094,0,1,0,.178.057q.441-1.4.786-2.821c.23-.95.379-1.919.61-2.867C101.977,309.436,101.818,309.407,101.806,309.5Z" transform="translate(-82.849 -302.168)" fill="#263238"/><path d="M94.149,314.741a1.1,1.1,0,0,0-.722-.269c-.416-.059-.834-.113-1.25-.171-.775-.105-1.552-.191-2.328-.282-1.614-.188-3.23-.346-4.842-.549-.1-.012-.122.136-.026.147,1.522.186,3.036.416,4.556.616.745.1,1.489.2,2.235.29.358.042.718.079,1.076.12a3.787,3.787,0,0,1,1.228.211C94.149,314.89,94.2,314.793,94.149,314.741Z" transform="translate(-84.92 -301.628)" fill="#263238"/><path d="M102.186,326.086c-.761-.065-1.53-.088-2.293-.112l-1.157-.035-.555-.018a3.409,3.409,0,0,1-.722-.042c-.105-.027-.117.167-.006.149a3.226,3.226,0,0,1,.677.022l.6.036,1.156.069c.762.046,1.53.091,2.293.1C102.271,326.25,102.279,326.094,102.186,326.086Z" transform="translate(-83.251 -299.965)" fill="#263238"/><path d="M105.789,323.609c.087-.432.169-.866.249-1.3l.469-2.557a.075.075,0,0,0-.149-.026l-.561,2.491c-.094.415-.187.83-.273,1.247l-.119.576a1.6,1.6,0,0,0-.069.611c.014.069.117.126.166.052A3.13,3.13,0,0,0,105.789,323.609Z" transform="translate(-82.185 -300.798)" fill="#263238"/></g></g></g><g transform="translate(23.908 87.047)"><g transform="translate(3.415 8.649)"><path d="M105.118,345.622l-.735,12.224-2.177,36.091H65.2l-2.176-36.091-.735-12.224Z" transform="translate(-62.284 -345.622)" fill="#37474f"/><path d="M105.118,345.622l-.735,12.224H63.019l-.735-12.224Z" transform="translate(-62.284 -345.622)" fill="#263238"/></g><rect width="49.664" height="12.233" fill="#37474f"/></g></g><g transform="translate(74.114 468.618)"><ellipse cx="204.273" cy="17.844" rx="204.273" ry="17.844" fill="#ebebeb"/></g><g transform="translate(126.554 55.998)"><g transform="translate(50.905)"><rect width="191.454" height="191.06" fill="#a6a6a6"/><rect width="191.576" height="11.548" fill="#263238"/><g transform="translate(4.302 3.375)"><path d="M169.594,61.254a2.4,2.4,0,1,1-2.4-2.4A2.4,2.4,0,0,1,169.594,61.254Z" transform="translate(-164.794 -58.854)" fill="#c7c7c7"/><path d="M178.235,61.254a2.4,2.4,0,1,1-2.4-2.4A2.4,2.4,0,0,1,178.235,61.254Z" transform="translate(-163.636 -58.854)" fill="#fff"/><path d="M186.876,61.254a2.4,2.4,0,1,1-2.4-2.4A2.4,2.4,0,0,1,186.876,61.254Z" transform="translate(-162.478 -58.854)" fill="#ffc727"/></g><rect width="139.991" height="139.991" transform="translate(25.793 31.095)" fill="#fff"/><g transform="translate(43.263 45.98)"><path d="M251.273,198.314v-1.091A48.675,48.675,0,1,0,202.6,148.548h-1.091a49.766,49.766,0,1,1,49.768,49.766Z" transform="translate(-198.834 -96.108)" fill="#489ddc"/><g transform="translate(0 49.222)"><path d="M204.974,142.982a2.672,2.672,0,1,1-2.672-2.672A2.672,2.672,0,0,1,204.974,142.982Z" transform="translate(-199.086 -139.765)" fill="#fff"/><path d="M202.367,146.263a3.217,3.217,0,1,1,3.217-3.217A3.221,3.221,0,0,1,202.367,146.263Zm0-5.344a2.126,2.126,0,1,0,2.126,2.126A2.129,2.129,0,0,0,202.367,140.92Z" transform="translate(-199.15 -139.829)" fill="#489ddc"/></g><path d="M233.579,134.3a5.8,5.8,0,1,1-5.8-5.8A5.8,5.8,0,0,1,233.579,134.3Z" transform="translate(-196.091 -92.126)" fill="#489ddc"/><circle cx="5.802" cy="5.802" r="5.802" transform="translate(67.388 36.369)" fill="#489ddc"/><g transform="translate(98.442 49.222)"><circle cx="2.672" cy="2.672" r="2.672" transform="translate(0.546 0.545)" fill="#fff"/><path d="M289.175,146.263a3.217,3.217,0,1,1,3.218-3.217A3.221,3.221,0,0,1,289.175,146.263Zm0-5.344a2.126,2.126,0,1,0,2.126,2.126A2.128,2.128,0,0,0,289.175,140.92Z" transform="translate(-285.958 -139.829)" fill="#489ddc"/></g><g transform="translate(49.221)"><path d="M248.378,99.578a2.672,2.672,0,1,1-2.672-2.672A2.671,2.671,0,0,1,248.378,99.578Z" transform="translate(-242.49 -96.359)" fill="#fff"/><path d="M245.772,102.86a3.218,3.218,0,1,1,3.217-3.218A3.222,3.222,0,0,1,245.772,102.86Zm0-5.345a2.126,2.126,0,1,0,2.126,2.126A2.129,2.129,0,0,0,245.772,97.515Z" transform="translate(-242.554 -96.424)" fill="#489ddc"/></g><path d="M248.378,186.367a2.672,2.672,0,1,1-2.672-2.672A2.671,2.671,0,0,1,248.378,186.367Z" transform="translate(-193.269 -84.728)" fill="#ffc727"/><g transform="translate(50.845 99.175)"><g transform="translate(0 2.04)"><path d="M256.208,192.364a30.469,30.469,0,0,1,2.12,13.532l-4.972,2.429a30.46,30.46,0,0,1-9.37-9.992c3.709-5.349.721-11.8.721-11.8l.516-.252,4.942,10.119a1.734,1.734,0,1,0,.716-.349l-4.942-10.119.515-.252S249.708,192,256.208,192.364Z" transform="translate(-243.986 -185.677)" fill="#263238"/><rect width="8.175" height="3.441" transform="translate(7.888 22.622) rotate(-26.034)" fill="#263238"/></g><g transform="translate(18.119 22.008)"><rect width="0.635" height="6.123" transform="translate(2.744)" fill="#263238"/><rect width="6.123" height="0.635" transform="translate(0 2.744)" fill="#263238"/><rect width="6.123" height="0.635" transform="translate(0.672 5.002) rotate(-45)" fill="#263238"/><rect width="0.635" height="6.123" transform="translate(0.672 1.121) rotate(-45)" fill="#263238"/></g><path d="M264.909,195.667c-4.824-.121-6.445-3.272-7.873-6.051-.79-1.538-1.538-2.989-2.745-3.693-3.853-2.248-7.494,1.03-7.647,1.171l-.862-.933c.044-.041,4.476-4.061,9.148-1.336,1.528.891,2.356,2.5,3.235,4.211,1.39,2.7,2.7,5.26,6.776,5.362Z" transform="translate(-243.745 -183.878)" fill="#263238"/></g><path d="M257.579,132.454a10.9,10.9,0,0,1-21.8,0Z" transform="translate(-194.241 -91.595)" fill="#489ddc"/></g></g><g transform="translate(0 40.166)"><rect width="33.389" height="125.556" fill="#455a64"/><g transform="translate(1.583 1.399)"><rect width="0.273" height="2.918" transform="translate(0 0.193) rotate(-44.998)" fill="#ebebeb"/><rect width="2.918" height="0.273" transform="translate(0 2.063) rotate(-45)" fill="#ebebeb"/></g><g transform="translate(29.215 1.307)"><rect width="0.273" height="1.732" transform="translate(0 1.225) rotate(-45.013)" fill="#ebebeb"/><rect width="1.732" height="0.273" transform="translate(0 1.225) rotate(-45)" fill="#ebebeb"/><g transform="translate(1.351 0)"><rect width="0.273" height="1.732" transform="translate(0 1.225) rotate(-45)" fill="#ebebeb"/><rect width="1.732" height="0.273" transform="translate(0 1.225) rotate(-45)" fill="#ebebeb"/></g></g><path d="M124.716,111.215l-1.435-3.466-2.563,1.989V98.6l7.787,7.868-3.259.486,1.429,3.45Zm-1.2-4.335,1.5,3.623.953-.395-1.488-3.591,2.886-.43-6.1-6.16v8.7Z" transform="translate(-115.493 -90.319)" fill="#ebebeb"/><path d="M140.369,106.657l1.458,3.521-1.456.6-1.466-3.544L136.5,109.1V99.185l6.943,7.014Z" transform="translate(-113.378 -90.24)" fill="#ebebeb"/><g transform="translate(4.264 27.161)"><rect width="11.027" height="0.819" transform="matrix(0.615, -0.789, 0.789, 0.615, 0.995, 11.574)" fill="#ebebeb"/><path d="M123.927,118.994l-1.658.306-.37,1.747-.37-1.747-1.658-.307,1.651-.4.378-1.65.378,1.65Z" transform="translate(-119.871 -115.022)" fill="#ebebeb"/><path d="M126.971,116.455l-.973.18-.217,1.025-.217-1.025-.973-.18.969-.237.222-.969.222.969Z" transform="translate(-119.238 -115.249)" fill="#ebebeb"/><path d="M127.862,121.249l-.554.1-.124.584-.124-.584-.554-.1.552-.135.126-.552.126.552Z" transform="translate(-118.982 -114.537)" fill="#ebebeb"/></g><g transform="translate(21.358 61.163)"><rect width="11.027" height="0.819" transform="matrix(0.615, -0.789, 0.789, 0.615, 0, 8.699)" fill="#ebebeb"/></g><g transform="translate(19.304 27.197)"><path d="M140.369,124.075l1.458,3.521-1.456.6-1.466-3.544-2.406,1.867V116.6l6.943,7.014Z" transform="translate(-132.682 -115.103)" fill="#ebebeb"/><path d="M136.275,122.9a3.206,3.206,0,0,1-2.931-1.251c-.575-1.129-.141-3.512,3.41-5.449,2.827-1.545,5.639-.907,6.335.208a2.291,2.291,0,0,1,.11,1.892,6.864,6.864,0,0,1-3.9,3.929h0A7.553,7.553,0,0,1,136.275,122.9Zm3.949-7.079a6.777,6.777,0,0,0-3.208.856c-3.188,1.74-3.646,3.821-3.185,4.724s2.676,1.462,5.246.328h0a6.406,6.406,0,0,0,3.6-3.59,1.776,1.776,0,0,0-.053-1.442A2.883,2.883,0,0,0,140.224,115.82Z" transform="translate(-133.133 -115.281)" fill="#ebebeb"/><path d="M134.7,122.932a1.27,1.27,0,0,1-1.043-.523h0a1.167,1.167,0,0,1-.159-1.255,1.637,1.637,0,0,1,1.414-.845,1.224,1.224,0,0,1,1.133.641,1.275,1.275,0,0,1-.5,1.731A1.593,1.593,0,0,1,134.7,122.932Zm-.606-.849a.844.844,0,0,0,1.16.137.735.735,0,0,0,.308-1.014.67.67,0,0,0-.642-.352,1.107,1.107,0,0,0-.933.54.629.629,0,0,0,.107.688Z" transform="translate(-133.1 -114.607)" fill="#ebebeb"/><path d="M136.007,124.17l-.327-.438c.163-.121.353-.305.328-.488-.043-.32-.648-.655-.932-.768l.2-.508c.12.046,1.176.479,1.275,1.2A1.078,1.078,0,0,1,136.007,124.17Z" transform="translate(-132.873 -114.384)" fill="#ebebeb"/></g><g transform="translate(4.077 44.947)"><path d="M121.1,134.9a13.517,13.517,0,0,1,5.371-2.84l1.735,1.735a13.517,13.517,0,0,1-2.84,5.37,5.718,5.718,0,0,0-5.055,1.4l-.179-.18,3.531-3.531a.769.769,0,1,0-.249-.249l-3.531,3.531-.18-.18A5.713,5.713,0,0,0,121.1,134.9Z" transform="translate(-119.706 -130.781)" fill="#ebebeb"/><rect width="3.625" height="1.526" transform="translate(8.707 3.642) rotate(-135)" fill="#ebebeb"/></g><rect width="13.364" height="12.483" transform="translate(17.781 43.241)" fill="#263238"/><g transform="translate(18.417 44.947)"><g transform="translate(2.808)"><path d="M136.226,134.9a13.506,13.506,0,0,1,5.37-2.84l1.735,1.735a13.517,13.517,0,0,1-2.84,5.37,5.715,5.715,0,0,0-5.054,1.4l-.18-.18,3.531-3.531a.769.769,0,1,0-.25-.249l-3.531,3.531-.18-.18A5.715,5.715,0,0,0,136.226,134.9Z" transform="translate(-134.827 -130.781)" fill="#ebebeb"/><rect width="3.625" height="1.526" transform="translate(8.707 3.642) rotate(-135)" fill="#ebebeb"/></g><path d="M135.339,140.394a2.123,2.123,0,0,1-1.864-.922c-.383-.609-.624-1.785.406-3.932a2.022,2.022,0,0,0,.16-1.864,2.449,2.449,0,0,0-1.69-.957l.061-.542a2.976,2.976,0,0,1,2.106,1.235,2.522,2.522,0,0,1-.145,2.366c-.922,1.921-.746,2.912-.437,3.4a1.609,1.609,0,0,0,1.4.668Z" transform="translate(-132.351 -130.766)" fill="#ebebeb"/></g><g transform="translate(4.406 60.698)"><path d="M127.824,144.822v2.227h-.742a.3.3,0,0,1-.313-.247c-.012-.078-.039-.247-.065-.534h-1.915v6.683c.156.026.287.052.378.065s.156.04.2.04a.459.459,0,0,1,.077.012.385.385,0,0,1,.339.4v.768h-3.725v-.768a.375.375,0,0,1,.325-.4.5.5,0,0,1,.078-.012c.039,0,.1-.026.2-.04s.221-.039.378-.065v-6.7h-1.915c-.025.287-.051.468-.065.547a.285.285,0,0,1-.3.247H120v-2.227h7.828Z" transform="translate(-119.996 -144.822)" fill="#ebebeb"/></g><path d="M129.193,170.256h-9.557V160.7h9.557Zm-8.74-.818h7.921v-7.92h-7.921Z" transform="translate(-115.638 -81.996)" fill="#ebebeb"/><g transform="translate(18.34 109.369)"><path d="M142.325,195.128h-8.251v-7.387h8.251Zm-7.432-.819h6.614v-5.751h-6.614Z" transform="translate(-132.043 -187.741)" fill="#ebebeb"/><path d="M138.034,196.787h-5.751v-5.176h5.751Zm-4.932-.818h4.113V192.43H133.1Z" transform="translate(-132.283 -187.222)" fill="#ebebeb"/><rect width="2.941" height="0.546" transform="translate(6.383 3.599) rotate(-45)" fill="#ebebeb"/><path d="M140.451,190.533h-.546v-1.09h-1.044V188.9h1.59Z" transform="translate(-131.401 -187.586)" fill="#ebebeb"/></g><g transform="translate(19.512 75.562)"><path d="M142.879,170.631h-9.562v-9.562h4.462a3.625,3.625,0,0,1,7.217.485,3.655,3.655,0,0,1-2.117,3.3Zm-8.743-.819h7.924V164.3l.268-.1a2.81,2.81,0,0,0-.956-5.451,2.792,2.792,0,0,0-2.806,2.74l-.01.4h-4.42Z" transform="translate(-133.317 -157.93)" fill="#ebebeb"/><path d="M138.977,163.066c-1.425-.237-1.625,1.264-1.648,1.851a1.651,1.651,0,0,1-1.151,1.264s2.212.61,3.318-.519A1.487,1.487,0,0,0,138.977,163.066Z" transform="translate(-132.934 -157.245)" fill="#ebebeb"/><path d="M143.532,159.019l-3.573,5.05a1.542,1.542,0,0,0-1.108-.847,2.273,2.273,0,0,0-.25-.022l2.964-4.181Z" transform="translate(-132.609 -157.784)" fill="#ebebeb"/></g><g transform="translate(4.164 94.617)"><rect width="3.552" height="7.239" transform="translate(5.338 1.506) rotate(45)" fill="#ebebeb"/><rect width="3.552" height="1.535" transform="translate(6.844 0) rotate(45)" fill="#ebebeb"/><path d="M119.782,183.3l.2-2.67.545.04-.153,2.038,2.038-.153.04.545Z" transform="translate(-119.782 -173.943)" fill="#ebebeb"/></g><g transform="translate(18.395 95.868)"><g transform="translate(0.027)"><path d="M140.393,179.689a1.927,1.927,0,1,1,1.926-1.927A1.93,1.93,0,0,1,140.393,179.689Zm0-3.035a1.108,1.108,0,1,0,1.108,1.108A1.11,1.11,0,0,0,140.393,176.655Z" transform="translate(-131.537 -175.836)" fill="#ebebeb"/><path d="M132.356,182.387l7.557-4.162,1.3.735s-5.5,3.362-6.479,3.72A3.8,3.8,0,0,1,132.356,182.387Z" transform="translate(-132.356 -175.516)" fill="#ebebeb"/></g><g transform="translate(0 0.869)"><path d="M140.368,183.469a1.926,1.926,0,1,1,1.927-1.927A1.929,1.929,0,0,1,140.368,183.469Zm0-3.035a1.108,1.108,0,1,0,1.108,1.108A1.11,1.11,0,0,0,140.368,180.435Z" transform="translate(-131.513 -176.199)" fill="#ebebeb"/><path d="M132.332,177l7.557,4.161,1.3-.735s-5.5-3.362-6.478-3.72A3.8,3.8,0,0,0,132.332,177Z" transform="translate(-132.332 -176.603)" fill="#ebebeb"/></g></g><g transform="translate(4.05 110.283)"><path d="M119.682,195.921v-7.088l4.521,3.544Zm.819-5.406v3.724l2.376-1.862Z" transform="translate(-119.682 -188.509)" fill="#ebebeb"/><path d="M128.523,188.926V195.8l-4.377-3.439Z" transform="translate(-119.084 -188.496)" fill="#ebebeb"/><path d="M124.084,196.187h-.273V195.1h.273Zm0-2.183h-.273v-1.091h.273Zm0-2.182h-.273V190.73h.273Zm0-2.183h-.273v-1.092h.273Z" transform="translate(-119.129 -188.547)" fill="#ebebeb"/></g></g><g transform="translate(247.063 9.062)"><rect width="68.764" height="40.797" fill="#455a64"/><g transform="translate(1.582 1.399)"><path d="M337.435,67.359,335.371,65.3l.194-.193,2.063,2.063Z" transform="translate(-335.371 -65.103)" fill="#ebebeb"/><path d="M335.565,67.359l-.194-.193,2.063-2.063.194.193Z" transform="translate(-335.371 -65.103)" fill="#ebebeb"/></g><g transform="translate(64.435 1.307)"><g transform="translate(0 0)"><rect width="0.273" height="1.732" transform="translate(0 1.225) rotate(-44.989)" fill="#ebebeb"/><rect width="1.732" height="0.273" transform="translate(0 1.225) rotate(-44.998)" fill="#ebebeb"/></g><g transform="translate(1.35)"><rect width="0.273" height="1.732" transform="matrix(0.707, -0.707, 0.707, 0.707, 0, 1.225)" fill="#ebebeb"/><rect width="1.732" height="0.273" transform="matrix(0.707, -0.707, 0.707, 0.707, 0, 1.225)" fill="#ebebeb"/></g></g><rect width="0.273" height="26.807" transform="translate(12.152 6.493)" fill="#ebebeb"/><rect width="0.273" height="26.807" transform="translate(22.042 6.493)" fill="#ebebeb"/><g transform="translate(4.394 8.964)"><path d="M340.716,71.773a3.368,3.368,0,0,0-2.865,1.623,3.536,3.536,0,0,0,2.865,1.632,3.661,3.661,0,0,0,2.909-1.632A3.506,3.506,0,0,0,340.716,71.773Zm0,2.958a1.33,1.33,0,1,1,1.326-1.326A1.328,1.328,0,0,1,340.716,74.731Z" transform="translate(-337.851 -71.773)" fill="#ebebeb"/><path d="M341.522,73.329a1.028,1.028,0,1,1-1.027-1.027A1.028,1.028,0,0,1,341.522,73.329Z" transform="translate(-337.635 -71.702)" fill="#ebebeb"/></g><g transform="translate(4.394 18.29)"><path d="M340.716,80a3.368,3.368,0,0,0-2.865,1.622,3.536,3.536,0,0,0,2.865,1.632,3.661,3.661,0,0,0,2.909-1.632A3.506,3.506,0,0,0,340.716,80Zm0,2.958a1.331,1.331,0,1,1,1.326-1.326A1.328,1.328,0,0,1,340.716,82.955Z" transform="translate(-337.851 -79.997)" fill="#ebebeb"/><path d="M341.522,81.552a1.028,1.028,0,1,1-1.027-1.027A1.028,1.028,0,0,1,341.522,81.552Z" transform="translate(-337.635 -79.926)" fill="#ebebeb"/></g><g transform="translate(4.394 27.199)"><path d="M340.716,87.853a3.368,3.368,0,0,0-2.865,1.622,3.536,3.536,0,0,0,2.865,1.633,3.661,3.661,0,0,0,2.909-1.633A3.506,3.506,0,0,0,340.716,87.853Zm0,2.958a1.331,1.331,0,1,1,1.326-1.326A1.328,1.328,0,0,1,340.716,90.811Z" transform="translate(-337.851 -87.853)" fill="#ebebeb"/><path d="M341.522,89.41a1.028,1.028,0,1,1-1.027-1.029A1.028,1.028,0,0,1,341.522,89.41Z" transform="translate(-337.635 -87.782)" fill="#ebebeb"/></g><rect width="63.082" height="0.273" transform="translate(2.841 15.305)" fill="#ebebeb"/><rect width="63.082" height="0.273" transform="translate(2.841 24.254)" fill="#ebebeb"/><g transform="translate(29.464 7.972)"><path d="M360.128,75.457h-.012a.159.159,0,0,1-.158-.156V71.055a.16.16,0,0,1,.32,0v4.082h2.181a.159.159,0,1,1,0,.319Z" transform="translate(-359.958 -70.899)" fill="#ebebeb"/><path d="M365.845,72.261v2.877a.156.156,0,1,1-.312,0v-.475a1.491,1.491,0,0,1-1.2.632,1.6,1.6,0,0,1,0-3.19,1.485,1.485,0,0,1,1.2.625v-.468a.156.156,0,1,1,.312,0Zm-.312,1.438a1.2,1.2,0,1,0-1.2,1.284A1.246,1.246,0,0,0,365.533,73.7Z" transform="translate(-359.574 -70.737)" fill="#ebebeb"/><path d="M366.625,72.255a.151.151,0,0,1,.15-.15.154.154,0,0,1,.163.15v1.732a.976.976,0,0,0,.976.983.988.988,0,0,0,.99-.983V72.255a.114.114,0,0,1,.025-.078c0-.007.008-.012.008-.019s.006-.007.012-.007a.117.117,0,0,1,.059-.04h.013c.007,0,.012-.006.019-.006h.04a.321.321,0,0,1,.077.033.142.142,0,0,1,.04.052.129.129,0,0,1,.019.065v2.786a1.5,1.5,0,0,1-1.516,1.5,1.6,1.6,0,0,1-.658-.15.162.162,0,0,1-.066-.209.168.168,0,0,1,.2-.078,1.181,1.181,0,0,0,.522.124,1.2,1.2,0,0,0,1.2-1.185v-.209a1.32,1.32,0,0,1-.99.457,1.3,1.3,0,0,1-1.289-1.3Z" transform="translate(-359.065 -70.737)" fill="#ebebeb"/><path d="M369.863,73.706a1.545,1.545,0,0,1,3.087-.117v.026a.148.148,0,0,1-.156.143h-2.617a1.254,1.254,0,0,0,1.236,1.225,1.2,1.2,0,0,0,1.03-.579.15.15,0,0,1,.208-.052.167.167,0,0,1,.053.221,1.525,1.525,0,0,1-1.29.722A1.57,1.57,0,0,1,369.863,73.706Zm.332-.254h2.415a1.232,1.232,0,0,0-1.2-1.035A1.246,1.246,0,0,0,370.2,73.452Z" transform="translate(-358.631 -70.737)" fill="#ebebeb"/><path d="M373.44,72.266a.156.156,0,0,1,.163-.156.153.153,0,0,1,.149.156v.7a.643.643,0,0,1,.047-.078,1.54,1.54,0,0,1,1.276-.781.155.155,0,0,1,.157.156.158.158,0,0,1-.157.156,1.15,1.15,0,0,0-.924.522,2.831,2.831,0,0,0-.384.742.094.094,0,0,0-.014.052v1.4a.152.152,0,0,1-.149.156.156.156,0,0,1-.163-.156Z" transform="translate(-358.151 -70.737)" fill="#ebebeb"/><path d="M378.223,71.358l-.644.379a.165.165,0,0,1-.078.026.156.156,0,0,1-.136-.078.151.151,0,0,1,.058-.215l.88-.534a.163.163,0,0,1,.213.059.18.18,0,0,1,.02.117V75.3a.154.154,0,0,1-.156.156.159.159,0,0,1-.156-.156Z" transform="translate(-357.628 -70.897)" fill="#ebebeb"/></g><g transform="translate(29.464 17.363)"><path d="M360.128,83.738h-.012a.159.159,0,0,1-.158-.156V79.335a.16.16,0,0,1,.32,0v4.082h2.181a.162.162,0,0,1,.163.163.16.16,0,0,1-.163.156Z" transform="translate(-359.958 -79.18)" fill="#ebebeb"/><path d="M365.845,80.541v2.878a.156.156,0,1,1-.312,0v-.475a1.491,1.491,0,0,1-1.2.632,1.6,1.6,0,0,1,0-3.19,1.485,1.485,0,0,1,1.2.625v-.469a.156.156,0,0,1,.312,0Zm-.312,1.439a1.2,1.2,0,1,0-1.2,1.283A1.246,1.246,0,0,0,365.533,81.98Z" transform="translate(-359.574 -79.018)" fill="#ebebeb"/><path d="M366.625,80.535a.151.151,0,0,1,.15-.149.154.154,0,0,1,.163.149v1.733a.976.976,0,0,0,.976.983.988.988,0,0,0,.99-.983V80.535a.116.116,0,0,1,.025-.078c0-.006.008-.012.008-.019s.006-.007.012-.007a.115.115,0,0,1,.059-.039h.013c.007,0,.012-.006.019-.006h.04a.316.316,0,0,1,.077.032.152.152,0,0,1,.04.052.129.129,0,0,1,.019.065v2.787a1.5,1.5,0,0,1-1.516,1.5,1.581,1.581,0,0,1-.658-.151.16.16,0,0,1-.066-.208.167.167,0,0,1,.2-.078,1.181,1.181,0,0,0,.522.124,1.2,1.2,0,0,0,1.2-1.185v-.209a1.323,1.323,0,0,1-.99.456,1.3,1.3,0,0,1-1.289-1.3Z" transform="translate(-359.065 -79.018)" fill="#ebebeb"/><path d="M369.863,81.987a1.545,1.545,0,0,1,3.087-.117V81.9a.148.148,0,0,1-.156.143h-2.617a1.254,1.254,0,0,0,1.236,1.224,1.2,1.2,0,0,0,1.03-.579.151.151,0,0,1,.208-.052.168.168,0,0,1,.053.222,1.525,1.525,0,0,1-1.29.722A1.571,1.571,0,0,1,369.863,81.987Zm.332-.254h2.415a1.232,1.232,0,0,0-1.2-1.035A1.245,1.245,0,0,0,370.2,81.733Z" transform="translate(-358.631 -79.018)" fill="#ebebeb"/><path d="M373.44,80.547a.156.156,0,0,1,.163-.156.152.152,0,0,1,.149.156v.7a.566.566,0,0,1,.047-.078,1.537,1.537,0,0,1,1.276-.781.154.154,0,0,1,.157.156.158.158,0,0,1-.157.156,1.149,1.149,0,0,0-.924.521,2.851,2.851,0,0,0-.384.743.094.094,0,0,0-.014.052v1.4a.153.153,0,0,1-.149.156.156.156,0,0,1-.163-.156Z" transform="translate(-358.151 -79.018)" fill="#ebebeb"/><path d="M377.465,83.458l2.13-1.921a1.181,1.181,0,0,0,.39-.872,1.176,1.176,0,0,0-1.171-1.166,1.186,1.186,0,0,0-.795.3l-.221.2a.156.156,0,0,1-.214-.228l.221-.208a1.52,1.52,0,0,1,1.009-.384,1.495,1.495,0,0,1,1.483,1.484,1.5,1.5,0,0,1-.488,1.107l-1.822,1.647h2.155a.16.16,0,0,1,.155.163.158.158,0,0,1-.155.156h-2.565a.142.142,0,0,1-.117-.046A.17.17,0,0,1,377.465,83.458Z" transform="translate(-357.618 -79.18)" fill="#ebebeb"/></g><g transform="translate(29.464 26.753)"><path d="M360.128,92.018h-.012a.159.159,0,0,1-.158-.155V87.616a.16.16,0,0,1,.32,0V91.7h2.181a.159.159,0,1,1,0,.319Z" transform="translate(-359.958 -87.46)" fill="#ebebeb"/><path d="M365.845,88.822V91.7a.156.156,0,0,1-.312,0v-.476a1.491,1.491,0,0,1-1.2.632,1.6,1.6,0,0,1,0-3.19,1.485,1.485,0,0,1,1.2.625v-.468a.156.156,0,1,1,.312,0Zm-.312,1.438a1.2,1.2,0,1,0-1.2,1.284A1.246,1.246,0,0,0,365.533,90.26Z" transform="translate(-359.574 -87.298)" fill="#ebebeb"/><path d="M366.625,88.816a.151.151,0,0,1,.15-.15.154.154,0,0,1,.163.15v1.732a.976.976,0,0,0,.976.983.988.988,0,0,0,.99-.983V88.816a.114.114,0,0,1,.025-.078c0-.007.008-.012.008-.019s.006-.007.012-.007a.108.108,0,0,1,.059-.039h.013c.007,0,.012-.007.019-.007h.04a.374.374,0,0,1,.077.033.142.142,0,0,1,.04.052.129.129,0,0,1,.019.065V91.6a1.5,1.5,0,0,1-1.516,1.5,1.6,1.6,0,0,1-.658-.15.161.161,0,0,1-.066-.209.168.168,0,0,1,.2-.078,1.181,1.181,0,0,0,.522.124,1.2,1.2,0,0,0,1.2-1.185v-.209a1.32,1.32,0,0,1-.99.457,1.3,1.3,0,0,1-1.289-1.3Z" transform="translate(-359.065 -87.298)" fill="#ebebeb"/><path d="M369.863,90.267a1.545,1.545,0,0,1,3.087-.117v.026a.148.148,0,0,1-.156.143h-2.617a1.254,1.254,0,0,0,1.236,1.225,1.2,1.2,0,0,0,1.03-.579.15.15,0,0,1,.208-.052.167.167,0,0,1,.053.221,1.525,1.525,0,0,1-1.29.722A1.57,1.57,0,0,1,369.863,90.267Zm.332-.254h2.415a1.232,1.232,0,0,0-1.2-1.035A1.246,1.246,0,0,0,370.2,90.013Z" transform="translate(-358.631 -87.298)" fill="#ebebeb"/><path d="M373.44,88.827a.155.155,0,0,1,.163-.155.152.152,0,0,1,.149.155v.7a.653.653,0,0,1,.047-.079,1.539,1.539,0,0,1,1.276-.78.154.154,0,0,1,.157.155.159.159,0,0,1-.157.158,1.149,1.149,0,0,0-.924.521,2.848,2.848,0,0,0-.384.742.1.1,0,0,0-.014.052v1.4a.152.152,0,0,1-.149.155.155.155,0,0,1-.163-.155Z" transform="translate(-358.151 -87.298)" fill="#ebebeb"/><path d="M380.2,87.747l-1.178,1.211a1.546,1.546,0,1,1-1.406,2.6.162.162,0,0,1,.228-.229,1.225,1.225,0,0,0,.86.353,1.239,1.239,0,0,0,.866-.353,1.218,1.218,0,0,0,.358-.865,1.224,1.224,0,0,0-1.218-1.218.172.172,0,0,1-.13-.065h-.007a.166.166,0,0,1,0-.235l1.133-1.166h-1.744a.163.163,0,1,1,0-.325h2.129a.161.161,0,0,1,.162.163.208.208,0,0,1-.052.124Z" transform="translate(-357.597 -87.46)" fill="#ebebeb"/></g><rect width="2.042" height="7.74" transform="translate(22.994 16.046)" fill="#455a64"/><rect width="2.042" height="7.74" transform="translate(22.994 24.955)" fill="#263238"/><rect width="2.042" height="7.74" transform="translate(22.994 6.721)" fill="#ffc727"/><rect width="11.988" height="0.273" transform="translate(2.841 37.506)" fill="#ebebeb"/><g transform="translate(15.18 7.579)"><rect width="4.151" height="3.487" transform="translate(0 2.536)" fill="#ebebeb"/><path d="M350.956,73.472h-.483v-.916c0-1.009-.357-1.521-1.06-1.521-1.142,0-1.154,1.349-1.154,1.406v1.031h-.483V72.441a1.712,1.712,0,0,1,1.638-1.889c1,0,1.543.712,1.543,2Z" transform="translate(-347.307 -70.552)" fill="#ebebeb"/></g><path d="M387.486,75.581a2.122,2.122,0,1,1,2.122-2.122A2.124,2.124,0,0,1,387.486,75.581Zm0-3.971a1.85,1.85,0,1,0,1.85,1.85A1.851,1.851,0,0,0,387.486,71.609Z" transform="translate(-327.089 -62.868)" fill="#ebebeb"/><path d="M387.486,83.8a2.122,2.122,0,1,1,2.122-2.123A2.125,2.125,0,0,1,387.486,83.8Zm0-3.971a1.849,1.849,0,1,0,1.85,1.848A1.85,1.85,0,0,0,387.486,79.833Z" transform="translate(-327.089 -61.766)" fill="#ebebeb"/><path d="M387.486,92.027a2.122,2.122,0,1,1,2.122-2.122A2.124,2.124,0,0,1,387.486,92.027Zm0-3.971a1.849,1.849,0,1,0,1.85,1.85A1.851,1.851,0,0,0,387.486,88.056Z" transform="translate(-327.089 -60.664)" fill="#ebebeb"/></g></g><g transform="translate(165.227 147.861)"><g transform="translate(120.455 61.622)"><g transform="translate(2.676 136.316)"><path d="M284.8,311.43l-2.933,17.586L262,436.3h-3.2L273.24,329.017l2.135-17.586Z" transform="translate(-258.793 -311.43)" fill="#c7c7c7"/><path d="M273.668,311.43h9.42l-2.933,17.586h-8.622Z" transform="translate(-257.086 -311.43)" fill="#a6a6a6"/></g><g transform="translate(65.063 136.316)"><path d="M339.809,436.3h-3.2L316.741,329.017l-2.933-17.586h9.42l2.135,17.586Z" transform="translate(-313.808 -311.43)" fill="#c7c7c7"/><path d="M323.228,311.43l2.135,17.586h-8.622l-2.933-17.586Z" transform="translate(-313.808 -311.43)" fill="#a6a6a6"/></g><g transform="translate(124.653 136.316)"><path d="M392.357,436.3h-3.2L369.288,329.017l-2.933-17.586h9.42l2.135,17.586Z" transform="translate(-366.355 -311.43)" fill="#c7c7c7"/><path d="M377.91,329.017h-8.622l-2.933-17.586h9.42Z" transform="translate(-366.355 -311.43)" fill="#a6a6a6"/></g><path d="M402.009,335.8H256.434V320.464h54.5l18.315-129.24h67.214Z" transform="translate(-256.434 -191.224)" fill="#c7c7c7"/><path d="M393.528,305.191H256.434V320.53h137.64Z" transform="translate(-256.434 -175.95)" fill="#dbdbdb"/><path d="M386.354,335.8h-7.935l-5.172-144.58H380.8Z" transform="translate(-240.779 -191.224)" fill="#dbdbdb"/></g><g transform="translate(0 117.141)"><g transform="translate(91.15 2.164)"><g transform="translate(24.554 131.252)"><path d="M254.442,450.153c2.819.266,79.555-18.094,81.97-20.586.295-.277-1.22-7.252-3.446-16.762l-.044-.187c-1.389-6.03-23.8-54.787-23.8-54.787L259.39,371.753l22.647,45.235s-9.356,6.769-17.377,13.2c-.009.014-.019.016-.017.027-4.955,3.946-9.224,7.491-10.13,8.639C252.168,441.847,251.629,449.91,254.442,450.153Z" transform="translate(-252.204 -357.831)" fill="#d3766a"/><path d="M254.446,446.018c2.812.268,79.546-18.094,81.971-20.581.294-.282-1.227-7.249-3.451-16.765l-.045-.18c-.51-2.247-3.962-10.441-8.072-19.832-8.184,2.21-37.524,10.168-48.18,13.477l5.363,10.721s-9.353,6.775-17.375,13.2c0,.011-.011.011-.011.023-4.953,3.946-9.23,7.5-10.131,8.638C252.168,437.72,251.623,445.783,254.446,446.018Z" transform="translate(-252.204 -353.699)" fill="#fff"/><g transform="translate(0 45.883)"><path d="M254.231,445.1c2.9.248,79.687-18.323,82.169-20.882.946-.966-.766-13.084-4.984-25.923l-49.491,12.033s-25.262,20.039-27.682,23.138C251.839,436.557,251.331,444.847,254.231,445.1Z" transform="translate(-252.243 -398.292)" fill="#489ddc"/><g transform="translate(2.166 0.29)"><g transform="translate(0 13.129)"><path d="M254.333,438.8c12.8-3.429,64.729-16.053,77.637-18.47.105-.02.122.05.019.081-12.608,3.675-64.641,15.879-77.606,18.6C254.11,439.073,254.063,438.877,254.333,438.8Z" transform="translate(-254.153 -408.757)" fill="#263238"/><path d="M257.78,425.861a10.64,10.64,0,0,1,8.46,1.281,10.309,10.309,0,0,1,4.539,6.177c.016.077-.125.113-.155.036a12.293,12.293,0,0,0-12.805-7.333A.083.083,0,0,1,257.78,425.861Z" transform="translate(-253.675 -408.066)" fill="#263238"/><path d="M275.161,410.985c5.135-1.318,11.548-.944,15.768,2.5.163.133-.028.363-.2.322a73.267,73.267,0,0,0-15.5-2.163A.333.333,0,0,1,275.161,410.985Z" transform="translate(-251.371 -410.104)" fill="#263238"/><path d="M271.985,413.2c5.135-1.318,11.548-.945,15.769,2.495.163.134-.028.364-.2.322a73.258,73.258,0,0,0-15.5-2.161A.333.333,0,0,1,271.985,413.2Z" transform="translate(-251.797 -409.807)" fill="#263238"/><path d="M268.808,415.416c5.135-1.318,11.548-.943,15.768,2.5.163.133-.028.363-.2.321a73.318,73.318,0,0,0-15.5-2.161A.333.333,0,0,1,268.808,415.416Z" transform="translate(-252.223 -409.51)" fill="#263238"/><path d="M265.632,417.632c5.135-1.318,11.547-.944,15.767,2.495.164.134-.027.364-.2.322a73.256,73.256,0,0,0-15.5-2.161A.333.333,0,0,1,265.632,417.632Z" transform="translate(-252.648 -409.213)" fill="#263238"/><path d="M317.679,410.269c5.785-1.381,7.942,7.606,2.147,8.989S311.885,411.652,317.679,410.269Z" transform="translate(-246.097 -410.125)" fill="#263238"/></g><path d="M269.621,407.609c3.647,2.914,8.429,4.148,12.711,5.8a.646.646,0,0,0,.826-.64.141.141,0,0,0,.126-.187,27.816,27.816,0,0,0-7.868-12.042c-2.151-1.856-5.948-3.175-8.032-.382C265.411,402.8,267.49,405.907,269.621,407.609ZM268.35,403.4c-.844-5.729,5.255-2.647,6.786-1.215a29.9,29.9,0,0,1,2.723,3.02,83.482,83.482,0,0,1,4.749,6.931c-2.054-.939-4.17-1.694-6.255-2.557C273.866,408.549,268.815,406.558,268.35,403.4Z" transform="translate(-252.486 -398.548)" fill="#263238"/><path d="M298.963,404.439c-1.218-3.266-5.232-3.065-7.818-1.887a27.8,27.8,0,0,0-10.931,9.35.14.14,0,0,0,.068.214.647.647,0,0,0,.614.846c4.572-.382,9.509-.225,13.828-2C297.245,409.927,300.114,407.528,298.963,404.439Zm-11.253,6.525c-2.245.243-4.487.374-6.722.7a83.4,83.4,0,0,1,6.5-5.321,29.854,29.854,0,0,1,3.461-2.134c1.871-.945,8.589-2.192,6.172,3.07C295.792,410.18,290.385,410.675,287.71,410.964Z" transform="translate(-250.664 -398.116)" fill="#263238"/></g></g></g><path d="M279.346,428.362l53.283-15.981S288.711,320.855,290.1,316.2c.925-3.109,66.776-3.325,86.073-20.654,19.976-17.937,4.423-53.168,4.423-53.168l-55.363-.285s.95,11.556-1.165,13.352c-1.395,1.2-77.089,7.859-91.584,35.69C219.324,316.4,279.346,428.362,279.346,428.362Z" transform="translate(-230.591 -242.09)" fill="#263238"/><path d="M290.094,316.2c-.239.785.83,4.075,2.781,8.993l-39.792,48.889c-14.191-32.348-27.532-69.654-20.605-82.941,14.5-27.83,90.186-34.493,91.592-35.69,2.1-1.8,1.156-13.358,1.156-13.358l35.141.181-58.4,71.736C294.931,314.783,290.333,315.387,290.094,316.2Z" transform="translate(-230.591 -242.09)" fill="#263238"/><g transform="translate(44.464 5.138)"><g transform="translate(2.884 156.305)"><path d="M272.429,398.011a33.1,33.1,0,0,1,4.344-1.615c1.537-.523,3.073-1.05,4.619-1.547,3.04-.979,6.092-1.914,9.165-2.783,6.188-1.75,12.387-3.466,18.619-5.05,3.249-.826,10.21-2.628,10.642-2.562.208.033.254.38.068.446-6.022,2.156-12.139,4-18.253,5.867s-12.221,3.7-18.411,5.263c-1.714.433-3.438.818-5.158,1.229a38.723,38.723,0,0,1-5.477,1.174C272.41,398.45,272.235,398.11,272.429,398.011Z" transform="translate(-272.344 -384.453)" fill="#455a64"/></g><path d="M372.363,252.316c-.17-1.848-.376-3.692-.586-5.537-.025-.213-.359-.211-.338.007.738,7.487,1.5,15.152.119,22.612a32.246,32.246,0,0,1-9.889,17.919c-10.984,10.242-26.342,13.259-40.652,15.694-8.2,1.395-16.442,2.466-24.716,3.278q-6.08.6-12.177.975c-4.028.251-8.064.29-12.091.514-1.272.07-2.408.652-2.209,2.106a10.147,10.147,0,0,0,.968,2.542c.429.98.863,1.957,1.3,2.936q2.424,5.484,4.876,10.957,5.055,11.276,10.255,22.488,10.32,22.26,21.413,44.155,1.374,2.717,2.759,5.431c.06.118.23.01.175-.108q-10.594-22.169-20.929-44.465c-3.415-7.378-6.838-14.752-10.215-22.148q-2.533-5.545-5.036-11.1-1.252-2.779-2.5-5.561l-1.242-2.784c-.344-.771-1.6-2.62-.733-3.341.577-.482,1.777-.316,2.469-.336,1.072-.032,2.142-.071,3.213-.107q3.052-.1,6.1-.252,6.178-.311,12.343-.845c8.047-.7,16.069-1.717,24.045-3,14.221-2.287,29.685-4.868,41.066-14.414a34.206,34.206,0,0,0,10.917-15.919C373.237,267.011,373.029,259.53,372.363,252.316Z" transform="translate(-269.801 -246.62)" fill="#455a64"/></g></g><g transform="translate(0 102.359)"><path d="M151.03,383.669c2,2,72.816,36.8,76.266,36.418.4-.025,3.686-6.363,8.036-15.109l.086-.172c2.774-5.531,27.966-52.057,27.966-52.057l-44.058-22.3-25.891,45.278s-11.523-.753-21.8-.919c-.016.006-.025,0-.031.01-6.332-.119-11.882-.112-13.312.194C154.576,375.821,149.019,381.687,151.03,383.669Z" transform="translate(-150.161 -330.444)" fill="#d3766a"/><path d="M151.029,379.825c2,2,72.818,36.8,76.273,36.419.4-.019,3.682-6.363,8.03-15.1l.086-.172c.193-.383.391-.777.6-1.166q.206-.429.44-.84c.21-.413.435-.831.661-1.249,1.919-3.637,5.069-9.523,8.538-15.968l-44.923-22.642-7.3,12.775s-11.52-.748-21.8-.919c-.016,0-.026,0-.032.009-6.33-.115-11.883-.111-13.307.2C154.58,371.983,149.014,377.842,151.029,379.825Z" transform="translate(-150.161 -326.603)" fill="#fff"/><g transform="translate(0 28.248)"><path d="M150.656,378.594c2.075,2.04,73.065,36.706,76.609,36.318,1.344-.141,7.754-10.567,12.692-23.145l-45.8-22.295s-32.238-.675-36.078.169S148.582,376.553,150.656,378.594Z" transform="translate(-150.214 -353.496)" fill="#489ddc"/><g transform="translate(2.605)"><g transform="translate(0 14.227)"><path d="M152.754,375.424c12.042,5.519,60.094,28.915,71.579,35.285.093.052.061.118-.036.075-12.056-5.21-59.917-28.993-71.639-35.165C152.41,375.489,152.5,375.308,152.754,375.424Z" transform="translate(-152.511 -366.896)" fill="#263238"/><path d="M162.294,369.306a10.645,10.645,0,0,1,5.7,6.382,10.311,10.311,0,0,1-.443,7.652c-.037.07-.169.008-.144-.07a12.293,12.293,0,0,0-5.186-13.815A.083.083,0,0,1,162.294,369.306Z" transform="translate(-151.216 -367.712)" fill="#263238"/><path d="M185.22,368.891c4.8,2.26,9.5,6.637,10.554,11.979.041.206-.254.262-.359.12a73.28,73.28,0,0,0-10.563-11.552A.333.333,0,0,1,185.22,368.891Z" transform="translate(-148.192 -367.771)" fill="#263238"/><path d="M181.36,368.572c4.8,2.259,9.5,6.637,10.554,11.978.041.208-.254.263-.359.12a73.271,73.271,0,0,0-10.563-11.552A.333.333,0,0,1,181.36,368.572Z" transform="translate(-148.709 -367.814)" fill="#263238"/><path d="M177.5,368.252c4.8,2.26,9.5,6.639,10.554,11.979.042.208-.253.262-.359.12A73.272,73.272,0,0,0,177.131,368.8.334.334,0,0,1,177.5,368.252Z" transform="translate(-149.227 -367.857)" fill="#263238"/><path d="M173.641,367.933c4.795,2.26,9.5,6.637,10.554,11.979.041.206-.254.262-.359.12a73.274,73.274,0,0,0-10.563-11.552A.334.334,0,0,1,173.641,367.933Z" transform="translate(-149.744 -367.899)" fill="#263238"/><path d="M218.817,395.323c5.337,2.625,1.266,10.923-4.079,8.293S213.471,392.693,218.817,395.323Z" transform="translate(-144.507 -364.292)" fill="#263238"/></g><path d="M183.451,362.645c.95,4.571,3.848,8.571,6.093,12.573a.647.647,0,0,0,1.044.034.141.141,0,0,0,.215-.064,27.825,27.825,0,0,0,1.619-14.294c-.473-2.8-2.556-6.238-5.943-5.416C183.276,356.254,182.9,359.975,183.451,362.645Zm1.706-4.054c3.005-4.95,5.736,1.313,6,3.392a30.009,30.009,0,0,1,.171,4.063,83.28,83.28,0,0,1-.763,8.368c-.982-2.033-2.131-3.965-3.187-5.959C186.121,366.076,183.5,361.32,185.157,358.591Z" transform="translate(-148.393 -355.354)" fill="#263238"/><path d="M208.448,378.308c1.145-3.291-2.074-5.7-4.817-6.439a27.814,27.814,0,0,0-14.383.231.139.139,0,0,0-.084.209.647.647,0,0,0-.068,1.042c3.766,2.622,7.468,5.891,11.925,7.279C203.625,381.441,207.365,381.422,208.448,378.308Zm-12.829-2.149c-1.884-1.245-3.695-2.574-5.624-3.749a83.424,83.424,0,0,1,8.4.05,29.923,29.923,0,0,1,4.027.563c2.043.466,8.014,3.79,2.8,6.3C202.345,380.709,197.864,377.642,195.619,376.159Z" transform="translate(-147.64 -353.252)" fill="#263238"/></g></g></g><g transform="translate(43.496)"><path d="M188.569,380.2l53.125,26.545s41.465-84.305,46.016-89.738c6.065-7.242,85.054,2.986,103.686-20.4,19.267-24.187,2.758-54.224,2.758-54.224l-60.128-.037s-.178,6.669,3.289,16.418c0,0-68.755-4.09-88.211,14.822C234.169,288.1,188.569,380.2,188.569,380.2Z" transform="translate(-188.569 -239.892)" fill="#263238"/><g transform="translate(10.543)"><path d="M333.983,263.255a103.781,103.781,0,0,0-9.564-5.844,39.778,39.778,0,0,0-7.245-2.927c-1.753-.425-2.522-.553-.877.223.941.446,2.745,1.3,4.423,2.1-.316-.01-.629-.019-.932-.035-1.181-.061-2.365-.1-3.546-.133-2.311-.059-4.626-.044-6.938-.058-4.693-.027-9.337.416-14.018.651a.1.1,0,0,0,0,.193c4.67-.152,9.362.1,14.036.077,2.315-.009,4.625.057,6.939.1q1.694.032,3.39.06a27.253,27.253,0,0,0,2.871,0l1.289.611c3.4,1.6,6.792,3.276,10.065,5.12C333.978,263.453,334.079,263.32,333.983,263.255Z" transform="translate(-184.822 -238.31)" fill="#455a64"/><path d="M315.645,240.388c.611,2.837,1.135,5.693,1.846,8.509.325,1.291.646,2.6,1.088,3.861.373,1.061.951,2.277,2.155,2.553,1.388.316,1.828-.866,1.753-2.024-.084-1.292-.37-2.593-.582-3.868-.244-1.471-.491-2.941-.708-4.416-.108-.737-.221-1.474-.321-2.214-.025-.186-.115-1.594-.2-2-.012.034-.035.066-.079.058l-.049-.008a.1.1,0,0,1-.083-.076c-.01-.111-.008-.134.077-.209a.107.107,0,0,1,.128,0c.263.155.27.522.347.794.2.72.411,1.439.594,2.164.344,1.356.678,2.715.974,4.082s.583,2.734.871,4.1a6.369,6.369,0,0,1,.167,3.134,2.387,2.387,0,0,1-2.27,1.725c.045.094.1.183.139.279.113.281.194.579.288.868s.185.587.259.889a2.7,2.7,0,0,1,.067.438c.012.163-.026.321-.011.485a.235.235,0,0,1-.441.142c-.068-.146-.172-.261-.249-.4a2.532,2.532,0,0,1-.186-.479c-.086-.284-.158-.567-.22-.858s-.138-.575-.181-.865c-.026-.172-.026-.347-.035-.521a3.231,3.231,0,0,1-1.6-.671,5.431,5.431,0,0,1-1.593-2.628c-.386-1.185-.674-2.409-.963-3.62a52.7,52.7,0,0,1-1.488-9.125A.26.26,0,0,1,315.645,240.388Z" transform="translate(-182.15 -240.182)" fill="#455a64"/><path d="M341.189,247.5c.208,1.4.322,2.82.6,4.215.269,1.365.591,2.731.992,4.063a14.394,14.394,0,0,0,1.594,3.684,13.587,13.587,0,0,0,2.637,2.872,23.347,23.347,0,0,0,6.484,3.9,30.978,30.978,0,0,0,3.635,1.2c.643.168,1.294.3,1.951.409a4.136,4.136,0,0,1,1.568.42.32.32,0,0,1-.048.547,5.724,5.724,0,0,1-2.926-.006,21.444,21.444,0,0,1-3.1-.653,22.654,22.654,0,0,1-5.816-2.685,18.6,18.6,0,0,1-4.8-4.2,14.018,14.018,0,0,1-2.444-5.87,28.56,28.56,0,0,1-.6-7.883A.137.137,0,0,1,341.189,247.5Z" transform="translate(-178.704 -239.216)" fill="#455a64"/><g transform="translate(0 130.638)"><path d="M198.1,355.388a33.229,33.229,0,0,1,4.267,1.809c1.477.675,2.955,1.347,4.42,2.046,2.883,1.377,5.744,2.792,8.574,4.27,5.7,2.977,11.384,5.985,17,9.113,2.928,1.63,9.226,5.1,9.5,5.444.129.166-.076.449-.256.371-5.858-2.569-11.573-5.425-17.3-8.268s-11.428-5.7-17-8.812c-1.543-.863-3.062-1.767-4.594-2.648a38.627,38.627,0,0,1-4.788-2.908C197.789,355.693,197.9,355.327,198.1,355.388Z" transform="translate(-197.866 -355.381)" fill="#455a64"/></g><path d="M387.871,254.731a.2.2,0,0,0-.4.008c.115,13.056-1.9,27.654-11.951,37.019-11.019,10.269-26.915,11.494-41.22,11.374-8.211-.069-16.407-.278-24.62-.017-8.248.262-16.579.667-24.77,1.714a13.507,13.507,0,0,0-8.411,4.022,43.361,43.361,0,0,0-5.575,8.013q-6.2,10.264-12,20.755-11.541,20.849-21.359,42.582-1.22,2.7-2.415,5.4c-.052.119.124.22.179.1q9.975-21.8,21.474-42.852,5.726-10.533,11.843-20.846c1.916-3.231,3.772-6.539,5.908-9.631,1.888-2.733,4.251-5.3,7.524-6.294a30.77,30.77,0,0,1,6.117-.889q3.147-.289,6.3-.518,6.139-.449,12.293-.672c8.278-.3,16.543-.2,24.822-.051,14.374.261,30.076-.235,41.994-9.384A33.866,33.866,0,0,0,384.676,279.1a61.156,61.156,0,0,0,3.2-19.437C387.916,258.018,387.909,256.374,387.871,254.731Z" transform="translate(-192.87 -238.257)" fill="#455a64"/><path d="M299.858,305.135c-2.933.052-5.864.175-8.8.273a34.7,34.7,0,0,0-7.277.65c-2.218.552-3.982.821-5.8,3.3-2.268,3.1-14.611,26.944-19.794,37.5q-2.155,4.39-4.249,8.81c-1.438,3.046-2.711,6.168-4.144,9.215-.053.111.113.205.169.093,1.269-2.548,2.682-5.027,3.993-7.555s2.587-5.08,3.86-7.631q3.858-7.721,7.729-15.435c2.565-5.094,5.68-10.061,8.284-15.136,2.188-4.265,5.171-10.087,7.255-10.95a34.368,34.368,0,0,1,9.077-2.2c3.232-.227,6.466-.424,9.695-.7A.116.116,0,0,0,299.858,305.135Z" transform="translate(-190.907 -231.477)" fill="#455a64"/></g></g></g><g transform="translate(73.664)"><g transform="translate(78.188)"><path d="M359.595,174.908c2.758,10.9,7.905,23.522,5.384,34.9-1.989,8.915-8.55,15.99-15.784,21.154-15.918,11.348-40.228,17.394-56.067,2.533-6.324-5.938-10.135-20.229-3.1-27.191,3.618-3.568,8.451-5.214,12.9-7.46A20.527,20.527,0,0,0,314.266,185.1c3.3-12.437.484-20.468-.949-32.892a8.881,8.881,0,0,1,1.656-7.016,23.641,23.641,0,0,1,13.578-8.257c5.523-.545,11.734,3.373,16.553,5.618,4.879,2.277,7.5,5.162,8.918,10.4C355.985,160.245,357.737,167.591,359.595,174.908Z" transform="translate(-283.834 -136.885)" fill="#263238"/><path d="M355.946,178.215c-3.172-9.829-6.532-19.58-9.831-29.363-.019-.059-.115-.04-.1.023,2.481,8.128,4.848,16.28,7.436,24.378,2.536,7.937,5.688,15.923,7.52,24.054,4.112,18.252-13.2,29.584-28.962,31.89-.718.1-.469,1.235.253,1.106,13.777-2.46,29.17-10.5,30.245-26.245C363.1,195.447,358.539,186.251,355.946,178.215Z" transform="translate(-277.759 -135.285)" fill="#263238"/><path d="M314.287,149.4a.154.154,0,0,0-.3.068c1.611,10.171,4.445,21.88.511,31.834a26.124,26.124,0,0,1-9.692,12.048c-3.466,2.318-7.451,3.276-11.247,4.867-14.847,6.218-10.7,27.139,2.214,32.976.272.122.493-.339.226-.475-9.208-4.679-14.173-15.6-9.451-25.344,3.79-7.817,14.175-7.718,20.487-12.814C320.115,182,317.605,163.971,314.287,149.4Z" transform="translate(-284.12 -135.223)" fill="#263238"/></g><g transform="translate(0 42.278)"><path d="M344.916,186.59c-6.815,14.727-30.1,48.89-41.315,50.448-9.925,1.378-34.493-4.332-42.771-8.878-3.8-2.09,5.769-30.285,12.156-28.946,7.982,1.673,18.785,5.612,26.184,6.07,2.618.162,15.23-8.845,37.445-23.476C344.877,176.366,348.754,178.3,344.916,186.59Z" transform="translate(-209.169 -173.553)" fill="#d3766a"/><g transform="translate(18.804 15.249)"><path d="M263.915,201.535s-19.761-3.056-20.778-2.869c-1.022.2-.8,1.647-.678,2.791a10.624,10.624,0,0,0,.862,1.9c1.487,2.934,3.994,8.175.011,9.365-5.239,1.564-10.9-10.207-11.491-12.185a6.385,6.385,0,0,1,.156-2.725c.712-3.224,2.95-7.926,6.755-9.138,5.216-1.665,11.177-.94,16.395-.678Z" transform="translate(-231.753 -187.613)" fill="#d3766a"/><path d="M263.886,201.535s-19.761-3.056-20.777-2.869c-1.022.2-.8,1.647-.678,2.791a10.624,10.624,0,0,0,.862,1.9c-4.037-1.958-8.489-4.139-11.323-5.545.712-3.224,2.95-7.926,6.755-9.138,5.216-1.665,11.177-.94,16.395-.678Z" transform="translate(-231.725 -187.613)" fill="#263238"/></g><g transform="translate(4.511 5.781)"><path d="M266.3,228.09c-1.033-.552-6.346-2.121-13.528-4.609-1.93-5.546-7.067-16.146-8.414-18.959-.965-3.385-4.957-10.072-5.268-9.922-.582.282-2.64,1.279-5.233,2.29-3.428,1.329-7.786,2.7-10.9,2.5-1.7-.112-3.016-.678-3.642-1.955-1.119-2.294,3.8-4.955,9.358-8.617,7.558-5,17.116-10.723,21.794-9.344,6.913,2.037,13.733,10.49,16.052,12.769s11.942,6.9,11.942,6.9C276.483,209.514,267.686,228.816,266.3,228.09Z" transform="translate(-219.15 -179.264)" fill="#d3766a"/></g><path d="M241.718,199.691c-.084-.139-.164-.069-.1.1.2.544,1.055,2.981.524,3.244-.924.459-6.454-2.524-8.992-3.369-.137-.045-.213.139-.081.175a40.12,40.12,0,0,1,3.728,1.782c1.165.578,4.583,2.6,5.745,2.017C243.319,203.257,242.053,200.235,241.718,199.691Z" transform="translate(-212.783 -170.755)" fill="#263238"/><path d="M217.025,211.5c-.683.666-1.438,1.209-1.761.9l-.01-.011c-.3-.331.263-1.072.946-1.736Z" transform="translate(-215.172 -169.276)" fill="#263238"/><path d="M224.84,215.453c-.712.7-6.128,1.249-8.129,1.15a.986.986,0,0,1-.833-.832c-.045-1.978.649-7.415,1.363-8.113.485-.472,2.739-1.647,4.93-3.015,2.869-1.776,33.675-30.325,34.182-30.461s1.428.626,1.887,1.1,1.211,1.425,1.063,1.929-29.473,30.571-31.32,33.395C226.557,212.758,225.326,214.98,224.84,215.453Z" transform="translate(-215.077 -174.166)" fill="#37474f"/><path d="M224.7,211.532a.684.684,0,0,1-.273.16,26.113,26.113,0,0,1-4.655-3.74,17.1,17.1,0,0,1-2.883-3.838.867.867,0,0,1,.211-.378,2.823,2.823,0,0,1,.35-.278c.657,1.332,2.635,4.572,7.558,7.686A2.384,2.384,0,0,1,224.7,211.532Z" transform="translate(-214.941 -170.24)" fill="#a6a6a6"/><g transform="translate(8.501 23.772)"><rect width="2.241" height="13.724" rx="0.73" transform="matrix(0.698, 0.716, -0.716, 0.698, 9.828, 0)" fill="#263238"/><rect width="1.309" height="8.713" rx="0.426" transform="matrix(0.698, 0.716, -0.716, 0.698, 6.999, 3.408)" fill="#a6a6a6"/><rect width="0.384" height="1.305" transform="matrix(0.716, -0.698, 0.698, 0.716, 2.819, 7.485)" fill="#263238"/></g><path d="M252.029,220.843c-2.457-.843-4.651-1.567-6.155-2.019a18.523,18.523,0,0,1-11.025-8.152c-2.36-3.47-14.435-7.19-8.561-10.837s16.393,5.281,17.417,3.743a2.4,2.4,0,0,0-.091-1.694C244.962,204.7,250.1,215.3,252.029,220.843Z" transform="translate(-213.896 -170.844)" fill="#d3766a"/><g transform="translate(101.946 4.562)"><path d="M305.07,195.549l24.415,9.787s7.71-10.741,11.138-17.287c4.536-8.662,2.383-12.377-8.793-8.044C324.353,182.9,305.07,195.549,305.07,195.549Z" transform="translate(-305.07 -178.189)" fill="#489ddc"/><path d="M323.979,201.885c.281.058,2.823.98,2.985,1.1.875-1.286,1.734-2.584,2.623-3.86.445-.637.9-1.27,1.365-1.893.513-.687,1.058-1.5,1.512-2.1.07-.1.2-.015.137.087-.51.848-.919,1.465-1.364,2.2-.4.653-.813,1.3-1.24,1.936-.9,1.344-1.81,2.816-2.779,4.113a26.663,26.663,0,0,1-3.278-1.489C323.9,201.944,323.935,201.876,323.979,201.885Z" transform="translate(-302.544 -175.925)" fill="#263238"/><path d="M308.087,192.332c3.652,1.178,7.278,2.406,10.855,3.8q2.677,1.041,5.32,2.161c1.76.747,3.449,1.677,5.216,2.4.1.039.027.193-.069.149-1.725-.812-3.579-1.4-5.347-2.112s-3.553-1.429-5.336-2.129c-3.559-1.4-7.118-2.8-10.707-4.116C307.918,192.444,307.989,192.3,308.087,192.332Z" transform="translate(-304.681 -176.294)" fill="#263238"/></g></g><g transform="translate(109.478 47.207)"><path d="M312.321,253.7l69.367,5.6s-17.753-60.518-32.051-75.794c-6.507-6.953-12.867-5.89-18.255-1.419-1.345,1.118-18.015,22.277-19.428,29.651-1.247,6.517,4.05,13.75,4.05,13.75Z" transform="translate(-311.704 -178.513)" fill="#489ddc"/><g transform="translate(0 14.793)"><path d="M322.6,191.558c-2.089,3.336-4.363,6.55-6.464,9.863a46.091,46.091,0,0,0-2.929,5.068,12.961,12.961,0,0,0-1.433,5.611,9.928,9.928,0,0,1,.111-2.967,13.58,13.58,0,0,1,.889-2.843,38.468,38.468,0,0,1,2.843-5.2c1-1.508,2.028-3.017,3.09-4.475.172-.518.383-1.025.581-1.532a17.624,17.624,0,0,1,1.087-2.151,18.227,18.227,0,0,1-.8,2.262c-.1.21-.186.408-.272.618C320.364,194.364,321.464,192.941,322.6,191.558Z" transform="translate(-311.711 -191.558)" fill="#263238"/></g><path d="M367.865,218.516a46.579,46.579,0,0,1-8.448,2.665,8.969,8.969,0,0,1-2.586.1,4.005,4.005,0,0,1-2.359-1.043,8.263,8.263,0,0,1-2.007-4.706,59.823,59.823,0,0,1-.488-6.022,2.392,2.392,0,0,0-.023-.295c-.057-1.315-.125-2.631-.261-3.935a26.71,26.71,0,0,0-.907-5.012,12.231,12.231,0,0,0-2.291-4.491,9.282,9.282,0,0,0-4.071-2.892,13.864,13.864,0,0,0-5.012-.635,44.183,44.183,0,0,0-6.986.941,1.921,1.921,0,0,1-.249.045l-2.88.612c-2.756.578-5.511,1.179-8.324,1.5.057-.079.113-.159.159-.238,2.733-.318,5.421-.907,8.12-1.486,1-.215,2-.431,3.005-.635a1.764,1.764,0,0,1,.238-.045,41.482,41.482,0,0,1,6.906-.953,14.486,14.486,0,0,1,5.114.635,9.7,9.7,0,0,1,4.207,2.971,12.574,12.574,0,0,1,2.325,4.593,26.708,26.708,0,0,1,.907,5.069c.125,1.236.193,2.472.249,3.708.011.1.011.2.023.295a59.813,59.813,0,0,0,.476,6.226,8.022,8.022,0,0,0,1.928,4.581c1.225,1.2,3.119,1.168,4.752.9a46.944,46.944,0,0,0,8.414-2.62Zm-41.108,29.621a8.163,8.163,0,0,0-4.491-2.449,3.992,3.992,0,0,0-2.506.646,9.313,9.313,0,0,0-1.962,1.69,36.906,36.906,0,0,0-3.912,5.557l.227.023a36.674,36.674,0,0,1,3.844-5.432c1.111-1.225,2.586-2.438,4.287-2.257a7.977,7.977,0,0,1,4.355,2.393c2.234,2.1,4.128,4.536,6.226,6.8l.4.034C331.043,252.843,329.092,250.314,326.756,248.137Zm48.332-9.662c-.238.011-.488.034-.726.057-3.481.374-6.532,2.325-9.061,4.6a67.544,67.544,0,0,0-6.918,7.6c-1.712,2.053-3.4,4.139-5.3,6.01l.329.034c1.848-1.86,3.481-3.89,5.148-5.9a69.37,69.37,0,0,1,6.872-7.587c2.518-2.268,5.523-4.207,8.936-4.581.261-.023.522-.045.782-.057C375.134,238.6,375.111,238.543,375.088,238.475Zm-13.551-35.052a17.008,17.008,0,0,0-8.505,4.74c-.284.261-.556.533-.828.805l-.249.249c-2.041,2.1-3.856,4.411-5.67,6.691-1.656,2.087-3.289,4.2-5.137,6.112-.068.068-.136.147-.215.215-.442.465-.919.919-1.406,1.361a14.05,14.05,0,0,1-4.264,2.71,9.41,9.41,0,0,1-4.978.386,12.563,12.563,0,0,1-4.627-2.007,26.2,26.2,0,0,1-3.9-3.277c-2.449-2.381-4.57-5.092-7.144-7.382a11.58,11.58,0,0,0-2.767-1.882c-.011.079-.023.17-.034.249a10.658,10.658,0,0,1,2.654,1.8c2.54,2.279,4.661,4.99,7.1,7.405a26.9,26.9,0,0,0,3.946,3.311,12.426,12.426,0,0,0,4.729,2.053,9.624,9.624,0,0,0,5.126-.4,14.156,14.156,0,0,0,4.332-2.778c.533-.488,1.055-.987,1.542-1.5.079-.068.147-.147.215-.215,1.8-1.905,3.4-3.98,5.024-6.022a82.257,82.257,0,0,1,5.5-6.543,2.588,2.588,0,0,1,.249-.249c.306-.318.624-.635.953-.941A16.707,16.707,0,0,1,361.6,203.6C361.582,203.536,361.559,203.479,361.537,203.423Zm-7.348,22.737a8.246,8.246,0,0,0-4.445-2.518c-2.733-.737-5.534-1.066-8.29-1.565a2.906,2.906,0,0,0-.306-.057c-.5-.1-1-.193-1.5-.306a26.99,26.99,0,0,1-4.888-1.474,12.488,12.488,0,0,1-4.207-2.778,9.374,9.374,0,0,1-2.4-4.377,14.033,14.033,0,0,1-.057-5.058,60.241,60.241,0,0,1,2.733-9.855c.544-1.644,1.1-3.3,1.6-4.978.023-.079.045-.17.068-.249a43.555,43.555,0,0,0,1.123-4.661,18.582,18.582,0,0,0-.1-7.983l-.17.1a18.439,18.439,0,0,1,.057,7.836,45.278,45.278,0,0,1-1.145,4.752,1.608,1.608,0,0,0-.079.249c-.488,1.622-1.032,3.243-1.576,4.854a61.9,61.9,0,0,0-2.767,9.9,14.286,14.286,0,0,0,.057,5.148,9.606,9.606,0,0,0,2.461,4.513,12.663,12.663,0,0,0,4.309,2.835,26.822,26.822,0,0,0,4.933,1.474c.442.1.9.193,1.338.272.1.023.2.034.306.057,2.824.522,5.681.839,8.437,1.576a7.991,7.991,0,0,1,4.332,2.427c1.055,1.361.805,3.243.352,4.831a56.417,56.417,0,0,1-4.207,9.333,62.542,62.542,0,0,0-4.185,9.378,15.655,15.655,0,0,0-.828,5.058,8.956,8.956,0,0,0,.125,1.225l.159.011a7.5,7.5,0,0,1-.136-1.236,15.448,15.448,0,0,1,.839-5.012,63.252,63.252,0,0,1,4.2-9.344,57.421,57.421,0,0,0,4.241-9.356,9.231,9.231,0,0,0,.408-2.552A4.037,4.037,0,0,0,354.188,226.16Z" transform="translate(-311.698 -178.273)" fill="#fff"/><g transform="translate(6.913 45.512)"><path d="M333.8,218.646a54.483,54.483,0,0,0-8.03.839c-1.315.255-2.609.569-3.9.913-.645.171-1.292.32-1.943.466a8.578,8.578,0,0,1-2.072.265.048.048,0,0,0,0,.1,14.55,14.55,0,0,0,1.975.079,14.15,14.15,0,0,0,1.9-.244c1.336-.246,2.66-.555,3.993-.814,2.691-.525,5.38-1.049,8.1-1.379C333.951,218.854,333.932,218.64,333.8,218.646Z" transform="translate(-317.807 -218.646)" fill="#263238"/><path d="M339.205,221.171a58.755,58.755,0,0,0-6.625-.711c-1.112-.052-2.217-.04-3.329,0-.531.019-1.061.049-1.591.085-.583.04-1.161.158-1.744.188-.061,0-.067.1,0,.1.551-.012,1.107.066,1.657.085s1.108.034,1.661.053c1.108.039,2.215.088,3.324.117,2.219.056,4.428.134,6.644.266C339.318,221.36,339.319,221.189,339.205,221.171Z" transform="translate(-316.727 -218.407)" fill="#263238"/></g></g><g transform="translate(100.303 2.586)"><g transform="translate(19.269 26.932)"><path d="M339.362,182.42c.071,1.254-3.276,10.516-8.709,11.846-1.769.431-4.551-9.125-4.551-9.125l-.366-.658-5.124-9.222,9.4-10.866,1.385-1.481s1.235,2.616,2.741,5.888c.071.152.142.3.214.466.091.183.178.355.254.528.231.486.465.983.688,1.483.17.38.339.748.5,1.154s.339.8.515,1.2A68.264,68.264,0,0,1,339.362,182.42Z" transform="translate(-320.612 -162.914)" fill="#d3766a"/><path d="M334.139,168.8a21.162,21.162,0,0,1-8.4,15.681l-5.124-9.222,9.4-10.866,1.385-1.481S332.633,165.53,334.139,168.8Z" transform="translate(-320.612 -162.914)" fill="#263238"/></g><path d="M305.333,164.3c.6,18.5,11.75,20.237,15.74,20.1,3.622-.121,15.94-.993,17.256-19.461s-7.475-24.04-15.774-24.2S304.736,145.8,305.333,164.3Z" transform="translate(-303.395 -138.954)" fill="#d3766a"/><g transform="translate(3.218 19.398)"><path d="M307.639,158.872a12.153,12.153,0,0,0,1.235-.331,2.067,2.067,0,0,0,1.2-.578.66.66,0,0,0-.044-.8,1.636,1.636,0,0,0-1.63-.294,2.4,2.4,0,0,0-1.457.929A.7.7,0,0,0,307.639,158.872Z" transform="translate(-306.411 -156.202)" fill="#263238"/><path d="M319.034,158.21a12.135,12.135,0,0,1-1.263-.2,2.07,2.07,0,0,1-1.251-.446.658.658,0,0,1-.043-.8,1.632,1.632,0,0,1,1.586-.468,2.4,2.4,0,0,1,1.55.765A.7.7,0,0,1,319.034,158.21Z" transform="translate(-305.131 -156.271)" fill="#263238"/><g transform="translate(11.16 5.153)"><g transform="translate(0 0.124)"><path d="M316.36,162.124c.008-.048.1.057.1.109,0,1.261.211,2.706,1.363,3.088.036.012.034.076-.008.071C316.418,165.24,316.157,163.319,316.36,162.124Z" transform="translate(-316.299 -160.765)" fill="#263238"/><path d="M317.442,160.933c2.022-.218,2.307,3.842.433,4.044C316.031,165.174,315.746,161.114,317.442,160.933Z" transform="translate(-316.297 -160.925)" fill="#263238"/></g><path d="M318.052,161.106c.371.2.746.585,1.177.6.5.015.841-.437,1.136-.869.031-.044.068-.011.073.042.066.777-.177,1.6-1,1.77-.754.16-1.348-.491-1.6-1.259C317.791,161.246,317.9,161.024,318.052,161.106Z" transform="translate(-316.095 -160.815)" fill="#263238"/></g><g transform="translate(0 5.637)"><g transform="translate(1.522)"><path d="M310.305,162.323c-.014-.048-.093.067-.088.118.138,1.254.085,2.714-1.019,3.219-.034.015-.026.078.016.069C310.586,165.426,310.637,163.489,310.305,162.323Z" transform="translate(-307.615 -161.099)" fill="#263238"/><path d="M309.265,161.242c-2.033,0-1.876,4.07.008,4.067C311.127,165.3,310.97,161.239,309.265,161.242Z" transform="translate(-307.8 -161.242)" fill="#263238"/></g><path d="M308.608,161.522c-.313.228-.616.633-1,.672-.443.046-.789-.381-1.09-.792-.032-.042-.062-.007-.061.046.008.779.3,1.577,1.049,1.7.686.109,1.161-.577,1.317-1.359C308.852,161.645,308.734,161.43,308.608,161.522Z" transform="translate(-306.458 -161.223)" fill="#263238"/></g><path d="M317.4,171.22c-.266.328-.518.765-.968.857a3.321,3.321,0,0,1-1.382-.16.045.045,0,0,0-.048.071,1.7,1.7,0,0,0,1.669.5,1.346,1.346,0,0,0,.856-1.222C317.541,171.187,317.442,171.173,317.4,171.22Z" transform="translate(-305.314 -154.271)" fill="#263238"/><g transform="translate(7.1 13.659)"><path d="M312.719,169.837a5.141,5.141,0,0,0,2.051,1.6,2.323,2.323,0,0,0,1.405.093c1.017-.263,1.046-1.2.862-1.995a5.533,5.533,0,0,0-.45-1.222A6.66,6.66,0,0,1,312.719,169.837Z" transform="translate(-312.719 -168.316)" fill="#263238"/><path d="M314.528,171.3a2.323,2.323,0,0,0,1.405.093c1.017-.263,1.046-1.2.862-1.995A2.388,2.388,0,0,0,314.528,171.3Z" transform="translate(-312.477 -168.172)" fill="#ff9cbd"/></g><g transform="translate(4.473 0.417)"><path d="M312.492,168.928s-.15,1.895-.1,2.782c.006.083.222.11.524.11.015,0,.023.009.035,0a4.219,4.219,0,0,0,4-1.813c.057-.091-.061-.176-.138-.116a6.364,6.364,0,0,1-3.784,1.328c-.077-.242.365-3.236.223-3.239a7.71,7.71,0,0,0-1.987.574c.2-3.957,1.029-7.849,1.167-11.79a.121.121,0,0,0-.235-.044,64.151,64.151,0,0,0-1.8,12.645C310.359,169.872,312.146,169.1,312.492,168.928Z" transform="translate(-310.402 -156.638)" fill="#263238"/></g></g><path d="M336.972,166.629c-2.012-.127-7.233-5.685-7.356-15.407,0,0,.714,8.722,1.365,10s-2.918-3.128-3.128-10.967a31.738,31.738,0,0,1-8.059,4.141c-3.706,1.024-5.972.98-6.235.711s5.19-1.964,6.67-3.657c0,0-9.866,4.541-14.407,4.869-.525.039-1.11-10.763,5.924-15.318s18.134.434,21.112,3.333c0,0,3.509.513,7.3,5.719S339.14,166.766,336.972,166.629Z" transform="translate(-303.364 -139.165)" fill="#263238"/><g transform="translate(0 20.448)"><path d="M319.127,168.8a5.819,5.819,0,0,1-5.306-6.275h0a5.812,5.812,0,1,1,5.306,6.275Zm-4.532-6.21a5.034,5.034,0,1,0,5.435-4.6,4.978,4.978,0,0,0-1.25.051A5.043,5.043,0,0,0,314.6,162.588Z" transform="translate(-302.256 -157.197)" fill="#489ddc"/><path d="M308.234,169.3c-2.381.117-4.446-2.393-4.6-5.592a6.947,6.947,0,0,1,1.027-4.118,3.62,3.62,0,0,1,6.19-.3,6.934,6.934,0,0,1,1.424,4c.149,3.029-1.465,5.608-3.658,5.974A3.225,3.225,0,0,1,308.234,169.3Zm-2.927-9.284a6.169,6.169,0,0,0-.9,3.655c.136,2.772,1.837,4.949,3.791,4.854s3.434-2.429,3.3-5.2a6.173,6.173,0,0,0-1.255-3.548,3.1,3.1,0,0,0-2.537-1.305,2.553,2.553,0,0,0-.294.032A3.207,3.207,0,0,0,305.307,160.012Z" transform="translate(-303.621 -157.131)" fill="#489ddc"/><path d="M314.478,162.656l.469-.619c-.916-.7-3-1.591-4.343,0l.593.5C312.4,161.112,314.394,162.593,314.478,162.656Z" transform="translate(-302.685 -156.667)" fill="#489ddc"/><path d="M338.7,163.111l.671-.39c-.183-.312-1.827-3.065-3.573-3.263-1.633-.179-11.985,1.305-12.424,1.369l.111.769c2.968-.429,10.965-1.507,12.226-1.365C336.862,160.36,338.257,162.355,338.7,163.111Z" transform="translate(-300.974 -156.896)" fill="#489ddc"/></g><g transform="translate(30.821 21.375)"><path d="M335.168,169.448a3.854,3.854,0,0,1-.826.321,2.841,2.841,0,0,1-.864.126,2.547,2.547,0,0,1-1.1-.215,3.045,3.045,0,0,1-.759-.454,3.572,3.572,0,0,1-.821-.949l.431-5.033s3.333-6.217,6.1-5.1S338.092,167.948,335.168,169.448Z" transform="translate(-330.799 -158.014)" fill="#d3766a"/><path d="M336.5,160.31a.043.043,0,0,1,.026.081c-2.039,1.124-2.93,3.247-3.475,5.4a1.729,1.729,0,0,1,2.512-.776c.06.033.017.127-.044.121a1.928,1.928,0,0,0-2.025.919,9.323,9.323,0,0,0-.8,1.824c-.077.2-.435.142-.389-.087l.011-.052C331.93,165.014,333.6,160.936,336.5,160.31Z" transform="translate(-330.604 -157.706)" fill="#263238"/><path d="M334.547,167.55a.858.858,0,1,1-.786-.923A.857.857,0,0,1,334.547,167.55Z" transform="translate(-330.526 -156.86)" fill="#fff"/><path d="M335.9,166.2a.606.606,0,1,1-.556-.653A.605.605,0,0,1,335.9,166.2Z" transform="translate(-330.278 -157.004)" fill="#fff"/></g></g><g transform="translate(46.898 48.853)"><g transform="translate(0 0.9)"><path d="M354.252,186.523c12.614,19.543,29.21,52.235,20.174,58.5-14.856,10.3-56.086,13.6-65.516,13.976-4.07.16-10.013-26.832-7.048-30.022s46.19-2.123,46.706-4.739c.291-1.482-2.168-14.612-5.082-30.937C340.127,174.48,350.643,180.932,354.252,186.523Z" transform="translate(-250.559 -180.757)" fill="#d3766a"/><g transform="translate(0 45.15)"><path d="M315.057,222.042s-12.342-1.092-20.445-1.425c-4.521-.187-12.3.185-15.685,1.567-5.062,2.068-24.912,13.948-22.135,18.824,2.514,4.412,18.271-7.96,18.271-7.96s-17,11.078-13,15.835,19.947-11.59,19.947-11.59S264.8,249.068,269.7,253.32c3.707,3.214,18.982-10.778,18.982-10.778s-14.727,10.223-11.058,13.692c4.054,3.833,18.965-8.2,18.965-8.2,10.811,7.247,18.923,6.276,24.612,4.9C322.578,252.6,315.057,222.042,315.057,222.042Z" transform="translate(-256.527 -220.571)" fill="#d3766a"/><g transform="translate(6.142 8.26)"><path d="M279.973,227.863c-2.045,1.228-4.122,2.46-6.05,3.866s-3.809,2.882-5.6,4.461A40.737,40.737,0,0,0,261.951,243c3.622-4.2,10.447-9.348,12.376-10.755s3.779-2.9,5.7-4.309C280.077,227.9,280.022,227.833,279.973,227.863Z" transform="translate(-261.943 -227.855)" fill="#263238"/><path d="M284.163,233.921c-2.544,1.683-5.129,3.259-7.6,5.054s-4.632,3.7-6.959,5.647c-.179.151-.04.2.146.053,2.4-1.856,4.769-3.387,7.194-5.214s4.78-3.751,7.261-5.484C284.246,233.951,284.2,233.895,284.163,233.921Z" transform="translate(-260.927 -227.044)" fill="#263238"/><path d="M288.618,238.412a68.167,68.167,0,0,0-11.026,8.619c-.171.155.016.2.2.046,3.611-2.934,6.423-5.261,10.909-8.526C288.771,238.5,288.7,238.362,288.618,238.412Z" transform="translate(-259.855 -226.442)" fill="#263238"/></g></g><path d="M315.558,221.657c-2.869-.244-5.986-.1-8.938-.213-2.575-.1-4.986-.446-7.494-.61-5.141-.336-12.724-.816-17.836,0-3.7.59-8.289,3.608-10.895,4.837-.116.054-.025.212.088.172,4.888-1.754,7.839-3.855,12.268-4.491,5.091-.73,18.374.27,23.493.564,3,.171,6.3-.135,9.3-.025A.116.116,0,0,0,315.558,221.657Z" transform="translate(-254.676 -175.447)" fill="#263238"/></g><g transform="translate(91.438)"><path d="M365.539,211.432l-26.208-2.249s-2.051-13.06-2.167-20.449c-.152-9.776,3.443-12.125,11.473-3.226C354.008,191.463,365.539,211.432,365.539,211.432Z" transform="translate(-337.159 -179.964)" fill="#489ddc"/><path d="M342.446,207.153c-.277-.075-2.961-.395-3.159-.362-.2-1.542-.386-3.088-.606-4.628-.109-.769-.232-1.539-.367-2.3-.147-.845-.271-1.812-.4-2.558a.081.081,0,1,0-.161.016c.073.988.16,1.721.228,2.575.061.763.142,1.529.237,2.286.2,1.608.349,3.329.631,4.924a26.549,26.549,0,0,0,3.6.146C342.493,207.242,342.49,207.165,342.446,207.153Z" transform="translate(-337.08 -177.651)" fill="#263238"/><path d="M362.739,205.577c-3.791-.591-7.582-1.126-11.4-1.493q-2.858-.276-5.723-.464c-1.907-.125-3.834-.054-5.736-.208a.082.082,0,0,0-.007.163c1.906.052,3.825.365,5.726.522s3.816.323,5.722.5c3.807.355,7.617.7,11.415,1.143C362.839,205.753,362.841,205.593,362.739,205.577Z" transform="translate(-336.806 -176.821)" fill="#263238"/></g></g></g></g><g transform="translate(87.42 272.555)"><rect width="381.932" height="13.582" fill="#37474f"/><g transform="translate(13.671 13.586)"><rect width="354.591" height="13.578" fill="#455a64"/></g><g transform="translate(8.21 27.164)"><path d="M94.332,461.372h-5.49L104.821,270.8h14.012Z" transform="translate(-88.842 -270.796)" fill="#455a64"/><path d="M117.067,270.8l-1.64,12.751H101.994l1.065-12.751Z" transform="translate(-87.079 -270.796)" fill="#263238"/></g><g transform="translate(343.731 27.164)"><path d="M409.212,461.372h5.49L398.724,270.8H384.712Z" transform="translate(-384.712 -270.796)" fill="#455a64"/><path d="M384.714,270.8l1.64,12.751h13.433L398.722,270.8Z" transform="translate(-384.711 -270.796)" fill="#263238"/></g></g><g transform="translate(161.538 219.978)"><g transform="translate(0)"><path d="M168.563,253.052h78.784l-19.136-52.574H149.427Z" transform="translate(-146.63 -200.479)" fill="#263238"/><path d="M166.1,253.052h78.784l-19.136-52.574H146.965Z" transform="translate(-146.96 -200.479)" fill="#37474f"/><path d="M146.961,200.482,166.1,253.055h31.866l-43.629-52.574Z" transform="translate(-146.961 -200.478)" fill="#263238"/><g transform="translate(5.103 37.668)"><path d="M151.461,248.6h9.589l8.606-14.905h-9.589Z" transform="translate(-151.461 -233.695)" fill="#455a64"/><path d="M168.522,233.7V248.6h-8.606Z" transform="translate(-150.328 -233.695)" fill="#37474f"/></g><g transform="translate(58.887 37.668)"><path d="M198.888,248.6h9.589l8.605-14.905h-9.589Z" transform="translate(-198.888 -233.695)" fill="#455a64"/><path d="M215.95,233.7V248.6h-8.605Z" transform="translate(-197.755 -233.695)" fill="#263238"/></g></g><g transform="translate(91.616 10.425)"><g transform="translate(41.572 39.296)"><rect width="63.679" height="2.856" fill="#c7c7c7"/><rect width="32.051" height="2.856" fill="#a6a6a6"/></g><path d="M297.923,251.821h-62.06l-8.114-42.149h62.06Z" transform="translate(-227.75 -209.672)" fill="#c7c7c7"/><path d="M262.916,228.7a3.406,3.406,0,0,1-3.447,3.777,4.205,4.205,0,0,1-4.107-3.777,3.406,3.406,0,0,1,3.446-3.777A4.205,4.205,0,0,1,262.916,228.7Z" transform="translate(-224.051 -207.628)" fill="#a6a6a6"/></g></g><g transform="translate(116.797 159.323)"><g transform="translate(0 0)"><g transform="translate(15.499 3.136)"><path d="M123.216,252.644l-2.041-.267,10.506-79.923,38.141-20.932.99,1.8-37.226,20.43Z" transform="translate(-121.174 -149.521)" fill="#263238"/><path d="M128.719,170.9a2.9,2.9,0,1,0,2.9-2.9A2.9,2.9,0,0,0,128.719,170.9Z" transform="translate(-120.163 -147.313)" fill="#489ddc"/><path d="M161.591,152.66a2.9,2.9,0,1,0,2.9-2.9A2.9,2.9,0,0,0,161.591,152.66Z" transform="translate(-115.758 -149.757)" fill="#489ddc"/></g><g transform="translate(59.973)"><path d="M184.166,155.686l-13.642,15.23-6.3-7.777-3.835-4.742,10.229-11.406,5.131,3.294Z" transform="translate(-160.392 -146.992)" fill="#489ddc"/><path d="M183.712,155.3l-13.642,15.23-6.3-7.777L175.3,149.9Z" transform="translate(-159.939 -146.602)" opacity="0.1"/><path d="M203.475,162.883l-23.79,26.55-15.8-20.154,17.828-19.9Z" transform="translate(-159.924 -146.671)" fill="#489ddc"/></g><path d="M142.707,248.149h-35.2l2.16-11.058h30.88Z" transform="translate(-107.507 -134.917)" fill="#489ddc"/></g></g><g transform="translate(58.674 58.02)"><g transform="translate(239.178)"><path d="M315.2,72.079l-36.393,36.129a6.311,6.311,0,0,1-8.893-8.956L306.3,63.112Z" transform="translate(-267.047 -56.93)" fill="#ebebeb"/><path d="M311.666,72.079,301.322,82.351l-6.879-10.979,8.319-8.261Z" transform="translate(-263.509 -56.93)" fill="#c7c7c7"/><path d="M267.63,106.162h0a1.6,1.6,0,0,1,.007-2.261l8.232-8.175L278.123,98l-8.232,8.174A1.6,1.6,0,0,1,267.63,106.162Z" transform="translate(-267.165 -52.559)" fill="#ebebeb"/><path d="M278.127,97.993l-8.239,8.181a1.6,1.6,0,0,1-2.249-2.276l1.388-1.378,6.839-6.792Z" transform="translate(-267.165 -52.559)" fill="#ebebeb"/><rect width="18.89" height="8.908" transform="matrix(0.705, 0.71, -0.71, 0.705, 37.525, 3.545)" fill="#489ddc"/><path d="M307.915,75.918l-8.9-8.96,7.516-7.464a6.315,6.315,0,0,1,8.929.032h0a6.313,6.313,0,0,1-.032,8.928Z" transform="translate(-262.896 -57.66)" fill="#489ddc"/><path d="M292.454,91.046l-13.52,13.424a6.283,6.283,0,0,1-7.647.949l-1.4,1.389a1.6,1.6,0,0,1-2.249-2.276l1.388-1.378a6.283,6.283,0,0,1,1-7.64l4.563-4.532Z" transform="translate(-267.165 -53.195)" fill="#489ddc"/></g><g transform="translate(0 105.398)"><g transform="translate(5.682 55.695)"><rect width="20.033" height="70.493" transform="translate(70.493) rotate(90)" fill="#ebebeb"/><g transform="translate(11.234 2.491)"><rect width="15.051" height="9.751" transform="translate(57.025 0) rotate(90)" fill="#489ddc"/><rect width="15.051" height="9.75" transform="translate(45.206 0) rotate(90)" fill="#489ddc" opacity="0.8"/><rect width="15.051" height="9.751" transform="translate(33.388 0) rotate(90)" fill="#489ddc" opacity="0.6"/><rect width="15.051" height="9.75" transform="translate(21.569 0) rotate(90)" fill="#489ddc" opacity="0.4"/><rect width="15.051" height="9.751" transform="translate(9.751 0) rotate(90)" fill="#489ddc" opacity="0.2"/></g><g transform="translate(11.234 2.491)" opacity="0.2"><rect width="15.051" height="9.751" transform="translate(57.025 0) rotate(90)"/><rect width="15.051" height="9.75" transform="translate(45.206 0) rotate(90)" opacity="0.8"/><rect width="15.051" height="9.751" transform="translate(33.388 0) rotate(90)" opacity="0.6"/><rect width="15.051" height="9.75" transform="translate(21.569 0) rotate(90)" opacity="0.4"/><rect width="15.051" height="9.751" transform="translate(9.751 0) rotate(90)" opacity="0.2"/></g><path d="M65.63,209.972A1.272,1.272,0,1,1,66.9,208.7,1.272,1.272,0,0,1,65.63,209.972Z" transform="translate(-60.849 -198.683)" fill="#263238"/></g><g transform="translate(0 12.164)"><rect width="20.033" height="70.493" transform="translate(49.846) rotate(45)" fill="#ebebeb"/><g transform="translate(9.705 3.341)"><rect width="15.052" height="9.75" transform="translate(40.323) rotate(45)" fill="#489ddc"/><rect width="15.052" height="9.751" transform="translate(31.966 8.357) rotate(45)" fill="#489ddc" opacity="0.8"/><rect width="15.052" height="9.751" transform="translate(23.609 16.714) rotate(45)" fill="#489ddc" opacity="0.6"/><rect width="15.052" height="9.75" transform="matrix(0.707, 0.707, -0.707, 0.707, 15.252, 25.071)" fill="#489ddc" opacity="0.4"/><rect width="15.052" height="9.751" transform="translate(6.895 33.428) rotate(45)" fill="#489ddc" opacity="0.2"/></g><g transform="translate(9.705 3.341)" opacity="0.1"><rect width="15.052" height="9.75" transform="translate(40.323) rotate(45)"/><rect width="15.052" height="9.751" transform="translate(31.966 8.357) rotate(45)" opacity="0.8"/><rect width="15.052" height="9.751" transform="translate(23.609 16.714) rotate(45)" opacity="0.6"/><rect width="15.052" height="9.75" transform="matrix(0.707, 0.707, -0.707, 0.707, 15.252, 25.071)" opacity="0.4"/><rect width="15.052" height="9.751" transform="translate(6.895 33.428) rotate(45)" opacity="0.2"/></g><path d="M66.53,209.6a1.272,1.272,0,1,1,0-1.8A1.272,1.272,0,0,1,66.53,209.6Z" transform="translate(-55.167 -155.151)" fill="#263238"/></g><g transform="translate(0.447)"><rect width="20.033" height="70.493" fill="#ebebeb"/><g transform="translate(2.491 2.234)"><rect width="15.052" height="9.75" fill="#489ddc"/><rect width="15.052" height="9.751" transform="translate(0 11.819)" fill="#489ddc" opacity="0.8"/><rect width="15.052" height="9.751" transform="translate(0 23.637)" fill="#489ddc" opacity="0.6"/><rect width="15.052" height="9.75" transform="translate(0 35.456)" fill="#489ddc" opacity="0.4"/><rect width="15.052" height="9.751" transform="translate(0 47.275)" fill="#489ddc" opacity="0.2"/></g><path d="M67.784,208.793a2.061,2.061,0,1,1-2.061-2.061A2.061,2.061,0,0,1,67.784,208.793Z" transform="translate(-55.707 -143.081)" fill="#263238"/></g></g><g transform="translate(391.979 126.625)"><path d="M449.354,230.228H401.908V169.321h35.229l12.218,11.605Z" transform="translate(-401.908 -169.321)" fill="#dbdbdb"/><rect width="47.447" height="17.823" transform="translate(0 43.083)" fill="#ebebeb"/><path d="M401.908,209.012l15.01-14.378,13.608,14.378Z" transform="translate(-401.908 -165.929)" fill="#489ddc"/><path d="M418.9,209.975l17.823-22.524,10.349,13.078v9.445Z" transform="translate(-399.63 -166.891)" fill="#489ddc"/><path d="M416.866,186.9a5.319,5.319,0,1,1-5.319-5.319A5.318,5.318,0,0,1,416.866,186.9Z" transform="translate(-401.329 -167.678)" fill="#fff"/><path d="M432.973,169.321l12.218,11.605H432.973Z" transform="translate(-397.744 -169.321)" fill="#ebebeb"/><g transform="translate(10.788 46.969)"><path d="M411.652,217.727a.319.319,0,0,1,.408.205,2.572,2.572,0,0,0,5.019-.776v-5.971a.326.326,0,1,1,.652,0v5.971a3.227,3.227,0,0,1-6.3.992A.337.337,0,0,1,411.652,217.727Z" transform="translate(-411.421 -210.723)" fill="#a6a6a6"/><path d="M419.257,211.186a.33.33,0,0,1,.327-.327h2.693a2.713,2.713,0,0,1,0,5.426l-2.353.027v3.74a.334.334,0,0,1-.667,0Zm3.02,4.46a2.06,2.06,0,0,0,0-4.12h-2.353v4.12Z" transform="translate(-410.37 -210.723)" fill="#a6a6a6"/><path d="M430.75,216.111a.326.326,0,0,1-.34-.327.337.337,0,0,1,.34-.34h2.979a.342.342,0,0,1,.3.34V219.1a.375.375,0,0,1-.122.245,4.879,4.879,0,1,1-3.073-8.609,4.979,4.979,0,0,1,3.088,1.074.339.339,0,0,1,.041.463.354.354,0,0,1-.476.054,4.2,4.2,0,1,0-2.652,7.4,4.276,4.276,0,0,0,2.516-.815v-2.8Z" transform="translate(-409.482 -210.739)" fill="#a6a6a6"/></g></g></g></g></svg>