<svg xmlns="http://www.w3.org/2000/svg" width="479.556" height="481.301" viewBox="0 0 479.556 481.301"><g transform="translate(-27.503 -23.886)"><g transform="translate(49.614 23.886)"><g transform="translate(58.304 36.642)"><path d="M139,131.768h0A36.957,36.957,0,0,1,102.047,94.81h0A36.957,36.957,0,0,1,139,57.853h0A36.958,36.958,0,0,1,175.963,94.81h0A36.958,36.958,0,0,1,139,131.768Z" transform="translate(-102.047 -57.853)" fill="#ebebeb"/><g transform="translate(19.464 16.364)"><rect width="7.649" height="24.71" transform="translate(0.735 12.355)" fill="#fff"/><path d="M124.613,82.142a4.56,4.56,0,1,0-4.523-4.561A4.542,4.542,0,0,0,124.613,82.142Z" transform="translate(-120.09 -73.022)" fill="#fff"/><path d="M139.732,96.269c0-3.474,1.6-5.544,4.66-5.544,2.812,0,4.164,1.987,4.164,5.544V109.24h7.613V93.595c0-6.619-3.752-9.819-8.99-9.819a8.615,8.615,0,0,0-7.447,4.082V84.53H132.4v24.71h7.337Z" transform="translate(-119.121 -72.175)" fill="#fff"/></g></g><path d="M183.266,23.886l5.061,9.253L197.58,38.2l-9.253,5.061-5.061,9.253L178.2,43.261,168.951,38.2,178.2,33.14Z" transform="translate(-38.473 -23.886)" fill="#f5f5f5"/><path d="M378.654,256.273l3.8,6.94,6.94,3.8-6.94,3.8-3.8,6.94-3.8-6.94-6.94-3.8,6.94-3.8Z" transform="translate(-22.802 -5.583)" fill="#ebebeb"/><path d="M388.176,224.508l1.713,3.131,3.131,1.713-3.131,1.713-1.713,3.131-1.712-3.131-3.131-1.713,3.131-1.713Z" transform="translate(-21.588 -8.084)" fill="#e0e0e0"/><path d="M149.067,27.112l1.713,3.131,3.131,1.712-3.131,1.712L149.067,36.8l-1.713-3.131-3.131-1.712,3.131-1.712Z" transform="translate(-40.421 -23.632)" fill="#e0e0e0"/><g transform="translate(0 272.825)"><path d="M70.8,298.331a11.189,11.189,0,0,0,6.533-10.436c-.055-6.18-4.8-11.151-10.592-11.1s-10.448,5.1-10.393,11.277a11.169,11.169,0,0,0,6.821,10.359c-16.115,2.642-15.156,20.18-15.156,20.18l38.183-.318S86.834,300.54,70.8,298.331Z" transform="translate(-48 -276.792)" fill="#e0e0e0"/></g><g transform="translate(365.492 405.188)"><path d="M410.355,404.288a5.943,5.943,0,0,0-11.722.348,5.943,5.943,0,0,0-11.724-.246,8.023,8.023,0,0,0,1.44,5.789,23.887,23.887,0,0,0,4.191,4.429c2.134,1.9,4.106,3.684,6.24,5.583,2.117-1.917,3.917-3.72,6.034-5.637a23.771,23.771,0,0,0,4.152-4.467A8.022,8.022,0,0,0,410.355,404.288Z" transform="translate(-386.806 -399.49)" fill="#ebebeb"/></g><g transform="translate(401.751 159.314)"><g transform="translate(12.157)"><path d="M431.688,194.85l4.091-.811,6.462-14.214-1.62-8.167s6.247-1.643,7.624,9.2,1.642,7.959,1.642,7.959,13.438-2.611,14.786-1.666c.979.686,3.991,13.952,5.566,21.158a7.985,7.985,0,0,1-3.985,8.99,6.012,6.012,0,0,1-1.407.481c-3.35.665-21,1.334-21,1.334l-7.067,1.4Z" transform="translate(-431.688 -171.569)" fill="#e0e0e0"/></g><g transform="translate(0 22.037)"><path d="M420.418,193.322l8.066,27.484,7.007-1.39L430.053,192Z" transform="translate(-420.418 -191.997)" fill="#e0e0e0"/></g></g></g><g transform="translate(27.503 504.127)"><path d="M505.359,469.344c0,.155-106.98.28-238.916.28-131.982,0-238.94-.125-238.94-.28s106.957-.281,238.94-.281C398.379,469.063,505.359,469.188,505.359,469.344Z" transform="translate(-27.503 -469.063)" fill="#263238"/></g><g transform="translate(49.898 112.438)"><g transform="translate(309.345)"><path d="M398.034,189.229h0a43.83,43.83,0,0,1-58.585-20.245h0A43.83,43.83,0,0,1,359.692,110.4h0a43.832,43.832,0,0,1,58.587,20.245h0A43.832,43.832,0,0,1,398.034,189.229Z" transform="translate(-335.022 -105.973)" fill="#489ddc"/><path d="M366.51,158.316a1.03,1.03,0,0,0,1.019-1.327c-.107-.531-.392-1.865-.5-2.425-.148-.764-.332-.964-1.115-1.31a8.635,8.635,0,0,1-4.339-4.412c-3.305-6.8-1.18-15.351,6.975-19.317,7.22-3.511,13.334-1.029,16.2,4.865,3.77,7.752,3.522,15.964-1.572,18.441a4.629,4.629,0,0,1-6.764-3.113c-.846-3.8-1.07-8.239-2.266-10.7-1.07-2.2-3.145-3.463-5.59-2.273-2.876,1.4-3.739,5.5-1.8,9.482a11.509,11.509,0,0,0,2.929,3.837s3.122,13.9,3.668,16.335c1.086,4.848,4.552,9.755,4.889,10.257a.4.4,0,0,0,.714-.155c.1-.476,1.465-6.37.573-11.161-.25-1.356-1.7-8.311-1.7-8.311,1.8,1.328,5.295,1.567,8.2.156,8.645-4.205,10.677-14.937,5.546-25.485-3.879-7.976-14.246-12.119-24.515-7.125-12.776,6.214-14.763,18.506-11.048,26.145C358.256,155.347,362.009,158.61,366.51,158.316Z" transform="translate(-333.501 -104.678)" fill="#fff"/></g><g transform="translate(396.685 148.411)"><path d="M435.433,302.025h0A30.23,30.23,0,0,1,417.984,263h0a30.23,30.23,0,0,1,39.029-17.449h0a30.23,30.23,0,0,1,17.449,39.029h0A30.23,30.23,0,0,1,435.433,302.025Z" transform="translate(-415.985 -243.548)" fill="#489ddc"/><g transform="translate(8.829 13.77)"><path d="M461.359,277.913a16.284,16.284,0,0,0-30.288-11.891c-.091.218-.182.436-.266.657a16.039,16.039,0,0,0-.8,8.628l-5.835,7.048,9.446.542a16.3,16.3,0,0,0,27.6-4.6C461.268,278.172,461.317,278.044,461.359,277.913Zm-20.2,7.263a13.634,13.634,0,0,1-6.232-4.788l-5.51-.311,3.395-4.1a13.446,13.446,0,0,1,.409-8.37,12.608,12.608,0,0,1,.534-1.207,13.694,13.694,0,0,1,25.375,9.973c-.1.339-.207.671-.336,1.005A13.65,13.65,0,0,1,441.164,285.176Z" transform="translate(-424.169 -256.312)" fill="#fff" fill-rule="evenodd"/><path d="M450.694,277.671c-.306-.329-1.794-1.926-2.09-2.177s-.52-.411-.91-.136-1.428.833-1.735.994-.539.111-.847-.218a10.82,10.82,0,0,1-2.3-2.982,11.853,11.853,0,0,1-1.095-3.349c-.072-.451.2-.577.452-.691.236-.106.536-.292.81-.433.074-.045.139-.086.2-.127a4.353,4.353,0,0,0,.4-.352.714.714,0,0,0,.219-.658c-.022-.221-.073-2.329-.1-3.189s-.385-.849-.606-.934-.449-.211-.7-.307a1.478,1.478,0,0,0-1.174.082,4.435,4.435,0,0,0-2.483,2.592,5.04,5.04,0,0,0-.29,1.334,8.978,8.978,0,0,0,.353,3.071c.092.313,1.01,5.085,4.229,8.021s3.42,2.433,4.127,2.63a3.982,3.982,0,0,0,3.186-.8,3.266,3.266,0,0,0,.892-1.674C451.208,278.186,450.993,278,450.694,277.671Z" transform="translate(-423.046 -255.783)" fill="#fff" fill-rule="evenodd"/></g></g><g transform="translate(0 21.07)"><path d="M71.314,171.607h0a23.052,23.052,0,0,1-23.051-23.052h0A23.051,23.051,0,0,1,71.314,125.5h0a23.052,23.052,0,0,1,23.052,23.051h0A23.052,23.052,0,0,1,71.314,171.607Z" transform="translate(-48.263 -125.504)" fill="#489ddc"/><path d="M58.246,155.318a14.332,14.332,0,0,0,22.049-12.727,10.215,10.215,0,0,0,2.515-2.608,10.063,10.063,0,0,1-2.894.793,5.052,5.052,0,0,0,2.216-2.788,10.124,10.124,0,0,1-3.2,1.223,5.043,5.043,0,0,0-8.588,4.6,14.3,14.3,0,0,1-10.386-5.267,5.046,5.046,0,0,0,1.559,6.729,5.011,5.011,0,0,1-2.283-.631,5.044,5.044,0,0,0,4.042,5.005,5.044,5.044,0,0,1-2.275.086,5.041,5.041,0,0,0,4.707,3.5A10.126,10.126,0,0,1,58.246,155.318Z" transform="translate(-47.477 -124.55)" fill="#fff"/></g><g transform="translate(15.564 247.066)"><path d="M111.6,413.332h0a39.7,39.7,0,0,1-47.822-29.42h0A39.7,39.7,0,0,1,93.2,336.09h0a39.7,39.7,0,0,1,47.823,29.421h0A39.7,39.7,0,0,1,111.6,413.332Z" transform="translate(-62.691 -335)" fill="#2d2d2d"/><g transform="translate(16.215 16.215)"><path d="M97.083,356.166c5.655-1.346,6.329-1.484,8.586-1.915a12.065,12.065,0,0,1,4.107-.207,7.211,7.211,0,0,1,4.976,3.061,12.087,12.087,0,0,1,1.666,3.758c.633,2.209.816,2.874,2.162,8.528s1.484,6.329,1.915,8.587a12.069,12.069,0,0,1,.208,4.106,7.206,7.206,0,0,1-3.062,4.975,12.041,12.041,0,0,1-3.758,1.667c-2.209.633-2.873.814-8.528,2.162s-6.33,1.484-8.587,1.916a12.022,12.022,0,0,1-4.106.206,7.205,7.205,0,0,1-4.976-3.06,12.061,12.061,0,0,1-1.666-3.758c-.634-2.209-.816-2.874-2.162-8.528s-1.485-6.329-1.916-8.587a12.059,12.059,0,0,1-.207-4.106,7.211,7.211,0,0,1,3.062-4.976,12.062,12.062,0,0,1,3.758-1.666c2.208-.634,2.874-.816,8.528-2.163m-.908-3.814c-5.752,1.37-6.467,1.566-8.7,2.207a15.959,15.959,0,0,0-4.905,2.209,11.121,11.121,0,0,0-4.717,7.669,15.95,15.95,0,0,0,.239,5.374c.435,2.283.583,3.01,1.953,8.761s1.566,6.467,2.207,8.7a15.959,15.959,0,0,0,2.209,4.905,11.128,11.128,0,0,0,7.668,4.719,16.018,16.018,0,0,0,5.375-.241c2.283-.435,3.01-.583,8.761-1.953s6.466-1.566,8.7-2.207a15.971,15.971,0,0,0,4.905-2.209,11.127,11.127,0,0,0,4.719-7.669,16.013,16.013,0,0,0-.241-5.374c-.435-2.283-.583-3.01-1.953-8.761s-1.566-6.467-2.207-8.7a15.971,15.971,0,0,0-2.209-4.905,11.127,11.127,0,0,0-7.669-4.719,16.012,16.012,0,0,0-5.374.241c-2.284.435-3.01.582-8.761,1.953" transform="translate(-77.722 -350.031)" fill="#fff"/><path d="M97.729,361.754a11.178,11.178,0,1,0,13.464,8.284,11.177,11.177,0,0,0-13.464-8.284M102,379.687a7.256,7.256,0,1,1,5.377-8.74,7.256,7.256,0,0,1-5.377,8.74" transform="translate(-76.823 -349.132)" fill="#fff"/><path d="M110.217,358.423a2.613,2.613,0,1,1-3.147-1.936,2.613,2.613,0,0,1,3.147,1.936" transform="translate(-75.568 -349.528)" fill="#fff"/></g></g><g transform="translate(346.694 253.426)"><path d="M388.159,377.926h0a18.516,18.516,0,0,1-18.515-18.516h0a18.515,18.515,0,0,1,18.515-18.515h0a18.515,18.515,0,0,1,18.515,18.515h0A18.516,18.516,0,0,1,388.159,377.926Z" transform="translate(-369.644 -340.895)" fill="#2d2d2d"/><path d="M384.362,370.067h4.507V358.78h3.145l.336-3.779h-3.48v-2.152c0-.891.179-1.243,1.041-1.243h2.439v-3.922h-3.121c-3.354,0-4.866,1.478-4.866,4.3V355h-2.344v3.826h2.344Z" transform="translate(-368.669 -340.36)" fill="#fff"/></g></g><g transform="translate(170.83 67.383)"><path d="M341.495,502.011l-148.747-.087a32.4,32.4,0,0,1-32.382-32.408L160.438,96.6a32.4,32.4,0,0,1,32.42-32.4l148.749.088A32.4,32.4,0,0,1,373.989,96.7l-.073,372.913A32.4,32.4,0,0,1,341.495,502.011Z" transform="translate(-160.365 -64.207)" fill="#263238"/><g transform="translate(9.857 13.191)"><path d="M340.729,76.521l-28.84-.016a7.164,7.164,0,0,0-7,7.316l0,5.232a7.164,7.164,0,0,1-7,7.316l-56.215-.033a7.17,7.17,0,0,1-7-7.325V83.78a7.17,7.17,0,0,0-7-7.325l-10.143-.006-25.241-.014a22.692,22.692,0,0,0-22.706,22.687l-.071,363.99a22.693,22.693,0,0,0,22.679,22.7l148.451.086a22.692,22.692,0,0,0,22.7-22.687l.071-363.991A22.692,22.692,0,0,0,340.729,76.521Z" transform="translate(-169.502 -76.435)" fill="#fff"/></g><g transform="translate(166.501 42.728)"><path d="M331.463,103.936c0,.1-3.749.207-8.376.246s-8.378-.01-8.379-.108,3.749-.207,8.377-.246S331.463,103.838,331.463,103.936Z" transform="translate(-314.709 -103.815)" fill="#263238"/><g transform="translate(0.036 4.287)"><path d="M331.5,107.91c0,.1-3.75.207-8.376.246s-8.378-.011-8.379-.108,3.749-.208,8.376-.246S331.5,107.812,331.5,107.91Z" transform="translate(-314.742 -107.789)" fill="#263238"/></g><g transform="translate(0.071 8.574)"><path d="M331.529,111.883c0,.1-3.75.208-8.376.246s-8.379-.01-8.379-.107,3.749-.208,8.376-.246S331.528,111.786,331.529,111.883Z" transform="translate(-314.775 -111.763)" fill="#263238"/></g></g><g transform="translate(25.293 37.928)"><path d="M184.035,117.04a3.439,3.439,0,0,1,.439-.029l1.221-.04,4.509-.108-.125.127q-.024-1.5-.053-3.27c.006-.607-.052-1.18.006-1.882a1.734,1.734,0,0,1,1.514-1.389c.726-.014,1.366-.047,2.153-.011a1.751,1.751,0,0,1,1.479,1.741c.017,1.524.036,3.117.054,4.768l-.209-.2,5.687-.058-.216.22c-.02-2.29-.042-4.659-.064-7.086q-.006-.908-.015-1.8a1.838,1.838,0,0,0-.8-1.344l-2.487-2.451q-1.222-1.2-2.4-2.367L193.57,100.7c-.4-.385-.713-.783-1.176-.878a1.532,1.532,0,0,0-1.305.249c-.344.291-.711.7-1.058,1.041q-1.05,1.06-2.041,2.058c-1.284,1.333-2.62,2.551-3.592,3.7a4.02,4.02,0,0,0-.286,2.122q0,1.058,0,2-.011,1.843-.021,3.229c-.01.824-.017,1.506-.023,2.064a7.323,7.323,0,0,1-.028.744,5.418,5.418,0,0,1-.039-.684c-.015-.549-.035-1.22-.057-2.032q-.031-1.395-.073-3.254-.018-.966-.038-2.044-.008-.545-.017-1.118a2.366,2.366,0,0,1,.314-1.191c1.052-1.289,2.307-2.43,3.6-3.8l2.025-2.074c.365-.358.663-.714,1.1-1.087a1.932,1.932,0,0,1,1.648-.325,3.071,3.071,0,0,1,1.366.976l1.167,1.143q1.18,1.157,2.407,2.359l2.491,2.446a4.74,4.74,0,0,1,.635.688,1.863,1.863,0,0,1,.3.959q.008.9.016,1.813c.018,2.427.037,4.8.054,7.087l0,.218h-.218l-5.688.037h-.208v-.207c-.009-1.651-.016-3.244-.025-4.768a1.372,1.372,0,0,0-1.149-1.381c-.655-.035-1.426-.012-2.063-.006a1.4,1.4,0,0,0-1.227,1.106c-.055.572-.013,1.238-.025,1.818q0,1.767,0,3.27v.127h-.125l-4.584-.032-1.193-.02A2.241,2.241,0,0,1,184.035,117.04Z" transform="translate(-183.811 -99.366)" fill="#263238"/></g><g transform="translate(21.694 326.812)"><g transform="translate(62.283 12.932)"><path d="M277.876,379.426a8.266,8.266,0,0,1-1.559.11l-4.25.09c-3.589.051-8.547.082-14.023.082s-10.436-.031-14.024-.082l-4.25-.09a8.266,8.266,0,0,1-1.559-.11,8.336,8.336,0,0,1,1.559-.109l4.25-.09c3.588-.051,8.547-.082,14.024-.082s10.434.031,14.023.082l4.25.09A8.336,8.336,0,0,1,277.876,379.426Z" transform="translate(-238.211 -379.146)" fill="#455a64"/><g transform="translate(0 9.758)"><path d="M340.219,388.472c0,.155-22.837.28-51,.28s-51.006-.125-51.006-.28,22.832-.28,51.006-.28S340.219,388.317,340.219,388.472Z" transform="translate(-238.211 -388.192)" fill="#455a64"/></g><g transform="translate(0 18.938)"><path d="M308.341,396.983c0,.154-15.7.28-35.063.28s-35.067-.126-35.067-.28,15.7-.282,35.067-.282S308.341,396.827,308.341,396.983Z" transform="translate(-238.211 -396.701)" fill="#455a64"/></g></g><g transform="translate(160.121 40.751)"><path d="M335.092,414.2l-3.169-3.179-3.017,3.01.014-9.1,6.187.01Zm-3.168-3.575.1.1,2.79,2.8.013-8.3-5.627-.009-.013,8.144Z" transform="translate(-328.905 -404.934)" fill="#263238"/></g><g transform="translate(76.216 42.566)"><path d="M256.824,412.887l-1.118-.5a3.064,3.064,0,1,1,1.633-2.692,3.1,3.1,0,0,1-.773,2.071Zm-2.614-6.058a2.894,2.894,0,0,0,.046,5.788,2.984,2.984,0,0,0,1.393-.439l.046-.027.825.369-.188-.811.038-.041a2.889,2.889,0,0,0-2.161-4.838Z" transform="translate(-251.126 -406.616)" fill="#263238"/></g><g transform="translate(85.419 42.991)"><path d="M263.343,412.376l-1.283-3.128-2.4-2.191,5.831-.046Zm-3.141-5.11,2.047,1.879,1.092,2.665,1.832-4.584Z" transform="translate(-259.657 -407.01)" fill="#263238"/></g><g transform="translate(87.954 42.99)"><rect width="3.793" height="0.213" transform="translate(0 2.069) rotate(-33.054)" fill="#263238"/></g><g transform="translate(65.595 42.242)"><path d="M248.426,407.765a1.8,1.8,0,0,0-3.557.119,1.8,1.8,0,0,0-3.558-.061,2.434,2.434,0,0,0,.443,1.755,7.242,7.242,0,0,0,1.276,1.339c.649.574,1.25,1.113,1.9,1.687.64-.584,1.184-1.133,1.824-1.717a7.173,7.173,0,0,0,1.256-1.359A2.44,2.44,0,0,0,248.426,407.765Z" transform="translate(-241.281 -406.316)" fill="#e8505b"/></g><path d="M353.279,425.228s-.013-.35-.019-1.015-.011-1.66-.019-2.951c-.011-2.6-.026-6.432-.045-11.39-.024-9.915-.058-24.339-.1-42.433l.186.186-172.513.1h-.011l.282-.282c0,20.083-.006,39.565-.01,57.789l-.272-.272,123.447.126,36.036.076,9.671.036,2.506.017c.565.005.863.017.863.017s-.274.011-.828.017l-2.475.017-9.612.035-35.975.077-123.634.126h-.272v-.272c0-18.225-.005-37.706-.009-57.789v-.28h.291l172.513.1h.186v.184c-.043,18.142-.078,32.6-.1,42.544-.019,4.941-.035,8.754-.045,11.348q-.013,1.916-.019,2.919C353.291,424.9,353.279,425.228,353.279,425.228Z" transform="translate(-180.475 -367.158)" fill="#263238"/><g transform="translate(6.952 9.683)"><rect width="38.206" height="47.789" transform="matrix(0.006, -1, 1, 0.006, 0.286, 38.459)" fill="#ebebeb"/><path d="M235.211,376.659a1.867,1.867,0,0,1-.239.013l-.677.011-2.608.015-9.8.011-34.465-.07.252-.25c-.056,11.376-.12,24.409-.188,38.2.059.067-.523-.532-.271-.279h.4l.413,0,.827,0,1.647.01,3.271.019,6.439.039,12.4.08,22.381.162-.235.232c.115-11.472.211-20.99.278-27.671.045-3.323.08-5.939.1-7.756q.024-1.317.038-2.055c.012-.467.03-.721.03-.721s.016.22.022.671q.006.723.015,2.011c0,1.8.01,4.4.017,7.7-.01,6.717-.023,16.286-.038,27.82v.233h-.235l-22.38-.093-12.4-.06-6.439-.034-3.271-.018-1.647-.009-.827,0-.413,0h-.4c.246.252-.351-.342-.288-.286.09-13.793.174-26.827.247-38.2v-.252l.251,0,34.627.323,9.741.122,2.559.044.649.018A.93.93,0,0,1,235.211,376.659Z" transform="translate(-186.92 -376.134)" fill="#263238"/><rect width="33.396" height="44.431" transform="matrix(0.006, -1, 1, 0.006, 1.947, 36.063)" fill="#e0e0e0"/><path d="M188.725,411.073l15.636-20.67,9.539,13.042,6.56-6.906,12.7,14.786Z" transform="translate(-186.778 -375.01)" fill="#f5f5f5"/><g transform="translate(24.295 9.41)"><path d="M216.438,388.375a3.5,3.5,0,1,1-3.479-3.518A3.5,3.5,0,0,1,216.438,388.375Z" transform="translate(-209.441 -384.857)" fill="#f5f5f5"/></g></g></g><g transform="translate(28.623 81.392)"><g transform="translate(30.884 7.504)"><path d="M265.754,146.892a1.765,1.765,0,0,1-.51.057l-1.463.053-5.382.088c-4.545.052-10.823.083-17.758.083s-13.215-.031-17.76-.083L217.5,147l-1.464-.053a1.765,1.765,0,0,1-.51-.057,1.8,1.8,0,0,1,.51-.056l1.464-.053,5.381-.09c4.545-.051,10.824-.082,17.76-.082s13.213.031,17.758.082l5.382.09,1.463.053A1.8,1.8,0,0,1,265.754,146.892Z" transform="translate(-215.527 -146.612)" fill="#263238"/></g><g transform="translate(0 204.582)"><g transform="translate(142.516 0.63)"><path d="M328.2,343.659l-4.709-4.724-4.486,4.473.022-13.522,9.194.014Zm-4.708-5.312.147.146,4.147,4.161.019-12.339-8.363-.013-.019,12.1Z" transform="translate(-319.009 -329.885)" fill="#263238"/></g><g transform="translate(20.905 0.638)"><path d="M217.493,342.235l-2.2-.982a6.03,6.03,0,1,1,3.216-5.3,6.094,6.094,0,0,1-1.522,4.078Zm-5.147-11.925a5.7,5.7,0,1,0,.092,11.392,5.87,5.87,0,0,0,2.743-.865l.091-.051,1.622.724-.367-1.594.073-.081a5.69,5.69,0,0,0-4.255-9.524Z" transform="translate(-206.277 -329.892)" fill="#263238"/></g><g transform="translate(39.02 1.475)"><path d="M230.324,341.23l-2.523-6.159-4.731-4.312,11.476-.092ZM224.14,331.17l4.03,3.7,2.149,5.246,3.605-9.024Z" transform="translate(-223.069 -330.668)" fill="#263238"/></g><g transform="translate(44.009 1.474)"><rect width="7.465" height="0.419" transform="matrix(0.838, -0.545, 0.545, 0.838, 0, 4.071)" fill="#263238"/></g><path d="M200.96,332.153a3.55,3.55,0,0,0-7,.234,3.549,3.549,0,0,0-7-.121,4.79,4.79,0,0,0,.873,3.453,14.177,14.177,0,0,0,2.512,2.636c1.278,1.129,2.46,2.192,3.738,3.322,1.26-1.15,2.332-2.23,3.592-3.38a14.23,14.23,0,0,0,2.47-2.676A4.791,4.791,0,0,0,200.96,332.153Z" transform="translate(-186.898 -329.301)" fill="#489ddc"/></g><circle cx="7.785" cy="7.785" r="7.785" transform="translate(5.231)" fill="#ebebeb"/><g transform="translate(2.961 161.904)"><g transform="translate(0 12.141)"><path d="M335.453,301.276c0,.155-32.643.28-72.9.28s-72.908-.125-72.908-.28,32.636-.282,72.908-.282S335.453,301.12,335.453,301.276Z" transform="translate(-189.643 -300.994)" fill="#455a64"/></g><path d="M335.453,290.019c0,.155-32.643.282-72.9.282s-72.908-.126-72.908-.282,32.636-.28,72.908-.28S335.453,289.864,335.453,290.019Z" transform="translate(-189.643 -289.739)" fill="#455a64"/><g transform="translate(0 24.446)"><path d="M269.009,312.68c0,.155-17.768.282-39.681.282s-39.684-.126-39.684-.282,17.764-.28,39.684-.28S269.009,312.526,269.009,312.68Z" transform="translate(-189.643 -312.4)" fill="#455a64"/></g></g></g><g transform="translate(94.96 397.153)"><path d="M254.587,435.521a3.1,3.1,0,1,1-3.084-3.158A3.119,3.119,0,0,1,254.587,435.521Z" transform="translate(-248.392 -432.363)" fill="#263238"/><g transform="translate(9.599 0.044)"><path d="M263.485,435.562A3.1,3.1,0,1,1,260.4,432.4,3.119,3.119,0,0,1,263.485,435.562Z" transform="translate(-257.29 -432.404)" fill="#263238"/></g><g transform="translate(19.198 0.088)"><path d="M272.383,435.6a3.1,3.1,0,1,1-3.084-3.158A3.117,3.117,0,0,1,272.383,435.6Z" transform="translate(-266.188 -432.445)" fill="#263238"/></g></g><g transform="translate(23.008 104.583)"><rect width="172.524" height="105.507" fill="#e0e0e0"/><path d="M196.457,263.807l49.437-66.169,30.648,41.381,20.772-22.132,40.741,46.88Z" transform="translate(-180.531 -158.28)" fill="#f5f5f5"/><g transform="translate(86.704 20.094)"><path d="M284.366,190.927a11.15,11.15,0,1,1-11.153-11.146A11.149,11.149,0,0,1,284.366,190.927Z" transform="translate(-262.067 -179.781)" fill="#f5f5f5"/></g></g><g transform="translate(22.264 69.198)"><path d="M353.807,367.3c0-2.257-.1-97.569-.255-238.666l.255.256-172.5.026h-.019l.28-.282c-.019,89.256-.038,171.859-.053,238.666l-.228-.229,172.522.229-172.522.229h-.229V367.3c-.015-66.807-.033-149.41-.053-238.666v-.28h.3l172.5.026h.255v.255c-.052,70.618-.095,130.31-.126,172.357-.029,20.993-.052,37.579-.068,48.924-.013,5.657-.024,10.007-.03,12.948q-.01,2.191-.015,3.322C353.817,366.929,353.807,367.3,353.807,367.3Z" transform="translate(-181.003 -128.353)" fill="#263238"/></g></g><g transform="translate(100.323 130.867)"><g transform="translate(114.614 215.701)"><path d="M271.146,381.573l3.817-12.823c.666-2.781,1.55-6.062,2.74-9.8,1.07-3.365,3.815-6.9,6.317-9.446,3.9-3.962,5.749-3.989,8.368-6.092.238-.153.5-.371.729-.493a4.13,4.13,0,0,0,1.273-1.1c2.257-2.441.09-6.219-4.493-5.86-3.451.271-9.078,1.258-18.227,10.7-.114.143-.234.263-.346.41-4.8,6.242-9.312-11.577-10.125-18.21a6.951,6.951,0,0,0-9.395-5.392l-22.288,10.425a10.4,10.4,0,0,0-6.506.22,6.624,6.624,0,0,0-4.246,7.863l9.04,36.086L201.252,466.4h57.227Z" transform="translate(-201.252 -323.009)" fill="#ffbe9d"/></g><g transform="translate(128.036 180.656)"><path d="M314.129,302.995l-17.691,34.664-8.845-2.457-44.461,36.168a9.006,9.006,0,0,1-12.51-1.112l-16.928-19.671s34.133-14.7,40.446-26.875-.982-14.932-.982-14.932l16.065-18.256Z" transform="translate(-213.694 -290.522)" fill="#489ddc"/></g><path d="M300.533,245.374s-25.895-5.727-62.334-40.769-53.561-81.573-58.021-81.346-23.936-8.815-60.976,71.759-22.45,99.285-15.08,99.134,57.419-14.1,88.68-10.545,71.441,19.846,71.441,19.846Z" transform="translate(-95.007 -123.056)" fill="#489ddc"/><g transform="translate(163.668 107.134)"><path d="M343.593,281.47l-8.834,16.8L330.8,305.79a21.921,21.921,0,0,1-28.574,9.708l-55.5-19.338,32.323-73.792L334.5,251.919A21.923,21.923,0,0,1,343.593,281.47Z" transform="translate(-246.725 -222.368)" fill="#489ddc"/></g><g transform="translate(163.668 107.134)" opacity="0.4"><path d="M343.593,281.47l-8.834,16.8L330.8,305.79a21.921,21.921,0,0,1-28.574,9.708l-55.5-19.338,32.323-73.792L334.5,251.919A21.923,21.923,0,0,1,343.593,281.47Z" transform="translate(-246.725 -222.368)"/></g><g transform="translate(4.85 1.847)"><path d="M121.84,196.35C102.128,240,93.921,278.892,103.512,283.224s33.346-27.542,53.059-71.189,27.918-82.542,18.328-86.873S141.554,152.7,121.84,196.35Z" transform="translate(-99.503 -124.769)" fill="#489ddc"/></g><g transform="translate(4.85 1.847)" opacity="0.5"><path d="M121.84,196.35C102.128,240,93.921,278.892,103.512,283.224s33.346-27.542,53.059-71.189,27.918-82.542,18.328-86.873S141.554,152.7,121.84,196.35Z" transform="translate(-99.503 -124.769)"/></g><g transform="translate(250.256 168.081)"><path d="M342.034,301.29l-15.043-4.724,9.309-17.7,11.282,7.013Z" transform="translate(-326.991 -278.865)" fill="#489ddc"/></g><g transform="translate(250.256 168.081)" opacity="0.6"><path d="M336.3,278.865l-9.309,17.7,3.091.972L337.65,279.7Z" transform="translate(-326.991 -278.865)"/></g><g transform="translate(216.454 157.314)"><path d="M328.4,283.734c-.221.487-7.729-2.432-16.767-6.518s-16.2-7.794-15.974-8.28,7.725,2.433,16.768,6.519S328.621,283.249,328.4,283.734Z" transform="translate(-295.656 -268.884)" fill="#489ddc"/></g><g transform="translate(224.324 147.044)"><path d="M332.454,273.942c-.237.48-7.03-2.384-15.175-6.395s-14.558-7.652-14.321-8.132,7.026,2.386,15.174,6.4S332.689,273.463,332.454,273.942Z" transform="translate(-302.952 -259.364)" fill="#489ddc"/></g><g transform="translate(213.512 169.897)"><path d="M322.782,293.873c-.08.257-1.866-.156-4.717-1.037-1.424-.44-3.111-1-4.978-1.643-1.854-.672-3.78-1.646-5.844-2.58-8.23-3.821-14.514-7.561-14.308-8,.243-.523,6.96,2.465,15.113,6.248,2.045.927,3.943,1.947,5.731,2.695,1.8.726,3.406,1.4,4.75,2C321.221,292.747,322.859,293.617,322.782,293.873Z" transform="translate(-292.929 -280.549)" fill="#489ddc"/></g><g transform="translate(29.008 60.526)"><path d="M160.266,182.359s-22.506-13.956-34.82,16.451,11.366,35.407,11.366,35.407A202.593,202.593,0,0,0,160.266,182.359Z" transform="translate(-121.897 -179.163)" fill="#2d2d2d"/></g><g transform="translate(26.83 27.483)" opacity="0.5"><path d="M184.361,148.533c.132.023-.188,2.087-.881,5.809-.712,3.716-1.718,9.11-3.162,15.732-.951,3.262-1.991,6.823-3.107,10.641q-.846,2.871-1.749,5.927-.453,1.529-.918,3.1c-.337,1.039-.775,2.058-1.166,3.108-1.621,4.183-3.322,8.572-5.084,13.119q-.663,1.707-1.34,3.441c-.438,1.162-1.057,2.255-1.583,3.4q-1.651,3.4-3.344,6.9t-3.356,6.9c-.574,1.121-1.053,2.284-1.694,3.347l-1.877,3.181-7.172,12.11c-.585.957-1.113,1.931-1.723,2.837q-.947,1.34-1.871,2.643-1.846,2.6-3.584,5.048c-2.315,3.238-4.475,6.262-6.452,9.029-4.3,5.215-7.913,9.328-10.392,12.184-2.494,2.842-3.922,4.373-4.025,4.288s1.129-1.778,3.444-4.767l9.915-12.571,6.21-9.1q1.68-2.448,3.471-5.055l1.818-2.64c.592-.907,1.109-1.884,1.677-2.84l7.027-12.085,1.849-3.167c.633-1.057,1.1-2.214,1.672-3.329q1.638-3.38,3.322-6.851l3.33-6.845c.525-1.134,1.145-2.219,1.583-3.37s.9-2.283,1.346-3.41c1.786-4.5,3.511-8.848,5.154-12.99.4-1.039.848-2.045,1.2-3.072q.482-1.555.953-3.066.942-3.021,1.83-5.862c1.19-3.774,2.3-7.294,3.317-10.517l3.744-15.532C183.66,150.53,184.231,148.51,184.361,148.533Z" transform="translate(-119.877 -148.533)"/></g><g transform="translate(133.428 207.476)" opacity="0.4"><path d="M218.693,346.212c2.053,3.727,4.148,7.513,7.187,10.491s7.21,5.089,11.444,4.662,8.245-3.943,8.29-8.2c2.032,1.528,5.147.7,6.83-1.2s2.23-4.551,2.432-7.084c2.759,1.628,6.6.337,8.439-2.285s1.956-6.153,1.064-9.231a32.322,32.322,0,0,0-4.43-8.486c2.124.172,4.375.319,6.276-.644s3.186-3.478,2.076-5.3a5.28,5.28,0,0,0-3.094-1.973c-3.33-1.042-5.667-1.877-9.133-1.475-.806.009,1.387,9.144-20.371,21.639C222.856,344.5,218.693,346.212,218.693,346.212Z" transform="translate(-218.693 -315.383)"/></g><g transform="translate(160.323 250.989)"><path d="M265.727,356.235c-.014.1-1.463-.178-3.81-.114a21.541,21.541,0,0,0-15.992,7.667c-1.519,1.791-2.209,3.094-2.3,3.042a3.332,3.332,0,0,1,.426-.944,17.23,17.23,0,0,1,1.563-2.35,20.382,20.382,0,0,1,16.3-7.812,17.37,17.37,0,0,1,2.811.251A3.319,3.319,0,0,1,265.727,356.235Z" transform="translate(-243.624 -355.72)" fill="#eb996e"/></g><path d="M220.008,339.988c3.5,3.367,5.9,7.084,9.578,10.475,1.67,1.54,4.265,4.46,6.5,4.848s3.673.091,4.56-2c.717-1.695-.572-4.011-1.462-5.408-2.342-3.673-4.582-6.546-6.336-9.4-.822-1.338.242-1.614.63-.995,1.687,1.749,4.2,3.264,5.714,5.168,2.069,2.607,2.444,6.059,7.859,4.968a4.879,4.879,0,0,0,2.01-.835c2.038-1.56,2.123-4.272,1.265-6.445a17.64,17.64,0,0,0-3.014-4.56c2.3,2.6,4.82,5.342,8.484,5.638a5.048,5.048,0,0,0,5.131-2.777c1.084-2.462-.47-4.841-2.03-6.766a70.473,70.473,0,0,0-9.2-9.4,7,7,0,0,0-4.473-1.658c-1.894-.013-4.267.344-5.438,1.992a7.357,7.357,0,0,0-1.471,5.639s-4.753-2.41-8.572.11a12.112,12.112,0,0,0-4.764,6.852Z" transform="translate(-85.161 -107.478)" fill="#ffbe9d"/><path d="M243.552,320.62a5.693,5.693,0,0,1-.672-6.429c.808-1.584,1.828-3.123,2.862-3.473,4.521-1.525,24.274,1.892,24.094,6.277-.184,4.5-1.622,6.482-12.343,4.934-1.886-.272-4.845-.644-4.845-.644l-2.587,3.884Z" transform="translate(-83.413 -108.304)" fill="#ffbe9d"/><g transform="translate(152.79 220.794)"><path d="M247.527,337.608c-.156.1-1.66-2.972-4.728-5.721-3.038-2.786-6.236-3.983-6.157-4.148a6.312,6.312,0,0,1,2.091.737,18.76,18.76,0,0,1,7.857,7.122A6.311,6.311,0,0,1,247.527,337.608Z" transform="translate(-236.641 -327.729)" fill="#eb996e"/></g><g transform="translate(160.487 213.347)"><path d="M250.29,324.68c-.1.092-1.4-.972-3.181-2.06a22.369,22.369,0,0,0-2.318-1.278c-.611-.287-1.015-.366-1.014-.45s.465-.129,1.151.078a10.621,10.621,0,0,1,2.477,1.173C249.227,323.256,250.421,324.562,250.29,324.68Z" transform="translate(-243.776 -320.826)" fill="#eb996e"/></g><g transform="translate(163.354 210.522)"><path d="M253.4,320.811a8.535,8.535,0,0,1-3.8-.428,6.954,6.954,0,0,1-2.435-1.276c-.543-.462-.768-.847-.715-.893a15.925,15.925,0,0,0,3.316,1.632C251.717,320.414,253.425,320.626,253.4,320.811Z" transform="translate(-246.434 -318.208)" fill="#eb996e"/></g><g transform="translate(135.423 226.26)"><path d="M236.237,342.637a13.758,13.758,0,0,1-1.8-2.341,21.242,21.242,0,0,0-4.612-5.241,9.3,9.3,0,0,0-6.531-1.73,11.876,11.876,0,0,0-2.751.875c-.019-.025.188-.225.63-.5a6.148,6.148,0,0,1,2.057-.768,9.177,9.177,0,0,1,6.922,1.666,18.767,18.767,0,0,1,4.615,5.478A17.548,17.548,0,0,1,236.237,342.637Z" transform="translate(-220.542 -332.796)" fill="#eb996e"/></g><g transform="translate(150.021 279.747)"><path d="M250.284,382.421a59.367,59.367,0,0,1-8.075,1.161,59.408,59.408,0,0,1-8.135.6,59.332,59.332,0,0,1,8.075-1.161A59.408,59.408,0,0,1,250.284,382.421Z" transform="translate(-234.074 -382.378)" fill="#eb996e"/></g></g><g transform="translate(50.381 51.888)"><g transform="translate(0)"><path d="M406.883,49.844,408.1,52.07l2.227,1.218L408.1,54.506l-1.218,2.227-1.218-2.227-2.227-1.218,2.227-1.218Z" transform="translate(-20.771 -49.844)" fill="#e8505b"/><path d="M430.488,101.014l1.218,2.227,2.227,1.218-2.227,1.218-1.218,2.227-1.218-2.227-2.227-1.218,2.227-1.218Z" transform="translate(-18.912 -45.813)" fill="#e8505b"/><path d="M52.155,237.533l1.218,2.227,2.227,1.218L53.373,242.2l-1.218,2.227L50.937,242.2l-2.227-1.218,2.227-1.218Z" transform="translate(-48.711 -35.061)" fill="#489ddc"/><path d="M376.243,62.562l2.812,5.142,5.142,2.812-5.142,2.812-2.812,5.142-2.812-5.142-5.142-2.812L373.43,67.7Z" transform="translate(-23.54 -48.842)" fill="#e8505b"/><path d="M73.641,205.1l2.806,5.13,5.13,2.806-5.13,2.806-2.806,5.131-2.806-5.131L65.7,213.034l5.131-2.806Z" transform="translate(-47.372 -37.615)" fill="#489ddc"/><path d="M437.237,318.565l2.806,5.13,5.131,2.806-5.131,2.806-2.806,5.131-2.806-5.131L429.3,326.5l5.131-2.806Z" transform="translate(-18.734 -28.678)" fill="#489ddc"/></g></g></g></svg>