<svg xmlns="http://www.w3.org/2000/svg" width="105.787" height="105.787" viewBox="0 0 105.787 105.787"><g transform="translate(7.251 -230.552)"><g transform="translate(-7.251 230.552)"><path d="M160.137,597.5a27.731,27.731,0,0,1-3.122-1.253,8.81,8.81,0,0,1-4.126-4.9h17.4a9.3,9.3,0,0,1-6.011,5.746c-.416.136-.831.274-1.247.41Z" transform="translate(-108.668 -491.713)" fill="#ebe9e9"/><path d="M-7.251,410.785H5.285v6.2H-7.251Z" transform="translate(7.251 -361.015)" fill="#ebe9e9"/><path d="M210.069,341.379l-3.963-4.828c-1.2.718-2.3,1.423-3.443,2.037a1.424,1.424,0,0,1-1.129.032c-1.927-.941-3.822-1.947-5.9-3.019V323.755a20.6,20.6,0,0,1,2.022,1.181,6.89,6.89,0,0,0,7.857.528c1.515-.788,2.949-1.733,4.556-2.688l-3.967-4.83c-1.174.706-2.259,1.432-3.417,2.01a1.891,1.891,0,0,1-1.385-.092c-1.728-.733-3.431-1.525-5.12-2.343a1.093,1.093,0,0,1-.559-.764c-.033-5.3-.039-10.607.011-15.911,0-.337.447-.8.8-.983a12.258,12.258,0,0,1,17.136,7.27,1.747,1.747,0,0,0,1.305,1.339,12.425,12.425,0,0,1,8.648,11.948,2.942,2.942,0,0,0,.554,1.659,12.28,12.28,0,0,1-.572,15.609,1.433,1.433,0,0,0-.362,1.469,12.261,12.261,0,0,1-6.113,13.669,3.48,3.48,0,0,0-1.253,1.248c-2.511,4.3-6.165,6.658-11.207,6.69-2.954.019-5.907,0-8.916,0V342.355a22.41,22.41,0,0,1,2.034,1.2,6.849,6.849,0,0,0,7.765.538C207,343.3,208.462,342.333,210.069,341.379Z" transform="translate(-139.583 -279.784)" fill="#ebe9e9"/><path d="M91.876,317.414a14.63,14.63,0,0,0-5.815,2.538,1.409,1.409,0,0,1-1.206.026c-1.159-.591-2.262-1.292-3.5-2.017l-3.849,4.7c2.271,1.763,4.572,3.307,7.419,3.751a6.138,6.138,0,0,0,4.391-1.153c.765-.5,1.562-.957,2.486-1.52.035.474.069.73.069.987,0,3.444-.014,6.888.016,10.332.006.683-.166.929-.874,1.19a36.51,36.51,0,0,0-4.726,2.227,1.382,1.382,0,0,1-1.51.1c-1.1-.638-2.188-1.289-3.411-2.011l-3.864,4.693a17.964,17.964,0,0,0,6.98,3.688c2.94.681,4.951-1.369,7.358-2.573v18.34c-.321.022-.618.058-.915.059-2.652,0-5.3.012-7.955,0-5.129-.021-8.83-2.416-11.339-6.814a2.653,2.653,0,0,0-.944-1,12.308,12.308,0,0,1-6.362-13.931,1.65,1.65,0,0,0-.342-1.249,12.354,12.354,0,0,1-.567-15.71,2.765,2.765,0,0,0,.535-1.564,12.409,12.409,0,0,1,8.674-12.032,1.687,1.687,0,0,0,1.255-1.259,12.294,12.294,0,0,1,17.01-7.44A1.446,1.446,0,0,1,91.9,301.3C91.849,306.632,91.876,311.968,91.876,317.414Z" transform="translate(-42.06 -279.79)" fill="#ebe9e9"/><path d="M128.471,546.332h30.856v6.112H128.471Z" transform="translate(-90.992 -459.131)" fill="#ebe9e9"/><path d="M173.412,230.552h6.073v12.48h-6.073Z" transform="translate(-123.523 -230.552)" fill="#ebe9e9"/><path d="M343.122,411.05v6.073H330.643V411.05Z" transform="translate(-237.335 -361.206)" fill="#ebe9e9"/><path d="M284.61,292.652l-4.142-4.142,8.536-8.53,4.156,4.153Z" transform="translate(-201.016 -266.33)" fill="#ebe9e9"/><path d="M50.755,292.935l-8.385-8.426,4.117-4.1,8.41,8.4Z" transform="translate(-28.667 -266.638)" fill="#ebe9e9"/></g></g></svg>