<svg xmlns="http://www.w3.org/2000/svg" xmlns:xlink="http://www.w3.org/1999/xlink" width="534.055" height="458.71" viewBox="0 0 534.055 458.71"><defs><clipPath id="a"><path d="M358.842,402.966l.135-51c.556-2.062,1-9.63,2.185-14.9,2-8.841-5.889-19.5-6.444-19.841-2.211-1.382-6.914-1.358-6.914-1.358s-4.581-5.272-8.73-6.939a20.566,20.566,0,0,0-8.839-1.1,42.211,42.211,0,0,0-10.5-6.359,8.635,8.635,0,0,0-8.839,1.667l-5.161,8.037a6.017,6.017,0,0,0,.7,7.518c2.469,2.432,5.629,1.3,7.223,1.3,2.21,0,3.037-2.495,3.037-2.495s.543,12.988,0,14.643l-.013.013c-.568,1.655-4.691,5.519-4.691,5.519l-13.8-18.273a133.416,133.416,0,0,1-12.432-20.507,9.432,9.432,0,0,0-1.556-2.421c-2.42-2.74-7.6-3.543-8.95,1.531a9.934,9.934,0,0,0,.222,4.89c5.778,17.05,13.125,29.939,19.828,43.372,3.988,7.976,2.506,7.877,4.494,11.483-.234.16-.124.457-.37.6-.975,3.877-1.655,7.766-2.63,11.643-.938-4.654-2.2-9.852-4.42-14.05a31.674,31.674,0,0,0,.6-8.211,10.792,10.792,0,0,0-3.42-7.285,7.091,7.091,0,0,0-4.025-1.567,4.2,4.2,0,0,0-4.432,3.592,42.432,42.432,0,0,1-1.161,6.248,62.406,62.406,0,0,1-3.186,7.84c0,5.148,3.186,4.308,5.506,25.014,1.8,16.125,22.57,26.779,33.879,38.422l12.049,37.9a233.655,233.655,0,0,0,40.213-21.113Z" transform="translate(-275.049 -294.294)" fill="#fff"/></clipPath><clipPath id="b"><path d="M249.212,342.769c-.494-2.285-3.741-1.951-3.741-1.951-10.9.643-12.371,17.729-12.371,17.729l-3.9,11.7-1.223-17.606.123-22.692s3.3-21.717,1.828-25.125a4.965,4.965,0,0,0-4.507-3.3c-6.346-1.592-6.716,7.556-6.716,7.556l-5.358,18.668-2.2,20.138-1.826-.976s-.864-21.359-.494-21.717,2.568-14.767,2.568-14.767,1.209-2.679,2.678-6.1a7.389,7.389,0,0,0,0-6.1c-2.567-5.246-7.926-2.8-9.025,0a81.292,81.292,0,0,1-4.395,8.3l-6.112,16.716c.235,3.779-1.938,22.446-1.938,22.446l-2.2-1-3.543-10.964,2.691-11.223s5.852-6.457,4.877-10.247-5.976-2.679-5.976-2.679l-10,11.951h-2.939l-6.951,8.791a55.66,55.66,0,0,0-1.593,29.174l1.593,7.42v47.954s-4.754,7.679-4.754,8.408c0,.332-1.964,6.4-4.7,13.951,11.964,7.037,22.273,12.482,29.57,15.36,3.431,1.358,6.9,2.654,10.383,3.888,4.382-12.309,9.506-25.483,12.334-28.557,5.6-6.1,16.58-17.816,16.58-17.816s12.482-20.038,13.939-26.705c1.21-5.469,4.136-15.4,5.148-18.8a6.757,6.757,0,0,0,.284-2.383c-.087-1.8-.258-5.3-.258-8.384C247.089,349.436,249.693,345.041,249.212,342.769Z" transform="translate(-159.108 -295.15)" fill="#fff"/></clipPath><clipPath id="c"><path d="M457.331,321.923a82.9,82.9,0,0,1-1.123,13.692c-3.346,19.964-13.84,34.533-26.261,34.533a16.377,16.377,0,0,1-3.3-.345c-13.556-2.878-24.076-23.211-24.076-47.88,0-26.631,12.259-36.051,27.372-36.051S457.331,295.292,457.331,321.923Z" transform="translate(-402.576 -285.872)" fill="#fff" stroke="#263238" stroke-miterlimit="10" stroke-width="1"/></clipPath></defs><g transform="translate(-18.86 -50.006)"><g transform="translate(18.86 50.006)"><g transform="translate(0 0)"><path d="M552.914,275.643a137.949,137.949,0,0,1-3.842,32.861c-.865,3.531-1.9,7.05-3.092,10.511-.346.992-.692,1.985-1.061,2.965-.3.808-.612,1.615-.923,2.411-.092.219-.173.438-.265.658-.335.831-.669,1.661-1.027,2.481-.058.127-.115.265-.173.4-.346.808-.7,1.615-1.062,2.411-.162.358-.323.7-.485,1.05-.323.715-.658,1.419-1,2.123-.358.75-.727,1.488-1.1,2.227-.138.265-.265.531-.4.785-.323.635-.658,1.269-.981,1.9-.265.5-.531.981-.8,1.465q-1.835,3.392-3.842,6.692c-.542.9-1.1,1.8-1.661,2.688-.127.219-.265.438-.4.658q-.969,1.523-1.973,3.046c-.542.819-1.085,1.638-1.65,2.458-.485.715-.969,1.419-1.465,2.135-.1.15-.208.3-.323.45-.508.738-1.038,1.477-1.558,2.215-.646.911-1.3,1.8-1.961,2.7-.138.185-.265.369-.4.542-.75,1.027-1.523,2.042-2.285,3.046-.461.6-.923,1.212-1.4,1.8-.831,1.1-1.685,2.181-2.55,3.265-.819,1.038-1.65,2.065-2.492,3.092-.092.115-.185.219-.277.335-.831,1.027-1.661,2.042-2.515,3.058-.242.312-.508.623-.761.923-.773.935-1.558,1.869-2.342,2.792q-3.392,4.015-6.842,7.961-7.009,8.065-14.319,16.026c-4.05,4.385-8.157,8.746-12.346,13.027-20.1,20.642-41.86,39.9-65.525,55.245-2.942,1.9-5.908,3.761-8.907,5.527-1.1.646-2.192,1.292-3.288,1.927-.185.1-.381.219-.565.323-1.131.646-2.261,1.281-3.4,1.9-1.165.646-2.331,1.281-3.508,1.892l-1.592.831q-3.444,1.8-6.957,3.461c-1.258.6-2.515,1.177-3.784,1.742-1.165.531-2.342,1.05-3.519,1.558-.485.208-.958.415-1.442.612-1.073.462-2.158.9-3.242,1.338q-3.133,1.263-6.323,2.411c-.808.3-1.627.588-2.446.877-.462.161-.923.311-1.385.473-.762.254-1.523.508-2.285.75-.658.219-1.327.427-1.985.635-.023.012-.046.012-.069.023q-1.956.606-3.911,1.177c-2.065.6-4.131,1.154-6.207,1.685-1.373.346-2.746.669-4.131.981-1.3.3-2.608.577-3.923.854a2.966,2.966,0,0,1-.312.058c-1.361.277-2.735.542-4.108.785-.7.127-1.4.242-2.1.358s-1.408.231-2.123.335c-.635.1-1.281.2-1.915.277-.773.115-1.558.219-2.331.323a178.279,178.279,0,0,1-24.657,1.4c-.5,0-.981-.012-1.477-.023a204.055,204.055,0,0,1-22.326-1.673c-.542-.069-1.085-.138-1.627-.219-.935-.127-1.869-.254-2.8-.392l-2.181-.346c-3.081-.485-6.138-1.038-9.2-1.662-.681-.127-1.35-.265-2.019-.415-2.054-.427-4.119-.888-6.161-1.373-1.373-.323-2.735-.658-4.1-1-.681-.173-1.361-.346-2.042-.531s-1.362-.358-2.042-.542c-2.711-.727-5.411-1.511-8.1-2.331q-4.69-1.419-9.323-3.011c-1.119-.381-2.25-.773-3.369-1.165-3.473-1.235-6.946-2.538-10.373-3.888-.612-.242-1.235-.5-1.881-.762-.5-.208-.992-.427-1.511-.658-.335-.15-.669-.3-1.015-.462-2.238-1.015-4.673-2.2-7.292-3.542-.438-.231-.888-.461-1.338-.692-1.6-.842-3.277-1.731-5-2.677-3.611-1.985-7.477-4.177-11.538-6.565-46.164-27.161-116.835-78.136-133.427-97.463-.842-.981-1.661-1.973-2.481-2.977-.635-.785-1.269-1.581-1.881-2.388-.565-.727-1.119-1.454-1.661-2.2q-.727-.969-1.419-1.973c-.438-.612-.877-1.235-1.3-1.858a.961.961,0,0,0-.092-.138c-.519-.773-1.038-1.546-1.546-2.331-.485-.75-.969-1.5-1.431-2.261-.231-.358-.45-.727-.669-1.1q-.779-1.281-1.523-2.561c0-.012,0-.012-.012-.023-.531-.946-1.062-1.892-1.581-2.85-.9-1.673-1.765-3.358-2.573-5.065-.208-.438-.415-.888-.623-1.327A105.536,105.536,0,0,1,24.143,337.4c-.45-1.269-.854-2.55-1.246-3.831-.5-1.65-.946-3.311-1.362-4.973-.081-.335-.162-.658-.231-.992-.208-.865-.4-1.742-.577-2.619-.265-1.223-.485-2.446-.692-3.681-.046-.3-.1-.6-.138-.9-.1-.635-.2-1.269-.277-1.915-.1-.762-.2-1.535-.277-2.3-.035-.265-.058-.519-.081-.773-.069-.658-.115-1.315-.173-1.961a.71.71,0,0,0-.012-.162c-.058-.785-.1-1.558-.127-2.331a1.471,1.471,0,0,1-.012-.219q-.052-1.229-.069-2.458c-.006-.306,0-.61,0-.915,0-.48,0-.959,0-1.44.016-1.2.051-2.408.121-3.61.046-.785.1-1.569.173-2.342.138-1.546.323-3.092.554-4.627.115-.785.242-1.569.392-2.342q.415-2.336,1-4.673A80.447,80.447,0,0,1,25.1,276.508a83.314,83.314,0,0,1,4.142-8.469c.115-.231.254-.473.392-.7,6.219-10.95,14.677-20.665,24.207-29.665,1.015-.969,2.042-1.915,3.092-2.85,1.1-1,2.2-1.985,3.323-2.977.069-.058.138-.127.208-.185q2.683-2.354,5.434-4.65c2.827-2.365,5.7-4.684,8.6-6.992.092-.081.2-.15.288-.231,2.481-1.961,4.984-3.911,7.477-5.85,3.923-3.035,7.857-6.058,11.711-9.069q1.54-1.194,3.046-2.388c1.119-.877,2.215-1.754,3.311-2.631a246.558,246.558,0,0,0,27.53-26.122q2.406-2.631,4.777-5.3c.75-.854,1.5-1.7,2.238-2.55,10.534-12,20.33-24.138,31.234-35.6q3.894-4.1,7.984-8.065c2.308-2.2,4.65-4.373,7.084-6.5,2.781-2.446,5.642-4.834,8.642-7.142,4.1-3.185,8.411-6.242,13.027-9.161,1.131-.727,2.25-1.431,3.381-2.123,115.047-71.5,199.725-48.16,256.216,0q6.386,5.417,12.3,11.284c2.4,2.319,4.719,4.719,6.969,7.142.254.254.485.519.727.8q2.371,2.527,4.615,5.088c.45.508.888,1.015,1.327,1.523.658.762,1.315,1.523,1.961,2.3.8.935,1.581,1.881,2.365,2.827.5.6.981,1.2,1.465,1.8q4.725,5.815,9.011,11.769c.577.785,1.142,1.581,1.708,2.377,3.946,5.538,7.615,11.134,11.019,16.7.485.8.969,1.592,1.442,2.377s.958,1.592,1.419,2.388.923,1.581,1.373,2.365.911,1.581,1.35,2.365.877,1.581,1.315,2.365.877,1.569,1.281,2.342c.427.785.842,1.569,1.258,2.342s.819,1.558,1.223,2.331.8,1.546,1.188,2.308.773,1.546,1.154,2.308q2.267,4.569,4.3,9.023c.669,1.5,1.338,2.988,1.973,4.454,2.873,6.6,5.331,12.911,7.338,18.784a.214.214,0,0,1,.023.081c.2.565.381,1.119.565,1.673.2.577.381,1.142.565,1.708.138.438.288.865.415,1.3.208.646.415,1.292.612,1.95q.329,1.056.623,2.111c.381,1.292.75,2.585,1.1,3.888.3,1.1.588,2.192.865,3.3.058.208.115.4.161.612.046.173.081.346.127.519.161.646.323,1.292.473,1.95.415,1.719.8,3.45,1.154,5.181.2.946.392,1.881.565,2.827.035.173.069.346.1.531q.26,1.333.485,2.665c.208,1.188.4,2.388.577,3.577.15.9.277,1.811.4,2.723.012.127.035.265.058.4.081.6.162,1.212.231,1.823.069.508.127,1.015.185,1.512.208,1.835.392,3.658.542,5.492l.1,1.246c.046.692.092,1.4.138,2.088.046.773.092,1.546.127,2.331.035.6.058,1.188.081,1.788.035.877.058,1.765.069,2.642C552.9,273.589,552.914,274.616,552.914,275.643Z" transform="translate(-18.859 -49.865)" fill="#489ddc"/><g opacity="0.7"><path d="M552.915,275.643a137.949,137.949,0,0,1-3.842,32.861c-.865,3.531-1.9,7.05-3.092,10.511-.346.992-.692,1.985-1.061,2.965-.3.808-.612,1.615-.923,2.411-.092.219-.173.438-.265.658-.335.831-.669,1.661-1.027,2.481-.058.127-.115.265-.173.4-.346.808-.7,1.615-1.062,2.411-.162.358-.323.7-.485,1.05-.323.715-.658,1.419-1,2.123-.358.75-.727,1.488-1.1,2.227-.138.265-.265.531-.4.785-.323.635-.658,1.269-.981,1.9-.265.5-.531.981-.8,1.465q-1.835,3.392-3.842,6.692c-.542.9-1.1,1.8-1.662,2.688-.127.219-.265.438-.4.658q-.969,1.523-1.973,3.046c-.542.819-1.085,1.638-1.65,2.458-.485.715-.969,1.419-1.465,2.135-.1.15-.208.3-.323.45-.508.738-1.038,1.477-1.558,2.215-.646.911-1.3,1.8-1.961,2.7-.138.185-.265.369-.4.542-.75,1.027-1.523,2.042-2.285,3.046-.462.6-.923,1.212-1.4,1.8-.831,1.1-1.685,2.181-2.55,3.265-.819,1.038-1.65,2.065-2.492,3.092-.092.115-.185.219-.277.335-.831,1.027-1.662,2.042-2.515,3.058-.242.312-.508.623-.762.923-.773.935-1.558,1.869-2.342,2.792q-3.392,4.015-6.842,7.961-7.009,8.065-14.319,16.026c-4.05,4.385-8.157,8.746-12.346,13.027-20.1,20.642-41.86,39.9-65.525,55.245-2.942,1.9-5.908,3.761-8.907,5.527-1.1.646-2.192,1.292-3.288,1.927-.185.1-.381.219-.565.323-1.131.646-2.261,1.281-3.4,1.9-1.165.646-2.331,1.281-3.508,1.892l-1.592.831q-3.444,1.8-6.957,3.461c-1.258.6-2.515,1.177-3.785,1.742-1.165.531-2.342,1.05-3.519,1.558-.485.208-.958.415-1.442.612-1.073.462-2.158.9-3.242,1.338q-3.133,1.263-6.323,2.411c-.808.3-1.627.588-2.446.877-.462.161-.923.311-1.385.473-.762.254-1.523.508-2.285.75-.658.219-1.327.427-1.985.635-.023.012-.046.012-.069.023q-1.956.606-3.911,1.177c-2.065.6-4.131,1.154-6.208,1.685-1.373.346-2.746.669-4.131.981-1.3.3-2.608.577-3.923.854a2.967,2.967,0,0,1-.311.058c-1.362.277-2.735.542-4.108.785-.7.127-1.4.242-2.1.358s-1.408.231-2.123.335c-.635.1-1.281.2-1.915.277-.773.115-1.558.219-2.331.323a178.279,178.279,0,0,1-24.657,1.4c-.5,0-.981-.012-1.477-.023a204.055,204.055,0,0,1-22.326-1.673c-.542-.069-1.085-.138-1.627-.219-.935-.127-1.869-.254-2.8-.392l-2.181-.346c-3.081-.485-6.138-1.038-9.2-1.662-.681-.127-1.35-.265-2.019-.415-2.054-.427-4.119-.888-6.161-1.373-1.373-.323-2.735-.658-4.1-1-.681-.173-1.361-.346-2.042-.531s-1.362-.358-2.042-.542c-2.711-.727-5.411-1.511-8.1-2.331q-4.69-1.419-9.323-3.011c-1.119-.381-2.25-.773-3.369-1.165-3.473-1.235-6.946-2.538-10.373-3.888-.612-.242-1.235-.5-1.881-.762-.5-.208-.992-.427-1.511-.658-.335-.15-.669-.3-1.015-.462-2.238-1.015-4.673-2.2-7.292-3.542-.438-.231-.888-.461-1.338-.692-1.6-.842-3.277-1.731-5-2.677-3.611-1.985-7.477-4.177-11.538-6.565-46.164-27.161-116.835-78.136-133.427-97.463-.842-.981-1.661-1.973-2.481-2.977-.635-.785-1.269-1.581-1.881-2.388-.565-.727-1.119-1.454-1.661-2.2q-.727-.969-1.419-1.973c-.438-.612-.877-1.235-1.3-1.858a.961.961,0,0,0-.092-.138c-.519-.773-1.038-1.546-1.546-2.331-.485-.75-.969-1.5-1.431-2.261-.231-.358-.45-.727-.669-1.1q-.779-1.281-1.523-2.561c0-.012,0-.012-.012-.023-.531-.946-1.062-1.892-1.581-2.85-.9-1.673-1.765-3.358-2.573-5.065-.208-.438-.415-.888-.623-1.327A105.536,105.536,0,0,1,24.144,337.4c-.45-1.269-.854-2.55-1.246-3.831-.5-1.65-.946-3.311-1.362-4.973-.081-.335-.162-.658-.231-.992-.208-.865-.4-1.742-.577-2.619-.265-1.223-.5-2.446-.692-3.681-.046-.3-.1-.6-.138-.9-.1-.635-.2-1.269-.277-1.915-.1-.762-.2-1.535-.277-2.3-.035-.265-.058-.519-.081-.773-.069-.658-.115-1.315-.173-1.961a.71.71,0,0,0-.012-.162c-.058-.785-.1-1.558-.127-2.331a1.471,1.471,0,0,1-.012-.219q-.052-1.229-.069-2.458c-.035-2,.012-3.981.127-5.965.046-.785.1-1.569.173-2.342.138-1.546.323-3.092.554-4.627.115-.785.242-1.569.392-2.342q.415-2.336,1-4.673A80.447,80.447,0,0,1,25.1,276.508a83.314,83.314,0,0,1,4.142-8.469c.115-.231.254-.473.392-.7,6.219-10.95,14.677-20.665,24.207-29.665.542-.519,1.085-1.027,1.638-1.535l1.454-1.315c1.1-1,2.2-1.985,3.323-2.977.069-.058.138-.127.208-.185q2.683-2.354,5.434-4.65c2.827-2.365,5.7-4.684,8.6-6.992.092-.081.2-.15.288-.231,2.481-1.961,4.984-3.911,7.477-5.85,1.258-.969,2.5-1.938,3.761-2.908,2.665-2.054,5.331-4.108,7.95-6.161q1.54-1.194,3.046-2.388c1.119-.877,2.215-1.754,3.311-2.631a246.557,246.557,0,0,0,27.53-26.122q2.406-2.631,4.777-5.3c.75-.854,1.5-1.7,2.238-2.55,10.534-12,20.33-24.138,31.234-35.6q3.894-4.1,7.984-8.065c2.308-2.2,4.65-4.373,7.084-6.5,2.781-2.446,5.642-4.834,8.642-7.142,4.1-3.185,8.411-6.242,13.027-9.161,1.131-.727,2.25-1.431,3.381-2.123,115.047-71.5,199.725-48.16,256.216,0q6.386,5.417,12.3,11.284c2.4,2.319,4.719,4.719,6.969,7.142.254.254.485.519.727.8q2.371,2.527,4.615,5.088c.45.508.888,1.015,1.327,1.523.658.762,1.315,1.523,1.961,2.3.8.935,1.581,1.881,2.365,2.827.5.6.981,1.2,1.465,1.8q4.725,5.815,9.011,11.769c.577.785,1.142,1.581,1.708,2.377,3.946,5.538,7.615,11.134,11.019,16.7.485.8.969,1.592,1.442,2.377s.958,1.592,1.419,2.388.923,1.581,1.373,2.365.911,1.581,1.35,2.365.877,1.581,1.315,2.365.877,1.569,1.281,2.342c.427.785.842,1.569,1.258,2.342s.819,1.558,1.223,2.331.8,1.546,1.188,2.308.773,1.546,1.154,2.308q2.285,4.569,4.3,9.023c.669,1.5,1.338,2.988,1.973,4.454,2.873,6.6,5.331,12.911,7.338,18.784a.214.214,0,0,1,.023.081c.2.565.381,1.119.565,1.673.2.577.381,1.142.565,1.708.138.438.288.865.415,1.3.208.646.415,1.292.612,1.95q.329,1.056.623,2.111c.381,1.292.75,2.585,1.1,3.888.3,1.1.588,2.192.865,3.3.058.208.115.4.161.612.046.173.081.346.127.519.161.646.323,1.292.473,1.95.415,1.719.8,3.45,1.154,5.181.2.946.392,1.881.565,2.827.035.173.069.346.1.531q.26,1.333.485,2.665c.208,1.188.4,2.388.577,3.577.15.9.277,1.811.4,2.723.012.127.035.265.058.4.081.6.162,1.212.231,1.823.069.508.127,1.015.185,1.512.208,1.835.392,3.658.542,5.492l.1,1.246c.046.692.092,1.4.138,2.088.046.773.092,1.546.127,2.331.035.6.058,1.188.081,1.788.035.877.058,1.765.069,2.642C552.9,273.589,552.915,274.616,552.915,275.643Z" transform="translate(-18.86 -52.006)" fill="#fff"/></g></g></g><g transform="translate(30.279 210.813)"><path d="M32.16,262.281c-.231-.15-.173-.254,0,0Z" transform="translate(-28.257 -178.353)" fill="#263238" opacity="0.2"/><path d="M139.676,263.224a21.143,21.143,0,0,1-14.5,16.7l-2.861.935c-10.292,14.573-28.338,20.792-43.718,11.757l-4.5-2.642-12.6-14.977-.15.035c-3.992.831-8.5.219-11.457-2.6a4.123,4.123,0,0,1-5.85,2.654,4.125,4.125,0,0,1-.508-6.4c-2.538,2.238-6.461,1.211-8.907-1.235a76.962,76.962,0,0,1,2.25-19.949,80.447,80.447,0,0,1,3.981-11.827,83.313,83.313,0,0,1,4.142-8.469c.115-.231.254-.473.392-.7a101.394,101.394,0,0,1,7.673-11.561l1.454-1.315c1.1-1,2.2-1.985,3.323-2.977.069-.058.138-.127.208-.185q2.683-2.354,5.434-4.65c2.827-2.365,5.7-4.684,8.6-6.992.092-.081.2-.15.288-.231,2.481-1.961,4.984-3.911,7.477-5.85,1.258-.969,2.5-1.938,3.761-2.908a10.316,10.316,0,0,1,2.215.519c3.081,1.073,3.611,3.9,5.746,5.838,2.838,2.6,5.561-1.765,9.934-1.627,13.442.415,8.227,14.2,14.792,12.473,28.349-7.477,23.584,28.788,11.261,36.749C134.819,249.805,141.084,253.786,139.676,263.224Z" transform="translate(-27.856 -189.473)" opacity="0.2"/><g transform="translate(3.048 13.778)"><ellipse cx="47.813" cy="47.221" rx="47.813" ry="47.221" fill="#fff" stroke="#263238" stroke-miterlimit="10" stroke-width="1"/><ellipse cx="43.595" cy="43.056" rx="43.595" ry="43.056" transform="translate(4.217 2.254)" fill="#263238" stroke="#fff" stroke-miterlimit="10" stroke-width="1"/></g><path d="M32.771,265.582c-2.745,1.7-3.531,7.444-1.366,9.93s6.3.563,7.143-3.309a1.289,1.289,0,0,0,2.332.324,2.661,2.661,0,0,0,.159-2.428c-.207-.174-.132-.3,0,0,1.4,1.116,3.826-.1,4.163-2.486-1.028,6.342,4.739,11.881,8.988,8.655-1.254,2.7.389,6.242,2.587,6.923s4.548-.613,6.649-2.052,4.247-3.078,6.543-3.179c2-.1,3.858,1.033,5.763,1.7,6.069,2.113,13.172-.686,17.815-7.05,3.068,5.25,10.627,3.317,12.653-3.22.426,3.061,2.521,5.391,4.856,5.422s4.694-2.238,5.493-5.28v.039c.052,2.9,2.635,4.315,4.481,2.452,2.36-2.376,3.823-6.741,2.661-10.237,3.145-.126,6.188-3.773,6.663-8s-1.648-8.462-4.681-9.292c5.2-2.163,9.285-9.254,9.48-16.493s-3.526-13.946-8.64-15.637a5.444,5.444,0,0,0-5.869,1.228c-.606-4.118-2.476-7.8-5.229-9.647-4.388-2.964-10.492-.933-13.757,4.584a10.852,10.852,0,0,0,.25-9.675c-1.449-2.691-4.331-3.77-6.775-2.5-.527-4.417-3.938-7.561-7.275-6.7s-6.022,5.579-5.737,10.051c-.312-3.6-4.56-4.491-6.092-1.471.132.272-.065.111,0,0-2.118-4.453-6.436-6.741-10.441-5.439-4.259,1.4-7.834,6.745-8.381,12.578-2.938-2.68-7.225-2.564-10.379.287s-4.971,8.241-4.42,13.07c-3.314-3.271-8.889-1.486-11.161,3.569s-.7,12.214,3.133,14.33c-2.648.4-4.975,3.913-4.978,7.466s2.341,6.6,4.994,6.508c-2.676.231-5.2,3.391-5.587,6.983S30.209,264.79,32.771,265.582Z" transform="translate(-28.757 -189.521)" fill="#489ddc"/><g transform="translate(9.826 17.564)" opacity="0.2"><g transform="translate(29.897 36.741)"><path d="M71.431,241.8a4.969,4.969,0,0,0-4.671-1.15,5.534,5.534,0,0,0-3.5,4.288c-.372,2.086.593,4.391,2.192,4.788,1.945.482,3.941-1.694,5.928-1.456a14.2,14.2,0,0,1,2.046.668c2.845.8,5.728-1.758,8.145-4.163a11.193,11.193,0,0,0,2.3-2.875,4.679,4.679,0,0,0,.309-3.795c-.7-1.554-2.431-1.683-3.878-1.385a15.5,15.5,0,0,0-8.037,4.729q.128-.874.255-1.749Z" transform="translate(-63.184 -236.586)" fill="#fff"/></g><g transform="translate(74.316 34.675)"><path d="M107.185,236.387a6.42,6.42,0,0,0-2.471-1.525,2.381,2.381,0,0,0-2.609,1.087,3.8,3.8,0,0,0,.643,4.338,6.049,6.049,0,0,0,3.62,1.352c1.315.179,2.978.138,3.658-1.387a3.324,3.324,0,0,0-.555-3.324,5.6,5.6,0,0,0-2.565-1.473Z" transform="translate(-101.682 -234.796)" fill="#fff"/></g><path d="M50.651,216.5a12.609,12.609,0,0,0-5.464,8.44c-.207,1.092-.205,2.447.525,2.976a1.93,1.93,0,0,0,1.794-.052l7.662-2.774a11.539,11.539,0,0,0-3.475,2.534,5.771,5.771,0,0,0-1.386,4.518,3.323,3.323,0,0,0,3.474,2.812,7.484,7.484,0,0,0,4.238-2.391,7.785,7.785,0,0,0,2.739-5.139c.063-2.083-1.957-3.887-3.235-2.476a28.427,28.427,0,0,0,8.266-5.25,9.876,9.876,0,0,0,2.417-2.966,5.074,5.074,0,0,0,.314-3.977c-2.495-5.873-5.947,3.178-7.563,4.064C57.891,218.5,54.545,214.213,50.651,216.5Z" transform="translate(-36.074 -203.813)" fill="#fff"/><path d="M39.537,239.6a3.671,3.671,0,0,0,.607,3.328,1.507,1.507,0,0,0,2.445-.787c-1.713.782-3.543,1.672-4.637,3.563s-.89,5.068.79,5.67c1.049.375,2.19-.355,3.178-1.095a65.831,65.831,0,0,0,7.992-7.1,3.654,3.654,0,0,0,2.867,4.777c1.892.09,3.686-1.323,5.335-2.683,2.021-1.666,4.351-4.165,3.879-7.031a3.452,3.452,0,0,0-4.879-2.6c-1.958.86-3.459,2.95-4.858,4.952,1.105-2.05-.359-4.9-2.223-5.111-1.813-.2-3.652,1.32-4.816,3.1,2.144-1.612,2.69-5.506-.138-5.779C43.237,232.622,40.019,237.606,39.537,239.6Z" transform="translate(-37.273 -200.428)" fill="#fff"/><path d="M90.522,228.107c-1.585-.665-3.615.786-4.085,2.92s.728,4.465,2.41,4.693a5.07,5.07,0,0,0-3.268,2.343,3.994,3.994,0,0,0-.723,2.466,2.251,2.251,0,0,0,2.236,2.073,6.129,6.129,0,0,0,2.985-1.241,5.046,5.046,0,0,0-2.938,1.255c-.826.853-1.209,2.574-.5,3.452.6.735,1.6.545,2.433.2a13.146,13.146,0,0,0,5.056-3.888c1.03,1.428,2.576,2.409,4.139,1.989a4.007,4.007,0,0,0,2.47-4.5,2.9,2.9,0,0,0-2.54-2.238,6.638,6.638,0,0,0-3.321.862,8.5,8.5,0,0,0,2.726-3.9c.43-1.659-.4-3.8-1.74-3.588-1.509.242-2.327,2.905-3.533,3.918C90.9,233.263,93.713,229.443,90.522,228.107Z" transform="translate(-29.956 -201.174)" fill="#fff"/><g transform="translate(31.244 19.719)"><path d="M66.674,222.719c-1.741,1.585-2.387,4.539-2.317,7.167.078,2.9,1.059,5.946,3.131,6.985,2.725,1.367,6.22-1.765,6.795-5.575a9.33,9.33,0,0,0-3.935-9.136A3.3,3.3,0,0,0,66.674,222.719Z" transform="translate(-64.352 -221.834)" fill="#fff"/></g><g transform="translate(47.432 13.086)"><path d="M83.8,219.287l.695.737a3.035,3.035,0,0,0-5.012-.2,5.5,5.5,0,0,0-.134,6.423c1.348,1.555,3.819,1.177,5.032-.771a4.609,4.609,0,0,0,6.034-1.8c1.438-2.238,1.19-5.97-.691-7.232s-4.818.984-4.667,3.755q-.4-.561-.805-1.124Z" transform="translate(-78.382 -216.084)" fill="#fff"/></g><g transform="translate(70.446 19.116)"><path d="M101.882,221.552a15.885,15.885,0,0,0-3.384,6.085c-.541,2.383.227,5.325,2.068,5.812s3.608-1.558,4.695-3.638c.98-1.878,1.745-4.192,1.237-6.229s-2.825-3.121-4.023-1.454Z" transform="translate(-98.328 -221.311)" fill="#fff"/></g><path d="M75.92,211.771a2.665,2.665,0,0,0-4.3-1.254,5.9,5.9,0,0,0-1.446,5.8,4.544,4.544,0,0,0,3.863,3.362,4.261,4.261,0,0,0,4.165-4.717,3.71,3.71,0,0,0,3.961,1.681,10.226,10.226,0,0,0,4.183-2.244c1.776-1.392,3.68-3.494,3.542-6.048a3.683,3.683,0,0,0-3.232-3.606c-1.6-.092-3.2.954-4.445,2.363-.982,1.107-1.8,2.447-2.861,3.429s-2.482,1.56-3.583.863Z" transform="translate(-32.248 -204.743)" fill="#fff"/></g></g><g transform="translate(165.19 305.721)"><g transform="translate(0 1.137)"><rect width="266.148" height="112.09" fill="#489ddc" stroke="#263238" stroke-linecap="round" stroke-linejoin="round" stroke-width="1"/><g transform="translate(5.561 6.782)"><rect width="25.041" height="13.862" fill="#fff" stroke="#263238" stroke-miterlimit="10" stroke-width="1"/><rect width="39.442" height="13.862" transform="translate(214.989 67.572)" fill="#fff" stroke="#263238" stroke-miterlimit="10" stroke-width="1"/><rect width="24.346" height="13.862" transform="translate(230.085 17.311)" fill="#fff" stroke="#263238" stroke-miterlimit="10" stroke-width="1"/><rect width="25.041" height="13.862" transform="translate(0 50.48)" fill="#fff" stroke="#263238" stroke-miterlimit="10" stroke-width="1"/><rect width="20.272" height="13.862" transform="translate(0 33.786)" fill="#fff" stroke="#263238" stroke-miterlimit="10" stroke-width="1"/><g transform="translate(0 16.893)"><rect width="13.862" height="13.862" fill="#fff" stroke="#263238" stroke-miterlimit="10" stroke-width="1"/><rect width="13.862" height="13.862" transform="translate(17.692)" fill="#fff" stroke="#263238" stroke-miterlimit="10" stroke-width="1"/><rect width="13.862" height="13.862" transform="translate(35.384)" fill="#fff" stroke="#263238" stroke-miterlimit="10" stroke-width="1"/><rect width="13.862" height="13.862" transform="translate(53.077)" fill="#fff" stroke="#263238" stroke-miterlimit="10" stroke-width="1"/><rect width="13.862" height="13.862" transform="translate(70.769)" fill="#fff" stroke="#263238" stroke-miterlimit="10" stroke-width="1"/><rect width="13.862" height="13.862" transform="translate(88.461)" fill="#fff" stroke="#263238" stroke-miterlimit="10" stroke-width="1"/><rect width="13.862" height="13.862" transform="translate(106.153)" fill="#fff" stroke="#263238" stroke-miterlimit="10" stroke-width="1"/><rect width="13.862" height="13.862" transform="translate(123.845)" fill="#fff" stroke="#263238" stroke-miterlimit="10" stroke-width="1"/><rect width="13.862" height="13.862" transform="translate(141.537)" fill="#fff" stroke="#263238" stroke-miterlimit="10" stroke-width="1"/><rect width="13.862" height="13.862" transform="translate(159.229)" fill="#fff" stroke="#263238" stroke-miterlimit="10" stroke-width="1"/><rect width="13.862" height="13.862" transform="translate(176.922)" fill="#fff" stroke="#263238" stroke-miterlimit="10" stroke-width="1"/><rect width="13.862" height="13.862" transform="translate(194.614)" fill="#fff" stroke="#263238" stroke-miterlimit="10" stroke-width="1"/><rect width="13.862" height="13.862" transform="translate(212.306)" fill="#fff" stroke="#263238" stroke-miterlimit="10" stroke-width="1"/></g><g transform="translate(0 84.664)"><rect width="13.862" height="13.862" fill="#fff" stroke="#263238" stroke-miterlimit="10" stroke-width="1"/><rect width="13.862" height="13.862" transform="translate(17.692)" fill="#fff" stroke="#263238" stroke-miterlimit="10" stroke-width="1"/><rect width="13.862" height="13.862" transform="translate(35.384)" fill="#fff" stroke="#263238" stroke-miterlimit="10" stroke-width="1"/><rect width="16.913" height="13.862" transform="translate(53.077)" fill="#fff" stroke="#263238" stroke-miterlimit="10" stroke-width="1"/><rect width="84.631" height="13.862" transform="translate(73.82)" fill="#fff" stroke="#263238" stroke-miterlimit="10" stroke-width="1"/><rect width="13.862" height="13.862" transform="translate(186.904)" fill="#fff" stroke="#263238" stroke-miterlimit="10" stroke-width="1"/><rect width="13.862" height="13.862" transform="translate(204.596)" fill="#fff" stroke="#263238" stroke-miterlimit="10" stroke-width="1"/><rect width="13.862" height="13.862" transform="translate(222.318)" fill="#fff" stroke="#263238" stroke-miterlimit="10" stroke-width="1"/><rect width="21.522" height="13.862" transform="translate(161.912)" fill="#fff" stroke="#263238" stroke-miterlimit="10" stroke-width="1"/><rect width="13.862" height="13.862" transform="translate(240.569)" fill="#fff" stroke="#263238" stroke-miterlimit="10" stroke-width="1"/></g><g transform="translate(24.205 33.786)"><rect width="13.862" height="13.862" fill="#fff" stroke="#263238" stroke-miterlimit="10" stroke-width="1"/><rect width="13.862" height="13.862" transform="translate(17.692)" fill="#fff" stroke="#263238" stroke-miterlimit="10" stroke-width="1"/><rect width="13.862" height="13.862" transform="translate(35.384)" fill="#fff" stroke="#263238" stroke-miterlimit="10" stroke-width="1"/><rect width="13.862" height="13.862" transform="translate(53.077)" fill="#fff" stroke="#263238" stroke-miterlimit="10" stroke-width="1"/><rect width="13.862" height="13.862" transform="translate(70.769)" fill="#fff" stroke="#263238" stroke-miterlimit="10" stroke-width="1"/><rect width="13.862" height="13.862" transform="translate(88.461)" fill="#fff" stroke="#263238" stroke-miterlimit="10" stroke-width="1"/><rect width="13.862" height="13.862" transform="translate(106.153)" fill="#fff" stroke="#263238" stroke-miterlimit="10" stroke-width="1"/><rect width="13.862" height="13.862" transform="translate(123.845)" fill="#fff" stroke="#263238" stroke-miterlimit="10" stroke-width="1"/><rect width="13.862" height="13.862" transform="translate(141.537)" fill="#fff" stroke="#263238" stroke-miterlimit="10" stroke-width="1"/><rect width="13.862" height="13.862" transform="translate(159.23)" fill="#fff" stroke="#263238" stroke-miterlimit="10" stroke-width="1"/><rect width="13.862" height="13.862" transform="translate(176.922)" fill="#fff" stroke="#263238" stroke-miterlimit="10" stroke-width="1"/><rect width="13.862" height="13.862" transform="translate(194.614)" fill="#fff" stroke="#263238" stroke-miterlimit="10" stroke-width="1"/><path d="M373.4,307.924v30.753H359.546V321.782h-4.065V307.924Z" transform="translate(-143.179 -307.921)" fill="#fff" stroke="#263238" stroke-miterlimit="10" stroke-width="1"/></g><g transform="translate(28.263 50.679)"><rect width="13.862" height="13.862" fill="#fff" stroke="#263238" stroke-miterlimit="10" stroke-width="1"/><rect width="13.862" height="13.862" transform="translate(17.692)" fill="#fff" stroke="#263238" stroke-miterlimit="10" stroke-width="1"/><rect width="13.862" height="13.862" transform="translate(35.384)" fill="#fff" stroke="#263238" stroke-miterlimit="10" stroke-width="1"/><rect width="13.862" height="13.862" transform="translate(53.076)" fill="#fff" stroke="#263238" stroke-miterlimit="10" stroke-width="1"/><rect width="13.862" height="13.862" transform="translate(70.769)" fill="#fff" stroke="#263238" stroke-miterlimit="10" stroke-width="1"/><rect width="13.862" height="13.862" transform="translate(88.461)" fill="#fff" stroke="#263238" stroke-miterlimit="10" stroke-width="1"/><rect width="13.862" height="13.862" transform="translate(106.153)" fill="#fff" stroke="#263238" stroke-miterlimit="10" stroke-width="1"/><rect width="13.862" height="13.862" transform="translate(123.845)" fill="#fff" stroke="#263238" stroke-miterlimit="10" stroke-width="1"/><rect width="13.862" height="13.862" transform="translate(141.537)" fill="#fff" stroke="#263238" stroke-miterlimit="10" stroke-width="1"/><rect width="13.862" height="13.862" transform="translate(159.229)" fill="#fff" stroke="#263238" stroke-miterlimit="10" stroke-width="1"/><rect width="13.862" height="13.862" transform="translate(176.921)" fill="#fff" stroke="#263238" stroke-miterlimit="10" stroke-width="1"/><rect width="13.862" height="13.862" transform="translate(194.614)" fill="#fff" stroke="#263238" stroke-miterlimit="10" stroke-width="1"/></g><g transform="translate(20.743 67.572)"><rect width="13.862" height="13.862" fill="#fff" stroke="#263238" stroke-miterlimit="10" stroke-width="1"/><rect width="13.862" height="13.862" transform="translate(17.692)" fill="#fff" stroke="#263238" stroke-miterlimit="10" stroke-width="1"/><rect width="13.862" height="13.862" transform="translate(35.384)" fill="#fff" stroke="#263238" stroke-miterlimit="10" stroke-width="1"/><rect width="13.862" height="13.862" transform="translate(53.077)" fill="#fff" stroke="#263238" stroke-miterlimit="10" stroke-width="1"/><rect width="13.862" height="13.862" transform="translate(70.769)" fill="#fff" stroke="#263238" stroke-miterlimit="10" stroke-width="1"/><rect width="13.862" height="13.862" transform="translate(88.461)" fill="#fff" stroke="#263238" stroke-miterlimit="10" stroke-width="1"/><rect width="13.862" height="13.862" transform="translate(106.153)" fill="#fff" stroke="#263238" stroke-miterlimit="10" stroke-width="1"/><rect width="13.862" height="13.862" transform="translate(123.845)" fill="#fff" stroke="#263238" stroke-miterlimit="10" stroke-width="1"/><rect width="13.862" height="13.862" transform="translate(141.537)" fill="#fff" stroke="#263238" stroke-miterlimit="10" stroke-width="1"/><rect width="13.862" height="13.862" transform="translate(159.23)" fill="#fff" stroke="#263238" stroke-miterlimit="10" stroke-width="1"/><rect width="13.862" height="13.862" transform="translate(176.922)" fill="#fff" stroke="#263238" stroke-miterlimit="10" stroke-width="1"/></g><g transform="translate(28.263 0.836)"><rect width="13.862" height="13.862" fill="#fff" stroke="#263238" stroke-miterlimit="10" stroke-width="1"/><rect width="13.862" height="13.862" transform="translate(17.692)" fill="#fff" stroke="#263238" stroke-miterlimit="10" stroke-width="1"/><rect width="13.862" height="13.862" transform="translate(35.384)" fill="#fff" stroke="#263238" stroke-miterlimit="10" stroke-width="1"/><rect width="13.862" height="13.862" transform="translate(53.076)" fill="#fff" stroke="#263238" stroke-miterlimit="10" stroke-width="1"/><rect width="13.862" height="13.862" transform="translate(70.769)" fill="#fff" stroke="#263238" stroke-miterlimit="10" stroke-width="1"/><rect width="13.862" height="13.862" transform="translate(88.461)" fill="#fff" stroke="#263238" stroke-miterlimit="10" stroke-width="1"/><rect width="13.862" height="13.862" transform="translate(106.153)" fill="#fff" stroke="#263238" stroke-miterlimit="10" stroke-width="1"/><rect width="13.862" height="13.862" transform="translate(123.845)" fill="#fff" stroke="#263238" stroke-miterlimit="10" stroke-width="1"/><rect width="13.862" height="13.862" transform="translate(141.537)" fill="#fff" stroke="#263238" stroke-miterlimit="10" stroke-width="1"/><rect width="13.862" height="13.862" transform="translate(159.229)" fill="#fff" stroke="#263238" stroke-miterlimit="10" stroke-width="1"/><rect width="13.862" height="13.862" transform="translate(176.921)" fill="#fff" stroke="#263238" stroke-miterlimit="10" stroke-width="1"/><rect width="13.862" height="13.862" transform="translate(194.614)" fill="#fff" stroke="#263238" stroke-miterlimit="10" stroke-width="1"/><rect width="13.862" height="13.862" transform="translate(212.306)" fill="#fff" stroke="#263238" stroke-miterlimit="10" stroke-width="1"/></g><rect width="16.794" height="13.862" transform="translate(0 67.572)" fill="#fff" stroke="#263238" stroke-miterlimit="10" stroke-width="1"/></g></g><path d="M145.683,273.631l5.561-1.855H408.216l3.662,1.831Z" transform="translate(-145.683 -271.776)" fill="#263238"/></g><g transform="translate(180.68 331.702)"><path d="M315.955,462.3l-5.411-32.6a26.623,26.623,0,0,0-7.327-12.761c-10.765-10.384-24.992-21.046-25.6-34.661-.935-20.8-4.177-20.18-3.831-25.315a62.388,62.388,0,0,0,3.7-7.615,44.386,44.386,0,0,0,1.569-6.161,4.205,4.205,0,0,1,4.661-3.288,7.144,7.144,0,0,1,3.911,1.835,10.833,10.833,0,0,1,2.931,7.5,32.065,32.065,0,0,1-1.154,8.146c1.938,4.338,2.85,9.611,3.473,14.319,1.235-3.808,2.169-7.65,3.4-11.446.254-.138.162-.438.4-.577-1.742-3.738-.265-3.531-3.715-11.757-5.8-13.846-12.277-27.2-16.9-44.595a9.893,9.893,0,0,1,.1-4.892c1.673-4.973,6.8-3.831,9.034-.935a9.559,9.559,0,0,1,1.385,2.515A134.37,134.37,0,0,0,297.633,321.3L310.2,340.458s4.373-3.588,5.042-5.192l.012-.012c.658-1.615.981-14.619.981-14.619s-.992,2.435-3.2,2.3c-1.592-.115-4.823.808-7.119-1.777a6.008,6.008,0,0,1-.208-7.546l5.688-7.684a8.626,8.626,0,0,1,8.931-1.073,42.485,42.485,0,0,1,10.05,7.038,20.551,20.551,0,0,1,8.746,1.685c4.027,1.938,8.25,7.5,8.25,7.5s4.7.288,6.807,1.823c.531.381,7.7,11.538,5.111,20.226-1.535,5.181-2.481,12.7-3.173,14.723L352.6,408.717l7.1,33.484-15.171,8.458a108.6,108.6,0,0,1-17.46,7.807Z" transform="translate(-141.473 -294.183)" opacity="0.2"/><g transform="translate(133.775)"><path d="M358.842,402.966l.135-51c.556-2.062,1-9.63,2.185-14.9,2-8.841-5.889-19.5-6.444-19.841-2.211-1.382-6.914-1.358-6.914-1.358s-4.581-5.272-8.73-6.939a20.566,20.566,0,0,0-8.839-1.1,42.211,42.211,0,0,0-10.5-6.359,8.635,8.635,0,0,0-8.839,1.667l-5.161,8.037a6.017,6.017,0,0,0,.7,7.518c2.469,2.432,5.629,1.3,7.223,1.3,2.21,0,3.037-2.495,3.037-2.495s.543,12.988,0,14.643l-.013.013c-.568,1.655-4.691,5.519-4.691,5.519l-13.8-18.273a133.416,133.416,0,0,1-12.432-20.507,9.432,9.432,0,0,0-1.556-2.421c-2.42-2.74-7.6-3.543-8.95,1.531a9.934,9.934,0,0,0,.222,4.89c5.778,17.05,13.125,29.939,19.828,43.372,3.988,7.976,2.506,7.877,4.494,11.483-.234.16-.124.457-.37.6-.975,3.877-1.655,7.766-2.63,11.643-.938-4.654-2.2-9.852-4.42-14.05a31.674,31.674,0,0,0,.6-8.211,10.792,10.792,0,0,0-3.42-7.285,7.091,7.091,0,0,0-4.025-1.567,4.2,4.2,0,0,0-4.432,3.592,42.432,42.432,0,0,1-1.161,6.248,62.406,62.406,0,0,1-3.186,7.84c0,5.148,3.186,4.308,5.506,25.014,1.8,16.125,22.57,26.779,33.879,38.422l12.049,37.9a233.655,233.655,0,0,0,40.213-21.113Z" transform="translate(-275.049 -294.294)" fill="#fff"/><g clip-path="url(#a)"><g transform="translate(3.744 6.43)"><g transform="translate(69.433 14.696)"><path d="M343.173,330.846a8.873,8.873,0,0,1,2.649-4c1.31-.955,3.365-1.075,4.416.158q-1.291-3.97-2.743-7.885c-.736-1.987-1.567-4.055-3.208-5.4s-4.343-1.625-5.75-.039a62.207,62.207,0,0,1,.323,18.236c-.427,3.276-.977,7.043,1.23,9.5.607.5,1.661-.395,1.277-1.077-.182-.323-.837-.345-1.118-.316A58.15,58.15,0,0,1,343.173,330.846Z" transform="translate(-338.471 -312.604)" fill="#92e3a9"/><path d="M343.173,330.846a8.873,8.873,0,0,1,2.649-4c1.31-.955,3.365-1.075,4.416.158q-1.291-3.97-2.743-7.885c-.736-1.987-1.567-4.055-3.208-5.4s-4.343-1.625-5.75-.039a62.207,62.207,0,0,1,.323,18.236c-.427,3.276-.977,7.043,1.23,9.5.607.5,1.661-.395,1.277-1.077-.182-.323-.837-.345-1.118-.316A58.15,58.15,0,0,1,343.173,330.846Z" transform="translate(-338.471 -312.604)" fill="#489ddc"/><path d="M343.173,330.846a8.873,8.873,0,0,1,2.649-4c1.31-.955,3.365-1.075,4.416.158q-1.291-3.97-2.743-7.885c-.736-1.987-1.567-4.055-3.208-5.4s-4.343-1.625-5.75-.039a62.207,62.207,0,0,1,.323,18.236c-.427,3.276-.977,7.043,1.23,9.5.607.5,1.661-.395,1.277-1.077-.182-.323-.837-.345-1.118-.316A58.15,58.15,0,0,1,343.173,330.846Z" transform="translate(-338.471 -312.604)" fill="#fff" opacity="0.5"/></g><g transform="translate(52.323 7.564)"><path d="M327.046,326.322a31.875,31.875,0,0,0,.621,6.619,8.273,8.273,0,0,0,3.686,5.326c-1.145-4.3-.526-8.846.1-13.252q.569-4.014,1.14-8.028a6.087,6.087,0,0,1,.813-2.671,2.089,2.089,0,0,1,2.44-.884c-1.14.676-2.621-.23-3.308-1.363s-.96-2.5-1.773-3.548c-1.542-1.983-4.841-2.421-7.124-1.893C324.334,313.219,326.78,319.511,327.046,326.322Z" transform="translate(-323.642 -306.423)" fill="#92e3a9"/><path d="M327.046,326.322a31.875,31.875,0,0,0,.621,6.619,8.273,8.273,0,0,0,3.686,5.326c-1.145-4.3-.526-8.846.1-13.252q.569-4.014,1.14-8.028a6.087,6.087,0,0,1,.813-2.671,2.089,2.089,0,0,1,2.44-.884c-1.14.676-2.621-.23-3.308-1.363s-.96-2.5-1.773-3.548c-1.542-1.983-4.841-2.421-7.124-1.893C324.334,313.219,326.78,319.511,327.046,326.322Z" transform="translate(-323.642 -306.423)" fill="#489ddc"/><g opacity="0.5"><path d="M327.046,326.322a31.875,31.875,0,0,0,.621,6.619,8.273,8.273,0,0,0,3.686,5.326c-1.145-4.3-.526-8.846.1-13.252q.569-4.014,1.14-8.028a6.087,6.087,0,0,1,.813-2.671,2.089,2.089,0,0,1,2.44-.884c-1.14.676-2.621-.23-3.308-1.363s-.96-2.5-1.773-3.548c-1.542-1.983-4.841-2.421-7.124-1.893C324.334,313.219,326.78,319.511,327.046,326.322Z" transform="translate(-323.642 -306.423)" fill="#fff"/></g></g><g transform="translate(0 4.921)"><path d="M311.584,308.887a4.067,4.067,0,0,1-1.216-2.425,3.464,3.464,0,0,0-1.351-2.33c-3.543,2.246-1.606,8.835-5.189,11.019-.695.423-1.581.663-1.967,1.379a1.812,1.812,0,0,0,.378,2.031,3.509,3.509,0,0,0,1.96.932,7.932,7.932,0,0,0,7.554-3.286c1.4-1.933,2.375-5.055,1.681-7.346A1.777,1.777,0,0,1,311.584,308.887Z" transform="translate(-274.695 -304.132)" fill="#489ddc"/><path d="M278.349,346.745c-.065.247-.111.555.087.718.3.249.708-.138.935-.459a6.191,6.191,0,0,1,6.873-2.233c.933-.018,1.251-1.439.639-2.145a3.342,3.342,0,0,0-2.585-.831,5.084,5.084,0,0,1-2.724-.449,2.722,2.722,0,0,1-1.106-2.908C279.84,341.219,279.065,343.982,278.349,346.745Z" transform="translate(-278.294 -298.855)" fill="#489ddc"/><g opacity="0.5"><path d="M311.584,308.887a4.067,4.067,0,0,1-1.216-2.425,3.464,3.464,0,0,0-1.351-2.33c-3.543,2.246-1.606,8.835-5.189,11.019-.695.423-1.581.663-1.967,1.379a1.812,1.812,0,0,0,.378,2.031,3.509,3.509,0,0,0,1.96.932,7.932,7.932,0,0,0,7.554-3.286c1.4-1.933,2.375-5.055,1.681-7.346A1.777,1.777,0,0,1,311.584,308.887Z" transform="translate(-274.695 -304.132)" fill="#fff"/><path d="M278.349,346.745c-.065.247-.111.555.087.718.3.249.708-.138.935-.459a6.191,6.191,0,0,1,6.873-2.233c.933-.018,1.251-1.439.639-2.145a3.342,3.342,0,0,0-2.585-.831,5.084,5.084,0,0,1-2.724-.449,2.722,2.722,0,0,1-1.106-2.908C279.84,341.219,279.065,343.982,278.349,346.745Z" transform="translate(-278.294 -298.855)" fill="#fff"/></g></g><g transform="translate(29.617)"><path d="M321.376,308.665c-2.018-.271-4.153-.32-5.91-1.35-2.2-1.29-3.71-4.045-6.258-4.156-2.265-.1-3.951,1.978-5.238,3.843a7,7,0,0,1,4.541-6.495,11.274,11.274,0,0,1,8.252.325,30.815,30.815,0,0,1,7.159,4.456,9.736,9.736,0,0,1,2.421,2.362C329.189,312.132,323.158,308.9,321.376,308.665Z" transform="translate(-303.963 -299.867)" fill="#489ddc"/><path d="M321.376,308.665c-2.018-.271-4.153-.32-5.91-1.35-2.2-1.29-3.71-4.045-6.258-4.156-2.265-.1-3.951,1.978-5.238,3.843a7,7,0,0,1,4.541-6.495,11.274,11.274,0,0,1,8.252.325,30.815,30.815,0,0,1,7.159,4.456,9.736,9.736,0,0,1,2.421,2.362C329.189,312.132,323.158,308.9,321.376,308.665Z" transform="translate(-303.963 -299.867)" fill="#fff" opacity="0.5"/></g></g><g transform="translate(4.537 -2.346)"><path d="M287.776,364.388c.138-.253.26-.513.378-.774A.875.875,0,0,0,287.776,364.388Z" transform="translate(-277.629 -281.286)" fill="#92e3a9"/><path d="M292.323,351.163c-.226-2.844.179-5.7.06-8.554s-.864-5.852-2.94-7.809c-2.977-2.806-11.131-1.371-8.4,3.955a3.419,3.419,0,0,0,4.232,1.578,3.084,3.084,0,0,0,1.438-4.169,14.783,14.783,0,0,1-.7,16.808,13.43,13.43,0,0,1,3.257,15.29,1.673,1.673,0,0,1,1.9-.02,5.855,5.855,0,0,1,1.472,2.608c.393.932,1.156,1.9,2.166,1.836,1.387-3.4.926-7.263.027-10.822S292.615,354.821,292.323,351.163Z" transform="translate(-278.748 -285.934)" fill="#489ddc"/><path d="M317.346,302.728a11.453,11.453,0,0,0-5.456-2.3Z" transform="translate(-273.919 -291.005)" fill="#92e3a9"/><path d="M330.186,338.524c-.437-1.961-1.343-3.788-1.883-5.724-1.259-4.513-.47-9.332-1.045-13.981a24.122,24.122,0,0,0-8.573-15.527l-2.065-.871a11.63,11.63,0,0,1,4.158,6.046c1.6,5.508,2.1,11.265,2.807,16.956a228.989,228.989,0,0,0,4.8,26.09C329.757,347.3,331.148,342.845,330.186,338.524Z" transform="translate(-273.192 -290.698)" fill="#489ddc"/><path d="M310.015,317.327a7.208,7.208,0,0,0,2.436-4.74,19.4,19.4,0,0,0-.129-4.869,1.586,1.586,0,0,1-1.815,1.093,4.065,4.065,0,0,1-2.182-1.985l-.422,1.453-.17-.786-.548.7c.817,2.316,1.6,5,.343,7.111a8.431,8.431,0,0,1-2.6,2.4A4.4,4.4,0,0,0,310.015,317.327Z" transform="translate(-274.99 -290.021)" fill="#92e3a9"/><path d="M311.278,307.1c.023.19.044.383.067.575A.873.873,0,0,0,311.278,307.1Z" transform="translate(-274.013 -289.978)" fill="#92e3a9"/><path d="M310.217,332.733c-4.046-7.947-8.1-15.9-12.543-23.629a76.082,76.082,0,0,0-8.823-12.881c-1.536-1.726-5.953-5.721-8.385-3.09-1.621,1.756.512,4.948-1.485,6.846.458.028,2.713-.219,2.951.076a35.12,35.12,0,0,1,7.746,22.377c1.629-1.277,3.857.5,5.129,2.13a376.963,376.963,0,0,1,21.886,31.271c-1.31-4.768-1.342-9.824-2.756-14.56A51.7,51.7,0,0,0,310.217,332.733Z" transform="translate(-278.981 -292.261)" fill="#489ddc"/><path d="M349.814,349.789a50.282,50.282,0,0,0,3.615-15.968,26.207,26.207,0,0,0-3.622-14.452c-.667-1.081-3.441-5.5-4.957-5.144-2.708.642.848,5.35,1.468,6.526,2.34,4.44,4.743,9.137,4.593,14.155-.115,3.865-1.742,7.5-3.041,11.14a23.585,23.585,0,0,0-1.626,7.916c-.2.3-.382.6-.6.887a11.875,11.875,0,0,1-7.248,4.778q1.672-5.163,3.345-10.327c.4-1.229.542-2.909-.172-3.764a3.114,3.114,0,0,0,.352-1.5,7.235,7.235,0,0,0-.978-2.649c-1.544-3.325-1.02-7.189-.645-10.837.463-4.5.638-9.131-.682-13.457s-4.372-8.337-8.661-9.773l1.1,1.186-1.454-1.057q1.352,2.812,2.7,5.625l-1,1.424c1.488-.78,3.4.351,4.078,1.887a9.93,9.93,0,0,1,.338,4.969,99.389,99.389,0,0,0,1.361,27.987,13.729,13.729,0,0,1-1.66,6.157,6.109,6.109,0,0,1-5.771,3.128,6.07,6.07,0,0,0-2.225-6.151c-2.326,3.231-.955,8.25-.6,11.927a130.6,130.6,0,0,0,2.679,16.572,53.441,53.441,0,0,1,2.945-13.891q1.883,6.835,3.765,13.669a8.126,8.126,0,0,1,.711-3.723,2.781,2.781,0,0,1,3.185-1.477,3.908,3.908,0,0,1,1.908,2.372,42.468,42.468,0,0,1,2.321,24.962c1.55.861,3.6-.18,4.458-1.728a10.239,10.239,0,0,0,.82-5.188Q350.217,372.878,349.814,349.789Z" transform="translate(-271.579 -289.945)" fill="#489ddc"/><path d="M312.9,348.477c-.74,1.3,2.283,6.443,2.784,7.666l7.629,18.625a87.938,87.938,0,0,0-5.914-23.852C316.882,349.629,314.37,345.9,312.9,348.477Z" transform="translate(-273.781 -283.75)" fill="#489ddc"/><path d="M317.2,321.652c-.433.655-1.053,1.464-1.806,1.233-.7-.215-.82-1.14-.809-1.874q.106-6.478.211-12.958c-3.487,2.5-3.039,5.776-3.285,9.5-.141,2.159.483,12.457-.989,13.719a38.613,38.613,0,0,0,8.586-10.449C318.5,320.326,317.633,321,317.2,321.652Z" transform="translate(-274.129 -289.832)" fill="#489ddc"/><g opacity="0.5"><path d="M287.776,364.388c.138-.253.26-.513.378-.774A.875.875,0,0,0,287.776,364.388Z" transform="translate(-277.629 -281.286)" fill="#fff"/><path d="M292.323,351.163c-.226-2.844.179-5.7.06-8.554s-.864-5.852-2.94-7.809c-2.977-2.806-11.131-1.371-8.4,3.955a3.419,3.419,0,0,0,4.232,1.578,3.084,3.084,0,0,0,1.438-4.169,14.783,14.783,0,0,1-.7,16.808,13.43,13.43,0,0,1,3.257,15.29,1.673,1.673,0,0,1,1.9-.02,5.855,5.855,0,0,1,1.472,2.608c.393.932,1.156,1.9,2.166,1.836,1.387-3.4.926-7.263.027-10.822S292.615,354.821,292.323,351.163Z" transform="translate(-278.748 -285.934)" fill="#fff"/><path d="M317.346,302.728a11.453,11.453,0,0,0-5.456-2.3Z" transform="translate(-273.919 -291.005)" fill="#fff"/><path d="M330.186,338.524c-.437-1.961-1.343-3.788-1.883-5.724-1.259-4.513-.47-9.332-1.045-13.981a24.122,24.122,0,0,0-8.573-15.527l-2.065-.871a11.63,11.63,0,0,1,4.158,6.046c1.6,5.508,2.1,11.265,2.807,16.956a228.989,228.989,0,0,0,4.8,26.09C329.757,347.3,331.148,342.845,330.186,338.524Z" transform="translate(-273.192 -290.698)" fill="#fff"/><path d="M310.015,317.327a7.208,7.208,0,0,0,2.436-4.74,19.4,19.4,0,0,0-.129-4.869,1.586,1.586,0,0,1-1.815,1.093,4.065,4.065,0,0,1-2.182-1.985l-.422,1.453-.17-.786-.548.7c.817,2.316,1.6,5,.343,7.111a8.431,8.431,0,0,1-2.6,2.4A4.4,4.4,0,0,0,310.015,317.327Z" transform="translate(-274.99 -290.021)" fill="#fff"/><path d="M311.278,307.1c.023.19.044.383.067.575A.873.873,0,0,0,311.278,307.1Z" transform="translate(-274.013 -289.978)" fill="#fff"/><path d="M310.217,332.733c-4.046-7.947-8.1-15.9-12.543-23.629a76.082,76.082,0,0,0-8.823-12.881c-1.536-1.726-5.953-5.721-8.385-3.09-1.621,1.756.512,4.948-1.485,6.846.458.028,2.713-.219,2.951.076a35.12,35.12,0,0,1,7.746,22.377c1.629-1.277,3.857.5,5.129,2.13a376.963,376.963,0,0,1,21.886,31.271c-1.31-4.768-1.342-9.824-2.756-14.56A51.7,51.7,0,0,0,310.217,332.733Z" transform="translate(-278.981 -292.261)" fill="#fff"/><path d="M349.814,349.789a50.282,50.282,0,0,0,3.615-15.968,26.207,26.207,0,0,0-3.622-14.452c-.667-1.081-3.441-5.5-4.957-5.144-2.708.642.848,5.35,1.468,6.526,2.34,4.44,4.743,9.137,4.593,14.155-.115,3.865-1.742,7.5-3.041,11.14a23.585,23.585,0,0,0-1.626,7.916c-.2.3-.382.6-.6.887a11.875,11.875,0,0,1-7.248,4.778q1.672-5.163,3.345-10.327c.4-1.229.542-2.909-.172-3.764a3.114,3.114,0,0,0,.352-1.5,7.235,7.235,0,0,0-.978-2.649c-1.544-3.325-1.02-7.189-.645-10.837.463-4.5.638-9.131-.682-13.457s-4.372-8.337-8.661-9.773l1.1,1.186-1.454-1.057q1.352,2.812,2.7,5.625l-1,1.424c1.488-.78,3.4.351,4.078,1.887a9.93,9.93,0,0,1,.338,4.969,99.389,99.389,0,0,0,1.361,27.987,13.729,13.729,0,0,1-1.66,6.157,6.109,6.109,0,0,1-5.771,3.128,6.07,6.07,0,0,0-2.225-6.151c-2.326,3.231-.955,8.25-.6,11.927a130.6,130.6,0,0,0,2.679,16.572,53.441,53.441,0,0,1,2.945-13.891q1.883,6.835,3.765,13.669a8.126,8.126,0,0,1,.711-3.723,2.781,2.781,0,0,1,3.185-1.477,3.908,3.908,0,0,1,1.908,2.372,42.468,42.468,0,0,1,2.321,24.962c1.55.861,3.6-.18,4.458-1.728a10.239,10.239,0,0,0,.82-5.188Q350.217,372.878,349.814,349.789Z" transform="translate(-271.579 -289.945)" fill="#fff"/><path d="M312.9,348.477c-.74,1.3,2.283,6.443,2.784,7.666l7.629,18.625a87.938,87.938,0,0,0-5.914-23.852C316.882,349.629,314.37,345.9,312.9,348.477Z" transform="translate(-273.781 -283.75)" fill="#fff"/><path d="M317.2,321.652c-.433.655-1.053,1.464-1.806,1.233-.7-.215-.82-1.14-.809-1.874q.106-6.478.211-12.958c-3.487,2.5-3.039,5.776-3.285,9.5-.141,2.159.483,12.457-.989,13.719a38.613,38.613,0,0,0,8.586-10.449C318.5,320.326,317.633,321,317.2,321.652Z" transform="translate(-274.129 -289.832)" fill="#fff"/></g></g></g><g transform="translate(1.832 5.506)"><g transform="translate(11.652 6.918)"><path d="M323.966,307.592a90.675,90.675,0,0,1,3.148,23.1,12.307,12.307,0,0,0,.411,3.873,3.82,3.82,0,0,0,2.647,2.636" transform="translate(-281.009 -304.672)" fill="none"/><path d="M338.109,314.161c3.427,7.226-.08,23.359.179,24.5a4.059,4.059,0,0,0,1.944,2.771" transform="translate(-278.834 -303.661)" fill="none"/><path d="M313.1,306.992c-.4,2.3-.74,4.959-1.142,7.255a13.389,13.389,0,0,1-4.626-9.187" transform="translate(-283.569 -305.061)" fill="none"/><path d="M293.5,360.092l-2.49,1.1" transform="translate(-286.078 -296.596)" fill="none"/><path d="M293.764,361.824a14.436,14.436,0,0,0-.027,5.837" transform="translate(-285.703 -296.33)" fill="none"/><path d="M306.358,343.135q1.383,2.487,2.763,4.973" transform="translate(-283.718 -299.205)" fill="none"/><path d="M310.955,327.881,313.7,324" transform="translate(-283.011 -302.148)" fill="none"/><path d="M344.541,343.135q-.414,1.52-.828,3.039" transform="translate(-277.972 -299.205)" fill="none"/><path d="M338.61,336.962q1.215-3.877,2.429-7.754" transform="translate(-278.757 -301.347)" fill="none"/><path d="M345.648,324.06a3.112,3.112,0,0,1,4.2,1.307" transform="translate(-277.674 -302.195)" fill="none"/><path d="M331.275,312.563a5.967,5.967,0,0,1,5.559,1.272" transform="translate(-279.885 -303.942)" fill="none"/><path d="M286.736,319.568a8.46,8.46,0,0,1,7.159-2.7" transform="translate(-286.736 -303.253)" fill="none"/></g><path d="M277.714,300.535a7.726,7.726,0,0,1,5.811-1.36" transform="translate(-276.471 -299.066)" fill="none"/><path d="M280.02,345.087a14.8,14.8,0,0,0-3.383,3.805Z" transform="translate(-276.637 -291.987)" fill="#fff"/><path d="M280.53,341.216c1.824-1.3,4.731,1.612,6.408.125a2.693,2.693,0,0,0,.563-2.5,8.4,8.4,0,0,1-.333-2.643" transform="translate(-276.038 -293.354)" fill="none"/></g><path d="M325.12,333.612a20.865,20.865,0,0,1,1.266,14.788" transform="translate(-267.348 -288.246)" fill="none"/><path d="M336.889,339.779a9.56,9.56,0,0,1-1.157,6.343" transform="translate(-265.715 -287.298)" fill="none"/></g><g transform="translate(133.775)"><path d="M328.2,457.895l-12.05-37.9c-11.309-11.643-32.075-22.3-33.878-38.422-2.32-20.705-5.506-19.865-5.506-25.014a62.406,62.406,0,0,0,3.186-7.84,42.432,42.432,0,0,0,1.161-6.248,4.2,4.2,0,0,1,4.432-3.592,7.091,7.091,0,0,1,4.025,1.567,10.792,10.792,0,0,1,3.42,7.285,31.674,31.674,0,0,1-.6,8.211c2.222,4.2,3.482,9.4,4.42,14.05.975-3.877,1.655-7.766,2.63-11.643.247-.148.136-.444.37-.6-1.988-3.606-.507-3.506-4.494-11.483-6.7-13.433-14.05-26.322-19.828-43.372a9.934,9.934,0,0,1-.222-4.89c1.345-5.074,6.531-4.271,8.95-1.531a9.4,9.4,0,0,1,1.556,2.421A133.416,133.416,0,0,0,298.2,319.393L312,337.666s4.124-3.864,4.691-5.519l.013-.013c.543-1.655,0-14.643,0-14.643s-.827,2.495-3.037,2.495c-1.593,0-4.754,1.135-7.223-1.3a6.017,6.017,0,0,1-.7-7.518l5.161-8.037a8.635,8.635,0,0,1,8.839-1.667,42.211,42.211,0,0,1,10.5,6.359,20.566,20.566,0,0,1,8.839,1.1c4.149,1.667,8.73,6.939,8.73,6.939s4.7-.024,6.914,1.358c.555.345,8.445,11,6.444,19.841-1.185,5.272-1.629,12.84-2.185,14.9l-.135,51,9.569,33.816" transform="translate(-275.049 -294.294)" fill="none" stroke="#263238" stroke-miterlimit="10" stroke-width="1"/><g transform="translate(1.832 5.506)"><g transform="translate(11.652 6.918)"><path d="M323.966,307.592a90.675,90.675,0,0,1,3.148,23.1,12.307,12.307,0,0,0,.411,3.873,3.82,3.82,0,0,0,2.647,2.636" transform="translate(-281.009 -304.672)" fill="none" stroke="#263238" stroke-miterlimit="10" stroke-width="1"/><path d="M338.109,314.161c3.427,7.226-.08,23.359.179,24.5a4.059,4.059,0,0,0,1.944,2.771" transform="translate(-278.834 -303.661)" fill="none" stroke="#263238" stroke-miterlimit="10" stroke-width="1"/><path d="M313.1,306.992c-.4,2.3-.74,4.959-1.142,7.255a13.389,13.389,0,0,1-4.626-9.187" transform="translate(-283.569 -305.061)" fill="none" stroke="#263238" stroke-miterlimit="10" stroke-width="1"/><path d="M293.5,360.092l-2.49,1.1" transform="translate(-286.078 -296.596)" fill="none" stroke="#263238" stroke-miterlimit="10" stroke-width="1"/><path d="M293.764,361.824a14.436,14.436,0,0,0-.027,5.837" transform="translate(-285.703 -296.33)" fill="none" stroke="#263238" stroke-miterlimit="10" stroke-width="1"/><path d="M306.358,343.135q1.383,2.487,2.763,4.973" transform="translate(-283.718 -299.205)" fill="none" stroke="#263238" stroke-miterlimit="10" stroke-width="1"/><path d="M310.955,327.881,313.7,324" transform="translate(-283.011 -302.148)" fill="none" stroke="#263238" stroke-miterlimit="10" stroke-width="1"/><path d="M344.541,343.135q-.414,1.52-.828,3.039" transform="translate(-277.972 -299.205)" fill="none" stroke="#263238" stroke-miterlimit="10" stroke-width="1"/><path d="M338.61,336.962q1.215-3.877,2.429-7.754" transform="translate(-278.757 -301.347)" fill="none" stroke="#263238" stroke-miterlimit="10" stroke-width="1"/><path d="M345.648,324.06a3.112,3.112,0,0,1,4.2,1.307" transform="translate(-277.674 -302.195)" fill="none" stroke="#263238" stroke-miterlimit="10" stroke-width="1"/><path d="M331.275,312.563a5.967,5.967,0,0,1,5.559,1.272" transform="translate(-279.885 -303.942)" fill="none" stroke="#263238" stroke-miterlimit="10" stroke-width="1"/><path d="M286.736,319.568a8.46,8.46,0,0,1,7.159-2.7" transform="translate(-286.736 -303.253)" fill="none" stroke="#263238" stroke-miterlimit="10" stroke-width="1"/></g><path d="M277.714,300.535a7.726,7.726,0,0,1,5.811-1.36" transform="translate(-276.471 -299.066)" fill="none" stroke="#263238" stroke-miterlimit="10" stroke-width="1"/><path d="M280.02,345.087a14.8,14.8,0,0,0-3.383,3.805" transform="translate(-276.637 -291.987)" fill="none" stroke="#263238" stroke-miterlimit="10" stroke-width="1"/><path d="M280.53,341.216c1.824-1.3,4.731,1.612,6.408.125a2.693,2.693,0,0,0,.563-2.5,8.4,8.4,0,0,1-.333-2.643" transform="translate(-276.038 -293.354)" fill="none" stroke="#263238" stroke-miterlimit="10" stroke-width="1"/></g><path d="M325.12,333.612a20.865,20.865,0,0,1,1.266,14.788" transform="translate(-267.348 -288.246)" fill="none" stroke="#263238" stroke-miterlimit="10" stroke-width="1"/><path d="M336.889,339.779a9.56,9.56,0,0,1-1.157,6.343" transform="translate(-265.715 -287.298)" fill="none" stroke="#263238" stroke-miterlimit="10" stroke-width="1"/></g><path d="M251.065,363.328a6.992,6.992,0,0,1-.1,2.4c-.75,3.473-2.919,13.592-3.715,19.13-.946,6.761-11.873,27.692-11.873,27.692s-10.061,12.507-15.184,19.015c-2.515,3.2-6.5,16.13-9.877,28.453q-6.4-1.938-12.692-4.177c-3.473-1.235-6.946-2.538-10.373-3.888a169.7,169.7,0,0,1-18.034-8.792c1.915-6.957,3.2-12.311,3.173-12.623-.058-.727,4.108-8.746,4.108-8.746l-3.635-47.814-2.146-7.281a54.677,54.677,0,0,1-2.111-11.515,55.771,55.771,0,0,1,1.488-17.688l6.265-9.3,2.931-.219,9.069-12.669s4.9-1.477,6.161,2.215-4.085,10.592-4.085,10.592L188.6,339.5l4.361,10.661,2.261.831s.762-18.773.242-22.523l4.823-17.134a81.388,81.388,0,0,0,3.761-8.607c.877-2.873,6.034-5.723,9-.681a7.414,7.414,0,0,1,.462,6.081c-1.212,3.519-2.215,6.288-2.215,6.288s-1.1,14.515-1.442,14.919c-.346.381,2.135,21.611,2.135,21.611l1.892.842.669-20.249,3.935-19.026s-.323-9.15,6.127-8.042a4.983,4.983,0,0,1,4.742,2.954c1.719,3.288.081,25.188.081,25.188l1.592,22.638,2.55,17.457,3-11.965s.173-17.146,11-18.611c0,0,3.219-.577,3.877,1.661s-1.6,6.807-1.281,11.192C250.407,358.066,250.845,361.539,251.065,363.328Z" transform="translate(-157.673 -293.527)" opacity="0.2"/><g transform="translate(0 0.988)"><path d="M249.212,342.769c-.494-2.285-3.741-1.951-3.741-1.951-10.9.643-12.371,17.729-12.371,17.729l-3.9,11.7-1.223-17.606.123-22.692s3.3-21.717,1.828-25.125a4.965,4.965,0,0,0-4.507-3.3c-6.346-1.592-6.716,7.556-6.716,7.556l-5.358,18.668-2.2,20.138-1.826-.976s-.864-21.359-.494-21.717,2.568-14.767,2.568-14.767,1.209-2.679,2.678-6.1a7.389,7.389,0,0,0,0-6.1c-2.567-5.246-7.926-2.8-9.025,0a81.292,81.292,0,0,1-4.395,8.3l-6.112,16.716c.235,3.779-1.938,22.446-1.938,22.446l-2.2-1-3.543-10.964,2.691-11.223s5.852-6.457,4.877-10.247-5.976-2.679-5.976-2.679l-10,11.951h-2.939l-6.951,8.791a55.66,55.66,0,0,0-1.593,29.174l1.593,7.42v47.954s-4.754,7.679-4.754,8.408c0,.332-1.964,6.4-4.7,13.951,11.964,7.037,22.273,12.482,29.57,15.36,3.431,1.358,6.9,2.654,10.383,3.888,4.382-12.309,9.506-25.483,12.334-28.557,5.6-6.1,16.58-17.816,16.58-17.816s12.482-20.038,13.939-26.705c1.21-5.469,4.136-15.4,5.148-18.8a6.757,6.757,0,0,0,.284-2.383c-.087-1.8-.258-5.3-.258-8.384C247.089,349.436,249.693,345.041,249.212,342.769Z" transform="translate(-159.108 -295.15)" fill="#fff"/><g clip-path="url(#b)"><path d="M173.733,338.546c1.862-2.324,5.7-3.217,7.861-1.173,1.243,1.171,1.661,2.953,1.976,4.63a9.851,9.851,0,0,0,1.741,4.753c1.112,1.3,3.335,1.8,4.506.561q.232,3.789.465,7.579a30,30,0,0,0,3.974-15.5c-.054-2.624-.45-5.291.158-7.844s2.59-5.039,5.212-5.158c2.909-.133,5.207,2.7,5.767,5.556s-.1,5.792-.273,8.7a26.589,26.589,0,0,0,2.5,12.939l1.832-3.712,1.651,7.448q.715-8.2,1.431-16.391a11.788,11.788,0,0,1,1-4.506,4.017,4.017,0,0,1,3.7-2.333c2.079.208,3.275,2.424,3.97,4.394,5.2,14.7,3.058,30.854.853,46.29,1.446.258,2.66-1.194,3.021-2.617s.232-2.96.772-4.324,2.212-2.491,3.455-1.709c1.817,1.143.548,4.69,2.459,5.67a26.337,26.337,0,0,1,5.223-12.615c1.278-1.661,3.2-3.309,5.23-2.783a4.1,4.1,0,0,1,2.726,3.49c.224,1.55,2.458-4.848,2.073-3.331.873-8.9-.875-9.839,0-18.738.158-1.607,2.757-4.394,1.651-5.571-1.051-1.119-4.188-2.759-5.582-2.115s-5.928,2.9-6.829,4.143c-5.669,7.829-5.282,19.166-7.045,28.669-1.506-14.492-3-29.224-.346-43.55,1.465-7.9,4.166-16.133,1.615-23.754-1.165-3.478-4.255-6.957-7.863-6.3-2.912.533-4.673,3.468-5.856,6.182-3.973,9.116-5.737,19.015-7.471,28.807l6.5-29.564c.564-2.561,1.13-5.2.663-7.784s-2.228-5.113-4.794-5.651c-2.546-.535-5.076.97-7,2.726-6.858,6.274-9.411,15.846-11.647,24.869.785-2.357,1.578-4.8,1.336-7.272s-1.815-4.995-4.241-5.527c-3.141-.69-6,2.115-7.375,5.02s-2.06,6.247-4.258,8.594c-1.6-1.8-4.616-1.7-6.63-.367s-3.228,3.565-4.211,5.77a53.688,53.688,0,0,0-4.462,25.94,9.489,9.489,0,0,1,9.475-5.394l-.689-5.9" transform="translate(-158.506 -295.754)" fill="#489ddc"/><g transform="translate(9.965 58.067)"><g transform="translate(12.564 1.699)"><path d="M178.926,348.748q-.145,2.184-.292,4.37a2.1,2.1,0,0,1,3.2-.811c-.216-.925.36-1.823.726-2.7s.4-2.122-.449-2.54c-1.014-.5-2.018.669-2.552,1.664-.045-.36-.089-.721-.134-1.082Z" transform="translate(-178.634 -346.949)" fill="#489ddc"/></g><g transform="translate(27.08)"><path d="M193.543,346.364a10.134,10.134,0,0,0-2.328,4.824,4.945,4.945,0,0,1,1.685-1.238,1.7,1.7,0,0,1,1.919.428c.261.352.353.858.742,1.059a.918.918,0,0,0,1.127-.415,2.683,2.683,0,0,0,.294-1.273,7.1,7.1,0,0,0-.141-2.506,2.419,2.419,0,0,0-1.667-1.737,1.487,1.487,0,0,0-1.8,1.268Z" transform="translate(-191.215 -345.476)" fill="#489ddc"/></g><g transform="translate(43.012 2.281)"><path d="M207.441,350.038a13.025,13.025,0,0,0-2.418,5.808,5.032,5.032,0,0,0,2.242-1.2,4.463,4.463,0,0,1,2.273-1.125,1.6,1.6,0,0,1,1.794,1.41,10.835,10.835,0,0,1,.095-2.933,6.087,6.087,0,0,0-.216-2.906,2.43,2.43,0,0,0-2.222-1.632,1.547,1.547,0,0,0-1.364,2.067Z" transform="translate(-205.023 -347.453)" fill="#489ddc"/></g><g transform="translate(0 10.534)"><path d="M169.088,354.725a11.462,11.462,0,0,0-1.343,5.429,1.9,1.9,0,0,1,1.687-1.691,3.852,3.852,0,0,1,2.465.655,6.663,6.663,0,0,0,.16-2.645,2.275,2.275,0,0,0-1.691-1.852c-.878-.142-1.85.706-1.608,1.562l-.272-.666Z" transform="translate(-167.745 -354.605)" fill="#489ddc"/></g></g><path d="M173.733,338.546c1.862-2.324,5.7-3.217,7.861-1.173,1.243,1.171,1.661,2.953,1.976,4.63a9.851,9.851,0,0,0,1.741,4.753c1.112,1.3,3.335,1.8,4.506.561q.232,3.789.465,7.579a30,30,0,0,0,3.974-15.5c-.054-2.624-.45-5.291.158-7.844s2.59-5.039,5.212-5.158c2.909-.133,5.207,2.7,5.767,5.556s-.1,5.792-.273,8.7a26.589,26.589,0,0,0,2.5,12.939l1.832-3.712,1.651,7.448q.715-8.2,1.431-16.391a11.788,11.788,0,0,1,1-4.506,4.017,4.017,0,0,1,3.7-2.333c2.079.208,3.275,2.424,3.97,4.394,5.2,14.7,3.058,30.854.853,46.29,1.446.258,2.66-1.194,3.021-2.617s.232-2.96.772-4.324,2.212-2.491,3.455-1.709c1.817,1.143.548,4.69,2.459,5.67a26.337,26.337,0,0,1,5.223-12.615c1.278-1.661,3.2-3.309,5.23-2.783a4.1,4.1,0,0,1,2.726,3.49c.224,1.55,2.458-4.848,2.073-3.331.873-8.9-.875-9.839,0-18.738.158-1.607,2.757-4.394,1.651-5.571-1.051-1.119-4.188-2.759-5.582-2.115s-5.928,2.9-6.829,4.143c-5.669,7.829-5.282,19.166-7.045,28.669-1.506-14.492-3-29.224-.346-43.55,1.465-7.9,4.166-16.133,1.615-23.754-1.165-3.478-4.255-6.957-7.863-6.3-2.912.533-4.673,3.468-5.856,6.182-3.973,9.116-5.737,19.015-7.471,28.807l6.5-29.564c.564-2.561,1.13-5.2.663-7.784s-2.228-5.113-4.794-5.651c-2.546-.535-5.076.97-7,2.726-6.858,6.274-9.411,15.846-11.647,24.869.785-2.357,1.578-4.8,1.336-7.272s-1.815-4.995-4.241-5.527c-3.141-.69-6,2.115-7.375,5.02s-2.06,6.247-4.258,8.594c-1.6-1.8-4.616-1.7-6.63-.367s-3.228,3.565-4.211,5.77a53.688,53.688,0,0,0-4.462,25.94,9.489,9.489,0,0,1,9.475-5.394l-.689-5.9" transform="translate(-158.506 -295.754)" fill="#fff" opacity="0.5"/><g transform="translate(9.965 58.067)" opacity="0.5"><g transform="translate(12.564 1.699)"><path d="M178.926,348.748q-.145,2.184-.292,4.37a2.1,2.1,0,0,1,3.2-.811c-.216-.925.36-1.823.726-2.7s.4-2.122-.449-2.54c-1.014-.5-2.018.669-2.552,1.664-.045-.36-.089-.721-.134-1.082Z" transform="translate(-178.634 -346.949)" fill="#fff"/></g><g transform="translate(27.08)"><path d="M193.543,346.364a10.134,10.134,0,0,0-2.328,4.824,4.945,4.945,0,0,1,1.685-1.238,1.7,1.7,0,0,1,1.919.428c.261.352.353.858.742,1.059a.918.918,0,0,0,1.127-.415,2.683,2.683,0,0,0,.294-1.273,7.1,7.1,0,0,0-.141-2.506,2.419,2.419,0,0,0-1.667-1.737,1.487,1.487,0,0,0-1.8,1.268Z" transform="translate(-191.215 -345.476)" fill="#fff"/></g><g transform="translate(43.012 2.281)"><path d="M207.441,350.038a13.025,13.025,0,0,0-2.418,5.808,5.032,5.032,0,0,0,2.242-1.2,4.463,4.463,0,0,1,2.273-1.125,1.6,1.6,0,0,1,1.794,1.41,10.835,10.835,0,0,1,.095-2.933,6.087,6.087,0,0,0-.216-2.906,2.43,2.43,0,0,0-2.222-1.632,1.547,1.547,0,0,0-1.364,2.067Z" transform="translate(-205.023 -347.453)" fill="#fff"/></g><g transform="translate(0 10.534)"><path d="M169.088,354.725a11.462,11.462,0,0,0-1.343,5.429,1.9,1.9,0,0,1,1.687-1.691,3.852,3.852,0,0,1,2.465.655,6.663,6.663,0,0,0,.16-2.645,2.275,2.275,0,0,0-1.691-1.852c-.878-.142-1.85.706-1.608,1.562l-.272-.666Z" transform="translate(-167.745 -354.605)" fill="#fff"/></g></g></g><path d="M159.108,437.231c2.74-7.555,4.7-13.617,4.7-13.951,0-.729,4.754-8.408,4.754-8.408V366.918l-1.593-7.42a55.66,55.66,0,0,1,1.593-29.174l6.951-8.791h2.939l10-11.951s5-1.1,5.976,2.679-4.877,10.247-4.877,10.247l-2.691,11.223,3.543,10.964,2.2,1s2.174-18.668,1.938-22.446l6.112-16.716a81.292,81.292,0,0,0,4.395-8.3c1.1-2.8,6.458-5.246,9.025,0a7.389,7.389,0,0,1,0,6.1c-1.469,3.42-2.679,6.1-2.679,6.1s-2.2,14.4-2.567,14.767.494,21.717.494,21.717l1.826.976,2.2-20.138,5.358-18.668s.37-9.149,6.716-7.556a4.965,4.965,0,0,1,4.507,3.3c1.469,3.408-1.828,25.125-1.828,25.125l-.123,22.692,1.223,17.606,3.9-11.7s1.469-17.087,12.371-17.729c0,0,3.247-.333,3.741,1.951s-2.123,6.667-2.123,11.062c0,3.088.172,6.581.258,8.384a6.757,6.757,0,0,1-.284,2.383c-1.012,3.408-3.938,13.335-5.148,18.8-1.457,6.667-13.939,26.705-13.939,26.705S217,421.823,211.394,427.922c-2.827,3.075-7.951,16.248-12.333,28.557" transform="translate(-159.108 -295.15)" fill="none" stroke="#263238" stroke-miterlimit="10" stroke-width="1"/><path d="M188.184,340.522a6.975,6.975,0,0,1-1.641,6.572" transform="translate(-154.888 -288.171)" fill="#fff" stroke="#263238" stroke-miterlimit="10" stroke-width="1"/><path d="M171.838,359.47c1.589-2.455,3.129-5.827,2.7-8.719-.834-5.663-3.414-12.182-2.253-17.787q1.115-5.372,2.227-10.743" transform="translate(-157.15 -290.986)" fill="#fff" stroke="#263238" stroke-miterlimit="10" stroke-width="1"/><path d="M211.708,308.335a11.25,11.25,0,0,1,5.755.016l.066-1.606" transform="translate(-151.017 -293.367)" fill="none" stroke="#263238" stroke-miterlimit="10" stroke-width="1"/><path d="M198.578,302.287a3.68,3.68,0,0,0,5.824-3.08" transform="translate(-153.037 -294.526)" fill="none" stroke="#263238" stroke-miterlimit="10" stroke-width="1"/><path d="M235.429,336.59a7.085,7.085,0,0,0-5.3,7.308l2.829.843" transform="translate(-148.187 -288.776)" fill="none" stroke="#263238" stroke-miterlimit="10" stroke-width="1"/><path d="M202.54,337.811c.129,1.935-.108,6.564.021,8.5" transform="translate(-152.43 -288.588)" fill="#fff" stroke="#263238" stroke-miterlimit="10" stroke-width="1"/><path d="M204.473,340.136q-.35,4.756-.7,9.513.029-.606.057-1.21" transform="translate(-152.238 -288.231)" fill="#fff" stroke="#263238" stroke-miterlimit="10" stroke-width="1"/><path d="M219.78,363.311a15.815,15.815,0,0,1-1.079,10.452" transform="translate(-149.942 -284.666)" fill="#fff" stroke="#263238" stroke-miterlimit="10" stroke-width="1"/><path d="M194.527,348.9c-2.515,2.759-2.146,9.374-.37,13.014" transform="translate(-153.936 -286.883)" fill="none" stroke="#263238" stroke-miterlimit="10" stroke-width="1"/><path d="M210.809,352.846a12.947,12.947,0,0,1-3.078,8.462" transform="translate(-151.629 -286.276)" fill="none" stroke="#263238" stroke-miterlimit="10" stroke-width="1"/><path d="M178.426,350.045a11.79,11.79,0,0,0,1.721,8.041" transform="translate(-156.156 -286.707)" fill="none" stroke="#263238" stroke-miterlimit="10" stroke-width="1"/><path d="M169.135,357.51a9.788,9.788,0,0,0,1.777,6.163" transform="translate(-157.568 -285.558)" fill="none" stroke="#263238" stroke-miterlimit="10" stroke-width="1"/><path d="M181.847,311.572a3.665,3.665,0,0,1,4.037.646l1.426-1.882" transform="translate(-155.61 -292.814)" fill="none" stroke="#263238" stroke-miterlimit="10" stroke-width="1"/><path d="M192.108,318.837a4.78,4.78,0,0,1,6.1,1.036" transform="translate(-154.032 -291.61)" fill="none" stroke="#263238" stroke-miterlimit="10" stroke-width="1"/><path d="M208.134,323.837a7.721,7.721,0,0,1,6.557.138" transform="translate(-151.567 -290.84)" fill="none" stroke="#263238" stroke-miterlimit="10" stroke-width="1"/><path d="M172.475,332.545a6.259,6.259,0,0,1,6.047-3" transform="translate(-157.052 -289.867)" fill="none" stroke="#263238" stroke-miterlimit="10" stroke-width="1"/><path d="M165.769,342.114a3.274,3.274,0,0,1,2.736-3.071" transform="translate(-158.083 -288.399)" fill="none" stroke="#263238" stroke-miterlimit="10" stroke-width="1"/></g></g><g transform="translate(437.843 193.551)"><circle cx="47.822" cy="47.822" r="47.822" transform="translate(0 14.291)" fill="none" stroke="#263238" stroke-linecap="round" stroke-linejoin="round" stroke-width="1"/><g transform="translate(12.705)"><g transform="translate(0 19.824)"><g transform="translate(13.712)"><path d="M480.431,235.281c-10.2,16.725-13.823,14.465-48.6,31.128-17.656,8.457-34.719-18.734-23.177-46.643.564-1.363,5.552-8.25,5.552-8.25a25.477,25.477,0,0,1,44.514-10.523,27.51,27.51,0,0,1,24.438-5.838c.4,1.177.785,2.331,1.154,3.461.138.438.288.865.415,1.3.438,1.35.854,2.7,1.235,4.061q1.142,3.877,2.123,7.8a15.631,15.631,0,0,0-11.354.681c-2.55,1.246-4.684,3.3-7.338,4.315s-6.323.438-7.338-2.215c1.281,5.331,6.873,3.737,12.248,4.792C482.617,220.988,484.723,228.243,480.431,235.281Z" transform="translate(-404.884 -191.741)" opacity="0.2"/></g><g transform="translate(0 2.177)"><path d="M458.373,222.431s8.561-1.161,12.628-.553a7.793,7.793,0,0,1,4.923,2.826,2.714,2.714,0,0,1,.591,1.526l.459,6.69a2.715,2.715,0,0,1-.737,2.073c-1.668,1.739-6.713,4.912-21.637,6.053C433.611,242.652,458.373,222.431,458.373,222.431Z" transform="translate(-384.824 -189.31)" fill="#fff" stroke="#263238" stroke-linecap="round" stroke-linejoin="round" stroke-width="1"/><path d="M460.3,208.829a31.94,31.94,0,0,1,7.007,20.342c0,7.973-9.233,35.2-32.876,38.519-25.025,3.509-45.143-17.91-40.846-43.682C396.554,206.181,440.206,183.86,460.3,208.829Z" transform="translate(-393 -193.003)" fill="#fff" stroke="#263238" stroke-linecap="round" stroke-linejoin="round" stroke-width="1"/><ellipse cx="36.311" cy="34.368" rx="36.311" ry="34.368" transform="translate(0.408 0)" fill="#fff"/><ellipse cx="29.809" cy="28.214" rx="29.809" ry="28.214" transform="translate(6.835 7.953)" fill="#263238"/><path d="M465.975,228c0-18.981-16.257-34.369-36.311-34.369S393.354,209.015,393.354,228" transform="translate(-392.946 -193.628)" fill="none" stroke="#263238" stroke-linecap="round" stroke-linejoin="round" stroke-width="1"/><path d="M447.99,246.676a33.262,33.262,0,0,0,9.581-23.261" transform="translate(-384.542 -189.046)" fill="none" stroke="#263238" stroke-linecap="round" stroke-linejoin="round" stroke-width="1"/><path d="M402.779,244.672a37.273,37.273,0,0,0,25.436,9.841,37.8,37.8,0,0,0,16.853-3.918" transform="translate(-391.496 -185.777)" fill="none" stroke="#263238" stroke-linecap="round" stroke-linejoin="round" stroke-width="1"/><path d="M398.239,239.362q.713,1.063,1.506,2.072" transform="translate(-392.194 -186.593)" fill="none" stroke="#263238" stroke-linecap="round" stroke-linejoin="round" stroke-width="1"/><path d="M393.354,223.415a32.724,32.724,0,0,0,3.46,14.662" transform="translate(-392.946 -189.046)" fill="none" stroke="#263238" stroke-linecap="round" stroke-linejoin="round" stroke-width="1"/><path d="M473.27,231.852s-6.474-4.525-16.976-.422" transform="translate(-383.265 -188.078)" fill="#fff" stroke="#263238" stroke-linecap="round" stroke-linejoin="round" stroke-width="1"/><path d="M467.967,234.293a66.648,66.648,0,0,1-13.428,2.11" transform="translate(-383.535 -187.373)" fill="#fff" stroke="#263238" stroke-linecap="round" stroke-linejoin="round" stroke-width="1"/><path d="M469.309,233.054a6.17,6.17,0,0,1-1.619.834" transform="translate(-381.512 -187.564)" fill="#fff" stroke="#263238" stroke-linecap="round" stroke-linejoin="round" stroke-width="1"/></g></g><g transform="translate(29.971)"><path d="M482.556,202.563c-.127-.438-.277-.865-.415-1.3-2.2-6.831-5.042-14.33-8.492-22.246-.635-1.465-1.3-2.954-1.973-4.454l-.773.069c-3.311.335-6.8.75-9.519,2.631-2.735,1.915-4.35,5.85-2.585,8.677,1.731,2.8,6.265,4.361,5.55,7.558-7.4,4.165-16.419,3.681-24.645,5.781a40.135,40.135,0,0,0-13.742,6.484c-.012,0-.012.012-.023.012a42.366,42.366,0,0,0-3.738,3.138,14.8,14.8,0,0,0-1.523,1.638c-.012.012-.012.012-.012.023a5.64,5.64,0,0,0-1.3,2.931c-.288,3.081,2.515,5.181,5.5,6.519a.673.673,0,0,1-.046,1.246,17.194,17.194,0,0,0-5.388,3.115c-.012,0-.023.012-.035.023a1.338,1.338,0,0,0,1.119,2.285c.138-.023.312-.035.462-.046a8.708,8.708,0,0,1,3.485.415c1.765.623,3,1.823,3.127,3.3.185,2.342-2.481,4.454-5.942,4.719-.842.081-.2,1.085,1.038,1.292a18.424,18.424,0,0,0,7.384-.6c2.9-.692,5.988-1.7,7.627-4.177a5.22,5.22,0,0,0,.692-3.669,3.713,3.713,0,0,0-3.069-3.369,100.947,100.947,0,0,0,15.83-3.173h.012l1.627-.5a15.185,15.185,0,0,0,4.465-1.95,6.217,6.217,0,0,0,1.95-2.146c1.2-2.319-.5-5.988-3.058-5.5,7.442-2.919,15.311-4.627,22.834-7.315C480.179,203.532,481.379,203.071,482.556,202.563Z" transform="translate(-418.976 -174.56)" fill="#fff"/></g></g></g><g transform="translate(104.53 52.146)"><path d="M471.589,121.609a146.575,146.575,0,0,1-22.961,16.2c-42.01,24.853-89.467,39.737-137.742,46.995s-97.428,7.038-146.073,3.035c-9.554-.785-19.269-1.754-28.049-5.608-7.442-3.277-14.192-8.977-17.353-16.35,10.534-12,20.33-24.138,31.234-35.6q3.894-4.1,7.984-8.065c2.308-2.2,4.65-4.373,7.084-6.5,2.781-2.446,5.642-4.834,8.642-7.142,4.1-3.185,8.411-6.242,13.027-9.161,1.131-.727,2.25-1.431,3.381-2.123,115.047-71.5,199.725-48.16,256.216,0q6.386,5.417,12.3,11.284c2.4,2.319,4.719,4.719,6.969,7.142.254.254.485.519.727.8Q469.345,119.047,471.589,121.609Z" transform="translate(-89.064 -52.006)" opacity="0.2"/><path d="M480.176,104.22,93.11,105.987l5.854-8.772a15.177,15.177,0,0,1,12.623-6.752H461.833a15.175,15.175,0,0,1,11.822,5.659Z" transform="translate(-93.11 -46.09)" fill="#fff" stroke="#263238" stroke-linecap="round" stroke-linejoin="round" stroke-width="1"/><g transform="translate(0 55.654)"><rect width="100.018" height="100.018" rx="34.152" transform="translate(139.666 60.5)" fill="#757575" stroke="#263238" stroke-linecap="round" stroke-linejoin="round" stroke-width="1"/><path d="M229.913,203.337v14.218a8.079,8.079,0,0,0,8.079,8.079h48.767a8.086,8.086,0,0,0,8.078-8.022c.061-6.4.4-14.275.4-14.275Z" transform="translate(-72.067 -84.382)" fill="#999" stroke="#263238" stroke-linecap="round" stroke-linejoin="round" stroke-width="1"/><path d="M429.454,223.946H144.225a7.309,7.309,0,0,1-6.809-4.654L93.422,106.382a4.506,4.506,0,0,1,4.2-6.142H476.061a4.506,4.506,0,0,1,4.2,6.142l-44,112.91A7.306,7.306,0,0,1,429.454,223.946Z" transform="translate(-93.11 -100.24)" fill="#bfbfbf" stroke="#263238" stroke-linecap="round" stroke-linejoin="round" stroke-width="1"/><path d="M430.453,213.151H140.3L100.379,106.44H470.191Z" transform="translate(-91.992 -99.286)" fill="#263238"/><rect width="64.684" height="4.428" transform="translate(158.157 123.552)" fill="#263238"/><g transform="translate(59.579 13.662)"><path d="M381.245,207.7H176.355c-1.125,0-2.2-.511-2.4-1.145l-29.144-92.591c-.327-1.038.583-1.884,2.033-1.884H410.753c1.45,0,2.36.846,2.032,1.884l-29.143,92.591C383.444,207.19,382.369,207.7,381.245,207.7Z" transform="translate(-144.746 -112.081)" fill="#489ddc"/><path d="M379.476,203.981H176.1l-24.766-81.357H404.242Z" transform="translate(-143.734 -110.459)" fill="#263238"/><g transform="translate(17.412 17.203)"><path d="M203.419,140.13h-38.5c-.951,0-1.575.512-1.395,1.143a2.114,2.114,0,0,0,2.035,1.137h38.28c.945,0,1.621-.508,1.508-1.137S204.368,140.13,203.419,140.13Z" transform="translate(-159.276 -124.969)" fill="#fff"/><path d="M203.767,146.222H171.022c-.933,0-1.555.495-1.39,1.1a2.04,2.04,0,0,0,1.98,1.1h32.56c.929,0,1.593-.49,1.485-1.1S204.7,146.222,203.767,146.222Z" transform="translate(-158.335 -124.032)" fill="#fff"/><path d="M205.43,152.1H168.274c-.918,0-1.525.478-1.358,1.065a2.032,2.032,0,0,0,1.955,1.059h36.95c.911,0,1.567-.474,1.462-1.059S206.347,152.1,205.43,152.1Z" transform="translate(-158.753 -123.128)" fill="#fff" opacity="0.5"/><path d="M204.429,157.779H182.6c-.9,0-1.518.462-1.379,1.029s.978,1.022,1.875,1.022h21.706c.9,0,1.542-.457,1.44-1.022S205.331,157.779,204.429,157.779Z" transform="translate(-156.551 -122.255)" fill="#fff"/><path d="M207.306,163.265H171.4c-.886,0-1.478.445-1.321.995a1.953,1.953,0,0,0,1.878.989h35.708c.882,0,1.517-.442,1.419-.989S208.192,163.265,207.306,163.265Z" transform="translate(-158.265 -121.411)" fill="#fff"/><path d="M207.356,168.568H178.365c-.872,0-1.463.432-1.321.961s.959.958,1.826.958h28.837c.868,0,1.494-.428,1.4-.958S208.228,168.568,207.356,168.568Z" transform="translate(-157.194 -120.595)" fill="#fff"/><path d="M208.232,173.7H179.713c-.857,0-1.441.418-1.3.931s.94.925,1.793.925h28.37c.853,0,1.47-.414,1.379-.925S209.09,173.7,208.232,173.7Z" transform="translate(-156.984 -119.806)" fill="#fff"/><path d="M209.485,178.663H178.37c-.843,0-1.416.4-1.278.9s.928.9,1.768.9h30.956c.84,0,1.448-.4,1.359-.9S210.33,178.663,209.485,178.663Z" transform="translate(-157.187 -119.043)" fill="#fff"/><path d="M208.9,183.472H188.8c-.83,0-1.406.391-1.289.872s.884.869,1.71.869h20c.826,0,1.427-.389,1.341-.869S209.73,183.472,208.9,183.472Z" transform="translate(-155.583 -118.303)" fill="#fff" opacity="0.5"/><path d="M200.959,133.813H172.264c-.968,0-1.615.532-1.446,1.186a2.1,2.1,0,0,0,2.049,1.179h28.525c.962,0,1.649-.527,1.531-1.179A1.92,1.92,0,0,0,200.959,133.813Z" transform="translate(-158.152 -125.941)" fill="#fff" opacity="0.5"/><path d="M201.257,127.258h-39.95c-.987,0-1.628.553-1.435,1.231A2.212,2.212,0,0,0,162,129.713h39.71c.98,0,1.678-.547,1.557-1.224A1.966,1.966,0,0,0,201.257,127.258Z" transform="translate(-159.837 -126.949)" fill="#fff"/><path d="M211.482,188.13H178.376c-.818,0-1.372.38-1.239.846s.9.842,1.713.842h32.941c.813,0,1.405-.377,1.322-.842S212.3,188.13,211.482,188.13Z" transform="translate(-157.18 -117.586)" fill="#fff"/><path d="M209.874,142.732h7.469l-.374-2.851h-7.523Z" transform="translate(-152.207 -125.008)" fill="#fff" opacity="0.5"/><path d="M210.775,148.732h7.337l-.361-2.751h-7.389Z" transform="translate(-152.066 -124.069)" fill="#fff" opacity="0.5"/><path d="M211.645,154.526h7.209l-.348-2.656h-7.26Z" transform="translate(-151.93 -123.164)" fill="#fff" opacity="0.5"/><path d="M212.486,160.12h7.086l-.336-2.565H212.1Z" transform="translate(-151.799 -122.289)" fill="#fff" opacity="0.5"/><path d="M213.3,165.528h6.967l-.325-2.48h-7.015Z" transform="translate(-151.672 -121.444)" fill="#fff" opacity="0.5"/><path d="M214.083,170.757h6.852l-.315-2.4h-6.9Z" transform="translate(-151.549 -120.627)" fill="#fff" opacity="0.5"/><path d="M214.843,175.817h6.741l-.3-2.321h-6.785Z" transform="translate(-151.43 -119.837)" fill="#fff" opacity="0.5"/><path d="M215.579,180.714h6.633l-.295-2.247h-6.676Z" transform="translate(-151.315 -119.073)" fill="#fff" opacity="0.5"/><path d="M216.291,185.458h6.529l-.285-2.177h-6.571Z" transform="translate(-151.204 -118.332)" fill="#fff" opacity="0.5"/><path d="M208.94,136.511h7.606l-.388-2.957H208.5Z" transform="translate(-152.353 -125.981)" fill="#fff" opacity="0.5"/><path d="M207.971,130.059h7.748l-.4-3.068H207.51Z" transform="translate(-152.505 -126.99)" fill="#fff" opacity="0.5"/><path d="M216.982,190.056h6.428l-.277-2.11h-6.468Z" transform="translate(-151.096 -117.615)" fill="#fff" opacity="0.5"/><path d="M251.046,179.564c-.016-.5.654-.9,1.5-.9H363.1c.843,0,1.41.4,1.265.9s-.942.9-1.78.9H252.594C251.756,180.461,251.062,180.06,251.046,179.564Z" transform="translate(-145.808 -119.043)" fill="#fff"/><path d="M357.479,175.554H296.265c-.854,0-1.5-.414-1.443-.925s.8-.931,1.656-.931h61.535c.857,0,1.431.418,1.281.931S358.332,175.554,357.479,175.554Z" transform="translate(-139.075 -119.806)" fill="#fff"/><path d="M286.223,175.554H267.179c-.853,0-1.538-.414-1.53-.925s.708-.931,1.567-.931h19.143c.857,0,1.52.418,1.48.931S287.075,175.554,286.223,175.554Z" transform="translate(-143.562 -119.806)" fill="#fff" opacity="0.5"/><path d="M329.653,170.486H243.3c-.868,0-1.6-.428-1.629-.956s.648-.961,1.52-.961H330c.872,0,1.5.43,1.4.961S330.52,170.486,329.653,170.486Z" transform="translate(-147.25 -120.595)" fill="#fff"/><path d="M227.632,168.568h6.154c.872,0,1.615.43,1.66.961s-.621.956-1.488.956h-6.122c-.868,0-1.618-.428-1.676-.956S226.759,168.568,227.632,168.568Z" transform="translate(-149.637 -120.595)" fill="#fff" opacity="0.5"/><path d="M340.053,164.259c-.117.547-.925.989-1.807.989H256.873c-.883,0-1.6-.442-1.614-.989s.7-.995,1.587-.995h81.814C339.546,163.264,340.169,163.711,340.053,164.259Z" transform="translate(-145.16 -121.411)" fill="#fff"/><path d="M227.069,163.264h23.094c.886,0,1.623.447,1.645.995s-.676.989-1.558.989H227.28c-.882,0-1.645-.442-1.705-.989S226.183,163.264,227.069,163.264Z" transform="translate(-149.727 -121.411)" fill="#fff"/><path d="M226.487,157.778h88.764c.9,0,1.57.462,1.494,1.029s-.864,1.023-1.761,1.023H226.706c-.9,0-1.675-.457-1.738-1.023S225.586,157.778,226.487,157.778Z" transform="translate(-149.82 -122.255)" fill="#fff"/><path d="M276.446,154.225c-.913,0-1.633-.473-1.607-1.059s.788-1.065,1.706-1.065h46.838c.917,0,1.578.478,1.476,1.065s-.923,1.059-1.836,1.059Z" transform="translate(-142.149 -123.128)" fill="#fff"/><path d="M225.885,152.1h40.538c.917,0,1.66.478,1.657,1.065s-.743,1.059-1.656,1.059H226.112c-.913,0-1.7-.473-1.77-1.059S224.967,152.1,225.885,152.1Z" transform="translate(-149.916 -123.128)" fill="#fff"/><path d="M372.024,148.422H260.449c-.928,0-1.683-.49-1.688-1.1s.75-1.1,1.683-1.1H372.655c.935,0,1.547.495,1.37,1.1A2.085,2.085,0,0,1,372.024,148.422Z" transform="translate(-144.621 -124.032)" fill="#fff"/><path d="M371.965,142.41h-98.18c-.945,0-1.695-.508-1.674-1.137s.809-1.143,1.76-1.143h98.75c.95,0,1.572.512,1.388,1.143A2.132,2.132,0,0,1,371.965,142.41Z" transform="translate(-142.568 -124.969)" fill="#fff"/><path d="M363.384,136.178H342.826c-.962,0-1.621-.527-1.47-1.179a2.043,2.043,0,0,1,2.027-1.186h20.68c.968,0,1.6.532,1.408,1.186A2.176,2.176,0,0,1,363.384,136.178Z" transform="translate(-131.92 -125.941)" fill="#fff" opacity="0.5"/><path d="M340.455,136.178H264.961c-.962,0-1.739-.527-1.735-1.179s.793-1.186,1.761-1.186h75.941c.968,0,1.645.532,1.512,1.186A1.965,1.965,0,0,1,340.455,136.178Z" transform="translate(-143.935 -125.941)" fill="#fff"/><path d="M229.212,183.471h69.716c.83,0,1.464.392,1.417.873s-.757.869-1.583.869H229.4c-.826,0-1.539-.389-1.592-.869S228.381,183.471,229.212,183.471Z" transform="translate(-149.383 -118.303)" fill="#fff"/><path d="M229.706,188.13H336.82c.818,0,1.4.38,1.3.846s-.839.842-1.652.842H229.886c-.813,0-1.515-.377-1.567-.842S228.888,188.13,229.706,188.13Z" transform="translate(-149.304 -117.586)" fill="#fff"/><path d="M334.412,129.713h-54.53c-.981,0-1.749-.547-1.716-1.224s.86-1.231,1.846-1.231H334.87c.986,0,1.681.553,1.551,1.231A1.978,1.978,0,0,1,334.412,129.713Z" transform="translate(-141.637 -126.949)" fill="#fff"/><path d="M273.114,129.713h-49.6c-.981,0-1.836-.547-1.911-1.224s.662-1.231,1.649-1.231h49.9c.986,0,1.776.553,1.763,1.231S274.095,129.713,273.114,129.713Z" transform="translate(-150.338 -126.949)" fill="#fff" opacity="0.5"/><path d="M303.79,183.471c.831,0,1.447.392,1.378.873s-.795.869-1.621.869h-5.389c-.826,0-1.449-.389-1.391-.869s.778-.873,1.608-.873Z" transform="translate(-138.776 -118.303)" fill="#fff" opacity="0.5"/><path d="M246.925,179.564c.025.5-.635.9-1.473.9H238.11c-.839,0-1.552-.4-1.592-.9s.612-.9,1.455-.9h7.38C246.2,178.663,246.9,179.068,246.925,179.564Z" transform="translate(-148.043 -119.043)" fill="#fff" opacity="0.5"/><path d="M323.875,158.807c-.107.567-.921,1.023-1.818,1.023h-8.581c-.9,0-1.552-.457-1.463-1.023s.893-1.029,1.8-1.029h8.629C323.339,157.778,323.983,158.24,323.875,158.807Z" transform="translate(-136.432 -122.255)" fill="#fff" opacity="0.5"/><path d="M346.666,163.264c.886,0,1.485.447,1.337.995s-.981.989-1.862.989H339.3c-.882,0-1.49-.442-1.358-.989s.96-.995,1.846-.995Z" transform="translate(-132.445 -121.411)" fill="#fff" opacity="0.5"/><path d="M248.741,148.422c-.929,0-1.7-.49-1.727-1.1s.712-1.1,1.645-1.1h7.283c.935,0,1.7.495,1.707,1.1s-.737,1.1-1.666,1.1Z" transform="translate(-146.428 -124.032)" fill="#fff" opacity="0.5"/></g><g transform="translate(13.422 2.58)"><path d="M163.525,117.8a2.459,2.459,0,0,1-2.429,3.4,5.124,5.124,0,0,1-4.543-3.4,2.468,2.468,0,0,1,2.4-3.486A5.111,5.111,0,0,1,163.525,117.8Z" transform="translate(-156.379 -114.317)" fill="#fff"/><path d="M171.659,117.852a2.538,2.538,0,0,1-2.537,3.4,4.916,4.916,0,0,1-4.433-3.4,2.545,2.545,0,0,1,2.515-3.485A4.9,4.9,0,0,1,171.659,117.852Z" transform="translate(-155.122 -114.309)" fill="#fff"/><path d="M179.888,117.8a2.625,2.625,0,0,1-2.649,3.4,4.717,4.717,0,0,1-4.322-3.4,2.63,2.63,0,0,1,2.63-3.486A4.705,4.705,0,0,1,179.888,117.8Z" transform="translate(-153.852 -114.317)" fill="#fff"/></g></g><g transform="translate(8.387 6.629)"><path d="M100.379,106.44l31.094,83.107,37.51-83.107Z" transform="translate(-100.379 -105.916)" fill="#fff" opacity="0.1"/><path d="M145.847,213.151,208.071,106.44H273.21L181.631,213.151Z" transform="translate(-93.385 -105.916)" fill="#fff" opacity="0.1"/><path d="M293.489,105.986,196.5,213.221h14.933L311.9,106.509Z" transform="translate(-85.593 -105.986)" fill="#fff" opacity="0.1"/><path d="M297.156,213.151,403.75,106.44h15.041l-109.9,106.711Z" transform="translate(-70.111 -105.916)" fill="#fff" opacity="0.1"/></g></g></g><g transform="translate(120.878 250.664)"><g transform="translate(0)"><g transform="translate(44.501 17.316)"><path d="M175.91,239.067H151.569a5.721,5.721,0,0,0-5.722,5.722v11.843a5.722,5.722,0,0,0,5.722,5.722h6.362l4.821,10.927,6.8-10.927h6.362a5.722,5.722,0,0,0,5.722-5.722V244.789A5.721,5.721,0,0,0,175.91,239.067Z" transform="translate(-145.847 -239.067)" fill="#fff" stroke="#263238" stroke-linecap="round" stroke-linejoin="round" stroke-width="1"/><g transform="translate(14.509 5.662)"><path d="M158.422,245.086a1.129,1.129,0,0,1,1.186-1.112,1.1,1.1,0,0,1,1.185,1.067,1.187,1.187,0,0,1-2.371.045Zm.253,2.416h1.853v7.916h-1.853Z" transform="translate(-158.422 -243.974)" fill="#263238"/><path d="M164.537,247.041v.474h2.18V249H164.6v6.375h-1.853V249h-1.3v-1.483h1.3v-.5a2.558,2.558,0,0,1,2.831-2.741,2.967,2.967,0,0,1,1.675.429l-.519,1.394a1.824,1.824,0,0,0-1.023-.327C164.937,245.767,164.537,246.2,164.537,247.041Z" transform="translate(-157.958 -243.928)" fill="#263238"/></g></g><g transform="translate(118.595 18.974)"><path d="M240.126,240.5H215.785a5.721,5.721,0,0,0-5.722,5.722v11.843a5.721,5.721,0,0,0,5.722,5.722h6.362l4.821,10.927,6.8-10.927h6.362a5.721,5.721,0,0,0,5.722-5.722V246.226A5.721,5.721,0,0,0,240.126,240.5Z" transform="translate(-210.063 -240.504)" fill="#fff" stroke="#263238" stroke-linecap="round" stroke-linejoin="round" stroke-width="1"/><g transform="translate(2.774 6.107)"><path d="M220.531,253.033H214.32a2.4,2.4,0,0,0,2.564,1.9,2.833,2.833,0,0,0,2.15-.861l.993,1.142a4.017,4.017,0,0,1-3.187,1.289c-2.654,0-4.373-1.705-4.373-4.063a3.937,3.937,0,0,1,4.091-4.046,3.86,3.86,0,0,1,4,4.093C220.56,252.631,220.546,252.855,220.531,253.033Zm-6.226-1.23H218.8a2.156,2.156,0,0,0-2.238-1.928A2.187,2.187,0,0,0,214.305,251.8Z" transform="translate(-212.467 -245.398)" fill="#263238"/><path d="M221.019,245.8h1.853v11h-1.853Z" transform="translate(-211.152 -245.797)" fill="#263238"/><path d="M223.946,255.611l.711-1.408a5.33,5.33,0,0,0,2.758.785c1.171,0,1.66-.325,1.66-.873,0-1.513-4.892-.09-4.892-3.247,0-1.5,1.349-2.476,3.483-2.476a6.312,6.312,0,0,1,2.965.682l-.712,1.409a4.324,4.324,0,0,0-2.267-.593c-1.127,0-1.66.37-1.66.89,0,1.6,4.891.178,4.891,3.276,0,1.483-1.364,2.446-3.587,2.446A6.284,6.284,0,0,1,223.946,255.611Z" transform="translate(-210.701 -245.398)" fill="#263238"/><path d="M238.842,253.033H232.63a2.4,2.4,0,0,0,2.565,1.9,2.835,2.835,0,0,0,2.15-.861l.993,1.142a4.019,4.019,0,0,1-3.188,1.289c-2.653,0-4.373-1.705-4.373-4.063a3.937,3.937,0,0,1,4.091-4.046,3.86,3.86,0,0,1,4,4.093C238.871,252.631,238.856,252.855,238.842,253.033Zm-6.226-1.23h4.491a2.154,2.154,0,0,0-2.238-1.928A2.186,2.186,0,0,0,232.616,251.8Z" transform="translate(-209.651 -245.398)" fill="#263238"/></g></g><g transform="translate(190.431 18.272)"><path d="M302.386,239.9H278.045a5.721,5.721,0,0,0-5.722,5.722V257.46a5.721,5.721,0,0,0,5.722,5.722h6.362l4.821,10.927,6.8-10.927h6.362a5.721,5.721,0,0,0,5.722-5.722V245.617A5.721,5.721,0,0,0,302.386,239.9Z" transform="translate(-272.323 -239.895)" fill="#fff" stroke="#263238" stroke-linecap="round" stroke-linejoin="round" stroke-width="1"/><g transform="translate(8.206 6.004)"><path d="M282.533,247.871v.474h2.18v1.483h-2.12V256.2h-1.854v-6.375h-1.3v-1.483h1.3v-.5a2.558,2.558,0,0,1,2.832-2.743,2.968,2.968,0,0,1,1.676.429l-.52,1.394a1.816,1.816,0,0,0-1.021-.327C282.935,246.6,282.533,247.026,282.533,247.871Z" transform="translate(-279.435 -245.099)" fill="#263238"/><path d="M284.418,251.83a4.22,4.22,0,1,1,4.209,4.061A3.985,3.985,0,0,1,284.418,251.83Zm6.566,0a2.352,2.352,0,1,0-2.357,2.475A2.306,2.306,0,0,0,290.984,251.83Z" transform="translate(-278.669 -244.686)" fill="#263238"/><path d="M297.845,247.784v1.764a2.326,2.326,0,0,0-.429-.045,2.159,2.159,0,0,0-2.3,2.447v3.839h-1.852v-7.916h1.763v1.156A3.117,3.117,0,0,1,297.845,247.784Z" transform="translate(-277.308 -244.686)" fill="#263238"/></g></g><g transform="translate(261.229 17.316)"><path d="M363.746,239.067H339.4a5.721,5.721,0,0,0-5.722,5.722v11.843a5.722,5.722,0,0,0,5.722,5.722h6.361l4.822,10.927,6.8-10.927h6.362a5.722,5.722,0,0,0,5.722-5.722V244.789A5.721,5.721,0,0,0,363.746,239.067Z" transform="translate(-333.683 -239.067)" fill="#fff" stroke="#263238" stroke-linecap="round" stroke-linejoin="round" stroke-width="1"/><g transform="translate(14.73 8.8)"><path d="M346.449,246.694h6.834v1.483h-6.834Zm0,3.587h6.834v1.483h-6.834Z" transform="translate(-346.449 -246.694)" fill="#263238"/></g></g><g transform="translate(81.604 3.61)"><path d="M208.066,227.188H183.725A5.721,5.721,0,0,0,178,232.91v11.843a5.721,5.721,0,0,0,5.722,5.722h6.362l4.821,10.927,6.8-10.927h6.362a5.721,5.721,0,0,0,5.722-5.722V232.91A5.721,5.721,0,0,0,208.066,227.188Z" transform="translate(-178.003 -227.188)" fill="#fff" stroke="#263238" stroke-linecap="round" stroke-linejoin="round" stroke-width="1"/><g transform="translate(12.166 4.922)"><path d="M188.547,231.454h3.543v1.483H190.4v10.91h1.69v1.483h-3.543Z" transform="translate(-188.547 -231.454)" fill="#263238"/><path d="M195.6,245.33v-1.483h1.675v-10.91H195.6v-1.483h3.528V245.33Z" transform="translate(-187.463 -231.454)" fill="#263238"/></g></g><g transform="translate(153.972 2.4)"><path d="M270.787,226.139H246.446a5.721,5.721,0,0,0-5.722,5.722V243.7a5.721,5.721,0,0,0,5.722,5.722h6.362l4.821,10.927,6.8-10.927h6.362a5.721,5.721,0,0,0,5.722-5.722V231.861A5.721,5.721,0,0,0,270.787,226.139Z" transform="translate(-240.724 -226.139)" fill="#fff" stroke="#263238" stroke-linecap="round" stroke-linejoin="round" stroke-width="1"/><g transform="translate(10.803 4.873)"><path d="M252.222,237.3c.593.193.875.593.875,1.512v2.818a1,1,0,0,0,1.1,1.126h.312v1.483h-.742a2.2,2.2,0,0,1-2.519-2.416v-3.054c0-.489-.253-.712-.667-.712h-.49v-1.512h.49c.414,0,.667-.223.667-.712v-3.053a2.2,2.2,0,0,1,2.519-2.417h.742v1.483h-.312a1,1,0,0,0-1.1,1.126v2.818C253.1,236.707,252.815,237.107,252.222,237.3Z" transform="translate(-250.087 -230.362)" fill="#263238"/><path d="M262.326,236.544v1.512h-.5c-.4,0-.653.223-.653.712v3.054a2.212,2.212,0,0,1-2.535,2.416h-.741v-1.483h.312a1,1,0,0,0,1.112-1.126v-2.818c0-.918.265-1.319.86-1.512-.594-.193-.86-.593-.86-1.511v-2.818a1,1,0,0,0-1.112-1.126h-.312v-1.483h.741a2.212,2.212,0,0,1,2.535,2.417v3.053c0,.489.253.712.653.712Z" transform="translate(-248.886 -230.362)" fill="#263238"/></g></g><g transform="translate(225.573)"><path d="M332.843,224.059H308.5a5.721,5.721,0,0,0-5.722,5.722v11.843a5.722,5.722,0,0,0,5.722,5.722h6.362l4.821,10.927,6.8-10.927h6.362a5.722,5.722,0,0,0,5.722-5.722V229.781A5.721,5.721,0,0,0,332.843,224.059Z" transform="translate(-302.78 -224.059)" fill="#fff" stroke="#263238" stroke-linecap="round" stroke-linejoin="round" stroke-width="1"/><g transform="translate(16.924 7.534)"><path d="M317.448,231.82a1.216,1.216,0,1,1,2.432,0,1.216,1.216,0,1,1-2.432,0Zm2.432,5.648a3.356,3.356,0,0,1-.342,1.275l-.757,2.09h-1.2l.593-2.267a1.14,1.14,0,0,1-.7-1.1,1.2,1.2,0,1,1,2.4,0Z" transform="translate(-317.448 -230.589)" fill="#263238"/></g></g><g transform="translate(154.749 172.828)"><path d="M247.119,408.06h24.342a5.722,5.722,0,0,0,5.722-5.722V390.5a5.722,5.722,0,0,0-5.722-5.722H265.1l-1.858-10.927-9.76,10.927h-6.362A5.722,5.722,0,0,0,241.4,390.5v11.843A5.722,5.722,0,0,0,247.119,408.06Z" transform="translate(-241.397 -373.847)" fill="#fff" stroke="#263238" stroke-linecap="round" stroke-linejoin="round" stroke-width="1"/><g transform="translate(7.446 14.755)"><path d="M254.683,391.5l-5.114,1.912,5.114,1.912v1.543l-6.833-2.654v-1.6l6.833-2.654Z" transform="translate(-247.85 -386.123)" fill="#263238"/><path d="M259.1,386.635h1.66L255.865,400.6h-1.66Z" transform="translate(-246.873 -386.635)" fill="#263238"/><path d="M267.023,392.617v1.6l-6.834,2.654v-1.543l5.115-1.912-5.115-1.912v-1.542Z" transform="translate(-245.952 -386.123)" fill="#263238"/></g></g><g transform="translate(0 86.587)"><path d="M113,333.315h24.341a5.721,5.721,0,0,0,5.722-5.722V315.75a5.721,5.721,0,0,0-5.722-5.721h-6.362l1.386-10.927-13,10.927H113a5.721,5.721,0,0,0-5.722,5.721v11.843A5.721,5.721,0,0,0,113,333.315Z" transform="translate(-107.278 -299.103)" fill="#fff" stroke="#263238" stroke-linecap="round" stroke-linejoin="round" stroke-width="1"/><g transform="translate(12.938 17.378)"><path d="M118.491,323.488a1.147,1.147,0,0,1,1.2-1.141,1.129,1.129,0,0,1,1.17,1.141,1.141,1.141,0,0,1-1.17,1.156A1.159,1.159,0,0,1,118.491,323.488Zm.1-9.324h2.193l-.37,6.938H118.95Z" transform="translate(-118.491 -314.164)" fill="#263238"/><path d="M122.138,316.464h6.833v1.481h-6.833Zm0,3.586h6.833v1.483h-6.833Z" transform="translate(-117.93 -313.81)" fill="#263238"/></g></g></g></g><g transform="translate(431.233 311.471)"><g transform="translate(30.361 10.514)"><g transform="translate(0.002)"><path d="M457.331,321.923a82.9,82.9,0,0,1-1.123,13.692c-3.346,19.964-13.84,34.533-26.261,34.533a16.377,16.377,0,0,1-3.3-.345c-13.556-2.878-24.076-23.211-24.076-47.88,0-26.631,12.259-36.051,27.372-36.051S457.331,295.292,457.331,321.923Z" transform="translate(-402.576 -285.872)" fill="#fff"/><g clip-path="url(#c)"><g transform="translate(31.225 -8.309)"><path d="M443.246,323.335c1.019,14.281-1.438,28.638-5.552,42.351,10.314-8.463,15.058-21.778,19.346-34.413,3.113-9.175,6.267-18.634,5.707-28.307S457,283.233,447.925,279.842a19.728,19.728,0,0,0-13.988.227c-7.606,3.051-3.442,5.529-.249,10.99A74.576,74.576,0,0,1,443.246,323.335Z" transform="translate(-429.638 -278.671)" fill="#92e3a9"/><path d="M443.246,323.335c1.019,14.281-1.438,28.638-5.552,42.351,10.314-8.463,15.058-21.778,19.346-34.413,3.113-9.175,6.267-18.634,5.707-28.307S457,283.233,447.925,279.842a19.728,19.728,0,0,0-13.988.227c-7.606,3.051-3.442,5.529-.249,10.99A74.576,74.576,0,0,1,443.246,323.335Z" transform="translate(-429.638 -278.671)" fill="#fff" opacity="0.5"/></g></g><path d="M457.331,321.923a82.9,82.9,0,0,1-1.123,13.692c-3.346,19.964-13.84,34.533-26.261,34.533a16.377,16.377,0,0,1-3.3-.345c-13.556-2.878-24.076-23.211-24.076-47.88,0-26.631,12.259-36.051,27.372-36.051S457.331,295.292,457.331,321.923Z" transform="translate(-402.576 -285.872)" fill="none" stroke="#263238" stroke-miterlimit="10" stroke-width="1"/></g><g transform="translate(33.103 35.989)"><path d="M440.244,338.353a47.251,47.251,0,0,1-8.98,16.846" transform="translate(-431.264 -313.788)" fill="#fff" stroke="#263238" stroke-miterlimit="10" stroke-width="1"/><path d="M439.865,335.445q-.218.978-.474,1.945" transform="translate(-430.014 -314.236)" fill="none" stroke="#263238" stroke-miterlimit="10" stroke-width="1"/><path d="M439.741,317.063a47.216,47.216,0,0,1,.546,18.786" transform="translate(-429.96 -317.063)" fill="#fff" stroke="#263238" stroke-miterlimit="10" stroke-width="1"/></g><path d="M402.574,317.848s31.116-12.3,54.752,0" transform="translate(-402.574 -281.795)" fill="none" stroke="#263238" stroke-miterlimit="10" stroke-width="1"/><path d="M426.3,285.872s3.116,11.54,3.476,30.3" transform="translate(-398.924 -285.872)" fill="#fff" stroke="#263238" stroke-miterlimit="10" stroke-width="1"/><path d="M430.644,298.859c.4,3.587-.222,6.644-1.387,6.828s-2.436-2.574-2.835-6.16.222-6.644,1.387-6.827S430.244,295.273,430.644,298.859Z" transform="translate(-398.924 -284.823)" fill="#bfbfbf" stroke="#263238" stroke-linecap="round" stroke-linejoin="round" stroke-width="1"/></g><path d="M421.72,380.776H385.237a8.944,8.944,0,0,1-8.873-7.742,6.149,6.149,0,0,1-.1-1.235V285.737a6.49,6.49,0,0,1,.1-1.246,8.934,8.934,0,0,1,8.873-7.731h103.52a8.841,8.841,0,0,1,4.3,1.108" transform="translate(-376.26 -276.76)" fill="none" stroke="#263238" stroke-miterlimit="10" stroke-width="1"/></g></g></svg>