<svg xmlns="http://www.w3.org/2000/svg" width="602.909" height="398.908" viewBox="0 0 602.909 398.908"><g transform="translate(-45.925 -32.285)"><g transform="translate(45.925 61.112)"><g transform="translate(22.843 37.888)"><path d="M130.788,111.353l-9.656-5.99L119.3,108.32a2.7,2.7,0,0,1-2.542,1.253,15.881,15.881,0,0,0-1.7-.054,2.7,2.7,0,0,1-2.452-1.409l-1.644-3.065-10.016,5.372,1.643,3.065a2.7,2.7,0,0,1-.182,2.821,15.889,15.889,0,0,0-.895,1.445,2.7,2.7,0,0,1-2.451,1.424l-3.477-.111-.353,11.358,3.49.1a2.705,2.705,0,0,1,2.351,1.584q.177.377.377.747t.414.726a2.694,2.694,0,0,1,.021,2.821l-1.846,2.979,9.656,5.989,1.839-2.963a2.7,2.7,0,0,1,2.544-1.252,16,16,0,0,0,1.692.056,2.7,2.7,0,0,1,2.449,1.409l1.644,3.066,10.016-5.371-1.644-3.067a2.7,2.7,0,0,1,.181-2.82,15.639,15.639,0,0,0,.889-1.44,2.7,2.7,0,0,1,2.45-1.426l3.485.107.353-11.357-3.487-.108a2.7,2.7,0,0,1-2.343-1.58q-.179-.378-.38-.753t-.414-.727a2.7,2.7,0,0,1-.02-2.835Zm-7.171,9.616a9.308,9.308,0,1,1-12.6-3.81A9.3,9.3,0,0,1,123.616,120.968Z" transform="translate(-72.865 -105.045)" fill="#ebebeb"/><path d="M99.1,170.442l-3.979-6.9-2.11,1.22a1.894,1.894,0,0,1-1.984-.067A10.958,10.958,0,0,0,90,164.1a1.89,1.89,0,0,1-1.046-1.683v-2.436H80.988v2.436a1.89,1.89,0,0,1-1.046,1.683,10.958,10.958,0,0,0-1.032.6,1.894,1.894,0,0,1-1.984.067l-2.11-1.22-3.979,6.9,2.12,1.22a1.894,1.894,0,0,1,.927,1.756q-.015.292-.015.586t.015.586a1.888,1.888,0,0,1-.922,1.749l-2.125,1.228,3.979,6.9,2.116-1.22a1.892,1.892,0,0,1,1.984.07,11.07,11.07,0,0,0,1.027.594,1.892,1.892,0,0,1,1.044,1.682v2.437h7.963v-2.437A1.891,1.891,0,0,1,90,183.9a11.039,11.039,0,0,0,1.025-.594,1.894,1.894,0,0,1,1.985-.07l2.116,1.22,3.979-6.9-2.117-1.22a1.892,1.892,0,0,1-.923-1.751q.015-.293.015-.59t-.015-.586a1.9,1.9,0,0,1,.927-1.757ZM91.491,174a6.521,6.521,0,1,1-6.518-6.524A6.516,6.516,0,0,1,91.491,174Z" transform="translate(-70.838 -109.609)" fill="#ebebeb"/><path d="M650.119,223.971l-3.979-6.9-2.11,1.22a1.892,1.892,0,0,1-1.984-.068,11.13,11.13,0,0,0-1.031-.6,1.891,1.891,0,0,1-1.047-1.683v-2.436h-7.963v2.436a1.891,1.891,0,0,1-1.047,1.683,11.131,11.131,0,0,0-1.031.6,1.892,1.892,0,0,1-1.984.068l-2.11-1.22-3.979,6.9,2.12,1.22a1.9,1.9,0,0,1,.926,1.756c-.009.194-.015.39-.015.586s.005.392.015.586a1.887,1.887,0,0,1-.921,1.749l-2.125,1.228,3.979,6.9,2.115-1.22a1.893,1.893,0,0,1,1.985.07,11.05,11.05,0,0,0,1.026.594,1.891,1.891,0,0,1,1.045,1.682v2.437h7.963v-2.437a1.891,1.891,0,0,1,1.045-1.682,11.058,11.058,0,0,0,1.026-.594,1.894,1.894,0,0,1,1.985-.07l2.115,1.22,3.979-6.9L648,229.874a1.887,1.887,0,0,1-.923-1.75c.009-.2.015-.392.015-.591s-.005-.392-.015-.586a1.9,1.9,0,0,1,.926-1.757Zm-7.611,3.562a6.521,6.521,0,1,1-6.518-6.524A6.515,6.515,0,0,1,642.508,227.533Z" transform="translate(-116.614 -114.056)" fill="#ebebeb"/></g><g transform="translate(460.042)"><path d="M568.981,91.317a62.362,62.362,0,0,0-4.227,19.311c-.1,0-.171.011-.247.011H547.86c-.071,0-.141-.008-.212-.012v-.475c.046-.437.1-.874.138-1.312a46.96,46.96,0,0,1,1.131-6.74,52.013,52.013,0,0,1,3.8-10.537.383.383,0,0,1,.412-.25q7.778.008,15.557,0Z" transform="translate(-547.648 -66.016)" fill="#ebebeb"/><path d="M568.463,136.66h-.273q-7.72,0-15.442.006a.361.361,0,0,1-.383-.248,49.111,49.111,0,0,1-4.673-17.9,1.5,1.5,0,0,0-.044-.205v-.471c.085-.007.171-.02.257-.02h16.553c.305,0,.29,0,.313.308.1,1.374.2,2.75.327,4.12a54.028,54.028,0,0,0,1.051,6.471,58.648,58.648,0,0,0,2.236,7.693C568.411,136.486,568.431,136.561,568.463,136.66Z" transform="translate(-547.648 -68.218)" fill="#ebebeb"/><path d="M639.324,143.8c-.055.094-.094.166-.137.234a46.976,46.976,0,0,1-4.454,5.775,43.883,43.883,0,0,1-6.525,6.015,46.826,46.826,0,0,1-15.294,7.665,48.428,48.428,0,0,1-6.545,1.395c-.215.031-.43.072-.644.108h-.379l-.364-.232c.155-.111.284-.206.417-.3a50.381,50.381,0,0,0,12.393-12.02,56.649,56.649,0,0,0,5.063-8.4.365.365,0,0,1,.39-.243q7.9.007,15.8,0Z" transform="translate(-552.411 -70.376)" fill="#ebebeb"/><path d="M623.286,110.616H601.21V91.328c.089,0,.172-.011.255-.011q8.489,0,16.98,0a.319.319,0,0,1,.348.228,53.463,53.463,0,0,1,3.511,11.3,55.71,55.71,0,0,1,.85,6.12C623.2,109.508,623.24,110.05,623.286,110.616Z" transform="translate(-552.098 -66.016)" fill="#ebebeb"/><path d="M623.142,117.98c-.021.456-.026.91-.065,1.362-.1,1.075-.172,2.15-.322,3.219-.209,1.478-.435,2.956-.729,4.421a52.719,52.719,0,0,1-2.863,9.415.369.369,0,0,1-.4.284q-8.691-.014-17.381-.008h-.313V117.98Z" transform="translate(-552.086 -68.231)" fill="#ebebeb"/><path d="M593.829,91.453v19.319H572.271c.032-.491.046-.969.1-1.446.11-1.079.2-2.167.368-3.238.265-1.637.546-3.273.9-4.9a50.367,50.367,0,0,1,3.114-9.508.339.339,0,0,1,.368-.237q8.219.008,16.438,0Z" transform="translate(-549.694 -66.027)" fill="#ebebeb"/><path d="M593.852,118.234q-.008,9.083,0,18.164v.273h-.29q-8.47,0-16.935.006a.348.348,0,0,1-.379-.254,49.164,49.164,0,0,1-2.935-9.735c-.322-1.716-.57-3.449-.787-5.18-.144-1.131-.174-2.277-.252-3.416a.9.9,0,0,1,.008-.121c.083,0,.166-.011.249-.011q10.527,0,21.051-.006C593.8,117.955,593.852,118.02,593.852,118.234Z" transform="translate(-549.693 -68.229)" fill="#ebebeb"/><path d="M648.8,110.754h-18.09a62.911,62.911,0,0,0-4.216-19.437h.283q8.287,0,16.578,0a.373.373,0,0,1,.394.236,47.472,47.472,0,0,1,4.17,12.094,52.012,52.012,0,0,1,.879,6.782C648.8,110.529,648.8,110.631,648.8,110.754Z" transform="translate(-554.198 -66.016)" fill="#ebebeb"/><path d="M648.857,117.823c-.02.436-.031.852-.061,1.264a48.274,48.274,0,0,1-.6,4.873,47.468,47.468,0,0,1-3.324,10.862c-.246.562-.514,1.114-.765,1.672a.253.253,0,0,1-.269.172q-8.31-.008-16.622-.005c-.053,0-.105-.007-.18-.012.2-.579.4-1.141.6-1.7a58.6,58.6,0,0,0,2.238-8.811,57.241,57.241,0,0,0,.775-6.562c.032-.518.065-1.04.088-1.558,0-.138.044-.207.19-.193.057.006.111,0,.167,0Z" transform="translate(-554.244 -68.218)" fill="#ebebeb"/><path d="M638.828,84.1c-.011.025-.023.049-.034.075h-.23q-7.913,0-15.822,0a.36.36,0,0,1-.38-.224,54.33,54.33,0,0,0-7.855-11.638,43.986,43.986,0,0,0-6.026-5.555c-1.078-.831-2.2-1.608-3.3-2.409-.057-.039-.111-.083-.183-.138l.219-.15c-.03-.1-.061-.2-.1-.341A47.308,47.308,0,0,1,638.828,84.1Z" transform="translate(-552.412 -63.724)" fill="#ebebeb"/><path d="M589.417,164.758a1.84,1.84,0,0,1-.458.074,43.224,43.224,0,0,1-5.158-1,46.253,46.253,0,0,1-9.182-3.4,46.9,46.9,0,0,1-9.359-6.142,44.555,44.555,0,0,1-5.627-5.625,47.125,47.125,0,0,1-3.51-4.863c-.023-.039-.04-.08-.075-.15h.261q7.368,0,14.732-.006a.358.358,0,0,1,.37.238,56.705,56.705,0,0,0,5.414,8.826,55.614,55.614,0,0,0,6.346,7.026,48.931,48.931,0,0,0,6.109,4.912C589.306,164.66,589.328,164.684,589.417,164.758Z" transform="translate(-548.346 -70.363)" fill="#ebebeb"/><path d="M589.265,64.2c-.671.492-1.465,1.05-2.232,1.639a55.232,55.232,0,0,0-7.136,6.644,50.042,50.042,0,0,0-7.491,10.686c-.127.245-.241.5-.382.733a.331.331,0,0,1-.228.143c-.267.017-.536.006-.805.006h-14.4c8.024-11.329,18.8-18.139,32.51-20.22-.03.062-.061.123-.093.186C589.1,64.085,589.2,64.154,589.265,64.2Z" transform="translate(-548.391 -63.733)" fill="#ebebeb"/><path d="M616.687,143.814a51.639,51.639,0,0,1-7.29,9.864,46.045,46.045,0,0,1-8.327,7.065V143.814Z" transform="translate(-552.086 -70.378)" fill="#ebebeb"/><path d="M594.419,143.819v16.6a48.023,48.023,0,0,1-14.983-16.6Z" transform="translate(-550.289 -70.378)" fill="#ebebeb"/><path d="M616.207,84.437H601.213V68.617a45.731,45.731,0,0,1,8.413,7.046A52.985,52.985,0,0,1,616.207,84.437Z" transform="translate(-552.098 -64.13)" fill="#ebebeb"/><path d="M594.477,69.156V84.612H580.085A45.522,45.522,0,0,1,594.477,69.156Z" transform="translate(-550.343 -64.175)" fill="#ebebeb"/></g><g transform="translate(0 213.587)"><path d="M98.756,333.011a26.559,26.559,0,1,1-26.267-30.449v26.555Z" transform="translate(-45.925 -297.153)" fill="#dbdbdb"/><path d="M107.35,323.219a26.319,26.319,0,0,1-.289,3.893l-26.266-3.893V296.663a26.533,26.533,0,0,1,26.555,26.556Z" transform="translate(-48.822 -296.663)" fill="#ebebeb"/><g transform="translate(40.036 44.231)"><rect width="28.243" height="0.917" transform="translate(0 1.98)" fill="#c7c7c7"/><path d="M122.328,349.778a2.439,2.439,0,1,1,2.437-2.439A2.441,2.441,0,0,1,122.328,349.778Zm0-3.96a1.522,1.522,0,1,0,1.52,1.521A1.523,1.523,0,0,0,122.328,345.818Z" transform="translate(-92.105 -344.901)" fill="#c7c7c7"/><rect width="21.936" height="0.99" transform="translate(37.399 0.954)" fill="#c7c7c7"/><rect width="12.418" height="0.99" transform="translate(37.399 2.934)" fill="#c7c7c7"/></g></g><g transform="translate(110.153 9.806)"><g transform="translate(6.921 7.824)"><rect width="8.646" height="61.525" fill="#ebebeb"/></g><g transform="translate(21.781 22.717)"><rect width="8.646" height="46.633" fill="#ebebeb"/></g><g transform="translate(36.642 46.033)"><rect width="8.646" height="23.316" fill="#ebebeb"/></g><g transform="translate(51.503 32.715)"><rect width="8.646" height="36.634" fill="#ebebeb"/></g><g transform="translate(66.363 18.729)"><rect width="8.646" height="50.62" fill="#ebebeb"/></g><g transform="translate(81.224 10.505)"><rect width="8.646" height="58.845" fill="#ebebeb"/></g><path d="M168.118,74.418l.1,17.337.049,17.337.07,34.675-.219-.219q11.919-.032,23.838,0l23.838.048,23.838.048,23.838.128-23.838.128-23.838.048-23.838.048q-11.919.041-23.838-.005H167.9v-.217l.069-34.675.05-17.337Z" transform="translate(-166.211 -74.418)" fill="#ebebeb"/><path d="M166.058,78.188a7.555,7.555,0,0,1,3.815,0,6.651,6.651,0,0,1-1.908.245A6.747,6.747,0,0,1,166.058,78.188Z" transform="translate(-166.058 -74.711)" fill="#ebebeb"/><path d="M166.058,83.936a7.555,7.555,0,0,1,3.815,0,6.651,6.651,0,0,1-1.908.245A6.747,6.747,0,0,1,166.058,83.936Z" transform="translate(-166.058 -75.188)" fill="#ebebeb"/><path d="M166.058,89.684a7.555,7.555,0,0,1,3.815,0,7.555,7.555,0,0,1-3.815,0Z" transform="translate(-166.058 -75.666)" fill="#ebebeb"/><path d="M166.058,95.432a7.555,7.555,0,0,1,3.815,0,7.555,7.555,0,0,1-3.815,0Z" transform="translate(-166.058 -76.143)" fill="#ebebeb"/><path d="M166.058,101.181a7.527,7.527,0,0,1,3.815,0,7.555,7.555,0,0,1-3.815,0Z" transform="translate(-166.058 -76.621)" fill="#ebebeb"/><path d="M166.058,106.929a7.528,7.528,0,0,1,3.815,0,7.555,7.555,0,0,1-3.815,0Z" transform="translate(-166.058 -77.098)" fill="#ebebeb"/><path d="M166.058,112.677a7.528,7.528,0,0,1,3.815,0,7.555,7.555,0,0,1-3.815,0Z" transform="translate(-166.058 -77.576)" fill="#ebebeb"/><path d="M166.058,118.425a7.555,7.555,0,0,1,3.815,0,7.555,7.555,0,0,1-3.815,0Z" transform="translate(-166.058 -78.054)" fill="#ebebeb"/><path d="M166.058,124.173a7.555,7.555,0,0,1,3.815,0,7.555,7.555,0,0,1-3.815,0Z" transform="translate(-166.058 -78.531)" fill="#ebebeb"/><path d="M166.058,129.921a6.748,6.748,0,0,1,1.907-.245,6.651,6.651,0,0,1,1.908.245,7.555,7.555,0,0,1-3.815,0Z" transform="translate(-166.058 -79.009)" fill="#ebebeb"/><path d="M166.058,135.669a6.747,6.747,0,0,1,1.907-.245,6.651,6.651,0,0,1,1.908.245,7.555,7.555,0,0,1-3.815,0Z" transform="translate(-166.058 -79.486)" fill="#ebebeb"/><path d="M166.058,141.417a7.555,7.555,0,0,1,3.815,0,6.683,6.683,0,0,1-1.908.245A6.779,6.779,0,0,1,166.058,141.417Z" transform="translate(-166.058 -79.964)" fill="#ebebeb"/></g></g><g transform="translate(47.659 400.306)"><ellipse cx="101.486" cy="15.444" rx="101.486" ry="15.444" fill="#ebebeb"/></g><g transform="translate(46.489 360.284)"><path d="M46.54,390.459l75.293-.223,75.293-.081L347.713,390l150.586.153,75.293.081,75.293.224-75.293.224-75.293.081-150.586.153-150.586-.154-75.293-.081Z" transform="translate(-46.54 -390.001)" fill="#263238"/></g><g transform="translate(152.91 131.264)"><rect width="350.023" height="234.139" transform="translate(45.589)" fill="#dbdbdb"/><rect width="344.935" height="228.427" transform="translate(48.132 2.856)" fill="#263238"/><g transform="translate(0 234.139)"><rect width="441.2" height="16.07" transform="translate(0 17.557)" fill="#c7c7c7"/><path d="M162.6,413.142l45.589-17.557H558.214L603.8,413.142Z" transform="translate(-162.603 -395.585)" fill="#dbdbdb"/><path d="M216.762,406.915l29.419-11.33H529.223l29.419,11.33Z" transform="translate(-167.102 -395.585)" fill="#263238"/></g><g transform="translate(67.367 20.211)"><rect width="305.949" height="193.718" transform="translate(0.259)" fill="#fff"/><rect width="306.207" height="7.454" fill="#455a64"/><g transform="translate(2.227 1.878)"><circle cx="1.849" cy="1.849" r="1.849" fill="#c7c7c7"/><circle cx="1.849" cy="1.849" r="1.849" transform="translate(7.549)" fill="#fff"/><circle cx="1.849" cy="1.849" r="1.849" transform="translate(15.098 0)" fill="#ffc727"/></g></g><g transform="translate(81.194 98.116)"><g transform="translate(0 47.779)"><rect width="46.506" height="31.822" fill="#ebebeb"/><path d="M251.153,301.887c2,1.132,3.959,2.319,5.94,3.477q2.953,1.766,5.889,3.559c3.917,2.386,7.8,4.82,11.684,7.265h-.522c3.88-2.445,7.766-4.88,11.683-7.267q2.934-1.8,5.888-3.559c1.981-1.157,3.945-2.343,5.942-3.475-1.879,1.319-3.791,2.586-5.686,3.88q-2.861,1.912-5.737,3.8c-3.834,2.518-7.7,4.988-11.569,7.446l-.261.166-.26-.166c-3.87-2.46-7.735-4.929-11.569-7.447q-2.88-1.88-5.737-3.8C254.944,304.472,253.032,303.206,251.153,301.887Z" transform="translate(-251.153 -299.557)" fill="#fff"/><path d="M251.275,326.719c1.411-1.232,2.877-2.386,4.363-3.511s3-2.214,4.518-3.289,3.07-2.109,4.641-3.112,3.155-1.988,4.8-2.888c-1.41,1.233-2.876,2.387-4.362,3.512s-3,2.214-4.519,3.288-3.071,2.108-4.641,3.111S252.917,325.818,251.275,326.719Z" transform="translate(-251.163 -300.556)" fill="#fff"/><path d="M300.09,326.719c-1.642-.9-3.229-1.882-4.8-2.889s-3.11-2.052-4.641-3.111-3.037-2.158-4.519-3.288-2.952-2.279-4.362-3.512c1.643.9,3.23,1.88,4.8,2.888s3.11,2.052,4.641,3.112,3.036,2.158,4.518,3.289S298.679,325.487,300.09,326.719Z" transform="translate(-253.696 -300.556)" fill="#fff"/></g><g transform="translate(37.112 67.424)"><path d="M304.367,340.519l2.957,7.139-2.953,1.222-2.973-7.187-4.88,3.786V325.367L310.6,339.59Z" transform="translate(-292.033 -321.152)" fill="#263238"/><path d="M296.5,322.793a2.655,2.655,0,0,1-.179-1.011,2.624,2.624,0,0,1,.179-1.011,2.64,2.64,0,0,1,.178,1.011A2.672,2.672,0,0,1,296.5,322.793Z" transform="translate(-292.017 -320.77)" fill="#263238"/><path d="M294.489,323.633a2.658,2.658,0,0,1-.841-.589,2.622,2.622,0,0,1-.589-.842,2.644,2.644,0,0,1,.841.589A2.671,2.671,0,0,1,294.489,323.633Z" transform="translate(-291.746 -320.889)" fill="#263238"/><path d="M293.649,325.646a2.668,2.668,0,0,1-1.01.179,2.634,2.634,0,0,1-1.011-.179,2.635,2.635,0,0,1,1.011-.179A2.668,2.668,0,0,1,293.649,325.646Z" transform="translate(-291.627 -321.16)" fill="#263238"/><path d="M294.489,327.561a2.951,2.951,0,0,1-1.429,1.43,2.633,2.633,0,0,1,.589-.842A2.672,2.672,0,0,1,294.489,327.561Z" transform="translate(-291.746 -321.334)" fill="#263238"/><path d="M299.2,325.646a2.669,2.669,0,0,1,1.01-.179,2.635,2.635,0,0,1,1.011.179,2.634,2.634,0,0,1-1.011.179A2.668,2.668,0,0,1,299.2,325.646Z" transform="translate(-292.257 -321.16)" fill="#263238"/><path d="M298.418,323.633a2.672,2.672,0,0,1,.589-.842,2.643,2.643,0,0,1,.841-.589,2.623,2.623,0,0,1-.589.842A2.658,2.658,0,0,1,298.418,323.633Z" transform="translate(-292.191 -320.889)" fill="#263238"/></g><g transform="translate(148.576 39.232)"><path d="M447.757,343.273,413.19,334.4l11.394-44.374,25.666,6.59,6.73,10.741Z" transform="translate(-413.19 -290.024)" fill="#ebebeb"/><path d="M453.411,297.211l6.73,10.741-8.9-2.286Z" transform="translate(-416.351 -290.621)" fill="#dbdbdb"/><g transform="translate(12.562 8.311)"><rect width="19.842" height="1.177" transform="translate(19.219 6.074) rotate(-165.599)" fill="#dbdbdb"/></g><g transform="translate(11.823 11.187)"><rect width="19.842" height="1.177" transform="translate(19.219 6.074) rotate(-165.599)" fill="#dbdbdb"/></g><g transform="translate(11.085 14.063)"><rect width="19.842" height="1.177" transform="translate(19.219 6.074) rotate(-165.599)" fill="#dbdbdb"/></g><g transform="translate(10.346 16.939)"><rect width="29.073" height="1.176" transform="translate(28.159 8.37) rotate(-165.599)" fill="#dbdbdb"/></g><g transform="translate(9.608 19.815)"><rect width="29.073" height="1.176" transform="matrix(-0.969, -0.249, 0.249, -0.969, 28.159, 8.37)" fill="#dbdbdb"/></g><g transform="translate(8.87 22.691)"><rect width="29.073" height="1.177" transform="matrix(-0.969, -0.249, 0.249, -0.969, 28.159, 8.37)" fill="#dbdbdb"/></g><g transform="translate(8.131 25.567)"><rect width="29.073" height="1.176" transform="matrix(-0.969, -0.249, 0.249, -0.969, 28.159, 8.37)" fill="#dbdbdb"/></g><g transform="translate(7.393 28.443)"><rect width="29.073" height="1.177" transform="matrix(-0.969, -0.249, 0.249, -0.969, 28.159, 8.37)" fill="#dbdbdb"/></g><g transform="translate(6.654 31.319)"><rect width="29.073" height="1.176" transform="translate(28.159 8.37) rotate(-165.599)" fill="#dbdbdb"/></g><g transform="translate(5.916 34.195)"><rect width="29.073" height="1.176" transform="matrix(-0.969, -0.249, 0.249, -0.969, 28.159, 8.37)" fill="#dbdbdb"/></g><g transform="translate(5.177 37.071)"><rect width="29.073" height="1.177" transform="matrix(-0.969, -0.249, 0.249, -0.969, 28.159, 8.37)" fill="#dbdbdb"/></g><g transform="translate(4.439 39.947)"><rect width="29.073" height="1.176" transform="matrix(-0.969, -0.249, 0.249, -0.969, 28.159, 8.37)" fill="#dbdbdb"/></g></g><g transform="translate(76.453)"><path d="M334.533,277.1l44.643,1.65,1.071-29.859-44.643-1.65Z" transform="translate(-334.533 -247.238)" fill="#ebebeb"/><path d="M336.628,275.481l40.937,1.513.933-26.141-40.937-1.513Z" transform="translate(-334.707 -247.412)" fill="#fff"/><path d="M341.376,257.989a4.457,4.457,0,1,0,4.619-4.289A4.457,4.457,0,0,0,341.376,257.989Z" transform="translate(-335.101 -247.774)" fill="#dbdbdb"/><path d="M350.489,276.722l28.2,1.042L365.3,258.132Z" transform="translate(-335.858 -248.143)" fill="#dbdbdb"/><path d="M338.434,276.882l23.281.861-11.181-12.875Z" transform="translate(-334.857 -248.702)" fill="#ebebeb"/></g><g transform="translate(53.443 12.739)"><path d="M315.568,299.491l43.733-9.118-6.13-29.243-43.733,9.118Z" transform="translate(-309.438 -261.131)" fill="#ebebeb"/><path d="M317.2,297.491l40.1-8.361-5.371-25.6-40.1,8.361Z" transform="translate(-309.637 -261.33)" fill="#fff"/><path d="M317.614,280.04a4.457,4.457,0,1,0,3.453-5.273A4.457,4.457,0,0,0,317.614,280.04Z" transform="translate(-310.109 -262.256)" fill="#dbdbdb"/><path d="M331.278,295.823l27.624-5.759-17.715-15.842Z" transform="translate(-311.252 -262.219)" fill="#dbdbdb"/><path d="M319.471,298.932l22.807-4.755-13.945-9.814Z" transform="translate(-310.271 -263.061)" fill="#ebebeb"/></g></g></g><g transform="translate(548.521 202.35)"><g transform="translate(45.883 57.702)"><path d="M651.464,299.253c6.908-14.2,19-21.493,32.622-17.463s15.735,23.028,5.565,27.825-20.341-9.21-25.714-12.09S651.464,299.253,651.464,299.253Z" transform="translate(-644.71 -280.688)" fill="#489ddc"/><path d="M644.164,337.367c.036-1.712.1-3.423.162-5.134.121-3.417.236-6.836.363-10.253.232-6.251.9-12.388,3.5-18.15a28.134,28.134,0,0,1,10.959-12.63,23.064,23.064,0,0,1,5.76-2.486,13.468,13.468,0,0,1,6.724-3.693,27.465,27.465,0,0,1,9.584-.24c.116.013.111.194,0,.181a23.067,23.067,0,0,0-9.067.646,19.087,19.087,0,0,0-3.652,1.42,17.611,17.611,0,0,0-2.113,1.341,19.578,19.578,0,0,1,8.327.081,18.641,18.641,0,0,1,2.889.954,8.511,8.511,0,0,1,2.27-.193,13.491,13.491,0,0,1,2.951.421,22.3,22.3,0,0,1,5.605,2.448c.1.058.006.21-.094.154a20.886,20.886,0,0,0-5.47-2.062,18.294,18.294,0,0,0-2.811-.412,13.965,13.965,0,0,0-1.567.012,18.068,18.068,0,0,1,8.812,8.779c.048.105-.111.193-.158.087a16.563,16.563,0,0,0-11.227-9c-.3-.076-.607-.116-.911-.176a13.044,13.044,0,0,1,.146,1.374q.136,1.037.346,2.061a34.782,34.782,0,0,0,1.109,4.156,32.4,32.4,0,0,0,1.65,4.031,19.155,19.155,0,0,0,2.3,3.889.09.09,0,1,1-.145.106c-.818-1.283-1.771-2.464-2.517-3.8a28.3,28.3,0,0,1-1.848-3.964,26.926,26.926,0,0,1-1.215-4.256q-.224-1.147-.358-2.31a5.343,5.343,0,0,1-.086-1.409,18.622,18.622,0,0,0-4.839-.1c.6,3.386,1.254,6.917,3.152,9.859.062.1-.1.191-.158.088a39.458,39.458,0,0,1-2.341-4.845,18.351,18.351,0,0,1-1.168-5.047,22.341,22.341,0,0,0-8,2.683,26.422,26.422,0,0,0-10.65,11.651,43.83,43.83,0,0,0-3.947,16.7c-.454,7.257-.548,14.561-1.273,21.8-.048.472-.8.632-.888.1A25.588,25.588,0,0,1,644.164,337.367Z" transform="translate(-644.098 -281.003)" fill="#263238"/><path d="M661.581,290.15a8,8,0,0,1,1.57-1.449c.566-.469,1.146-.922,1.754-1.334a13.045,13.045,0,0,1,3.925-1.82.09.09,0,0,1,.043.175,10.4,10.4,0,0,0-3.874,1.9c-.577.424-1.131.878-1.672,1.349a9.934,9.934,0,0,1-1.584,1.346A.122.122,0,0,1,661.581,290.15Z" transform="translate(-645.549 -281.091)" fill="#263238"/><path d="M685.616,296.178a41.6,41.6,0,0,1,3.168,4.192,25.416,25.416,0,0,1,2.357,4.672c.018.05-.06.077-.083.033a55.814,55.814,0,0,0-5.573-8.773C685.412,296.213,685.542,296.088,685.616,296.178Z" transform="translate(-647.534 -281.972)" fill="#263238"/><path d="M669.4,294.642a10.2,10.2,0,0,0,.781,2.569,17.082,17.082,0,0,0,1.315,2.276c.031.048-.041.1-.08.059a9.236,9.236,0,0,1-2.191-4.861C669.211,294.571,669.385,294.526,669.4,294.642Z" transform="translate(-646.186 -281.842)" fill="#263238"/></g><g transform="translate(0 67.745)"><path d="M640.971,300.512s-9.782-12.294-28.662-7.936c-17.946,4.142-26.228,37.048-8.094,40.985s14.937-26.515,21.545-31.682C630.608,298.088,637.582,298.9,640.971,300.512Z" transform="translate(-594.057 -291.641)" fill="#489ddc"/><path d="M598.055,310.781a36.792,36.792,0,0,1,3.89-2.982,16.978,16.978,0,0,1,4.148-2.07,25.024,25.024,0,0,1,2.461-3.165,24.37,24.37,0,0,1,5.705-4.544c-.187-.011-.374-.031-.562-.038a29.256,29.256,0,0,0-3,.03,16.761,16.761,0,0,0-5.827,1.451c-.105.048-.183-.117-.077-.163a26.627,26.627,0,0,1,5.819-1.753,16.469,16.469,0,0,1,2.948-.253c.529,0,1.06.04,1.587.093.1.009.2.015.3.024a25.332,25.332,0,0,1,5.442-2c-.175-.047-.347-.1-.525-.142a26.213,26.213,0,0,0-2.8-.46,21.942,21.942,0,0,0-5.649.087c-.116.017-.148-.163-.033-.177a35.679,35.679,0,0,1,5.711-.231,24.045,24.045,0,0,1,4.75.615,25.238,25.238,0,0,1,3.442-.393c6.583-.278,13.759,2.183,17.812,7.593,4.067,5.427,4.847,12.642,5.564,19.176a145.651,145.651,0,0,1,.722,27.443c-.043.54-.8.442-.817-.072-.248-7.759-.521-15.52-1.263-23.252-.344-3.58-.725-7.174-1.321-10.723a31.588,31.588,0,0,0-2.6-8.829,16.16,16.16,0,0,0-6.372-6.851,21.519,21.519,0,0,0-9.027-2.776,24.308,24.308,0,0,0-8.471.793,5.572,5.572,0,0,1,.049,1.672,9.416,9.416,0,0,1-.414,2.062,10.756,10.756,0,0,1-.79,1.832c-.349.648-.789,1.226-1.179,1.848-.061.1-.219-.014-.147-.1a8.577,8.577,0,0,0,1.463-3.722,14.751,14.751,0,0,0,.227-1.925c.025-.486-.017-.977,0-1.461a24.963,24.963,0,0,0-8.242,4.352c-.459.368-.9.757-1.335,1.157a9.138,9.138,0,0,1,1.6,1.966,19.331,19.331,0,0,1,1.679,2.99,25.4,25.4,0,0,1,1.747,6.568c.016.115-.162.148-.178.032a19.019,19.019,0,0,0-2.148-6.223,25.142,25.142,0,0,0-1.672-2.765c-.319-.455-.648-.9-.992-1.34-.184-.234-.387-.471-.563-.723a26.04,26.04,0,0,0-5.354,7.541c.011.006.024.006.035.016a12.848,12.848,0,0,1,2.213,3.179,29.683,29.683,0,0,1,1.768,3.779,63.483,63.483,0,0,1,2.253,7.7c.028.112-.155.147-.177.032a32.277,32.277,0,0,0-2.678-7.582q-.845-1.777-1.787-3.5a32.083,32.083,0,0,1-1.773-3.3,24.216,24.216,0,0,0-2.155,8.745c-.005.116-.189.1-.18-.016a30.5,30.5,0,0,1,4.239-13.421c-1.155.492-2.313.966-3.425,1.565a19.224,19.224,0,0,0-3.926,2.758C598.085,311,597.967,310.857,598.055,310.781Z" transform="translate(-594.387 -291.875)" fill="#263238"/><path d="M613.143,313.014c.567,1.864,1.279,3.674,1.79,5.557a21.367,21.367,0,0,1,.834,5.551c0,.05-.082.053-.089,0a54,54,0,0,0-2.7-11.057A.09.09,0,1,1,613.143,313.014Z" transform="translate(-595.628 -293.411)" fill="#263238"/><path d="M600.113,307.722a10.487,10.487,0,0,1,2.5-1.786,18.09,18.09,0,0,1,2.895-1.024c.109-.033.147.152.032.178a11.339,11.339,0,0,0-2.786,1.146,21.022,21.022,0,0,0-2.566,1.576A.059.059,0,0,1,600.113,307.722Z" transform="translate(-594.559 -292.744)" fill="#263238"/></g><g transform="translate(3.216 29.61)"><path d="M631.964,280.637s-1.8-22.086-18.226-29.245c-13.712-5.978-21.561,9.43-11.868,18.861C609.712,277.882,622.287,274.439,631.964,280.637Z" transform="translate(-597.565 -250.051)" fill="#489ddc"/><path d="M605.563,256.025a69.415,69.415,0,0,1,7.3,3.458,54.655,54.655,0,0,1,5.67,3.764c-.273-.558-.51-1.143-.785-1.689-.429-.853-.888-1.688-1.4-2.5a23.407,23.407,0,0,0-3.616-4.578c-.084-.08.05-.207.13-.125a36.036,36.036,0,0,1,3.807,4.432,26.16,26.16,0,0,1,1.561,2.5,9.993,9.993,0,0,1,1.1,2.544c.059.046.122.086.181.132a53.961,53.961,0,0,1,7.843,7.674c-.046-.217-.092-.434-.148-.633q-.461-1.617-.995-3.21a27.364,27.364,0,0,0-2.966-6.441c-.063-.1.1-.187.158-.087a51.5,51.5,0,0,1,3.438,6.282,23.875,23.875,0,0,1,1.134,3.265,13.969,13.969,0,0,1,.534,2.219c.716.9,1.419,1.82,2.082,2.765,7.048,10.034,10.588,22.173,11.436,34.318A105.31,105.31,0,0,1,642.22,321a68.133,68.133,0,0,1-.962,10.92c-.046.228-.4.16-.4-.064.082-3.19.412-6.368.473-9.562s-.05-6.4-.308-9.589a89.239,89.239,0,0,0-3.581-18.794,67.282,67.282,0,0,0-8.35-17.668c-.691-.137-1.377-.325-2.058-.5-.82-.212-1.64-.421-2.456-.649A24.644,24.644,0,0,1,620,273.409c-.1-.052-.006-.213.094-.154a14.774,14.774,0,0,0,4.643,1.6c1.285.256,2.62.424,3.907.719a62.076,62.076,0,0,0-3.818-5.018,28.5,28.5,0,0,1-9.342-.7,37.774,37.774,0,0,1-4.782-1.488c-1.645-.634-3.2-1.448-4.825-2.126-.121-.05-.037-.23.074-.163a27.434,27.434,0,0,0,9.47,3.1,58.657,58.657,0,0,0,8.858.732c-1.167-1.338-2.372-2.643-3.658-3.868-4.313-4.107-9.437-7.882-15.115-9.849C605.4,256.159,605.457,255.98,605.563,256.025Z" transform="translate(-598.22 -250.407)" fill="#263238"/><path d="M620.132,256.249a24.848,24.848,0,0,1,2.013,2.945,16.059,16.059,0,0,1,1.449,3.425.037.037,0,0,1-.067.027c-.547-1.084-1.01-2.208-1.564-3.286A16.4,16.4,0,0,0,620,256.374C619.928,256.284,620.061,256.158,620.132,256.249Z" transform="translate(-599.427 -250.563)" fill="#263238"/><path d="M603.481,264.27a17.01,17.01,0,0,0,3.367,1.406,30.726,30.726,0,0,0,3.428.921c.054.01.04.1-.016.1a16.55,16.55,0,0,1-3.549-.778,29.879,29.879,0,0,1-3.325-1.491C603.284,264.373,603.38,264.211,603.481,264.27Z" transform="translate(-598.045 -251.231)" fill="#263238"/></g><g transform="translate(40.756)"><path d="M648.954,273.979c.1.955,2.484-8.018,16.367-15.985,12.609-7.235,27.658-26.051,15.3-37.938C670.639,210.462,644.349,231.379,648.954,273.979Z" transform="translate(-639.329 -217.758)" fill="#489ddc"/><path d="M638.574,326.089a246.055,246.055,0,0,1,2.2-27.916,125.644,125.644,0,0,1,5.866-24.987c1.033-2.919,2.213-5.792,3.494-8.621a19.9,19.9,0,0,1,.058-3.3c.067-1.413.2-2.824.326-4.233s.273-2.82.441-4.225.466-2.808.524-4.211a.09.09,0,1,1,.176.028,29.781,29.781,0,0,0-.5,4.47q-.16,2.042-.227,4.089c-.041,1.366-.035,2.733-.036,4.1,0,.493.026,1.016.045,1.543,1.306-2.76,2.706-5.475,4.22-8.121-.94-5.756.281-11.773,1.457-17.4.024-.114.2-.061.172.052a48.949,48.949,0,0,0-.915,8.922c-.054,2.364.057,4.728.066,7.091.334-.566.665-1.133,1.008-1.694,1.8-2.941,3.723-5.822,5.767-8.617a13.476,13.476,0,0,1,.134-4.1,31.8,31.8,0,0,1,1.007-4.485c.443-1.472.952-2.914,1.537-4.335.6-1.46,1.4-2.841,1.982-4.306.049-.122.23-.038.163.074a21.071,21.071,0,0,0-1.738,4.355,39.193,39.193,0,0,0-1.136,4.319c-.293,1.462-.534,2.926-.739,4.4-.136.977-.222,1.989-.391,2.976a106.56,106.56,0,0,1,9.721-11.313c.083-.083.2.045.125.13a128.01,128.01,0,0,0-14.116,19.2c-.151.256-.3.516-.446.773.764-.48,1.642-.86,2.362-1.26q2.018-1.121,4.049-2.223,1.971-1.065,3.933-2.152c.673-.374,1.337-.763,2.023-1.113a16.289,16.289,0,0,0,2.353-1.3c.105-.079.218.083.105.145-1.336.734-2.518,1.826-3.808,2.649s-2.616,1.626-3.964,2.378c-2.468,1.377-5.149,2.367-7.578,3.791-1.687,2.95-3.239,5.977-4.673,9.06q2.213-1.419,4.51-2.7c.984-.552,1.97-1.095,2.968-1.619a14.584,14.584,0,0,0,2.8-1.69.091.091,0,0,1,.125.131,26.3,26.3,0,0,1-5.335,3.711c-1.783,1.043-3.586,2.048-5.44,2.958q-2.228,4.878-4.019,9.936c-5.843,16.547-7.991,34.113-9.016,51.559-.306,5.2-.464,10.4-.529,15.609s.21,10.4.2,15.6c0,.154-.254.19-.275.031-.624-4.612-.734-9.3-.935-13.948C638.471,335.567,638.469,330.817,638.574,326.089Z" transform="translate(-638.506 -218.424)" fill="#263238"/><path d="M666.086,252.732a66.84,66.84,0,0,0,7.378-3.816,77.706,77.706,0,0,0,7.005-4.447c.038-.027.083.037.048.065a58.934,58.934,0,0,1-6.727,4.7,67.43,67.43,0,0,1-7.617,3.652C666.066,252.935,665.979,252.775,666.086,252.732Z" transform="translate(-640.793 -219.977)" fill="#263238"/><path d="M661.614,232.7c.206-.808.46-1.6.733-2.388a.071.071,0,0,1-.035-.092c.174-.447.359-.891.542-1.336.022-.061.044-.117.065-.16.034-.084.07-.17.1-.255.011-.027.055-.016.045.014-.05.152-.087.308-.136.461a2.343,2.343,0,0,1-.074.255,65.7,65.7,0,0,0-2.059,9.427c-.015.1-.169.1-.162,0A31.768,31.768,0,0,1,661.614,232.7Z" transform="translate(-640.344 -218.647)" fill="#263238"/></g><g transform="translate(22.966 106.309)"><g transform="translate(3.188 4.712)"><path d="M622.582,338.838l.989,11.743,3.033,35.814h32.487l3.033-35.814.99-11.743Z" transform="translate(-622.582 -338.838)" fill="#455a64"/><path d="M622.582,338.838l.989,11.743h38.553l.99-11.743Z" transform="translate(-622.582 -338.838)" fill="#263238"/></g><rect width="46.908" height="11.266" transform="translate(46.908 11.266) rotate(180)" fill="#455a64"/></g></g><g transform="translate(425.976 205.953)"><g transform="translate(0 55.015)"><rect width="14.79" height="57.702" transform="translate(4.934 17.057)" fill="#489ddc"/><rect width="14.79" height="9.499" transform="translate(4.934 77.61)" fill="#489ddc"/><rect width="14.79" height="5.859" transform="translate(4.934 89.961)" fill="#489ddc"/><rect width="14.79" height="2.907" transform="translate(4.934 98.672)" fill="#489ddc"/><path d="M485.059,298.742H460.409l12.325-17.055Z" transform="translate(-460.409 -281.688)" fill="#489ddc"/></g><g transform="translate(29.439 36.677)"><rect width="14.79" height="76.041" transform="translate(4.928 17.057)" fill="#489ddc"/><rect width="14.79" height="9.499" transform="translate(4.928 95.949)" fill="#489ddc"/><rect width="14.79" height="5.859" transform="translate(4.928 108.3)" fill="#489ddc"/><rect width="14.79" height="2.907" transform="translate(4.928 117.011)" fill="#489ddc"/><path d="M517.164,278.742H492.515l12.325-17.055Z" transform="translate(-492.515 -261.688)" fill="#489ddc"/></g><g transform="translate(58.877 18.338)"><rect width="14.79" height="94.379" transform="translate(4.932 17.057)" fill="#489ddc"/><rect width="14.79" height="9.499" transform="translate(4.932 114.287)" fill="#489ddc"/><rect width="14.79" height="5.859" transform="translate(4.932 126.638)" fill="#489ddc"/><rect width="14.79" height="2.907" transform="translate(4.932 135.349)" fill="#489ddc"/><path d="M549.27,258.742H524.621l12.325-17.054Z" transform="translate(-524.621 -241.688)" fill="#489ddc"/></g><g transform="translate(88.315)"><rect width="14.79" height="112.717" transform="translate(4.927 17.057)" fill="#489ddc"/><rect width="14.79" height="9.499" transform="translate(4.927 132.626)" fill="#489ddc"/><rect width="14.79" height="5.859" transform="translate(4.927 144.977)" fill="#489ddc"/><rect width="14.79" height="2.907" transform="translate(4.927 153.688)" fill="#489ddc"/><path d="M581.376,238.743H556.727l12.325-17.055Z" transform="translate(-556.727 -221.688)" fill="#489ddc"/></g></g><g transform="translate(249.46 32.285)"><g transform="translate(0 180.192)"><path d="M307.676,349.522a6.505,6.505,0,1,1-6.5-6.5A6.5,6.5,0,0,1,307.676,349.522Z" transform="translate(-270.124 -238.291)" fill="#489ddc" opacity="0.6"/><path d="M316.909,336.277a3.17,3.17,0,1,1-3.17-3.17A3.17,3.17,0,0,1,316.909,336.277Z" transform="translate(-271.446 -237.468)" fill="#489ddc" opacity="0.6"/><path d="M468.674,346.395a3.17,3.17,0,1,1-3.17-3.17A3.17,3.17,0,0,1,468.674,346.395Z" transform="translate(-284.054 -238.309)" fill="#489ddc" opacity="0.6"/><path d="M537.9,377.955a3.17,3.17,0,1,1-3.17-3.17A3.17,3.17,0,0,1,537.9,377.955Z" transform="translate(-289.805 -240.931)" fill="#ffc727" opacity="0.6"/><path d="M511.14,375.095a3.781,3.781,0,0,1-3.78,3.779H271.681a3.779,3.779,0,1,1,0-7.558,3.918,3.918,0,0,1,.9.106,7.45,7.45,0,0,1,12.78-5.207l.068-.03c-.045-.461-.068-.922-.068-1.391a14.071,14.071,0,0,1,14.073-14.073,13.929,13.929,0,0,1,6.19,1.436A10.044,10.044,0,0,1,325.01,349.1a14.047,14.047,0,0,1,11.911-6.575,14.339,14.339,0,0,1,2.691.257,18.777,18.777,0,0,1-.288-3.28A19.041,19.041,0,0,1,370.8,325.075a3.776,3.776,0,0,1,3.356-2.048,3.854,3.854,0,0,1,1.451.288l3.537-94.512H399.9l3.538,94.512a3.846,3.846,0,0,1,1.451-.288,3.776,3.776,0,0,1,3.356,2.048,19.037,19.037,0,0,1,31.185,17.709,14.321,14.321,0,0,1,2.69-.257,14.046,14.046,0,0,1,11.911,6.575,10.044,10.044,0,0,1,19.387,3.053,14.071,14.071,0,0,1,20.263,12.637c0,.469-.023.93-.068,1.391l.068.03a7.45,7.45,0,0,1,12.78,5.207,3.923,3.923,0,0,1,.9-.106A3.781,3.781,0,0,1,511.14,375.095Z" transform="translate(-267.901 -228.803)" fill="#489ddc" opacity="0.6"/></g><g transform="translate(20.182 236.065)"><path d="M466.923,353.865l-4.9.906-1.1,5.166-1.1-5.166-4.9-.909,4.88-1.192,1.116-4.88,1.116,4.88Z" transform="translate(-303.621 -294.561)" fill="#fcfcfc"/><path d="M414.932,308.678l-4.9.906-1.1,5.166-1.1-5.166-4.9-.909,4.88-1.193,1.116-4.88,1.116,4.88Z" transform="translate(-299.302 -290.807)" fill="#fcfcfc"/><path d="M337.731,364.838l-2.739.507-.612,2.888-.612-2.888-2.739-.508,2.728-.667.624-2.728L335,364.17Z" transform="translate(-293.328 -295.695)" fill="#fcfcfc"/><path d="M498.483,374.233l-2.739.507-.612,2.888-.612-2.888-2.739-.508,2.728-.666.624-2.728.624,2.728Z" transform="translate(-306.682 -296.475)" fill="#fcfcfc"/><path d="M296.615,385.27l-2.739.506-.612,2.888-.612-2.888-2.739-.508,2.728-.666.624-2.728.624,2.728Z" transform="translate(-289.912 -297.392)" fill="#fcfcfc"/><path d="M426.573,382.65l-2.739.506-.612,2.888-.612-2.888-2.739-.508,2.728-.666.624-2.728.624,2.728Z" transform="translate(-300.708 -297.175)" fill="#fcfcfc"/><path d="M404.7,300.355l-2.739.507-.612,2.888-.612-2.888L398,300.353l2.728-.666.624-2.728.624,2.728Z" transform="translate(-298.891 -290.338)" fill="#fcfcfc"/><path d="M506.088,381.352a.794.794,0,0,0,0,1.587A.794.794,0,0,0,506.088,381.352Z" transform="translate(-307.807 -297.349)" fill="#fcfcfc"/><path d="M393.675,289.738a.8.8,0,0,0,0,1.588A.795.795,0,0,0,393.675,289.738Z" transform="translate(-298.468 -289.738)" fill="#fcfcfc"/><path d="M319.788,385.577a.794.794,0,0,0,0,1.587A.794.794,0,0,0,319.788,385.577Z" transform="translate(-292.33 -297.7)" fill="#fcfcfc"/><path d="M374.676,373.674a.8.8,0,0,0,0,1.588A.795.795,0,0,0,374.676,373.674Z" transform="translate(-296.89 -296.711)" fill="#fcfcfc"/><path d="M484.415,365.776a.562.562,0,0,0,0,1.124A.562.562,0,0,0,484.415,365.776Z" transform="translate(-306.025 -296.055)" fill="#fcfcfc"/><path d="M408.712,356.593a.562.562,0,0,0,0,1.123A.562.562,0,0,0,408.712,356.593Z" transform="translate(-299.736 -295.292)" fill="#fcfcfc"/><path d="M353.294,344.619a.562.562,0,0,0,0,1.124A.562.562,0,0,0,353.294,344.619Z" transform="translate(-295.132 -294.297)" fill="#fcfcfc"/><path d="M448.02,347.12a1.523,1.523,0,0,0,0,3.045A1.523,1.523,0,0,0,448.02,347.12Z" transform="translate(-302.925 -294.505)" fill="#fcfcfc"/><path d="M361.056,338.986a1.523,1.523,0,0,0,0,3.045A1.523,1.523,0,0,0,361.056,338.986Z" transform="translate(-295.7 -293.829)" fill="#fcfcfc"/></g><g transform="translate(56.127)"><g transform="translate(0 105.478)"><path d="M359.274,147.321c-.743,0-28.44,12.784-30.08,44.264-1.507,28.945,18.5,56.43,21.087,54.61,3.162-2.228-2.216-20.261,3.933-40.887,2.18-7.314,11.719-13.806,11.719-13.806Z" transform="translate(-329.114 -147.32)" fill="#489ddc"/><path d="M367.066,191.5a43.682,43.682,0,0,0-7.582,6.829c-4.122-9.2-11.8-26.364-16.771-37.488,8.112-9.379,17.267-13.518,17.689-13.518Z" transform="translate(-330.243 -147.32)" opacity="0.1"/></g><g transform="translate(93.926 105.529)"><path d="M438.273,147.376c.744,0,28.422,12.825,30.016,44.308,1.466,28.946-18.586,56.4-21.166,54.579-3.158-2.233,2.245-20.258-3.874-40.893-2.169-7.317-11.7-13.823-11.7-13.823Z" transform="translate(-431.55 -147.375)" fill="#489ddc"/><path d="M456.045,161.033c-5.016,11.216-12.714,28.416-16.786,37.5a44.008,44.008,0,0,0-7.707-6.994l6.721-44.168C438.7,147.375,447.926,151.563,456.045,161.033Z" transform="translate(-431.55 -147.375)" opacity="0.1"/></g><path d="M417.908,210.188l-41.791-.03s-19.688-35.205-17.357-77.176c1.176-20.948,6.651-42.044,13.242-59.5,9.067-24.108,20.281-41.2,25.138-41.2,4.88,0,16.046,17.117,25.1,41.238,6.544,17.462,11.99,38.565,13.135,59.515C437.646,175.012,417.908,210.188,417.908,210.188Z" transform="translate(-331.561 -32.285)" fill="#ebebeb"/><g transform="translate(41.468 68.749)"><path d="M423.471,134.057a24.1,24.1,0,1,1-24.082-24.117A24.1,24.1,0,0,1,423.471,134.057Z" transform="translate(-374.416 -107.485)" fill="#c7c7c7"/><path d="M422.539,131.38a24.1,24.1,0,1,1-24.083-24.117A24.1,24.1,0,0,1,422.539,131.38Z" transform="translate(-374.339 -107.263)" fill="#489ddc"/><path d="M415.823,132.032a16.715,16.715,0,1,1-16.715-16.715A16.714,16.714,0,0,1,415.823,132.032Z" transform="translate(-375.008 -107.932)" fill="#fff"/><g transform="translate(7.385 7.384)"><path d="M416.936,133.139a16.618,16.618,0,0,1-1.132,6.055l-9.525,9.526a16.7,16.7,0,0,1-10.527.516l20.569-20.569A16.524,16.524,0,0,1,416.936,133.139Z" transform="translate(-383.503 -116.425)" fill="#ebebeb"/><path d="M401.563,115.5l-18.986,18.986a16.516,16.516,0,0,1-.184-2.451,16.714,16.714,0,0,1,16.719-16.719A16.513,16.513,0,0,1,401.563,115.5Z" transform="translate(-382.393 -115.316)" fill="#ebebeb"/><path d="M414.4,124.6l-22.714,22.714a13.218,13.218,0,0,1-1.283-.786l23.21-23.21C413.895,123.729,414.153,124.16,414.4,124.6Z" transform="translate(-383.059 -115.981)" fill="#ebebeb"/></g></g><path d="M423.458,73.523l-50.239-.036c9.067-24.108,20.281-41.2,25.138-41.2C403.237,32.289,414.4,49.4,423.458,73.523Z" transform="translate(-332.778 -32.285)" fill="#489ddc"/><g transform="translate(46.279 34.61)"><path d="M382.4,71.438a1.407,1.407,0,1,1-1.406-1.407A1.408,1.408,0,0,1,382.4,71.438Z" transform="translate(-379.586 -70.031)" fill="#fff"/><path d="M392.147,71.446a1.407,1.407,0,1,1-1.406-1.408A1.408,1.408,0,0,1,392.147,71.446Z" transform="translate(-380.396 -70.032)" fill="#fff"/><path d="M401.894,71.453a1.407,1.407,0,1,1-1.406-1.408A1.408,1.408,0,0,1,401.894,71.453Z" transform="translate(-381.205 -70.032)" fill="#fff"/><path d="M411.641,71.46a1.407,1.407,0,1,1-1.406-1.408A1.408,1.408,0,0,1,411.641,71.46Z" transform="translate(-382.015 -70.033)" fill="#fff"/><path d="M421.388,71.467a1.407,1.407,0,1,1-1.406-1.408A1.408,1.408,0,0,1,421.388,71.467Z" transform="translate(-382.825 -70.033)" fill="#fff"/></g><g transform="translate(46.222 170.039)"><path d="M382.336,219.137a1.407,1.407,0,1,1-1.406-1.408A1.406,1.406,0,0,1,382.336,219.137Z" transform="translate(-379.523 -217.73)" fill="#c7c7c7"/><path d="M392.083,219.144a1.407,1.407,0,1,1-1.406-1.407A1.406,1.406,0,0,1,392.083,219.144Z" transform="translate(-380.333 -217.731)" fill="#c7c7c7"/><path d="M401.83,219.151a1.407,1.407,0,1,1-1.406-1.407A1.408,1.408,0,0,1,401.83,219.151Z" transform="translate(-381.142 -217.731)" fill="#c7c7c7"/><path d="M411.577,219.158a1.407,1.407,0,1,1-1.406-1.407A1.406,1.406,0,0,1,411.577,219.158Z" transform="translate(-381.952 -217.732)" fill="#c7c7c7"/><path d="M421.324,219.165a1.407,1.407,0,1,1-1.406-1.407A1.407,1.407,0,0,1,421.324,219.165Z" transform="translate(-382.762 -217.732)" fill="#c7c7c7"/></g><g transform="translate(46.917 177.878)"><path d="M415.855,238.867l-33.986-.027-1.588-12.561,37.179.027Z" transform="translate(-380.282 -226.279)" fill="#489ddc"/><path d="M417.459,226.308l-.786,6.117-35.784-1.341-.6-4.8Z" transform="translate(-380.282 -226.28)" opacity="0.1"/></g></g></g><g transform="translate(61.73 123.468)"><g transform="translate(0 0)"><g transform="translate(0 87.587)"><g transform="translate(21.171 10.316)"><g transform="translate(59.47 132.179)"><path d="M217.889,438.611c-1.963.665-58.228.862-60.379-.486-.818-.507-1.325-8.7-1.656-18.617-.072-2.141-.132-4.353-.182-6.6l-4.563-30.01,37.613-.241,3.55,30.016-.144,6.6s21.576,9.56,23.776,11.292S219.852,437.948,217.889,438.611Z" transform="translate(-151.109 -382.658)" fill="#d3766a"/><path d="M218.3,441.331c-1.963.665-58.228.862-60.379-.486-.993-.623-1.536-12.587-1.838-25.216l36.6-.235-.144,6.6s21.576,9.56,23.776,11.292S220.265,440.667,218.3,441.331Z" transform="translate(-151.522 -385.378)" fill="#fff"/><g transform="translate(4.744 36.618)"><path d="M218.318,441.929c-1.963.665-58.228.862-60.379-.486-.818-.507-1.325-8.7-1.656-18.617l36.275-.232s21.576,9.56,23.776,11.292S220.282,441.265,218.318,441.929Z" transform="translate(-156.283 -422.594)" fill="#489ddc"/><g transform="translate(4.329 0.924)"><path d="M217.9,441.221c-9.432-.2-47.5-.109-56.835.412-.076,0-.076.056,0,.06,9.345.4,47.406,0,56.836-.317C218.1,441.369,218.094,441.225,217.9,441.221Z" transform="translate(-161.004 -425.058)" fill="#263238"/><path d="M198.886,423.6c-3.775-.039-8.147,1.308-10.482,4.4-.09.12.082.248.193.189a52.173,52.173,0,0,1,10.356-4.128A.238.238,0,0,0,198.886,423.6Z" transform="translate(-163.278 -423.602)" fill="#263238"/><path d="M202.069,424.831c-3.775-.039-8.147,1.308-10.482,4.4-.091.12.082.248.193.189a52.176,52.176,0,0,1,10.356-4.129A.237.237,0,0,0,202.069,424.831Z" transform="translate(-163.542 -423.704)" fill="#263238"/><path d="M205.252,426.059c-3.776-.039-8.148,1.308-10.482,4.4-.091.12.081.247.193.189a52.162,52.162,0,0,1,10.357-4.129A.237.237,0,0,0,205.252,426.059Z" transform="translate(-163.807 -423.806)" fill="#263238"/></g></g></g><path d="M86.251,238.5s49.363,74.308,50.533,79.525c1.8,8.017,11.382,88.419,11.382,88.419l41.183-.819s-9.307-71.034-16.727-94.031c-5.344-16.564-43.892-71.5-43.892-71.5Z" transform="translate(-86.251 -238.503)" fill="#37474f"/><g transform="translate(63.476 159.991)"><path d="M193.871,413.067c-6.528-.048-29.657-.308-38.345.5-.066.006-.064.115,0,.126,2.99.429,31.821-.239,38.345-.448A.09.09,0,1,0,193.871,413.067Z" transform="translate(-155.478 -412.989)" fill="#263238"/></g></g><g transform="translate(0 143.06)"><path d="M122.95,451.21c-2.071.137-57.892-14.582-59.632-16.431a.743.743,0,0,1-.131-.381c-.224-1.827,2.634-8.684,4.635-17.458.124-.561,1.175-3.223,2.648-6.82,4.048-9.881,11.278-26.845,11.278-26.845l36.451,9.348L104.773,419.6l-1.816,6.346s18.432,14.743,20.115,16.976S125.014,451.064,122.95,451.21Z" transform="translate(-63.163 -383.274)" fill="#d3766a"/><path d="M122.95,453.642c-2.071.137-57.892-14.582-59.632-16.431a.743.743,0,0,1-.131-.381c-.224-1.827,2.634-8.684,4.635-17.458.124-.561,1.175-3.223,2.648-6.82l34.3,9.482-1.816,6.346s18.432,14.743,20.115,16.976S125.014,453.5,122.95,453.642Z" transform="translate(-63.163 -385.706)" fill="#fff"/><g transform="translate(0 33.667)"><path d="M122.945,454.256c-2.068.143-57.891-14.578-59.628-16.429-.663-.7.784-8.25,4.5-17.836L102.957,429s18.431,14.737,20.117,16.971S125.013,454.113,122.945,454.256Z" transform="translate(-63.162 -419.991)" fill="#489ddc"/><g transform="translate(4.437 10.267)"><path d="M123.131,453.489c-9.071-2.593-45.9-12.2-55.067-14.069-.074-.016-.087.034-.015.057,8.935,2.766,45.843,12.07,55.044,14.162C123.287,453.682,123.323,453.544,123.131,453.489Z" transform="translate(-68.001 -431.872)" fill="#263238"/><path d="M109.143,431.757c-3.641-1-8.212-.809-11.258,1.591-.118.093.016.259.138.232a52.16,52.16,0,0,1,11.065-1.357A.237.237,0,0,0,109.143,431.757Z" transform="translate(-70.48 -431.189)" fill="#263238"/><path d="M111.908,433.755c-3.641-1-8.212-.809-11.258,1.591-.118.093.016.259.138.231a52.218,52.218,0,0,1,11.065-1.356A.237.237,0,0,0,111.908,433.755Z" transform="translate(-70.71 -431.355)" fill="#263238"/><path d="M114.673,435.752c-3.641-1-8.212-.808-11.258,1.591-.118.094.016.259.138.232a52.168,52.168,0,0,1,11.066-1.356A.238.238,0,0,0,114.673,435.752Z" transform="translate(-70.94 -431.521)" fill="#263238"/></g></g></g><g transform="translate(1.473)"><path d="M105.6,413.069,64.769,402.354s40.9-85.108,40.578-90.422c-.281-4.707-28.64-46-30.208-53.726-2.568-12.652,3.6-23.954,9.571-30.954l42.234,11.907a35.177,35.177,0,0,1-9.542,11.92s26.544,44.32,27.223,58.9C145.311,324.645,105.6,413.069,105.6,413.069Z" transform="translate(-64.769 -227.252)" fill="#37474f"/><g transform="translate(6.424 3.239)"><path d="M106.847,421.057c-5.924-1.7-4.2-1.294-10.143-2.924-2.908-.8-22.023-6.022-24.865-6.29a.065.065,0,0,0-.032.121c2.6,1.171,21.807,6.062,24.73,6.8,5.973,1.516,4.275,1.016,10.264,2.464A.09.09,0,0,0,106.847,421.057Z" transform="translate(-71.775 -245.826)" fill="#263238"/><g transform="translate(40.93 10.01)"><path d="M128.178,251.38a76.032,76.032,0,0,0-11.694,5.515.129.129,0,0,0,.115.232c3.942-1.718,7.963-3.368,11.8-5.293A.253.253,0,0,0,128.178,251.38Z" transform="translate(-116.413 -242.504)" fill="#263238"/><path d="M123.735,250.225a17.8,17.8,0,0,0-.755,2.277,4.99,4.99,0,0,0-.3,1.866c.017.121.182.129.248.047a6.439,6.439,0,0,0,.789-1.826c.256-.7.528-1.4.764-2.116C124.641,250,123.924,249.768,123.735,250.225Z" transform="translate(-116.933 -242.389)" fill="#263238"/><path d="M123.767,245.709c.167-.648.335-1.3.516-1.939.187-.667.419-1.33.555-2.009.021-.106.192-.059.164.05-.165.648-.241,1.328-.357,1.987s-.242,1.323-.372,1.983c-.241,1.229-.572,2.46-.933,3.662a4.423,4.423,0,0,0,1.882-.58,3.49,3.49,0,0,0,1.148-1.8c.266-.734.5-1.481.777-2.212a14.848,14.848,0,0,0,.814-2.466c.02-.108.188-.06.164.05a27.022,27.022,0,0,1-1.5,5.212c-.29.659-.507,1.334-1.156,1.661a5.689,5.689,0,0,1-2.267.445c-.09.038-.219-.006-.2-.125A39.447,39.447,0,0,1,123.767,245.709Z" transform="translate(-116.96 -241.701)" fill="#263238"/></g><path d="M123.053,254.814c1.607,2.9,3.445,5.683,5.16,8.52,1.676,2.772,3.274,5.589,4.839,8.426q4.74,8.6,8.758,17.579,1.983,4.436,3.745,8.965a68.093,68.093,0,0,1,3.068,9.258,25.273,25.273,0,0,1,.413,9.624,65.5,65.5,0,0,1-2.489,9.613,172.605,172.605,0,0,1-7.974,21.185c-.106.227-.485.054-.4-.182,2.228-6.294,4.542-12.566,6.546-18.937,1.944-6.181,4.246-12.587,3.176-19.151a49.609,49.609,0,0,0-2.683-9.214q-1.705-4.592-3.666-9.084c-2.563-5.9-5.445-11.639-8.385-17.358-1.648-3.2-3.381-6.363-5.045-9.559-1.678-3.219-3.317-6.5-5.2-9.607C122.857,254.8,123,254.724,123.053,254.814Z" transform="translate(-76.022 -232.777)" fill="#263238"/><path d="M89.512,247.108c.765-.129,1.882.138,5.193-.09a17.844,17.844,0,0,0,2.718-.443,5.93,5.93,0,0,0,2.525-1.025,13.243,13.243,0,0,0,2.88-3.964,20.468,20.468,0,0,0,2.014-4.895c.024-.1.173-.053.155.047-.173.969-.271,1.936-.526,2.893a17.763,17.763,0,0,1-.966,2.628,10.662,10.662,0,0,1-2.957,4.365c-1.494,1.125-3.577,1.335-5.386,1.462-1.047.073-5.153-.038-5.7-.624C89.36,247.358,89.367,247.132,89.512,247.108Z" transform="translate(-73.239 -231.27)" fill="#263238"/><path d="M73.813,395.671c4.43-11.59,28.407-62.916,33.1-73.635a41.94,41.94,0,0,0,3.051-7.908c.633-2.995-.29-5.7-1.553-8.389a144.016,144.016,0,0,0-7.888-14.31c-2.871-4.649-5.9-9.194-8.9-13.763a142.475,142.475,0,0,1-8.527-13.91,25.465,25.465,0,0,1-2.951-14.779c.659-5.158,2.894-10,5.292-14.556.632-1.2,1.28-2.4,1.915-3.6.049-.092.189-.006.138.085-2.674,4.774-5.234,9.793-6.473,15.155a24.57,24.57,0,0,0-.593,8.1,25.73,25.73,0,0,0,2.294,7.914c2.221,4.878,5.315,9.37,8.236,13.846,2.986,4.575,6.032,9.113,8.938,13.74a157.215,157.215,0,0,1,8.133,14.343,21.422,21.422,0,0,1,2.522,6.962c.289,2.706-.689,5.3-1.732,7.744-4.542,10.645-34.119,75.79-34.767,77.1C73.972,395.983,73.748,395.84,73.813,395.671Z" transform="translate(-71.943 -230.784)" fill="#263238"/></g></g></g><g transform="translate(10.748)"><g transform="translate(46.927 0.827)"><g transform="translate(0.189)"><g transform="translate(0 18.771)"><path d="M134.712,185.321c6.492,3.668,30.336,16.872,39.22,15.653,14.14-1.94,34.944-22.94,40.085-28.232,2.241-2.306-15.546-21.74-18.11-19.451-1.73,1.544-21.705,23.812-24.1,24.756s-22.514-1.754-34.635-4.156C125.631,171.6,120.952,177.547,134.712,185.321Z" transform="translate(-126.269 -153.104)" fill="#d3766a"/></g><g transform="translate(63.629)"><path d="M226.545,163.516c-2.522,4.86-11.564,12.781-14.48,13.853s-16.9-13.854-16.388-17,10.262-18.852,15.37-21.114S229.156,158.482,226.545,163.516Z" transform="translate(-195.663 -133.168)" fill="#d3766a"/><g transform="translate(8.218)"><path d="M204.634,143.774c.189,2.894,3.492,1.014,3.492,1.014s-4.1,3.852-2.753,6.76c1.308,2.8,5.217.388,5.5.219-.215.205-3.891,3.843-2.235,6.627,1.724,2.891,5.233-.2,5.458-.405-.142.259-1.965,3.7-.226,5.529,2.99,3.14,7.895-5.535,11.314-6.331,0,0,2.012,5.641,2.1,5.792,0,0,4.835-8.157,3.5-12.709a3.029,3.029,0,0,0-3.077-2.219s1.849-2.458.614-4.69c-.637-1.144-3.034-1.143-3.034-1.143a3.794,3.794,0,0,0,.176-3.946c-.971-1.533-3.225-1.294-3.225-1.294s.439-2.572-1.062-3.816C218.164,130.646,204.234,137.577,204.634,143.774Z" transform="translate(-204.626 -132.632)" fill="#d3766a"/><g transform="translate(3.272 4.249)"><path d="M222.181,137.346a.041.041,0,0,0-.021-.079,26.982,26.982,0,0,0-13.926,7.989c-.116.131.047.374.2.254A55.273,55.273,0,0,1,222.181,137.346Z" transform="translate(-208.194 -137.266)" fill="#263238"/><path d="M225.891,143.009c.057-.022.02-.116-.043-.1a25.278,25.278,0,0,0-14.651,9.66c-.119.173-.053.449.1.259C213.876,149.639,221.214,144.856,225.891,143.009Z" transform="translate(-208.439 -137.734)" fill="#263238"/><path d="M214.806,159.817c3.538-4.722,8.235-7.835,13.518-10.339.069-.033.016-.127-.05-.115-2.918.52-6.12,2.467-8.482,4.193a15.558,15.558,0,0,0-5.151,6.137C214.6,159.791,214.731,159.918,214.806,159.817Z" transform="translate(-208.729 -138.27)" fill="#263238"/></g><path d="M208.134,145.89a17.723,17.723,0,0,0-1.919,2.614,5.94,5.94,0,0,0-.969,2.945,1.957,1.957,0,0,0,.5,1.308,2.846,2.846,0,0,0,1.214.774,3.467,3.467,0,0,0,2.774-.53l2.007-1.275-1.441,1.9a9.728,9.728,0,0,0-1.5,2.771,3.479,3.479,0,0,0,.09,2.844,1.988,1.988,0,0,0,2.277,1.037,6,6,0,0,0,2.6-1.516l2.07-1.913-1.324,2.473a9.156,9.156,0,0,0-.833,2.18,3.77,3.77,0,0,0,.036,2.173,1.792,1.792,0,0,0,1.488,1.162,3.96,3.96,0,0,0,2.1-.7,31.149,31.149,0,0,0,3.827-3.035c.624-.539,1.25-1.083,1.9-1.6a5.893,5.893,0,0,1,2.156-1.211,6.335,6.335,0,0,0-2.008,1.386c-.605.555-1.183,1.14-1.764,1.725a26.452,26.452,0,0,1-3.748,3.3,4.628,4.628,0,0,1-2.492.925A2.541,2.541,0,0,1,212.919,164a4.6,4.6,0,0,1-.117-2.7,10.07,10.07,0,0,1,.891-2.442l.745.561a6.908,6.908,0,0,1-3.06,1.82,2.881,2.881,0,0,1-1.941-.189,3.261,3.261,0,0,1-1.378-1.346,4.4,4.4,0,0,1-.115-3.6,10.568,10.568,0,0,1,1.7-3.022l.565.621a4.144,4.144,0,0,1-3.464.473,3.5,3.5,0,0,1-1.451-1.035,2.519,2.519,0,0,1-.569-1.694,6.1,6.1,0,0,1,1.248-3.1A14.564,14.564,0,0,1,208.134,145.89Z" transform="translate(-204.634 -133.733)" fill="#263238"/></g><g transform="translate(1.205 5.441)"><path d="M196.977,157.357s1.717-23.162,10.441-18.055c2.593,1.518,11.428,10.844,9.589,12.654-2.375,2.338-6.789-.867-9.241-3.318,0,0,.524,7.961-4.909,9.979A5.757,5.757,0,0,1,196.977,157.357Z" transform="translate(-196.977 -138.566)" fill="#d3766a"/><path d="M207.3,138.955a12.125,12.125,0,0,1,3,1.874,26.2,26.2,0,0,1,2.613,2.409,40.8,40.8,0,0,1,4.517,5.508,6.67,6.67,0,0,1,.831,1.7,2.489,2.489,0,0,1,.1,1.075,1.772,1.772,0,0,1-.172.57,1.878,1.878,0,0,1-.352.472,2.985,2.985,0,0,1-1.9.818,5.574,5.574,0,0,1-1.92-.268,10.735,10.735,0,0,1-3.217-1.762,24.285,24.285,0,0,1-2.682-2.385l.7-.327a14.374,14.374,0,0,1-.177,2.72,13.3,13.3,0,0,1-.679,2.617,9.17,9.17,0,0,1-1.32,2.352,6.981,6.981,0,0,1-2,1.761,7.883,7.883,0,0,0,1.761-1.927,9.509,9.509,0,0,0,1.063-2.357,12.6,12.6,0,0,0,.505-2.533,13.7,13.7,0,0,0,.024-2.563l-.1-1.052.8.724a25.927,25.927,0,0,0,2.655,2.215,10.45,10.45,0,0,0,2.957,1.578,2.914,2.914,0,0,0,2.836-.3c.611-.517.076-1.693-.5-2.632a33.818,33.818,0,0,0-1.992-2.843c-.706-.933-1.424-1.855-2.187-2.738A22.484,22.484,0,0,0,207.3,138.955Z" transform="translate(-197.614 -138.598)" fill="#263238"/></g></g></g><g transform="translate(0 24.928)"><path d="M189.766,159.818l17.029,24.667s-18.28,14.8-32.93,18.3c-6.043,1.44-29.295-9.409-39.462-15.767s-13.531-15.265,4.418-12.99,31.175,4.671,32.35,4.313S189.766,159.818,189.766,159.818Z" transform="translate(-126.063 -159.818)" fill="#489ddc"/><path d="M128.2,176.492c-.183.055-.367.073-.55.11a1.022,1.022,0,0,1-.614-.055.929.929,0,0,1-.394-.284,2.3,2.3,0,0,1,.284-.321.874.874,0,0,0,.266.284.943.943,0,0,0,.458.156C127.832,176.419,128.015,176.446,128.2,176.492Zm24.036,14.814a1.064,1.064,0,0,1,.464.14.849.849,0,0,1,.418.717,1.135,1.135,0,0,0,.689,1.049,1.081,1.081,0,0,0,.614.059c.183-.038.367-.06.551-.112-.184-.051-.368-.073-.551-.111a1,1,0,0,1-.454-.153.863.863,0,0,1-.394-.74,1.1,1.1,0,0,0-1.337-1.071c-.183.038-.367.06-.55.111C151.868,191.246,152.052,191.268,152.235,191.306Zm20.178,0a1.068,1.068,0,0,1,.464.14.849.849,0,0,1,.418.717,1.135,1.135,0,0,0,.689,1.049,1.08,1.08,0,0,0,.614.059c.183-.038.367-.06.55-.112-.183-.051-.367-.073-.55-.111a1,1,0,0,1-.455-.153.86.86,0,0,1-.393-.74,1.1,1.1,0,0,0-1.337-1.071c-.183.038-.367.06-.551.111C172.046,191.246,172.229,191.268,172.413,191.306Zm-31.251-15.551a1.08,1.08,0,0,1,.464.14.85.85,0,0,1,.418.718,1.134,1.134,0,0,0,.689,1.048,1.081,1.081,0,0,0,.614.06c.183-.039.367-.061.55-.112-.183-.051-.367-.074-.55-.112a1,1,0,0,1-.455-.152.861.861,0,0,1-.393-.74,1.1,1.1,0,0,0-1.337-1.072c-.183.038-.367.06-.551.111C140.8,175.7,140.979,175.717,141.162,175.755Zm5.889,9.571a1.076,1.076,0,0,1-.427.229.852.852,0,0,1-.8-.212,1.134,1.134,0,0,0-1.228-.255,1.071,1.071,0,0,0-.476.393c-.1.156-.217.3-.311.468.166-.094.312-.207.469-.311a1,1,0,0,1,.429-.213.862.862,0,0,1,.8.245,1.1,1.1,0,0,0,1.7-.188c.1-.156.217-.3.311-.468C147.353,185.108,147.208,185.223,147.052,185.326Zm55.756.491a1.076,1.076,0,0,1-.427.229.852.852,0,0,1-.8-.212,1.134,1.134,0,0,0-1.228-.255,1.07,1.07,0,0,0-.476.392c-.1.157-.217.3-.311.469.166-.094.312-.207.469-.311a1,1,0,0,1,.429-.213.859.859,0,0,1,.8.245,1.1,1.1,0,0,0,1.7-.188c.1-.156.217-.3.311-.468C203.11,185.6,202.964,185.713,202.808,185.817Zm-67.37-2.4a1.08,1.08,0,0,1-.14.464.849.849,0,0,1-.717.418,1.134,1.134,0,0,0-1.049.689,1.08,1.08,0,0,0-.059.614c.038.183.06.367.111.55.052-.183.074-.367.112-.55a1,1,0,0,1,.153-.454.859.859,0,0,1,.739-.394,1.1,1.1,0,0,0,1.072-1.337c-.038-.183-.06-.367-.111-.55C135.5,183.053,135.475,183.237,135.438,183.42Zm20.776-4.869a1.08,1.08,0,0,1-.14.464.849.849,0,0,1-.717.418,1.134,1.134,0,0,0-1.049.689,1.077,1.077,0,0,0-.059.613c.038.184.06.368.111.551.052-.183.074-.367.112-.551a1,1,0,0,1,.153-.454.862.862,0,0,1,.74-.394,1.1,1.1,0,0,0,1.071-1.336c-.038-.183-.06-.368-.111-.551C156.273,178.184,156.251,178.368,156.214,178.551Zm7.967,19.075a1.068,1.068,0,0,1-.14.464.848.848,0,0,1-.717.418,1.135,1.135,0,0,0-1.049.689,1.08,1.08,0,0,0-.059.614c.038.183.06.367.112.551.051-.184.073-.368.111-.551a1.013,1.013,0,0,1,.153-.455.86.86,0,0,1,.74-.393,1.1,1.1,0,0,0,1.071-1.337c-.038-.183-.06-.367-.111-.551C164.24,197.259,164.218,197.443,164.181,197.626Zm9.579,3.826a1.087,1.087,0,0,1,.427-.229.852.852,0,0,1,.8.212,1.134,1.134,0,0,0,1.228.255,1.07,1.07,0,0,0,.476-.392c.1-.157.217-.3.311-.469-.166.094-.312.207-.469.311a1,1,0,0,1-.429.213.86.86,0,0,1-.8-.245,1.1,1.1,0,0,0-1.7.188c-.1.156-.217.3-.311.468C173.458,201.67,173.6,201.556,173.76,201.452Zm-12.578-13.444a1.076,1.076,0,0,1,.427-.229.852.852,0,0,1,.8.212,1.134,1.134,0,0,0,1.228.255,1.075,1.075,0,0,0,.476-.392c.1-.157.217-.3.311-.469-.166.094-.312.207-.469.311a1,1,0,0,1-.429.213.862.862,0,0,1-.8-.245,1.1,1.1,0,0,0-1.7.188c-.1.156-.217.3-.311.468C160.88,188.226,161.026,188.111,161.181,188.009ZM178.9,172.275a1.072,1.072,0,0,1,.463.14.85.85,0,0,1,.419.718,1.133,1.133,0,0,0,.688,1.048,1.074,1.074,0,0,0,.614.06c.183-.038.368-.061.551-.112-.183-.051-.368-.073-.551-.111a1.01,1.01,0,0,1-.454-.153.863.863,0,0,1-.394-.74,1.1,1.1,0,0,0-1.336-1.071c-.184.037-.368.06-.551.111C178.532,172.215,178.716,172.237,178.9,172.275Zm11.02,15.412a1.08,1.08,0,0,1,.464.14.851.851,0,0,1,.418.718,1.134,1.134,0,0,0,.689,1.048,1.073,1.073,0,0,0,.614.06c.183-.039.367-.061.551-.112-.184-.051-.368-.073-.551-.112a1,1,0,0,1-.454-.152.861.861,0,0,1-.394-.74,1.1,1.1,0,0,0-1.337-1.072c-.183.038-.367.061-.55.111C189.553,187.627,189.736,187.649,189.92,187.687ZM198.7,176.83a1.068,1.068,0,0,1,.464.14.849.849,0,0,1,.418.717,1.134,1.134,0,0,0,.689,1.049,1.08,1.08,0,0,0,.614.059c.183-.038.367-.06.551-.111-.184-.052-.368-.074-.551-.112a1,1,0,0,1-.454-.153.86.86,0,0,1-.394-.74,1.1,1.1,0,0,0-1.337-1.071c-.183.038-.367.06-.55.111C198.331,176.771,198.514,176.793,198.7,176.83Zm-7.8-.094a1.08,1.08,0,0,1-.14.464.851.851,0,0,1-.718.418,1.134,1.134,0,0,0-1.048.689,1.073,1.073,0,0,0-.06.614c.039.183.061.367.112.55.051-.183.073-.367.111-.55a1.013,1.013,0,0,1,.153-.455.86.86,0,0,1,.74-.393,1.125,1.125,0,0,0,1.031-.725,1.114,1.114,0,0,0,.04-.612c-.038-.183-.06-.367-.11-.551C190.961,176.369,190.939,176.552,190.9,176.736Zm-19.761,3.185a1.077,1.077,0,0,1-.14.464.848.848,0,0,1-.718.418,1.134,1.134,0,0,0-1.048.689,1.081,1.081,0,0,0-.059.614c.038.183.06.368.111.551.051-.183.074-.368.112-.551a1,1,0,0,1,.152-.454.864.864,0,0,1,.74-.394,1.1,1.1,0,0,0,1.072-1.337c-.038-.183-.06-.367-.111-.55C171.2,179.554,171.179,179.738,171.141,179.921Zm13.735,15.045a1.064,1.064,0,0,1-.14.464.849.849,0,0,1-.717.418,1.134,1.134,0,0,0-1.049.689,1.08,1.08,0,0,0-.059.614c.038.183.06.367.111.551.052-.184.074-.368.112-.551a1,1,0,0,1,.153-.454.863.863,0,0,1,.74-.394,1.1,1.1,0,0,0,1.071-1.337c-.038-.183-.06-.367-.111-.55C184.935,194.6,184.913,194.783,184.876,194.966Zm3.766-28.5a1.07,1.07,0,0,1,.426-.228.846.846,0,0,1,.8.212,1.134,1.134,0,0,0,1.229.254,1.08,1.08,0,0,0,.476-.392c.1-.157.217-.3.311-.469-.166.094-.312.208-.469.311a1,1,0,0,1-.429.213.861.861,0,0,1-.8-.244,1.1,1.1,0,0,0-1.7.187c-.1.157-.217.3-.311.469C188.34,166.686,188.485,166.572,188.641,166.468Zm-10.073,19.841a1.067,1.067,0,0,1,.427-.228.848.848,0,0,1,.8.212,1.134,1.134,0,0,0,1.229.254,1.08,1.08,0,0,0,.476-.392c.1-.156.217-.3.311-.468-.167.093-.312.207-.469.31a1,1,0,0,1-.429.214.86.86,0,0,1-.8-.245,1.1,1.1,0,0,0-1.7.188c-.1.156-.217.3-.312.468C178.266,186.528,178.411,186.413,178.568,186.309Z" transform="translate(-126.111 -160.316)" fill="#fff"/><path d="M192.251,166.575a58.981,58.981,0,0,0,2.987,5.166c1.063,1.763,2.18,3.492,3.291,5.226s5.776,8.518,6.941,10.211a.071.071,0,0,0,.119-.079c-1.059-1.766-5.262-8.768-6.358-10.462s-2.181-3.4-3.324-5.067a61.088,61.088,0,0,0-3.581-5.032C192.3,166.5,192.228,166.527,192.251,166.575Z" transform="translate(-131.561 -160.375)" fill="#263238"/><path d="M163.407,202.2a167.127,167.127,0,0,1-29-13.8c-6.483-4.062-10.205-9.151-7.39-11.718.183-.128.284-.193.284-.193Z" transform="translate(-126.063 -161.203)" fill="#263238"/></g></g><g transform="translate(4.921 35.595)"><path d="M133.107,243.1c-1.1.719-52.652-12.691-52.848-13.111-.534-1.142,27.328-52.346,42.441-59.106,3.251-1.454,11.131,2.13,12.684,4.491.974,1.481,1.855,9.828,2.283,16.614C138.523,205.576,134.066,242.471,133.107,243.1Z" transform="translate(-80.252 -170.55)" fill="#489ddc"/><path d="M111.337,192.249c.183-.051.367-.073.55-.111a1.1,1.1,0,0,1,1.337,1.071.863.863,0,0,0,.394.74,1.01,1.01,0,0,0,.454.153c.183.038.367.06.551.111-.184.052-.368.074-.551.112a1.081,1.081,0,0,1-.614-.059,1.135,1.135,0,0,1-.689-1.049.851.851,0,0,0-.418-.718,1.076,1.076,0,0,0-.464-.139C111.7,192.322,111.52,192.3,111.337,192.249Zm10.714,36.465a1.072,1.072,0,0,1,.463.139.85.85,0,0,1,.419.718,1.135,1.135,0,0,0,.688,1.049,1.081,1.081,0,0,0,.614.059c.183-.038.368-.06.551-.112-.183-.051-.368-.073-.551-.111a1.01,1.01,0,0,1-.454-.153.863.863,0,0,1-.394-.74,1.1,1.1,0,0,0-1.336-1.071c-.183.038-.368.06-.551.111C121.684,228.654,121.868,228.676,122.051,228.714Zm12.65-34.39a1.08,1.08,0,0,1,.464.14.85.85,0,0,1,.418.718,1.134,1.134,0,0,0,.689,1.048,1.089,1.089,0,0,0,.614.06c.183-.039.367-.061.551-.112-.184-.051-.368-.073-.551-.112a1,1,0,0,1-.454-.152.861.861,0,0,1-.394-.74A1.1,1.1,0,0,0,134.7,194.1c-.183.038-.367.06-.55.111C134.334,194.264,134.518,194.286,134.7,194.324Zm-12.434-18.906a1.068,1.068,0,0,1,.464.14.849.849,0,0,1,.418.717,1.134,1.134,0,0,0,.689,1.049,1.08,1.08,0,0,0,.614.059c.183-.038.367-.06.55-.111-.183-.052-.367-.074-.55-.112a1,1,0,0,1-.455-.153.858.858,0,0,1-.393-.739,1.1,1.1,0,0,0-1.337-1.072c-.183.038-.367.06-.551.111C121.9,175.358,122.083,175.38,122.267,175.418ZM97.473,207.571a1.068,1.068,0,0,1,.464.139.851.851,0,0,1,.418.718,1.133,1.133,0,0,0,.689,1.048,1.073,1.073,0,0,0,.614.06c.183-.038.367-.061.55-.112-.183-.051-.367-.073-.55-.111a1.013,1.013,0,0,1-.455-.153.86.86,0,0,1-.393-.74,1.1,1.1,0,0,0-1.337-1.071c-.183.038-.367.06-.551.111C97.106,207.51,97.29,207.533,97.473,207.571Zm11.021,15.411a1.072,1.072,0,0,1,.463.14.852.852,0,0,1,.419.718,1.133,1.133,0,0,0,.688,1.048,1.073,1.073,0,0,0,.614.06c.183-.038.368-.061.551-.112-.183-.051-.368-.073-.551-.112a1,1,0,0,1-.454-.152.863.863,0,0,1-.394-.74,1.1,1.1,0,0,0-1.336-1.071c-.184.038-.368.06-.551.111C108.126,222.922,108.309,222.945,108.494,222.981ZM88.72,226.234a1.072,1.072,0,0,1,.463.14.85.85,0,0,1,.419.718,1.134,1.134,0,0,0,.688,1.048,1.074,1.074,0,0,0,.614.06c.183-.039.368-.061.551-.112-.183-.051-.368-.073-.551-.111a1.01,1.01,0,0,1-.454-.153.863.863,0,0,1-.394-.74,1.1,1.1,0,0,0-1.336-1.071c-.184.037-.368.06-.551.11C88.352,226.174,88.536,226.2,88.72,226.234ZM117.6,208.009a1.08,1.08,0,0,1,.464.139.851.851,0,0,1,.418.718,1.135,1.135,0,0,0,.688,1.049,1.081,1.081,0,0,0,.614.059c.184-.038.368-.06.551-.112-.183-.051-.367-.073-.551-.111a1.009,1.009,0,0,1-.454-.153.863.863,0,0,1-.394-.74,1.1,1.1,0,0,0-1.336-1.071c-.184.038-.368.06-.551.111C117.228,207.949,117.412,207.971,117.6,208.009Zm15.249,9.546a1.072,1.072,0,0,1,.463.14.849.849,0,0,1,.419.718,1.134,1.134,0,0,0,.688,1.048,1.081,1.081,0,0,0,.614.059c.183-.038.368-.06.551-.111-.183-.051-.368-.074-.551-.112a.988.988,0,0,1-.454-.153.861.861,0,0,1-.394-.739,1.1,1.1,0,0,0-1.336-1.072c-.184.038-.368.06-.551.111C132.478,217.5,132.661,217.517,132.845,217.555Zm-.086-9.813a1.073,1.073,0,0,1-.427.228.849.849,0,0,1-.8-.212,1.132,1.132,0,0,0-1.228-.254,1.069,1.069,0,0,0-.476.392c-.1.156-.217.3-.311.468.166-.093.312-.207.469-.31a1,1,0,0,1,.429-.214.862.862,0,0,1,.8.245,1.1,1.1,0,0,0,1.7-.188c.1-.156.217-.3.311-.468C133.061,207.524,132.915,207.638,132.759,207.742ZM114,179.9a1.081,1.081,0,0,1-.14.464.851.851,0,0,1-.718.418,1.133,1.133,0,0,0-1.048.689,1.07,1.07,0,0,0-.06.613c.038.184.061.368.112.551.051-.183.073-.367.111-.551a1.009,1.009,0,0,1,.153-.454.86.86,0,0,1,.74-.393,1.125,1.125,0,0,0,1.031-.725,1.114,1.114,0,0,0,.04-.612c-.038-.183-.06-.368-.111-.551C114.058,179.537,114.035,179.721,114,179.9Zm-4.524,32.126a1.08,1.08,0,0,1-.14.464.849.849,0,0,1-.717.418,1.134,1.134,0,0,0-1.049.689,1.08,1.08,0,0,0-.059.614c.038.183.06.367.111.551.052-.184.074-.368.112-.551a1,1,0,0,1,.153-.455.858.858,0,0,1,.739-.393,1.1,1.1,0,0,0,1.072-1.337c-.038-.183-.06-.367-.111-.55C109.534,211.664,109.512,211.847,109.475,212.031ZM132.242,184.2a1.081,1.081,0,0,1-.14.464.849.849,0,0,1-.717.418,1.134,1.134,0,0,0-1.049.689,1.08,1.08,0,0,0-.059.614c.038.183.06.367.111.55.052-.183.074-.367.112-.55a1,1,0,0,1,.153-.454.859.859,0,0,1,.739-.394,1.1,1.1,0,0,0,1.072-1.337c-.038-.183-.06-.367-.111-.55C132.3,183.831,132.279,184.015,132.242,184.2Zm0,51.87a1.08,1.08,0,0,1-.14.464.849.849,0,0,1-.717.418,1.134,1.134,0,0,0-1.049.689,1.078,1.078,0,0,0-.059.613c.038.184.06.368.111.551.052-.183.074-.367.112-.551a1,1,0,0,1,.153-.454.858.858,0,0,1,.739-.393,1.1,1.1,0,0,0,1.072-1.337c-.038-.183-.06-.368-.111-.551C132.3,235.7,132.279,235.885,132.242,236.069ZM91.666,213.187a1.08,1.08,0,0,1-.14.464.851.851,0,0,1-.718.418,1.134,1.134,0,0,0-1.048.688,1.074,1.074,0,0,0-.06.614c.039.184.061.368.112.551.051-.183.073-.367.112-.551a1,1,0,0,1,.152-.454.863.863,0,0,1,.74-.394,1.1,1.1,0,0,0,1.072-1.336c-.038-.183-.061-.368-.111-.551C91.726,212.819,91.7,213,91.666,213.187ZM125.874,198.4a1.08,1.08,0,0,1-.14.464.85.85,0,0,1-.718.418,1.134,1.134,0,0,0-1.048.689,1.081,1.081,0,0,0-.06.614c.039.183.061.367.112.551.051-.184.073-.368.112-.551a1,1,0,0,1,.152-.455.86.86,0,0,1,.74-.393,1.1,1.1,0,0,0,1.071-1.337c-.037-.183-.06-.367-.11-.551C125.933,198.037,125.911,198.221,125.874,198.4Zm-23.559-3.169a1.081,1.081,0,0,1-.14.464.851.851,0,0,1-.718.418,1.133,1.133,0,0,0-1.048.689,1.073,1.073,0,0,0-.06.614c.038.183.061.367.112.55.051-.183.073-.367.111-.55a1.013,1.013,0,0,1,.153-.455.86.86,0,0,1,.74-.393,1.125,1.125,0,0,0,1.031-.725,1.114,1.114,0,0,0,.04-.612c-.038-.183-.06-.367-.111-.551C102.375,194.868,102.352,195.052,102.315,195.235Zm0,35.883a1.08,1.08,0,0,1-.14.464.851.851,0,0,1-.718.418,1.133,1.133,0,0,0-1.048.689,1.073,1.073,0,0,0-.06.614c.038.183.061.367.112.55.051-.183.073-.367.111-.55a1.013,1.013,0,0,1,.153-.455.86.86,0,0,1,.74-.393,1.125,1.125,0,0,0,1.031-.725,1.114,1.114,0,0,0,.04-.612c-.038-.183-.06-.367-.111-.551C102.375,230.751,102.352,230.935,102.315,231.118ZM120.529,187.8a1.073,1.073,0,0,1,.427-.228.849.849,0,0,1,.8.211,1.132,1.132,0,0,0,1.228.255,1.07,1.07,0,0,0,.476-.392c.1-.157.217-.3.311-.469-.166.094-.312.207-.469.311a1,1,0,0,1-.429.213.861.861,0,0,1-.8-.244,1.1,1.1,0,0,0-1.7.187c-.1.157-.217.3-.311.468C120.227,188.021,120.373,187.907,120.529,187.8Zm-13.315,13.959a1.073,1.073,0,0,1,.427-.228.847.847,0,0,1,.8.212,1.132,1.132,0,0,0,1.228.254,1.069,1.069,0,0,0,.476-.392c.1-.156.217-.3.311-.468-.166.093-.312.207-.469.31a1,1,0,0,1-.429.214.864.864,0,0,1-.8-.245,1.1,1.1,0,0,0-1.7.187c-.1.157-.217.3-.311.469C106.913,201.981,107.059,201.866,107.214,201.763ZM97.141,221.605a1.076,1.076,0,0,1,.427-.229.849.849,0,0,1,.8.212,1.134,1.134,0,0,0,1.228.255,1.077,1.077,0,0,0,.476-.393c.1-.156.217-.3.311-.468-.166.094-.312.207-.469.311a1.013,1.013,0,0,1-.429.213.862.862,0,0,1-.8-.245,1.1,1.1,0,0,0-1.7.188c-.1.156-.217.3-.311.468C96.839,221.822,96.985,221.708,97.141,221.605Zm23.847-2.04a1.084,1.084,0,0,1,.426-.229.852.852,0,0,1,.8.212,1.136,1.136,0,0,0,1.229.255,1.08,1.08,0,0,0,.476-.392c.1-.157.217-.3.311-.469-.167.094-.312.207-.469.311a1,1,0,0,1-.429.213.862.862,0,0,1-.8-.244,1.1,1.1,0,0,0-1.7.187c-.1.157-.218.3-.312.468C120.686,219.782,120.832,219.669,120.988,219.565Zm-9.152,14.445a1.076,1.076,0,0,1,.427-.229.849.849,0,0,1,.8.212,1.136,1.136,0,0,0,1.229.255,1.086,1.086,0,0,0,.476-.392c.1-.157.217-.3.311-.469-.166.094-.312.207-.469.311a1,1,0,0,1-.429.213.862.862,0,0,1-.8-.245,1.1,1.1,0,0,0-1.7.188c-.1.156-.217.3-.311.468C111.535,234.227,111.68,234.113,111.837,234.01Zm24.362-6.4a.931.931,0,0,1-.248-.174,1.114,1.114,0,0,0-1.238-.22,1.131,1.131,0,0,0-.468.4c-.1.156-.211.3-.312.468a4.144,4.144,0,0,0,.468-.312,1.235,1.235,0,0,1,.431-.229.879.879,0,0,1,.807.211,1.128,1.128,0,0,0,.513.3Z" transform="translate(-80.909 -170.934)" fill="#fff"/><g transform="translate(46.413 10.487)"><path d="M137.4,181.987c-.357,5.153-.812,10.3-1.284,15.436s-1.02,10.274-1.526,15.412c-.579,5.129-1.12,10.263-1.737,15.389l-.944,7.687c-.348,2.558-.664,5.12-1.039,7.676.169-2.577.4-5.149.592-7.723l.689-7.713c.471-5.141,1.02-10.274,1.528-15.411.582-5.129,1.12-10.263,1.738-15.389S136.666,187.1,137.4,181.987Z" transform="translate(-130.87 -181.987)" fill="#263238"/><g transform="translate(1.726 15.105)"><path d="M140.136,199.512a.968.968,0,1,1-.881-1.048A.968.968,0,0,1,140.136,199.512Z" transform="translate(-133.205 -198.46)" fill="#263238"/><path d="M138.773,210.3a.968.968,0,1,1-.881-1.048A.968.968,0,0,1,138.773,210.3Z" transform="translate(-133.092 -199.357)" fill="#263238"/><path d="M137.41,221.094a.968.968,0,1,1-.88-1.048A.968.968,0,0,1,137.41,221.094Z" transform="translate(-132.978 -200.253)" fill="#263238"/><path d="M136.048,231.885a.968.968,0,1,1-.881-1.048A.968.968,0,0,1,136.048,231.885Z" transform="translate(-132.865 -201.149)" fill="#263238"/><path d="M134.685,242.676a.968.968,0,1,1-.881-1.048A.968.968,0,0,1,134.685,242.676Z" transform="translate(-132.752 -202.046)" fill="#263238"/></g></g></g><g transform="translate(44.679)"><g transform="translate(2.703)"><g transform="translate(0 23.855)"><path d="M134.383,180.885c-3.242-.242-6.96-6.493-7.822-10.877-.058-.3,1.19-2.876,2.558-6.077.823-1.947,1.694-4.133,2.344-6.185l11.881,7.2a34.322,34.322,0,0,0-3.739,7.487,4.815,4.815,0,0,0-.178.87c-.008.04-.012.091-.026.145C139.155,175.134,137.518,181.117,134.383,180.885Z" transform="translate(-126.559 -157.746)" fill="#d3766a"/><path d="M132.495,158.119c-.411,2.689-1.368,12.489,6.032,15.017a9.377,9.377,0,0,0,1.341.348.519.519,0,0,0,.024-.149,5.057,5.057,0,0,1,.178-.868,34.51,34.51,0,0,1,3.746-7.486Z" transform="translate(-127.029 -157.777)" fill="#263238"/></g><g transform="translate(2.138)"><g transform="translate(2.133 4.42)"><path d="M132.249,143.064c-1.982,4.6-1,18.621,2.041,22.063,4.41,4.989,12.395,6.309,16.827.833,4.3-5.308,2.695-23.563-.775-26.77C145.231,134.468,135.176,136.275,132.249,143.064Z" transform="translate(-131.217 -136.55)" fill="#d3766a"/></g><g transform="translate(12.544 16.115)"><g transform="translate(1.007 3.765)"><path d="M145.8,154.426c-.009-.035-.071.05-.067.089.092.943.038,2.038-.8,2.408-.026.011-.019.058.012.052C145.982,156.76,146.04,155.306,145.8,154.426Z" transform="translate(-143.773 -153.495)" fill="#263238"/><path d="M144.79,153.411c-1.528-.016-1.449,3.04-.033,3.055C146.149,156.481,146.07,153.425,144.79,153.411Z" transform="translate(-143.669 -153.411)" fill="#263238"/></g><g transform="translate(8.23 3.57)"><path d="M151.6,154.305c.006-.037.075.042.075.082-.006.947.148,2.033,1.012,2.325.027.009.026.057-.006.053C151.628,156.645,151.439,155.2,151.6,154.305Z" transform="translate(-151.547 -153.289)" fill="#263238"/><path d="M152.417,153.2c1.519-.155,1.718,2.895.311,3.039C151.342,156.383,151.143,153.333,152.417,153.2Z" transform="translate(-151.549 -153.198)" fill="#263238"/></g><path d="M143.456,151.722a11.828,11.828,0,0,0,1.173-.447,2.031,2.031,0,0,0,1.109-.685.646.646,0,0,0-.125-.779,1.6,1.6,0,0,0-1.619-.123,2.351,2.351,0,0,0-1.33,1.054A.69.69,0,0,0,143.456,151.722Z" transform="translate(-142.571 -149.324)" fill="#263238"/><path d="M153.51,151.31a11.826,11.826,0,0,1-1.223-.283,2.037,2.037,0,0,1-1.192-.527.647.647,0,0,1,.017-.789,1.6,1.6,0,0,1,1.587-.343,2.361,2.361,0,0,1,1.462.863A.69.69,0,0,1,153.51,151.31Z" transform="translate(-143.269 -149.305)" fill="#263238"/><path d="M144.864,164.053c.233.215.467.514.811.535a2.5,2.5,0,0,0,1.011-.264.033.033,0,0,1,.042.047,1.275,1.275,0,0,1-1.188.546,1.011,1.011,0,0,1-.767-.818C144.758,164.043,144.83,164.021,144.864,164.053Z" transform="translate(-142.754 -150.529)" fill="#263238"/><g transform="translate(3.011 0.285)"><path d="M145.876,159.994a3.226,3.226,0,0,0,2.188,1.379,4.067,4.067,0,0,0,1.161.023,1.117,1.117,0,0,0,.221-.031c.069-.01.131-.02.207-.038a.236.236,0,0,0,.184-.216V161.1a.425.425,0,0,0-.011-.1V161l0-.083c0-.73-.1-1.837-.1-1.837.27.127,1.643.7,1.612.322a48.49,48.49,0,0,0-1.5-9.722.088.088,0,0,0-.172.028c.139,3.036.812,6.025,1,9.072a5.672,5.672,0,0,0-1.533-.423c-.1.033.23,2.136.2,2.463a.121.121,0,0,1,0,.035,4.467,4.467,0,0,1-3.363-.949C145.89,159.854,145.817,159.92,145.876,159.994Z" transform="translate(-145.855 -149.616)" fill="#263238"/></g><g transform="translate(2.576 10.569)"><path d="M148.646,162.138a3.784,3.784,0,0,1-1.587,1.08,1.709,1.709,0,0,1-1.039,0c-.735-.243-.712-.931-.538-1.509a4.074,4.074,0,0,1,.391-.878A4.907,4.907,0,0,0,148.646,162.138Z" transform="translate(-145.381 -160.831)" fill="#263238"/><path d="M147.059,163.3a1.709,1.709,0,0,1-1.039,0c-.735-.243-.712-.931-.538-1.509A1.762,1.762,0,0,1,147.059,163.3Z" transform="translate(-145.381 -160.911)" fill="#f291b8"/></g></g><path d="M154.656,145.425c-.008-.019-.008-.037-.017-.047.008.038.017.065.017.065Z" transform="translate(-131.03 -132.864)" fill="#263238"/><path d="M152.6,144.323c-4.584,3.437-11.252-1.186-11.252-1.186a5.138,5.138,0,0,1-5.072,3.471s-.59,8.032-2.7,8.106c-3.212.116-4.665-10.741-3.745-12.925a5.733,5.733,0,0,1,3.623-2.849,5.25,5.25,0,0,1,2.049-3.27c2.121-1.771,9.784.169,9.784.169a7.05,7.05,0,0,1,1.827-2.7,1.985,1.985,0,0,1,2.869.141,4.742,4.742,0,0,0-.687,2c-.28,2.356,1.631,2.272,1.525.15a3.31,3.31,0,0,0-.838-2.154c.884-1.427,2.405-1.944,3.372-1.241C155.113,133.319,156.412,141.468,152.6,144.323Z" transform="translate(-128.947 -131.73)" fill="#263238"/><g transform="translate(0 18.176)"><path d="M134.678,155.485s-2.709-4.738-4.83-3.812-.369,7.6,1.923,8.7a2.422,2.422,0,0,0,3.351-1Z" transform="translate(-128.891 -151.553)" fill="#d3766a"/><path d="M130.531,153.756c-.038-.007-.05.046-.018.062a6.123,6.123,0,0,1,2.8,4.1,1.338,1.338,0,0,0-1.96-.546c-.046.028-.01.1.038.094a1.491,1.491,0,0,1,1.586.667,7.181,7.181,0,0,1,.661,1.393c.065.156.341.1.3-.076l-.01-.039C134.166,157.3,132.788,154.177,130.531,153.756Z" transform="translate(-129.024 -151.736)" fill="#263238"/></g></g></g><g transform="translate(0 34.84)"><path d="M139.156,174.446l-2.764,6.139-9.714-10.859-3.067,2.919s8.024,16.683,8.152,15.976l4.8-6.452,3.3,5.152.753-10.013Z" transform="translate(-123.611 -169.726)" fill="#489ddc"/><path d="M140.593,181.821c.059-1.959.172-2.1.14-4.058,0-.07-.106-.111-.131-.031-.57,1.843-.755,7.506-.934,9.291l-.018-.023c-.175-.222-3.012-4.553-3.059-4.5-.8,1.007-4.565,5.7-4.771,6.136-1.268-2.649-6.175-12.309-7.732-14.849a.068.068,0,0,0-.124.057c1.078,2.773,7.552,15.767,7.673,15.745a61.513,61.513,0,0,0,4.983-6.825c.617.924,3.444,5.765,3.485,5.477A61.674,61.674,0,0,0,140.593,181.821Z" transform="translate(-123.64 -170.061)" fill="#263238"/></g></g><g transform="translate(0 88.159)"><g transform="translate(47.532)"><rect width="7.662" height="164.265" transform="translate(56.182 32.207) rotate(20)" fill="#dbdbdb"/><path d="M194.743,265.622,190.384,277.6l-7.823-.912L187.542,263Z" transform="translate(-131.362 -230.794)" fill="#a6a6a6"/><rect width="12.932" height="39.296" transform="matrix(0.94, 0.342, -0.342, 0.94, 65.1, 0)" fill="#489ddc"/></g><path d="M180.787,458.869H74.884l4.58-8.377h96.742Z" transform="translate(-74.884 -246.37)" fill="#263238"/><g transform="translate(12.829 175.088)"><path d="M169.122,452.335H88.876S94.491,418.828,129,418.828,169.122,452.335,169.122,452.335Z" transform="translate(-88.876 -418.828)" fill="#a6a6a6"/><path d="M153.366,453.646H107.772s3.19-19.038,22.8-19.038S153.366,453.646,153.366,453.646Z" transform="translate(-90.446 -420.139)" fill="#c7c7c7"/></g></g><g transform="translate(33.962 42.245)"><g transform="translate(2.063 0.662)"><path d="M114.373,189.959c-.667,7.426.312,39.668,3.365,44.915,5.528,9.5,35.3,22.383,42.245,24.886,3.025,1.091,13.4-23.125,10.258-24.518-2.12-.939-30.641-9.962-32.487-11.75s-9.144-23.966-11.951-36C123.129,176.032,115.785,174.218,114.373,189.959Z" transform="translate(-114.174 -178.524)" fill="#d3766a"/><g transform="translate(45.504 55.61)"><path d="M202.282,248.315a3.936,3.936,0,0,1-2.183,3.927,5.843,5.843,0,0,1,1.354,3.733c-.111,2.4-3.927,3.283-3.927,3.283a7.2,7.2,0,0,1,.8,4.165c-.337,2.289-4.061,3.725-4.061,3.725a6.315,6.315,0,0,1-1.6,4.105c-2.819,2.914-8.875,1.623-12.733.841s-14.069-6.614-16.128-7.528l4.8-24.806s18.3-1.416,22.7.148C195.022,241.224,201.859,245.27,202.282,248.315Z" transform="translate(-163.801 -239.172)" fill="#d3766a"/><g transform="translate(19.464 7.752)"><path d="M202.213,252.512c-3.611-2.347-7.718-3.5-11.752-4.882a.074.074,0,0,0-.047.14c4.029,1.329,7.742,3.439,11.709,4.926A.1.1,0,0,0,202.213,252.512Z" transform="translate(-185.471 -247.626)" fill="#263238"/><path d="M199.48,260.416a11.232,11.232,0,0,0-2.759-1q-1.5-.432-3.013-.812c-2.019-.51-4.05-.974-6.094-1.378-.091-.017-.14.116-.047.14,2.013.512,4.016,1.054,6,1.65q1.492.447,2.978.919a13.382,13.382,0,0,0,2.839.756A.149.149,0,0,0,199.48,260.416Z" transform="translate(-185.235 -248.423)" fill="#263238"/><path d="M195.944,269.4a7.834,7.834,0,0,0-2.532-.771q-1.388-.319-2.771-.655c-1.845-.447-3.69-.895-5.517-1.406-.091-.025-.138.115-.047.14,1.855.529,3.7,1.082,5.561,1.595q1.37.377,2.743.739a7.322,7.322,0,0,0,2.544.451A.052.052,0,0,0,195.944,269.4Z" transform="translate(-185.028 -249.2)" fill="#263238"/></g></g></g><path d="M165.191,232.861l-6.915,28.27s-33.2-13.769-42.042-25.96c-3.648-5.027-4.784-34.588-2.812-46.416s8.487-17.227,13.271.221,9.633,32.813,10.76,33.3S165.191,232.861,165.191,232.861Z" transform="translate(-111.968 -177.802)" fill="#489ddc"/><path d="M113.436,193.333c.183-.051.367-.073.55-.111a1.1,1.1,0,0,1,1.337,1.071.863.863,0,0,0,.394.74,1.01,1.01,0,0,0,.454.153c.183.038.367.06.551.111-.184.052-.368.074-.551.112a1.081,1.081,0,0,1-.614-.059,1.135,1.135,0,0,1-.689-1.049.851.851,0,0,0-.418-.718,1.076,1.076,0,0,0-.464-.139C113.8,193.407,113.619,193.384,113.436,193.333ZM124.15,229.8a1.072,1.072,0,0,1,.463.139.85.85,0,0,1,.419.718,1.135,1.135,0,0,0,.688,1.049,1.081,1.081,0,0,0,.614.059c.183-.038.368-.06.551-.112-.183-.051-.368-.073-.551-.111a1.01,1.01,0,0,1-.454-.153.863.863,0,0,1-.394-.74,1.1,1.1,0,0,0-1.336-1.071c-.183.038-.368.06-.551.111C123.783,229.739,123.967,229.761,124.15,229.8ZM152.5,256.817a1.068,1.068,0,0,1,.464.14.849.849,0,0,1,.418.717,1.134,1.134,0,0,0,.689,1.049,1.08,1.08,0,0,0,.614.059c.183-.038.367-.06.55-.111-.183-.052-.367-.074-.55-.112a1,1,0,0,1-.455-.153.86.86,0,0,1-.393-.74,1.1,1.1,0,0,0-1.337-1.071c-.183.038-.367.06-.551.111C152.13,256.757,152.314,256.779,152.5,256.817Zm-32.8-47.723a1.08,1.08,0,0,1,.464.139.851.851,0,0,1,.418.718,1.135,1.135,0,0,0,.688,1.049,1.081,1.081,0,0,0,.614.059c.184-.038.368-.06.551-.112-.183-.051-.367-.073-.551-.111a1.009,1.009,0,0,1-.454-.153.863.863,0,0,1-.394-.74,1.1,1.1,0,0,0-1.336-1.071c-.184.038-.368.06-.551.111C119.327,209.034,119.511,209.056,119.695,209.093Zm22.9,42.641a1.08,1.08,0,0,1,.464.14.851.851,0,0,1,.418.718,1.134,1.134,0,0,0,.689,1.048,1.073,1.073,0,0,0,.614.06c.183-.039.367-.061.551-.112-.184-.051-.368-.073-.551-.112a1,1,0,0,1-.455-.152.86.86,0,0,1-.393-.74,1.1,1.1,0,0,0-1.337-1.072c-.183.038-.367.06-.551.111C142.227,251.675,142.41,251.7,142.593,251.734Zm6.253-17.116a1.064,1.064,0,0,1,.463.14.847.847,0,0,1,.418.717,1.135,1.135,0,0,0,.689,1.049,1.081,1.081,0,0,0,.614.059c.183-.038.367-.06.551-.112-.184-.051-.368-.073-.551-.111a1.01,1.01,0,0,1-.454-.153.863.863,0,0,1-.394-.74,1.1,1.1,0,0,0-1.336-1.071c-.184.038-.368.06-.551.111C148.478,234.558,148.661,234.58,148.846,234.618Zm-13.9-16.2c-.183.037-.367.064-.55.11.183.055.367.073.55.119a1.039,1.039,0,0,1,.468.138.6.6,0,0,1,.165.138c-.055-.156-.11-.33-.165-.5A1.346,1.346,0,0,0,134.942,218.415Zm.889,1.183a1.162,1.162,0,0,0,.211.568C135.978,219.983,135.9,219.8,135.831,219.6Zm27.031,15.649a1.073,1.073,0,0,1-.427.228.847.847,0,0,1-.8-.212,1.134,1.134,0,0,0-1.228-.254,1.07,1.07,0,0,0-.476.392c-.1.157-.217.3-.311.469.166-.094.312-.208.469-.311a1,1,0,0,1,.429-.213.861.861,0,0,1,.8.244,1.1,1.1,0,0,0,1.7-.187c.1-.157.217-.3.311-.469C163.164,235.03,163.018,235.143,162.862,235.247ZM135.25,247.26a1.073,1.073,0,0,1-.427.228.849.849,0,0,1-.8-.212,1.132,1.132,0,0,0-1.228-.254,1.07,1.07,0,0,0-.476.392c-.1.157-.217.3-.311.469.166-.094.312-.208.469-.311a1.01,1.01,0,0,1,.429-.214.862.862,0,0,1,.8.245,1.1,1.1,0,0,0,1.7-.187c.1-.157.217-.3.311-.469C135.551,247.042,135.406,247.157,135.25,247.26Zm-3.031-38.574a1.114,1.114,0,0,0-.293.293c-.1.156-.22.3-.312.468a5.176,5.176,0,0,0,.468-.312,1.354,1.354,0,0,1,.229-.147C132.282,208.888,132.255,208.787,132.218,208.686Zm15.716,18.458a1.066,1.066,0,0,0-.293.4,1.11,1.11,0,0,0-.055.614c.037.183.055.367.11.55.046-.183.073-.367.11-.55a.971.971,0,0,1,.156-.449.806.806,0,0,1,.5-.367C148.283,227.272,148.118,227.208,147.934,227.144Zm-13.593,10.009a1.08,1.08,0,0,1-.14.464.849.849,0,0,1-.717.418,1.134,1.134,0,0,0-1.049.689,1.078,1.078,0,0,0-.059.613c.038.184.06.368.111.551.052-.183.074-.367.112-.551a1,1,0,0,1,.153-.454.858.858,0,0,1,.739-.393,1.1,1.1,0,0,0,1.072-1.337c-.038-.183-.06-.368-.111-.551C134.4,236.786,134.379,236.97,134.341,237.153Zm20.776,9.523a1.08,1.08,0,0,1-.14.464.849.849,0,0,1-.717.418,1.134,1.134,0,0,0-1.049.689,1.078,1.078,0,0,0-.059.613c.038.184.06.368.111.551.052-.183.074-.367.112-.551a1,1,0,0,1,.153-.454.858.858,0,0,1,.739-.393,1.1,1.1,0,0,0,1.072-1.337c-.038-.183-.06-.367-.111-.551C155.176,246.31,155.154,246.493,155.117,246.676Zm-27.144-47.188a1.08,1.08,0,0,1-.14.464.85.85,0,0,1-.718.418,1.134,1.134,0,0,0-1.048.689,1.081,1.081,0,0,0-.06.614c.039.183.061.367.112.551.051-.184.073-.368.112-.551a1,1,0,0,1,.152-.455.86.86,0,0,1,.74-.393,1.125,1.125,0,0,0,1.031-.725,1.114,1.114,0,0,0,.04-.612c-.037-.183-.06-.367-.11-.551C128.033,199.122,128.01,199.305,127.973,199.489Zm-5.345-10.6a1.073,1.073,0,0,1,.427-.228.849.849,0,0,1,.8.211,1.132,1.132,0,0,0,1.228.255,1.07,1.07,0,0,0,.476-.392c.1-.157.217-.3.311-.469-.166.094-.312.207-.469.311a1,1,0,0,1-.429.213.861.861,0,0,1-.8-.244,1.1,1.1,0,0,0-1.7.187c-.1.157-.217.3-.311.468C122.326,189.105,122.472,188.992,122.628,188.888Zm.459,31.761a1.084,1.084,0,0,1,.426-.229.852.852,0,0,1,.8.212,1.136,1.136,0,0,0,1.229.255,1.08,1.08,0,0,0,.476-.392c.1-.157.217-.3.311-.469-.167.094-.312.207-.469.311a1,1,0,0,1-.429.213.862.862,0,0,1-.8-.244,1.1,1.1,0,0,0-1.7.187c-.1.157-.218.3-.312.468C122.785,220.867,122.931,220.753,123.088,220.649Zm13.416,8.212a1.076,1.076,0,0,1,.427-.229.852.852,0,0,1,.8.212,1.134,1.134,0,0,0,1.228.255,1.075,1.075,0,0,0,.476-.392c.1-.157.217-.3.311-.469-.166.094-.312.207-.469.311a1,1,0,0,1-.429.213.86.86,0,0,1-.8-.245,1.1,1.1,0,0,0-1.7.188c-.1.156-.217.3-.311.468C136.2,229.079,136.348,228.964,136.5,228.861Zm-19.791,5.921a.9.9,0,0,1-.431.211.8.8,0,0,1-.568-.073c.073.174.147.339.229.5a.936.936,0,0,0,.449-.083,1.021,1.021,0,0,0,.477-.394c.1-.156.22-.3.312-.468C117.016,234.562,116.869,234.681,116.713,234.782Zm26.329,8.525a1.076,1.076,0,0,1,.427-.229.852.852,0,0,1,.8.212,1.134,1.134,0,0,0,1.228.255,1.076,1.076,0,0,0,.476-.392c.1-.157.217-.3.311-.469-.166.094-.312.207-.469.311a1,1,0,0,1-.429.213.86.86,0,0,1-.8-.245,1.1,1.1,0,0,0-1.7.188c-.1.156-.217.3-.311.468C142.741,243.524,142.887,243.409,143.043,243.307Z" transform="translate(-112.049 -178.668)" fill="#fff"/><g transform="translate(0 16.484)"><path d="M121.953,242.309a22.191,22.191,0,0,1-6.136-6.267,11.261,11.261,0,0,1-1.184-4.145c-.273-1.685-.525-3.374-.745-5.066a137.768,137.768,0,0,1-1.11-19.8q.083-5.612.635-11.208c0-.051-.091-.061-.1-.01q-.712,4.514-1.04,9.057c-.039-.442-.072-.884-.1-1.321-.07-1.207-.1-2.413-.068-3.622,0-.06-.1-.056-.1,0a25.093,25.093,0,0,0-.03,3.694c.049.68.138,1.352.237,2.022q-.349,5.24-.2,10.5c.1,3.44.333,6.881.758,10.3.207,1.669.451,3.333.742,4.992a17.068,17.068,0,0,0,1.27,4.7c1.393,2.814,4.319,4.659,7.081,6.269C121.937,242.453,122.016,242.356,121.953,242.309Z" transform="translate(-111.924 -195.78)" fill="#263238"/><path d="M139.561,223.981c-1.058-.193-1.4-1.815-1.707-2.659q-.589-1.635-1.178-3.271c-.774-2.15-1.461-4.329-2.147-6.508-.561-1.782-1.086-3.575-1.6-5.37-.162-1.138-.311-2.277-.5-3.41-.011-.067-.127-.05-.119.019.094.792.21,1.582.327,2.371-.658-2.3-1.309-4.592-2-6.876a.046.046,0,0,0-.089.027c.788,3.743,1.678,7.442,2.695,11.129a88.5,88.5,0,0,0,3.592,10.841,26.281,26.281,0,0,0,1.216,2.679,2.078,2.078,0,0,0,1.485,1.168C139.617,224.136,139.653,224,139.561,223.981Z" transform="translate(-113.47 -195.985)" fill="#263238"/><path d="M163.324,238.069a58.873,58.873,0,0,0-1.805,5.688c-.588,1.973-1.112,3.964-1.646,5.953s-2.406,10.006-2.872,12.008a.072.072,0,0,0,.139.035c.591-1.973,2.935-9.795,3.449-11.747s1.044-3.9,1.507-5.869A61.438,61.438,0,0,0,163.4,238.1C163.409,238.057,163.344,238.019,163.324,238.069Z" transform="translate(-115.668 -199.291)" fill="#263238"/></g></g></g></g></g></g></svg>