<svg xmlns="http://www.w3.org/2000/svg" xmlns:xlink="http://www.w3.org/1999/xlink" width="407.307" height="287" viewBox="0 0 407.307 287"><defs><clipPath id="a"><rect y="39" width="227.803" height="181.167" fill="none"/></clipPath></defs><g transform="translate(-861.774 -1701)"><circle cx="143.5" cy="143.5" r="143.5" transform="translate(932.961 1701)" fill="#fff"/><g transform="translate(1041.278 1662.709)" clip-path="url(#a)" style="isolation:isolate"><path d="M83.349,30.012a20,20,0,0,1,34.644,0l66.036,114.415a20,20,0,0,1-17.322,30H34.635a20,20,0,0,1-17.322-30Z" transform="matrix(0.848, -0.53, 0.53, 0.848, -22.99, 81.986)" fill="#2d2d2d"/></g><g transform="translate(861.774 1806.163)"><path d="M243.612,121.547a1.917,1.917,0,1,0,1.917-1.917A1.917,1.917,0,0,0,243.612,121.547Z" transform="translate(-59.595 -119.63)" fill="#489ddc"/><circle cx="1.917" cy="1.917" r="1.917" transform="translate(163.571 0)" fill="#489ddc"/><circle cx="1.917" cy="1.917" r="1.917" transform="translate(143.125 0)" fill="#489ddc"/><circle cx="1.917" cy="1.917" r="1.917" transform="translate(122.678 0)" fill="#489ddc"/><path d="M166.024,121.547a1.916,1.916,0,1,0,1.916-1.917A1.916,1.916,0,0,0,166.024,121.547Z" transform="translate(-63.792 -119.63)" fill="#489ddc"/><circle cx="1.917" cy="1.917" r="1.917" transform="translate(81.785 0)" fill="#489ddc"/><circle cx="1.917" cy="1.917" r="1.917" transform="translate(61.339 0)" fill="#489ddc"/><circle cx="1.917" cy="1.917" r="1.917" transform="translate(40.893 0)" fill="#489ddc"/><circle cx="1.917" cy="1.917" r="1.917" transform="translate(20.446 0)" fill="#489ddc"/><circle cx="1.917" cy="1.917" r="1.917" transform="translate(0 0)" fill="#489ddc"/><g transform="translate(26.836 24.28)"><circle cx="1.917" cy="1.917" r="1.917" transform="translate(184.017 0)" fill="#489ddc"/><path d="M249.674,144.581a1.917,1.917,0,1,0,1.916-1.917A1.916,1.916,0,0,0,249.674,144.581Z" transform="translate(-86.103 -142.664)" fill="#489ddc"/><circle cx="1.917" cy="1.917" r="1.917" transform="translate(143.124 0)" fill="#489ddc"/><circle cx="1.917" cy="1.917" r="1.917" transform="translate(122.678 0)" fill="#489ddc"/><circle cx="1.917" cy="1.917" r="1.917" transform="translate(102.232 0)" fill="#489ddc"/><path d="M172.085,144.581A1.917,1.917,0,1,0,174,142.664,1.917,1.917,0,0,0,172.085,144.581Z" transform="translate(-90.3 -142.664)" fill="#489ddc"/><circle cx="1.917" cy="1.917" r="1.917" transform="translate(61.339 0)" fill="#489ddc"/><circle cx="1.917" cy="1.917" r="1.917" transform="translate(40.893 0)" fill="#489ddc"/><circle cx="1.917" cy="1.917" r="1.917" transform="translate(20.446 0)" fill="#489ddc"/><circle cx="1.917" cy="1.917" r="1.917" transform="translate(0 0)" fill="#489ddc"/></g><g transform="translate(0 48.56)"><path d="M243.612,167.615a1.917,1.917,0,1,0,1.917-1.916A1.918,1.918,0,0,0,243.612,167.615Z" transform="translate(-59.595 -165.699)" fill="#489ddc"/><circle cx="1.917" cy="1.917" r="1.917" transform="translate(163.571)" fill="#489ddc"/><circle cx="1.917" cy="1.917" r="1.917" transform="translate(143.125)" fill="#489ddc"/><circle cx="1.917" cy="1.917" r="1.917" transform="translate(122.678)" fill="#489ddc"/><path d="M166.024,167.615a1.916,1.916,0,1,0,1.916-1.916A1.917,1.917,0,0,0,166.024,167.615Z" transform="translate(-63.792 -165.699)" fill="#489ddc"/><circle cx="1.917" cy="1.917" r="1.917" transform="translate(81.785)" fill="#489ddc"/><circle cx="1.917" cy="1.917" r="1.917" transform="translate(61.339)" fill="#489ddc"/><circle cx="1.917" cy="1.917" r="1.917" transform="translate(40.893)" fill="#489ddc"/><circle cx="1.917" cy="1.917" r="1.917" transform="translate(20.446)" fill="#489ddc"/><circle cx="1.917" cy="1.917" r="1.917" fill="#489ddc"/></g><g transform="translate(26.836 72.84)"><circle cx="1.917" cy="1.917" r="1.917" transform="translate(184.017)" fill="#489ddc"/><path d="M249.674,190.649a1.917,1.917,0,1,0,1.916-1.916A1.917,1.917,0,0,0,249.674,190.649Z" transform="translate(-86.103 -188.733)" fill="#489ddc"/><circle cx="1.917" cy="1.917" r="1.917" transform="translate(143.124)" fill="#489ddc"/><circle cx="1.917" cy="1.917" r="1.917" transform="translate(122.678)" fill="#489ddc"/><circle cx="1.917" cy="1.917" r="1.917" transform="translate(102.232)" fill="#489ddc"/><path d="M172.085,190.649A1.917,1.917,0,1,0,174,188.733,1.917,1.917,0,0,0,172.085,190.649Z" transform="translate(-90.3 -188.733)" fill="#489ddc"/><circle cx="1.917" cy="1.917" r="1.917" transform="translate(61.339)" fill="#489ddc"/><circle cx="1.917" cy="1.917" r="1.917" transform="translate(40.893)" fill="#489ddc"/><circle cx="1.917" cy="1.917" r="1.917" transform="translate(20.446)" fill="#489ddc"/><circle cx="1.917" cy="1.917" r="1.917" fill="#489ddc"/></g></g><g transform="translate(1141.379 1899.682)"><path d="M767.228,166.316c0,1.906-5.182,1.906-5.182,3.813s5.182,1.906,5.182,3.813-5.182,1.906-5.182,3.812,5.182,1.906,5.182,3.813-5.182,1.906-5.182,3.813,5.182,1.91,5.182,3.82-5.182,1.91-5.182,3.821" transform="translate(-762.046 -166.316)" fill="none" stroke="#489ddc" stroke-miterlimit="10" stroke-width="0.781"/><g transform="translate(11.815 11.815)"><path d="M779.691,178.779c0,1.906-5.182,1.906-5.182,3.813s5.182,1.907,5.182,3.813-5.182,1.906-5.182,3.812,5.182,1.906,5.182,3.812-5.182,1.907-5.182,3.814,5.182,1.91,5.182,3.82-5.182,1.91-5.182,3.82" transform="translate(-774.509 -178.779)" fill="none" stroke="#489ddc" stroke-miterlimit="10" stroke-width="0.781"/></g></g><g transform="translate(2373.882 2607.558)"><g transform="translate(-1229.503 -842.25)"><path d="M-1079.138-797.077c-.12.762-.222,1.527-.363,2.285a20.384,20.384,0,0,1-5.837,10.976,20.792,20.792,0,0,1-11.787,5.891,20.294,20.294,0,0,1-7.017-.178,4.19,4.19,0,0,1-3.2-4.8,7.767,7.767,0,0,0-.1-3.991,6.124,6.124,0,0,0-3.542-3.715.732.732,0,0,1-.5-.834c.072-1.86.111-3.721.164-5.582,0-.121.022-.242.034-.361a4.194,4.194,0,0,0,4.537-3.893c.2-2.486-1.586-4.216-4.672-4.48-.047-.887-.073-1.783-.147-2.674-.187-2.223-.4-4.444-.586-6.667a.566.566,0,0,1,.179-.443,23.276,23.276,0,0,1,9.987-3.971,18.921,18.921,0,0,1,14.9,4.409,20.98,20.98,0,0,1,7.419,11.814c.208.885.292,1.8.437,2.7.019.119.059.235.089.352Zm-13.939,9.2a4.208,4.208,0,0,0-4.173-4.175,4.212,4.212,0,0,0-4.185,4.164,4.227,4.227,0,0,0,4.2,4.2A4.214,4.214,0,0,0-1093.078-787.875Zm3.714-3.708a4.211,4.211,0,0,0,4.171-4.179,4.22,4.22,0,0,0-4.207-4.194,4.21,4.21,0,0,0-4.143,4.206A4.206,4.206,0,0,0-1089.364-791.583Zm-7.061-15.015a4.184,4.184,0,0,0,4.122,4.214,4.188,4.188,0,0,0,4.222-4.165,4.2,4.2,0,0,0-4.151-4.195A4.191,4.191,0,0,0-1096.425-806.6Zm-6.6,1.327a4.211,4.211,0,0,0,4.177-4.171,4.226,4.226,0,0,0-4.205-4.2,4.21,4.21,0,0,0-4.149,4.2A4.207,4.207,0,0,0-1103.027-805.271Z" transform="translate(1126.719 822.497)" fill="#fff"/><path d="M-1190.51-842.25a3.262,3.262,0,0,1,1.577,1.806,18.611,18.611,0,0,1,1.29,4.968,122.793,122.793,0,0,1,.94,18.185c0,.075-.01.149-.017.249h-8.34c0-.157,0-.32,0-.483.1-3.937.122-7.877.311-11.809a41.87,41.87,0,0,1,1.369-9.585,13.779,13.779,0,0,1,.7-1.814,2.858,2.858,0,0,1,1.43-1.516Z" transform="translate(1199.338 842.25)" fill="#fff"/><path d="M-1229.5-557.509v-2.773a3.136,3.136,0,0,0,2.185-1.091,2.961,2.961,0,0,0,.7-1.924c.006-.9,0-1.8,0-2.7a5.613,5.613,0,0,1,5.016-5.565,5.531,5.531,0,0,1,6.033,4.595,7.933,7.933,0,0,1-2.347,6.948,7.966,7.966,0,0,1-4.691,2.42.849.849,0,0,0-.2.088Z" transform="translate(1229.503 605.183)" fill="#fff"/><path d="M-1194.119-612.41c-.034-.509-.081-.942-.088-1.375-.014-.8,0-1.61,0-2.448h8.128v3.851A8.166,8.166,0,0,0-1194.119-612.41Z" transform="translate(1198.595 644.293)" fill="#fff"/><path d="M-1105.757-681.988c0-.859.009-1.634,0-2.408-.005-.3.163-.362.4-.381a1.366,1.366,0,0,1,1.424,1.24,1.384,1.384,0,0,1-1.26,1.547C-1105.344-681.979-1105.5-681.988-1105.757-681.988Z" transform="translate(1121.125 704.33)" fill="#fff"/><path d="M-1000.641-573.161a1.378,1.378,0,0,1-1.386,1.427,1.392,1.392,0,0,1-1.4-1.375,1.372,1.372,0,0,1,1.346-1.417A1.361,1.361,0,0,1-1000.641-573.161Z" transform="translate(1031.494 607.765)" fill="#fff"/><path d="M-939.842-636.846a1.373,1.373,0,0,1,1.382-1.382,1.394,1.394,0,0,1,1.405,1.415,1.378,1.378,0,0,1-1.438,1.375A1.358,1.358,0,0,1-939.842-636.846Z" transform="translate(975.804 663.558)" fill="#fff"/><path d="M-961.706-722.416a1.355,1.355,0,0,1-1.383-1.375,1.376,1.376,0,0,1,1.395-1.42,1.412,1.412,0,0,1,1.4,1.386A1.375,1.375,0,0,1-961.706-722.416Z" transform="translate(996.165 739.741)" fill="#fff"/><path d="M-1048.478-745.677a1.365,1.365,0,0,1-1.376-1.43,1.377,1.377,0,0,1,1.4-1.364,1.4,1.4,0,0,1,1.384,1.39A1.376,1.376,0,0,1-1048.478-745.677Z" transform="translate(1072.158 760.114)" fill="#fff"/></g></g></g></svg>