<svg xmlns="http://www.w3.org/2000/svg" xmlns:xlink="http://www.w3.org/1999/xlink" width="407.307" height="287" viewBox="0 0 407.307 287"><defs><clipPath id="a"><rect y="39" width="227.803" height="175.167" fill="none"/></clipPath></defs><g transform="translate(-861.774 -1701)"><circle cx="143.5" cy="143.5" r="143.5" transform="translate(932.961 1701)" fill="#fff"/><g transform="translate(1041.278 1662.709)" clip-path="url(#a)" style="isolation:isolate"><path d="M83.349,30.012a20,20,0,0,1,34.644,0l66.036,114.415a20,20,0,0,1-17.322,30H34.635a20,20,0,0,1-17.322-30Z" transform="matrix(0.848, -0.53, 0.53, 0.848, -22.99, 81.986)" fill="#489ddc"/></g><g transform="translate(861.774 1806.163)"><path d="M243.612,121.547a1.917,1.917,0,1,0,1.917-1.917A1.917,1.917,0,0,0,243.612,121.547Z" transform="translate(-59.595 -119.63)" fill="#489ddc"/><circle cx="1.917" cy="1.917" r="1.917" transform="translate(163.571 0)" fill="#489ddc"/><circle cx="1.917" cy="1.917" r="1.917" transform="translate(143.125 0)" fill="#489ddc"/><circle cx="1.917" cy="1.917" r="1.917" transform="translate(122.678 0)" fill="#489ddc"/><path d="M166.024,121.547a1.916,1.916,0,1,0,1.916-1.917A1.916,1.916,0,0,0,166.024,121.547Z" transform="translate(-63.792 -119.63)" fill="#489ddc"/><circle cx="1.917" cy="1.917" r="1.917" transform="translate(81.785 0)" fill="#489ddc"/><circle cx="1.917" cy="1.917" r="1.917" transform="translate(61.339 0)" fill="#489ddc"/><circle cx="1.917" cy="1.917" r="1.917" transform="translate(40.893 0)" fill="#489ddc"/><circle cx="1.917" cy="1.917" r="1.917" transform="translate(20.446 0)" fill="#489ddc"/><circle cx="1.917" cy="1.917" r="1.917" transform="translate(0 0)" fill="#489ddc"/><g transform="translate(26.836 24.28)"><circle cx="1.917" cy="1.917" r="1.917" transform="translate(184.017 0)" fill="#489ddc"/><path d="M249.674,144.581a1.917,1.917,0,1,0,1.916-1.917A1.916,1.916,0,0,0,249.674,144.581Z" transform="translate(-86.103 -142.664)" fill="#489ddc"/><circle cx="1.917" cy="1.917" r="1.917" transform="translate(143.124 0)" fill="#489ddc"/><circle cx="1.917" cy="1.917" r="1.917" transform="translate(122.678 0)" fill="#489ddc"/><circle cx="1.917" cy="1.917" r="1.917" transform="translate(102.232 0)" fill="#489ddc"/><path d="M172.085,144.581A1.917,1.917,0,1,0,174,142.664,1.917,1.917,0,0,0,172.085,144.581Z" transform="translate(-90.3 -142.664)" fill="#489ddc"/><circle cx="1.917" cy="1.917" r="1.917" transform="translate(61.339 0)" fill="#489ddc"/><circle cx="1.917" cy="1.917" r="1.917" transform="translate(40.893 0)" fill="#489ddc"/><circle cx="1.917" cy="1.917" r="1.917" transform="translate(20.446 0)" fill="#489ddc"/><circle cx="1.917" cy="1.917" r="1.917" transform="translate(0 0)" fill="#489ddc"/></g><g transform="translate(0 48.56)"><path d="M243.612,167.615a1.917,1.917,0,1,0,1.917-1.916A1.918,1.918,0,0,0,243.612,167.615Z" transform="translate(-59.595 -165.699)" fill="#489ddc"/><circle cx="1.917" cy="1.917" r="1.917" transform="translate(163.571)" fill="#489ddc"/><circle cx="1.917" cy="1.917" r="1.917" transform="translate(143.125)" fill="#489ddc"/><circle cx="1.917" cy="1.917" r="1.917" transform="translate(122.678)" fill="#489ddc"/><path d="M166.024,167.615a1.916,1.916,0,1,0,1.916-1.916A1.917,1.917,0,0,0,166.024,167.615Z" transform="translate(-63.792 -165.699)" fill="#489ddc"/><circle cx="1.917" cy="1.917" r="1.917" transform="translate(81.785)" fill="#489ddc"/><circle cx="1.917" cy="1.917" r="1.917" transform="translate(61.339)" fill="#489ddc"/><circle cx="1.917" cy="1.917" r="1.917" transform="translate(40.893)" fill="#489ddc"/><circle cx="1.917" cy="1.917" r="1.917" transform="translate(20.446)" fill="#489ddc"/><circle cx="1.917" cy="1.917" r="1.917" fill="#489ddc"/></g><g transform="translate(26.836 72.84)"><circle cx="1.917" cy="1.917" r="1.917" transform="translate(184.017)" fill="#489ddc"/><path d="M249.674,190.649a1.917,1.917,0,1,0,1.916-1.916A1.917,1.917,0,0,0,249.674,190.649Z" transform="translate(-86.103 -188.733)" fill="#489ddc"/><circle cx="1.917" cy="1.917" r="1.917" transform="translate(143.124)" fill="#489ddc"/><circle cx="1.917" cy="1.917" r="1.917" transform="translate(122.678)" fill="#489ddc"/><circle cx="1.917" cy="1.917" r="1.917" transform="translate(102.232)" fill="#489ddc"/><path d="M172.085,190.649A1.917,1.917,0,1,0,174,188.733,1.917,1.917,0,0,0,172.085,190.649Z" transform="translate(-90.3 -188.733)" fill="#489ddc"/><circle cx="1.917" cy="1.917" r="1.917" transform="translate(61.339)" fill="#489ddc"/><circle cx="1.917" cy="1.917" r="1.917" transform="translate(40.893)" fill="#489ddc"/><circle cx="1.917" cy="1.917" r="1.917" transform="translate(20.446)" fill="#489ddc"/><circle cx="1.917" cy="1.917" r="1.917" fill="#489ddc"/></g></g><g transform="translate(1141.379 1899.682)"><path d="M767.228,166.316c0,1.906-5.182,1.906-5.182,3.813s5.182,1.906,5.182,3.813-5.182,1.906-5.182,3.812,5.182,1.906,5.182,3.813-5.182,1.906-5.182,3.813,5.182,1.91,5.182,3.82-5.182,1.91-5.182,3.821" transform="translate(-762.046 -166.316)" fill="none" stroke="#489ddc" stroke-miterlimit="10" stroke-width="0.781"/><g transform="translate(11.815 11.815)"><path d="M779.691,178.779c0,1.906-5.182,1.906-5.182,3.813s5.182,1.907,5.182,3.813-5.182,1.906-5.182,3.812,5.182,1.906,5.182,3.812-5.182,1.907-5.182,3.814,5.182,1.91,5.182,3.82-5.182,1.91-5.182,3.82" transform="translate(-774.509 -178.779)" fill="none" stroke="#489ddc" stroke-miterlimit="10" stroke-width="0.781"/></g></g><g transform="translate(-2269.405 -4961.887)"><g transform="translate(3403 6721)"><g transform="translate(0 0)"><path d="M-537.7-1337.449a24.021,24.021,0,0,1-2.7-.706,11.436,11.436,0,0,1-7.661-9.445,11.042,11.042,0,0,1,.584-5.593c.109-.3.167-.5-.2-.694-3.3-1.746-6.589-3.511-9.882-5.27a.509.509,0,0,0-.136-.047,33.5,33.5,0,0,1-2.613,2.8,13.455,13.455,0,0,1-13.512,2.851,13.487,13.487,0,0,1-9.532-10.547,13.359,13.359,0,0,1,1.262-9.2,1.731,1.731,0,0,1,.935-.826,1.118,1.118,0,0,1,1.241,1.6c-.267.716-.618,1.4-.842,2.131a11.609,11.609,0,0,0,.715,8.755c.04.082.091.158.169.293a6.952,6.952,0,0,1,5.306-4.307,13.813,13.813,0,0,1-.81-2.247c-.418-2.335-.278-4.564,1.414-6.479a5.9,5.9,0,0,1,9.463,1.025,7.512,7.512,0,0,1-.055,7.363l-.16.312a7.029,7.029,0,0,1,5.405,4.358,10.523,10.523,0,0,0,1.334-4.114,11.525,11.525,0,0,0-3.795-10.192,11.828,11.828,0,0,0-12.716-1.936c-.208.1-.412.205-.623.293a1.179,1.179,0,0,1-1.626-.491,1.117,1.117,0,0,1,.659-1.6,19.99,19.99,0,0,1,3.945-1.334c5.808-.951,10.494,1.009,14.029,5.716.069.092.138.184.209.274a1.156,1.156,0,0,0,.125.107c.131-.058.287-.116.433-.194,3.174-1.7,6.343-3.4,9.527-5.079.42-.221.466-.423.314-.841a11.5,11.5,0,0,1,.021-7.982,1.184,1.184,0,0,1,1.537-.9,1.162,1.162,0,0,1,.661,1.649,9.42,9.42,0,0,0,.444,7.574c.05.1.112.194.222.383a5.634,5.634,0,0,1,3.983-3.419,6.373,6.373,0,0,1-.423-4.768,4.758,4.758,0,0,1,5.114-3.463,4.861,4.861,0,0,1,4.321,4.623,6.256,6.256,0,0,1-.634,3.6,5.623,5.623,0,0,1,3.966,3.432,8.11,8.11,0,0,0,1.163-3.413,9.14,9.14,0,0,0-4.606-9.371,8.983,8.983,0,0,0-7.252-.94c-.368.1-.728.233-1.1.318a1.138,1.138,0,0,1-1.385-.711,1.112,1.112,0,0,1,.693-1.452,13.088,13.088,0,0,1,2.479-.692,11.482,11.482,0,0,1,9.945,3.1,11.351,11.351,0,0,1,3.534,6.921,1.513,1.513,0,0,0,.113.308v2.533a.986.986,0,0,0-.108.251,11.743,11.743,0,0,1-2.331,5.664,11.025,11.025,0,0,1-2.227,2.224,11.747,11.747,0,0,1-13.945.1,40.706,40.706,0,0,1-3.066-2.869l-10.316,5.516a14.2,14.2,0,0,1,0,11.157l10.481,5.6c.152-.2.258-.334.36-.473a11.733,11.733,0,0,1,13.45-4.02c.8.295,1.137.857.922,1.526s-.809.927-1.636.7a18.2,18.2,0,0,0-1.829-.466,8.988,8.988,0,0,0-7.239,1.841,9.117,9.117,0,0,0-3.576,8.714,7.95,7.95,0,0,0,1.167,3.379,5.647,5.647,0,0,1,4-3.443,5.975,5.975,0,0,1-.657-3.743,4.839,4.839,0,0,1,4.287-4.468,4.778,4.778,0,0,1,5.116,3.388,6.406,6.406,0,0,1-.408,4.837,5.651,5.651,0,0,1,3.986,3.445,8.814,8.814,0,0,0,1.206-5.318c-.115-1.036-.438-2.048-.646-3.075a1.108,1.108,0,0,1,1.16-1.347,1.152,1.152,0,0,1,1.1.931c.276.948.5,1.911.751,2.868v2.532a2.594,2.594,0,0,0-.11.38,11.71,11.71,0,0,1-8.481,9.662c-.622.167-1.256.291-1.884.434Z" transform="translate(583.67 1396.387)" fill="#fff"/><path d="M-314.774-1374.836a1.166,1.166,0,0,1,1.128,1.145,1.172,1.172,0,0,1-1.184,1.151,1.146,1.146,0,0,1-1.111-1.209A1.129,1.129,0,0,1-314.774-1374.836Z" transform="translate(354.543 1377.943)" fill="#fff"/><path d="M-557.181-1261.987a1.118,1.118,0,0,1,1.1-1.158,1.176,1.176,0,0,1,1.21,1.126,1.206,1.206,0,0,1-1.175,1.178A1.172,1.172,0,0,1-557.181-1261.987Z" transform="translate(561 1282.356)" fill="#fff"/><path d="M-209.8-1127.75a1.15,1.15,0,0,1-1.138,1.13,1.166,1.166,0,0,1-1.159-1.175,1.151,1.151,0,0,1,1.205-1.119A1.124,1.124,0,0,1-209.8-1127.75Z" transform="translate(265.668 1167.479)" fill="#fff"/></g></g></g></g></svg>