<svg xmlns="http://www.w3.org/2000/svg" xmlns:xlink="http://www.w3.org/1999/xlink" width="407.307" height="287" viewBox="0 0 407.307 287"><defs><clipPath id="a"><rect y="39" width="227.803" height="177.167" fill="none"/></clipPath></defs><g transform="translate(-861.774 -1701)"><circle cx="143.5" cy="143.5" r="143.5" transform="translate(932.961 1701)" fill="#fff"/><g transform="translate(1041.278 1662.709)" clip-path="url(#a)" style="isolation:isolate"><path d="M83.349,30.012a20,20,0,0,1,34.644,0l66.036,114.415a20,20,0,0,1-17.322,30H34.635a20,20,0,0,1-17.322-30Z" transform="matrix(0.848, -0.53, 0.53, 0.848, -22.99, 81.986)" fill="#2d2d2d"/></g><g transform="translate(861.774 1806.163)"><path d="M243.612,121.547a1.917,1.917,0,1,0,1.917-1.917A1.917,1.917,0,0,0,243.612,121.547Z" transform="translate(-59.595 -119.63)" fill="#489ddc"/><circle cx="1.917" cy="1.917" r="1.917" transform="translate(163.571 0)" fill="#489ddc"/><circle cx="1.917" cy="1.917" r="1.917" transform="translate(143.125 0)" fill="#489ddc"/><circle cx="1.917" cy="1.917" r="1.917" transform="translate(122.678 0)" fill="#489ddc"/><path d="M166.024,121.547a1.916,1.916,0,1,0,1.916-1.917A1.916,1.916,0,0,0,166.024,121.547Z" transform="translate(-63.792 -119.63)" fill="#489ddc"/><circle cx="1.917" cy="1.917" r="1.917" transform="translate(81.785 0)" fill="#489ddc"/><circle cx="1.917" cy="1.917" r="1.917" transform="translate(61.339 0)" fill="#489ddc"/><circle cx="1.917" cy="1.917" r="1.917" transform="translate(40.893 0)" fill="#489ddc"/><circle cx="1.917" cy="1.917" r="1.917" transform="translate(20.446 0)" fill="#489ddc"/><circle cx="1.917" cy="1.917" r="1.917" transform="translate(0 0)" fill="#489ddc"/><g transform="translate(26.836 24.28)"><circle cx="1.917" cy="1.917" r="1.917" transform="translate(184.017 0)" fill="#489ddc"/><path d="M249.674,144.581a1.917,1.917,0,1,0,1.916-1.917A1.916,1.916,0,0,0,249.674,144.581Z" transform="translate(-86.103 -142.664)" fill="#489ddc"/><circle cx="1.917" cy="1.917" r="1.917" transform="translate(143.124 0)" fill="#489ddc"/><circle cx="1.917" cy="1.917" r="1.917" transform="translate(122.678 0)" fill="#489ddc"/><circle cx="1.917" cy="1.917" r="1.917" transform="translate(102.232 0)" fill="#489ddc"/><path d="M172.085,144.581A1.917,1.917,0,1,0,174,142.664,1.917,1.917,0,0,0,172.085,144.581Z" transform="translate(-90.3 -142.664)" fill="#489ddc"/><circle cx="1.917" cy="1.917" r="1.917" transform="translate(61.339 0)" fill="#489ddc"/><circle cx="1.917" cy="1.917" r="1.917" transform="translate(40.893 0)" fill="#489ddc"/><circle cx="1.917" cy="1.917" r="1.917" transform="translate(20.446 0)" fill="#489ddc"/><circle cx="1.917" cy="1.917" r="1.917" transform="translate(0 0)" fill="#489ddc"/></g><g transform="translate(0 48.56)"><path d="M243.612,167.615a1.917,1.917,0,1,0,1.917-1.916A1.918,1.918,0,0,0,243.612,167.615Z" transform="translate(-59.595 -165.699)" fill="#489ddc"/><circle cx="1.917" cy="1.917" r="1.917" transform="translate(163.571)" fill="#489ddc"/><circle cx="1.917" cy="1.917" r="1.917" transform="translate(143.125)" fill="#489ddc"/><circle cx="1.917" cy="1.917" r="1.917" transform="translate(122.678)" fill="#489ddc"/><path d="M166.024,167.615a1.916,1.916,0,1,0,1.916-1.916A1.917,1.917,0,0,0,166.024,167.615Z" transform="translate(-63.792 -165.699)" fill="#489ddc"/><circle cx="1.917" cy="1.917" r="1.917" transform="translate(81.785)" fill="#489ddc"/><circle cx="1.917" cy="1.917" r="1.917" transform="translate(61.339)" fill="#489ddc"/><circle cx="1.917" cy="1.917" r="1.917" transform="translate(40.893)" fill="#489ddc"/><circle cx="1.917" cy="1.917" r="1.917" transform="translate(20.446)" fill="#489ddc"/><circle cx="1.917" cy="1.917" r="1.917" fill="#489ddc"/></g><g transform="translate(26.836 72.84)"><circle cx="1.917" cy="1.917" r="1.917" transform="translate(184.017)" fill="#489ddc"/><path d="M249.674,190.649a1.917,1.917,0,1,0,1.916-1.916A1.917,1.917,0,0,0,249.674,190.649Z" transform="translate(-86.103 -188.733)" fill="#489ddc"/><circle cx="1.917" cy="1.917" r="1.917" transform="translate(143.124)" fill="#489ddc"/><circle cx="1.917" cy="1.917" r="1.917" transform="translate(122.678)" fill="#489ddc"/><circle cx="1.917" cy="1.917" r="1.917" transform="translate(102.232)" fill="#489ddc"/><path d="M172.085,190.649A1.917,1.917,0,1,0,174,188.733,1.917,1.917,0,0,0,172.085,190.649Z" transform="translate(-90.3 -188.733)" fill="#489ddc"/><circle cx="1.917" cy="1.917" r="1.917" transform="translate(61.339)" fill="#489ddc"/><circle cx="1.917" cy="1.917" r="1.917" transform="translate(40.893)" fill="#489ddc"/><circle cx="1.917" cy="1.917" r="1.917" transform="translate(20.446)" fill="#489ddc"/><circle cx="1.917" cy="1.917" r="1.917" fill="#489ddc"/></g></g><g transform="translate(1141.379 1899.682)"><path d="M767.228,166.316c0,1.906-5.182,1.906-5.182,3.813s5.182,1.906,5.182,3.813-5.182,1.906-5.182,3.812,5.182,1.906,5.182,3.813-5.182,1.906-5.182,3.813,5.182,1.91,5.182,3.82-5.182,1.91-5.182,3.821" transform="translate(-762.046 -166.316)" fill="none" stroke="#489ddc" stroke-miterlimit="10" stroke-width="0.781"/><g transform="translate(11.815 11.815)"><path d="M779.691,178.779c0,1.906-5.182,1.906-5.182,3.813s5.182,1.907,5.182,3.813-5.182,1.906-5.182,3.812,5.182,1.906,5.182,3.812-5.182,1.907-5.182,3.814,5.182,1.91,5.182,3.82-5.182,1.91-5.182,3.82" transform="translate(-774.509 -178.779)" fill="none" stroke="#489ddc" stroke-miterlimit="10" stroke-width="0.781"/></g></g><g transform="translate(3431.211 2607.558)"><g transform="translate(-2289.833 -842.25)"><path d="M-2159.607-565.173a5.708,5.708,0,0,1-2.307-1.579c-2.056-2.02-4.134-4.016-6.208-6.017a3.367,3.367,0,0,0-.448-.319l4.638-4.627,3.2,3.077c.787-.772,1.577-1.5,2.309-2.282a1.534,1.534,0,0,0-.089-2.177q-.46-.488-.946-.952c-.322-.309-.659-.6-1.055-.963l2.689-2.04a30.621,30.621,0,0,1,2.1,2.259,4.7,4.7,0,0,1-.336,6.1c-.733.781-1.536,1.5-2.313,2.25.618.637,1.175,1.207,1.726,1.781a3.2,3.2,0,0,1-.3,4.784,7.98,7.98,0,0,1-1.364.7Z" transform="translate(2185.943 620.185)" fill="#fff"/><path d="M-2061.386-842.25a1.939,1.939,0,0,1,1.189,2.109c-.052.873-.006,1.752-.012,2.628a1.608,1.608,0,0,1-1.6,1.709,1.587,1.587,0,0,1-1.626-1.675c-.012-.912.034-1.825-.013-2.735a1.858,1.858,0,0,1,1.207-2.036Z" transform="translate(2095.888 842.25)" fill="#fff"/><path d="M-2180.866-759.474A34.365,34.365,0,0,0-2196.9-751.7l-11.693-11.7a34.644,34.644,0,0,0,7.7-16.107Z" transform="translate(2220.231 788.496)" fill="#fff"/><path d="M-2280.461-649.143l11.379,11.377a2.282,2.282,0,0,1-.189.236c-2.542,2.545-5.074,5.1-7.632,7.628a4.793,4.793,0,0,1-6.434.514,5.8,5.8,0,0,1-.6-.533q-2.168-2.159-4.328-4.327a4.814,4.814,0,0,1,.009-7.113q3.751-3.765,7.516-7.516C-2280.641-648.978-2280.535-649.073-2280.461-649.143Zm-1.549,11.1a1.678,1.678,0,0,0,.916,1.68,1.494,1.494,0,0,0,1.782-.288c.777-.739,1.532-1.5,2.279-2.274a1.6,1.6,0,0,0,.04-2.265,1.582,1.582,0,0,0-2.3.017c-.745.722-1.493,1.443-2.192,2.209A4.01,4.01,0,0,0-2282.01-638.045Z" transform="translate(2289.833 676.808)" fill="#fff"/><path d="M-2147.111-839.294a3.283,3.283,0,0,1,2.347.959q1.087,1.078,2.166,2.164,9.552,9.552,19.105,19.1a3.209,3.209,0,0,1,.91,3.612,3.221,3.221,0,0,1-5.134,1.3c-.122-.105-.235-.22-.349-.334q-10.559-10.558-21.117-21.117a3.22,3.22,0,0,1-.68-4.051A3.161,3.161,0,0,1-2147.111-839.294Z" transform="translate(2170.294 839.718)" fill="#fff"/><path d="M-2013.758-819.894a1.708,1.708,0,0,1,1.63.9,1.455,1.455,0,0,1-.2,1.748c-1.118,1.181-2.265,2.337-3.45,3.449a1.567,1.567,0,0,1-2.183-.12,1.61,1.61,0,0,1-.009-2.231c1.082-1.117,2.177-2.222,3.306-3.291A3.052,3.052,0,0,1-2013.758-819.894Z" transform="translate(2057.296 823.097)" fill="#fff"/><path d="M-1992.589-749.046c-.519,0-1.037,0-1.556,0a1.585,1.585,0,0,1-1.677-1.624,1.579,1.579,0,0,1,1.65-1.6c1.055-.006,2.11-.008,3.166,0a1.6,1.6,0,0,1,1.636,1.622,1.6,1.6,0,0,1-1.663,1.6C-1991.551-749.042-1992.07-749.046-1992.589-749.046Z" transform="translate(2037.942 765.162)" fill="#fff"/></g></g></g></svg>