<svg xmlns="http://www.w3.org/2000/svg" xmlns:xlink="http://www.w3.org/1999/xlink" width="407.307" height="287" viewBox="0 0 407.307 287"><defs><clipPath id="a"><rect y="39" width="227.803" height="181.167" fill="none"/></clipPath></defs><g transform="translate(-861.774 -1701)"><circle cx="143.5" cy="143.5" r="143.5" transform="translate(932.961 1701)" fill="#fff"/><g transform="translate(1041.278 1662.709)" clip-path="url(#a)" style="isolation:isolate"><path d="M83.349,30.012a20,20,0,0,1,34.644,0l66.036,114.415a20,20,0,0,1-17.322,30H34.635a20,20,0,0,1-17.322-30Z" transform="matrix(0.848, -0.53, 0.53, 0.848, -22.99, 81.986)" fill="#2d2d2d"/></g><g transform="translate(861.774 1806.163)"><path d="M243.612,121.547a1.917,1.917,0,1,0,1.917-1.917A1.917,1.917,0,0,0,243.612,121.547Z" transform="translate(-59.595 -119.63)" fill="#489ddc"/><circle cx="1.917" cy="1.917" r="1.917" transform="translate(163.571 0)" fill="#489ddc"/><circle cx="1.917" cy="1.917" r="1.917" transform="translate(143.125 0)" fill="#489ddc"/><circle cx="1.917" cy="1.917" r="1.917" transform="translate(122.678 0)" fill="#489ddc"/><path d="M166.024,121.547a1.916,1.916,0,1,0,1.916-1.917A1.916,1.916,0,0,0,166.024,121.547Z" transform="translate(-63.792 -119.63)" fill="#489ddc"/><circle cx="1.917" cy="1.917" r="1.917" transform="translate(81.785 0)" fill="#489ddc"/><circle cx="1.917" cy="1.917" r="1.917" transform="translate(61.339 0)" fill="#489ddc"/><circle cx="1.917" cy="1.917" r="1.917" transform="translate(40.893 0)" fill="#489ddc"/><circle cx="1.917" cy="1.917" r="1.917" transform="translate(20.446 0)" fill="#489ddc"/><circle cx="1.917" cy="1.917" r="1.917" transform="translate(0 0)" fill="#489ddc"/><g transform="translate(26.836 24.28)"><circle cx="1.917" cy="1.917" r="1.917" transform="translate(184.017 0)" fill="#489ddc"/><path d="M249.674,144.581a1.917,1.917,0,1,0,1.916-1.917A1.916,1.916,0,0,0,249.674,144.581Z" transform="translate(-86.103 -142.664)" fill="#489ddc"/><circle cx="1.917" cy="1.917" r="1.917" transform="translate(143.124 0)" fill="#489ddc"/><circle cx="1.917" cy="1.917" r="1.917" transform="translate(122.678 0)" fill="#489ddc"/><circle cx="1.917" cy="1.917" r="1.917" transform="translate(102.232 0)" fill="#489ddc"/><path d="M172.085,144.581A1.917,1.917,0,1,0,174,142.664,1.917,1.917,0,0,0,172.085,144.581Z" transform="translate(-90.3 -142.664)" fill="#489ddc"/><circle cx="1.917" cy="1.917" r="1.917" transform="translate(61.339 0)" fill="#489ddc"/><circle cx="1.917" cy="1.917" r="1.917" transform="translate(40.893 0)" fill="#489ddc"/><circle cx="1.917" cy="1.917" r="1.917" transform="translate(20.446 0)" fill="#489ddc"/><circle cx="1.917" cy="1.917" r="1.917" transform="translate(0 0)" fill="#489ddc"/></g><g transform="translate(0 48.56)"><path d="M243.612,167.615a1.917,1.917,0,1,0,1.917-1.916A1.918,1.918,0,0,0,243.612,167.615Z" transform="translate(-59.595 -165.699)" fill="#489ddc"/><circle cx="1.917" cy="1.917" r="1.917" transform="translate(163.571)" fill="#489ddc"/><circle cx="1.917" cy="1.917" r="1.917" transform="translate(143.125)" fill="#489ddc"/><circle cx="1.917" cy="1.917" r="1.917" transform="translate(122.678)" fill="#489ddc"/><path d="M166.024,167.615a1.916,1.916,0,1,0,1.916-1.916A1.917,1.917,0,0,0,166.024,167.615Z" transform="translate(-63.792 -165.699)" fill="#489ddc"/><circle cx="1.917" cy="1.917" r="1.917" transform="translate(81.785)" fill="#489ddc"/><circle cx="1.917" cy="1.917" r="1.917" transform="translate(61.339)" fill="#489ddc"/><circle cx="1.917" cy="1.917" r="1.917" transform="translate(40.893)" fill="#489ddc"/><circle cx="1.917" cy="1.917" r="1.917" transform="translate(20.446)" fill="#489ddc"/><circle cx="1.917" cy="1.917" r="1.917" fill="#489ddc"/></g><g transform="translate(26.836 72.84)"><circle cx="1.917" cy="1.917" r="1.917" transform="translate(184.017)" fill="#489ddc"/><path d="M249.674,190.649a1.917,1.917,0,1,0,1.916-1.916A1.917,1.917,0,0,0,249.674,190.649Z" transform="translate(-86.103 -188.733)" fill="#489ddc"/><circle cx="1.917" cy="1.917" r="1.917" transform="translate(143.124)" fill="#489ddc"/><circle cx="1.917" cy="1.917" r="1.917" transform="translate(122.678)" fill="#489ddc"/><circle cx="1.917" cy="1.917" r="1.917" transform="translate(102.232)" fill="#489ddc"/><path d="M172.085,190.649A1.917,1.917,0,1,0,174,188.733,1.917,1.917,0,0,0,172.085,190.649Z" transform="translate(-90.3 -188.733)" fill="#489ddc"/><circle cx="1.917" cy="1.917" r="1.917" transform="translate(61.339)" fill="#489ddc"/><circle cx="1.917" cy="1.917" r="1.917" transform="translate(40.893)" fill="#489ddc"/><circle cx="1.917" cy="1.917" r="1.917" transform="translate(20.446)" fill="#489ddc"/><circle cx="1.917" cy="1.917" r="1.917" fill="#489ddc"/></g></g><g transform="translate(1141.379 1899.682)"><path d="M767.228,166.316c0,1.906-5.182,1.906-5.182,3.813s5.182,1.906,5.182,3.813-5.182,1.906-5.182,3.812,5.182,1.906,5.182,3.813-5.182,1.906-5.182,3.813,5.182,1.91,5.182,3.82-5.182,1.91-5.182,3.821" transform="translate(-762.046 -166.316)" fill="none" stroke="#489ddc" stroke-miterlimit="10" stroke-width="0.781"/><g transform="translate(11.815 11.815)"><path d="M779.691,178.779c0,1.906-5.182,1.906-5.182,3.813s5.182,1.907,5.182,3.813-5.182,1.906-5.182,3.812,5.182,1.906,5.182,3.812-5.182,1.907-5.182,3.814,5.182,1.91,5.182,3.82-5.182,1.91-5.182,3.82" transform="translate(-774.509 -178.779)" fill="none" stroke="#489ddc" stroke-miterlimit="10" stroke-width="0.781"/></g></g><g transform="translate(3259.962 768.212)"><g transform="translate(-2112.904 997.096)"><path d="M-2097.914,1159.693l2.01-.264c.008.166.028.393.029.62q0,10.7,0,21.405c0,.894.007.9.885.9h27.323c.853,0,.87-.015.87-.859q0-10.7,0-21.405v-.665l2.074.27v.479c0,8.2-.024,16.409.016,24.613a3.8,3.8,0,0,1-3.036,3.915,4.482,4.482,0,0,1-.769.058q-12.832,0-25.664,0a3.635,3.635,0,0,1-3.763-3.713q-.025-12.528-.006-25.056A2.287,2.287,0,0,1-2097.914,1159.693Zm17.293,25.449a1.249,1.249,0,0,0-1.229-1.236,1.288,1.288,0,0,0-1.234,1.248,1.232,1.232,0,0,0,1.246,1.211A1.19,1.19,0,0,0-2080.62,1185.142Z" transform="translate(2100.158 -1135.43)" fill="#fff"/><path d="M-2097.911,1007.6c0-2.414-.048-4.829.016-7.241a3.6,3.6,0,0,1,3.529-3.251c2.894-.017,5.788-.006,8.682-.006q8.544,0,17.088,0a3.664,3.664,0,0,1,3.886,3.815c.018,2.175,0,4.35,0,6.526,0,.054-.014.109-.036.267-.121-.194-.21-.314-.276-.445-.566-1.116-1.139-2.228-1.683-3.355a.642.642,0,0,0-.679-.41q-13.936.013-27.872,0a.675.675,0,0,0-.7.459c-.6,1.234-1.235,2.453-1.857,3.677Zm16.629-6.933c-.734,0-1.47-.03-2.2.019-.21.014-.546.225-.579.393-.072.37.273.408.56.408q2.175,0,4.351,0c.283,0,.593-.011.6-.4s-.294-.419-.582-.421C-2079.85,1000.66-2080.566,1000.664-2081.282,1000.664Z" transform="translate(2100.142 -997.096)" fill="#fff"/><path d="M-1943.431,1055.078h-5.447l-1.562-9.258c1.285,0,2.529-.006,3.773.012.094,0,.231.163.27.277q1.485,4.382,2.949,8.771A1.032,1.032,0,0,1-1943.431,1055.078Z" transform="translate(1974.456 -1038.617)" fill="#fff"/><path d="M-2061.415,1045.744l-1.562,9.259h-5.5c.359-1.065.705-2.088,1.05-3.111.638-1.9,1.287-3.789,1.9-5.692a.564.564,0,0,1,.659-.466C-2063.732,1045.76-2062.6,1045.744-2061.415,1045.744Z" transform="translate(2075.047 -1038.544)" fill="#fff"/><path d="M-2024.12,1046h3.937v9.217h-5.485Z" transform="translate(2038.563 -1038.771)" fill="#fff"/><path d="M-1982.564,1055.261v-9.217h3.936l1.553,9.217Z" transform="translate(2001.83 -1038.808)" fill="#fff"/><path d="M-2102.425,1045.741c-.374,1.107-.715,2.112-1.054,3.119-.638,1.9-1.283,3.794-1.9,5.7a.571.571,0,0,1-.656.476c-1.62-.025-3.242-.01-4.931-.01.075-.193.12-.345.19-.484,1.409-2.79,2.827-5.576,4.225-8.372a.667.667,0,0,1,.712-.437C-2104.737,1045.759-2103.633,1045.741-2102.425,1045.741Z" transform="translate(2111.254 -1038.542)" fill="#fff"/><path d="M-1917.75,1045.792c1.253,0,2.413-.009,3.573.011a.566.566,0,0,1,.42.244q2.245,4.4,4.457,8.813a.851.851,0,0,1,.028.214h-4.088c-1.29,0-1.289,0-1.7-1.223q-1.243-3.68-2.488-7.36C-1917.618,1046.286-1917.669,1046.075-1917.75,1045.792Z" transform="translate(1946.597 -1038.592)" fill="#fff"/><path d="M-2026.122,1114.174h5.465a31.079,31.079,0,0,1-.036,3.965,2.643,2.643,0,0,1-2.949,2.1,2.719,2.719,0,0,1-2.511-2.623c-.037-1.068-.013-2.138-.013-3.207A1.411,1.411,0,0,1-2026.122,1114.174Z" transform="translate(2038.995 -1096.868)" fill="#fff"/><path d="M-1982.769,1114.123h5.5a30.383,30.383,0,0,1-.037,3.969,2.636,2.636,0,0,1-2.945,2.1,2.714,2.714,0,0,1-2.512-2.62C-1982.8,1116.44-1982.769,1115.3-1982.769,1114.123Z" transform="translate(2002.016 -1096.824)" fill="#fff"/><path d="M-1896,1114.178h5.512a32.3,32.3,0,0,1-.034,3.911,2.657,2.657,0,0,1-2.857,2.167,2.7,2.7,0,0,1-2.608-2.526C-1896.054,1116.56-1896,1115.383-1896,1114.178Z" transform="translate(1928.08 -1096.871)" fill="#fff"/><path d="M-1939.314,1114.168h5.522c0,1.3.09,2.571-.025,3.826a2.711,2.711,0,0,1-2.795,2.26,2.717,2.717,0,0,1-2.687-2.443C-1939.367,1116.62-1939.314,1115.421-1939.314,1114.168Z" transform="translate(1964.99 -1096.863)" fill="#fff"/><path d="M-2112.9,1114.127h5.637a31.676,31.676,0,0,1-.2,4.071,2.622,2.622,0,0,1-3.075,1.983,2.735,2.735,0,0,1-2.353-2.655C-2112.915,1116.406-2112.9,1115.286-2112.9,1114.127Z" transform="translate(2112.904 -1096.828)" fill="#fff"/><path d="M-2069.52,1114.132h5.488a28.572,28.572,0,0,1-.04,4.022,2.618,2.618,0,0,1-3.037,2.036,2.724,2.724,0,0,1-2.4-2.663C-2069.542,1116.408-2069.52,1115.288-2069.52,1114.132Z" transform="translate(2075.94 -1096.832)" fill="#fff"/></g></g></g></svg>