<svg xmlns="http://www.w3.org/2000/svg" xmlns:xlink="http://www.w3.org/1999/xlink" width="407.307" height="287" viewBox="0 0 407.307 287"><defs><clipPath id="a"><rect y="39" width="227.803" height="181.167" fill="none"/></clipPath></defs><g transform="translate(-861.774 -1701)"><circle cx="143.5" cy="143.5" r="143.5" transform="translate(932.961 1701)" fill="#fff"/><g transform="translate(1041.278 1662.709)" clip-path="url(#a)" style="isolation:isolate"><path d="M83.349,30.012a20,20,0,0,1,34.644,0l66.036,114.415a20,20,0,0,1-17.322,30H34.635a20,20,0,0,1-17.322-30Z" transform="matrix(0.848, -0.53, 0.53, 0.848, -22.99, 81.986)" fill="#2d2d2d"/></g><g transform="translate(861.774 1806.163)"><path d="M243.612,121.547a1.917,1.917,0,1,0,1.917-1.917A1.917,1.917,0,0,0,243.612,121.547Z" transform="translate(-59.595 -119.63)" fill="#489ddc"/><circle cx="1.917" cy="1.917" r="1.917" transform="translate(163.571 0)" fill="#489ddc"/><circle cx="1.917" cy="1.917" r="1.917" transform="translate(143.125 0)" fill="#489ddc"/><circle cx="1.917" cy="1.917" r="1.917" transform="translate(122.678 0)" fill="#489ddc"/><path d="M166.024,121.547a1.916,1.916,0,1,0,1.916-1.917A1.916,1.916,0,0,0,166.024,121.547Z" transform="translate(-63.792 -119.63)" fill="#489ddc"/><circle cx="1.917" cy="1.917" r="1.917" transform="translate(81.785 0)" fill="#489ddc"/><circle cx="1.917" cy="1.917" r="1.917" transform="translate(61.339 0)" fill="#489ddc"/><circle cx="1.917" cy="1.917" r="1.917" transform="translate(40.893 0)" fill="#489ddc"/><circle cx="1.917" cy="1.917" r="1.917" transform="translate(20.446 0)" fill="#489ddc"/><circle cx="1.917" cy="1.917" r="1.917" transform="translate(0 0)" fill="#489ddc"/><g transform="translate(26.836 24.28)"><circle cx="1.917" cy="1.917" r="1.917" transform="translate(184.017 0)" fill="#489ddc"/><path d="M249.674,144.581a1.917,1.917,0,1,0,1.916-1.917A1.916,1.916,0,0,0,249.674,144.581Z" transform="translate(-86.103 -142.664)" fill="#489ddc"/><circle cx="1.917" cy="1.917" r="1.917" transform="translate(143.124 0)" fill="#489ddc"/><circle cx="1.917" cy="1.917" r="1.917" transform="translate(122.678 0)" fill="#489ddc"/><circle cx="1.917" cy="1.917" r="1.917" transform="translate(102.232 0)" fill="#489ddc"/><path d="M172.085,144.581A1.917,1.917,0,1,0,174,142.664,1.917,1.917,0,0,0,172.085,144.581Z" transform="translate(-90.3 -142.664)" fill="#489ddc"/><circle cx="1.917" cy="1.917" r="1.917" transform="translate(61.339 0)" fill="#489ddc"/><circle cx="1.917" cy="1.917" r="1.917" transform="translate(40.893 0)" fill="#489ddc"/><circle cx="1.917" cy="1.917" r="1.917" transform="translate(20.446 0)" fill="#489ddc"/><circle cx="1.917" cy="1.917" r="1.917" transform="translate(0 0)" fill="#489ddc"/></g><g transform="translate(0 48.56)"><path d="M243.612,167.615a1.917,1.917,0,1,0,1.917-1.916A1.918,1.918,0,0,0,243.612,167.615Z" transform="translate(-59.595 -165.699)" fill="#489ddc"/><circle cx="1.917" cy="1.917" r="1.917" transform="translate(163.571)" fill="#489ddc"/><circle cx="1.917" cy="1.917" r="1.917" transform="translate(143.125)" fill="#489ddc"/><circle cx="1.917" cy="1.917" r="1.917" transform="translate(122.678)" fill="#489ddc"/><path d="M166.024,167.615a1.916,1.916,0,1,0,1.916-1.916A1.917,1.917,0,0,0,166.024,167.615Z" transform="translate(-63.792 -165.699)" fill="#489ddc"/><circle cx="1.917" cy="1.917" r="1.917" transform="translate(81.785)" fill="#489ddc"/><circle cx="1.917" cy="1.917" r="1.917" transform="translate(61.339)" fill="#489ddc"/><circle cx="1.917" cy="1.917" r="1.917" transform="translate(40.893)" fill="#489ddc"/><circle cx="1.917" cy="1.917" r="1.917" transform="translate(20.446)" fill="#489ddc"/><circle cx="1.917" cy="1.917" r="1.917" fill="#489ddc"/></g><g transform="translate(26.836 72.84)"><circle cx="1.917" cy="1.917" r="1.917" transform="translate(184.017)" fill="#489ddc"/><path d="M249.674,190.649a1.917,1.917,0,1,0,1.916-1.916A1.917,1.917,0,0,0,249.674,190.649Z" transform="translate(-86.103 -188.733)" fill="#489ddc"/><circle cx="1.917" cy="1.917" r="1.917" transform="translate(143.124)" fill="#489ddc"/><circle cx="1.917" cy="1.917" r="1.917" transform="translate(122.678)" fill="#489ddc"/><circle cx="1.917" cy="1.917" r="1.917" transform="translate(102.232)" fill="#489ddc"/><path d="M172.085,190.649A1.917,1.917,0,1,0,174,188.733,1.917,1.917,0,0,0,172.085,190.649Z" transform="translate(-90.3 -188.733)" fill="#489ddc"/><circle cx="1.917" cy="1.917" r="1.917" transform="translate(61.339)" fill="#489ddc"/><circle cx="1.917" cy="1.917" r="1.917" transform="translate(40.893)" fill="#489ddc"/><circle cx="1.917" cy="1.917" r="1.917" transform="translate(20.446)" fill="#489ddc"/><circle cx="1.917" cy="1.917" r="1.917" fill="#489ddc"/></g></g><g transform="translate(1141.379 1899.682)"><path d="M767.228,166.316c0,1.906-5.182,1.906-5.182,3.813s5.182,1.906,5.182,3.813-5.182,1.906-5.182,3.812,5.182,1.906,5.182,3.813-5.182,1.906-5.182,3.813,5.182,1.91,5.182,3.82-5.182,1.91-5.182,3.821" transform="translate(-762.046 -166.316)" fill="none" stroke="#489ddc" stroke-miterlimit="10" stroke-width="0.781"/><g transform="translate(11.815 11.815)"><path d="M779.691,178.779c0,1.906-5.182,1.906-5.182,3.813s5.182,1.907,5.182,3.813-5.182,1.906-5.182,3.812,5.182,1.906,5.182,3.812-5.182,1.907-5.182,3.814,5.182,1.91,5.182,3.82-5.182,1.91-5.182,3.82" transform="translate(-774.509 -178.779)" fill="none" stroke="#489ddc" stroke-miterlimit="10" stroke-width="0.781"/></g></g><g transform="translate(3006.809 2610.239)"><g transform="translate(-1858.72 -841.72)"><path d="M-1825.913-797.977h-21.872a7.7,7.7,0,0,1,.39-1.6,3.557,3.557,0,0,1,3.41-2.063c1.609-.021,3.218,0,4.826-.006.149,0,.3-.012.447-.019v-3.588h-.524q-7.752,0-15.5-.006a4.717,4.717,0,0,1-1.222-.136,3.613,3.613,0,0,1-2.759-3.687q0-14.414,0-28.828a4.524,4.524,0,0,1,.037-.681,3.646,3.646,0,0,1,3.769-3.132q18.066,0,36.132,0c.128,0,.257,0,.384.008a3.739,3.739,0,0,1,2.068.812,4.2,4.2,0,0,1,1.351,2.255V-808.4a.84.84,0,0,0-.06.151,3.792,3.792,0,0,1-3.982,3.011c-5.151-.034-10.3-.011-15.452-.011h-.509v3.6h.491c1.594,0,3.188-.009,4.781,0A3.668,3.668,0,0,1-1825.913-797.977Zm-7.725-33.7c-.843,0-1.6.016-2.347-.007-.33-.01-.462.09-.535.424q-1.5,6.838-3.035,13.671c-.165.743-.323,1.487-.491,2.261h2.773Zm-10.315,3.806-1.907-1.918c-.053.049-.138.124-.217.2q-2.312,2.31-4.621,4.622a1.851,1.851,0,0,0,0,2.941q2.294,2.3,4.591,4.591c.1.1.2.188.242.228l1.947-1.962-4.389-4.364Zm14.114.042,4.47,4.4-4.344,4.312,1.947,1.939a2.158,2.158,0,0,1,.219-.293q2.261-2.27,4.527-4.534a1.858,1.858,0,0,0,.009-2.97q-2.293-2.3-4.591-4.591c-.1-.1-.2-.182-.261-.238Z" transform="translate(1858.72 841.72)" fill="#fff"/></g></g></g></svg>