<svg xmlns="http://www.w3.org/2000/svg" xmlns:xlink="http://www.w3.org/1999/xlink" width="407.307" height="287" viewBox="0 0 407.307 287"><defs><clipPath id="a"><rect y="43" width="227.803" height="173.167" fill="none"/></clipPath></defs><g transform="translate(-861.774 -1701)"><circle cx="143.5" cy="143.5" r="143.5" transform="translate(932.961 1701)" fill="#fff"/><g transform="translate(1041.278 1662.709)" clip-path="url(#a)" style="isolation:isolate"><path d="M83.349,30.012a20,20,0,0,1,34.644,0l66.036,114.415a20,20,0,0,1-17.322,30H34.635a20,20,0,0,1-17.322-30Z" transform="matrix(0.848, -0.53, 0.53, 0.848, -22.99, 81.986)" fill="#489ddc"/></g><g transform="translate(861.774 1806.163)"><path d="M243.612,121.547a1.917,1.917,0,1,0,1.917-1.917A1.917,1.917,0,0,0,243.612,121.547Z" transform="translate(-59.595 -119.63)" fill="#489ddc"/><circle cx="1.917" cy="1.917" r="1.917" transform="translate(163.571 0)" fill="#489ddc"/><circle cx="1.917" cy="1.917" r="1.917" transform="translate(143.125 0)" fill="#489ddc"/><circle cx="1.917" cy="1.917" r="1.917" transform="translate(122.678 0)" fill="#489ddc"/><path d="M166.024,121.547a1.916,1.916,0,1,0,1.916-1.917A1.916,1.916,0,0,0,166.024,121.547Z" transform="translate(-63.792 -119.63)" fill="#489ddc"/><circle cx="1.917" cy="1.917" r="1.917" transform="translate(81.785 0)" fill="#489ddc"/><circle cx="1.917" cy="1.917" r="1.917" transform="translate(61.339 0)" fill="#489ddc"/><circle cx="1.917" cy="1.917" r="1.917" transform="translate(40.893 0)" fill="#489ddc"/><circle cx="1.917" cy="1.917" r="1.917" transform="translate(20.446 0)" fill="#489ddc"/><circle cx="1.917" cy="1.917" r="1.917" transform="translate(0 0)" fill="#489ddc"/><g transform="translate(26.836 24.28)"><circle cx="1.917" cy="1.917" r="1.917" transform="translate(184.017 0)" fill="#489ddc"/><path d="M249.674,144.581a1.917,1.917,0,1,0,1.916-1.917A1.916,1.916,0,0,0,249.674,144.581Z" transform="translate(-86.103 -142.664)" fill="#489ddc"/><circle cx="1.917" cy="1.917" r="1.917" transform="translate(143.124 0)" fill="#489ddc"/><circle cx="1.917" cy="1.917" r="1.917" transform="translate(122.678 0)" fill="#489ddc"/><circle cx="1.917" cy="1.917" r="1.917" transform="translate(102.232 0)" fill="#489ddc"/><path d="M172.085,144.581A1.917,1.917,0,1,0,174,142.664,1.917,1.917,0,0,0,172.085,144.581Z" transform="translate(-90.3 -142.664)" fill="#489ddc"/><circle cx="1.917" cy="1.917" r="1.917" transform="translate(61.339 0)" fill="#489ddc"/><circle cx="1.917" cy="1.917" r="1.917" transform="translate(40.893 0)" fill="#489ddc"/><circle cx="1.917" cy="1.917" r="1.917" transform="translate(20.446 0)" fill="#489ddc"/><circle cx="1.917" cy="1.917" r="1.917" transform="translate(0 0)" fill="#489ddc"/></g><g transform="translate(0 48.56)"><path d="M243.612,167.615a1.917,1.917,0,1,0,1.917-1.916A1.918,1.918,0,0,0,243.612,167.615Z" transform="translate(-59.595 -165.699)" fill="#489ddc"/><circle cx="1.917" cy="1.917" r="1.917" transform="translate(163.571)" fill="#489ddc"/><circle cx="1.917" cy="1.917" r="1.917" transform="translate(143.125)" fill="#489ddc"/><circle cx="1.917" cy="1.917" r="1.917" transform="translate(122.678)" fill="#489ddc"/><path d="M166.024,167.615a1.916,1.916,0,1,0,1.916-1.916A1.917,1.917,0,0,0,166.024,167.615Z" transform="translate(-63.792 -165.699)" fill="#489ddc"/><circle cx="1.917" cy="1.917" r="1.917" transform="translate(81.785)" fill="#489ddc"/><circle cx="1.917" cy="1.917" r="1.917" transform="translate(61.339)" fill="#489ddc"/><circle cx="1.917" cy="1.917" r="1.917" transform="translate(40.893)" fill="#489ddc"/><circle cx="1.917" cy="1.917" r="1.917" transform="translate(20.446)" fill="#489ddc"/><circle cx="1.917" cy="1.917" r="1.917" fill="#489ddc"/></g><g transform="translate(26.836 72.84)"><circle cx="1.917" cy="1.917" r="1.917" transform="translate(184.017)" fill="#489ddc"/><path d="M249.674,190.649a1.917,1.917,0,1,0,1.916-1.916A1.917,1.917,0,0,0,249.674,190.649Z" transform="translate(-86.103 -188.733)" fill="#489ddc"/><circle cx="1.917" cy="1.917" r="1.917" transform="translate(143.124)" fill="#489ddc"/><circle cx="1.917" cy="1.917" r="1.917" transform="translate(122.678)" fill="#489ddc"/><circle cx="1.917" cy="1.917" r="1.917" transform="translate(102.232)" fill="#489ddc"/><path d="M172.085,190.649A1.917,1.917,0,1,0,174,188.733,1.917,1.917,0,0,0,172.085,190.649Z" transform="translate(-90.3 -188.733)" fill="#489ddc"/><circle cx="1.917" cy="1.917" r="1.917" transform="translate(61.339)" fill="#489ddc"/><circle cx="1.917" cy="1.917" r="1.917" transform="translate(40.893)" fill="#489ddc"/><circle cx="1.917" cy="1.917" r="1.917" transform="translate(20.446)" fill="#489ddc"/><circle cx="1.917" cy="1.917" r="1.917" fill="#489ddc"/></g></g><g transform="translate(1141.379 1899.682)"><path d="M767.228,166.316c0,1.906-5.182,1.906-5.182,3.813s5.182,1.906,5.182,3.813-5.182,1.906-5.182,3.812,5.182,1.906,5.182,3.813-5.182,1.906-5.182,3.813,5.182,1.91,5.182,3.82-5.182,1.91-5.182,3.821" transform="translate(-762.046 -166.316)" fill="none" stroke="#489ddc" stroke-miterlimit="10" stroke-width="0.781"/><g transform="translate(11.815 11.815)"><path d="M779.691,178.779c0,1.906-5.182,1.906-5.182,3.813s5.182,1.907,5.182,3.813-5.182,1.906-5.182,3.812,5.182,1.906,5.182,3.812-5.182,1.907-5.182,3.814,5.182,1.91,5.182,3.82-5.182,1.91-5.182,3.82" transform="translate(-774.509 -178.779)" fill="none" stroke="#489ddc" stroke-miterlimit="10" stroke-width="0.781"/></g></g><g transform="translate(830.63 2607.558)"><g transform="translate(310.749 -842.25)"><path d="M310.749-706.153a1.94,1.94,0,0,1,2.043-1.195c7.158.027,14.315.015,21.473.015h.744c-.55.539-1,.963-1.428,1.4-3.386,3.447-2.459,2.016-4.3,6.556-.536,1.322-1.032,2.66-1.6,3.969a5.418,5.418,0,0,0-.3,4.172h-.622q-3.829,0-7.658,0a1.69,1.69,0,0,0-1.581.815,1.6,1.6,0,0,0,1.453,2.4c1.267.023,2.535.005,3.8.005,2.8,0,5.605-.016,8.407.008a7.789,7.789,0,0,0,3.067-.6c2.208-.9,4.446-1.733,6.635-2.678a7.1,7.1,0,0,0,2.116-1.4c3.114-3.05,6.176-6.155,9.254-9.242.126-.126.226-.277.419-.516a4.261,4.261,0,0,1,.069.472q0,14.3.006,28.6a1.77,1.77,0,0,1-1.181,1.672H311.927a2.2,2.2,0,0,1-1.178-1.181Zm21.041,21.36H320.926c-.678,0-1.357-.024-2.033.007a1.592,1.592,0,0,0-1.432,2.279,1.674,1.674,0,0,0,1.665.937q12.684,0,25.368,0a2.766,2.766,0,0,0,.321-.008,1.6,1.6,0,0,0,1.352-2.233,1.677,1.677,0,0,0-1.691-.982Q338.132-684.788,331.79-684.794Z" transform="translate(-310.749 726.655)" fill="#fff"/><path d="M627.248-842.25c.418.349.863.672,1.25,1.053,1.274,1.251,2.53,2.521,3.789,3.788a1.658,1.658,0,0,1-.011,2.655c-.9.911-1.812,1.818-2.677,2.684l-6.874-6.882,3.559-3.3Z" transform="translate(-578.076 842.25)" fill="#fff"/><path d="M487.264-784.686l17.056-17.089L511-795.07l-17.051,17.084Z" transform="translate(-462.002 807.568)" fill="#fff"/><path d="M457.1-658.81a5.658,5.658,0,0,1-.573.3c-2.378.951-4.763,1.888-7.138,2.848a1.644,1.644,0,0,1-1.968-.31,1.66,1.66,0,0,1-.255-1.936c.961-2.379,1.9-4.768,2.846-7.151a5.371,5.371,0,0,1,.3-.56Z" transform="translate(-427.478 690.897)" fill="#fff"/></g></g></g></svg>