<svg xmlns="http://www.w3.org/2000/svg" width="573.271" height="358.703" viewBox="0 0 573.271 358.703"><g transform="translate(-50.695 -52.247)"><g transform="translate(57.643 52.247)"><g transform="translate(0 53.4)"><g transform="translate(4.38 0.02)"><rect width="64.387" height="67.118" fill="#e0e0e0"/></g><g transform="translate(0.02 0.02)"><rect width="64.387" height="67.118" fill="#fafafa"/></g><path d="M126.843,181.513H62.416V114.355h64.427Zm-64.387-.04H126.8V114.4H62.456Z" transform="translate(-62.416 -114.355)" fill="#e0e0e0"/><g transform="translate(8.675 9.043)"><rect width="47.076" height="49.073" fill="#fafafa"/></g><g transform="translate(0.082 58.439)"><path d="M71.1,182.327a7.71,7.71,0,0,1-1.162,1.351c-.751.794-1.808,1.867-2.992,3.034s-2.273,2.205-3.075,2.943a7.406,7.406,0,0,1-1.361,1.133,7.563,7.563,0,0,1,1.156-1.345c.752-.794,1.812-1.869,3-3.039s2.278-2.211,3.081-2.949A7.363,7.363,0,0,1,71.1,182.327Z" transform="translate(-62.511 -182.323)" fill="#e0e0e0"/></g><g transform="translate(55.748 58.319)"><path d="M127.258,182.187a7.726,7.726,0,0,1,1.351,1.162c.793.752,1.867,1.808,3.033,2.993s2.206,2.272,2.944,3.075a7.515,7.515,0,0,1,1.133,1.36,7.464,7.464,0,0,1-1.346-1.156c-.793-.751-1.869-1.811-3.039-3s-2.211-2.278-2.949-3.081A7.3,7.3,0,0,1,127.258,182.187Z" transform="translate(-127.255 -182.185)" fill="#e0e0e0"/></g><g transform="translate(55.62 0.709)"><path d="M127.109,123.645a7.688,7.688,0,0,1,1.162-1.351c.751-.794,1.808-1.867,2.992-3.034s2.273-2.205,3.076-2.944a7.514,7.514,0,0,1,1.36-1.133,7.51,7.51,0,0,1-1.156,1.346c-.751.793-1.812,1.869-3,3.039s-2.278,2.211-3.081,2.949A7.378,7.378,0,0,1,127.109,123.645Z" transform="translate(-127.107 -115.18)" fill="#e0e0e0"/></g><g transform="translate(0.082 0.702)"><path d="M70.976,123.764a7.689,7.689,0,0,1-1.351-1.162c-.794-.752-1.867-1.809-3.034-2.993s-2.205-2.272-2.944-3.075a7.468,7.468,0,0,1-1.132-1.36,7.53,7.53,0,0,1,1.345,1.155c.794.752,1.869,1.812,3.039,3s2.211,2.278,2.949,3.081A7.378,7.378,0,0,1,70.976,123.764Z" transform="translate(-62.512 -115.171)" fill="#e0e0e0"/></g><g transform="translate(8.466 8.834)"><path d="M119.419,173.912a2.269,2.269,0,0,1-.01-.239c0-.167-.006-.393-.01-.684-.005-.616-.012-1.5-.021-2.649-.011-2.325-.027-5.707-.047-10-.022-8.594-.054-20.838-.092-35.5l.181.182-46.943.027h0l.208-.209c-.011,18.012-.021,34.862-.029,49.073l-.179-.179,33.993.091,9.548.046,2.526.021.653.01a2.062,2.062,0,0,1,.228.01,1.4,1.4,0,0,1-.207.009l-.634.01-2.492.021-9.508.047-34.106.091h-.18v-.18c-.008-14.211-.018-31.062-.029-49.073v-.208h.213l46.943.027h.182v.181c-.038,14.708-.07,26.993-.092,35.616-.021,4.277-.037,7.645-.048,9.96q-.013,1.7-.021,2.615c0,.283-.008.5-.01.665A1.634,1.634,0,0,1,119.419,173.912Z" transform="translate(-72.263 -124.63)" fill="#e0e0e0"/></g><g transform="translate(24.359 25.725)"><rect width="15.709" height="15.709" fill="#ebebeb"/></g></g><g transform="translate(122.931 286.525)"><g transform="translate(31.03)"><g transform="translate(2.805 6.078)"><path d="M244.746,392.566v21.74H311.6v-21.74Z" transform="translate(-244.746 -392.566)" fill="#f5f5f5"/></g><path d="M241.483,385.5v6.078h72V385.5h-72Z" transform="translate(-241.483 -385.496)" fill="#e0e0e0"/><g transform="translate(34.597)"><path d="M283.126,413.315h33.662v-21.74h2.338V385.5h-37.4v5.516Z" transform="translate(-281.723 -385.496)" fill="#e0e0e0"/></g><g transform="translate(12.156 9.584)"><rect width="13.558" height="3.273" fill="#e0e0e0"/></g><g transform="translate(10.411 16.948)"><rect width="17.41" height="6.91" fill="#fff"/></g></g><g transform="translate(0 27.818)"><g transform="translate(4.28 9.273)"><path d="M210.37,428.636V461.8h102V428.636Z" transform="translate(-210.37 -428.636)" fill="#f5f5f5"/></g><path d="M205.393,417.851v9.273H315.236v-9.273H205.393Z" transform="translate(-205.393 -417.851)" fill="#e0e0e0"/><g transform="translate(52.781)"><path d="M268.922,460.29h51.355V427.124h3.566v-9.273H266.782v8.415Z" transform="translate(-266.782 -417.851)" fill="#e0e0e0"/></g><g transform="translate(18.545 14.621)"><rect width="20.685" height="4.992" fill="#e0e0e0"/></g><g transform="translate(15.883 25.855)"><rect width="26.56" height="10.543" fill="#fff"/></g></g></g><g transform="translate(364.525 212.67)"><g transform="translate(0 32.436)"><rect width="148.739" height="68.597" fill="#f5f5f5"/><g transform="translate(3.404 3.609)"><path d="M632.138,403.275H490.344V341.52H632.138Zm-140.869-.925H631.213v-59.9H491.269Z" transform="translate(-490.344 -341.52)" fill="#e0e0e0"/></g><g transform="translate(148.739)"><rect width="36.336" height="68.597" fill="#e0e0e0"/></g><g transform="translate(3.687 22.347)"><path d="M490.853,363.687H631.722a.187.187,0,0,0,0-.373H490.853a.187.187,0,0,0,0,.373Z" transform="translate(-490.672 -363.314)" fill="#e0e0e0"/></g><g transform="translate(74.173 3.718)"><path d="M573.242,360.463a154.326,154.326,0,0,0,.048-18.633.19.19,0,0,0-.38,0,154.339,154.339,0,0,0,.048,18.633.142.142,0,0,0,.284,0Z" transform="translate(-572.653 -341.646)" fill="#e0e0e0"/></g><g transform="translate(108.841 11.298)"><path d="M616.812,352.382a1.919,1.919,0,1,1-1.919-1.919A1.919,1.919,0,0,1,616.812,352.382Z" transform="translate(-612.974 -350.463)" fill="#e0e0e0"/></g><g transform="translate(34.912 11.298)"><path d="M530.828,352.382a1.919,1.919,0,1,1-1.919-1.919A1.919,1.919,0,0,1,530.828,352.382Z" transform="translate(-526.99 -350.463)" fill="#e0e0e0"/></g><g transform="translate(72.383 32.568)"><path d="M574.409,377.12a1.919,1.919,0,1,1-1.919-1.919A1.919,1.919,0,0,1,574.409,377.12Z" transform="translate(-570.571 -375.201)" fill="#e0e0e0"/></g><g transform="translate(10.125 68.597)"><path d="M505.819,417.105l-7.658,43.066h4.307l14.119-43.066Z" transform="translate(-498.161 -417.105)" fill="#e0e0e0"/></g><g transform="translate(127.447 68.597)"><path d="M645.383,417.105l6.4,43.141H647.48l-12.865-43.141Z" transform="translate(-634.615 -417.105)" fill="#e0e0e0"/></g><g transform="translate(156.201 68.597)"><path d="M678.826,417.105l7.256,43.141h-4.308l-13.717-43.141Z" transform="translate(-668.057 -417.105)" fill="#e0e0e0"/></g><g transform="translate(72.254 51.981)"><path d="M574.259,399.7a1.919,1.919,0,1,1-1.919-1.92A1.919,1.919,0,0,1,574.259,399.7Z" transform="translate(-570.421 -397.78)" fill="#e0e0e0"/></g><g transform="translate(3.687 43.589)"><path d="M490.853,388.393H631.722a.187.187,0,0,0,0-.373H490.853a.187.187,0,0,0,0,.373Z" transform="translate(-490.672 -388.02)" fill="#e0e0e0"/></g></g><g transform="translate(114.117)"><rect width="9.155" height="44.972" transform="matrix(0.005, 1, -1, 0.005, 44.971, 0)" fill="#e0e0e0"/><g transform="translate(0.224 17.92)"><g transform="translate(0 0.1)"><rect width="14.225" height="50.124" transform="translate(50.124 0) rotate(89.697)" fill="#f5f5f5"/></g><g transform="translate(40.299)"><path d="M666.484,334.665a52.237,52.237,0,0,1-.243-7.112,52.246,52.246,0,0,1,.243-7.113,52.24,52.24,0,0,1,.243,7.113A52.23,52.23,0,0,1,666.484,334.665Z" transform="translate(-666.241 -320.44)" fill="#e0e0e0"/></g><g transform="translate(42.404)"><path d="M668.933,334.665a52.242,52.242,0,0,1-.243-7.112,52.251,52.251,0,0,1,.243-7.113,52.246,52.246,0,0,1,.243,7.113A52.237,52.237,0,0,1,668.933,334.665Z" transform="translate(-668.69 -320.44)" fill="#e0e0e0"/></g><g transform="translate(7.373)"><path d="M628.189,334.665a52.23,52.23,0,0,1-.243-7.112,52.24,52.24,0,0,1,.243-7.113,52.086,52.086,0,0,1,.243,7.113A52.077,52.077,0,0,1,628.189,334.665Z" transform="translate(-627.946 -320.44)" fill="#e0e0e0"/></g><g transform="translate(9.479)"><path d="M630.638,334.665a52.248,52.248,0,0,1-.243-7.112,52.258,52.258,0,0,1,.243-7.113,52.074,52.074,0,0,1,.243,7.113A52.065,52.065,0,0,1,630.638,334.665Z" transform="translate(-630.395 -320.44)" fill="#e0e0e0"/></g><g transform="translate(14.317 7.096)"><path d="M636.022,328.939c0-.136,5.056-.246,11.293-.246s11.3.11,11.3.246-5.056.247-11.3.247S636.022,329.076,636.022,328.939Z" transform="translate(-636.022 -328.693)" fill="#e0e0e0"/></g></g><g transform="translate(7.345 8.784)"><rect width="9.155" height="61.852" transform="translate(61.852) rotate(89.698)" fill="#ebebeb"/><g transform="translate(50.121 2.098)"><path d="M688.871,318.174a2.961,2.961,0,1,1,2.923-2.961A2.942,2.942,0,0,1,688.871,318.174Z" transform="translate(-685.948 -312.253)" fill="#e0e0e0"/></g><g transform="translate(3.602 4.143)"><rect width="1.83" height="41.403" transform="translate(41.403) rotate(90)" fill="#e0e0e0"/></g></g></g></g><g transform="translate(531.739 44.306)"><path d="M688.159,118.361h0a7.292,7.292,0,0,1-7.292-7.292h0a7.292,7.292,0,0,1,7.292-7.291h0a7.292,7.292,0,0,1,7.292,7.291h0A7.292,7.292,0,0,1,688.159,118.361Z" transform="translate(-680.867 -103.778)" fill="#ebebeb"/><g transform="translate(3.407 4.134)"><path d="M684.83,114.184a4.533,4.533,0,0,0,6.974-4.026,3.23,3.23,0,0,0,.8-.825,3.155,3.155,0,0,1-.916.251,1.6,1.6,0,0,0,.7-.881,3.226,3.226,0,0,1-1.012.387,1.6,1.6,0,0,0-2.717,1.454,4.526,4.526,0,0,1-3.285-1.666,1.6,1.6,0,0,0,.494,2.129,1.588,1.588,0,0,1-.722-.2,1.6,1.6,0,0,0,1.279,1.583,1.6,1.6,0,0,1-.72.028,1.594,1.594,0,0,0,1.488,1.107A3.2,3.2,0,0,1,684.83,114.184Z" transform="translate(-684.83 -108.586)" fill="#fff"/></g></g><g transform="translate(505.559 27.732)"><path d="M660.8,105.272h0a10.385,10.385,0,0,1-10.385-10.385h0A10.385,10.385,0,0,1,660.8,84.5h0a10.386,10.386,0,0,1,10.385,10.385h0A10.386,10.386,0,0,1,660.8,105.272Z" transform="translate(-650.417 -84.501)" fill="#e0e0e0"/><g transform="translate(7.488 4.108)"><path d="M660.442,101.834h2.528V95.5h1.763l.188-2.119h-1.952V92.176c0-.5.1-.7.584-.7h1.368v-2.2h-1.75c-1.881,0-2.729.829-2.729,2.414v1.69h-1.316V95.53h1.316Z" transform="translate(-659.126 -89.279)" fill="#fff"/></g></g><g transform="translate(525.782)"><path d="M687.187,78.746h0A13.249,13.249,0,0,1,673.938,65.5h0a13.249,13.249,0,0,1,13.249-13.249h0A13.249,13.249,0,0,1,700.437,65.5h0A13.249,13.249,0,0,1,687.187,78.746Z" transform="translate(-673.938 -52.247)" fill="#f5f5f5"/><g transform="translate(7.159 5.381)"><path d="M684.115,67.605a.311.311,0,0,0,.452-.225c.041-.159.14-.56.184-.727a.435.435,0,0,0-.13-.5,2.612,2.612,0,0,1-.6-1.774,4.28,4.28,0,0,1,4.45-4.328c2.427,0,3.761,1.483,3.761,3.464,0,2.606-1.154,4.805-2.866,4.805a1.4,1.4,0,0,1-1.427-1.74,19.336,19.336,0,0,0,.8-3.208,1.211,1.211,0,0,0-1.219-1.358c-.967,0-1.744,1-1.744,2.339a3.471,3.471,0,0,0,.289,1.431s-.99,4.191-1.163,4.926a10.13,10.13,0,0,0-.027,3.435.12.12,0,0,0,.215.052,9.622,9.622,0,0,0,1.631-2.959c.111-.4.636-2.484.636-2.484a2.59,2.59,0,0,0,2.208,1.126c2.906,0,4.878-2.649,4.878-6.195a5.4,5.4,0,0,0-5.723-5.178c-4.295,0-6.46,3.079-6.46,5.646A3.479,3.479,0,0,0,684.115,67.605Z" transform="translate(-682.264 -58.506)" fill="#fff"/></g></g></g><g transform="translate(50.695 408.806)"><path d="M605.745,467.175c0,.124-123.447.224-275.692.224-152.3,0-275.718-.1-275.718-.224s123.421-.224,275.718-.224C482.3,466.951,605.745,467.051,605.745,467.175Z" transform="translate(-54.335 -466.951)" fill="#455a64"/></g><g transform="translate(103.216 65.289)"><g transform="translate(0.207 0.207)"><rect width="401.436" height="283.205" rx="8.687" fill="#fafafa"/></g><g transform="translate(0.046 0.497)"><rect width="37.285" height="283.141" rx="9.646" fill="#489ddc"/></g><g transform="translate(351.439 20.479)"><g transform="translate(0 0.362)"><path d="M524.175,97.731a1.109,1.109,0,0,1,.2-.118,1.65,1.65,0,0,0,.462-.423,3.75,3.75,0,0,0,.632-2.218,7,7,0,0,1,.308-1.669,2.311,2.311,0,0,1,1.316-1.5,2.358,2.358,0,0,1,2.2.287,3.324,3.324,0,0,1,1.039,2.12,7.832,7.832,0,0,1,.091,1.049,2.378,2.378,0,0,0,.117.919,3.512,3.512,0,0,0,1.07,1.4l.427.351-.543,0c-2.2-.007-4.1-.094-5.367-.139l-1.946-.054,2.158-.055c1.318-.046,3.076-.132,5.154-.139l-.117.349a3.837,3.837,0,0,1-1.219-1.567A2.762,2.762,0,0,1,530,95.27a7.651,7.651,0,0,0-.089-1,2.971,2.971,0,0,0-.882-1.867,1.875,1.875,0,0,0-2.939,1.013,7.058,7.058,0,0,0-.34,1.583,5.767,5.767,0,0,1-.262,1.371,2.721,2.721,0,0,1-.538.921,1.479,1.479,0,0,1-.548.395.326.326,0,0,1-.158.034A.323.323,0,0,0,524.175,97.731Z" transform="translate(-524.17 -91.655)" fill="#263238"/></g><g transform="translate(4.178)"><path d="M529.029,92.8a1.57,1.57,0,1,0,1.57-1.569A1.57,1.57,0,0,0,529.029,92.8Z" transform="translate(-529.029 -91.234)" fill="#489ddc" fill-rule="evenodd"/></g><g transform="translate(2.664 7.435)"><path d="M527.285,99.882h2.157a1.062,1.062,0,0,1-1.177,1.1A.9.9,0,0,1,527.285,99.882Z" transform="translate(-527.268 -99.882)" fill="#263238" fill-rule="evenodd"/></g></g><g transform="translate(367.385 16.767)"><rect width="16.633" height="16.633" rx="4.514" fill="#489ddc"/></g><g transform="translate(4.993 55.394)"><g transform="translate(7.677)"><path d="M141.548,137.459a.3.3,0,0,1-.2-.077L136,132.543l-5.347,4.839a.3.3,0,0,1-.4-.441l5.547-5.02a.3.3,0,0,1,.4,0l5.547,5.02a.3.3,0,0,1-.2.518Z" transform="translate(-130.157 -131.843)" fill="#fafafa"/><g transform="translate(1.52 3.653)"><path d="M140.275,142.291h-8.052a.3.3,0,0,1-.3-.3v-5.6a.3.3,0,1,1,.6,0v5.3h7.456v-5.3a.3.3,0,1,1,.6,0v5.6A.3.3,0,0,1,140.275,142.291Z" transform="translate(-131.925 -136.092)" fill="#fafafa"/></g></g><g transform="translate(7.975 39.57)"><path d="M141.3,186.365H130.8a.3.3,0,0,1-.3-.3v-6.694a1.508,1.508,0,0,1,1.505-1.506h2.73a1.692,1.692,0,0,1,1.564,1.04l.469,1.119h3.317a1.508,1.508,0,0,1,1.506,1.505v4.535A.3.3,0,0,1,141.3,186.365Zm-10.2-.6H141v-4.237a.911.911,0,0,0-.91-.91h-3.515a.3.3,0,0,1-.275-.183l-.546-1.3a1.1,1.1,0,0,0-1.015-.676h-2.73a.911.911,0,0,0-.909.911Z" transform="translate(-130.504 -177.866)" fill="#fafafa"/></g><g transform="translate(0 67.242)"><rect width="36.942" height="30.942" rx="3.185" fill="#fafafa"/></g><g transform="translate(7.926 77.369)"><path d="M133.074,232.517a.795.795,0,0,1-.784-.918l.438-2.79a.2.2,0,0,0-.055-.169l-2-2a.794.794,0,0,1,.438-1.345l2.789-.445a.2.2,0,0,0,.144-.1l1.285-2.517a.826.826,0,0,1,1.414,0l1.285,2.516a.2.2,0,0,0,.144.106l2.79.445a.794.794,0,0,1,.438,1.345l-2,2a.2.2,0,0,0-.056.17l.439,2.79a.794.794,0,0,1-1.144.831l-2.517-1.279a.2.2,0,0,0-.179,0l-2.518,1.279A.791.791,0,0,1,133.074,232.517Zm2.968-1.984a.8.8,0,0,1,.36.086l2.517,1.28a.2.2,0,0,0,.206-.017.193.193,0,0,0,.079-.191l-.438-2.79a.8.8,0,0,1,.223-.684l1.994-2a.194.194,0,0,0,.048-.2.191.191,0,0,0-.156-.134l-2.789-.445a.8.8,0,0,1-.583-.423l-1.285-2.515h0a.2.2,0,0,0-.352,0l-1.285,2.516a.794.794,0,0,1-.582.422l-2.789.445a.2.2,0,0,0-.109.335l2,2a.8.8,0,0,1,.223.683l-.439,2.791a.2.2,0,0,0,.285.208l2.518-1.28A.8.8,0,0,1,136.042,230.533Z" transform="translate(-130.446 -221.828)" fill="#489ddc"/></g><g transform="translate(7.291 117.593)"><g transform="translate(0 0)"><path d="M141.793,276.64H130.005a.3.3,0,0,1-.3-.3v-7.432a.3.3,0,0,1,.3-.3h11.788a.3.3,0,0,1,.3.3v7.432A.3.3,0,0,1,141.793,276.64Zm-11.489-.6H141.5v-6.836H130.3Z" transform="translate(-129.708 -268.612)" fill="#fafafa"/></g><path d="M136.044,274.551a.3.3,0,0,1-.2-.074l-6.037-5.343a.3.3,0,0,1,.395-.448l5.835,5.165,5.552-5.159a.3.3,0,1,1,.407.436l-5.75,5.343A.3.3,0,0,1,136.044,274.551Z" transform="translate(-129.708 -268.612)" fill="#fafafa"/><g transform="translate(0.17 3.521)"><path d="M130.2,276.89a.3.3,0,0,1-.211-.51l3.585-3.585a.3.3,0,0,1,.422.422l-3.586,3.586A.3.3,0,0,1,130.2,276.89Z" transform="translate(-129.905 -272.707)" fill="#fafafa"/><g transform="translate(7.863)"><path d="M143.18,277.137a.3.3,0,0,1-.211-.087l-3.833-3.833a.3.3,0,0,1,.422-.422l3.832,3.832a.3.3,0,0,1-.211.51Z" transform="translate(-139.05 -272.707)" fill="#fafafa"/></g></g></g></g><g transform="translate(45.209 0.207)"><path d="M268.076,102.865c6.122-4.8,11.531-10.7,18.556-14.036,12.078-5.742,26.334-2.83,39.225.726s26.512,7.669,39.376,4.015c11.921-3.387,21.411-13.866,24.06-25.912H168c2.945,24.466,21.391,44.642,45.906,48.882q.766.133,1.535.247A69.781,69.781,0,0,0,268.076,102.865Z" transform="translate(-168.002 -67.657)" fill="#489ddc"/><g transform="translate(244.1)"><path d="M458.059,90.352c6.231,5.657,15.316,7.195,23.676,6.227,5.624-.65,11.343-2.444,15.407-6.387a19.72,19.72,0,0,0,5.261-17.7,21.293,21.293,0,0,0-1.585-4.831H454.74C449.64,74.326,451.84,84.706,458.059,90.352Z" transform="translate(-451.908 -67.657)" fill="#489ddc"/></g></g><g transform="translate(45.209 0.207)" opacity="0.8"><path d="M268.076,102.865c6.122-4.8,11.531-10.7,18.556-14.036,12.078-5.742,26.334-2.83,39.225.726s26.512,7.669,39.376,4.015c11.921-3.387,21.411-13.866,24.06-25.912H168c2.945,24.466,21.391,44.642,45.906,48.882q.766.133,1.535.247A69.781,69.781,0,0,0,268.076,102.865Z" transform="translate(-168.002 -67.657)" fill="#fff"/><g transform="translate(244.1)"><path d="M458.059,90.352c6.231,5.657,15.316,7.195,23.676,6.227,5.624-.65,11.343-2.444,15.407-6.387a19.72,19.72,0,0,0,5.261-17.7,21.293,21.293,0,0,0-1.585-4.831H454.74C449.64,74.326,451.84,84.706,458.059,90.352Z" transform="translate(-451.908 -67.657)" fill="#fff"/></g></g><g transform="translate(336.908 21.082)"><g transform="translate(0.202 0.071)"><path d="M511.836,92.758a3.168,3.168,0,0,1,.822.218l.605-.507,1.038.791-.327.717a3.2,3.2,0,0,1,.428.735l.786.07.175,1.293-.739.276a3.206,3.206,0,0,1-.218.823l.507.6-.791,1.039-.718-.327a3.19,3.19,0,0,1-.735.428l-.069.785-1.293.176-.276-.739a3.208,3.208,0,0,1-.823-.218l-.6.506-1.039-.79.327-.718a3.206,3.206,0,0,1-.428-.735l-.786-.069-.175-1.294.739-.276a3.218,3.218,0,0,1,.217-.823l-.506-.6.79-1.039.718.328a3.191,3.191,0,0,1,.735-.429l.069-.785,1.293-.175.277.739Zm-.389,1.783a1.4,1.4,0,1,0,1.407,1.071A1.4,1.4,0,0,0,511.447,94.541Z" transform="translate(-507.504 -92.019)" fill="none"/></g><g transform="translate(2.613 2.54)"><path d="M511.84,94.943c0-.024.124-.07.361-.046a1.415,1.415,0,0,1,.883.471,1.539,1.539,0,0,1,.313,1.469,1.582,1.582,0,0,1-2.989.1,1.542,1.542,0,0,1,.218-1.486,1.412,1.412,0,0,1,.851-.527c.235-.036.363,0,.362.023.027.074-.559.056-.974.674a1.27,1.27,0,0,0-.1,1.174,1.217,1.217,0,0,0,2.272-.074,1.272,1.272,0,0,0-.177-1.165A1.989,1.989,0,0,0,511.84,94.943Z" transform="translate(-510.308 -94.891)" fill="#263238"/></g><path d="M511.8,92.746a3.7,3.7,0,0,1-.339-.715l.071.042-1.288.214.09-.095-.052.787-.005.071-.07.031a3.1,3.1,0,0,0-.7.424l-.063.05-.077-.034-.722-.317.178-.045q-.37.5-.777,1.048l-.005-.2.512.6.067.077-.04.1a3.071,3.071,0,0,0-.2.78l-.012.106-.1.04-.737.281.119-.2c.058.408.12.845.183,1.292l-.174-.166.786.065.118.01.046.11a3.035,3.035,0,0,0,.4.688l.075.095-.051.112-.325.719-.061-.246,1.039.788-.256.006.6-.507.1-.081.116.048a3.052,3.052,0,0,0,.769.2h0l.169.132h0v0l0,.006,0,.012.009.023.017.046.035.093.069.186.138.367-.222-.132,1.294-.174-.176.186c.023-.265.047-.526.07-.786l.011-.123.113-.046a3.011,3.011,0,0,0,.69-.4l.1-.075.109.05.716.33-.238.06.8-1.034.006.238-.5-.609-.072-.087.043-.1a3.007,3.007,0,0,0,.211-.775l.015-.108.1-.037.741-.27-.11.185c-.057-.454-.111-.884-.163-1.295l.144.136-.785-.078-.091-.009-.033-.082a3.064,3.064,0,0,0-.4-.708l-.051-.068.034-.072.34-.712.037.148-1.021-.814.116,0-.622.487-.033.026-.035-.015c-.518-.227-.8-.248-.8-.279a.454.454,0,0,1,.214,0,2.775,2.775,0,0,1,.634.156l-.068.01.587-.526.053-.048.063.045,1.057.767.077.057-.04.092c-.1.226-.2.463-.315.723l-.016-.14a3.332,3.332,0,0,1,.458.762l-.124-.091.786.059.125.009.019.127c.06.411.123.839.188,1.291l.02.135-.13.05-.736.282.115-.145a3.382,3.382,0,0,1-.224.871l-.029-.19.51.6.1.115-.092.123-.785,1.042-.095.126-.144-.065-.719-.324.206-.025a3.388,3.388,0,0,1-.781.458l.125-.169c-.022.259-.045.521-.067.785l-.015.163-.162.022-1.293.177-.163.022-.058-.155-.138-.368-.069-.185-.035-.094-.017-.046-.009-.023,0-.011,0-.006v0h0l.169.132h0a3.394,3.394,0,0,1-.875-.231l.211-.033-.605.506-.126.1-.13-.1-1.037-.793-.129-.1.067-.147.329-.717.024.206a3.42,3.42,0,0,1-.451-.782l.164.12-.785-.073-.155-.015-.02-.152c-.058-.448-.114-.886-.168-1.294l-.019-.148.138-.05.741-.27-.115.145a3.355,3.355,0,0,1,.236-.866l.027.175-.5-.61-.083-.1.079-.1q.42-.538.8-1.029l.074-.095.1.05.713.338-.139.016a3.263,3.263,0,0,1,.771-.433l-.074.1c.03-.279.059-.542.086-.784l.009-.086.081-.009,1.3-.137.055-.006.015.048A4.65,4.65,0,0,1,511.8,92.746Z" transform="translate(-507.269 -91.936)" fill="#263238"/></g><path d="M510.158,350.828l.221-.016a6.353,6.353,0,0,0,.658-.056,6.748,6.748,0,0,0,2.467-.819,6.882,6.882,0,0,0,3.511-5.773c.023-.992,0-2.057.008-3.187-.01-9.044-.022-22.378-.04-39.549-.016-34.349-.038-84.046-.065-145.455q-.007-23.029-.014-48.2,0-12.571-.006-25.639,0-3.267,0-6.563a8.734,8.734,0,0,0-.362-3.21,6.746,6.746,0,0,0-4.514-4.307,11.311,11.311,0,0,0-3.277-.266L502,67.8l-115.282.019-264.154.016a6.73,6.73,0,0,0-6.424,4.688,14.9,14.9,0,0,0-.308,4.283V98.584q0,17.355,0,34.473,0,34.23,0,67.4c0,44.188-.009,86.811-.013,127.413q0,7.613,0,15.131a12.721,12.721,0,0,0,.071,1.849,6.667,6.667,0,0,0,.487,1.751,6.761,6.761,0,0,0,2.265,2.789A6.661,6.661,0,0,0,122,350.614c1.21.054,2.47.015,3.7.028l29.266.005,55.962.01,100.448.025,198.778.146-198.778.147L210.932,351l-55.962.01-29.266,0c-1.242-.012-2.461.028-3.729-.027a7.03,7.03,0,0,1-3.553-1.291,7.141,7.141,0,0,1-2.393-2.946,7.054,7.054,0,0,1-.514-1.849,13.008,13.008,0,0,1-.076-1.9q0-7.518,0-15.131c0-40.6-.008-83.225-.012-127.413q0-33.141,0-67.4,0-17.114,0-34.473V74.615a7.883,7.883,0,0,1,.327-2.22,7.146,7.146,0,0,1,6.819-4.979l264.154.016L502,67.451l6.741,0a11.613,11.613,0,0,1,3.37.28,7.085,7.085,0,0,1,4.74,4.525,9.082,9.082,0,0,1,.378,3.317q0,3.3,0,6.563,0,13.066-.006,25.639-.008,25.139-.014,48.2c-.027,61.409-.05,111.107-.065,145.455-.017,17.171-.03,30.5-.039,39.549-.008,1.131.009,2.192-.018,3.19a6.924,6.924,0,0,1-3.564,5.807,6.661,6.661,0,0,1-2.485.8A7.056,7.056,0,0,1,510.158,350.828Z" transform="translate(-115.421 -67.416)" fill="#263238"/><g transform="translate(11.89 18.334)"><path d="M136.048,102.338h0a6.8,6.8,0,0,1-6.8-6.8h0a6.8,6.8,0,0,1,6.8-6.8h0a6.8,6.8,0,0,1,6.8,6.8h0A6.8,6.8,0,0,1,136.048,102.338Z" transform="translate(-129.25 -88.74)" fill="#fff"/></g><g transform="translate(88.013 73.937)"><g transform="translate(0.954 101.104)"><path d="M234.147,301.5h0A15.252,15.252,0,0,1,218.9,286.252h0A15.251,15.251,0,0,1,234.147,271h0A15.251,15.251,0,0,1,249.4,286.252h0A15.251,15.251,0,0,1,234.147,301.5Z" transform="translate(-218.896 -271.001)" fill="#263238"/><g transform="translate(8.24 6.195)"><path d="M230.611,288.679a.358.358,0,0,0,.521-.26c.047-.182.161-.643.212-.835a.5.5,0,0,0-.15-.579,3,3,0,0,1-.686-2.041,4.928,4.928,0,0,1,5.123-4.983c2.793,0,4.329,1.708,4.329,3.988,0,3-1.328,5.532-3.3,5.532a1.611,1.611,0,0,1-1.642-2,22.212,22.212,0,0,0,.919-3.692,1.393,1.393,0,0,0-1.4-1.562c-1.113,0-2.007,1.151-2.007,2.693a4,4,0,0,0,.332,1.646s-1.138,4.825-1.339,5.669a11.692,11.692,0,0,0-.031,3.954.139.139,0,0,0,.248.059,11.1,11.1,0,0,0,1.878-3.4c.128-.463.733-2.86.733-2.86a2.981,2.981,0,0,0,2.541,1.3c3.345,0,5.614-3.049,5.614-7.13,0-3.087-2.614-5.96-6.587-5.96-4.943,0-7.435,3.543-7.435,6.5C228.48,286.494,229.158,288.087,230.611,288.679Z" transform="translate(-228.48 -278.206)" fill="#fff"/></g><g transform="translate(0.761 38.415)"><path d="M224.153,315.809v12.912h-1.328V316.99h-3.044v-1.181Z" transform="translate(-219.781 -315.698)" fill="#263238"/><path d="M237.121,324.921c0,2.2-1.531,3.91-4.685,3.91a6.669,6.669,0,0,1-4.63-1.659l.646-1.052a5.594,5.594,0,0,0,3.966,1.494c2.2,0,3.357-1.07,3.357-2.638,0-1.66-1.033-2.693-4.316-2.693H228.71l.663-6.474h7.065v1.181h-5.9l-.443,4.113h1.66C235.646,321.1,237.121,322.633,237.121,324.921Z" transform="translate(-220.906 -315.698)" fill="#263238"/><path d="M240.594,322.247c0-4.114,2.158-6.567,5.146-6.567s5.166,2.453,5.166,6.567-2.177,6.566-5.166,6.566S240.594,326.36,240.594,322.247Zm8.946,0c0-3.449-1.549-5.35-3.8-5.35s-3.8,1.9-3.8,5.35,1.549,5.349,3.8,5.349S249.54,325.7,249.54,322.247Z" transform="translate(-222.699 -315.68)" fill="#263238"/></g><g transform="translate(9.759 60.041)"><path d="M231.753,340.87v4.445H231.3v-4.038h-1.048v-.407Z" transform="translate(-230.247 -340.838)" fill="#263238"/><path d="M236.218,344.007c0,.756-.527,1.346-1.613,1.346a2.288,2.288,0,0,1-1.593-.571l.222-.362a1.927,1.927,0,0,0,1.365.514c.756,0,1.156-.368,1.156-.908,0-.572-.355-.927-1.486-.927h-.946l.228-2.229h2.432v.407h-2.032l-.153,1.416h.572C235.71,342.693,236.218,343.22,236.218,344.007Z" transform="translate(-230.635 -340.838)" fill="#263238"/><path d="M237.269,342.04c0-.724.407-1.207,1-1.207s1,.477,1,1.207-.413,1.206-1,1.206S237.269,342.763,237.269,342.04Zm1.689,0c0-.578-.273-.921-.685-.921s-.685.35-.685.921.267.921.685.921S238.958,342.618,238.958,342.04Zm2.007-1.175h.375L238.3,345.31h-.375Zm-.971,3.271c0-.724.413-1.206,1-1.206s1,.482,1,1.206-.407,1.206-1,1.206S239.994,344.859,239.994,344.135Zm1.689,0c0-.572-.267-.921-.685-.921s-.686.343-.686.921.273.921.686.921S241.682,344.707,241.682,344.135Z" transform="translate(-231.232 -340.833)" fill="#263238"/></g></g><g transform="translate(71.947 101.104)"><g transform="translate(3.128)"><path d="M320.266,301.323h0A15.161,15.161,0,0,1,305.1,286.162h0A15.161,15.161,0,0,1,320.265,271h0a15.161,15.161,0,0,1,15.161,15.161h0A15.161,15.161,0,0,1,320.266,301.323Z" transform="translate(-305.104 -271.001)" fill="#489ddc"/><g transform="translate(5.497 5.496)"><path d="M321.161,277.393a9.665,9.665,0,1,0,9.665,9.666A9.665,9.665,0,0,0,321.161,277.393Zm0,1.681a7.936,7.936,0,0,1,4.867,1.67,9.767,9.767,0,0,1-4.016,2.963,37.073,37.073,0,0,0-2.809-4.379A7.914,7.914,0,0,1,321.161,279.074Zm-3.6.868a35.827,35.827,0,0,1,2.848,4.334,25.59,25.59,0,0,1-6.994.891A8.008,8.008,0,0,1,317.559,279.942Zm-4.382,7.116c0-.069.009-.137.01-.205a26.98,26.98,0,0,0,8.013-1.065q.281.573.54,1.154a12.438,12.438,0,0,0-6.715,5.218A7.943,7.943,0,0,1,313.178,287.058Zm7.983,7.984a7.933,7.933,0,0,1-4.9-1.693,10.846,10.846,0,0,1,6.119-4.854,31.639,31.639,0,0,1,1.646,6.007A7.92,7.92,0,0,1,321.161,295.042Zm4.432-1.347a33.223,33.223,0,0,0-1.546-5.554,16.063,16.063,0,0,1,4.992.158A7.989,7.989,0,0,1,325.593,293.695Zm-2.191-7.146c-.2-.453-.4-.905-.617-1.352a11.423,11.423,0,0,0,4.468-3.288,7.953,7.953,0,0,1,1.869,4.7A17.256,17.256,0,0,0,323.4,286.549Z" transform="translate(-311.497 -277.393)" fill="#fff"/></g></g><g transform="translate(0 39.835)"><path d="M310.8,326.665c0,2.159-1.567,3.819-4.685,3.819a6.717,6.717,0,0,1-4.649-1.66l.646-1.052a5.656,5.656,0,0,0,4,1.5c2.139,0,3.32-1,3.32-2.6,0-1.548-1.088-2.563-3.486-2.563h-.923v-.978l3.578-4.482H302v-1.181h8.3v.941L306.65,323C309.417,323.143,310.8,324.6,310.8,326.665Z" transform="translate(-301.466 -317.35)" fill="#263238"/><path d="M314.49,323.9c0-4.113,2.158-6.567,5.147-6.567s5.165,2.454,5.165,6.567-2.177,6.567-5.165,6.567S314.49,328.012,314.49,323.9Zm8.946,0c0-3.449-1.549-5.35-3.8-5.35s-3.8,1.9-3.8,5.35,1.549,5.35,3.8,5.35S323.436,327.349,323.436,323.9Z" transform="translate(-303.292 -317.332)" fill="#263238"/><path d="M328.694,323.9c0-4.113,2.158-6.567,5.146-6.567s5.166,2.454,5.166,6.567-2.177,6.567-5.166,6.567S328.694,328.012,328.694,323.9Zm8.946,0c0-3.449-1.549-5.35-3.8-5.35s-3.8,1.9-3.8,5.35,1.549,5.35,3.8,5.35S337.64,327.349,337.64,323.9Z" transform="translate(-305.284 -317.332)" fill="#263238"/></g><g transform="translate(12.798 61.462)"><path d="M317.856,342.523v4.445H317.4v-4.039h-1.047v-.406Z" transform="translate(-316.351 -342.491)" fill="#263238"/><path d="M322.322,345.66c0,.756-.527,1.346-1.613,1.346a2.3,2.3,0,0,1-1.594-.571l.223-.362a1.929,1.929,0,0,0,1.365.513c.755,0,1.156-.367,1.156-.907,0-.572-.356-.928-1.487-.928h-.946l.229-2.229h2.431v.406h-2.032l-.152,1.417h.571C321.814,344.346,322.322,344.872,322.322,345.66Z" transform="translate(-316.739 -342.491)" fill="#263238"/><path d="M323.373,343.692c0-.724.406-1.206,1-1.206s1,.476,1,1.206-.413,1.206-1,1.206S323.373,344.416,323.373,343.692Zm1.689,0c0-.578-.273-.92-.685-.92s-.686.349-.686.92.267.921.686.921S325.062,344.271,325.062,343.692Zm2.007-1.174h.375l-3.035,4.445h-.375Zm-.972,3.271c0-.724.413-1.207,1-1.207s1,.483,1,1.207-.407,1.206-1,1.206S326.1,346.512,326.1,345.788Zm1.689,0c0-.573-.267-.922-.685-.922s-.686.344-.686.922.273.921.686.921S327.785,346.36,327.785,345.788Z" transform="translate(-317.336 -342.486)" fill="#263238"/></g></g><g transform="translate(140.959 101.104)"><path d="M397.525,302.588h0a15.793,15.793,0,0,1-15.794-15.794h0A15.793,15.793,0,0,1,397.525,271h0a15.793,15.793,0,0,1,15.794,15.794h0A15.793,15.793,0,0,1,397.525,302.588Z" transform="translate(-381.731 -271.001)" fill="#263238"/><g transform="translate(7.134 7.134)"><path d="M398.688,280.859c2.312,0,2.586.009,3.5.051a4.793,4.793,0,0,1,1.608.3,2.864,2.864,0,0,1,1.643,1.643,4.792,4.792,0,0,1,.3,1.608c.042.913.051,1.187.051,3.5s-.009,2.586-.051,3.5a4.787,4.787,0,0,1-.3,1.608,2.862,2.862,0,0,1-1.643,1.644,4.792,4.792,0,0,1-1.608.3c-.913.041-1.187.05-3.5.05s-2.586-.009-3.5-.05a4.792,4.792,0,0,1-1.608-.3,2.867,2.867,0,0,1-1.644-1.644,4.788,4.788,0,0,1-.3-1.608c-.041-.913-.05-1.187-.05-3.5s.009-2.586.05-3.5a4.793,4.793,0,0,1,.3-1.608,2.869,2.869,0,0,1,1.644-1.643,4.793,4.793,0,0,1,1.608-.3c.913-.042,1.187-.051,3.5-.051m0-1.561c-2.352,0-2.646.01-3.571.052a6.36,6.36,0,0,0-2.1.4,4.426,4.426,0,0,0-2.532,2.533,6.334,6.334,0,0,0-.4,2.1c-.042.923-.052,1.218-.052,3.57s.01,2.647.052,3.571a6.339,6.339,0,0,0,.4,2.1,4.421,4.421,0,0,0,2.532,2.532,6.358,6.358,0,0,0,2.1.4c.924.042,1.219.052,3.571.052s2.646-.009,3.571-.052a6.348,6.348,0,0,0,2.1-.4,4.426,4.426,0,0,0,2.533-2.532,6.36,6.36,0,0,0,.4-2.1c.042-.923.052-1.218.052-3.571s-.01-2.646-.052-3.57a6.355,6.355,0,0,0-.4-2.1,4.431,4.431,0,0,0-2.533-2.533,6.35,6.35,0,0,0-2.1-.4c-.924-.042-1.219-.052-3.571-.052" transform="translate(-390.028 -279.298)" fill="#fff"/><g transform="translate(4.213 4.213)"><path d="M399.375,284.2a4.447,4.447,0,1,0,4.447,4.447,4.447,4.447,0,0,0-4.447-4.447m0,7.334a2.887,2.887,0,1,1,2.886-2.887,2.887,2.887,0,0,1-2.886,2.887" transform="translate(-394.928 -284.198)" fill="#fff"/></g><g transform="translate(12.243 2.998)"><path d="M406.346,283.824a1.039,1.039,0,1,1-1.039-1.039,1.039,1.039,0,0,1,1.039,1.039" transform="translate(-404.268 -282.785)" fill="#fff"/></g></g><g transform="translate(4.723 41.02)"><path d="M396.54,327.951c0,2.2-1.531,3.911-4.686,3.911a6.668,6.668,0,0,1-4.63-1.66l.646-1.052a5.594,5.594,0,0,0,3.965,1.5c2.2,0,3.358-1.07,3.358-2.639,0-1.659-1.033-2.692-4.317-2.692h-2.748l.664-6.475h7.065v1.181h-5.9l-.444,4.113h1.661C395.064,324.133,396.54,325.664,396.54,327.951Z" transform="translate(-387.224 -318.728)" fill="#263238"/><path d="M400.011,325.277c0-4.113,2.159-6.567,5.148-6.567s5.164,2.454,5.164,6.567-2.176,6.567-5.164,6.567S400.011,329.39,400.011,325.277Zm8.947,0c0-3.449-1.549-5.35-3.8-5.35s-3.8,1.9-3.8,5.35,1.548,5.35,3.8,5.35S408.958,328.727,408.958,325.277Z" transform="translate(-389.017 -318.71)" fill="#263238"/></g><g transform="translate(10.302 62.647)"><path d="M395.218,343.9v4.445h-.457v-4.039h-1.048V343.9Z" transform="translate(-393.713 -343.869)" fill="#263238"/><path d="M399.684,347.038c0,.756-.527,1.346-1.612,1.346a2.3,2.3,0,0,1-1.595-.571l.223-.362a1.929,1.929,0,0,0,1.365.513c.756,0,1.156-.367,1.156-.907,0-.572-.356-.927-1.486-.927h-.947l.229-2.229h2.432v.406h-2.032l-.153,1.417h.572C399.176,345.724,399.684,346.25,399.684,347.038Z" transform="translate(-394.101 -343.869)" fill="#263238"/><path d="M400.736,345.07c0-.724.407-1.206,1-1.206s1,.476,1,1.206-.413,1.206-1,1.206S400.736,345.794,400.736,345.07Zm1.689,0c0-.578-.273-.92-.686-.92s-.685.349-.685.92.267.921.685.921S402.425,345.648,402.425,345.07Zm2.007-1.174h.374l-3.035,4.445H401.4Zm-.972,3.27c0-.723.413-1.206,1-1.206s1,.483,1,1.206-.407,1.207-1,1.207S403.46,347.89,403.46,347.166Zm1.689,0c0-.572-.267-.921-.686-.921s-.686.344-.686.921.273.921.686.921S405.149,347.738,405.149,347.166Z" transform="translate(-394.698 -343.864)" fill="#263238"/></g></g><g transform="translate(0 1.254)"><g transform="translate(1)"><path d="M235.552,188.074h0a16.6,16.6,0,0,1-16.6-16.6h0a16.6,16.6,0,0,1,16.6-16.6h0a16.6,16.6,0,0,1,16.6,16.6h0A16.6,16.6,0,0,1,235.552,188.074Z" transform="translate(-218.949 -154.869)" fill="#489ddc"/><g transform="translate(11.971 6.567)"><path d="M234.974,182.578h4.041V172.457h2.82l.3-3.388h-3.121v-1.93c0-.8.161-1.115.934-1.115h2.187v-3.517h-2.8c-3.008,0-4.363,1.325-4.363,3.86v2.7h-2.1V172.5h2.1Z" transform="translate(-232.872 -162.507)" fill="#fff"/></g></g><g transform="translate(0 45.298)"><path d="M228.03,220.4v1.28h-9.823v-1.021l5.822-5.7c1.58-1.561,1.88-2.5,1.88-3.461,0-1.621-1.14-2.622-3.28-2.622a4.755,4.755,0,0,0-3.822,1.561l-1.021-.88a6.293,6.293,0,0,1,4.962-2c2.841,0,4.642,1.44,4.642,3.781,0,1.34-.42,2.541-2.3,4.381l-4.762,4.682Z" transform="translate(-217.786 -207.554)" fill="#263238"/><path d="M241.2,217.576c0,2.381-1.66,4.241-5.081,4.241a7.231,7.231,0,0,1-5.022-1.8l.7-1.141a6.07,6.07,0,0,0,4.3,1.622c2.382,0,3.642-1.161,3.642-2.861,0-1.8-1.121-2.921-4.682-2.921h-2.981l.721-7.023h7.662v1.28h-6.4l-.48,4.461h1.8C239.6,213.435,241.2,215.1,241.2,217.576Z" transform="translate(-219.652 -207.573)" fill="#263238"/><path d="M244.962,214.676c0-4.461,2.341-7.122,5.583-7.122s5.6,2.66,5.6,7.122-2.36,7.123-5.6,7.123S244.962,219.138,244.962,214.676Zm9.7,0c0-3.741-1.68-5.8-4.121-5.8s-4.122,2.061-4.122,5.8,1.681,5.8,4.122,5.8S254.666,218.417,254.666,214.676Z" transform="translate(-221.596 -207.554)" fill="#263238"/></g><g transform="translate(11.648 68.752)"><path d="M232.967,234.873v4.822h-.5v-4.381h-1.137v-.441Z" transform="translate(-231.334 -234.839)" fill="#263238"/><path d="M237.81,238.275c0,.82-.572,1.461-1.75,1.461a2.489,2.489,0,0,1-1.728-.62l.241-.393a2.086,2.086,0,0,0,1.481.558c.82,0,1.254-.4,1.254-.984,0-.62-.385-1.006-1.611-1.006h-1.027l.248-2.418h2.639v.441h-2.2l-.165,1.536h.62C237.259,236.85,237.81,237.421,237.81,238.275Z" transform="translate(-231.754 -234.839)" fill="#263238"/><path d="M238.949,236.142c0-.785.441-1.309,1.088-1.309s1.088.517,1.088,1.309-.447,1.309-1.088,1.309S238.949,236.927,238.949,236.142Zm1.832,0c0-.627-.3-1-.745-1s-.744.378-.744,1,.29,1,.744,1S240.781,236.768,240.781,236.142Zm2.176-1.274h.407l-3.293,4.822h-.406Zm-1.054,3.547c0-.785.448-1.309,1.089-1.309s1.089.524,1.089,1.309-.441,1.309-1.089,1.309S241.9,239.2,241.9,238.415Zm1.832,0c0-.62-.289-1-.744-1s-.744.372-.744,1,.3,1,.744,1S243.735,239.035,243.735,238.415Z" transform="translate(-232.402 -234.833)" fill="#263238"/></g></g><g transform="translate(74.594)"><path d="M321.08,186.482h0a16.536,16.536,0,0,1-16.536-16.536h0A16.536,16.536,0,0,1,321.08,153.41h0a16.536,16.536,0,0,1,16.536,16.536h0A16.536,16.536,0,0,1,321.08,186.482Z" transform="translate(-304.544 -153.41)" fill="#263238"/><g transform="translate(8.709 7.322)"><g transform="translate(0.329 5.528)"><rect width="3.422" height="11.056" fill="#fff"/></g><path d="M316.7,166.007a2.04,2.04,0,1,0-2.023-2.041A2.033,2.033,0,0,0,316.7,166.007Z" transform="translate(-314.673 -161.926)" fill="#fff"/><g transform="translate(5.939 5.191)"><path d="M324.863,173.553c0-1.555.715-2.48,2.086-2.48,1.258,0,1.862.889,1.862,2.48v5.8h3.406v-7c0-2.961-1.678-4.393-4.022-4.393a3.856,3.856,0,0,0-3.333,1.826V168.3H321.58v11.056h3.283Z" transform="translate(-321.58 -167.963)" fill="#fff"/></g></g><g transform="translate(6.723 45.299)"><path d="M317.1,206.235V220.24h-1.441V207.515h-3.3v-1.28Z" transform="translate(-312.363 -206.115)" fill="#263238"/><path d="M332.514,216.319c0,2.48-2.1,4.021-5.442,4.021-3.362,0-5.4-1.541-5.4-4.021a3.5,3.5,0,0,1,2.7-3.441,3.16,3.16,0,0,1-2.2-3.081c0-2.281,1.941-3.7,4.9-3.7s4.941,1.42,4.941,3.7a3.171,3.171,0,0,1-2.241,3.081A3.526,3.526,0,0,1,332.514,216.319Zm-1.481-.02c0-1.72-1.481-2.8-3.961-2.8s-3.942,1.081-3.942,2.8c0,1.74,1.461,2.821,3.942,2.821S331.033,218.039,331.033,216.3Zm-3.961-3.941c2.18,0,3.481-.98,3.481-2.5,0-1.58-1.381-2.541-3.481-2.541-2.121,0-3.462.96-3.462,2.521C323.611,211.378,324.891,212.358,327.072,212.358Z" transform="translate(-313.668 -206.096)" fill="#263238"/></g><g transform="translate(10.573 68.753)"><path d="M316.841,236.6h1.806v.427h-1.806Z" transform="translate(-316.841 -233.828)" fill="#263238"/><path d="M323.988,236.969h-.965v1.267h-.5v-1.267h-2.721v-.359l2.555-3.2h.551l-2.466,3.113h2.094v-1.116h.482v1.116h.965Z" transform="translate(-317.257 -233.381)" fill="#263238"/><path d="M324.881,234.684c0-.785.441-1.309,1.089-1.309s1.088.517,1.088,1.309-.448,1.309-1.088,1.309S324.881,235.469,324.881,234.684Zm1.832,0c0-.627-.3-1-.744-1s-.744.378-.744,1,.289,1,.744,1S326.713,235.31,326.713,234.684Zm2.177-1.274h.406L326,238.231H325.6Zm-1.054,3.548c0-.785.448-1.309,1.089-1.309s1.089.524,1.089,1.309-.441,1.309-1.089,1.309S327.836,237.742,327.836,236.957Zm1.832,0c0-.62-.29-1-.744-1s-.744.372-.744,1,.3,1,.744,1S329.668,237.577,329.668,236.957Z" transform="translate(-317.968 -233.375)" fill="#263238"/></g></g><g transform="translate(139.149 2.503)"><g transform="translate(2.562)"><path d="M397.647,186.4h0a15.041,15.041,0,0,1-15.041-15.041h0a15.041,15.041,0,0,1,15.041-15.041h0a15.041,15.041,0,0,1,15.041,15.041h0A15.041,15.041,0,0,1,397.647,186.4Z" transform="translate(-382.606 -156.321)" fill="#489ddc"/><g transform="translate(7.027 8.528)"><path d="M390.779,177.788a9.352,9.352,0,0,0,14.388-8.3,6.682,6.682,0,0,0,1.64-1.7,6.575,6.575,0,0,1-1.889.518,3.3,3.3,0,0,0,1.446-1.819,6.59,6.59,0,0,1-2.088.8,3.291,3.291,0,0,0-5.6,3,9.333,9.333,0,0,1-6.778-3.437,3.292,3.292,0,0,0,1.018,4.391,3.268,3.268,0,0,1-1.49-.412,3.291,3.291,0,0,0,2.637,3.266,3.279,3.279,0,0,1-1.484.056,3.291,3.291,0,0,0,3.071,2.284A6.608,6.608,0,0,1,390.779,177.788Z" transform="translate(-390.779 -166.24)" fill="#fff"/></g></g><g transform="translate(0 41.654)"><path d="M389.87,217.612v1.281h-9.824v-1.021l5.822-5.7c1.581-1.561,1.881-2.5,1.881-3.462,0-1.62-1.14-2.621-3.282-2.621a4.754,4.754,0,0,0-3.821,1.561l-1.02-.88a6.292,6.292,0,0,1,4.961-2c2.842,0,4.642,1.441,4.642,3.781,0,1.34-.42,2.541-2.3,4.381l-4.762,4.682Z" transform="translate(-379.626 -204.768)" fill="#263238"/><path d="M403.037,214.791c0,2.381-1.66,4.241-5.081,4.241a7.23,7.23,0,0,1-5.022-1.8l.7-1.141a6.067,6.067,0,0,0,4.3,1.622c2.381,0,3.641-1.161,3.641-2.861,0-1.8-1.12-2.922-4.682-2.922h-2.981l.72-7.022H402.3v1.28h-6.4l-.481,4.461h1.8C401.437,210.65,403.037,212.31,403.037,214.791Z" transform="translate(-381.492 -204.788)" fill="#263238"/><path d="M406.8,211.891c0-4.461,2.341-7.123,5.583-7.123s5.6,2.661,5.6,7.123-2.361,7.123-5.6,7.123S406.8,216.353,406.8,211.891Zm9.7,0c0-3.741-1.681-5.8-4.121-5.8s-4.121,2.061-4.121,5.8,1.68,5.8,4.121,5.8S416.5,215.632,416.5,211.891Z" transform="translate(-383.436 -204.768)" fill="#263238"/></g><g transform="translate(12.9 65.109)"><path d="M398.116,235.525c0,.806-.586,1.426-1.75,1.426a2.505,2.505,0,0,1-1.736-.62l.242-.392a2.113,2.113,0,0,0,1.494.558c.8,0,1.24-.372,1.24-.972,0-.579-.406-.957-1.3-.957h-.345V234.2l1.336-1.674H394.83v-.44h3.1v.351l-1.364,1.714C397.6,234.209,398.116,234.753,398.116,235.525Z" transform="translate(-394.63 -232.054)" fill="#263238"/><path d="M399.336,233.357c0-.786.44-1.309,1.088-1.309s1.089.516,1.089,1.309-.448,1.309-1.089,1.309S399.336,234.142,399.336,233.357Zm1.831,0c0-.627-.3-1-.744-1s-.744.379-.744,1,.289,1,.744,1S401.167,233.983,401.167,233.357Zm2.177-1.274h.406l-3.292,4.821h-.406Zm-1.054,3.547c0-.785.448-1.309,1.089-1.309s1.088.524,1.088,1.309-.44,1.309-1.088,1.309S402.29,236.414,402.29,235.629Zm1.832,0c0-.62-.29-1-.744-1s-.745.371-.745,1,.3,1,.745,1S404.122,236.249,404.122,235.629Z" transform="translate(-395.29 -232.048)" fill="#263238"/></g></g></g><g transform="translate(290.306 124.546)"><g transform="translate(16.098 26.399)"><g transform="translate(28.34 11.818)"><rect width="3.393" height="11.366" fill="#489ddc"/></g><g transform="translate(0 10.171)"><rect width="3.393" height="13.012" fill="#489ddc"/></g><g transform="translate(7.085 7.459)"><rect width="3.393" height="15.724" fill="#489ddc"/></g><g transform="translate(14.17 8.321)"><rect width="3.393" height="14.862" fill="#489ddc"/></g><g transform="translate(21.255 3.293)"><rect width="3.393" height="19.89" fill="#489ddc"/></g><g transform="translate(35.425 3.39)"><rect width="3.393" height="19.793" fill="#489ddc"/></g><g transform="translate(42.511 9.891)"><rect width="3.393" height="13.292" fill="#489ddc"/></g><g transform="translate(49.596 4.262)"><rect width="3.393" height="18.921" fill="#489ddc"/></g><g transform="translate(56.681)"><rect width="3.393" height="23.183" fill="#489ddc"/></g><g transform="translate(63.766 4.165)"><rect width="3.393" height="19.018" fill="#489ddc"/></g></g><g transform="translate(0)"><path d="M543.417,275.948H459.958a6.9,6.9,0,0,1-6.89-6.89v-49.9a6.9,6.9,0,0,1,6.89-6.89h83.458a6.9,6.9,0,0,1,6.89,6.89v49.9A6.9,6.9,0,0,1,543.417,275.948Zm-83.458-63a6.217,6.217,0,0,0-6.209,6.209v49.9a6.216,6.216,0,0,0,6.209,6.209h83.458a6.216,6.216,0,0,0,6.209-6.209v-49.9a6.217,6.217,0,0,0-6.209-6.209Z" transform="translate(-453.068 -212.272)" fill="#e0e0e0"/></g><g transform="translate(11.278 16.412)"><path d="M509.308,231.537c0,.1-9.655.177-21.561.177s-21.562-.079-21.562-.177,9.652-.177,21.562-.177S509.308,231.439,509.308,231.537Z" transform="translate(-466.185 -231.36)" fill="#e0e0e0"/></g></g><g transform="translate(290.306 47.746)"><path d="M543.417,186.624H459.958a6.9,6.9,0,0,1-6.89-6.89v-49.9a6.9,6.9,0,0,1,6.89-6.89h83.458a6.9,6.9,0,0,1,6.89,6.89v49.9A6.9,6.9,0,0,1,543.417,186.624Zm-83.458-63a6.217,6.217,0,0,0-6.209,6.209v49.9a6.216,6.216,0,0,0,6.209,6.209h83.458a6.216,6.216,0,0,0,6.209-6.209v-49.9a6.217,6.217,0,0,0-6.209-6.209Z" transform="translate(-453.068 -122.948)" fill="#e0e0e0"/></g><g transform="translate(306.937 60.688)"><path d="M474.065,172.362h0a1.655,1.655,0,0,1-1.654-1.655V139.655A1.655,1.655,0,0,1,474.065,138h0a1.655,1.655,0,0,1,1.655,1.655v31.051A1.655,1.655,0,0,1,474.065,172.362Z" transform="translate(-472.411 -138)" fill="#e0e0e0"/></g><g transform="translate(306.937 71.868)"><path d="M474.065,174.331h0a1.655,1.655,0,0,1-1.654-1.655V152.658A1.655,1.655,0,0,1,474.065,151h0a1.655,1.655,0,0,1,1.655,1.655v20.018A1.655,1.655,0,0,1,474.065,174.331Z" transform="translate(-472.411 -151.003)" fill="#489ddc"/></g><g transform="translate(306.616 96.491)"><path d="M472.972,179.642v2.76h-.284v-2.508h-.651v-.252Z" transform="translate(-472.037 -179.642)" fill="#263238"/></g><g transform="translate(308.208 96.467)"><path d="M473.889,181.018c0-.88.461-1.4,1.1-1.4s1.1.524,1.1,1.4-.466,1.4-1.1,1.4S473.889,181.9,473.889,181.018Zm1.912,0c0-.738-.331-1.144-.813-1.144s-.812.406-.812,1.144.331,1.144.812,1.144S475.8,181.756,475.8,181.018Z" transform="translate(-473.889 -179.614)" fill="#263238"/></g><g transform="translate(313.553 60.688)"><path d="M481.76,172.362h0a1.655,1.655,0,0,1-1.654-1.655V139.655A1.655,1.655,0,0,1,481.76,138h0a1.655,1.655,0,0,1,1.655,1.655v31.051A1.655,1.655,0,0,1,481.76,172.362Z" transform="translate(-480.106 -138)" fill="#e0e0e0"/></g><g transform="translate(313.553 65.563)"><path d="M481.76,173.3h0a1.655,1.655,0,0,1-1.654-1.655V145.325a1.655,1.655,0,0,1,1.654-1.655h0a1.655,1.655,0,0,1,1.655,1.655v26.323A1.655,1.655,0,0,1,481.76,173.3Z" transform="translate(-480.106 -143.67)" fill="#489ddc"/></g><g transform="translate(312.795 96.467)"><path d="M481.243,182.146v.252h-1.936v-.2l1.148-1.124c.311-.307.371-.493.371-.682,0-.32-.225-.517-.647-.517a.936.936,0,0,0-.752.308l-.2-.174a1.24,1.24,0,0,1,.978-.395c.56,0,.915.285.915.745a1.134,1.134,0,0,1-.454.863l-.938.923Z" transform="translate(-479.224 -179.614)" fill="#263238"/></g><g transform="translate(315.151 96.467)"><path d="M481.964,181.018c0-.88.461-1.4,1.1-1.4s1.1.524,1.1,1.4-.466,1.4-1.1,1.4S481.964,181.9,481.964,181.018Zm1.912,0c0-.738-.331-1.144-.812-1.144s-.812.406-.812,1.144.331,1.144.812,1.144S483.876,181.756,483.876,181.018Z" transform="translate(-481.964 -179.614)" fill="#263238"/></g><g transform="translate(320.169 60.688)"><path d="M489.455,172.362h0a1.655,1.655,0,0,1-1.654-1.655V139.655A1.655,1.655,0,0,1,489.455,138h0a1.655,1.655,0,0,1,1.655,1.655v31.051A1.655,1.655,0,0,1,489.455,172.362Z" transform="translate(-487.801 -138)" fill="#e0e0e0"/></g><g transform="translate(320.169 76.596)"><path d="M489.455,175.1h0a1.655,1.655,0,0,1-1.654-1.655v-15.29a1.654,1.654,0,0,1,1.654-1.654h0a1.654,1.654,0,0,1,1.655,1.654v15.29A1.655,1.655,0,0,1,489.455,175.1Z" transform="translate(-487.801 -156.503)" fill="#489ddc"/></g><g transform="translate(319.399 96.491)"><path d="M488.9,181.609c0,.462-.335.817-1,.817a1.435,1.435,0,0,1-.994-.355l.138-.224a1.211,1.211,0,0,0,.855.319c.457,0,.709-.213.709-.556s-.232-.548-.745-.548h-.2v-.209l.765-.959h-1.412v-.252h1.775v.2l-.781.981C488.6,180.857,488.9,181.167,488.9,181.609Z" transform="translate(-486.905 -179.642)" fill="#263238"/></g><g transform="translate(321.791 96.467)"><path d="M489.687,181.018c0-.88.461-1.4,1.1-1.4s1.1.524,1.1,1.4-.465,1.4-1.1,1.4S489.687,181.9,489.687,181.018Zm1.912,0c0-.738-.331-1.144-.812-1.144s-.812.406-.812,1.144.332,1.144.813,1.144S491.6,181.756,491.6,181.018Z" transform="translate(-489.687 -179.614)" fill="#263238"/></g><g transform="translate(326.786 60.688)"><path d="M497.15,172.362h0a1.655,1.655,0,0,1-1.654-1.655V139.655A1.655,1.655,0,0,1,497.15,138h0a1.655,1.655,0,0,1,1.655,1.655v31.051A1.655,1.655,0,0,1,497.15,172.362Z" transform="translate(-495.496 -138)" fill="#e0e0e0"/></g><g transform="translate(326.786 65.563)"><path d="M497.15,173.3h0a1.655,1.655,0,0,1-1.654-1.655V145.325a1.654,1.654,0,0,1,1.654-1.655h0a1.655,1.655,0,0,1,1.655,1.655v26.323A1.655,1.655,0,0,1,497.15,173.3Z" transform="translate(-495.496 -143.67)" fill="#489ddc"/></g><g transform="translate(326.061 96.491)"><path d="M497.047,181.676h-.552v.726h-.284v-.726h-1.558v-.2l1.463-1.83h.316l-1.412,1.782h1.2v-.639h.276v.639h.552Z" transform="translate(-494.653 -179.642)" fill="#263238"/></g><g transform="translate(328.712 96.467)"><path d="M497.737,181.018c0-.88.461-1.4,1.1-1.4s1.1.524,1.1,1.4-.465,1.4-1.1,1.4S497.737,181.9,497.737,181.018Zm1.912,0c0-.738-.331-1.144-.812-1.144s-.812.406-.812,1.144.332,1.144.813,1.144S499.649,181.756,499.649,181.018Z" transform="translate(-497.737 -179.614)" fill="#263238"/></g><g transform="translate(333.402 60.688)"><path d="M504.845,172.362h0a1.655,1.655,0,0,1-1.654-1.655V139.655A1.655,1.655,0,0,1,504.845,138h0a1.655,1.655,0,0,1,1.655,1.655v31.051A1.655,1.655,0,0,1,504.845,172.362Z" transform="translate(-503.191 -138)" fill="#e0e0e0"/></g><g transform="translate(333.402 70.606)"><path d="M504.845,174.125h0a1.655,1.655,0,0,1-1.654-1.655V151.191a1.655,1.655,0,0,1,1.654-1.655h0a1.655,1.655,0,0,1,1.655,1.655V172.47A1.655,1.655,0,0,1,504.845,174.125Z" transform="translate(-503.191 -149.536)" fill="#489ddc"/></g><g transform="translate(332.918 96.491)"><path d="M504.619,181.589c0,.469-.327.837-1,.837a1.429,1.429,0,0,1-.99-.355l.138-.224a1.2,1.2,0,0,0,.848.319c.469,0,.718-.229.718-.564,0-.355-.221-.576-.923-.576h-.588l.142-1.383h1.511v.252h-1.262l-.095.88h.355C504.3,180.773,504.619,181.1,504.619,181.589Z" transform="translate(-502.628 -179.642)" fill="#263238"/></g><g transform="translate(335.267 96.467)"><path d="M505.36,181.018c0-.88.461-1.4,1.1-1.4s1.1.524,1.1,1.4-.465,1.4-1.1,1.4S505.36,181.9,505.36,181.018Zm1.912,0c0-.738-.331-1.144-.812-1.144s-.812.406-.812,1.144.332,1.144.813,1.144S507.272,181.756,507.272,181.018Z" transform="translate(-505.36 -179.614)" fill="#263238"/></g><g transform="translate(340.018 60.688)"><path d="M512.54,172.362h0a1.655,1.655,0,0,1-1.654-1.655V139.655A1.655,1.655,0,0,1,512.54,138h0a1.655,1.655,0,0,1,1.655,1.655v31.051A1.655,1.655,0,0,1,512.54,172.362Z" transform="translate(-510.886 -138)" fill="#e0e0e0"/></g><g transform="translate(340.018 76.45)"><path d="M512.54,174.932h0a1.631,1.631,0,0,1-1.654-1.509v-15.29a1.692,1.692,0,0,1,1.654-1.8h0a1.654,1.654,0,0,1,1.655,1.655v15.289A1.655,1.655,0,0,1,512.54,174.932Z" transform="translate(-510.886 -156.333)" fill="#489ddc"/></g><g transform="translate(339.382 96.467)"><path d="M512.22,181.574a.86.86,0,0,1-.942.848c-.733,0-1.132-.509-1.132-1.381,0-.938.512-1.427,1.261-1.427a1.276,1.276,0,0,1,.655.15l-.114.229a.975.975,0,0,0-.536-.13c-.6,0-.978.383-.978,1.132,0,.063,0,.142.011.224a.883.883,0,0,1,.844-.473A.836.836,0,0,1,512.22,181.574Zm-.279.008c0-.363-.268-.6-.695-.6a.639.639,0,0,0-.709.6c0,.3.252.592.729.592A.6.6,0,0,0,511.94,181.582Z" transform="translate(-510.146 -179.614)" fill="#263238"/></g><g transform="translate(341.781 96.467)"><path d="M512.937,181.018c0-.88.461-1.4,1.1-1.4s1.1.524,1.1,1.4-.465,1.4-1.1,1.4S512.937,181.9,512.937,181.018Zm1.912,0c0-.738-.331-1.144-.812-1.144s-.812.406-.812,1.144.332,1.144.813,1.144S514.849,181.756,514.849,181.018Z" transform="translate(-512.937 -179.614)" fill="#263238"/></g><g transform="translate(346.634 60.688)"><path d="M520.235,172.362h0a1.655,1.655,0,0,1-1.654-1.655V139.655A1.655,1.655,0,0,1,520.235,138h0a1.655,1.655,0,0,1,1.655,1.655v31.051A1.655,1.655,0,0,1,520.235,172.362Z" transform="translate(-518.581 -138)" fill="#e0e0e0"/></g><g transform="translate(346.634 63.987)"><path d="M520.235,173.046h0a1.655,1.655,0,0,1-1.654-1.655v-27.9a1.655,1.655,0,0,1,1.654-1.655h0a1.655,1.655,0,0,1,1.655,1.655v27.9A1.655,1.655,0,0,1,520.235,173.046Z" transform="translate(-518.581 -141.837)" fill="#489ddc"/></g><g transform="translate(345.909 96.491)"><path d="M519.765,179.642v.2l-1.156,2.559H518.3l1.135-2.508h-1.419v.517h-.28v-.769Z" transform="translate(-517.738 -179.642)" fill="#263238"/></g><g transform="translate(348.23 96.467)"><path d="M520.437,181.018c0-.88.462-1.4,1.1-1.4s1.1.524,1.1,1.4-.465,1.4-1.1,1.4S520.437,181.9,520.437,181.018Zm1.912,0c0-.738-.331-1.144-.812-1.144s-.812.406-.812,1.144.331,1.144.813,1.144S522.349,181.756,522.349,181.018Z" transform="translate(-520.437 -179.614)" fill="#263238"/></g><g transform="translate(353.25 60.688)"><path d="M527.931,172.362h0a1.655,1.655,0,0,1-1.655-1.655V139.655A1.655,1.655,0,0,1,527.931,138h0a1.655,1.655,0,0,1,1.654,1.655v31.051A1.655,1.655,0,0,1,527.931,172.362Z" transform="translate(-526.276 -138)" fill="#e0e0e0"/></g><g transform="translate(353.25 79.749)"><path d="M527.931,175.616h0a1.655,1.655,0,0,1-1.655-1.655V161.824a1.655,1.655,0,0,1,1.655-1.655h0a1.655,1.655,0,0,1,1.654,1.655v12.137A1.655,1.655,0,0,1,527.931,175.616Z" transform="translate(-526.276 -160.169)" fill="#489ddc"/></g><g transform="translate(352.438 96.467)"><path d="M527.469,181.629c0,.489-.414.793-1.073.793s-1.064-.3-1.064-.793a.689.689,0,0,1,.532-.678.623.623,0,0,1-.434-.607c0-.45.383-.73.966-.73s.974.28.974.73a.626.626,0,0,1-.442.607A.7.7,0,0,1,527.469,181.629Zm-.292,0c0-.339-.292-.552-.781-.552s-.776.213-.776.552.287.556.776.556S527.177,181.968,527.177,181.625Zm-.781-.776c.43,0,.686-.193.686-.494s-.272-.5-.686-.5-.682.189-.682.5S525.967,180.849,526.4,180.849Z" transform="translate(-525.332 -179.614)" fill="#263238"/></g><g transform="translate(354.968 96.467)"><path d="M528.274,181.018c0-.88.461-1.4,1.1-1.4s1.1.524,1.1,1.4-.466,1.4-1.1,1.4S528.274,181.9,528.274,181.018Zm1.912,0c0-.738-.331-1.144-.812-1.144s-.812.406-.812,1.144.332,1.144.813,1.144S530.186,181.756,530.186,181.018Z" transform="translate(-528.274 -179.614)" fill="#263238"/></g><g transform="translate(359.866 60.688)"><path d="M535.626,172.362h0a1.655,1.655,0,0,1-1.655-1.655V139.655A1.655,1.655,0,0,1,535.626,138h0a1.655,1.655,0,0,1,1.654,1.655v31.051A1.655,1.655,0,0,1,535.626,172.362Z" transform="translate(-533.971 -138)" fill="#e0e0e0"/></g><g transform="translate(359.866 87.483)"><path d="M535.626,176.731h0a1.632,1.632,0,0,1-1.655-1.509v-4.256a1.692,1.692,0,0,1,1.655-1.8h0a1.655,1.655,0,0,1,1.654,1.655v4.256A1.655,1.655,0,0,1,535.626,176.731Z" transform="translate(-533.971 -169.165)" fill="#489ddc"/></g><g transform="translate(358.949 96.467)"><path d="M534.978,180.995c0,.938-.512,1.427-1.261,1.427a1.268,1.268,0,0,1-.655-.15l.114-.228a.977.977,0,0,0,.537.129c.6,0,.978-.382.978-1.131,0-.063,0-.142-.011-.224a.883.883,0,0,1-.844.473.836.836,0,0,1-.93-.828.86.86,0,0,1,.942-.848C534.58,179.614,534.978,180.123,534.978,180.995Zm-.39-.549c0-.3-.252-.592-.729-.592a.6.6,0,0,0-.675.6c0,.363.268.6.694.6A.639.639,0,0,0,534.587,180.446Z" transform="translate(-532.904 -179.614)" fill="#263238"/></g><g transform="translate(361.431 96.467)"><path d="M535.791,181.018c0-.88.462-1.4,1.1-1.4s1.1.524,1.1,1.4-.466,1.4-1.1,1.4S535.791,181.9,535.791,181.018Zm1.912,0c0-.738-.331-1.144-.812-1.144s-.812.406-.812,1.144.331,1.144.812,1.144S537.7,181.756,537.7,181.018Z" transform="translate(-535.791 -179.614)" fill="#263238"/></g><g transform="translate(366.482 60.688)"><path d="M543.321,172.362h0a1.655,1.655,0,0,1-1.655-1.655V139.655A1.655,1.655,0,0,1,543.321,138h0a1.655,1.655,0,0,1,1.654,1.655v31.051A1.655,1.655,0,0,1,543.321,172.362Z" transform="translate(-541.666 -138)" fill="#e0e0e0"/></g><g transform="translate(366.482 76.45)"><path d="M543.321,174.932h0a1.632,1.632,0,0,1-1.655-1.509v-15.29a1.692,1.692,0,0,1,1.655-1.8h0a1.654,1.654,0,0,1,1.654,1.655v15.289A1.655,1.655,0,0,1,543.321,174.932Z" transform="translate(-541.666 -156.333)" fill="#489ddc"/></g><g transform="translate(364.831 96.491)"><path d="M540.681,179.642v2.76H540.4v-2.508h-.651v-.252Z" transform="translate(-539.746 -179.642)" fill="#263238"/></g><g transform="translate(366.423 96.467)"><path d="M541.6,181.018c0-.88.462-1.4,1.1-1.4s1.1.524,1.1,1.4-.465,1.4-1.1,1.4S541.6,181.9,541.6,181.018Zm1.913,0c0-.738-.332-1.144-.812-1.144s-.812.406-.812,1.144.332,1.144.813,1.144S543.51,181.756,543.51,181.018Z" transform="translate(-541.597 -179.614)" fill="#263238"/></g><g transform="translate(369.031 96.467)"><path d="M544.631,181.018c0-.88.461-1.4,1.1-1.4s1.1.524,1.1,1.4-.466,1.4-1.1,1.4S544.631,181.9,544.631,181.018Zm1.912,0c0-.738-.331-1.144-.812-1.144s-.812.406-.812,1.144.331,1.144.812,1.144S546.543,181.756,546.543,181.018Z" transform="translate(-544.631 -179.614)" fill="#263238"/></g><g transform="translate(290.078 198.573)"><g transform="translate(16.301 20.932)"><g transform="translate(0 0.003)"><g transform="translate(2.2 2.193)"><path d="M479.888,326.769a11.152,11.152,0,0,0-2.307,1.769,11.162,11.162,0,0,0-2.883,4.991,11.221,11.221,0,0,0,0,5.772,10.962,10.962,0,0,0,1.113,2.684,11.123,11.123,0,0,0,4.076,4.076,11.116,11.116,0,0,0,13.421-1.75c.006,0,.02-.013.027-.02a11.1,11.1,0,0,0,1.769-13.447,11.134,11.134,0,0,0-15.217-4.076Z" transform="translate(-474.321 -325.271)" fill="none"/></g><path d="M490.67,345.7a11.128,11.128,0,0,1-11.14,0,11.122,11.122,0,0,1-4.076-4.076,10.966,10.966,0,0,1-1.113-2.684,11.221,11.221,0,0,1,0-5.772,11.162,11.162,0,0,1,2.883-4.991,11.152,11.152,0,0,1,2.307-1.769,11.178,11.178,0,0,1,5.573-1.5V322.72a13.317,13.317,0,0,0-6.674,1.782,13.641,13.641,0,0,0-2.763,2.121,13.231,13.231,0,0,0-2.114,2.763,13.035,13.035,0,0,0-1.339,3.215,13.458,13.458,0,0,0,0,6.906,13.091,13.091,0,0,0,1.339,3.221,13.231,13.231,0,0,0,2.114,2.763,13.366,13.366,0,0,0,2.763,2.114,13.077,13.077,0,0,0,3.221,1.339,13.458,13.458,0,0,0,6.906,0,13.432,13.432,0,0,0,5.951-3.433l-1.557-1.557A10.872,10.872,0,0,1,490.67,345.7Z" transform="translate(-471.762 -322.72)" fill="#489ddc"/><g transform="translate(13.341)"><path d="M500.162,332.6a13.355,13.355,0,0,0-1.332-3.215,13.36,13.36,0,0,0-4.884-4.884,13.321,13.321,0,0,0-3.215-1.332,13.516,13.516,0,0,0-3.453-.451v2.193a11.147,11.147,0,0,1,9.643,5.574,11.142,11.142,0,0,1-1.769,13.447c-.007.007-.021.02-.027.02l1.557,1.557c.007,0,.02-.013.027-.02a13.383,13.383,0,0,0,3.453-12.89Z" transform="translate(-487.278 -322.72)" fill="#e0e0e0"/></g><g transform="translate(8.308 12.019)"><path d="M484.316,339.432A1.2,1.2,0,0,1,483,340.614c-1.022,0-1.578-.709-1.578-1.924,0-1.308.715-1.99,1.759-1.99a1.765,1.765,0,0,1,.913.21l-.16.318a1.344,1.344,0,0,0-.747-.181c-.831,0-1.364.533-1.364,1.578,0,.089.005.2.016.313a1.23,1.23,0,0,1,1.177-.659A1.165,1.165,0,0,1,484.316,339.432Zm-.39.01c0-.506-.373-.831-.967-.831a.89.89,0,0,0-.989.842c0,.423.352.825,1.016.825A.842.842,0,0,0,483.926,339.443Z" transform="translate(-481.425 -336.699)" fill="#263238"/><g transform="translate(3.186 0.034)"><path d="M487.906,339.453c0,.654-.457,1.166-1.4,1.166a1.984,1.984,0,0,1-1.379-.5l.192-.313a1.668,1.668,0,0,0,1.182.445c.654,0,1-.319,1-.786,0-.5-.308-.8-1.287-.8H485.4l.2-1.929h2.1v.352h-1.759l-.132,1.226h.494C487.466,338.316,487.906,338.772,487.906,339.453Z" transform="translate(-485.13 -336.738)" fill="#263238"/></g><g transform="translate(6.353 0.005)"><path d="M488.814,337.75c0-.626.352-1.045.868-1.045s.869.413.869,1.045-.358,1.045-.869,1.045S488.814,338.377,488.814,337.75Zm1.463,0c0-.5-.236-.8-.594-.8s-.593.3-.593.8.23.8.593.8S490.277,338.25,490.277,337.75Zm1.737-1.016h.325l-2.628,3.848h-.324Zm-.841,2.831c0-.628.358-1.045.868-1.045s.868.417.868,1.045-.352,1.045-.868,1.045S491.172,340.191,491.172,339.565Zm1.462,0c0-.494-.231-.8-.594-.8s-.593.3-.593.8.236.8.593.8S492.635,340.059,492.635,339.565Z" transform="translate(-488.814 -336.705)" fill="#263238"/></g></g></g><g transform="translate(38.415)"><g transform="translate(0.032 0.003)"><path d="M543.125,336.06a13.474,13.474,0,0,1-.451,3.449,13.087,13.087,0,0,1-1.339,3.216,13.24,13.24,0,0,1-4.881,4.881,13.091,13.091,0,0,1-3.216,1.339,13.451,13.451,0,0,1-6.9,0,13.072,13.072,0,0,1-3.215-1.339,13.233,13.233,0,0,1-4.882-4.881,13.09,13.09,0,0,1-1.339-3.216,13.81,13.81,0,0,1-.421-2.524h2.211a11.573,11.573,0,0,0,.334,1.957,11.028,11.028,0,0,0,1.113,2.684,11.144,11.144,0,1,0,9.646-16.71v-2.2a13.451,13.451,0,0,1,3.456.451,13.056,13.056,0,0,1,3.216,1.338,13.25,13.25,0,0,1,4.881,4.882,13.06,13.06,0,0,1,1.339,3.216A13.476,13.476,0,0,1,543.125,336.06Z" transform="translate(-516.478 -322.719)" fill="#e0e0e0"/><g transform="translate(7.473 11.807)"><g transform="translate(0 0.028)"><path d="M528,336.483v.28l-1.611,3.568h-.428l1.583-3.5H525.56v.721h-.39v-1.072Z" transform="translate(-525.17 -336.483)" fill="#263238"/></g><g transform="translate(3.08 0.028)"><path d="M531.528,339.2c0,.654-.457,1.165-1.4,1.165a1.986,1.986,0,0,1-1.38-.494l.193-.313a1.666,1.666,0,0,0,1.182.445c.653,0,1-.32,1-.787,0-.494-.308-.8-1.286-.8h-.819l.2-1.93h2.1v.352h-1.759l-.132,1.226h.494C531.088,338.061,531.528,338.518,531.528,339.2Z" transform="translate(-528.752 -336.483)" fill="#263238"/></g><g transform="translate(6.248)"><path d="M532.437,337.5c0-.627.352-1.045.868-1.045s.869.413.869,1.045-.358,1.045-.869,1.045S532.437,338.122,532.437,337.5Zm1.463,0c0-.5-.237-.8-.594-.8s-.593.3-.593.8.23.8.593.8S533.9,338,533.9,337.5Zm1.737-1.017h.325l-2.628,3.848h-.324Zm-.841,2.831c0-.627.358-1.045.868-1.045s.868.418.868,1.045-.352,1.045-.868,1.045S534.8,339.937,534.8,339.31Zm1.463,0c0-.494-.231-.8-.594-.8s-.593.3-.593.8.236.8.593.8S536.258,339.805,536.258,339.31Z" transform="translate(-532.437 -336.451)" fill="#263238"/></g></g></g><path d="M540.923,336.06a11.088,11.088,0,0,1-3.266,7.871,11.21,11.21,0,0,1-2.306,1.775,11.134,11.134,0,0,1-11.138,0,11.278,11.278,0,0,1-4.081-4.081,11.028,11.028,0,0,1-1.113-2.684,11.573,11.573,0,0,1-.334-1.957h0c-.026-.306-.044-.615-.044-.928a11.14,11.14,0,0,1,11.142-11.141v-2.2a13.338,13.338,0,0,0-13.341,13.341c0,.312.012.621.034.928h0a13.81,13.81,0,0,0,.421,2.524,13.09,13.09,0,0,0,1.339,3.216,13.233,13.233,0,0,0,4.882,4.881,13.072,13.072,0,0,0,3.215,1.339,13.451,13.451,0,0,0,6.9,0,13.091,13.091,0,0,0,3.216-1.339,13.24,13.24,0,0,0,4.881-4.881,13.087,13.087,0,0,0,1.339-3.216,13.474,13.474,0,0,0,.451-3.449Z" transform="translate(-516.441 -322.716)" fill="#489ddc"/></g></g><g transform="translate(0)"><path d="M544.7,358.3H458.6A5.8,5.8,0,0,1,452.8,352.5V304.165a5.8,5.8,0,0,1,5.794-5.794H544.7a5.8,5.8,0,0,1,5.794,5.794V352.5A5.8,5.8,0,0,1,544.7,358.3ZM458.6,299.03a5.141,5.141,0,0,0-5.136,5.136V352.5a5.142,5.142,0,0,0,5.136,5.136H544.7a5.142,5.142,0,0,0,5.136-5.136V304.165a5.141,5.141,0,0,0-5.136-5.136Z" transform="translate(-452.803 -298.371)" fill="#e0e0e0"/></g><g transform="translate(9.533 13.408)"><path d="M504.108,314.137c0,.095-9,.171-20.108.171s-20.109-.077-20.109-.171,9-.172,20.109-.172S504.108,314.042,504.108,314.137Z" transform="translate(-463.891 -313.965)" fill="#e0e0e0"/></g></g><g transform="translate(87.97 40.747)"><path d="M217.736,121.227l.408-.916a3.515,3.515,0,0,0,2.094.7c.988,0,1.4-.353,1.4-.825,0-1.369-3.771-.471-3.771-2.829,0-1.024.816-1.895,2.556-1.895a4.018,4.018,0,0,1,2.113.562l-.371.916a3.528,3.528,0,0,0-1.75-.5c-.979,0-1.378.381-1.378.862,0,1.351,3.762.471,3.762,2.8,0,1.015-.825,1.886-2.566,1.886A4.084,4.084,0,0,1,217.736,121.227Z" transform="translate(-217.736 -114.9)" fill="#263238"/><path d="M224.4,119.728a2.581,2.581,0,1,1,2.574,2.484A2.436,2.436,0,0,1,224.4,119.728Zm4.015,0a1.439,1.439,0,1,0-1.441,1.514A1.41,1.41,0,0,0,228.415,119.728Z" transform="translate(-218.67 -115.151)" fill="#263238"/><path d="M231.2,119.728a2.449,2.449,0,0,1,2.62-2.474,2.178,2.178,0,0,1,2.067,1.124l-.87.508a1.369,1.369,0,0,0-1.205-.671,1.515,1.515,0,0,0,0,3.028,1.368,1.368,0,0,0,1.205-.671l.87.507a2.2,2.2,0,0,1-2.067,1.133A2.456,2.456,0,0,1,231.2,119.728Z" transform="translate(-219.624 -115.151)" fill="#263238"/><path d="M237.61,115.488a.69.69,0,0,1,.725-.68.675.675,0,0,1,.726.653.726.726,0,0,1-1.45.028Zm.154,1.477H238.9v4.841h-1.133Z" transform="translate(-220.522 -114.808)" fill="#263238"/><path d="M244.831,119.311v2.838h-1.07v-.59a1.714,1.714,0,0,1-1.523.653c-1.106,0-1.8-.607-1.8-1.45,0-.806.543-1.441,2.012-1.441H243.7v-.072c0-.662-.4-1.052-1.206-1.052a2.391,2.391,0,0,0-1.469.481l-.444-.825a3.4,3.4,0,0,1,2.048-.6C244.025,117.254,244.831,117.916,244.831,119.311Zm-1.132,1.324v-.562h-1.17c-.77,0-.978.29-.978.644,0,.408.344.671.924.671A1.235,1.235,0,0,0,243.7,120.636Z" transform="translate(-220.919 -115.151)" fill="#263238"/><path d="M247.235,115.124h1.133v6.727h-1.133Z" transform="translate(-221.872 -114.852)" fill="#263238"/><path d="M259.147,121.913l-.009-4.207-2.085,3.481h-.525l-2.085-3.426v4.152h-1.125v-6.346h.97l2.521,4.206,2.475-4.206h.97l.009,6.346Z" transform="translate(-222.725 -114.914)" fill="#263238"/><path d="M267.729,120.091h-3.8a1.465,1.465,0,0,0,1.568,1.161,1.737,1.737,0,0,0,1.315-.526l.607.7a2.719,2.719,0,0,1-4.623-1.7,2.407,2.407,0,0,1,2.5-2.474,2.361,2.361,0,0,1,2.448,2.5C267.747,119.846,267.737,119.983,267.729,120.091Zm-3.808-.752h2.747a1.319,1.319,0,0,0-1.369-1.179A1.339,1.339,0,0,0,263.921,119.339Z" transform="translate(-224.054 -115.151)" fill="#263238"/><path d="M274.495,115.124v6.727h-1.089v-.626a1.993,1.993,0,0,1-1.6.689,2.479,2.479,0,0,1,0-4.958,1.982,1.982,0,0,1,1.56.653v-2.484Zm-1.115,4.306a1.443,1.443,0,1,0-1.442,1.514A1.415,1.415,0,0,0,273.38,119.43Z" transform="translate(-224.973 -114.852)" fill="#263238"/><path d="M276.882,115.488a.691.691,0,0,1,.726-.68.674.674,0,0,1,.725.653.726.726,0,0,1-1.45.028Zm.155,1.477h1.132v4.841h-1.132Z" transform="translate(-226.029 -114.808)" fill="#263238"/><path d="M284.1,119.311v2.838h-1.07v-.59a1.714,1.714,0,0,1-1.523.653c-1.106,0-1.8-.607-1.8-1.45,0-.806.543-1.441,2.012-1.441h1.252v-.072c0-.662-.4-1.052-1.206-1.052a2.391,2.391,0,0,0-1.469.481l-.444-.825a3.4,3.4,0,0,1,2.048-.6C283.3,117.254,284.1,117.916,284.1,119.311Zm-1.132,1.324v-.562H281.8c-.77,0-.979.29-.979.644,0,.408.345.671.925.671A1.235,1.235,0,0,0,282.972,120.636Z" transform="translate(-226.425 -115.151)" fill="#263238"/><path d="M289.755,115.567h2.584a3.181,3.181,0,1,1,0,6.346h-2.584Zm2.548,5.766a2.6,2.6,0,1,0,0-5.185h-1.877v5.185Z" transform="translate(-227.834 -114.914)" fill="#263238"/><path d="M301.839,119.208v2.956h-.616v-.744a1.793,1.793,0,0,1-1.641.788c-1.079,0-1.74-.561-1.74-1.387,0-.734.471-1.351,1.84-1.351H301.2v-.29c0-.816-.463-1.26-1.351-1.26a2.427,2.427,0,0,0-1.586.562l-.291-.481a3.032,3.032,0,0,1,1.941-.644A1.694,1.694,0,0,1,301.839,119.208Zm-.643,1.524v-.78h-1.5c-.924,0-1.223.363-1.223.852,0,.553.444.9,1.205.9A1.526,1.526,0,0,0,301.2,120.732Z" transform="translate(-228.967 -115.166)" fill="#263238"/><path d="M303.756,121.62l.29-.508a2.876,2.876,0,0,0,1.7.536c.907,0,1.279-.309,1.279-.78,0-1.242-3.091-.263-3.091-2.149,0-.78.671-1.36,1.885-1.36a3.234,3.234,0,0,1,1.686.445l-.281.517a2.446,2.446,0,0,0-1.4-.408c-.861,0-1.242.335-1.242.788,0,1.287,3.091.317,3.091,2.149,0,.825-.725,1.359-1.966,1.359A3.188,3.188,0,0,1,303.756,121.62Z" transform="translate(-229.797 -115.166)" fill="#263238"/><path d="M314.07,119.086v2.765h-.644v-2.7a1.332,1.332,0,0,0-1.432-1.524,1.563,1.563,0,0,0-1.668,1.722v2.5h-.643v-6.727h.643v2.792a2.015,2.015,0,0,1,1.786-.87A1.826,1.826,0,0,1,314.07,119.086Z" transform="translate(-230.628 -114.852)" fill="#263238"/><path d="M321.651,119.467a2.314,2.314,0,0,1-2.375,2.429,2.067,2.067,0,0,1-1.841-.988v.943h-.616v-6.727h.644v2.865a2.083,2.083,0,0,1,1.813-.943A2.307,2.307,0,0,1,321.651,119.467Zm-.643,0a1.779,1.779,0,1,0-1.777,1.858A1.751,1.751,0,0,0,321.008,119.467Z" transform="translate(-231.628 -114.852)" fill="#263238"/><path d="M323.408,119.78a2.425,2.425,0,1,1,2.43,2.429A2.346,2.346,0,0,1,323.408,119.78Zm4.2,0a1.774,1.774,0,1,0-1.768,1.858A1.739,1.739,0,0,0,327.606,119.78Z" transform="translate(-232.552 -115.166)" fill="#263238"/><path d="M334.081,119.208v2.956h-.617v-.744a1.79,1.79,0,0,1-1.641.788c-1.079,0-1.74-.561-1.74-1.387,0-.734.471-1.351,1.84-1.351h1.513v-.29c0-.816-.462-1.26-1.35-1.26a2.429,2.429,0,0,0-1.587.562l-.29-.481a3.03,3.03,0,0,1,1.94-.644A1.7,1.7,0,0,1,334.081,119.208Zm-.645,1.524v-.78h-1.5c-.924,0-1.224.363-1.224.852,0,.553.445.9,1.206.9A1.525,1.525,0,0,0,333.436,120.732Z" transform="translate(-233.488 -115.166)" fill="#263238"/><path d="M339.169,117.359v.626c-.054,0-.109-.009-.155-.009a1.542,1.542,0,0,0-1.6,1.758v2.43h-.643V117.4h.616v.934A1.8,1.8,0,0,1,339.169,117.359Z" transform="translate(-234.425 -115.166)" fill="#263238"/><path d="M345.131,115.124v6.727h-.617v-.943a2.065,2.065,0,0,1-1.84.988,2.426,2.426,0,0,1,0-4.85,2.083,2.083,0,0,1,1.813.943v-2.865Zm-.635,4.343a1.774,1.774,0,1,0-1.768,1.858A1.744,1.744,0,0,0,344.5,119.467Z" transform="translate(-234.92 -114.852)" fill="#263238"/></g><g transform="translate(59.912 157.038)"><path d="M404.427,250.286c0,.124-49.1.224-109.657.224-60.576,0-109.667-.1-109.667-.224s49.091-.224,109.667-.224C355.325,250.062,404.427,250.162,404.427,250.286Z" transform="translate(-185.103 -250.062)" fill="#ebebeb"/></g><g transform="translate(140.482 58.141)"><path d="M279.036,346.117c-.123,0-.224-47.255-.224-105.534,0-58.3.1-105.545.224-105.545s.224,47.246.224,105.545C279.26,298.862,279.159,346.117,279.036,346.117Z" transform="translate(-278.812 -135.038)" fill="#ebebeb"/></g><g transform="translate(211.646 58.141)"><path d="M361.8,346.117c-.124,0-.224-47.255-.224-105.534,0-58.3.1-105.545.224-105.545s.224,47.246.224,105.545C362.028,298.862,361.928,346.117,361.8,346.117Z" transform="translate(-361.581 -135.038)" fill="#ebebeb"/></g></g><g transform="translate(482.039 77.357)"><g transform="translate(59.508 58.759)"><path d="M625.232,149.793s11.912,3.783,16.823,14.684c4.823,10.7,12.274,29.605,12.274,29.605s2.867-.489,2.149,2.285l14.512-11.916,7.7,7.019-3.225,3.917s.9,8.162-5.733,13.059-24.186,16.813-29.561,9.141-7.512-32.986-7.512-32.986Z" transform="translate(-625.232 -149.793)" fill="#489ddc"/><g transform="translate(42.134 37.635)"><path d="M682.344,201.529a36.135,36.135,0,0,1-4.209-3.82,36.362,36.362,0,0,1-3.9-4.141,72.124,72.124,0,0,1,8.1,7.961Z" transform="translate(-674.236 -193.565)" fill="#263238"/></g><g transform="translate(48.14 40.17)"><path d="M684.758,196.519a9.343,9.343,0,0,1-3.531,3.431c-.078-.1.717-.858,1.683-1.8A9.038,9.038,0,0,1,684.758,196.519Z" transform="translate(-681.222 -196.513)" fill="#263238"/></g><g transform="translate(45.738 38.381)"><path d="M682.2,194.445c.072.1-.712.793-1.752,1.547a6.241,6.241,0,0,1-2.016,1.185c-.072-.1.712-.793,1.753-1.548A6.22,6.22,0,0,1,682.2,194.445Z" transform="translate(-678.429 -194.433)" fill="#263238"/></g><g transform="translate(43.161 35.774)"><path d="M679.181,191.41c.083.091-.691.853-1.731,1.7a6.667,6.667,0,0,1-2.014,1.353c-.073-.1.7-.862,1.731-1.7A6.779,6.779,0,0,1,679.181,191.41Z" transform="translate(-675.431 -191.4)" fill="#263238"/></g><g transform="translate(24.237 46.662)"><path d="M653.428,210.825a15.3,15.3,0,0,1,6.928-6.755c.072.117-1.793,1.263-3.7,3.136S653.543,210.9,653.428,210.825Z" transform="translate(-653.422 -204.064)" fill="#263238"/></g><g transform="translate(23.248 44.095)"><path d="M652.282,206.923a10.059,10.059,0,0,1,5.533-5.835c.069.119-1.526,1.026-3.05,2.649C653.226,205.344,652.405,206.985,652.282,206.923Z" transform="translate(-652.271 -201.079)" fill="#263238"/></g></g><g transform="translate(12.544 46.659)"><path d="M570.61,151.252s1.93-6.933,5.657-7.479c0,0,1.811-6.013,9.418-7.13,4.36-.641,20.789-2.261,23.45,1.339s2.973,5.635,2.973,5.635,7.982,1.1,6.887,10.8l-44.137,2.211Z" transform="translate(-570.61 -135.72)" fill="#1d80c8"/></g><g transform="translate(52.871 305.852)"><path d="M633.443,437.18l-.291,16.439s16.522,4.442,16.763,7.484l-31.8,1.958-.6-25.635Z" transform="translate(-617.513 -437.18)" fill="#489ddc"/><g transform="translate(4.845 15.178)"><path d="M624.054,454.892a1.3,1.3,0,0,0-.874,1.5,1.253,1.253,0,0,0,1.482.879,1.373,1.373,0,0,0,.917-1.6,1.3,1.3,0,0,0-1.643-.744" transform="translate(-623.148 -454.833)" fill="#ebebeb"/></g><g transform="translate(0.538 22.052)"><path d="M618.2,466.658l-.06-2.557,30.149-1.273s1.778.946,1.78,1.941Z" transform="translate(-618.139 -462.828)" fill="#263238"/></g><g transform="translate(13.278 16.133)"><path d="M635.832,456.079c0,.156-.78.241-1.537.755-.77.5-1.153,1.177-1.3,1.118-.144-.027.071-.963,1-1.57S635.863,455.935,635.832,456.079Z" transform="translate(-632.956 -455.944)" fill="#263238"/></g><g transform="translate(17.447 17.53)"><path d="M639.882,457.629c.039.15-.631.427-1.149,1.1-.536.653-.657,1.368-.812,1.364-.146.028-.271-.883.388-1.7S639.876,457.48,639.882,457.629Z" transform="translate(-637.806 -457.569)" fill="#263238"/></g><g transform="translate(21.298 18.851)"><path d="M642.484,461.814c-.141.036-.372-.739.012-1.6s1.107-1.213,1.175-1.085c.09.126-.374.593-.679,1.3C642.67,461.138,642.637,461.8,642.484,461.814Z" transform="translate(-642.285 -459.105)" fill="#263238"/></g><g transform="translate(12.491 11.981)"><path d="M635.354,451.648c-.063.143-.781-.059-1.66.016-.88.058-1.561.366-1.644.234-.092-.111.566-.7,1.6-.774S635.429,451.524,635.354,451.648Z" transform="translate(-632.041 -451.115)" fill="#263238"/></g><g transform="translate(10.917 6.699)"><path d="M635.094,447.469a2.988,2.988,0,0,1-1.6.021,7.161,7.161,0,0,1-1.681-.483,7.46,7.46,0,0,1-.926-.47,1.949,1.949,0,0,1-.489-.366.678.678,0,0,1-.086-.827.854.854,0,0,1,.676-.369,2.054,2.054,0,0,1,.6.072,5.625,5.625,0,0,1,2.49,1.262c.753.672,1.016,1.249.963,1.28-.07.052-.438-.428-1.2-.98a6.369,6.369,0,0,0-1.439-.777,5.9,5.9,0,0,0-.922-.266c-.34-.083-.627-.08-.711.072-.03.058-.034.081.039.178a1.554,1.554,0,0,0,.359.268,8.335,8.335,0,0,0,.853.467,8.82,8.82,0,0,0,1.555.563A11.07,11.07,0,0,1,635.094,447.469Z" transform="translate(-630.21 -444.972)" fill="#263238"/></g><g transform="translate(15.141 4.332)"><path d="M635.585,447.31a2.546,2.546,0,0,1-.45-1.536,5.18,5.18,0,0,1,.575-2.73,1.321,1.321,0,0,1,1-.825.749.749,0,0,1,.676.433,2.181,2.181,0,0,1,.174.583,3.543,3.543,0,0,1,.021,1.076,3.669,3.669,0,0,1-.653,1.663c-.608.837-1.255,1.036-1.268.984-.053-.077.484-.388.947-1.192a3.669,3.669,0,0,0,.477-1.51,3.266,3.266,0,0,0-.046-.923c-.056-.338-.188-.61-.315-.573-.158,0-.424.261-.549.534a5.4,5.4,0,0,0-.38.873,5.783,5.783,0,0,0-.28,1.6C635.492,446.7,635.669,447.284,635.585,447.31Z" transform="translate(-635.124 -442.218)" fill="#263238"/></g></g><g transform="translate(4.448 305.331)"><g transform="translate(0 0)"><path d="M580.163,438.671l-2.7,16.219s15.689,6.822,15.481,9.867l-31.747-2.739,3.176-25.444Z" transform="translate(-561.193 -436.574)" fill="#489ddc"/><g transform="translate(5.572 15.648)"><path d="M568.763,454.8a1.3,1.3,0,0,0-1.085,1.358,1.253,1.253,0,0,0,1.337,1.088,1.374,1.374,0,0,0,1.141-1.444,1.3,1.3,0,0,0-1.516-.977" transform="translate(-567.673 -454.773)" fill="#ebebeb"/></g><g transform="translate(0 22.907)"><path d="M561.193,465.753l.316-2.537,30.009,3.174s1.62,1.2,1.475,2.181Z" transform="translate(-561.193 -463.216)" fill="#263238"/></g><g transform="translate(13.691 17.997)"><path d="M580.225,457.73c-.025.154-.807.124-1.631.522-.836.376-1.315.994-1.449.915-.138-.049.212-.942,1.219-1.407S580.277,457.594,580.225,457.73Z" transform="translate(-577.116 -457.506)" fill="#263238"/></g><g transform="translate(17.564 19.934)"><path d="M584,459.85c.016.155-.688.33-1.3.916-.627.567-.851,1.256-1,1.23-.148.005-.138-.913.635-1.627S584.012,459.7,584,459.85Z" transform="translate(-581.621 -459.759)" fill="#263238"/></g><g transform="translate(21.184 21.726)"><path d="M585.955,464.359c-.145.015-.26-.785.247-1.579s1.273-1.037,1.322-.9c.07.138-.457.531-.863,1.19C586.24,463.718,586.11,464.364,585.955,464.359Z" transform="translate(-585.831 -461.843)" fill="#263238"/></g><g transform="translate(13.695 13.681)"><path d="M580.432,453.262c-.083.132-.764-.173-1.645-.227-.88-.072-1.6.132-1.661-.01-.075-.124.663-.61,1.7-.53S580.523,453.151,580.432,453.262Z" transform="translate(-577.121 -452.486)" fill="#263238"/></g></g><g transform="translate(12.914 8.1)"><path d="M580.79,449.07a3,3,0,0,1-1.584-.215,7.193,7.193,0,0,1-1.591-.724,7.66,7.66,0,0,1-.847-.6,1.979,1.979,0,0,1-.43-.434.681.681,0,0,1,.036-.831A.853.853,0,0,1,577.1,446a2.079,2.079,0,0,1,.583.159,5.785,5.785,0,0,1,.942.466,5.64,5.64,0,0,1,1.336,1.149c.646.776.821,1.385.764,1.408-.077.041-.371-.488-1.045-1.147a6.382,6.382,0,0,0-1.309-.979,5.89,5.89,0,0,0-.874-.4c-.323-.132-.608-.171-.714-.034-.039.053-.046.075.012.182a1.607,1.607,0,0,0,.316.317,8.275,8.275,0,0,0,.775.587,8.836,8.836,0,0,0,1.456.787A10.958,10.958,0,0,1,580.79,449.07Z" transform="translate(-576.213 -445.994)" fill="#263238"/></g><g transform="translate(17.028 6.501)"><path d="M581.23,449a2.546,2.546,0,0,1-.218-1.585,5.169,5.169,0,0,1,.442-1.707,5.24,5.24,0,0,1,.528-.91,1.322,1.322,0,0,1,1.115-.669.748.748,0,0,1,.6.528,2.19,2.19,0,0,1,.087.6,3.546,3.546,0,0,1-.138,1.067,3.672,3.672,0,0,1-.89,1.548c-.725.739-1.394.84-1.4.787-.041-.085.537-.313,1.112-1.04a3.681,3.681,0,0,0,.695-1.424,3.29,3.29,0,0,0,.089-.919c-.005-.342-.1-.63-.226-.612-.157-.022-.457.2-.622.447a5.332,5.332,0,0,0-.5.807,5.76,5.76,0,0,0-.512,1.542C581.227,448.392,581.318,448.992,581.23,449Z" transform="translate(-580.997 -444.135)" fill="#263238"/></g></g><g transform="translate(5.035 144.088)"><path d="M570.784,250.036c-.213-.015-8.908,173.7-8.908,173.7h24.11l7.111-80.072,5.887-65.08,3.678,60.159,4.378,84.783,22.118-.789-2-173.7H598.528Z" transform="translate(-561.876 -249.037)" fill="#263238"/></g><g transform="translate(19.985)"><g transform="translate(5.566 5.554)"><path d="M585.793,103.906l3.294,38.195,8.967,5.291,9.991-4.837c.119-2.234.131-12.856.131-12.856s7.959-1.238,8.058-9.2c.047-3.865-.506-11.852-1.086-19.047a14.727,14.727,0,0,0-15.54-13.519h0A14.729,14.729,0,0,0,585.793,103.906Z" transform="translate(-585.738 -87.912)" fill="#ffbe9d"/><g transform="translate(12.077 38.723)"><path d="M610.158,135.9a18.5,18.5,0,0,1-10.374-2.948s2.452,5.727,10.392,5.01Z" transform="translate(-599.784 -132.95)" fill="#eb996e"/></g><g transform="translate(10.422 12.074)"><g transform="translate(0.773 4.286)"><g transform="translate(12.021)"><g transform="translate(1.663 2.239)"><path d="M616.942,110.571a1.137,1.137,0,0,1-1.1,1.147,1.087,1.087,0,0,1-1.171-1.025,1.138,1.138,0,0,1,1.094-1.148A1.089,1.089,0,0,1,616.942,110.571Z" transform="translate(-614.674 -109.544)" fill="#263238"/></g><path d="M617.232,108.135c-.141.148-1-.489-2.225-.486-1.221-.015-2.118.615-2.251.465-.065-.066.078-.334.469-.619a3.127,3.127,0,0,1,1.8-.555,2.991,2.991,0,0,1,1.77.572C617.173,107.8,617.3,108.068,617.232,108.135Z" transform="translate(-612.74 -106.94)" fill="#263238"/></g><g transform="translate(0 0.229)"><g transform="translate(2.255 2.168)"><path d="M603.649,110.755a1.136,1.136,0,0,1-1.1,1.146,1.087,1.087,0,0,1-1.171-1.024,1.137,1.137,0,0,1,1.094-1.148A1.088,1.088,0,0,1,603.649,110.755Z" transform="translate(-601.381 -109.728)" fill="#263238"/></g><path d="M603.25,108.4c-.141.148-1-.489-2.225-.486-1.221-.014-2.119.615-2.252.465-.064-.066.077-.334.469-.618a3.115,3.115,0,0,1,1.8-.555,2.993,2.993,0,0,1,1.771.572C603.191,108.066,603.319,108.334,603.25,108.4Z" transform="translate(-598.759 -107.206)" fill="#263238"/></g><g transform="translate(8.358 0.303)"><path d="M609.052,117.481a8.073,8.073,0,0,1,1.986-.359c.312-.032.608-.094.66-.307a1.587,1.587,0,0,0-.208-.926q-.441-1.134-.923-2.377a40.842,40.842,0,0,1-2.074-6.22,40.917,40.917,0,0,1,2.569,6.038c.309.835.6,1.63.885,2.392a1.81,1.81,0,0,1,.162,1.225.784.784,0,0,1-.514.457,2.126,2.126,0,0,1-.53.074A7.975,7.975,0,0,1,609.052,117.481Z" transform="translate(-608.479 -107.292)" fill="#263238"/></g><g transform="translate(5.132 11.338)"><path d="M604.927,120.127c.2-.011.2,1.315,1.338,2.258s2.549.8,2.56.982c.018.083-.316.258-.912.274a3.307,3.307,0,0,1-2.137-.745A2.882,2.882,0,0,1,604.738,121C604.688,120.448,604.836,120.119,604.927,120.127Z" transform="translate(-604.728 -120.127)" fill="#263238"/></g></g><path d="M603.44,102.872c-.12.333-1.341.175-2.776.348-1.438.144-2.595.564-2.786.266-.084-.143.117-.456.586-.777a4.861,4.861,0,0,1,4.237-.468C603.227,102.453,603.492,102.714,603.44,102.872Z" transform="translate(-597.859 -101.955)" fill="#263238"/><g transform="translate(12.672 0.675)"><path d="M616.762,104.007c-.215.278-1.058-.01-2.07-.024-1.013-.049-1.871.187-2.069-.1-.086-.141.049-.419.424-.682a3,3,0,0,1,3.334.1C616.74,103.585,616.857,103.872,616.762,104.007Z" transform="translate(-612.598 -102.74)" fill="#263238"/></g></g></g><g transform="translate(32.149 11.521)"><path d="M616.656,94.852" transform="translate(-616.656 -94.852)" fill="#263238"/></g><path d="M579.266,92.812a3.012,3.012,0,0,1,2.493-3.167,3.674,3.674,0,0,1,5.26-4.62,4.765,4.765,0,0,1,8.4-1.708,5.063,5.063,0,0,1,8.54,1.352,5.552,5.552,0,0,1,8.2,1.168,7.349,7.349,0,0,1,2.723-.432,3.282,3.282,0,0,1,2.863,1.816,2.163,2.163,0,0,1-.817,2.566,2.638,2.638,0,1,1,1.2,5.128,1.492,1.492,0,0,1,.821,1.383,2.816,2.816,0,0,1-1.861,2.059,10.189,10.189,0,0,1-7.263-.113c-2.348-.79-4.526-2.021-6.853-2.87S596.741,93,594.4,93.826a4.273,4.273,0,0,0-.936.5,6.256,6.256,0,0,0-2.313,4.034c-.008.057-.016.11-.022.161-.311,2.27-.255,4.579-.588,6.846a10.282,10.282,0,0,1-2.794,6.134c-.69.643-1.909,1.085-2.475.332a1.943,1.943,0,0,1-.284-1.039c-.306-3.953-1.164-7.589-1.618-11.456a11.143,11.143,0,0,0-2.161-2.622A6.21,6.21,0,0,1,579.266,92.812Z" transform="translate(-579.264 -81.452)" fill="#263238"/><g transform="translate(12.297 2.621)"><path d="M605,89.239a2.05,2.05,0,0,0,.109-1.06,4.083,4.083,0,0,0-1.273-2.613,4.168,4.168,0,0,0-4.185-.825,3.221,3.221,0,0,0-1.962,1.76,2.272,2.272,0,0,0-.059,1.468,1.737,1.737,0,0,0,1.033,1.143,1.638,1.638,0,0,0,1.545-.175,1.534,1.534,0,0,0,.567-1.4,1.973,1.973,0,0,0-.649-1.271,3.053,3.053,0,0,0-1.157-.64,4.871,4.871,0,0,0-4.239.7,2.941,2.941,0,0,0-1.033,1.352,2.31,2.31,0,0,0-.065,1.283c.185.7.577.92.577.9a2.848,2.848,0,0,1-.384-.937,2.212,2.212,0,0,1,.137-1.144,2.709,2.709,0,0,1,.979-1.163,4.571,4.571,0,0,1,3.885-.541,1.893,1.893,0,0,1,1.456,1.513,1.037,1.037,0,0,1-.374.954,1.139,1.139,0,0,1-1.064.107,1.5,1.5,0,0,1-.692-1.959,2.781,2.781,0,0,1,1.661-1.5,3.828,3.828,0,0,1,3.785.654,4.062,4.062,0,0,1,1.315,2.37C605.015,88.858,604.951,89.234,605,89.239Z" transform="translate(-593.566 -84.501)" fill="#455a64"/></g><g transform="translate(5.936 2.105)"><path d="M594.286,84.078a1.838,1.838,0,0,0-.719-.137,7.877,7.877,0,0,0-2,.052,4.653,4.653,0,0,0-2.678,1.364,2.982,2.982,0,0,0-.423,3.6,2.5,2.5,0,0,0,.435.5l.257-.426a2.1,2.1,0,0,0-1.9.248,2.373,2.373,0,0,0-1.012,1.436,3.4,3.4,0,0,0,.618,2.752,5.317,5.317,0,0,0,1.363,1.279c.365.241.586.337.6.311s-.166-.181-.488-.462a6.337,6.337,0,0,1-1.191-1.324,3.114,3.114,0,0,1-.463-2.442,1.923,1.923,0,0,1,.835-1.139,1.626,1.626,0,0,1,1.446-.192l1.307.523-1.05-.949a2.089,2.089,0,0,1-.338-.388,2.389,2.389,0,0,1-.325-1.6,2.7,2.7,0,0,1,.672-1.41,4.446,4.446,0,0,1,2.4-1.323C593.232,84.037,594.289,84.18,594.286,84.078Z" transform="translate(-586.169 -83.901)" fill="#455a64"/></g><g transform="translate(2.331 10.704)"><path d="M582.18,93.9c-.061-.014-.2.264-.2.757a2.705,2.705,0,0,0,2.377,2.647c.491.052.782-.059.775-.121.014-.139-1.2-.114-2.083-1.095A4.9,4.9,0,0,1,582.18,93.9Z" transform="translate(-581.976 -93.901)" fill="#455a64"/></g><g transform="translate(24.396 5.293)"><path d="M619.77,88.866a2.16,2.16,0,0,0-.744-.606,5.2,5.2,0,0,0-6.139.811,3,3,0,0,0-.944,2.194,1.835,1.835,0,0,0,1.876,1.729,1.4,1.4,0,0,0,1.136-.861,2.046,2.046,0,0,0,.083-1.335,2.564,2.564,0,0,0-1.719-1.671,3.291,3.291,0,0,0-2.148.04,4.66,4.66,0,0,0-1.577.958,7.772,7.772,0,0,0-1.566,2.093,3.043,3.043,0,0,0-.386.871,3.971,3.971,0,0,0,.555-.77,8.961,8.961,0,0,1,1.631-1.924,3.5,3.5,0,0,1,3.34-.827,2.115,2.115,0,0,1,1.39,1.358c.193.644-.11,1.513-.789,1.565a1.354,1.354,0,0,1-1.332-1.259,2.566,2.566,0,0,1,.787-1.84,4.819,4.819,0,0,1,3.272-1.426,5.352,5.352,0,0,1,2.439.469A9.083,9.083,0,0,0,619.77,88.866Z" transform="translate(-607.638 -87.608)" fill="#455a64"/></g><g transform="translate(3.006 24.898)"><path d="M588.059,110.661c-.136-.059-5.468-1.617-5.295,3.823s5.6,4.143,5.6,3.987S588.059,110.661,588.059,110.661Z" transform="translate(-582.76 -110.41)" fill="#ffbe9d"/><g transform="translate(1.386 1.781)"><path d="M586.867,116.754c-.024-.017-.093.07-.25.148a.949.949,0,0,1-.708.037,2.346,2.346,0,0,1-1.152-2.07,3.146,3.146,0,0,1,.222-1.365,1.1,1.1,0,0,1,.69-.75.483.483,0,0,1,.568.242c.077.15.046.26.076.268s.114-.1.063-.319a.6.6,0,0,0-.225-.334.722.722,0,0,0-.529-.122,1.337,1.337,0,0,0-.963.875,3.22,3.22,0,0,0-.279,1.527,2.461,2.461,0,0,0,1.457,2.305,1.017,1.017,0,0,0,.862-.171C586.862,116.886,586.887,116.764,586.867,116.754Z" transform="translate(-584.372 -112.482)" fill="#eb996e"/></g></g></g><g transform="translate(8.506 58.898)"><path d="M630.177,222.208l-2.435-25.667,2.742-21.131a27.828,27.828,0,0,0-13.569-25.455h0L595.688,155.8l-20.8-5.846-8.977,5.985,7.546,42.733L570.2,226.84c-.77,5.134.95,12.438.95,12.438l56.634.487,1.079-.524A46.988,46.988,0,0,0,630.177,222.208Z" transform="translate(-565.913 -149.955)" fill="#489ddc"/></g><g transform="translate(18.79 51.968)"><path d="M583.1,143.816s3.922-.719,6.47,1.307,10.652,8.253,10.652,8.253,7.254-13.351,13.136-11.259,6.862,14.377,6.862,14.377l-26.206,1.638-16.142-.33Z" transform="translate(-577.874 -141.894)" fill="#489ddc"/></g><g transform="translate(28.227 117.373)"><path d="M625.492,242.489c-.034-.026.334-.448.856-1.338a14.42,14.42,0,0,0,1.565-10.851c-.6-2.566-2.338-5.035-4.33-7.532l.141.074a7.676,7.676,0,0,1-3.748-1.337,8.5,8.5,0,0,1-2.762-3.22l.22.131-7.515.659-8.5.733.19-.155a7.612,7.612,0,0,1-1.213,2.309,8.635,8.635,0,0,1-1.864,1.687,11.506,11.506,0,0,1-4.382,1.678l.161-.254a18.283,18.283,0,0,1,.538,7.87,14.893,14.893,0,0,1-2,5.752,8.3,8.3,0,0,1-2.738,2.8,4.967,4.967,0,0,1-.929.464,1.563,1.563,0,0,1-.332.125c-.018-.038.444-.206,1.2-.691a8.482,8.482,0,0,0,2.609-2.823,14.928,14.928,0,0,0,1.879-5.677,18.128,18.128,0,0,0-.592-7.705l-.066-.214.227-.039a11.2,11.2,0,0,0,4.2-1.638,8.23,8.23,0,0,0,1.76-1.605,7.194,7.194,0,0,0,1.131-2.169l.048-.142.142-.013,8.5-.745,7.516-.649.15-.013.07.144a8.113,8.113,0,0,0,2.6,3.045,7.278,7.278,0,0,0,3.537,1.281l.089.008.052.066a38.043,38.043,0,0,1,2.7,3.8,13.577,13.577,0,0,1,1.646,3.908,14.486,14.486,0,0,1-.02,6.887,13.617,13.617,0,0,1-1.763,4.116A7.719,7.719,0,0,1,625.492,242.489Z" transform="translate(-588.849 -217.966)" fill="#263238"/></g><g transform="translate(23.545 124.346)" opacity="0.3"><path d="M592.993,226.076c-.529,3.014-1.473,6.126-3.711,8.213-1.189,1.11-2.724,1.78-3.981,2.813s-2.259,2.689-1.769,4.241a3.506,3.506,0,0,0,4.112,2.012,6.989,6.989,0,0,0,3.911-2.981,14.764,14.764,0,0,0,1.438-14.3" transform="translate(-583.405 -226.076)"/></g><g transform="translate(14.973 142.685)"><path d="M631.228,247.413a2.913,2.913,0,0,1-.579.112l-1.672.232c-1.453.2-3.562.436-6.172.684-5.22.5-12.459.959-20.464.99s-15.25-.382-20.474-.846c-2.612-.23-4.722-.452-6.177-.64l-1.673-.221a2.849,2.849,0,0,1-.58-.107,2.918,2.918,0,0,1,.59.018l1.683.137c1.458.135,3.572.309,6.184.5,5.223.383,12.454.739,20.447.714s15.217-.438,20.438-.858c2.61-.208,4.723-.4,6.18-.542l1.682-.15A2.967,2.967,0,0,1,631.228,247.413Z" transform="translate(-573.435 -247.405)" fill="#263238"/></g><g transform="translate(19.768 143.723)"><path d="M580.364,254.268a6.816,6.816,0,0,1-1.135-5.655c.132.013.059,1.315.379,2.866C579.912,253.031,580.482,254.205,580.364,254.268Z" transform="translate(-579.012 -248.613)" fill="#263238"/></g><g transform="translate(24.968 143.917)"><path d="M585.733,253.432a12.106,12.106,0,0,1-.6-4.594,12.106,12.106,0,0,1,.6,4.594Z" transform="translate(-585.06 -248.838)" fill="#263238"/></g><g transform="translate(32.301 144.298)"><path d="M594.112,254.848a11.024,11.024,0,0,1-.291-5.567,43.436,43.436,0,0,1,.291,5.567Z" transform="translate(-593.588 -249.281)" fill="#263238"/></g><g transform="translate(37.994 144.585)"><path d="M600.8,254.306a12.534,12.534,0,0,1-.5-4.691,12.534,12.534,0,0,1,.5,4.691Z" transform="translate(-600.21 -249.615)" fill="#263238"/></g><g transform="translate(45.62 144.681)"><path d="M609.583,254.516a8.648,8.648,0,0,1-.285-4.789,26.565,26.565,0,0,1,.285,4.789Z" transform="translate(-609.079 -249.727)" fill="#263238"/></g><g transform="translate(51.086 144.681)"><path d="M615.692,253.463a7.918,7.918,0,0,1-.06-3.736,7.918,7.918,0,0,1,.06,3.736Z" transform="translate(-615.437 -249.727)" fill="#263238"/></g><g transform="translate(57.736 144.104)"><path d="M623.739,253.843a7.787,7.787,0,0,1-.329-4.787,41.543,41.543,0,0,1,.329,4.787Z" transform="translate(-623.171 -249.056)" fill="#263238"/></g><g transform="translate(62.989 143.245)"><path d="M629.884,253.033a14.088,14.088,0,0,1-.521-4.976,14.083,14.083,0,0,1,.521,4.976Z" transform="translate(-629.281 -248.057)" fill="#263238"/></g><g transform="translate(68.13 143.344)"><path d="M635.313,253.535a16.6,16.6,0,0,1,.861-5.363,16.583,16.583,0,0,1-.861,5.363Z" transform="translate(-635.26 -248.172)" fill="#263238"/></g><g transform="translate(13.951 143.147)"><path d="M574.59,255.126a9.711,9.711,0,0,1-2.248-7.184c.136,0,.2,1.7.827,3.685C573.78,253.612,574.7,255.052,574.59,255.126Z" transform="translate(-572.246 -247.942)" fill="#263238"/></g><g transform="translate(11.885 110.686)" opacity="0.3"><path d="M570.02,228.828c1.294,1.867,3.989,2.045,6.227,1.654,5.29-.923,10.035-3.934,13.892-7.672s6.923-8.2,9.963-12.623a117.919,117.919,0,0,1-13.775,11.554,39.458,39.458,0,0,1-16.484,6.822" transform="translate(-569.843 -210.188)"/></g><g transform="translate(65.353 77.556)"><path d="M632.035,171.655a2.245,2.245,0,0,1,.138.5c.08.378.182.857.308,1.446.252,1.26.593,3.086.984,5.348.785,4.523,1.758,10.79,2.738,17.724s1.769,13.23,2.271,17.793c.252,2.282.432,4.13.54,5.41.044.6.079,1.089.107,1.475a.259.259,0,1,1-.089.009c-.05-.383-.113-.868-.19-1.466-.169-1.332-.4-3.158-.681-5.39-.582-4.551-1.426-10.833-2.4-17.768s-1.9-13.2-2.608-17.736c-.349-2.223-.635-4.041-.843-5.368-.091-.595-.166-1.079-.224-1.461A2.324,2.324,0,0,1,632.035,171.655Z" transform="translate(-632.03 -171.655)" fill="#263238"/></g><g transform="translate(0 64.744)"><g transform="translate(48.063 9.581)"><path d="M639.549,169.881c-2.73.5-3.026-2.655-8.094-1.853-3.784.6-10.582,2.027-19.535,8.041l5.15,12.064,9.661-6.631,5.694,4.529a2.66,2.66,0,0,0,3.782-.482l3.482-4.627s4.623,5.7,5.141,5.745a1.531,1.531,0,0,0,1.433-2.339c-.623-.768-6.848-11.589-6.848-11.589s4.03-.823,3.081-2.112C642.5,170.627,642.278,169.38,639.549,169.881Z" transform="translate(-611.92 -167.897)" fill="#ffbe9d"/><g transform="translate(20.682 13.967)"><path d="M639.03,188.828a8.441,8.441,0,0,1-.071-.88,4.64,4.64,0,0,0-2.207-3.378,8.118,8.118,0,0,1-.776-.42,1.771,1.771,0,0,1,.871.245,4.208,4.208,0,0,1,2.31,3.536A1.755,1.755,0,0,1,639.03,188.828Z" transform="translate(-635.974 -184.142)" fill="#eb996e"/></g><g transform="translate(22.815 11.701)"><path d="M641.46,185.366a5.957,5.957,0,0,0-3-3.853,1.492,1.492,0,0,1,.724.242A4.458,4.458,0,0,1,641.4,184.6,1.5,1.5,0,0,1,641.46,185.366Z" transform="translate(-638.456 -181.506)" fill="#eb996e"/></g><g transform="translate(25.244 9.442)"><path d="M641.283,178.885c.016-.03.248.056.567.291a3.82,3.82,0,0,1,1.475,2.632c.034.4-.014.638-.047.637a5.641,5.641,0,0,0-2-3.56Z" transform="translate(-641.281 -178.879)" fill="#eb996e"/></g></g><path d="M564.526,156.754s-4.889,3.147-6.713,11.972c-1.26,6.092.169,24.771-1.568,35.108a16.255,16.255,0,0,0,4.023,13.647h0c7.369,4.725,13.149,4.265,17.9,1.637,14.52-8.021,25.9-22.35,30.872-30.425l3.116-3.441-5.075-14.816-5.81,4.332c-9.388,2.891-19.222,11.056-29.2,20.967Z" transform="translate(-556.02 -156.754)" fill="#489ddc"/><g transform="translate(19.194 16.667)"><path d="M579.162,194.5a16.921,16.921,0,0,1-.285-2.681c-.123-1.658-.268-3.951-.383-6.486s-.169-4.835-.146-6.5a12.345,12.345,0,0,1,.179-2.693,22.956,22.956,0,0,1,.138,2.689c.077,1.8.172,4.023.278,6.486.114,2.533.21,4.828.252,6.491A15.367,15.367,0,0,1,579.162,194.5Z" transform="translate(-578.343 -176.139)" fill="#263238"/></g><g transform="translate(4.247 13.511)"><path d="M560.96,219.684a1.716,1.716,0,0,1,.285.174c.187.115.446.316.816.533a19.484,19.484,0,0,0,3.328,1.7,15.617,15.617,0,0,0,5.762,1.095,16.193,16.193,0,0,0,7.474-1.963,46.182,46.182,0,0,0,7.96-5.159,90.508,90.508,0,0,0,8.048-7.375,166.964,166.964,0,0,0,16.237-19.044l1.781-2.478-.028.2-5-14.506.313.113c-11.408,6.914-20.742,13.675-27.382,18.437l-7.748,5.62-2.076,1.5-.541.378a1.008,1.008,0,0,1-.191.118.985.985,0,0,1,.169-.148l.519-.408,2.034-1.551c1.78-1.346,4.383-3.3,7.676-5.723,6.6-4.823,15.9-11.636,27.319-18.585l.226-.138.087.251c1.579,4.562,3.266,9.442,5.016,14.5l.038.11-.066.092-1.785,2.486a164.238,164.238,0,0,1-16.307,19.07,89.6,89.6,0,0,1-8.11,7.376,46.018,46.018,0,0,1-8.049,5.15,16.368,16.368,0,0,1-7.615,1.93,15.583,15.583,0,0,1-5.827-1.183,18.027,18.027,0,0,1-3.313-1.783c-.364-.23-.615-.444-.794-.572A1.9,1.9,0,0,1,560.96,219.684Z" transform="translate(-560.96 -172.468)" fill="#263238"/></g><g transform="translate(8.932 34.696)"><path d="M577.489,197.441c-.014.077-.729-.046-1.879-.009a11.541,11.541,0,0,0-7.959,3.582c-.79.837-1.172,1.453-1.239,1.413a4.745,4.745,0,0,1,1-1.622,10.442,10.442,0,0,1,8.195-3.689A4.739,4.739,0,0,1,577.489,197.441Z" transform="translate(-566.409 -197.108)" fill="#263238"/></g><g transform="translate(45.266 17.641)"><path d="M615.469,193a14.913,14.913,0,0,1-1.05-2.284l-2.366-5.571-2.435-5.542a15.058,15.058,0,0,1-.945-2.33,13.152,13.152,0,0,1,1.231,2.2c.7,1.385,1.619,3.324,2.56,5.5s1.721,4.173,2.25,5.633A13.2,13.2,0,0,1,615.469,193Z" transform="translate(-608.667 -177.271)" fill="#263238"/></g><g transform="translate(50.497 25.41)"><path d="M619.478,186.315a13.443,13.443,0,0,1-4.724,3.617,38.753,38.753,0,0,1,4.724-3.617Z" transform="translate(-614.751 -186.307)" fill="#263238"/></g><g transform="translate(48.628 21.409)"><path d="M617.652,181.663a21.505,21.505,0,0,1-5.07,3.548,21.555,21.555,0,0,1,5.07-3.548Z" transform="translate(-612.578 -181.654)" fill="#263238"/></g><g transform="translate(46.789 17.013)"><path d="M615.982,176.55a25.7,25.7,0,0,1-5.541,3.891,25.69,25.69,0,0,1,5.541-3.891Z" transform="translate(-610.438 -176.541)" fill="#263238"/></g></g><g transform="translate(15.037 61.157)"><path d="M599.865,160.158c-.057.069-1.237-.986-3.388-2.329a32.339,32.339,0,0,0-3.927-2.077,36.1,36.1,0,0,0-5.139-1.768,33.941,33.941,0,0,0-9.806-1c-2.532.123-4.081.444-4.1.357a5.279,5.279,0,0,1,1.076-.27,12.153,12.153,0,0,1,1.285-.217c.5-.06,1.076-.16,1.716-.187a29.892,29.892,0,0,1,4.5,0,32.935,32.935,0,0,1,5.438.886,33.585,33.585,0,0,1,5.2,1.825,28.861,28.861,0,0,1,3.929,2.188c.544.338,1,.7,1.406,1a11.238,11.238,0,0,1,1.01.822A5.267,5.267,0,0,1,599.865,160.158Z" transform="translate(-573.509 -152.582)" fill="#263238"/></g><g transform="translate(40.811 58.639)"><path d="M622.608,149.666c.013.074-1.182.3-3.063.831a40.518,40.518,0,0,0-7.1,2.761,41.926,41.926,0,0,0-6.453,4.054c-1.554,1.188-2.455,2-2.505,1.949a3.206,3.206,0,0,1,.574-.637c.385-.394.978-.929,1.735-1.561a34.962,34.962,0,0,1,6.448-4.205,33.984,33.984,0,0,1,7.221-2.667c.959-.23,1.743-.381,2.289-.452A3.205,3.205,0,0,1,622.608,149.666Z" transform="translate(-603.486 -149.654)" fill="#263238"/></g><g transform="translate(69.598 45.814)"><path d="M639.346,188.152l63.38-11.644a2.132,2.132,0,0,0,1.73-1.826l4.821-37.539a2.133,2.133,0,0,0-2.4-2.386l-39.819,5.332a2.135,2.135,0,0,0-1.833,1.844l-4.834,37.913a2.132,2.132,0,0,1-1.65,1.812l-21.776,4.919A1.973,1.973,0,0,0,639.346,188.152Z" transform="translate(-636.967 -134.737)" fill="#455a64"/><g transform="translate(0.304 6.26)"><path d="M669.575,142.018c.012.024-.211.113-.558.387a3.925,3.925,0,0,0-1.1,1.561c-.67,1.555-.759,4.057-1.191,7.067-.794,6.08-1.879,14.4-3.078,23.6-.328,2.31-.561,4.539-.947,6.739a4.034,4.034,0,0,1-.687,1.563,3.166,3.166,0,0,1-1.37.991,18.233,18.233,0,0,1-3.057.678L647.05,186.45l-7.111,1.207-1.938.306a3.939,3.939,0,0,1-.681.077,3.993,3.993,0,0,1,.665-.166l1.923-.388,7.086-1.347,10.522-1.942a18.126,18.126,0,0,0,2.969-.668,2.742,2.742,0,0,0,1.187-.859,3.613,3.613,0,0,0,.6-1.4c.364-2.118.606-4.406.93-6.7,1.25-9.189,2.382-17.506,3.208-23.582.212-1.5.4-2.864.575-4.069a11.056,11.056,0,0,1,.77-3.025,3.812,3.812,0,0,1,1.2-1.563A2.066,2.066,0,0,1,669.575,142.018Z" transform="translate(-637.32 -142.018)" fill="#263238"/></g><g transform="translate(32.559 0.735)"><path d="M714.089,135.6a1.44,1.44,0,0,1-.395.09l-1.143.172-4.207.584c-3.551.494-8.448,1.228-13.857,2.061s-10.315,1.555-13.875,2c-1.78.226-3.222.395-4.221.492l-1.151.1a1.378,1.378,0,0,1-.4.006,1.365,1.365,0,0,1,.394-.1l1.14-.187,4.2-.632,13.851-2.133c5.41-.833,10.32-1.52,13.885-1.933,1.782-.208,3.227-.359,4.228-.444l1.152-.089A1.358,1.358,0,0,1,714.089,135.6Z" transform="translate(-674.835 -135.592)" fill="#263238"/></g><g transform="translate(50.494 10.048)"><path d="M696.834,146.424a1.151,1.151,0,1,1-1.139,1.163,1.2,1.2,0,0,1,1.139-1.163" transform="translate(-695.695 -146.424)" fill="#fff"/></g></g><g transform="translate(105.662 80.001)"><path d="M678.912,188.285s1.947-3.462,3.609-3.637,5.773-1.224,5.773-1.224a14.194,14.194,0,0,0,2.8-3.324c.874-1.661,2.1-3.585,2.8-3.323s.962.437.524,1.924-1.574,4.492-1.574,4.492h1.487s1.661-7.553,3.673-7.466c0,0,.962.525.874,1.312,0,0,1.05-2.186,1.662-1.749s.612,2.273.437,4.111-.35,3.032-.35,3.032l1.487-.5s3.585-7.608,4.635-7.434,1.05,1.4.7,2.361-2.362,5.685-2.362,5.685-6.675,3.753-8.046,4.374c-1.275.577-12.227,6.718-12.227,6.718Z" transform="translate(-678.912 -174.5)" fill="#ffbe9d"/></g><g transform="translate(11.834 148.221)"><path d="M571.038,265.867a1.547,1.547,0,0,1,2.139-1.258c4.333,1.827,15.109,5.957,22.355,5.193,9.253-.976,16.295-7.043,22.319-5.415s10.02,4.836,11.352,3.528-.88-13.585-.88-13.585l-56.634-.487s-1.216,8.453-1.855,11.13c-.347,1.457,1.2.893,1.2.893Z" transform="translate(-569.784 -253.844)" fill="#455a64"/><g transform="translate(1.033 7.161)"><path d="M629.611,267.528a3.277,3.277,0,0,1-.589-.193l-1.657-.623a57.045,57.045,0,0,0-6.173-2.014,26.615,26.615,0,0,0-4.4-.738,21.914,21.914,0,0,0-5.1.251c-3.573.569-7.324,1.99-11.394,3.071a28.589,28.589,0,0,1-21.013-2.19c-1.23-.619-2.332-1.189-3.328-1.624a16.476,16.476,0,0,0-2.624-.917,15.473,15.473,0,0,0-2.349-.346,7.056,7.056,0,0,1,2.388.176,15.546,15.546,0,0,1,2.683.856c1.015.418,2.135.972,3.37,1.571a28.711,28.711,0,0,0,20.761,2.04c4.034-1.07,7.81-2.488,11.441-3.045a22.017,22.017,0,0,1,5.192-.214,26.353,26.353,0,0,1,4.45.8,49.232,49.232,0,0,1,6.158,2.159l1.628.7A3.137,3.137,0,0,1,629.611,267.528Z" transform="translate(-570.985 -262.173)" fill="#fafafa"/></g><g transform="translate(1.113 4.026)"><path d="M629.624,263.724a3.252,3.252,0,0,1-.6-.138l-1.7-.48-6.243-1.845a35.949,35.949,0,0,0-9.381-1.916,18.338,18.338,0,0,0-5.578.649,59.58,59.58,0,0,0-5.745,2.033,32.987,32.987,0,0,1-5.877,1.824,14.314,14.314,0,0,1-5.745-.054,28.274,28.274,0,0,1-4.935-1.6l-4.143-1.741a33.285,33.285,0,0,0-3.484-1.216,18.122,18.122,0,0,0-2.732-.509l-1.013-.068-.745.018a3.269,3.269,0,0,1-.619-.008,3.2,3.2,0,0,1,.613-.083c.2-.017.453-.047.75-.061l1.027.027a16.988,16.988,0,0,1,2.781.44,31.587,31.587,0,0,1,3.537,1.163c2.577.957,5.517,2.487,9.045,3.235a13.994,13.994,0,0,0,5.583.027,33.24,33.24,0,0,0,5.8-1.81A57.886,57.886,0,0,1,606,259.57a18.6,18.6,0,0,1,5.706-.637,35.182,35.182,0,0,1,9.458,2.025l6.2,1.981,1.68.56A3.15,3.15,0,0,1,629.624,263.724Z" transform="translate(-571.078 -258.527)" fill="#fafafa"/></g><g transform="translate(1.757 0.906)"><path d="M629.127,258.509a7.415,7.415,0,0,1-2.238.517,16.847,16.847,0,0,1-6.19-.862c-1.273-.359-2.646-.806-4.138-1.192a38.747,38.747,0,0,0-4.835-.911,38.283,38.283,0,0,0-11.233.279c-3.939.684-7.7,1.681-11.25,1.589a19.8,19.8,0,0,1-4.924-.773c-1.5-.41-2.873-.867-4.138-1.218a17.009,17.009,0,0,0-6.117-.782,15.085,15.085,0,0,0-2.235.42,2.543,2.543,0,0,1,.549-.228,8.647,8.647,0,0,1,1.668-.366,16.4,16.4,0,0,1,6.217.651c2.556.637,5.521,1.849,8.987,1.884,3.468.07,7.2-.927,11.168-1.618a37.907,37.907,0,0,1,16.237.714c1.5.407,2.874.871,4.133,1.248a17.538,17.538,0,0,0,6.089.992A19.686,19.686,0,0,0,629.127,258.509Z" transform="translate(-571.828 -254.897)" fill="#fafafa"/></g></g></g></g></svg>